<?xml version="1.0" encoding="utf-8"?>
<!-- Generator: Adobe Illustrator 18.1.1, SVG Export Plug-In . SVG Version: 6.00 Build 0)  -->
<svg version="1.1" id="Layer_1" xmlns="http://www.w3.org/2000/svg" xmlns:xlink="http://www.w3.org/1999/xlink" x="0px" y="0px"
	 viewBox="0 0 35 32.2" enable-background="new 0 0 35 32.2" xml:space="preserve">
<g>
	<path fill="#F89821" d="M35,3.1c0,1.7-0.8,3.4-2.3,5l-0.2,0.2L18.8,22.7c-2.9,3-5.3,5.4-7.4,7S8,32.2,7.1,32.2
		c-0.9,0-2-0.4-3.3-1.2c-1.3-0.8-2.1-1.7-2.5-2.6c-0.3-0.7-0.6-2.3-0.9-4.7S0,18.8,0,16c0-1.5,0.6-2.9,1.9-4.2
		c1.3-1.3,2.7-1.9,4.2-1.9c1.5,0,2.3,1.3,2.6,4c0,0.3,0.1,0.5,0.1,0.7c0.2,2,0.5,3.5,0.8,4.3s0.7,1.2,1.3,1.2c0.2,0,0.6-0.2,1.2-0.7
		c0.6-0.5,1.3-1.1,2.2-1.9l14-13.8c1.2-1.2,2.2-2.1,3.1-2.7S33,0,33.6,0c0.5,0,0.8,0.2,1,0.5s0.3,1,0.3,1.8V3.1z"/>
</g>
</svg>
