<?xml version="1.0" encoding="utf-8"?>
<!-- Generator: Adobe Illustrator 18.1.1, SVG Export Plug-In . SVG Version: 6.00 Build 0)  -->
<svg version="1.1" id="Layer_1" xmlns="http://www.w3.org/2000/svg" xmlns:xlink="http://www.w3.org/1999/xlink" x="0px" y="0px"
	 viewBox="0 0 60 60" enable-background="new 0 0 60 60" xml:space="preserve">
<g>
	<circle fill="#F89820" cx="30" cy="30" r="30"/>
</g>
<g id="Your_Icon">
	<path fill="#FFFFFF" d="M47.7,43l-6.2-6.2c-0.8-0.8-1.8-1.1-2.8-0.9l-4.4-4.4c3.6-4.9,3.2-11.9-1.3-16.4c-2.4-2.4-5.6-3.7-8.9-3.7
		c-3.4,0-6.5,1.3-8.9,3.7c-4.9,4.9-4.9,12.9,0,17.9c2.4,2.4,5.6,3.7,8.9,3.7h0c2.7,0,5.3-0.8,7.4-2.4l4.4,4.4c-0.1,1,0.2,2,0.9,2.8
		l6.2,6.2c0.6,0.6,1.5,1,2.3,1c0.8,0,1.7-0.3,2.3-1C49,46.4,49,44.3,47.7,43z M24,32c-2.1,0-4.2-0.8-5.7-2.4
		c-3.1-3.1-3.1-8.2,0-11.4c1.5-1.5,3.5-2.4,5.7-2.4c2.1,0,4.2,0.8,5.7,2.4c3.1,3.1,3.1,8.2,0,11.4C28.2,31.2,26.1,32,24,32z"/>
</g>
</svg>
