<?xml version="1.0" encoding="utf-8"?>
<!-- Generator: Adobe Illustrator 18.1.1, SVG Export Plug-In . SVG Version: 6.00 Build 0)  -->
<svg version="1.1" id="Layer_1" xmlns="http://www.w3.org/2000/svg" xmlns:xlink="http://www.w3.org/1999/xlink" x="0px" y="0px"
	 viewBox="0 126 611.7 538.1" enable-background="new 0 126 611.7 538.1" xml:space="preserve">
<g>
	<g>
		<defs>
			<rect id="SVGID_1_" y="126" width="445.1" height="108.4"/>
		</defs>
		<clipPath id="SVGID_2_">
			<use xlink:href="#SVGID_1_"  overflow="visible"/>
		</clipPath>
		<path clip-path="url(#SVGID_2_)" fill="#008265" d="M130.5,193.2c-3-0.9-6.1-1.3-9.1-1.3c-7.4,0-15.2,3-15.2,10.4
			c0,12.6,20.8,11.3,20.8,20.4c0,4.3-5.2,6.1-8.7,6.1c-4.8,0-9.5-1.7-13-5.2l1.7,7.4c3.5,1.3,6.9,1.7,10.8,1.7c9.5,0,16-6.1,16-12.6
			c0-11.3-20.8-10.8-20.8-19.1c0-4.3,4.3-5.6,7.8-5.6c3.5,0,6.9,1.3,9.5,3.9C130.5,199.2,130.5,193.2,130.5,193.2z"/>
	</g>
	<g>
		<defs>
			<rect id="SVGID_3_" y="126" width="445.1" height="108.4"/>
		</defs>
		<clipPath id="SVGID_4_">
			<use xlink:href="#SVGID_3_"  overflow="visible"/>
		</clipPath>
		<path clip-path="url(#SVGID_4_)" fill="#008265" d="M170.8,232.2h8.7l0,0c-3-1.3-2.6-5.6-2.6-8.2v-22.5c0-2.6-0.4-7.4,2.6-8.2l0,0
			h-11.3l0,0c3,1.3,2.6,5.6,2.6,8.2v18.2c0,2.2,0,3.5-1.3,5.6c-2.2,3-5.6,4.3-8.7,4.3c-6.1,0-9.5-3.9-9.5-11.7v-16
			c0-2.6-0.4-6.9,2.6-8.2l0,0h-11.3l0,0c3,1.3,2.6,5.6,2.6,8.2v16c0,4.3,0,8.2,3,11.7c2.6,3,6.9,4.3,10.8,4.3
			c4.3,0,9.1-1.3,11.7-4.8V232.2z"/>
	</g>
	<g>
		<defs>
			<rect id="SVGID_5_" y="126" width="445.1" height="108.4"/>
		</defs>
		<clipPath id="SVGID_6_">
			<use xlink:href="#SVGID_5_"  overflow="visible"/>
		</clipPath>
		<path clip-path="url(#SVGID_6_)" fill="#008265" d="M20.8,149.8c0.4-2.2,2.6-3.5,6.5-2.2l0,0c-8.2-4.3-14.3-2.2-15.6,1.3
			c-1.3,3.5,2.2,15.2,23.4,17.8l0,0C26,161.5,19.9,154.6,20.8,149.8"/>
	</g>
	<g>
		<defs>
			<rect id="SVGID_7_" y="126" width="445.1" height="108.4"/>
		</defs>
		<clipPath id="SVGID_8_">
			<use xlink:href="#SVGID_7_"  overflow="visible"/>
		</clipPath>
		<path clip-path="url(#SVGID_8_)" fill="#008265" d="M35.1,171.5c-10,2.2-35.1,4.3-23.8-3.9l0,0c-4.3,2.2-7.4,4.8-8.7,6.9
			c-1.7,3.5,0,7.4,6.9,7.4C17.3,181,29.9,175.8,35.1,171.5L35.1,171.5"/>
	</g>
	<g>
		<defs>
			<rect id="SVGID_9_" y="126" width="445.1" height="108.4"/>
		</defs>
		<clipPath id="SVGID_10_">
			<use xlink:href="#SVGID_9_"  overflow="visible"/>
		</clipPath>
		<path clip-path="url(#SVGID_10_)" fill="#008265" d="M39,174.5c-3.9,9.1-14.7,23.4-18.2,22.5c-3-0.4-3-4.8-2.6-5.6l0,0
			c-1.7,8.2-0.4,14.3,2.2,16.5C22.5,210.1,34.7,209.6,39,174.5L39,174.5"/>
	</g>
	<g>
		<defs>
			<rect id="SVGID_11_" y="126" width="445.1" height="108.4"/>
		</defs>
		<clipPath id="SVGID_12_">
			<use xlink:href="#SVGID_11_"  overflow="visible"/>
		</clipPath>
		<path clip-path="url(#SVGID_12_)" fill="#008265" d="M43.8,172.8L43.8,172.8c10,9.5,23.4,24.7,18.2,30.8
			c-1.7,2.2-8.2,2.2-13.9-0.9l0,0c12.6,11.3,23,11.7,27.7,6.9C81.9,203.1,75,184.9,43.8,172.8"/>
	</g>
	<g>
		<defs>
			<rect id="SVGID_13_" y="126" width="445.1" height="108.4"/>
		</defs>
		<clipPath id="SVGID_14_">
			<use xlink:href="#SVGID_13_"  overflow="visible"/>
		</clipPath>
		<path clip-path="url(#SVGID_14_)" fill="#008265" d="M95.4,165c-5.6-6.9-28.2-8.7-49.8,2.6l0,0c37.3-3.9,46.8,7.4,35.1,11.7l0,0
			C93.2,178.9,99.3,170.2,95.4,165"/>
	</g>
	<g>
		<defs>
			<rect id="SVGID_15_" y="126" width="445.1" height="108.4"/>
		</defs>
		<clipPath id="SVGID_16_">
			<use xlink:href="#SVGID_15_"  overflow="visible"/>
		</clipPath>
		<path clip-path="url(#SVGID_16_)" fill="#008265" d="M68.9,146.8c2.6,0,3.9,2.2,1.7,6.5l0,0c6.5-8.2,6.5-16,3-17.8
			c-4.3-2.2-20.4,1.3-30.8,28.6l0,0C53.7,152.4,65,146.8,68.9,146.8"/>
	</g>
	<g>
		<defs>
			<rect id="SVGID_17_" y="126" width="445.1" height="108.4"/>
		</defs>
		<clipPath id="SVGID_18_">
			<use xlink:href="#SVGID_17_"  overflow="visible"/>
		</clipPath>
		<path clip-path="url(#SVGID_18_)" fill="#008265" d="M45.5,137.2c2.2-1.3,3,1.3,3.5,5.2l0,0c3-13.4-2.6-16.5-6.5-15.6
			c-4.3,0.9-13,13.9-4.3,36.8l0,0C38.6,153.3,42.5,139.4,45.5,137.2"/>
	</g>
	<g>
		<defs>
			<rect id="SVGID_19_" y="126" width="445.1" height="108.4"/>
		</defs>
		<clipPath id="SVGID_20_">
			<use xlink:href="#SVGID_19_"  overflow="visible"/>
		</clipPath>
		<path clip-path="url(#SVGID_20_)" fill="#008265" d="M197.6,224.4c0,3.5,0,5.6,3,7.8l0,0h-10.8l0,0c3-1.7,3-4.3,3-7.8v-23.8
			c0-3.5,0-5.6-3-7.4l0,0h8.7l0,0c0.4,0.9,0.4,0.9,0.9,1.3l0.9,1.3l22.1,27.7v-23c0-3.5,0-5.6-3-7.4l0,0h10.4l0,0
			c-3,1.7-3,4.3-3,7.4v33.8c-4.3-1.3-6.1-3.5-8.7-6.9l-20.8-26v23H197.6z"/>
	</g>
	<g>
		<defs>
			<rect id="SVGID_21_" y="126" width="445.1" height="108.4"/>
		</defs>
		<clipPath id="SVGID_22_">
			<use xlink:href="#SVGID_21_"  overflow="visible"/>
		</clipPath>
		<path clip-path="url(#SVGID_22_)" fill="#008265" d="M412.6,201l20.8,26c2.6,3.5,4.3,5.6,8.7,6.9v-33.8c0-3.5,0-5.6,3-7.8l0,0
			h-10.4l0,0c3,1.7,3,4.3,3,7.8v23l-22.1-27.7l-0.9-1.3c-0.4-0.4-0.9-0.9-0.9-1.3l0,0h-8.7l0,0c3,1.7,3,4.3,3,7.8v23.8
			c0,3.5,0,5.6-3,7.8l0,0h10.4l0,0c-3-1.7-3-4.3-3-7.8L412.6,201L412.6,201z"/>
	</g>
	<g>
		<defs>
			<rect id="SVGID_23_" y="126" width="445.1" height="108.4"/>
		</defs>
		<clipPath id="SVGID_24_">
			<use xlink:href="#SVGID_23_"  overflow="visible"/>
		</clipPath>
		<path clip-path="url(#SVGID_24_)" fill="#008265" d="M375.8,195.8c9.5,0,15.2,8.7,15.2,17.3c0,9.1-5.6,15.6-15.2,15.6
			s-15.2-8.7-15.2-16.9C360.6,202.7,366.2,195.8,375.8,195.8 M376.2,191.4c-12.6-0.4-22.5,9.1-22.5,20.8c0,12.1,10,20.8,22.1,20.8
			c12.1,0,22.1-9.1,22.1-21.2C397.9,201,388.8,191.4,376.2,191.4"/>
	</g>
	<g>
		<defs>
			<rect id="SVGID_25_" y="126" width="445.1" height="108.4"/>
		</defs>
		<clipPath id="SVGID_26_">
			<use xlink:href="#SVGID_25_"  overflow="visible"/>
		</clipPath>
		<path clip-path="url(#SVGID_26_)" fill="#008265" d="M335.5,223.9c0,2.6,0.4,7.4-2.6,8.2l0,0h11.3l0,0c-3-1.3-2.6-5.6-2.6-8.2
			v-22.5c0-2.6-0.4-7.4,2.6-8.2l0,0h-11.3l0,0c3,1.3,2.6,5.6,2.6,8.2V223.9z"/>
	</g>
	<g>
		<defs>
			<rect id="SVGID_27_" y="126" width="445.1" height="108.4"/>
		</defs>
		<clipPath id="SVGID_28_">
			<use xlink:href="#SVGID_27_"  overflow="visible"/>
		</clipPath>
		<path clip-path="url(#SVGID_28_)" fill="#008265" d="M259.6,196.2c9.5,0,15.2,8.7,15.2,17.3c0,9.1-6.1,15.6-15.2,15.6
			c-9.5,0-15.6-8.7-15.6-16.9C244,202.7,250.1,196.2,259.6,196.2 M260.1,191.9c-12.6-0.4-22.5,9.1-22.5,20.8
			c0,12.1,10,20.8,22.1,20.8c12.1,0,22.1-9.1,22.1-21.2C281.3,201.4,272.6,191.9,260.1,191.9"/>
	</g>
	<g>
		<defs>
			<rect id="SVGID_29_" y="126" width="445.1" height="108.4"/>
		</defs>
		<clipPath id="SVGID_30_">
			<use xlink:href="#SVGID_29_"  overflow="visible"/>
		</clipPath>
		<path clip-path="url(#SVGID_30_)" fill="#008265" d="M300.8,225.7c1.3,3.5,2.2,5.2,5.2,7.4l13.4-35.1c0.4-1.7,3-4.3,7.4-5.2l0,0
			h-10.4l0,0c0,1.3-0.4,2.6-0.9,3.9l-10,25.6l-10.8-26.9c-0.4-0.9-0.9-1.7-0.9-2.6l0,0h-10.4l0,0c3.5,0.9,5.2,3.5,6.1,4.8
			L300.8,225.7z"/>
	</g>
	<g>
		<defs>
			<rect id="SVGID_31_" y="126" width="445.1" height="108.4"/>
		</defs>
		<clipPath id="SVGID_32_">
			<use xlink:href="#SVGID_31_"  overflow="visible"/>
		</clipPath>
		<rect x="141.7" y="192.3" clip-path="url(#SVGID_32_)" fill="#008265" width="0.4" height="0.4"/>
	</g>
</g>
<g enable-background="new    ">
	<path fill="#6D6E71" d="M4.6,363.7c0,3.3,0,7.9,5.1,7.9s5.1-4.6,5.1-7.9V348H17v17.4c0,6.4-3.4,8.1-7.3,8.1s-7.3-1.7-7.3-8.1V348
		h2.2V363.7z"/>
	<path fill="#6D6E71" d="M23.5,373h-2.1v-17.5h2.1v2.1h0.1c1-1.5,2.4-2.5,4.2-2.5c4.3,0,4.8,3.2,4.8,5.5V373h-2.1v-12.2
		c0-2-0.8-4-3.2-4c-1.9,0-3.8,1.3-3.8,5.2V373z"/>
	<path fill="#6D6E71" d="M46,370.8L46,370.8c-1.1,1.7-2.5,2.6-4.5,2.6c-5.1,0-5.3-5-5.3-9.1c0-3.4,0-9.1,5.4-9.1
		c1.6,0,3.2,0.7,4.2,2.1l0.1,0V348h2.1v21.6c0,1.7,0.1,2.9,0.2,3.5h-2L46,370.8z M45.9,365.9v-3.1c0-1,0-5.9-3.9-5.9
		c-3.7,0-3.7,3.4-3.7,7.5c0,6.5,1.6,7.4,3.8,7.4C44,371.7,45.9,370.1,45.9,365.9z"/>
	<path fill="#6D6E71" d="M53.8,364.7v1.4c0,2.4,0.7,5.7,4,5.7c2.6,0,3.9-1.7,3.8-4h2.2c-0.2,4.2-2.5,5.7-6,5.7c-3,0-6-1.2-6-6.5
		v-4.3c0-5.1,2.1-7.4,6-7.4c6,0,6,4.3,6,9.5H53.8z M61.7,363c0-3.9-0.6-6.2-4-6.2s-4,2.3-4,6.2H61.7z"/>
	<path fill="#6D6E71" d="M69.8,357.9L69.8,357.9c0.9-1.7,2.8-2.7,4.9-2.7v2.1c-2.9-0.2-4.9,1.5-4.9,4.5V373h-2.1v-17.5h2.1V357.9z"
		/>
	<path fill="#6D6E71" d="M85.6,373v-25h2.1v25H85.6z"/>
	<path fill="#6D6E71" d="M93.1,350.6V348h2.6v2.6H93.1z M93.3,373v-17.5h2.1V373H93.3z"/>
	<path fill="#6D6E71" d="M108.1,360.5c0.1-2.2-0.7-3.7-3.1-3.7c-1.3,0-2.4,0.7-2.8,2c-0.3,0.8-0.5,3.2-0.5,5.5c0,3.2,0,7.3,3.2,7.3
		c2.7,0,3.1-1.7,3.2-3.8h2.1c0.2,4.7-3.2,5.5-4.8,5.5c-5.9,0-5.9-4.7-5.9-9c0-1.7,0.1-4.5,0.5-5.8c0.9-2.5,2.9-3.4,5.3-3.4
		c3,0,5.1,1.7,4.9,5.4H108.1z"/>
	<path fill="#6D6E71" d="M115.4,364.7v1.4c0,2.4,0.7,5.7,4,5.7c2.6,0,3.9-1.7,3.8-4h2.2c-0.2,4.2-2.5,5.7-6,5.7c-3,0-6-1.2-6-6.5
		v-4.3c0-5.1,2.1-7.4,6-7.4c6,0,6,4.3,6,9.5H115.4z M123.4,363c0-3.9-0.6-6.2-4-6.2s-4,2.3-4,6.2H123.4z"/>
	<path fill="#6D6E71" d="M131.3,373h-2.1v-17.5h2.1v2.1h0.1c1-1.5,2.4-2.5,4.2-2.5c4.3,0,4.8,3.2,4.8,5.5V373h-2.1v-12.2
		c0-2-0.8-4-3.2-4c-1.9,0-3.8,1.3-3.8,5.2V373z"/>
	<path fill="#6D6E71" d="M149.3,373.4c-3.8,0-5.3-1.8-5.2-5.5h2.1c0,2.4,0.6,4,3.2,4c2,0,3-1.1,3-3.1c0-4.6-7.9-3.4-7.9-9.2
		c0-3.2,2.2-4.4,5.3-4.4c3.5,0,4.6,2.4,4.6,5.1h-2c-0.1-2.2-0.7-3.4-3.1-3.4c-1.5,0-2.7,1-2.7,2.5c0,4.4,7.9,3.2,7.9,9
		C154.4,371.7,152.5,373.4,149.3,373.4z"/>
	<path fill="#6D6E71" d="M159.7,364.7v1.4c0,2.4,0.7,5.7,4,5.7c2.6,0,3.9-1.7,3.8-4h2.2c-0.2,4.2-2.5,5.7-6,5.7c-3,0-6-1.2-6-6.5
		v-4.3c0-5.1,2.1-7.4,6-7.4c6,0,6,4.3,6,9.5H159.7z M167.6,363c0-3.9-0.6-6.2-4-6.2s-4,2.3-4,6.2H167.6z"/>
	<path fill="#6D6E71" d="M182.5,357.2h-2.8v-1.7h2.8v-2.9c0-1.7,0.2-4.7,4.5-4.7c0.3,0,0.7,0.1,1.2,0.1v1.7h-1.6c-2,0-2,1.8-2,2.8v3
		h3.5v1.7h-3.5V373h-2.1V357.2z"/>
	<path fill="#6D6E71" d="M193,357.9L193,357.9c0.9-1.7,2.8-2.7,4.9-2.7v2.1c-2.9-0.2-4.9,1.5-4.9,4.5V373H191v-17.5h2.1V357.9z"/>
	<path fill="#6D6E71" d="M200,366.2v-3.8c0-4.5,1.9-7.2,6-7.2s6,2.7,6,7.2v3.8c0,4.5-1.9,7.2-6,7.2S200,370.7,200,366.2z
		 M202.1,364.3c0,4.6,0.5,7.5,4,7.5s4-2.9,4-7.5c0-4.5-0.5-7.4-4-7.4S202.1,359.7,202.1,364.3z"/>
	<path fill="#6D6E71" d="M217.9,373h-2.1v-17.5h1.9v2.2h0.1c0.8-1.4,2.2-2.5,4.2-2.5c1.8,0,3.4,1,4,2.7c0.9-1.7,2.4-2.7,4.3-2.7
		c2.9,0,4.4,2,4.5,4.8v13h-2.1v-12.5c0-1.7-0.7-3.7-2.7-3.7c-2.6,0-3.6,2.6-3.6,4.9V373h-2.1v-12.5c0-1.7-0.7-3.7-2.7-3.7
		c-2.6,0-3.6,2.6-3.6,4.9V373z"/>
</g>
<g>
	<g>
		<defs>
			<rect id="SVGID_33_" x="237.1" y="337.1" width="218" height="46.8"/>
		</defs>
		<clipPath id="SVGID_34_">
			<use xlink:href="#SVGID_33_"  overflow="visible"/>
		</clipPath>
		<path clip-path="url(#SVGID_34_)" fill="#003E7E" d="M319.9,363.9c0-0.9-0.4-1.3-0.9-2.2c-0.4-0.9-1.3-1.7-1.7-2.2
			c-0.9-0.9-2.2-1.3-3.5-1.7c-1.7-0.4-3-0.9-4.8-0.9c-2.2-0.4-4.3-0.4-6.5-0.4h-16.9c0,0-0.4,0-0.4,0.4v5.2v5.2c0,0,0,0.4,0.4,0.4
			h29.9c0.4,0,0.9,0,1.3,0c0.9,0,1.7-0.4,2.2-1.3C319.9,365.2,319.9,364.8,319.9,363.9 M315.1,364.4h-26.4c0,0-0.4,0-0.4-0.4v-2.2
			v-2.2c0,0,0-0.4,0.4-0.4h15.6c2.2,0,4.3,0.4,6.1,0.9c1.3,0.4,2.6,0.9,3.9,1.3c0,0,0.4,0,0.4,0.4l0.4,0.4c0.4,0.4,0.4,0.9,0.4,1.3
			C316,364.4,315.1,364.4,315.1,364.4"/>
	</g>
	<g>
		<defs>
			<rect id="SVGID_35_" x="237.1" y="337.1" width="218" height="46.8"/>
		</defs>
		<clipPath id="SVGID_36_">
			<use xlink:href="#SVGID_35_"  overflow="visible"/>
		</clipPath>
		<path clip-path="url(#SVGID_36_)" fill="#003E7E" d="M350.2,347.9C350.6,347.9,350.6,347.9,350.2,347.9l0.4-6.9c0,0,0-0.4-0.4-0.4
			H332c0,0-0.4,0-0.4,0.4v6.5c0,0,0,0.4,0.4,0.4H350.2z M334.6,343.6C334.6,343.6,335,343.1,334.6,343.6l12.6-0.4c0,0,0.4,0,0.4,0.4
			v1.7c0,0,0,0.4-0.4,0.4H335c0,0-0.4,0-0.4-0.4V343.6z"/>
	</g>
	<g>
		<defs>
			<rect id="SVGID_37_" x="237.1" y="337.1" width="218" height="46.8"/>
		</defs>
		<clipPath id="SVGID_38_">
			<use xlink:href="#SVGID_37_"  overflow="visible"/>
		</clipPath>
		<path clip-path="url(#SVGID_38_)" fill="#003E7E" d="M366.2,361.8c-0.4,0.9-0.4,1.3-0.4,2.2c0,2.6,2.6,4.8,10.8,3
			c5.6-1.3,9.1-3.5,9.5-3.5c0,0,0,0,0-0.4v-1.7v-5.6c0,0,0-0.4-0.4-0.4C386.2,355.7,369.7,355.7,366.2,361.8 M371.4,364.8
			c-3-0.4-1.7-2.2-1.7-2.2c0.4-0.4,0.4-0.4,0.9-0.9c3.9-3,12.1-3,12.1-3s0.4,0,0.4,0.4v2.6l0,0l0,0l0,0
			C380.5,363.1,374.5,365.2,371.4,364.8"/>
	</g>
	<g>
		<defs>
			<rect id="SVGID_39_" x="237.1" y="337.1" width="218" height="46.8"/>
		</defs>
		<clipPath id="SVGID_40_">
			<use xlink:href="#SVGID_39_"  overflow="visible"/>
		</clipPath>
		<path clip-path="url(#SVGID_40_)" fill="#003E7E" d="M436,365.2h-2.6c-0.4,0-0.9,0-1.3-0.4c-0.4-0.4-0.4-0.9-0.4-1.3v-1.3v-19.1
			c0-0.9,0.9-1.7,1.7-2.2c0,0,0.4,0,0.4-0.4v-3c0,0,0-0.4-0.4-0.4l0,0c-7.4,0.9-10.8,3.9-14.3,6.9s-6.9,3.5-6.9,3.5s-0.4,0-0.4,0.4
			v2.6c0,0,0,0.4,0.4,0.4c0.4,0,0.9,0.4,1.3,1.3l0,0v9.1v7.4c0,0,0,0,0,0.4c0,0.4,0.4,1.3,0.4,1.7c0.4,0.4,1.3,1.3,1.7,1.3
			c0.9,0,1.3,0.4,2.2,0.4h17.8c0,0,0.4,0,0.4-0.4v-3V365.2L436,365.2 M433,369.6L433,369.6l-14.7,0.4c-0.4,0-0.9,0-1.3-0.4l0,0
			c-0.4-0.9-0.9-1.3-0.9-1.7v-6.1v-9.1c0-0.9-0.4-1.7-0.9-2.6c0,0,0,0,0-0.4l0,0c0,0,3-1.3,6.1-3.9c2.6-2.6,5.6-3.9,7.4-4.3l0,0l0,0
			c-0.4,0.9-0.4,2.2-0.4,3v17.3v2.2c0,1.7,1.3,3.5,3,3.9c0.4,0,0.9,0,1.3,0c0,0,0.4,0,0.4,0.4V369.6L433,369.6z"/>
	</g>
	<g>
		<defs>
			<rect id="SVGID_41_" x="237.1" y="337.1" width="218" height="46.8"/>
		</defs>
		<clipPath id="SVGID_42_">
			<use xlink:href="#SVGID_41_"  overflow="visible"/>
		</clipPath>
		<path clip-path="url(#SVGID_42_)" fill="#003E7E" d="M407,365.2h-2.6c-0.4,0-0.9,0-1.3-0.4c-0.4-0.4-0.4-0.9-0.4-1.3v-1.3v-6.5
			c0-0.4,0-0.4,0-0.9c0-0.4,0-0.4,0.4-0.9c0.4-0.4,0.9-0.9,1.3-0.9l0,0c0,0,0,0,0-0.4v-2.6c0,0,0-0.4-0.4-0.4h-20.4
			c0,0-19.9-0.4-23.8,11.3c0,1.7,0,2.6,0,3.5c-0.4,1.7,0.4,3.5,1.3,4.8c1.3,1.7,3.5,3,5.6,3.5c3.5,0.9,8.2,1.3,12.6,0
			c1.3-0.4,3-0.9,4.3-1.3c0.9,0.9,1.7,0.9,3,1.3c0.9,0,1.3,0,2.2,0h18.6c0,0,0.4,0,0.4-0.4v-3L407,365.2
			C407.4,365.2,407.4,365.2,407,365.2 M404.4,369.6L404.4,369.6l-15.6,0.4h-0.9c-0.4,0-1.3,0-1.7-0.4l0,0c-0.9-0.4-1.3-0.9-1.7-1.7
			c-0.9,0.4-2.2,1.3-3.5,1.7c-5.2,1.7-12.6,2.2-16,0c-1.7-0.9-2.6-2.6-2.6-4.8c0-0.9,0.4-1.7,0.4-2.2l0,0c3.5-8.7,21.2-8.7,21.2-8.7
			h2.2h13.4l0,0l0,0c-0.4,0.4-0.4,0.9-0.4,1.3v6.9v2.2c0,1.7,1.3,3.5,3,3.9c0.4,0,0.9,0,1.3,0c0,0,0.4,0,0.4,0.4v0.9H404.4z"/>
	</g>
	<g>
		<defs>
			<rect id="SVGID_43_" x="237.1" y="337.1" width="218" height="46.8"/>
		</defs>
		<clipPath id="SVGID_44_">
			<use xlink:href="#SVGID_43_"  overflow="visible"/>
		</clipPath>
		<path clip-path="url(#SVGID_44_)" fill="#003E7E" d="M355,365.2h-2.6c-0.4,0-0.9,0-1.3-0.4c-0.4-0.4-0.4-0.9-0.4-1.3v-1.3v-11.3
			l0,0c0,0,0-0.4-0.4-0.4h-19.9c0,0-0.4,0-0.4,0.4v2.6c0,0,0,0.4,0.4,0.4l0,0c0.4,0,0.9,0.4,1.3,0.9c0,0,0,0.4,0.4,0.9
			c0,0.4,0,0.4,0,0.9v6.1v6.1c0,0,0,0,0,0.4c0,0.4,0.4,1.3,0.4,1.7c0.4,0.4,1.3,1.3,1.7,1.3c0.9,0,1.3,0.4,2.2,0.4H355
			c0,0,0.4,0,0.4-0.4v-3L355,365.2C355.4,365.2,355.4,365.2,355,365.2 M352.4,369.6L352.4,369.6l-15.6,0.4c-0.4,0-0.9,0-1.3-0.4l0,0
			c-0.4-0.4-0.4-0.9-0.4-1.3v-6.1v-6.9c0-0.4,0-0.9-0.4-1.3l0,0l0,0h13c0,0,0.4,0,0.4,0.4v8.2v2.2c0,1.7,1.3,3.5,3,3.9
			c0.4,0,0.9,0,1.3,0c0,0,0.4,0,0.4,0.4v0.4H352.4z"/>
	</g>
	<g>
		<defs>
			<rect id="SVGID_45_" x="237.1" y="337.1" width="218" height="46.8"/>
		</defs>
		<clipPath id="SVGID_46_">
			<use xlink:href="#SVGID_45_"  overflow="visible"/>
		</clipPath>
		<path clip-path="url(#SVGID_46_)" fill="#003E7E" d="M326.4,361.3c-0.4-1.3-1.3-2.6-2.2-3.9c-0.4-0.9-1.7-1.3-2.2-2.2
			c1.3-1.7,1.7-3.5,1.3-5.6c-0.4-2.2-1.3-3.9-3-5.2c-1.3-1.3-3-2.2-4.3-2.6c-3-1.3-6.9-2.6-10.4-3.5c-1.3-0.4-2.6-0.4-3.9-0.9
			c-3.5-0.4-6.9-0.9-10.4-0.9c-4.3,0-8.7,0-13,0.9c-2.6,0.4-5.2,0.9-8.2,1.7c-4.8,0.9-9.5,2.6-13.9,4.3c0,0,0,0,0,0.4v8.2
			c0,0,0,0.4,0.4,0.4c0,0,3,0,3.5,2.6v6.5v0.9c0,1.7-3.5,2.2-3.5,2.2s-0.4,0-0.4,0.4v4.3v3c0,0,0,0.4,0.4,0.4h59.8h0.4
			c2.2-0.4,3-0.4,4.3-1.3c0.4,0,0.9-0.4,0.9-0.4c0.9-0.4,1.3-0.9,2.2-1.7l0,0c0.9-0.9,1.3-1.7,1.7-2.6
			C326.8,365.2,326.8,363.5,326.4,361.3C326.4,361.8,326.4,361.8,326.4,361.3 M319,369.1c-1.3,0.4-3,0.4-4.8,0.4
			c-1.3,0-55.5,0-55.5,0s-0.4,0-0.4-0.4v-0.4V367c0,0,0-0.4,0.4-0.4c0.9,0,1.3-0.4,2.2-0.9c0.4-0.4,0.9-1.3,0.9-2.2
			c0-0.9,0-1.7,0-2.2v-0.4v-7.4c0-0.9-0.4-1.7-0.4-2.2c-0.4-0.4-0.4-0.9-0.9-1.3c-0.4-0.4-1.3-0.9-1.7-0.9c0,0,0,0,0-0.4v-3
			c0,0,0-0.4,0.4-0.4c4.3-1.3,8.2-2.6,12.6-3.9c6.5-1.3,13-2.2,19.5-2.2c6.9,0,13.4,0.9,19.9,3.5c1.3,0.4,3.9,1.7,5.2,2.2
			c1.3,0.9,1.7,1.3,2.6,2.6c0.4,0.9,0.9,2.2,0.9,3.5c0,1.7-1.3,3-2.6,3.9c0,0,0,0,0,0.4c0,0,0,0,0,0.4l0,0l0,0
			c1.7,0.9,3.5,2.2,4.3,3.9c0.4,0.4,0.9,0.9,0.9,1.7c0,0.4,0.4,0.9,0.4,1.7c0,1.3-0.4,2.6-0.9,3.5c-0.9,0.9-1.7,1.3-2.6,1.7
			C319.4,369.1,319.4,369.1,319,369.1L319,369.1z"/>
	</g>
	<g>
		<defs>
			<rect id="SVGID_47_" x="237.1" y="337.1" width="218" height="46.8"/>
		</defs>
		<clipPath id="SVGID_48_">
			<use xlink:href="#SVGID_47_"  overflow="visible"/>
		</clipPath>
		<path clip-path="url(#SVGID_48_)" fill="#003E7E" d="M312.5,354.4c0.9,0,1.7,0,2.2-0.4c0.9-0.4,1.3-1.3,1.3-2.2
			c0-0.9,0-1.3-0.9-1.7c-0.4-0.4-0.4-0.4-0.9-0.9c-0.9-0.9-2.2-1.3-3-1.7c-1.7-0.9-3-1.3-4.8-1.7c-1.7-0.4-2.6-0.9-4.3-0.9
			c-1.7-0.4-3.5-0.4-5.2-0.9c-1.7,0-3-0.4-4.8-0.4c-1.7,0-3.9,0-6.1,0c0,0-0.4,0-0.4,0.4v10.4c0,0,0,0.4,0.4,0.4h26.4V354.4z
			 M288.7,346.6C288.7,346.2,288.7,346.2,288.7,346.6c0.4-0.4,4.8-0.4,12.1,0.4c8.7,1.3,11.3,3.9,11.3,3.9l0,0l0,0h-23.4
			c0,0-0.4,0-0.4-0.4v-3.9H288.7z"/>
	</g>
	<g>
		<defs>
			<rect id="SVGID_49_" x="237.1" y="337.1" width="218" height="46.8"/>
		</defs>
		<clipPath id="SVGID_50_">
			<use xlink:href="#SVGID_49_"  overflow="visible"/>
		</clipPath>
		<rect x="237.1" y="382.1" clip-path="url(#SVGID_50_)" fill="#EF4135" width="218" height="1.7"/>
	</g>
</g>
<g enable-background="new    ">
	<path fill="#6D6E71" d="M13.1,432.4c-0.1-3.1-0.8-5-4.2-5c-2.7,0-4.4,0.9-4.4,3.9c0,3.7,1.9,3.8,4.7,5.9c3.1,2.2,6.2,2.9,6.2,7.7
		c0,4.5-2.3,6.7-6.7,6.7c-4.9,0-7.1-2.6-6.9-7.5h2.3c0,2.8,0.2,5.7,4.7,5.7c2.9,0,4.3-1.6,4.3-4.4c0-3.4-2.3-4.4-5.9-6.6
		c-4.9-3-5.1-4.5-5.1-7c0-4.3,2.7-6.1,6.8-6.1c5.2,0,6.3,3.2,6.3,6.8H13.1z"/>
	<path fill="#6D6E71" d="M21.9,441.8c0,3.3,0,7.9,5.1,7.9s5.1-4.6,5.1-7.9V426h2.2v17.4c0,6.4-3.4,8.1-7.3,8.1s-7.3-1.7-7.3-8.1V426
		h2.2V441.8z"/>
	<path fill="#6D6E71" d="M39.3,451v-25h3.4l10.2,22l0.1-0.1V426h2.2v25h-3.4l-10.2-22.2l-0.1,0.1V451H39.3z"/>
	<path fill="#6D6E71" d="M67.5,425.5c7.5,0,7.6,6.2,7.6,13c0,6.8-0.1,13-7.6,13s-7.6-6.2-7.6-13C59.9,431.8,60,425.5,67.5,425.5z
		 M67.5,449.7c5.3,0,5.3-4.5,5.3-11.1s-0.1-11.1-5.3-11.1s-5.3,4.5-5.3,11.1S62.2,449.7,67.5,449.7z"/>
	<path fill="#6D6E71" d="M91.9,426h2.1l-6.9,25h-2.8l-7-25h2.4l5.9,22.4h0.1L91.9,426z"/>
	<path fill="#6D6E71" d="M99.4,426v25h-2.2v-25H99.4z"/>
	<path fill="#6D6E71" d="M111.8,425.5c7.5,0,7.6,6.2,7.6,13c0,6.8-0.1,13-7.6,13s-7.6-6.2-7.6-13
		C104.2,431.8,104.3,425.5,111.8,425.5z M111.8,449.7c5.3,0,5.3-4.5,5.3-11.1s-0.1-11.1-5.3-11.1s-5.3,4.5-5.3,11.1
		S106.5,449.7,111.8,449.7z"/>
	<path fill="#6D6E71" d="M124.1,451v-25h3.4l10.2,22l0.1-0.1V426h2.2v25h-3.4l-10.2-22.2l-0.1,0.1V451H124.1z"/>
	<path fill="#6D6E71" d="M161.5,448.9L161.5,448.9c-1.2,1.7-2.9,2.5-5,2.5c-3.1,0-4.8-2.1-4.8-5.2c0-6.1,6.2-5.5,9.7-5.8V439
		c0-2.6-0.8-4.1-3.5-4.1c-1.9,0-3.4,0.9-3.4,3h-2.2c0.2-3.4,2.8-4.7,5.8-4.7c1.8,0,5.4,0.2,5.4,4.6v8.8c0,1.2,0,2.4,0.2,4.4h-2.1
		V448.9z M161.3,442.1c-3,0.1-7.5-0.2-7.5,4c0,2,1,3.6,3.2,3.6c2.4,0,4.3-2.1,4.3-4.4V442.1z"/>
	<path fill="#6D6E71" d="M169.9,451h-2.1v-17.5h2.1v2.2h0.1c1-1.5,2.4-2.5,4.2-2.5c4.3,0,4.8,3.2,4.8,5.5V451h-2.1v-12.2
		c0-2-0.8-4-3.2-4c-1.9,0-3.8,1.3-3.8,5.2V451z"/>
	<path fill="#6D6E71" d="M192.4,448.8L192.4,448.8c-1.1,1.7-2.5,2.6-4.5,2.6c-5.1,0-5.3-5-5.3-9.1c0-3.4,0-9.1,5.4-9.1
		c1.6,0,3.2,0.7,4.2,2.1l0.1,0V426h2.1v21.6c0,1.7,0.1,2.9,0.2,3.5h-2L192.4,448.8z M192.3,443.9v-3.1c0-1,0-5.9-3.9-5.9
		c-3.7,0-3.7,3.4-3.7,7.5c0,6.5,1.6,7.4,3.8,7.4C190.4,449.7,192.3,448.1,192.3,443.9z"/>
</g>
<g>
	<g>
		<defs>
			<rect id="SVGID_51_" x="204.1" y="418.1" width="36.4" height="32.9"/>
		</defs>
		<clipPath id="SVGID_52_">
			<use xlink:href="#SVGID_51_"  overflow="visible"/>
		</clipPath>
		<path clip-path="url(#SVGID_52_)" fill="#008265" d="M211.5,426.8c0-0.9,0.9-1.3,2.6-0.9l0,0c-3-1.7-5.6-0.9-6.1,0.4
			c-0.4,1.3,0.9,5.6,9.1,6.9l0,0C213.7,431.5,211.1,428.9,211.5,426.8"/>
	</g>
	<g>
		<defs>
			<rect id="SVGID_53_" x="204.1" y="418.1" width="36.4" height="32.9"/>
		</defs>
		<clipPath id="SVGID_54_">
			<use xlink:href="#SVGID_53_"  overflow="visible"/>
		</clipPath>
		<path clip-path="url(#SVGID_54_)" fill="#008265" d="M217.1,435.4c-3.9,0.9-13.4,1.3-9.1-1.7l0,0c-1.7,0.9-3,1.7-3.5,2.6
			c-0.9,1.3,0,3,2.6,2.6C210.2,438.9,215,436.7,217.1,435.4L217.1,435.4"/>
	</g>
	<g>
		<defs>
			<rect id="SVGID_55_" x="204.1" y="418.1" width="36.4" height="32.9"/>
		</defs>
		<clipPath id="SVGID_56_">
			<use xlink:href="#SVGID_55_"  overflow="visible"/>
		</clipPath>
		<path clip-path="url(#SVGID_56_)" fill="#008265" d="M218.4,436.3c-1.3,3.5-5.6,9.1-6.9,8.7c-1.3-0.4-1.3-1.7-0.9-2.2l0,0
			c-0.9,3,0,5.6,0.9,6.5C211.9,450.2,216.7,450.2,218.4,436.3L218.4,436.3"/>
	</g>
	<g>
		<defs>
			<rect id="SVGID_57_" x="204.1" y="418.1" width="36.4" height="32.9"/>
		</defs>
		<clipPath id="SVGID_58_">
			<use xlink:href="#SVGID_57_"  overflow="visible"/>
		</clipPath>
		<path clip-path="url(#SVGID_58_)" fill="#008265" d="M220.6,435.9L220.6,435.9c3.9,3.9,9.1,9.5,6.9,11.7c-0.9,0.9-3,0.9-5.2-0.4
			l0,0c4.8,4.3,9.1,4.3,10.8,2.6C234.9,447.6,232.3,440.6,220.6,435.9"/>
	</g>
	<g>
		<defs>
			<rect id="SVGID_59_" x="204.1" y="418.1" width="36.4" height="32.9"/>
		</defs>
		<clipPath id="SVGID_60_">
			<use xlink:href="#SVGID_59_"  overflow="visible"/>
		</clipPath>
		<path clip-path="url(#SVGID_60_)" fill="#008265" d="M240.1,432.8c-2.2-2.6-10.8-3.5-19.1,0.9l0,0c14.3-1.3,18.2,3,13.4,4.3l0,0
			C239.3,438,241.9,434.6,240.1,432.8"/>
	</g>
	<g>
		<defs>
			<rect id="SVGID_61_" x="204.1" y="418.1" width="36.4" height="32.9"/>
		</defs>
		<clipPath id="SVGID_62_">
			<use xlink:href="#SVGID_61_"  overflow="visible"/>
		</clipPath>
		<path clip-path="url(#SVGID_62_)" fill="#008265" d="M230.2,425.9c0.9,0,1.3,0.9,0.9,2.6l0,0c2.6-3,2.6-6.1,1.3-6.9
			c-1.7-0.9-7.8,0.4-11.7,10.8l0,0C224.1,428.1,228.4,425.9,230.2,425.9"/>
	</g>
	<g>
		<defs>
			<rect id="SVGID_63_" x="204.1" y="418.1" width="36.4" height="32.9"/>
		</defs>
		<clipPath id="SVGID_64_">
			<use xlink:href="#SVGID_63_"  overflow="visible"/>
		</clipPath>
		<path clip-path="url(#SVGID_64_)" fill="#008265" d="M221,422c0.9-0.4,1.3,0.4,1.3,2.2l0,0c1.3-5.2-0.9-6.5-2.6-6.1
			c-1.7,0.4-4.8,5.2-1.7,14.3l0,0C218.4,428.5,219.7,422.9,221,422"/>
	</g>
</g>
<g enable-background="new    ">
	<path fill="#6D6E71" d="M259.5,448.9L259.5,448.9c-1.2,1.7-2.9,2.5-5,2.5c-3.1,0-4.8-2.1-4.8-5.2c0-6.1,6.2-5.5,9.7-5.8V439
		c0-2.6-0.8-4.1-3.5-4.1c-1.9,0-3.4,0.9-3.4,3h-2.2c0.2-3.4,2.8-4.7,5.8-4.7c1.8,0,5.4,0.2,5.4,4.6v8.8c0,1.2,0,2.4,0.2,4.4h-2.1
		V448.9z M259.3,442.1c-3,0.1-7.5-0.2-7.5,4c0,2,1,3.6,3.2,3.6c2.4,0,4.3-2.1,4.3-4.4V442.1z"/>
	<path fill="#6D6E71" d="M268,435.9L268,435.9c0.9-1.7,2.8-2.7,4.9-2.7v2.1c-2.9-0.2-4.9,1.5-4.9,4.5V451H266v-17.5h2.1V435.9z"/>
	<path fill="#6D6E71" d="M277.1,442.7v1.4c0,2.4,0.7,5.7,4,5.7c2.6,0,3.9-1.7,3.8-4h2.2c-0.2,4.2-2.5,5.7-6,5.7c-3,0-6-1.2-6-6.5
		v-4.3c0-5.1,2.1-7.4,6-7.4c6,0,6,4.3,6,9.5H277.1z M285,441.1c0-3.9-0.6-6.2-4-6.2s-4,2.3-4,6.2H285z"/>
	<path fill="#6D6E71" d="M300.8,435.9L300.8,435.9c0.9-1.7,2.8-2.7,4.9-2.7v2.1c-2.9-0.2-4.9,1.5-4.9,4.5V451h-2.1v-17.5h2.1V435.9z
		"/>
	<path fill="#6D6E71" d="M309.8,442.7v1.4c0,2.4,0.7,5.7,4,5.7c2.6,0,3.9-1.7,3.8-4h2.2c-0.2,4.2-2.5,5.7-6,5.7c-3,0-6-1.2-6-6.5
		v-4.3c0-5.1,2.1-7.4,6-7.4c6,0,6,4.3,6,9.5H309.8z M317.7,441.1c0-3.9-0.6-6.2-4-6.2s-4,2.3-4,6.2H317.7z"/>
	<path fill="#6D6E71" d="M332.7,433.5h2c-0.1,1.7-0.1,2.5-0.1,3.4v14.7c0,3.8-1.2,6.1-6.2,6.1c-4.4,0-5.2-3.1-5.1-4.9h2.1
		c-0.1,2,1.4,3.2,3.3,3.2c4.1,0,3.8-2.2,3.8-7.4h-0.1c-0.9,1.5-2.6,2.1-4.2,2.1c-5,0-5.4-4.3-5.4-8.2c0-4.1,0-4.1,0.5-6
		c0.2-0.7,1.4-3.5,4.9-3.5c1.8,0,3.5,0.9,4.3,2.5l0.1,0.1V433.5z M325,441.9c0,3.6,0,7.3,3.8,7.3c1.7,0,2.8-1.1,3.2-2
		c0.5-1.4,0.7-2.2,0.7-7.3c0-3.7-2-5.1-3.9-5.1C325.1,434.9,325,439.3,325,441.9z"/>
	<path fill="#6D6E71" d="M339.4,428.6V426h2.6v2.6H339.4z M339.7,451v-17.5h2.1V451H339.7z"/>
	<path fill="#6D6E71" d="M351.3,451.4c-3.8,0-5.3-1.8-5.2-5.5h2.1c0,2.4,0.6,4,3.2,4c2,0,3-1.1,3-3.1c0-4.6-7.9-3.4-7.9-9.2
		c0-3.2,2.2-4.4,5.3-4.4c3.5,0,4.6,2.4,4.6,5.1h-2c-0.1-2.2-0.7-3.4-3.1-3.4c-1.5,0-2.7,1-2.7,2.5c0,4.4,7.9,3.2,7.9,9
		C356.5,449.7,354.6,451.4,351.3,451.4z"/>
	<path fill="#6D6E71" d="M358.6,435.2v-1.7h2.8v-3.6l2.1-0.9v4.5h3.5v1.7h-3.5v11.2c0,2.3,0.2,2.9,1.9,2.9c0.7,0,1.2,0,1.6-0.1v1.8
		c-0.6,0.1-1.3,0.1-2,0.1c-2.8,0-3.6-1.2-3.6-3.4v-12.5H358.6z"/>
	<path fill="#6D6E71" d="M371.4,442.7v1.4c0,2.4,0.7,5.7,4,5.7c2.6,0,3.9-1.7,3.8-4h2.2c-0.2,4.2-2.5,5.7-6,5.7c-3,0-6-1.2-6-6.5
		v-4.3c0-5.1,2.1-7.4,6-7.4c6,0,6,4.3,6,9.5H371.4z M379.3,441.1c0-3.9-0.6-6.2-4-6.2s-4,2.3-4,6.2H379.3z"/>
	<path fill="#6D6E71" d="M387.4,435.9L387.4,435.9c0.9-1.7,2.8-2.7,4.9-2.7v2.1c-2.9-0.2-4.9,1.5-4.9,4.5V451h-2.1v-17.5h2.1V435.9z
		"/>
	<path fill="#6D6E71" d="M396.5,442.7v1.4c0,2.4,0.7,5.7,4,5.7c2.6,0,3.9-1.7,3.8-4h2.2c-0.2,4.2-2.5,5.7-6,5.7c-3,0-6-1.2-6-6.5
		v-4.3c0-5.1,2.1-7.4,6-7.4c6,0,6,4.3,6,9.5H396.5z M404.4,441.1c0-3.9-0.6-6.2-4-6.2s-4,2.3-4,6.2H404.4z"/>
	<path fill="#6D6E71" d="M419.4,448.8L419.4,448.8c-1.1,1.7-2.5,2.6-4.5,2.6c-5.1,0-5.3-5-5.3-9.1c0-3.4,0-9.1,5.4-9.1
		c1.6,0,3.2,0.7,4.2,2.1l0.1,0V426h2.1v21.6c0,1.7,0.1,2.9,0.2,3.5h-2L419.4,448.8z M419.3,443.9v-3.1c0-1,0-5.9-3.9-5.9
		c-3.7,0-3.7,3.4-3.7,7.5c0,6.5,1.6,7.4,3.8,7.4C417.4,449.7,419.3,448.1,419.3,443.9z"/>
	<path fill="#6D6E71" d="M431.8,435.2v-1.7h2.8v-3.6l2.1-0.9v4.5h3.5v1.7h-3.5v11.2c0,2.3,0.2,2.9,1.9,2.9c0.7,0,1.2,0,1.6-0.1v1.8
		c-0.6,0.1-1.3,0.1-2,0.1c-2.8,0-3.6-1.2-3.6-3.4v-12.5H431.8z"/>
	<path fill="#6D6E71" d="M445.2,435.9L445.2,435.9c0.9-1.7,2.8-2.7,4.9-2.7v2.1c-2.9-0.2-4.9,1.5-4.9,4.5V451h-2.1v-17.5h2.1V435.9z
		"/>
	<path fill="#6D6E71" d="M461.6,448.9L461.6,448.9c-1.2,1.7-2.9,2.5-5,2.5c-3.1,0-4.8-2.1-4.8-5.2c0-6.1,6.2-5.5,9.7-5.8V439
		c0-2.6-0.8-4.1-3.5-4.1c-1.9,0-3.4,0.9-3.4,3h-2.2c0.2-3.4,2.8-4.7,5.8-4.7c1.8,0,5.4,0.2,5.4,4.6v8.8c0,1.2,0,2.4,0.2,4.4h-2.1
		V448.9z M461.5,442.1c-3,0.1-7.5-0.2-7.5,4c0,2,1,3.6,3.2,3.6c2.4,0,4.3-2.1,4.3-4.4V442.1z"/>
	<path fill="#6D6E71" d="M477.2,448.8L477.2,448.8c-1.1,1.7-2.5,2.6-4.5,2.6c-5.1,0-5.3-5-5.3-9.1c0-3.4,0-9.1,5.4-9.1
		c1.6,0,3.2,0.7,4.2,2.1l0.1,0V426h2.1v21.6c0,1.7,0.1,2.9,0.2,3.5h-2L477.2,448.8z M477.1,443.9v-3.1c0-1,0-5.9-3.9-5.9
		c-3.7,0-3.7,3.4-3.7,7.5c0,6.5,1.6,7.4,3.8,7.4C475.2,449.7,477.1,448.1,477.1,443.9z"/>
	<path fill="#6D6E71" d="M485,442.7v1.4c0,2.4,0.7,5.7,4,5.7c2.6,0,3.9-1.7,3.8-4h2.2c-0.2,4.2-2.5,5.7-6,5.7c-3,0-6-1.2-6-6.5v-4.3
		c0-5.1,2.1-7.4,6-7.4c6,0,6,4.3,6,9.5H485z M492.9,441.1c0-3.9-0.6-6.2-4-6.2s-4,2.3-4,6.2H492.9z"/>
	<path fill="#6D6E71" d="M500.8,451h-2.1v-17.5h1.9v2.2h0.1c0.8-1.4,2.2-2.5,4.2-2.5c1.8,0,3.4,1,4,2.7c0.9-1.7,2.4-2.7,4.3-2.7
		c2.9,0,4.4,2,4.5,4.8v13h-2.1v-12.5c0-1.7-0.7-3.7-2.7-3.7c-2.6,0-3.6,2.6-3.6,4.9V451h-2.1v-12.5c0-1.7-0.7-3.7-2.7-3.7
		c-2.6,0-3.6,2.6-3.6,4.9V451z"/>
	<path fill="#6D6E71" d="M531,448.9L531,448.9c-1.2,1.7-2.9,2.5-5,2.5c-3.1,0-4.8-2.1-4.8-5.2c0-6.1,6.2-5.5,9.7-5.8V439
		c0-2.6-0.8-4.1-3.5-4.1c-1.9,0-3.4,0.9-3.4,3h-2.2c0.2-3.4,2.8-4.7,5.8-4.7c1.8,0,5.4,0.2,5.4,4.6v8.8c0,1.2,0,2.4,0.2,4.4H531
		V448.9z M530.8,442.1c-3,0.1-7.5-0.2-7.5,4c0,2,1,3.6,3.2,3.6c2.4,0,4.3-2.1,4.3-4.4V442.1z"/>
	<path fill="#6D6E71" d="M539.5,435.9L539.5,435.9c0.9-1.7,2.8-2.7,4.9-2.7v2.1c-2.9-0.2-4.9,1.5-4.9,4.5V451h-2.1v-17.5h2.1V435.9z
		"/>
	<path fill="#6D6E71" d="M547,426h2.1v15.3h0.1l6-7.7h2.4l-6.2,7.8l6.6,9.7h-2.6l-6.2-9.5h-0.1v9.5H547V426z"/>
	<path fill="#6D6E71" d="M565.1,451.4c-3.8,0-5.3-1.8-5.2-5.5h2.1c0,2.4,0.6,4,3.2,4c2,0,3-1.1,3-3.1c0-4.6-7.9-3.4-7.9-9.2
		c0-3.2,2.2-4.4,5.3-4.4c3.5,0,4.6,2.4,4.6,5.1h-2c-0.1-2.2-0.7-3.4-3.1-3.4c-1.5,0-2.7,1-2.7,2.5c0,4.4,7.9,3.2,7.9,9
		C570.2,449.7,568.3,451.4,565.1,451.4z"/>
</g>
<g enable-background="new    ">
	<path fill="#6D6E71" d="M1.7,483.2v-3.8c0-4.5,1.9-7.2,6-7.2s6,2.7,6,7.2v3.8c0,4.5-1.9,7.2-6,7.2S1.7,487.7,1.7,483.2z M3.7,481.3
		c0,4.6,0.5,7.5,4,7.5s4-2.9,4-7.5c0-4.5-0.5-7.4-4-7.4S3.7,476.7,3.7,481.3z"/>
	<path fill="#6D6E71" d="M18.9,474.2h-2.8v-1.7h2.8v-2.9c0-1.7,0.2-4.7,4.5-4.7c0.3,0,0.7,0.1,1.2,0.1v1.7H23c-2,0-2,1.8-2,2.8v3
		h3.5v1.7h-3.5v15.8h-2.1V474.2z"/>
	<path fill="#6D6E71" d="M45.8,471.4c-0.1-3.1-0.8-5-4.2-5c-2.7,0-4.4,0.9-4.4,3.9c0,3.7,1.9,3.8,4.7,5.9c3.1,2.2,6.2,2.9,6.2,7.7
		c0,4.5-2.3,6.7-6.7,6.7c-4.9,0-7.1-2.6-6.9-7.5h2.3c0,2.8,0.2,5.7,4.7,5.7c2.9,0,4.3-1.6,4.3-4.4c0-3.4-2.3-4.4-5.9-6.6
		c-4.9-3-5.1-4.5-5.1-7c0-4.3,2.7-6.1,6.8-6.1c5.2,0,6.3,3.2,6.3,6.8H45.8z"/>
	<path fill="#6D6E71" d="M63.2,472.5v17.5h-1.8v-1.9h-0.1c-1.2,1.5-2.5,2.3-4.4,2.3c-3.6,0-4.6-2.6-4.6-5.5v-12.4h2.1v12
		c0,0.5-0.1,4.2,2.9,4.2c2.8,0,3.8-2.6,3.8-3.8v-12.3H63.2z"/>
	<path fill="#6D6E71" d="M69.6,490.1h-2.1v-17.5h1.9v2.2h0.1c0.8-1.4,2.2-2.5,4.2-2.5c1.8,0,3.4,1,4,2.7c0.9-1.7,2.4-2.7,4.3-2.7
		c2.9,0,4.4,2,4.5,4.8v13h-2.1v-12.5c0-1.7-0.7-3.7-2.7-3.7c-2.6,0-3.6,2.6-3.6,4.9v11.3H76v-12.5c0-1.7-0.7-3.7-2.7-3.7
		c-2.6,0-3.6,2.6-3.6,4.9V490.1z"/>
	<path fill="#6D6E71" d="M91.2,467.7V465h2.6v2.6H91.2z M91.4,490.1v-17.5h2.1v17.5H91.4z"/>
	<path fill="#6D6E71" d="M96.8,474.2v-1.7h2.8v-3.6l2.1-0.9v4.5h3.5v1.7h-3.5v11.2c0,2.3,0.2,2.9,1.9,2.9c0.7,0,1.2,0,1.6-0.1v1.8
		c-0.6,0.1-1.3,0.1-2,0.1c-2.8,0-3.6-1.2-3.6-3.4v-12.5H96.8z"/>
	<path fill="#6D6E71" d="M107.6,483.2v-3.8c0-4.5,1.9-7.2,6-7.2s6,2.7,6,7.2v3.8c0,4.5-1.9,7.2-6,7.2S107.6,487.7,107.6,483.2z
		 M109.7,481.3c0,4.6,0.5,7.5,4,7.5s4-2.9,4-7.5c0-4.5-0.5-7.4-4-7.4S109.7,476.7,109.7,481.3z"/>
	<path fill="#6D6E71" d="M125.5,490.1h-2.1v-17.5h1.9v2.2h0.1c0.8-1.4,2.2-2.5,4.2-2.5c1.8,0,3.4,1,4,2.7c0.9-1.7,2.4-2.7,4.3-2.7
		c2.9,0,4.4,2,4.5,4.8v13h-2.1v-12.5c0-1.7-0.7-3.7-2.7-3.7c-2.6,0-3.6,2.6-3.6,4.9v11.3h-2.1v-12.5c0-1.7-0.7-3.7-2.7-3.7
		c-2.6,0-3.6,2.6-3.6,4.9V490.1z"/>
	<path fill="#6D6E71" d="M146.1,483.2v-3.8c0-4.5,1.9-7.2,6-7.2s6,2.7,6,7.2v3.8c0,4.5-1.9,7.2-6,7.2S146.1,487.7,146.1,483.2z
		 M148.2,481.3c0,4.6,0.5,7.5,4,7.5s4-2.9,4-7.5c0-4.5-0.5-7.4-4-7.4S148.2,476.7,148.2,481.3z"/>
	<path fill="#6D6E71" d="M170.1,465h6.6c7,0,7.9,4.1,7.9,12.6c0,8.3-1.2,12.4-8.8,12.4h-5.7V465z M172.4,488.2h2.7
		c6.7,0,7.3-1.8,7.3-12c0-7.2-1-9.3-7.1-9.3h-2.9V488.2z"/>
	<path fill="#6D6E71" d="M198,487.9L198,487.9c-1.2,1.7-2.9,2.5-5,2.5c-3.1,0-4.8-2.1-4.8-5.2c0-6.1,6.2-5.5,9.7-5.8V478
		c0-2.6-0.8-4.1-3.5-4.1c-1.9,0-3.4,0.9-3.4,3h-2.2c0.2-3.4,2.8-4.7,5.8-4.7c1.8,0,5.4,0.2,5.4,4.6v8.8c0,1.2,0,2.4,0.2,4.4H198
		V487.9z M197.8,481.1c-3,0.1-7.5-0.2-7.5,4c0,2,1,3.6,3.2,3.6c2.4,0,4.3-2.1,4.3-4.4V481.1z"/>
	<path fill="#6D6E71" d="M204.8,467.7V465h2.6v2.6H204.8z M205,490.1v-17.5h2.1v17.5H205z"/>
	<path fill="#6D6E71" d="M214.1,490.1H212v-17.5h2.1v2.2h0.1c1-1.5,2.4-2.5,4.2-2.5c4.3,0,4.8,3.2,4.8,5.5v12.3h-2.1v-12.2
		c0-2-0.8-4-3.2-4c-1.9,0-3.8,1.3-3.8,5.2V490.1z"/>
	<path fill="#6D6E71" d="M227.9,467.7V465h2.6v2.6H227.9z M228.1,490.1v-17.5h2.1v17.5H228.1z"/>
	<path fill="#6D6E71" d="M237.2,474.7L237.2,474.7c1.2-1.7,2.9-2.5,4.3-2.5c5.5,0,5.5,4.8,5.5,7.1v3.9c0,4.5-1.6,7.2-6,7.2
		c-1.3,0-2.6-0.6-3.6-2.3l-0.1,0v8.6h-2.1v-24.1h2V474.7z M237.3,482.8c0,4,1.8,5.9,3.7,5.9c3.4,0,4-2.9,4-7.5c0-4.5-0.5-7.4-4-7.4
		c-1.4,0-3.7,1.5-3.7,5.9V482.8z"/>
	<path fill="#6D6E71" d="M252.6,474.7L252.6,474.7c1.2-1.7,2.9-2.5,4.3-2.5c5.5,0,5.5,4.8,5.5,7.1v3.9c0,4.5-1.6,7.2-6,7.2
		c-1.3,0-2.6-0.6-3.6-2.3l-0.1,0v8.6h-2.1v-24.1h2V474.7z M252.7,482.8c0,4,1.8,5.9,3.7,5.9c3.4,0,4-2.9,4-7.5c0-4.5-0.5-7.4-4-7.4
		c-1.4,0-3.7,1.5-3.7,5.9V482.8z"/>
	<path fill="#6D6E71" d="M265.5,483.2v-3.8c0-4.5,1.9-7.2,6-7.2s6,2.7,6,7.2v3.8c0,4.5-1.9,7.2-6,7.2S265.5,487.7,265.5,483.2z
		 M267.5,481.3c0,4.6,0.5,7.5,4,7.5s4-2.9,4-7.5c0-4.5-0.5-7.4-4-7.4S267.5,476.7,267.5,481.3z"/>
	<path fill="#6D6E71" d="M283.4,490.1h-2.1v-17.5h2.1v2.2h0.1c1-1.5,2.4-2.5,4.2-2.5c4.3,0,4.8,3.2,4.8,5.5v12.3h-2.1v-12.2
		c0-2-0.8-4-3.2-4c-1.9,0-3.8,1.3-3.8,5.2V490.1z"/>
	<path fill="#6D6E71" d="M304.5,465h6.9c2.1,0,5.5,0.3,5.5,6.1c0,5-1.6,7.3-5.9,7.3h-4.2v11.6h-2.2V465z M306.7,476.5h4.1
		c2.3,0,3.8-1.1,3.8-5c0-4.3-1.8-4.6-3.8-4.6h-4.1V476.5z"/>
	<path fill="#6D6E71" d="M319.8,490.1v-25h2.1v9.7h0.1c1-1.5,2.4-2.5,4.2-2.5c4.3,0,4.8,3.2,4.8,5.5v12.3h-2.1v-12.2
		c0-2-0.8-4-3.2-4c-1.9,0-3.8,1.3-3.8,5.2v11H319.8z"/>
	<path fill="#6D6E71" d="M344.2,487.9L344.2,487.9c-1.2,1.7-2.9,2.5-5,2.5c-3.1,0-4.8-2.1-4.8-5.2c0-6.1,6.2-5.5,9.7-5.8V478
		c0-2.6-0.8-4.1-3.5-4.1c-1.9,0-3.4,0.9-3.4,3h-2.2c0.2-3.4,2.8-4.7,5.8-4.7c1.8,0,5.4,0.2,5.4,4.6v8.8c0,1.2,0,2.4,0.2,4.4h-2.1
		V487.9z M344.1,481.1c-3,0.1-7.5-0.2-7.5,4c0,2,1,3.6,3.2,3.6c2.4,0,4.3-2.1,4.3-4.4V481.1z"/>
	<path fill="#6D6E71" d="M352.8,474.9L352.8,474.9c0.9-1.7,2.8-2.7,4.9-2.7v2.1c-2.9-0.2-4.9,1.5-4.9,4.5v11.3h-2.1v-17.5h2.1V474.9
		z"/>
	<path fill="#6D6E71" d="M362.3,490.1h-2.1v-17.5h1.9v2.2h0.1c0.8-1.4,2.2-2.5,4.2-2.5c1.8,0,3.4,1,4,2.7c0.9-1.7,2.4-2.7,4.3-2.7
		c2.9,0,4.4,2,4.5,4.8v13H377v-12.5c0-1.7-0.7-3.7-2.7-3.7c-2.6,0-3.6,2.6-3.6,4.9v11.3h-2.1v-12.5c0-1.7-0.7-3.7-2.7-3.7
		c-2.6,0-3.6,2.6-3.6,4.9V490.1z"/>
	<path fill="#6D6E71" d="M392.4,487.9L392.4,487.9c-1.2,1.7-2.9,2.5-5,2.5c-3.1,0-4.8-2.1-4.8-5.2c0-6.1,6.2-5.5,9.7-5.8V478
		c0-2.6-0.8-4.1-3.5-4.1c-1.9,0-3.4,0.9-3.4,3h-2.2c0.2-3.4,2.8-4.7,5.8-4.7c1.8,0,5.4,0.2,5.4,4.6v8.8c0,1.2,0,2.4,0.2,4.4h-2.1
		V487.9z M392.3,481.1c-3,0.1-7.5-0.2-7.5,4c0,2,1,3.6,3.2,3.6c2.4,0,4.3-2.1,4.3-4.4V481.1z"/>
	<path fill="#6D6E71" d="M406.3,477.5c0-6.8,0.1-13,7.6-13c6.1,0,6.2,5,6.2,7.2h-2.2c0-2.8-0.8-5.4-4-5.4c-5.3,0-5.3,4.5-5.3,11.1
		s0.1,11.1,5.3,11.1c2.9,0,4-2.6,4-5.8h2.4c0,1.8-0.4,7.7-6.3,7.7C406.4,490.5,406.3,484.3,406.3,477.5z"/>
	<path fill="#6D6E71" d="M423.3,483.2v-3.8c0-4.5,1.9-7.2,6-7.2s6,2.7,6,7.2v3.8c0,4.5-1.9,7.2-6,7.2S423.3,487.7,423.3,483.2z
		 M425.4,481.3c0,4.6,0.5,7.5,4,7.5s4-2.9,4-7.5c0-4.5-0.5-7.4-4-7.4S425.4,476.7,425.4,481.3z"/>
	<path fill="#6D6E71" d="M439.6,487.4h2.6v2.6h-2.6V487.4z"/>
	<path fill="#6D6E71" d="M448,487.4h2.5l-2.1,6.3h-1.8L448,487.4z"/>
	<path fill="#6D6E71" d="M462.5,490.1v-25h2.2v23.2h8.3v1.9H462.5z"/>
	<path fill="#6D6E71" d="M474.2,474.2v-1.7h2.8v-3.6l2.1-0.9v4.5h3.5v1.7h-3.5v11.2c0,2.3,0.2,2.9,1.9,2.9c0.7,0,1.2,0,1.6-0.1v1.8
		c-0.6,0.1-1.3,0.1-2,0.1c-2.8,0-3.6-1.2-3.6-3.4v-12.5H474.2z"/>
	<path fill="#6D6E71" d="M494.6,487.8L494.6,487.8c-1.1,1.7-2.5,2.6-4.5,2.6c-5.1,0-5.3-5-5.3-9.1c0-3.4,0-9.1,5.4-9.1
		c1.6,0,3.2,0.7,4.2,2.1l0.1,0V465h2.1v21.6c0,1.7,0.1,2.9,0.2,3.5h-2L494.6,487.8z M494.5,482.9v-3.1c0-1,0-5.9-3.9-5.9
		c-3.7,0-3.7,3.4-3.7,7.5c0,6.5,1.6,7.4,3.8,7.4C492.6,488.7,494.5,487.1,494.5,482.9z"/>
	<path fill="#6D6E71" d="M501.2,487.4h2.6v2.6h-2.6V487.4z"/>
</g>
<g enable-background="new    ">
	<path fill="#6D6E71" d="M13.1,513c-0.1-3.1-0.8-5-4.2-5c-2.7,0-4.4,0.9-4.4,3.9c0,3.7,1.9,3.8,4.7,5.9c3.1,2.2,6.2,2.9,6.2,7.7
		c0,4.5-2.3,6.7-6.7,6.7c-4.9,0-7.1-2.6-6.9-7.5h2.3c0,2.8,0.2,5.7,4.7,5.7c2.9,0,4.3-1.6,4.3-4.4c0-3.4-2.3-4.4-5.9-6.6
		c-4.9-3-5.1-4.5-5.1-7c0-4.3,2.7-6.1,6.8-6.1c5.2,0,6.3,3.2,6.3,6.8H13.1z"/>
	<path fill="#6D6E71" d="M30.5,514.2v17.5h-1.8v-1.9h-0.1c-1.2,1.5-2.5,2.3-4.4,2.3c-3.6,0-4.6-2.6-4.6-5.5v-12.4h2.1v12
		c0,0.5-0.1,4.2,2.9,4.2c2.8,0,3.8-2.6,3.8-3.8v-12.3H30.5z"/>
	<path fill="#6D6E71" d="M36.9,531.7h-2.1v-17.5h2.1v2.2H37c1-1.5,2.4-2.5,4.2-2.5c4.3,0,4.8,3.2,4.8,5.5v12.3h-2.1v-12.2
		c0-2-0.8-4-3.2-4c-1.9,0-3.8,1.3-3.8,5.2V531.7z"/>
	<path fill="#6D6E71" d="M49.8,524.8V521c0-4.5,1.9-7.2,6-7.2s6,2.7,6,7.2v3.8c0,4.5-1.9,7.2-6,7.2S49.8,529.3,49.8,524.8z
		 M51.9,522.9c0,4.6,0.5,7.5,4,7.5s4-2.9,4-7.5c0-4.5-0.5-7.4-4-7.4S51.9,518.3,51.9,522.9z"/>
	<path fill="#6D6E71" d="M70.3,529L70.3,529l4.3-14.9h2l-5.2,17.5h-2.4l-5.2-17.5h2.3L70.3,529z"/>
	<path fill="#6D6E71" d="M79.6,509.3v-2.6h2.6v2.6H79.6z M79.8,531.7v-17.5h2.1v17.5H79.8z"/>
	<path fill="#6D6E71" d="M86.4,524.8V521c0-4.5,1.9-7.2,6-7.2s6,2.7,6,7.2v3.8c0,4.5-1.9,7.2-6,7.2S86.4,529.3,86.4,524.8z
		 M88.5,522.9c0,4.6,0.5,7.5,4,7.5s4-2.9,4-7.5c0-4.5-0.5-7.4-4-7.4S88.5,518.3,88.5,522.9z"/>
	<path fill="#6D6E71" d="M104.3,531.7h-2.1v-17.5h2.1v2.2h0.1c1-1.5,2.4-2.5,4.2-2.5c4.3,0,4.8,3.2,4.8,5.5v12.3h-2.1v-12.2
		c0-2-0.8-4-3.2-4c-1.9,0-3.8,1.3-3.8,5.2V531.7z"/>
	<path fill="#6D6E71" d="M125.4,506.6h6.9c2.1,0,5.5,0.3,5.5,6.1c0,5-1.6,7.3-5.9,7.3h-4.2v11.6h-2.2V506.6z M127.6,518.1h4.1
		c2.3,0,3.8-1.1,3.8-5c0-4.3-1.8-4.6-3.8-4.6h-4.1V518.1z"/>
	<path fill="#6D6E71" d="M140.7,531.7v-25h2.1v9.7h0.1c1-1.5,2.4-2.5,4.2-2.5c4.3,0,4.8,3.2,4.8,5.5v12.3h-2.1v-12.2
		c0-2-0.8-4-3.2-4c-1.9,0-3.8,1.3-3.8,5.2v11H140.7z"/>
	<path fill="#6D6E71" d="M165.1,529.5L165.1,529.5c-1.2,1.7-2.9,2.5-5,2.5c-3.1,0-4.8-2.1-4.8-5.2c0-6.1,6.2-5.5,9.7-5.8v-1.5
		c0-2.6-0.8-4.1-3.5-4.1c-1.9,0-3.4,0.9-3.4,3h-2.2c0.2-3.4,2.8-4.7,5.8-4.7c1.8,0,5.4,0.2,5.4,4.6v8.8c0,1.2,0,2.4,0.2,4.4h-2.1
		V529.5z M165,522.7c-3,0.1-7.5-0.2-7.5,4c0,2,1,3.6,3.2,3.6c2.4,0,4.3-2.1,4.3-4.4V522.7z"/>
</g>
<g enable-background="new    ">
	<path fill="#6D6E71" d="M169.9,516.5L169.9,516.5c0.9-1.7,2.8-2.7,4.9-2.7v2.1c-2.9-0.2-4.9,1.5-4.9,4.5v11.3h-2.1v-17.5h2.1V516.5
		z"/>
</g>
<g enable-background="new    ">
	<path fill="#6D6E71" d="M179.3,531.7h-2.1v-17.5h1.9v2.2h0.1c0.8-1.4,2.2-2.5,4.2-2.5c1.8,0,3.4,1,4,2.7c0.9-1.7,2.4-2.7,4.3-2.7
		c2.9,0,4.4,2,4.5,4.8v13H194v-12.5c0-1.7-0.7-3.7-2.7-3.7c-2.6,0-3.6,2.6-3.6,4.9v11.3h-2.1v-12.5c0-1.7-0.7-3.7-2.7-3.7
		c-2.6,0-3.6,2.6-3.6,4.9V531.7z"/>
	<path fill="#6D6E71" d="M209.4,529.5L209.4,529.5c-1.2,1.7-2.9,2.5-5,2.5c-3.1,0-4.8-2.1-4.8-5.2c0-6.1,6.2-5.5,9.7-5.8v-1.5
		c0-2.6-0.8-4.1-3.5-4.1c-1.9,0-3.4,0.9-3.4,3h-2.2c0.2-3.4,2.8-4.7,5.8-4.7c1.8,0,5.4,0.2,5.4,4.6v8.8c0,1.2,0,2.4,0.2,4.4h-2.1
		V529.5z M209.3,522.7c-3,0.1-7.5-0.2-7.5,4c0,2,1,3.6,3.2,3.6c2.4,0,4.3-2.1,4.3-4.4V522.7z"/>
	<path fill="#6D6E71" d="M223.5,519.2c0.1-2.2-0.7-3.7-3.1-3.7c-1.3,0-2.4,0.7-2.8,2c-0.3,0.8-0.5,3.2-0.5,5.5c0,3.2,0,7.3,3.2,7.3
		c2.7,0,3.1-1.7,3.2-3.8h2.1c0.2,4.7-3.2,5.5-4.8,5.5c-5.9,0-5.9-4.7-5.9-9c0-1.7,0.1-4.5,0.5-5.8c0.9-2.5,2.9-3.4,5.3-3.4
		c3,0,5.1,1.7,4.9,5.4H223.5z"/>
	<path fill="#6D6E71" d="M230.9,523.3v1.4c0,2.4,0.7,5.7,4,5.7c2.6,0,3.9-1.7,3.8-4h2.2c-0.2,4.2-2.5,5.7-6,5.7c-3,0-6-1.2-6-6.5
		v-4.3c0-5.1,2.1-7.4,6-7.4c6,0,6,4.3,6,9.5H230.9z M238.8,521.7c0-3.9-0.6-6.2-4-6.2s-4,2.3-4,6.2H238.8z"/>
	<path fill="#6D6E71" d="M255.7,514.2v17.5h-1.8v-1.9h-0.1c-1.2,1.5-2.5,2.3-4.4,2.3c-3.6,0-4.6-2.6-4.6-5.5v-12.4h2.1v12
		c0,0.5-0.1,4.2,2.9,4.2c2.8,0,3.8-2.6,3.8-3.8v-12.3H255.7z"/>
</g>
<g enable-background="new    ">
	<path fill="#6D6E71" d="M256.7,515.8v-1.7h2.8v-3.6l2.1-0.9v4.5h3.5v1.7h-3.5V527c0,2.3,0.2,2.9,1.9,2.9c0.7,0,1.2,0,1.6-0.1v1.8
		c-0.6,0.1-1.3,0.1-2,0.1c-2.8,0-3.6-1.2-3.6-3.4v-12.5H256.7z"/>
</g>
<g enable-background="new    ">
	<path fill="#6D6E71" d="M267.8,509.3v-2.6h2.6v2.6H267.8z M268.1,531.7v-17.5h2.1v17.5H268.1z"/>
	<path fill="#6D6E71" d="M282.9,519.2c0.1-2.2-0.7-3.7-3.1-3.7c-1.3,0-2.4,0.7-2.8,2c-0.3,0.8-0.5,3.2-0.5,5.5c0,3.2,0,7.3,3.2,7.3
		c2.7,0,3.1-1.7,3.2-3.8h2.1c0.2,4.7-3.2,5.5-4.8,5.5c-5.9,0-5.9-4.7-5.9-9c0-1.7,0.1-4.5,0.5-5.8c0.9-2.5,2.9-3.4,5.3-3.4
		c3,0,5.1,1.7,4.9,5.4H282.9z"/>
	<path fill="#6D6E71" d="M297.6,529.5L297.6,529.5c-1.2,1.7-2.9,2.5-5,2.5c-3.1,0-4.8-2.1-4.8-5.2c0-6.1,6.2-5.5,9.7-5.8v-1.5
		c0-2.6-0.8-4.1-3.5-4.1c-1.9,0-3.4,0.9-3.4,3h-2.2c0.2-3.4,2.8-4.7,5.8-4.7c1.8,0,5.4,0.2,5.4,4.6v8.8c0,1.2,0,2.4,0.2,4.4h-2.1
		V529.5z M297.5,522.7c-3,0.1-7.5-0.2-7.5,4c0,2,1,3.6,3.2,3.6c2.4,0,4.3-2.1,4.3-4.4V522.7z"/>
	<path fill="#6D6E71" d="M304.6,531.7v-25h2.1v25H304.6z"/>
	<path fill="#6D6E71" d="M316.3,532c-3.8,0-5.3-1.8-5.2-5.5h2.1c0,2.4,0.6,4,3.2,4c2,0,3-1.1,3-3.1c0-4.6-7.9-3.4-7.9-9.2
		c0-3.2,2.2-4.4,5.3-4.4c3.5,0,4.6,2.4,4.6,5.1h-2c-0.1-2.2-0.7-3.4-3.1-3.4c-1.5,0-2.7,1-2.7,2.5c0,4.4,7.9,3.2,7.9,9
		C321.5,530.3,319.6,532,316.3,532z"/>
	<path fill="#6D6E71" d="M335.7,506.6v25h-2.2v-25H335.7z"/>
	<path fill="#6D6E71" d="M342.6,531.7h-2.1v-17.5h2.1v2.2h0.1c1-1.5,2.4-2.5,4.2-2.5c4.3,0,4.8,3.2,4.8,5.5v12.3h-2.1v-12.2
		c0-2-0.8-4-3.2-4c-1.9,0-3.8,1.3-3.8,5.2V531.7z"/>
	<path fill="#6D6E71" d="M363.7,519.2c0.1-2.2-0.7-3.7-3.1-3.7c-1.3,0-2.4,0.7-2.8,2c-0.3,0.8-0.5,3.2-0.5,5.5c0,3.2,0,7.3,3.2,7.3
		c2.7,0,3.1-1.7,3.2-3.8h2.1c0.2,4.7-3.2,5.5-4.8,5.5c-5.9,0-5.9-4.7-5.9-9c0-1.7,0.1-4.5,0.5-5.8c0.9-2.5,2.9-3.4,5.3-3.4
		c3,0,5.1,1.7,4.9,5.4H363.7z"/>
	<path fill="#6D6E71" d="M369.9,529h2.6v2.6h-2.6V529z"/>
	<path fill="#6D6E71" d="M385.3,509.3v-2.6h2.6v2.6H385.3z M385.5,531.7v-17.5h2.1v17.5H385.5z"/>
	<path fill="#6D6E71" d="M397.2,532c-3.8,0-5.3-1.8-5.2-5.5h2.1c0,2.4,0.6,4,3.2,4c2,0,3-1.1,3-3.1c0-4.6-7.9-3.4-7.9-9.2
		c0-3.2,2.2-4.4,5.3-4.4c3.5,0,4.6,2.4,4.6,5.1h-2c-0.1-2.2-0.7-3.4-3.1-3.4c-1.5,0-2.7,1-2.7,2.5c0,4.4,7.9,3.2,7.9,9
		C402.3,530.3,400.4,532,397.2,532z"/>
	<path fill="#6D6E71" d="M422.7,529.5L422.7,529.5c-1.2,1.7-2.9,2.5-5,2.5c-3.1,0-4.8-2.1-4.8-5.2c0-6.1,6.2-5.5,9.7-5.8v-1.5
		c0-2.6-0.8-4.1-3.5-4.1c-1.9,0-3.4,0.9-3.4,3h-2.2c0.2-3.4,2.8-4.7,5.8-4.7c1.8,0,5.4,0.2,5.4,4.6v8.8c0,1.2,0,2.4,0.2,4.4h-2.1
		V529.5z M422.6,522.7c-3,0.1-7.5-0.2-7.5,4c0,2,1,3.6,3.2,3.6c2.4,0,4.3-2.1,4.3-4.4V522.7z"/>
</g>
<g enable-background="new    ">
	<path fill="#6D6E71" d="M434.5,522.4c0,3.3,0,7.9,5.1,7.9s5.1-4.6,5.1-7.9v-15.7h2.2V524c0,6.4-3.4,8.1-7.3,8.1s-7.3-1.7-7.3-8.1
		v-17.4h2.2V522.4z"/>
</g>
<g enable-background="new    ">
	<path fill="#6D6E71" d="M451.2,529h2.6v2.6h-2.6V529z"/>
</g>
<g enable-background="new    ">
	<path fill="#6D6E71" d="M469.5,513c-0.1-3.1-0.8-5-4.2-5c-2.7,0-4.4,0.9-4.4,3.9c0,3.7,1.9,3.8,4.7,5.9c3.1,2.2,6.2,2.9,6.2,7.7
		c0,4.5-2.3,6.7-6.7,6.7c-4.9,0-7.1-2.6-6.9-7.5h2.3c0,2.8,0.2,5.7,4.7,5.7c2.9,0,4.3-1.6,4.3-4.4c0-3.4-2.3-4.4-5.9-6.6
		c-4.9-3-5.1-4.5-5.1-7c0-4.3,2.7-6.1,6.8-6.1c5.2,0,6.3,3.2,6.3,6.8H469.5z"/>
</g>
<g enable-background="new    ">
	<path fill="#6D6E71" d="M475.9,529h2.6v2.6h-2.6V529z"/>
	<path fill="#6D6E71" d="M495.5,532c-3.8,0-5.3-1.8-5.2-5.5h2.1c0,2.4,0.6,4,3.2,4c2,0,3-1.1,3-3.1c0-4.6-7.9-3.4-7.9-9.2
		c0-3.2,2.2-4.4,5.3-4.4c3.5,0,4.6,2.4,4.6,5.1h-2c-0.1-2.2-0.7-3.4-3.1-3.4c-1.5,0-2.7,1-2.7,2.5c0,4.4,7.9,3.2,7.9,9
		C500.6,530.3,498.7,532,495.5,532z"/>
	<path fill="#6D6E71" d="M515.3,514.2v17.5h-1.8v-1.9h-0.1c-1.2,1.5-2.5,2.3-4.4,2.3c-3.6,0-4.6-2.6-4.6-5.5v-12.4h2.1v12
		c0,0.5-0.1,4.2,2.9,4.2c2.8,0,3.8-2.6,3.8-3.8v-12.3H515.3z"/>
	<path fill="#6D6E71" d="M519.6,531.7c0.1-0.6,0.2-1.1,0.2-1.7v-23.3h2.1v9.5l0.1,0.1c1.1-1.7,2.5-2.4,4.4-2.4c5.7,0,5.2,6,5.2,9.1
		c0,3.8-0.3,9.1-5.4,9.1c-2,0-3.5-0.8-4.4-2.5h-0.1v2.1H519.6z M525.6,530.3c3.8,0,4-3.3,4-7.4c0-4.1-0.1-7.5-4-7.5
		c-3.4,0-3.8,4.5-3.8,7.2C521.8,525.4,521.8,530.3,525.6,530.3z"/>
	<path fill="#6D6E71" d="M539.7,532c-3.8,0-5.3-1.8-5.2-5.5h2.1c0,2.4,0.6,4,3.2,4c2,0,3-1.1,3-3.1c0-4.6-7.9-3.4-7.9-9.2
		c0-3.2,2.2-4.4,5.3-4.4c3.5,0,4.6,2.4,4.6,5.1h-2c-0.1-2.2-0.7-3.4-3.1-3.4c-1.5,0-2.7,1-2.7,2.5c0,4.4,7.9,3.2,7.9,9
		C544.9,530.3,543,532,539.7,532z"/>
	<path fill="#6D6E71" d="M549,509.3v-2.6h2.6v2.6H549z M549.3,531.7v-17.5h2.1v17.5H549.3z"/>
	<path fill="#6D6E71" d="M565.5,529.4L565.5,529.4c-1.1,1.7-2.5,2.6-4.5,2.6c-5.1,0-5.3-5-5.3-9.1c0-3.4,0-9.1,5.4-9.1
		c1.6,0,3.2,0.7,4.2,2.1l0.1,0v-9.3h2.1v21.6c0,1.7,0.1,2.9,0.2,3.5h-2L565.5,529.4z M565.4,524.5v-3.1c0-1,0-5.9-3.9-5.9
		c-3.7,0-3.7,3.4-3.7,7.5c0,6.5,1.6,7.4,3.8,7.4C563.5,530.3,565.4,528.7,565.4,524.5z"/>
	<path fill="#6D6E71" d="M572.1,509.3v-2.6h2.6v2.6H572.1z M572.4,531.7v-17.5h2.1v17.5H572.4z"/>
	<path fill="#6D6E71" d="M588.4,529.5L588.4,529.5c-1.2,1.7-2.9,2.5-5,2.5c-3.1,0-4.8-2.1-4.8-5.2c0-6.1,6.2-5.5,9.7-5.8v-1.5
		c0-2.6-0.8-4.1-3.5-4.1c-1.9,0-3.4,0.9-3.4,3h-2.2c0.2-3.4,2.8-4.7,5.8-4.7c1.8,0,5.4,0.2,5.4,4.6v8.8c0,1.2,0,2.4,0.2,4.4h-2.1
		V529.5z M588.3,522.7c-3,0.1-7.5-0.2-7.5,4c0,2,1,3.6,3.2,3.6c2.4,0,4.3-2.1,4.3-4.4V522.7z"/>
</g>
<g enable-background="new    ">
	<path fill="#6D6E71" d="M593.8,516.5L593.8,516.5c0.9-1.7,2.8-2.7,4.9-2.7v2.1c-2.9-0.2-4.9,1.5-4.9,4.5v11.3h-2.1v-17.5h2.1V516.5
		z"/>
</g>
<g enable-background="new    ">
	<path fill="#6D6E71" d="M604.5,531.7l-5.5-17.5h2.3l4.3,14.4h0.1l4.1-14.4h2.1l-7.2,24.1h-2L604.5,531.7z"/>
</g>
<g enable-background="new    ">
	<path fill="#6D6E71" d="M1.7,566.4v-3.8c0-4.5,1.9-7.2,6-7.2s6,2.7,6,7.2v3.8c0,4.5-1.9,7.2-6,7.2S1.7,570.9,1.7,566.4z M3.7,564.5
		c0,4.6,0.5,7.5,4,7.5s4-2.9,4-7.5c0-4.5-0.5-7.4-4-7.4S3.7,560,3.7,564.5z"/>
</g>
<g enable-background="new    ">
	<path fill="#6D6E71" d="M18.6,557.4h-2.8v-1.7h2.8v-2.9c0-1.7,0.2-4.7,4.5-4.7c0.3,0,0.7,0.1,1.2,0.1v1.7h-1.6c-2,0-2,1.8-2,2.8v3
		h3.5v1.7h-3.5v15.8h-2.1V557.4z"/>
</g>
<g enable-background="new    ">
	<path fill="#6D6E71" d="M44.7,554.6c-0.1-3.1-0.8-5-4.2-5c-2.7,0-4.4,0.9-4.4,3.9c0,3.7,1.9,3.8,4.7,5.9c3.1,2.2,6.2,2.9,6.2,7.7
		c0,4.5-2.3,6.7-6.7,6.7c-4.9,0-7.1-2.6-6.9-7.5h2.3c0,2.8,0.2,5.7,4.7,5.7c2.9,0,4.3-1.6,4.3-4.4c0-3.4-2.3-4.4-5.9-6.6
		c-4.9-3-5.1-4.5-5.1-7c0-4.3,2.7-6.1,6.8-6.1c5.2,0,6.3,3.2,6.3,6.8H44.7z"/>
</g>
<g enable-background="new    ">
	<path fill="#6D6E71" d="M61.7,555.8v17.5h-1.8v-1.9h-0.1c-1.2,1.5-2.5,2.3-4.4,2.3c-3.6,0-4.6-2.6-4.6-5.5v-12.4h2.1v12
		c0,0.5-0.1,4.2,2.9,4.2c2.8,0,3.8-2.6,3.8-3.8v-12.3H61.7z"/>
	<path fill="#6D6E71" d="M68.1,573.3H66v-17.5h1.9v2.2H68c0.8-1.4,2.2-2.5,4.2-2.5c1.8,0,3.4,1,4,2.7c0.9-1.7,2.4-2.7,4.3-2.7
		c2.9,0,4.4,2,4.5,4.8v13h-2.1v-12.5c0-1.7-0.7-3.7-2.7-3.7c-2.6,0-3.6,2.6-3.6,4.9v11.3h-2.1v-12.5c0-1.7-0.7-3.7-2.7-3.7
		c-2.6,0-3.6,2.6-3.6,4.9V573.3z"/>
	<path fill="#6D6E71" d="M89.6,550.9v-2.6h2.6v2.6H89.6z M89.9,573.3v-17.5H92v17.5H89.9z"/>
</g>
<g enable-background="new    ">
	<path fill="#6D6E71" d="M94.6,557.4v-1.7h2.8v-3.6l2.1-0.9v4.5h3.5v1.7h-3.5v11.2c0,2.3,0.2,2.9,1.9,2.9c0.7,0,1.2,0,1.6-0.1v1.8
		c-0.6,0.1-1.3,0.1-2,0.1c-2.8,0-3.6-1.2-3.6-3.4v-12.5H94.6z"/>
</g>
<g enable-background="new    ">
	<path fill="#6D6E71" d="M104.8,566.4v-3.8c0-4.5,1.9-7.2,6-7.2s6,2.7,6,7.2v3.8c0,4.5-1.9,7.2-6,7.2S104.8,570.9,104.8,566.4z
		 M106.9,564.5c0,4.6,0.5,7.5,4,7.5s4-2.9,4-7.5c0-4.5-0.5-7.4-4-7.4S106.9,560,106.9,564.5z"/>
	<path fill="#6D6E71" d="M122.7,573.3h-2.1v-17.5h1.9v2.2h0.1c0.8-1.4,2.2-2.5,4.2-2.5c1.8,0,3.4,1,4,2.7c0.9-1.7,2.4-2.7,4.3-2.7
		c2.9,0,4.4,2,4.5,4.8v13h-2.1v-12.5c0-1.7-0.7-3.7-2.7-3.7c-2.6,0-3.6,2.6-3.6,4.9v11.3h-2.1v-12.5c0-1.7-0.7-3.7-2.7-3.7
		c-2.6,0-3.6,2.6-3.6,4.9V573.3z"/>
	<path fill="#6D6E71" d="M143.3,566.4v-3.8c0-4.5,1.9-7.2,6-7.2s6,2.7,6,7.2v3.8c0,4.5-1.9,7.2-6,7.2S143.3,570.9,143.3,566.4z
		 M145.4,564.5c0,4.6,0.5,7.5,4,7.5s4-2.9,4-7.5c0-4.5-0.5-7.4-4-7.4S145.4,560,145.4,564.5z"/>
</g>
<g enable-background="new    ">
	<path fill="#6D6E71" d="M166.4,548.2h6.6c7,0,7.9,4.1,7.9,12.6c0,8.3-1.2,12.4-8.8,12.4h-5.7V548.2z M168.7,571.4h2.7
		c6.7,0,7.3-1.8,7.3-12c0-7.2-1-9.3-7.1-9.3h-2.9V571.4z"/>
</g>
<g enable-background="new    ">
	<path fill="#6D6E71" d="M193.6,571.1L193.6,571.1c-1.2,1.7-2.9,2.5-5,2.5c-3.1,0-4.8-2.1-4.8-5.2c0-6.1,6.2-5.5,9.7-5.8v-1.5
		c0-2.6-0.8-4.1-3.5-4.1c-1.9,0-3.4,0.9-3.4,3h-2.2c0.2-3.4,2.8-4.7,5.8-4.7c1.8,0,5.4,0.2,5.4,4.6v8.8c0,1.2,0,2.4,0.2,4.4h-2.1
		V571.1z M193.5,564.3c-3,0.1-7.5-0.2-7.5,4c0,2,1,3.6,3.2,3.6c2.4,0,4.3-2.1,4.3-4.4V564.3z"/>
	<path fill="#6D6E71" d="M200.4,550.9v-2.6h2.6v2.6H200.4z M200.7,573.3v-17.5h2.1v17.5H200.7z"/>
	<path fill="#6D6E71" d="M209.8,573.3h-2.1v-17.5h2.1v2.2h0.1c1-1.5,2.4-2.5,4.2-2.5c4.3,0,4.8,3.2,4.8,5.5v12.3h-2.1V561
		c0-2-0.8-4-3.2-4c-1.9,0-3.8,1.3-3.8,5.2V573.3z"/>
	<path fill="#6D6E71" d="M223.5,550.9v-2.6h2.6v2.6H223.5z M223.8,573.3v-17.5h2.1v17.5H223.8z"/>
	<path fill="#6D6E71" d="M232.9,557.9L232.9,557.9c1.2-1.7,2.9-2.5,4.3-2.5c5.5,0,5.5,4.8,5.5,7.1v3.9c0,4.5-1.6,7.2-6,7.2
		c-1.3,0-2.6-0.6-3.6-2.3l-0.1,0v8.6h-2.1v-24.1h2V557.9z M232.9,566.1c0,4,1.8,5.9,3.7,5.9c3.4,0,4-2.9,4-7.5c0-4.5-0.5-7.4-4-7.4
		c-1.4,0-3.7,1.5-3.7,5.9V566.1z"/>
	<path fill="#6D6E71" d="M248.2,557.9L248.2,557.9c1.2-1.7,2.9-2.5,4.3-2.5c5.5,0,5.5,4.8,5.5,7.1v3.9c0,4.5-1.6,7.2-6,7.2
		c-1.3,0-2.6-0.6-3.6-2.3l-0.1,0v8.6h-2.1v-24.1h2V557.9z M248.3,566.1c0,4,1.8,5.9,3.7,5.9c3.4,0,4-2.9,4-7.5c0-4.5-0.5-7.4-4-7.4
		c-1.4,0-3.7,1.5-3.7,5.9V566.1z"/>
	<path fill="#6D6E71" d="M261.1,566.4v-3.8c0-4.5,1.9-7.2,6-7.2s6,2.7,6,7.2v3.8c0,4.5-1.9,7.2-6,7.2S261.1,570.9,261.1,566.4z
		 M263.2,564.5c0,4.6,0.5,7.5,4,7.5s4-2.9,4-7.5c0-4.5-0.5-7.4-4-7.4S263.2,560,263.2,564.5z"/>
	<path fill="#6D6E71" d="M279,573.3H277v-17.5h2.1v2.2h0.1c1-1.5,2.4-2.5,4.2-2.5c4.3,0,4.8,3.2,4.8,5.5v12.3H286V561
		c0-2-0.8-4-3.2-4c-1.9,0-3.8,1.3-3.8,5.2V573.3z"/>
	<path fill="#6D6E71" d="M300.2,548.2h6.9c2.1,0,5.5,0.3,5.5,6.1c0,5-1.6,7.3-5.9,7.3h-4.2v11.6h-2.2V548.2z M302.4,559.7h4.1
		c2.3,0,3.8-1.1,3.8-5c0-4.3-1.8-4.6-3.8-4.6h-4.1V559.7z"/>
	<path fill="#6D6E71" d="M315.4,573.3v-25h2.1v9.7h0.1c1-1.5,2.4-2.5,4.2-2.5c4.3,0,4.8,3.2,4.8,5.5v12.3h-2.1V561c0-2-0.8-4-3.2-4
		c-1.9,0-3.8,1.3-3.8,5.2v11H315.4z"/>
	<path fill="#6D6E71" d="M339.9,571.1L339.9,571.1c-1.2,1.7-2.9,2.5-5,2.5c-3.1,0-4.8-2.1-4.8-5.2c0-6.1,6.2-5.5,9.7-5.8v-1.5
		c0-2.6-0.8-4.1-3.5-4.1c-1.9,0-3.4,0.9-3.4,3h-2.2c0.2-3.4,2.8-4.7,5.8-4.7c1.8,0,5.4,0.2,5.4,4.6v8.8c0,1.2,0,2.4,0.2,4.4h-2.1
		V571.1z M339.7,564.3c-3,0.1-7.5-0.2-7.5,4c0,2,1,3.6,3.2,3.6c2.4,0,4.3-2.1,4.3-4.4V564.3z"/>
</g>
<g enable-background="new    ">
	<path fill="#6D6E71" d="M345,558.1L345,558.1c0.9-1.7,2.8-2.7,4.9-2.7v2.1c-2.9-0.2-4.9,1.5-4.9,4.5v11.3h-2.1v-17.5h2.1V558.1z"/>
</g>
<g enable-background="new    ">
	<path fill="#6D6E71" d="M353.9,573.3h-2.1v-17.5h1.9v2.2h0.1c0.8-1.4,2.2-2.5,4.2-2.5c1.8,0,3.4,1,4,2.7c0.9-1.7,2.4-2.7,4.3-2.7
		c2.9,0,4.4,2,4.5,4.8v13h-2.1v-12.5c0-1.7-0.7-3.7-2.7-3.7c-2.6,0-3.6,2.6-3.6,4.9v11.3h-2.1v-12.5c0-1.7-0.7-3.7-2.7-3.7
		c-2.6,0-3.6,2.6-3.6,4.9V573.3z"/>
	<path fill="#6D6E71" d="M384.1,571.1L384.1,571.1c-1.2,1.7-2.9,2.5-5,2.5c-3.1,0-4.8-2.1-4.8-5.2c0-6.1,6.2-5.5,9.7-5.8v-1.5
		c0-2.6-0.8-4.1-3.5-4.1c-1.9,0-3.4,0.9-3.4,3h-2.2c0.2-3.4,2.8-4.7,5.8-4.7c1.8,0,5.4,0.2,5.4,4.6v8.8c0,1.2,0,2.4,0.2,4.4h-2.1
		V571.1z M383.9,564.3c-3,0.1-7.5-0.2-7.5,4c0,2,1,3.6,3.2,3.6c2.4,0,4.3-2.1,4.3-4.4V564.3z"/>
</g>
<g enable-background="new    ">
	<path fill="#6D6E71" d="M397.3,560.8c0-6.8,0.1-13,7.6-13c6.1,0,6.2,5,6.2,7.2h-2.2c0-2.8-0.8-5.4-4-5.4c-5.3,0-5.3,4.5-5.3,11.1
		s0.1,11.1,5.3,11.1c2.9,0,4-2.6,4-5.8h2.4c0,1.8-0.4,7.7-6.3,7.7C397.3,573.8,397.3,567.5,397.3,560.8z"/>
</g>
<g enable-background="new    ">
	<path fill="#6D6E71" d="M413.9,566.4v-3.8c0-4.5,1.9-7.2,6-7.2s6,2.7,6,7.2v3.8c0,4.5-1.9,7.2-6,7.2S413.9,570.9,413.9,566.4z
		 M415.9,564.5c0,4.6,0.5,7.5,4,7.5s4-2.9,4-7.5c0-4.5-0.5-7.4-4-7.4S415.9,560,415.9,564.5z"/>
	<path fill="#6D6E71" d="M430.1,570.6h2.6v2.6h-2.6V570.6z"/>
	<path fill="#6D6E71" d="M438.5,570.6h2.5l-2.1,6.3h-1.8L438.5,570.6z"/>
	<path fill="#6D6E71" d="M453,573.3v-25h2.2v23.2h8.3v1.9H453z"/>
	<path fill="#6D6E71" d="M464.7,557.4v-1.7h2.8v-3.6l2.1-0.9v4.5h3.5v1.7h-3.5v11.2c0,2.3,0.2,2.9,1.9,2.9c0.7,0,1.2,0,1.6-0.1v1.8
		c-0.6,0.1-1.3,0.1-2,0.1c-2.8,0-3.6-1.2-3.6-3.4v-12.5H464.7z"/>
	<path fill="#6D6E71" d="M485.1,571.1L485.1,571.1c-1.1,1.7-2.5,2.6-4.5,2.6c-5.1,0-5.3-5-5.3-9.1c0-3.4,0-9.1,5.4-9.1
		c1.6,0,3.2,0.7,4.2,2.1l0.1,0v-9.3h2.1v21.6c0,1.7,0.1,2.9,0.2,3.5h-2L485.1,571.1z M485,566.1V563c0-1,0-5.9-3.9-5.9
		c-3.7,0-3.7,3.4-3.7,7.5c0,6.5,1.6,7.4,3.8,7.4C483.1,572,485,570.4,485,566.1z"/>
</g>
<g enable-background="new    ">
	<path fill="#6D6E71" d="M489.3,570.6h2.6v2.6h-2.6V570.6z"/>
</g>
<g enable-background="new    ">
	<path fill="#6D6E71" d="M1.2,603.2c0-7.1,5.7-13,12.7-13c7,0,12.7,5.9,12.7,13c0,7.2-5.7,13-12.7,13C6.9,616.2,1.2,610.4,1.2,603.2
		z M24.9,603.2c0-6.3-4.8-11.3-11-11.3c-6.1,0-11,5-11,11.3c0,6.3,4.9,11.3,11,11.3C20,614.6,24.9,609.5,24.9,603.2z M10.7,603
		c0,3.8,0.3,6.1,3.1,6.1c1.9,0,2.6-1,2.6-2.9h2.1c0,1.1-0.4,4.6-4.3,4.6c-5.7,0-5.5-4.9-5.5-7.8s-0.1-7.8,5.5-7.8c4.2,0,4,3.5,4,4.3
		h-2.1c0.1-1.7-0.4-2.7-2.4-2.7C11.1,596.8,10.7,599.2,10.7,603z"/>
	<path fill="#6D6E71" d="M41.4,615.7H29.1v-1.9c5.4-8.3,10.1-13.9,10.1-17.1c0-3.2-2-3.6-4-3.6c-2.6,0-4,1.9-4,4.4h-2.1
		c0-4.8,3.2-6.3,6-6.3s6.2,0.9,6.2,5c0,3.5-1.8,5.5-9.8,17.6h9.9V615.7z"/>
	<path fill="#6D6E71" d="M57,601v5.2c0,4.5,0,9.8-6.2,9.8s-6.2-5.3-6.2-9.8V601c0-4.5,0-9.8,6.2-9.8S57,596.5,57,601z M46.9,608.4
		c0,5.4,2.4,5.9,4,5.9s4-0.4,4-5.9v-9.5c0-5.4-2.4-5.9-4-5.9s-4,0.4-4,5.9V608.4z"/>
	<path fill="#6D6E71" d="M61.6,595.4c1.6-1.1,3.2-2.3,4.4-3.8h1.9v24.2h-2.1v-21.4c-1.3,1.2-2.7,2.4-4.2,3.4V595.4z"/>
	<path fill="#6D6E71" d="M85.3,597c-0.1-2.4-1.1-3.9-3.5-3.9c-4.2,0-4.2,4.3-4.2,8v2.1l0.1,0c0.9-1.8,2.6-2.6,4.7-2.6
		c5.8,0,5.4,6.1,5.4,6.8c0,4.7-0.6,8.8-5.9,8.8c-5.9,0-6.4-3.4-6.4-8.2V600c0-5.9,1.1-8.8,6.4-8.8c3.7,0,5.5,2,5.6,5.8H85.3z
		 M81.8,602.4c-2.5,0-4.3,1.7-4.3,5.8c0,0.2-0.5,6.1,4.1,6.1c3.7,0,3.9-3.4,3.9-6.3C85.6,604.2,84.7,602.4,81.8,602.4z"/>
	<path fill="#6D6E71" d="M110.1,597.1c-0.1-3.1-0.8-5-4.2-5c-2.7,0-4.4,0.9-4.4,3.9c0,3.7,1.9,3.8,4.7,5.9c3.1,2.2,6.2,2.9,6.2,7.7
		c0,4.5-2.3,6.7-6.7,6.7c-4.9,0-7.1-2.6-6.9-7.5h2.3c0,2.8,0.2,5.7,4.7,5.7c2.9,0,4.3-1.6,4.3-4.4c0-3.4-2.3-4.4-5.9-6.6
		c-4.9-3-5.1-4.5-5.1-7c0-4.3,2.7-6.1,6.8-6.1c5.2,0,6.3,3.2,6.3,6.8H110.1z"/>
	<path fill="#6D6E71" d="M127.5,598.2v17.5h-1.8v-1.9h-0.1c-1.2,1.5-2.5,2.3-4.4,2.3c-3.6,0-4.6-2.6-4.6-5.5v-12.4h2.1v12
		c0,0.5-0.1,4.2,2.9,4.2c2.8,0,3.8-2.6,3.8-3.8v-12.3H127.5z"/>
	<path fill="#6D6E71" d="M133.9,615.7h-2.1v-17.5h2.1v2.2h0.1c1-1.5,2.4-2.5,4.2-2.5c4.3,0,4.8,3.2,4.8,5.5v12.3h-2.1v-12.2
		c0-2-0.8-4-3.2-4c-1.9,0-3.8,1.3-3.8,5.2V615.7z"/>
	<path fill="#6D6E71" d="M146.8,608.9v-3.8c0-4.5,1.9-7.2,6-7.2s6,2.7,6,7.2v3.8c0,4.5-1.9,7.2-6,7.2S146.8,613.4,146.8,608.9z
		 M148.9,607c0,4.6,0.5,7.5,4,7.5s4-2.9,4-7.5c0-4.5-0.5-7.4-4-7.4S148.9,602.4,148.9,607z"/>
	<path fill="#6D6E71" d="M167.3,613.1L167.3,613.1l4.3-14.9h2l-5.2,17.5h-2.4l-5.2-17.5h2.3L167.3,613.1z"/>
	<path fill="#6D6E71" d="M176.6,593.4v-2.6h2.6v2.6H176.6z M176.8,615.7v-17.5h2.1v17.5H176.8z"/>
	<path fill="#6D6E71" d="M183.4,608.9v-3.8c0-4.5,1.9-7.2,6-7.2s6,2.7,6,7.2v3.8c0,4.5-1.9,7.2-6,7.2S183.4,613.4,183.4,608.9z
		 M185.5,607c0,4.6,0.5,7.5,4,7.5s4-2.9,4-7.5c0-4.5-0.5-7.4-4-7.4S185.5,602.4,185.5,607z"/>
	<path fill="#6D6E71" d="M201.3,615.7h-2.1v-17.5h2.1v2.2h0.1c1-1.5,2.4-2.5,4.2-2.5c4.3,0,4.8,3.2,4.8,5.5v12.3h-2.1v-12.2
		c0-2-0.8-4-3.2-4c-1.9,0-3.8,1.3-3.8,5.2V615.7z"/>
	<path fill="#6D6E71" d="M222.4,590.7h6.9c2.1,0,5.5,0.3,5.5,6.1c0,5-1.6,7.3-5.9,7.3h-4.2v11.6h-2.2V590.7z M224.6,602.2h4.1
		c2.3,0,3.8-1.1,3.8-5c0-4.3-1.8-4.6-3.8-4.6h-4.1V602.2z"/>
	<path fill="#6D6E71" d="M237.7,615.7v-25h2.1v9.7h0.1c1-1.5,2.4-2.5,4.2-2.5c4.3,0,4.8,3.2,4.8,5.5v12.3h-2.1v-12.2
		c0-2-0.8-4-3.2-4c-1.9,0-3.8,1.3-3.8,5.2v11H237.7z"/>
	<path fill="#6D6E71" d="M262.2,613.6L262.2,613.6c-1.2,1.7-2.9,2.5-5,2.5c-3.1,0-4.8-2.1-4.8-5.2c0-6.1,6.2-5.5,9.7-5.8v-1.5
		c0-2.6-0.8-4.1-3.5-4.1c-1.9,0-3.4,0.9-3.4,3h-2.2c0.2-3.4,2.8-4.7,5.8-4.7c1.8,0,5.4,0.2,5.4,4.6v8.8c0,1.2,0,2.4,0.2,4.4h-2.1
		V613.6z M262,606.8c-3,0.1-7.5-0.2-7.5,4c0,2,1,3.6,3.2,3.6c2.4,0,4.3-2.1,4.3-4.4V606.8z"/>
</g>
<g enable-background="new    ">
	<path fill="#6D6E71" d="M265.3,600.6L265.3,600.6c0.9-1.7,2.8-2.7,4.9-2.7v2.1c-2.9-0.2-4.9,1.5-4.9,4.5v11.3h-2.1v-17.5h2.1V600.6
		z"/>
</g>
<g enable-background="new    ">
	<path fill="#6D6E71" d="M274.2,615.7h-2.1v-17.5h1.9v2.2h0.1c0.8-1.4,2.2-2.5,4.2-2.5c1.8,0,3.4,1,4,2.7c0.9-1.7,2.4-2.7,4.3-2.7
		c2.9,0,4.4,2,4.5,4.8v13H289v-12.5c0-1.7-0.7-3.7-2.7-3.7c-2.6,0-3.6,2.6-3.6,4.9v11.3h-2.1v-12.5c0-1.7-0.7-3.7-2.7-3.7
		c-2.6,0-3.6,2.6-3.6,4.9V615.7z"/>
	<path fill="#6D6E71" d="M304.3,613.6L304.3,613.6c-1.2,1.7-2.9,2.5-5,2.5c-3.1,0-4.8-2.1-4.8-5.2c0-6.1,6.2-5.5,9.7-5.8v-1.5
		c0-2.6-0.8-4.1-3.5-4.1c-1.9,0-3.4,0.9-3.4,3H295c0.2-3.4,2.8-4.7,5.8-4.7c1.8,0,5.4,0.2,5.4,4.6v8.8c0,1.2,0,2.4,0.2,4.4h-2.1
		V613.6z M304.2,606.8c-3,0.1-7.5-0.2-7.5,4c0,2,1,3.6,3.2,3.6c2.4,0,4.3-2.1,4.3-4.4V606.8z"/>
	<path fill="#6D6E71" d="M318.5,603.3c0.1-2.2-0.7-3.7-3.1-3.7c-1.3,0-2.4,0.7-2.8,2c-0.3,0.8-0.5,3.2-0.5,5.5c0,3.2,0,7.3,3.2,7.3
		c2.7,0,3.1-1.7,3.2-3.8h2.1c0.2,4.7-3.2,5.5-4.8,5.5c-5.9,0-5.9-4.7-5.9-9c0-1.7,0.1-4.5,0.5-5.8c0.9-2.5,2.9-3.4,5.3-3.4
		c3,0,5.1,1.7,4.9,5.4H318.5z"/>
	<path fill="#6D6E71" d="M325.8,607.4v1.4c0,2.4,0.7,5.7,4,5.7c2.6,0,3.9-1.7,3.8-4h2.2c-0.2,4.2-2.5,5.7-6,5.7c-3,0-6-1.2-6-6.5
		v-4.3c0-5.1,2.1-7.4,6-7.4c6,0,6,4.3,6,9.5H325.8z M333.7,605.8c0-3.9-0.6-6.2-4-6.2s-4,2.3-4,6.2H333.7z"/>
	<path fill="#6D6E71" d="M350.6,598.2v17.5h-1.8v-1.9h-0.1c-1.2,1.5-2.5,2.3-4.4,2.3c-3.6,0-4.6-2.6-4.6-5.5v-12.4h2.1v12
		c0,0.5-0.1,4.2,2.9,4.2c2.8,0,3.8-2.6,3.8-3.8v-12.3H350.6z"/>
</g>
<g enable-background="new    ">
	<path fill="#6D6E71" d="M352.1,599.9v-1.7h2.8v-3.6l2.1-0.9v4.5h3.5v1.7H357v11.2c0,2.3,0.2,2.9,1.9,2.9c0.7,0,1.2,0,1.6-0.1v1.8
		c-0.6,0.1-1.3,0.1-2,0.1c-2.8,0-3.6-1.2-3.6-3.4v-12.5H352.1z"/>
</g>
<g enable-background="new    ">
	<path fill="#6D6E71" d="M363.2,593.4v-2.6h2.6v2.6H363.2z M363.4,615.7v-17.5h2.1v17.5H363.4z"/>
	<path fill="#6D6E71" d="M378.2,603.3c0.1-2.2-0.7-3.7-3.1-3.7c-1.3,0-2.4,0.7-2.8,2c-0.3,0.8-0.5,3.2-0.5,5.5c0,3.2,0,7.3,3.2,7.3
		c2.7,0,3.1-1.7,3.2-3.8h2.1c0.2,4.7-3.2,5.5-4.8,5.5c-5.9,0-5.9-4.7-5.9-9c0-1.7,0.1-4.5,0.5-5.8c0.9-2.5,2.9-3.4,5.3-3.4
		c3,0,5.1,1.7,4.9,5.4H378.2z"/>
	<path fill="#6D6E71" d="M393,613.6L393,613.6c-1.2,1.7-2.9,2.5-5,2.5c-3.1,0-4.8-2.1-4.8-5.2c0-6.1,6.2-5.5,9.7-5.8v-1.5
		c0-2.6-0.8-4.1-3.5-4.1c-1.9,0-3.4,0.9-3.4,3h-2.2c0.2-3.4,2.8-4.7,5.8-4.7c1.8,0,5.4,0.2,5.4,4.6v8.8c0,1.2,0,2.4,0.2,4.4H393
		V613.6z M392.8,606.8c-3,0.1-7.5-0.2-7.5,4c0,2,1,3.6,3.2,3.6c2.4,0,4.3-2.1,4.3-4.4V606.8z"/>
	<path fill="#6D6E71" d="M400,615.7v-25h2.1v25H400z"/>
	<path fill="#6D6E71" d="M411.6,616.1c-3.8,0-5.3-1.8-5.2-5.5h2.1c0,2.4,0.6,4,3.2,4c2,0,3-1.1,3-3.1c0-4.6-7.9-3.4-7.9-9.2
		c0-3.2,2.2-4.4,5.3-4.4c3.5,0,4.6,2.4,4.6,5.1h-2c-0.1-2.2-0.7-3.4-3.1-3.4c-1.5,0-2.7,1-2.7,2.5c0,4.4,7.9,3.2,7.9,9
		C416.8,614.4,414.9,616.1,411.6,616.1z"/>
	<path fill="#6D6E71" d="M431,590.7v25h-2.2v-25H431z"/>
	<path fill="#6D6E71" d="M438,615.7h-2.1v-17.5h2.1v2.2h0.1c1-1.5,2.4-2.5,4.2-2.5c4.3,0,4.8,3.2,4.8,5.5v12.3H445v-12.2
		c0-2-0.8-4-3.2-4c-1.9,0-3.8,1.3-3.8,5.2V615.7z"/>
	<path fill="#6D6E71" d="M459.1,603.3c0.1-2.2-0.7-3.7-3.1-3.7c-1.3,0-2.4,0.7-2.8,2c-0.3,0.8-0.5,3.2-0.5,5.5c0,3.2,0,7.3,3.2,7.3
		c2.7,0,3.1-1.7,3.2-3.8h2.1c0.2,4.7-3.2,5.5-4.8,5.5c-5.9,0-5.9-4.7-5.9-9c0-1.7,0.1-4.5,0.5-5.8c0.9-2.5,2.9-3.4,5.3-3.4
		c3,0,5.1,1.7,4.9,5.4H459.1z"/>
	<path fill="#6D6E71" d="M465.2,613.1h2.6v2.6h-2.6V613.1z"/>
</g>
<g enable-background="new    ">
	<path fill="#6D6E71" d="M11,632.3l7.8,25h-2.3l-2-6.6H4.6l-2,6.6H0.5l7.9-25H11z M13.9,648.9l-4.3-14.1H9.5l-4.2,14.1H13.9z"/>
</g>
<g enable-background="new    ">
	<path fill="#6D6E71" d="M21.9,657.4v-25H24v25H21.9z"/>
	<path fill="#6D6E71" d="M29.6,657.4v-25h2.1v25H29.6z"/>
</g>
<g enable-background="new    ">
	<path fill="#6D6E71" d="M45.5,642.2L45.5,642.2c0.9-1.7,2.8-2.7,4.9-2.7v2.1c-2.9-0.2-4.9,1.5-4.9,4.5v11.3h-2.1v-17.5h2.1V642.2z"
		/>
</g>
<g enable-background="new    ">
	<path fill="#6D6E71" d="M52.8,635v-2.6h2.6v2.6H52.8z M53.1,657.4v-17.5h2.1v17.5H53.1z"/>
	<path fill="#6D6E71" d="M69.2,639.8h2c-0.1,1.7-0.1,2.5-0.1,3.4V658c0,3.8-1.2,6.1-6.2,6.1c-4.4,0-5.2-3.1-5.1-4.9H62
		c-0.1,2,1.4,3.2,3.3,3.2c4.1,0,3.8-2.2,3.8-7.4H69c-0.9,1.5-2.6,2.1-4.2,2.1c-5,0-5.4-4.3-5.4-8.2c0-4.1,0-4.1,0.5-6
		c0.2-0.7,1.4-3.5,4.9-3.5c1.8,0,3.5,0.9,4.3,2.5l0.1,0.1V639.8z M61.5,648.2c0,3.6,0,7.3,3.8,7.3c1.7,0,2.8-1.1,3.2-2
		c0.5-1.4,0.7-2.2,0.7-7.3c0-3.7-2-5.1-3.9-5.1C61.6,641.2,61.5,645.6,61.5,648.2z"/>
	<path fill="#6D6E71" d="M75.5,657.4v-25h2.1v9.7h0.1c1-1.5,2.4-2.5,4.2-2.5c4.3,0,4.8,3.2,4.8,5.5v12.3h-2.1v-12.2c0-2-0.8-4-3.2-4
		c-1.9,0-3.8,1.3-3.8,5.2v11H75.5z"/>
</g>
<g enable-background="new    ">
	<path fill="#6D6E71" d="M88.5,641.5v-1.7h2.8v-3.6l2.1-0.9v4.5H97v1.7h-3.5v11.2c0,2.3,0.2,2.9,1.9,2.9c0.7,0,1.2,0,1.6-0.1v1.8
		c-0.6,0.1-1.3,0.1-2,0.1c-2.8,0-3.6-1.2-3.6-3.4v-12.5H88.5z"/>
</g>
<g enable-background="new    ">
	<path fill="#6D6E71" d="M103.8,657.7c-3.8,0-5.3-1.8-5.2-5.5h2.1c0,2.4,0.6,4,3.2,4c2,0,3-1.1,3-3.1c0-4.6-7.9-3.4-7.9-9.2
		c0-3.2,2.2-4.4,5.3-4.4c3.5,0,4.6,2.4,4.6,5.1h-2c-0.1-2.2-0.7-3.4-3.1-3.4c-1.5,0-2.7,1-2.7,2.5c0,4.4,7.9,3.2,7.9,9
		C109,656,107.1,657.7,103.8,657.7z"/>
</g>
<g enable-background="new    ">
	<path fill="#6D6E71" d="M122.2,642.2L122.2,642.2c0.9-1.7,2.8-2.7,4.9-2.7v2.1c-2.9-0.2-4.9,1.5-4.9,4.5v11.3h-2.1v-17.5h2.1V642.2
		z"/>
</g>
<g enable-background="new    ">
	<path fill="#6D6E71" d="M130.7,649v1.4c0,2.4,0.7,5.7,4,5.7c2.6,0,3.9-1.7,3.8-4h2.2c-0.2,4.2-2.5,5.7-6,5.7c-3,0-6-1.2-6-6.5v-4.3
		c0-5.1,2.1-7.4,6-7.4c6,0,6,4.3,6,9.5H130.7z M138.6,647.4c0-3.9-0.6-6.2-4-6.2s-4,2.3-4,6.2H138.6z"/>
	<path fill="#6D6E71" d="M149.1,657.7c-3.8,0-5.3-1.8-5.2-5.5h2.1c0,2.4,0.6,4,3.2,4c2,0,3-1.1,3-3.1c0-4.6-7.9-3.4-7.9-9.2
		c0-3.2,2.2-4.4,5.3-4.4c3.5,0,4.6,2.4,4.6,5.1h-2c-0.1-2.2-0.7-3.4-3.1-3.4c-1.5,0-2.7,1-2.7,2.5c0,4.4,7.9,3.2,7.9,9
		C154.3,656,152.4,657.7,149.1,657.7z"/>
	<path fill="#6D6E71" d="M159.6,649v1.4c0,2.4,0.7,5.7,4,5.7c2.6,0,3.9-1.7,3.8-4h2.2c-0.2,4.2-2.5,5.7-6,5.7c-3,0-6-1.2-6-6.5v-4.3
		c0-5.1,2.1-7.4,6-7.4c6,0,6,4.3,6,9.5H159.6z M167.5,647.4c0-3.9-0.6-6.2-4-6.2s-4,2.3-4,6.2H167.5z"/>
</g>
<g enable-background="new    ">
	<path fill="#6D6E71" d="M174.7,642.2L174.7,642.2c0.9-1.7,2.8-2.7,4.9-2.7v2.1c-2.9-0.2-4.9,1.5-4.9,4.5v11.3h-2.1v-17.5h2.1V642.2
		z"/>
</g>
<g enable-background="new    ">
	<path fill="#6D6E71" d="M186.7,654.7L186.7,654.7l4.3-14.9h2l-5.2,17.5h-2.4l-5.2-17.5h2.3L186.7,654.7z"/>
	<path fill="#6D6E71" d="M197.1,649v1.4c0,2.4,0.7,5.7,4,5.7c2.6,0,3.9-1.7,3.8-4h2.2c-0.2,4.2-2.5,5.7-6,5.7c-3,0-6-1.2-6-6.5v-4.3
		c0-5.1,2.1-7.4,6-7.4c6,0,6,4.3,6,9.5H197.1z M205,647.4c0-3.9-0.6-6.2-4-6.2s-4,2.3-4,6.2H205z"/>
	<path fill="#6D6E71" d="M220.1,655.1L220.1,655.1c-1.1,1.7-2.5,2.6-4.5,2.6c-5.1,0-5.3-5-5.3-9.1c0-3.4,0-9.1,5.4-9.1
		c1.6,0,3.2,0.7,4.2,2.1l0.1,0v-9.3h2.1v21.6c0,1.7,0.1,2.9,0.2,3.5h-2L220.1,655.1z M220,650.2v-3.1c0-1,0-5.9-3.9-5.9
		c-3.7,0-3.7,3.4-3.7,7.5c0,6.5,1.6,7.4,3.8,7.4C218.1,656,220,654.4,220,650.2z"/>
	<path fill="#6D6E71" d="M226.7,654.7h2.6v2.6h-2.6V654.7z"/>
	<path fill="#6D6E71" d="M251.3,649.5h2.8v1.9h-2.8v6h-2.1v-6h-8.7v-2l7.5-16.1h3.3V649.5z M249.2,649.5v-14.2h-0.1l-6.7,14.2H249.2
		z"/>
</g>
<g enable-background="new    ">
	<path fill="#6D6E71" d="M253,661.2l9.8-28.8h1.9l-9.9,28.8H253z"/>
</g>
<g enable-background="new    ">
	<path fill="#6D6E71" d="M267,637c1.6-1.1,3.2-2.3,4.4-3.8h1.9v24.2h-2.1V636c-1.3,1.2-2.7,2.4-4.2,3.4V637z"/>
	<path fill="#6D6E71" d="M290.8,638.6c-0.1-2.4-1.1-3.9-3.5-3.9c-4.2,0-4.2,4.3-4.2,8v2.1l0.1,0c0.9-1.8,2.6-2.6,4.7-2.6
		c5.8,0,5.4,6.1,5.4,6.8c0,4.7-0.6,8.8-5.9,8.8c-5.9,0-6.4-3.4-6.4-8.2v-7.9c0-5.9,1.1-8.8,6.4-8.8c3.7,0,5.5,2,5.6,5.8H290.8z
		 M287.3,644c-2.5,0-4.3,1.7-4.3,5.8c0,0.2-0.5,6.1,4.1,6.1c3.7,0,3.9-3.4,3.9-6.3C291,645.8,290.1,644,287.3,644z"/>
</g>
<g enable-background="new    ">
	<path fill="#6D6E71" d="M312.7,632.3l7.8,25h-2.3l-2-6.6h-9.8l-2,6.6h-2.2l7.9-25H312.7z M315.5,648.9l-4.3-14.1h-0.1l-4.2,14.1
		H315.5z"/>
</g>
<g enable-background="new    ">
	<path fill="#6D6E71" d="M323,632.3h6.9c2.1,0,5.5,0.3,5.5,6.1c0,5-1.6,7.3-5.9,7.3h-4.2v11.6H323V632.3z M325.2,643.8h4.1
		c2.3,0,3.8-1.1,3.8-5c0-4.3-1.8-4.6-3.8-4.6h-4.1V643.8z"/>
	<path fill="#6D6E71" d="M342.7,634.2h-6.1v-1.9H351v1.9h-6.1v23.2h-2.2V634.2z"/>
	<path fill="#6D6E71" d="M365.2,657.4h-12.3v-1.9c5.4-8.3,10.1-13.9,10.1-17.1c0-3.2-2-3.6-4-3.6c-2.6,0-4,1.9-4,4.4h-2.1
		c0-4.8,3.2-6.3,6-6.3c2.8,0,6.2,0.9,6.2,5c0,3.5-1.8,5.5-9.8,17.6h9.9V657.4z"/>
	<path fill="#6D6E71" d="M378.6,649.5h2.8v1.9h-2.8v6h-2.1v-6h-8.7v-2l7.5-16.1h3.3V649.5z M376.6,649.5v-14.2h-0.1l-6.7,14.2H376.6
		z"/>
	<path fill="#6D6E71" d="M383.8,640.2c0-4.2,1.2-7.4,6.1-7.4c6.1,0,6.3,3.5,6.3,9.4v3c0,8.8-0.1,12.6-6.1,12.6c-4.1,0-5.9-1.7-6-5.8
		h2.2c0,2.4,0.9,3.9,3.5,3.9c4.4,0,4.2-2.7,4.3-10.2H394c-1,1.5-2.7,2.1-4.4,2.1C385.3,647.8,383.8,645.4,383.8,640.2z M394,640.5
		c0-3,0-5.8-4-5.8c-3.4,0-3.9,2.8-3.9,5.5c0,2.7,0.4,5.7,3.8,5.7C393.8,645.9,394,642.1,394,640.5z"/>
</g>
<g enable-background="new    ">
	<path fill="#6D6E71" d="M397.5,649.1v-2h7v2H397.5z"/>
</g>
<g enable-background="new    ">
	<path fill="#6D6E71" d="M408.3,637c1.6-1.1,3.2-2.3,4.4-3.8h1.9v24.2h-2.1V636c-1.3,1.2-2.7,2.4-4.2,3.4V637z"/>
</g>
<g enable-background="new    ">
	<path fill="#6D6E71" d="M431.8,638.6c-0.1-2.4-1.1-3.9-3.5-3.9c-4.2,0-4.2,4.3-4.2,8v2.1l0.1,0c0.9-1.8,2.6-2.6,4.8-2.6
		c5.8,0,5.4,6.1,5.4,6.8c0,4.7-0.6,8.8-5.9,8.8c-5.9,0-6.4-3.4-6.4-8.2v-7.9c0-5.9,1.1-8.8,6.4-8.8c3.7,0,5.5,2,5.6,5.8H431.8z
		 M428.3,644c-2.5,0-4.3,1.7-4.3,5.8c0,0.2-0.5,6.1,4.1,6.1c3.7,0,3.9-3.4,3.9-6.3C432.1,645.8,431.2,644,428.3,644z"/>
</g>
</svg>
