<?xml version="1.0" encoding="iso-8859-1"?>
<!-- Generator: Adobe Illustrator 18.1.1, SVG Export Plug-In . SVG Version: 6.00 Build 0)  -->
<svg version="1.1" id="Layer_1" xmlns="http://www.w3.org/2000/svg" xmlns:xlink="http://www.w3.org/1999/xlink" x="0px" y="0px"
	 viewBox="-0.031 100.512 125.963 46.636" style="enable-background:new -0.031 100.512 125.963 46.636;" xml:space="preserve">
<g>
	<g>
		<g>
			<defs>
				<rect id="SVGID_1_" y="100.512" width="50.469" height="12.285"/>
			</defs>
			<clipPath id="SVGID_2_">
				<use xlink:href="#SVGID_1_"  style="overflow:visible;"/>
			</clipPath>
			<path style="clip-path:url(#SVGID_2_);fill:#008265;" d="M14.792,108.129c-0.344-0.098-0.688-0.147-1.032-0.147
				c-0.835,0-1.72,0.344-1.72,1.179c0,1.425,2.359,1.278,2.359,2.31c0,0.491-0.59,0.688-0.983,0.688
				c-0.541,0-1.081-0.197-1.474-0.59l0.197,0.835c0.393,0.147,0.786,0.197,1.229,0.197c1.081,0,1.818-0.688,1.818-1.425
				c0-1.278-2.359-1.229-2.359-2.162c0-0.491,0.491-0.639,0.885-0.639c0.393,0,0.786,0.147,1.081,0.442
				C14.792,108.817,14.792,108.129,14.792,108.129z"/>
		</g>
	</g>
	<g>
		<g>
			<defs>
				<rect id="SVGID_3_" y="100.512" width="50.469" height="12.285"/>
			</defs>
			<clipPath id="SVGID_4_">
				<use xlink:href="#SVGID_3_"  style="overflow:visible;"/>
			</clipPath>
			<path style="clip-path:url(#SVGID_4_);fill:#008265;" d="M19.362,112.552h0.983l0,0c-0.344-0.147-0.295-0.639-0.295-0.934v-2.555
				c0-0.295-0.049-0.835,0.295-0.934l0,0h-1.278l0,0c0.344,0.147,0.295,0.639,0.295,0.934v2.064c0,0.246,0,0.393-0.147,0.639
				c-0.246,0.344-0.639,0.491-0.983,0.491c-0.688,0-1.081-0.442-1.081-1.327v-1.818c0-0.295-0.049-0.786,0.295-0.934l0,0h-1.278l0,0
				c0.344,0.147,0.295,0.639,0.295,0.934v1.818c0,0.491,0,0.934,0.344,1.327c0.295,0.344,0.786,0.491,1.229,0.491
				c0.491,0,1.032-0.147,1.327-0.541v0.345H19.362z"/>
		</g>
	</g>
	<g>
		<g>
			<defs>
				<rect id="SVGID_5_" y="100.512" width="50.469" height="12.285"/>
			</defs>
			<clipPath id="SVGID_6_">
				<use xlink:href="#SVGID_5_"  style="overflow:visible;"/>
			</clipPath>
			<path style="clip-path:url(#SVGID_6_);fill:#008265;" d="M2.359,103.215c0.049-0.246,0.295-0.393,0.737-0.246l0,0
				c-0.934-0.491-1.622-0.246-1.818,0.147c-0.098,0.393,0.295,1.72,2.703,2.015l0,0C2.949,104.541,2.261,103.755,2.359,103.215"/>
		</g>
	</g>
	<g>
		<g>
			<defs>
				<rect id="SVGID_7_" y="100.512" width="50.469" height="12.285"/>
			</defs>
			<clipPath id="SVGID_8_">
				<use xlink:href="#SVGID_7_"  style="overflow:visible;"/>
			</clipPath>
			<path style="clip-path:url(#SVGID_8_);fill:#008265;" d="M3.98,105.672c-1.13,0.245-3.98,0.491-2.702-0.443l0,0
				c-0.491,0.246-0.835,0.541-0.983,0.786c-0.197,0.393,0,0.835,0.786,0.835C1.966,106.753,3.391,106.163,3.98,105.672L3.98,105.672
				"/>
		</g>
	</g>
	<g>
		<g>
			<defs>
				<rect id="SVGID_9_" y="100.512" width="50.469" height="12.285"/>
			</defs>
			<clipPath id="SVGID_10_">
				<use xlink:href="#SVGID_9_"  style="overflow:visible;"/>
			</clipPath>
			<path style="clip-path:url(#SVGID_10_);fill:#008265;" d="M4.423,106.016c-0.442,1.032-1.671,2.654-2.064,2.555
				c-0.344-0.049-0.344-0.541-0.295-0.639l0,0c-0.197,0.934-0.049,1.622,0.246,1.867C2.555,110.045,3.931,109.996,4.423,106.016
				L4.423,106.016"/>
		</g>
	</g>
	<g>
		<g>
			<defs>
				<rect id="SVGID_11_" y="100.512" width="50.469" height="12.285"/>
			</defs>
			<clipPath id="SVGID_12_">
				<use xlink:href="#SVGID_11_"  style="overflow:visible;"/>
			</clipPath>
			<path style="clip-path:url(#SVGID_12_);fill:#008265;" d="M4.963,105.819L4.963,105.819c1.13,1.081,2.654,2.801,2.064,3.489
				c-0.197,0.246-0.934,0.246-1.573-0.098l0,0c1.426,1.278,2.605,1.327,3.146,0.786C9.288,109.259,8.502,107.195,4.963,105.819"/>
		</g>
	</g>
	<g>
		<g>
			<defs>
				<rect id="SVGID_13_" y="100.512" width="50.469" height="12.285"/>
			</defs>
			<clipPath id="SVGID_14_">
				<use xlink:href="#SVGID_13_"  style="overflow:visible;"/>
			</clipPath>
			<path style="clip-path:url(#SVGID_14_);fill:#008265;" d="M10.811,104.935c-0.639-0.786-3.194-0.983-5.651,0.295l0,0
				c4.226-0.442,5.307,0.835,3.98,1.327l0,0C10.566,106.507,11.254,105.524,10.811,104.935"/>
		</g>
	</g>
	<g>
		<g>
			<defs>
				<rect id="SVGID_15_" y="100.512" width="50.469" height="12.285"/>
			</defs>
			<clipPath id="SVGID_16_">
				<use xlink:href="#SVGID_15_"  style="overflow:visible;"/>
			</clipPath>
			<path style="clip-path:url(#SVGID_16_);fill:#008265;" d="M7.814,102.871c0.295,0,0.442,0.246,0.197,0.737l0,0
				c0.737-0.934,0.737-1.818,0.344-2.015c-0.491-0.246-2.31,0.147-3.489,3.243l0,0C6.094,103.51,7.322,102.871,7.814,102.871"/>
		</g>
	</g>
	<g>
		<g>
			<defs>
				<rect id="SVGID_17_" y="100.512" width="50.469" height="12.285"/>
			</defs>
			<clipPath id="SVGID_18_">
				<use xlink:href="#SVGID_17_"  style="overflow:visible;"/>
			</clipPath>
			<path style="clip-path:url(#SVGID_18_);fill:#008265;" d="M5.16,101.79c0.246-0.147,0.344,0.147,0.393,0.59l0,0
				c0.344-1.523-0.295-1.867-0.737-1.769c-0.491,0.098-1.474,1.573-0.491,4.177l0,0C4.374,103.608,4.816,102.035,5.16,101.79"/>
		</g>
	</g>
	<g>
		<g>
			<defs>
				<rect id="SVGID_19_" y="100.512" width="50.469" height="12.285"/>
			</defs>
			<clipPath id="SVGID_20_">
				<use xlink:href="#SVGID_19_"  style="overflow:visible;"/>
			</clipPath>
			<path style="clip-path:url(#SVGID_20_);fill:#008265;" d="M22.36,111.667c0,0.393,0,0.639,0.344,0.885l0,0h-1.229l0,0
				c0.344-0.197,0.344-0.491,0.344-0.885v-2.703c0-0.393,0-0.639-0.344-0.835l0,0h0.983l0,0c0.049,0.098,0.049,0.098,0.098,0.147
				l0.098,0.147l2.506,3.145v-2.605c0-0.393,0-0.639-0.344-0.835l0,0h1.179l0,0c-0.344,0.197-0.344,0.491-0.344,0.835v3.833
				c-0.491-0.147-0.688-0.393-0.983-0.786l-2.359-2.949v2.605L22.36,111.667L22.36,111.667z"/>
		</g>
	</g>
	<g>
		<g>
			<defs>
				<rect id="SVGID_21_" y="100.512" width="50.469" height="12.285"/>
			</defs>
			<clipPath id="SVGID_22_">
				<use xlink:href="#SVGID_21_"  style="overflow:visible;"/>
			</clipPath>
			<path style="clip-path:url(#SVGID_22_);fill:#008265;" d="M46.783,109.013l2.359,2.949c0.295,0.393,0.491,0.639,0.983,0.786
				v-3.833c0-0.393,0-0.639,0.344-0.885l0,0H49.29l0,0c0.344,0.197,0.344,0.491,0.344,0.885v2.605l-2.506-3.145l-0.098-0.147
				c-0.049-0.049-0.098-0.098-0.098-0.147l0,0h-0.983l0,0c0.344,0.197,0.344,0.491,0.344,0.885v2.703c0,0.393,0,0.639-0.344,0.885
				l0,0h1.179l0,0c-0.344-0.197-0.344-0.491-0.344-0.885C46.783,111.667,46.783,109.013,46.783,109.013z"/>
		</g>
	</g>
	<g>
		<g>
			<defs>
				<rect id="SVGID_23_" y="100.512" width="50.469" height="12.285"/>
			</defs>
			<clipPath id="SVGID_24_">
				<use xlink:href="#SVGID_23_"  style="overflow:visible;"/>
			</clipPath>
			<path style="clip-path:url(#SVGID_24_);fill:#008265;" d="M42.606,108.424c1.081,0,1.72,0.983,1.72,1.966
				c0,1.032-0.639,1.769-1.72,1.769s-1.72-0.983-1.72-1.917C40.886,109.21,41.525,108.424,42.606,108.424 M42.655,107.932
				c-1.425-0.049-2.555,1.032-2.555,2.359c0,1.376,1.13,2.359,2.506,2.359s2.506-1.032,2.506-2.408
				C45.112,109.013,44.08,107.932,42.655,107.932"/>
		</g>
	</g>
	<g>
		<g>
			<defs>
				<rect id="SVGID_25_" y="100.512" width="50.469" height="12.285"/>
			</defs>
			<clipPath id="SVGID_26_">
				<use xlink:href="#SVGID_25_"  style="overflow:visible;"/>
			</clipPath>
			<path style="clip-path:url(#SVGID_26_);fill:#008265;" d="M38.036,111.618c0,0.295,0.049,0.835-0.295,0.934l0,0h1.278l0,0
				c-0.344-0.147-0.295-0.639-0.295-0.934v-2.555c0-0.295-0.049-0.835,0.295-0.934l0,0h-1.278l0,0
				c0.344,0.147,0.295,0.639,0.295,0.934V111.618z"/>
		</g>
	</g>
	<g>
		<g>
			<defs>
				<rect id="SVGID_27_" y="100.512" width="50.469" height="12.285"/>
			</defs>
			<clipPath id="SVGID_28_">
				<use xlink:href="#SVGID_27_"  style="overflow:visible;"/>
			</clipPath>
			<path style="clip-path:url(#SVGID_28_);fill:#008265;" d="M29.436,108.473c1.081,0,1.72,0.983,1.72,1.966
				c0,1.032-0.688,1.769-1.72,1.769c-1.081,0-1.769-0.983-1.769-1.917C27.667,109.21,28.355,108.473,29.436,108.473 M29.485,107.981
				c-1.425-0.049-2.555,1.032-2.555,2.359c0,1.376,1.13,2.359,2.506,2.359s2.506-1.032,2.506-2.408
				C31.893,109.063,30.91,107.981,29.485,107.981"/>
		</g>
	</g>
	<g>
		<g>
			<defs>
				<rect id="SVGID_29_" y="100.512" width="50.469" height="12.285"/>
			</defs>
			<clipPath id="SVGID_30_">
				<use xlink:href="#SVGID_29_"  style="overflow:visible;"/>
			</clipPath>
			<path style="clip-path:url(#SVGID_30_);fill:#008265;" d="M34.105,111.815c0.147,0.393,0.246,0.59,0.59,0.835l1.523-3.98
				c0.049-0.197,0.344-0.491,0.835-0.59l0,0h-1.179l0,0c0,0.147-0.049,0.295-0.098,0.442l-1.13,2.899l-1.229-3.047
				c-0.049-0.098-0.098-0.197-0.098-0.295l0,0H32.14l0,0c0.393,0.098,0.59,0.393,0.688,0.541L34.105,111.815z"/>
		</g>
	</g>
	<g>
		<g>
			<defs>
				<rect id="SVGID_31_" y="100.512" width="50.469" height="12.285"/>
			</defs>
			<clipPath id="SVGID_32_">
				<use xlink:href="#SVGID_31_"  style="overflow:visible;"/>
			</clipPath>
			<rect x="16.069" y="108.031" style="clip-path:url(#SVGID_32_);fill:#008265;" width="0.049" height="0.049"/>
		</g>
	</g>
</g>
<g>
	<path style="fill:#6D6E71;" d="M0.491,127.491c0,0.393,0,0.885,0.59,0.885s0.59-0.541,0.59-0.885v-1.769h0.246v1.966
		c0,0.737-0.393,0.934-0.835,0.934s-0.835-0.197-0.835-0.934v-1.966h0.246v1.769H0.491z"/>
	<path style="fill:#6D6E71;" d="M2.654,128.523H2.408v-1.966h0.246v0.246l0,0c0.098-0.147,0.246-0.295,0.491-0.295
		c0.491,0,0.541,0.344,0.541,0.639v1.376H3.44v-1.376c0-0.246-0.098-0.442-0.344-0.442c-0.197,0-0.442,0.147-0.442,0.59V128.523z"/>
	<path style="fill:#6D6E71;" d="M5.209,128.277L5.209,128.277c-0.147,0.197-0.295,0.295-0.491,0.295c-0.59,0-0.59-0.59-0.59-1.032
		c0-0.393,0-1.032,0.59-1.032c0.197,0,0.344,0.098,0.491,0.246l0,0v-1.032h0.197v2.457c0,0.197,0,0.344,0,0.393H5.16L5.209,128.277z
		 M5.209,127.687v-0.344c0-0.098,0-0.688-0.442-0.688s-0.442,0.393-0.442,0.835c0,0.737,0.197,0.835,0.442,0.835
		C5.012,128.375,5.209,128.179,5.209,127.687z"/>
	<path style="fill:#6D6E71;" d="M6.094,127.589v0.147c0,0.295,0.098,0.639,0.442,0.639c0.295,0,0.442-0.197,0.442-0.442h0.246
		c-0.049,0.491-0.295,0.639-0.688,0.639c-0.344,0-0.688-0.147-0.688-0.737v-0.491c0-0.59,0.246-0.835,0.688-0.835
		c0.688,0,0.688,0.491,0.688,1.081C7.224,127.589,6.094,127.589,6.094,127.589z M6.978,127.393c0-0.442-0.049-0.688-0.442-0.688
		s-0.442,0.246-0.442,0.688H6.978z"/>
	<path style="fill:#6D6E71;" d="M7.912,126.803L7.912,126.803c0.098-0.197,0.295-0.295,0.541-0.295v0.246
		c-0.344-0.049-0.541,0.197-0.541,0.491v1.278H7.666v-1.966h0.246L7.912,126.803z"/>
	<path style="fill:#6D6E71;" d="M9.73,128.523v-2.85h0.246v2.85H9.73z"/>
	<path style="fill:#6D6E71;" d="M10.566,125.967v-0.295h0.295v0.295H10.566z M10.566,128.523v-1.966h0.246v1.966H10.566z"/>
	<path style="fill:#6D6E71;" d="M12.236,127.098c0-0.246-0.098-0.442-0.344-0.442c-0.147,0-0.246,0.098-0.295,0.246
		c-0.049,0.098-0.049,0.344-0.049,0.639c0,0.344,0,0.835,0.344,0.835c0.295,0,0.344-0.197,0.344-0.442h0.246
		c0,0.541-0.344,0.639-0.541,0.639c-0.639,0-0.639-0.541-0.639-1.032c0-0.197,0-0.491,0.049-0.639
		c0.098-0.295,0.344-0.393,0.59-0.393c0.344,0,0.59,0.197,0.541,0.59C12.482,127.098,12.236,127.098,12.236,127.098z"/>
	<path style="fill:#6D6E71;" d="M13.072,127.589v0.147c0,0.295,0.098,0.639,0.442,0.639c0.295,0,0.442-0.197,0.442-0.442h0.246
		c-0.049,0.491-0.295,0.639-0.688,0.639c-0.344,0-0.688-0.147-0.688-0.737v-0.491c0-0.59,0.246-0.835,0.688-0.835
		c0.688,0,0.688,0.491,0.688,1.081C14.202,127.589,13.072,127.589,13.072,127.589z M14.005,127.393c0-0.442-0.049-0.688-0.442-0.688
		c-0.393,0-0.442,0.246-0.442,0.688H14.005z"/>
	<path style="fill:#6D6E71;" d="M14.89,128.523h-0.246v-1.966h0.246v0.246l0,0c0.098-0.147,0.246-0.295,0.491-0.295
		c0.491,0,0.541,0.344,0.541,0.639v1.376h-0.246v-1.376c0-0.246-0.098-0.442-0.344-0.442c-0.197,0-0.442,0.147-0.442,0.59
		C14.89,127.294,14.89,128.523,14.89,128.523z"/>
	<path style="fill:#6D6E71;" d="M16.905,128.572c-0.442,0-0.59-0.197-0.59-0.639h0.246c0,0.295,0.049,0.442,0.344,0.442
		c0.246,0,0.344-0.147,0.344-0.344c0-0.541-0.885-0.393-0.885-1.032c0-0.344,0.246-0.491,0.59-0.491c0.393,0,0.541,0.295,0.541,0.59
		h-0.246c0-0.246-0.098-0.393-0.344-0.393c-0.147,0-0.295,0.098-0.295,0.295c0,0.491,0.885,0.344,0.885,1.032
		C17.495,128.375,17.298,128.572,16.905,128.572z"/>
	<path style="fill:#6D6E71;" d="M18.084,127.589v0.147c0,0.295,0.098,0.639,0.442,0.639c0.295,0,0.442-0.197,0.442-0.442h0.246
		c-0.049,0.491-0.295,0.639-0.688,0.639c-0.344,0-0.688-0.147-0.688-0.737v-0.491c0-0.59,0.246-0.835,0.688-0.835
		c0.688,0,0.688,0.491,0.688,1.081C19.215,127.589,18.084,127.589,18.084,127.589z M19.018,127.393c0-0.442-0.049-0.688-0.442-0.688
		s-0.442,0.246-0.442,0.688H19.018z"/>
	<path style="fill:#6D6E71;" d="M20.689,126.705h-0.295v-0.147h0.295v-0.344c0-0.197,0.049-0.541,0.491-0.541
		c0.049,0,0.098,0,0.147,0v0.197H21.13c-0.246,0-0.246,0.197-0.246,0.295v0.393h0.393v0.197h-0.393v1.769H20.64v-1.818
		L20.689,126.705L20.689,126.705z"/>
	<path style="fill:#6D6E71;" d="M21.868,126.803L21.868,126.803c0.098-0.197,0.295-0.295,0.541-0.295v0.246
		c-0.344-0.049-0.541,0.197-0.541,0.491v1.278h-0.246v-1.966h0.246V126.803z"/>
	<path style="fill:#6D6E71;" d="M22.654,127.736v-0.442c0-0.491,0.197-0.835,0.688-0.835c0.442,0,0.688,0.295,0.688,0.835v0.442
		c0,0.491-0.197,0.835-0.688,0.835C22.9,128.572,22.654,128.277,22.654,127.736z M22.9,127.54c0,0.541,0.049,0.835,0.442,0.835
		s0.442-0.344,0.442-0.835s-0.049-0.835-0.442-0.835S22.9,126.999,22.9,127.54z"/>
	<path style="fill:#6D6E71;" d="M24.718,128.523h-0.246v-1.966h0.197v0.246l0,0c0.098-0.147,0.246-0.295,0.491-0.295
		c0.197,0,0.393,0.098,0.442,0.295c0.098-0.197,0.246-0.295,0.491-0.295c0.344,0,0.491,0.246,0.491,0.541v1.474H26.34v-1.425
		c0-0.197-0.098-0.393-0.295-0.393c-0.295,0-0.393,0.295-0.393,0.541v1.278h-0.246v-1.425c0-0.197-0.098-0.393-0.295-0.393
		c-0.295,0-0.393,0.295-0.393,0.541C24.718,127.245,24.718,128.523,24.718,128.523z"/>
</g>
<g>
	<g>
		<g>
			<defs>
				<rect id="SVGID_33_" x="26.832" y="124.444" width="24.718" height="5.307"/>
			</defs>
			<clipPath id="SVGID_34_">
				<use xlink:href="#SVGID_33_"  style="overflow:visible;"/>
			</clipPath>
			<path style="clip-path:url(#SVGID_34_);fill:#003E7E;" d="M36.267,127.491c0-0.098-0.049-0.147-0.098-0.246
				s-0.147-0.197-0.197-0.246c-0.098-0.098-0.246-0.147-0.393-0.197c-0.197-0.049-0.344-0.098-0.541-0.098
				c-0.246-0.049-0.491-0.049-0.737-0.049h-1.917c0,0-0.049,0-0.049,0.049v0.59v0.59c0,0,0,0.049,0.049,0.049h3.391
				c0.049,0,0.098,0,0.147,0c0.098,0,0.197-0.049,0.246-0.147C36.267,127.638,36.267,127.589,36.267,127.491 M35.726,127.54h-2.998
				c0,0-0.049,0-0.049-0.049v-0.246v-0.246c0,0,0-0.049,0.049-0.049h1.769c0.246,0,0.491,0.049,0.688,0.098
				c0.147,0.049,0.295,0.098,0.442,0.147c0,0,0.049,0,0.049,0.049l0.049,0.049c0.049,0.049,0.049,0.098,0.049,0.147
				C35.824,127.54,35.726,127.54,35.726,127.54"/>
		</g>
	</g>
	<g>
		<g>
			<defs>
				<rect id="SVGID_35_" x="26.832" y="124.444" width="24.718" height="5.307"/>
			</defs>
			<clipPath id="SVGID_36_">
				<use xlink:href="#SVGID_35_"  style="overflow:visible;"/>
			</clipPath>
			<path style="clip-path:url(#SVGID_36_);fill:#003E7E;" d="M39.707,125.673C39.756,125.673,39.756,125.673,39.707,125.673
				l0.049-0.786c0,0,0-0.049-0.049-0.049h-2.064c0,0-0.049,0-0.049,0.049v0.737c0,0,0,0.049,0.049,0.049H39.707z M37.938,125.181
				C37.938,125.181,37.987,125.132,37.938,125.181l1.425-0.049c0,0,0.049,0,0.049,0.049v0.197c0,0,0,0.049-0.049,0.049h-1.376
				c0,0-0.049,0-0.049-0.049V125.181z"/>
		</g>
	</g>
	<g>
		<g>
			<defs>
				<rect id="SVGID_37_" x="26.832" y="124.444" width="24.718" height="5.307"/>
			</defs>
			<clipPath id="SVGID_38_">
				<use xlink:href="#SVGID_37_"  style="overflow:visible;"/>
			</clipPath>
			<path style="clip-path:url(#SVGID_38_);fill:#003E7E;" d="M41.525,127.245c-0.049,0.098-0.049,0.147-0.049,0.246
				c0,0.295,0.295,0.541,1.229,0.344c0.639-0.147,1.032-0.393,1.081-0.393c0,0,0,0,0-0.049v-0.197v-0.639c0,0,0-0.049-0.049-0.049
				C43.785,126.557,41.918,126.557,41.525,127.245 M42.115,127.589c-0.344-0.049-0.197-0.246-0.197-0.246
				c0.049-0.049,0.049-0.049,0.098-0.098c0.442-0.344,1.376-0.344,1.376-0.344s0.049,0,0.049,0.049v0.295l0,0l0,0l0,0
				C43.098,127.393,42.459,127.638,42.115,127.589"/>
		</g>
	</g>
	<g>
		<g>
			<defs>
				<rect id="SVGID_39_" x="26.832" y="124.444" width="24.718" height="5.307"/>
			</defs>
			<clipPath id="SVGID_40_">
				<use xlink:href="#SVGID_39_"  style="overflow:visible;"/>
			</clipPath>
			<path style="clip-path:url(#SVGID_40_);fill:#003E7E;" d="M49.437,127.638h-0.295c-0.049,0-0.098,0-0.147-0.049
				c-0.049-0.049-0.049-0.098-0.049-0.147v-0.147v-2.162c0-0.098,0.098-0.197,0.197-0.246c0,0,0.049,0,0.049-0.049v-0.344
				c0,0,0-0.049-0.049-0.049l0,0c-0.835,0.098-1.229,0.442-1.622,0.786c-0.393,0.344-0.786,0.393-0.786,0.393s-0.049,0-0.049,0.049
				v0.295c0,0,0,0.049,0.049,0.049s0.098,0.049,0.147,0.147l0,0v1.032v0.835c0,0,0,0,0,0.049c0,0.049,0.049,0.147,0.049,0.197
				c0.049,0.049,0.147,0.147,0.197,0.147c0.098,0,0.147,0.049,0.246,0.049h2.015c0,0,0.049,0,0.049-0.049v-0.344L49.437,127.638
				L49.437,127.638 M49.093,128.13L49.093,128.13l-1.671,0.049c-0.049,0-0.098,0-0.147-0.049l0,0
				c-0.049-0.098-0.098-0.147-0.098-0.197v-0.688v-1.032c0-0.098-0.049-0.197-0.098-0.295c0,0,0,0,0-0.049l0,0
				c0,0,0.344-0.147,0.688-0.442c0.295-0.295,0.639-0.442,0.835-0.491l0,0l0,0c-0.049,0.098-0.049,0.246-0.049,0.344v1.966v0.246
				c0,0.197,0.147,0.393,0.344,0.442c0.049,0,0.098,0,0.147,0c0,0,0.049,0,0.049,0.049V128.13L49.093,128.13z"/>
		</g>
	</g>
	<g>
		<g>
			<defs>
				<rect id="SVGID_41_" x="26.832" y="124.444" width="24.718" height="5.307"/>
			</defs>
			<clipPath id="SVGID_42_">
				<use xlink:href="#SVGID_41_"  style="overflow:visible;"/>
			</clipPath>
			<path style="clip-path:url(#SVGID_42_);fill:#003E7E;" d="M46.144,127.638h-0.295c-0.049,0-0.098,0-0.147-0.049
				c-0.049-0.049-0.049-0.098-0.049-0.147v-0.147v-0.737c0-0.049,0-0.049,0-0.098s0-0.049,0.049-0.098s0.098-0.098,0.147-0.098l0,0
				c0,0,0,0,0-0.049v-0.295c0,0,0-0.049-0.049-0.049h-2.31c0,0-2.261-0.049-2.703,1.278c0,0.197,0,0.295-0.049,0.393
				c-0.049,0.197,0.049,0.393,0.147,0.541c0.147,0.197,0.393,0.344,0.639,0.393c0.393,0.098,0.934,0.147,1.425,0
				c0.147-0.049,0.344-0.098,0.491-0.147c0.098,0.098,0.197,0.098,0.344,0.147c0.098,0,0.147,0,0.246,0h2.113
				c0,0,0.049,0,0.049-0.049v-0.344L46.144,127.638C46.193,127.638,46.193,127.638,46.144,127.638 M45.849,128.13L45.849,128.13
				l-1.769,0.049h-0.098c-0.049,0-0.147,0-0.197-0.049l0,0c-0.098-0.049-0.147-0.098-0.197-0.197
				c-0.098,0.049-0.246,0.147-0.393,0.197c-0.59,0.197-1.425,0.246-1.818,0c-0.197-0.098-0.295-0.295-0.295-0.541
				c0-0.098,0.049-0.197,0.049-0.246l0,0c0.393-0.983,2.408-0.983,2.408-0.983h0.246h1.523l0,0l0,0
				c-0.049,0.049-0.049,0.098-0.049,0.147v0.786v0.246c0,0.197,0.147,0.393,0.344,0.442c0.049,0,0.098,0,0.147,0
				c0,0,0.049,0,0.049,0.049v0.098h0.05V128.13z"/>
		</g>
	</g>
	<g>
		<g>
			<defs>
				<rect id="SVGID_43_" x="26.832" y="124.444" width="24.718" height="5.307"/>
			</defs>
			<clipPath id="SVGID_44_">
				<use xlink:href="#SVGID_43_"  style="overflow:visible;"/>
			</clipPath>
			<path style="clip-path:url(#SVGID_44_);fill:#003E7E;" d="M40.247,127.638h-0.295c-0.049,0-0.098,0-0.147-0.049
				c-0.049-0.049-0.049-0.098-0.049-0.147v-0.147v-1.278l0,0c0,0,0-0.049-0.049-0.049h-2.261c0,0-0.049,0-0.049,0.049v0.295
				c0,0,0,0.049,0.049,0.049l0,0c0.049,0,0.098,0.049,0.147,0.098c0,0,0,0.049,0.049,0.098c0,0.049,0,0.049,0,0.098v0.688v0.688
				c0,0,0,0,0,0.049c0,0.049,0.049,0.147,0.049,0.197c0.049,0.049,0.147,0.147,0.197,0.147c0.098,0,0.147,0.049,0.246,0.049h2.113
				c0,0,0.049,0,0.049-0.049v-0.344L40.247,127.638C40.296,127.638,40.296,127.638,40.247,127.638 M39.952,128.13L39.952,128.13
				l-1.769,0.049c-0.049,0-0.098,0-0.147-0.049l0,0c-0.049-0.049-0.049-0.098-0.049-0.147v-0.688v-0.786
				c0-0.049,0-0.098-0.049-0.147l0,0l0,0h1.474c0,0,0.049,0,0.049,0.049v0.934v0.246c0,0.197,0.147,0.393,0.344,0.442
				c0.049,0,0.098,0,0.147,0c0,0,0.049,0,0.049,0.049v0.049h-0.049V128.13z"/>
		</g>
	</g>
	<g>
		<g>
			<defs>
				<rect id="SVGID_45_" x="26.832" y="124.444" width="24.718" height="5.307"/>
			</defs>
			<clipPath id="SVGID_46_">
				<use xlink:href="#SVGID_45_"  style="overflow:visible;"/>
			</clipPath>
			<path style="clip-path:url(#SVGID_46_);fill:#003E7E;" d="M37.004,127.196c-0.049-0.147-0.147-0.295-0.246-0.442
				c-0.049-0.098-0.197-0.147-0.246-0.246c0.147-0.197,0.197-0.393,0.147-0.639s-0.147-0.442-0.344-0.59
				c-0.147-0.147-0.344-0.246-0.491-0.295c-0.344-0.147-0.786-0.295-1.179-0.393c-0.147-0.049-0.295-0.049-0.442-0.098
				c-0.393-0.049-0.786-0.098-1.179-0.098c-0.491,0-0.983,0-1.474,0.098c-0.295,0.049-0.59,0.098-0.934,0.197
				c-0.541,0.098-1.081,0.295-1.573,0.491c0,0,0,0,0,0.049v0.934c0,0,0,0.049,0.049,0.049c0,0,0.344,0,0.393,0.295v0.737v0.098
				c0,0.197-0.393,0.246-0.393,0.246s-0.049,0-0.049,0.049v0.491v0.344c0,0,0,0.049,0.049,0.049h6.782h0.049
				c0.246-0.049,0.344-0.049,0.491-0.147c0.049,0,0.098-0.049,0.098-0.049c0.098-0.049,0.147-0.098,0.246-0.197l0,0
				c0.098-0.098,0.147-0.197,0.197-0.295C37.053,127.638,37.053,127.442,37.004,127.196
				C37.004,127.245,37.004,127.245,37.004,127.196 M36.168,128.08c-0.147,0.049-0.344,0.049-0.541,0.049c-0.147,0-6.29,0-6.29,0
				s-0.049,0-0.049-0.049v-0.049v-0.197c0,0,0-0.049,0.049-0.049c0.098,0,0.147-0.049,0.246-0.098
				c0.049-0.049,0.098-0.147,0.098-0.246c0-0.098,0-0.197,0-0.246v-0.049v-0.835c0-0.098-0.049-0.197-0.049-0.246
				c-0.049-0.049-0.049-0.098-0.098-0.147c-0.049-0.049-0.147-0.098-0.197-0.098c0,0,0,0,0-0.049v-0.344c0,0,0-0.049,0.049-0.049
				c0.491-0.147,0.934-0.295,1.425-0.442c0.737-0.147,1.474-0.246,2.211-0.246c0.786,0,1.523,0.098,2.261,0.393
				c0.147,0.049,0.442,0.197,0.59,0.246c0.147,0.098,0.197,0.147,0.295,0.295c0.049,0.098,0.098,0.246,0.098,0.393
				c0,0.197-0.147,0.344-0.295,0.442c0,0,0,0,0,0.049c0,0,0,0,0,0.049l0,0l0,0c0.197,0.098,0.393,0.246,0.491,0.442
				c0.049,0.049,0.098,0.098,0.098,0.197c0,0.049,0.049,0.098,0.049,0.197c0,0.147-0.049,0.295-0.098,0.393
				c-0.098,0.098-0.197,0.147-0.295,0.197C36.218,128.08,36.218,128.08,36.168,128.08L36.168,128.08z"/>
		</g>
	</g>
	<g>
		<g>
			<defs>
				<rect id="SVGID_47_" x="26.832" y="124.444" width="24.718" height="5.307"/>
			</defs>
			<clipPath id="SVGID_48_">
				<use xlink:href="#SVGID_47_"  style="overflow:visible;"/>
			</clipPath>
			<path style="clip-path:url(#SVGID_48_);fill:#003E7E;" d="M35.431,126.41c0.098,0,0.197,0,0.246-0.049
				c0.098-0.049,0.147-0.147,0.147-0.246s0-0.147-0.098-0.197c-0.049-0.049-0.049-0.049-0.098-0.098
				c-0.098-0.098-0.246-0.147-0.344-0.197c-0.197-0.098-0.344-0.147-0.541-0.197c-0.197-0.05-0.295-0.098-0.491-0.098
				c-0.197-0.049-0.393-0.049-0.59-0.098c-0.197,0-0.344-0.049-0.541-0.049s-0.442,0-0.688,0c0,0-0.049,0-0.049,0.049v1.179
				c0,0,0,0.049,0.049,0.049h2.998L35.431,126.41z M32.729,125.525C32.729,125.476,32.729,125.476,32.729,125.525
				c0.049-0.049,0.541-0.049,1.376,0.049c0.983,0.147,1.278,0.442,1.278,0.442l0,0l0,0h-2.654c0,0-0.049,0-0.049-0.049v-0.442
				H32.729z"/>
		</g>
	</g>
	<g>
		<g>
			<defs>
				<rect id="SVGID_49_" x="26.832" y="124.444" width="24.718" height="5.307"/>
			</defs>
			<clipPath id="SVGID_50_">
				<use xlink:href="#SVGID_49_"  style="overflow:visible;"/>
			</clipPath>
			<rect x="26.832" y="129.555" style="clip-path:url(#SVGID_50_);fill:#EF4135;" width="24.718" height="0.197"/>
		</g>
	</g>
</g>
<g>
	<g>
		<g>
			<defs>
				<rect id="SVGID_51_" x="21.936" y="133.634" width="4.128" height="3.735"/>
			</defs>
			<clipPath id="SVGID_52_">
				<use xlink:href="#SVGID_51_"  style="overflow:visible;"/>
			</clipPath>
			<path style="clip-path:url(#SVGID_52_);fill:#008265;" d="M22.771,134.616c0-0.098,0.098-0.147,0.295-0.098l0,0
				c-0.344-0.197-0.639-0.098-0.688,0.049s0.098,0.639,1.032,0.786l0,0C23.017,135.157,22.722,134.862,22.771,134.616"/>
		</g>
	</g>
	<g>
		<g>
			<defs>
				<rect id="SVGID_53_" x="21.936" y="133.634" width="4.128" height="3.735"/>
			</defs>
			<clipPath id="SVGID_54_">
				<use xlink:href="#SVGID_53_"  style="overflow:visible;"/>
			</clipPath>
			<path style="clip-path:url(#SVGID_54_);fill:#008265;" d="M23.41,135.599c-0.442,0.098-1.523,0.197-1.032-0.197l0,0
				c-0.197,0.098-0.344,0.197-0.393,0.295c-0.098,0.147,0,0.344,0.295,0.295C22.624,135.992,23.164,135.747,23.41,135.599
				L23.41,135.599"/>
		</g>
	</g>
	<g>
		<g>
			<defs>
				<rect id="SVGID_55_" x="21.936" y="133.634" width="4.128" height="3.735"/>
			</defs>
			<clipPath id="SVGID_56_">
				<use xlink:href="#SVGID_55_"  style="overflow:visible;"/>
			</clipPath>
			<path style="clip-path:url(#SVGID_56_);fill:#008265;" d="M23.558,135.697c-0.147,0.393-0.639,1.032-0.786,0.983
				s-0.147-0.197-0.098-0.246l0,0c-0.098,0.344,0,0.639,0.098,0.737C22.82,137.27,23.361,137.27,23.558,135.697L23.558,135.697"/>
		</g>
	</g>
	<g>
		<g>
			<defs>
				<rect id="SVGID_57_" x="21.936" y="133.634" width="4.128" height="3.735"/>
			</defs>
			<clipPath id="SVGID_58_">
				<use xlink:href="#SVGID_57_"  style="overflow:visible;"/>
			</clipPath>
			<path style="clip-path:url(#SVGID_58_);fill:#008265;" d="M23.803,135.648L23.803,135.648c0.442,0.442,1.032,1.081,0.786,1.327
				c-0.098,0.098-0.344,0.098-0.59-0.049l0,0c0.541,0.491,1.032,0.491,1.229,0.295C25.425,136.975,25.13,136.189,23.803,135.648"/>
		</g>
	</g>
	<g>
		<g>
			<defs>
				<rect id="SVGID_59_" x="21.936" y="133.634" width="4.128" height="3.735"/>
			</defs>
			<clipPath id="SVGID_60_">
				<use xlink:href="#SVGID_59_"  style="overflow:visible;"/>
			</clipPath>
			<path style="clip-path:url(#SVGID_60_);fill:#008265;" d="M26.015,135.304c-0.246-0.295-1.229-0.393-2.162,0.098l0,0
				c1.622-0.147,2.064,0.344,1.523,0.491l0,0C25.916,135.894,26.211,135.501,26.015,135.304"/>
		</g>
	</g>
	<g>
		<g>
			<defs>
				<rect id="SVGID_61_" x="21.936" y="133.634" width="4.128" height="3.735"/>
			</defs>
			<clipPath id="SVGID_62_">
				<use xlink:href="#SVGID_61_"  style="overflow:visible;"/>
			</clipPath>
			<path style="clip-path:url(#SVGID_62_);fill:#008265;" d="M24.884,134.518c0.098,0,0.147,0.098,0.098,0.295l0,0
				c0.295-0.344,0.295-0.688,0.147-0.786c-0.197-0.098-0.885,0.049-1.327,1.229l0,0C24.196,134.764,24.688,134.518,24.884,134.518"
				/>
		</g>
	</g>
	<g>
		<g>
			<defs>
				<rect id="SVGID_63_" x="21.936" y="133.634" width="4.128" height="3.735"/>
			</defs>
			<clipPath id="SVGID_64_">
				<use xlink:href="#SVGID_63_"  style="overflow:visible;"/>
			</clipPath>
			<path style="clip-path:url(#SVGID_64_);fill:#008265;" d="M23.852,134.076c0.098-0.049,0.147,0.049,0.147,0.246l0,0
				c0.147-0.59-0.098-0.737-0.295-0.688c-0.197,0.049-0.541,0.59-0.197,1.622l0,0C23.558,134.813,23.705,134.174,23.852,134.076"/>
		</g>
	</g>
</g>
<g>
	<rect x="-0.031" y="134.099" style="fill:none;" width="125.963" height="12.734"/>
	<path style="fill:#6D6E71;" d="M1.389,135.188c-0.008-0.334-0.09-0.536-0.458-0.536c-0.293,0-0.477,0.101-0.477,0.42
		c0,0.401,0.202,0.413,0.511,0.635c0.334,0.24,0.675,0.312,0.675,0.837c0,0.484-0.247,0.721-0.721,0.721
		c-0.528,0-0.766-0.285-0.743-0.814h0.248c0,0.3,0.022,0.611,0.507,0.611c0.315,0,0.469-0.169,0.469-0.48
		c0-0.367-0.243-0.473-0.634-0.713c-0.525-0.323-0.548-0.484-0.552-0.755c-0.004-0.469,0.293-0.664,0.735-0.664
		c0.563,0,0.684,0.349,0.684,0.739H1.389z"/>
	<path style="fill:#6D6E71;" d="M2.337,136.205c0,0.353,0,0.855,0.552,0.855s0.552-0.503,0.552-0.855v-1.704h0.24v1.881
		c0,0.697-0.368,0.882-0.792,0.882c-0.425,0-0.792-0.185-0.792-0.882v-1.881h0.24V136.205z"/>
	<path style="fill:#6D6E71;" d="M4.219,137.211v-2.71h0.368l1.1,2.38l0.008-0.008v-2.372h0.24v2.71H5.57l-1.104-2.406l-0.008,0.008
		v2.398H4.219z"/>
	<path style="fill:#6D6E71;" d="M7.265,134.448c0.811,0,0.817,0.676,0.817,1.407c0,0.732-0.007,1.408-0.817,1.408
		c-0.812,0-0.818-0.676-0.818-1.408C6.446,135.124,6.453,134.448,7.265,134.448z M7.265,137.061c0.57,0,0.577-0.484,0.577-1.205
		s-0.007-1.204-0.577-1.204c-0.571,0-0.578,0.483-0.578,1.204S6.693,137.061,7.265,137.061z"/>
	<path style="fill:#6D6E71;" d="M9.912,134.501h0.232l-0.75,2.71H9.094l-0.754-2.71h0.255l0.642,2.425h0.008L9.912,134.501z"/>
	<path style="fill:#6D6E71;" d="M10.718,134.501v2.71h-0.24v-2.71H10.718z"/>
	<path style="fill:#6D6E71;" d="M12.057,134.448c0.811,0,0.818,0.676,0.818,1.407c0,0.732-0.008,1.408-0.818,1.408
		c-0.812,0-0.818-0.676-0.818-1.408C11.238,135.124,11.245,134.448,12.057,134.448z M12.057,137.061c0.57,0,0.578-0.484,0.578-1.205
		s-0.008-1.204-0.578-1.204c-0.571,0-0.578,0.483-0.578,1.204S11.485,137.061,12.057,137.061z"/>
	<path style="fill:#6D6E71;" d="M13.387,137.211v-2.71h0.368l1.1,2.38l0.008-0.008v-2.372h0.24v2.71h-0.364l-1.104-2.406
		l-0.008,0.008v2.398H13.387z"/>
	<path style="fill:#6D6E71;" d="M17.43,136.979h-0.008c-0.12,0.18-0.304,0.27-0.537,0.27c-0.338,0-0.521-0.229-0.521-0.559
		c0-0.665,0.668-0.597,1.051-0.627v-0.158c0-0.277-0.082-0.446-0.383-0.446c-0.206,0-0.371,0.102-0.371,0.326h-0.24
		c0.019-0.363,0.3-0.507,0.63-0.507c0.192,0,0.59,0.02,0.59,0.504v0.953c0,0.135,0,0.255,0.022,0.477H17.43V136.979z
		 M17.414,136.242c-0.322,0.012-0.811-0.026-0.811,0.436c0,0.214,0.109,0.391,0.342,0.391c0.259,0,0.469-0.232,0.469-0.48V136.242z"
		/>
	<path style="fill:#6D6E71;" d="M18.34,137.211h-0.226v-1.896h0.226v0.232h0.008c0.108-0.157,0.255-0.271,0.458-0.271
		c0.469,0,0.518,0.35,0.518,0.598v1.336h-0.225v-1.325c0-0.222-0.087-0.428-0.35-0.428c-0.202,0-0.409,0.139-0.409,0.563V137.211z"
		/>
	<path style="fill:#6D6E71;" d="M20.774,136.971l-0.008,0.004c-0.116,0.18-0.259,0.273-0.48,0.273c-0.548,0-0.578-0.544-0.578-0.986
		c0-0.364,0-0.984,0.582-0.984c0.173,0,0.342,0.079,0.458,0.226l0.008,0.004v-1.006h0.225v2.335c0,0.188,0.012,0.312,0.023,0.375
		h-0.218L20.774,136.971z M20.764,136.434v-0.338c0-0.112,0-0.638-0.425-0.638c-0.405,0-0.405,0.368-0.405,0.811
		c0,0.706,0.169,0.8,0.413,0.8C20.561,137.068,20.764,136.896,20.764,136.434z"/>
	<path style="fill:#6D6E71;" d="M27.886,136.979h-0.008c-0.12,0.18-0.304,0.27-0.537,0.27c-0.338,0-0.521-0.229-0.521-0.559
		c0-0.665,0.668-0.597,1.051-0.627v-0.158c0-0.277-0.082-0.446-0.383-0.446c-0.206,0-0.371,0.102-0.371,0.326h-0.24
		c0.019-0.363,0.3-0.507,0.63-0.507c0.191,0,0.59,0.02,0.59,0.504v0.953c0,0.135,0,0.255,0.022,0.477h-0.232V136.979z
		 M27.87,136.242c-0.322,0.012-0.811-0.026-0.811,0.436c0,0.214,0.109,0.391,0.342,0.391c0.259,0,0.469-0.232,0.469-0.48V136.242z"
		/>
	<path style="fill:#6D6E71;" d="M28.811,135.57h0.008c0.094-0.18,0.293-0.293,0.521-0.293v0.229
		c-0.318-0.026-0.529,0.165-0.529,0.484v1.22h-0.225v-1.896h0.225V135.57z"/>
	<path style="fill:#6D6E71;" d="M29.79,136.311v0.146c0,0.263,0.071,0.612,0.428,0.612c0.282,0,0.421-0.181,0.417-0.436h0.236
		c-0.026,0.458-0.273,0.615-0.653,0.615c-0.326,0-0.653-0.131-0.653-0.705v-0.466c0-0.548,0.229-0.8,0.653-0.8
		c0.653,0,0.653,0.47,0.653,1.033H29.79z M30.646,136.13c0-0.421-0.068-0.672-0.429-0.672s-0.428,0.251-0.428,0.672H30.646z"/>
	<path style="fill:#6D6E71;" d="M32.351,135.57h0.008c0.094-0.18,0.293-0.293,0.521-0.293v0.229
		c-0.318-0.026-0.529,0.165-0.529,0.484v1.22h-0.225v-1.896h0.225V135.57z"/>
	<path style="fill:#6D6E71;" d="M33.33,136.311v0.146c0,0.263,0.071,0.612,0.428,0.612c0.282,0,0.421-0.181,0.417-0.436h0.236
		c-0.026,0.458-0.273,0.615-0.653,0.615c-0.326,0-0.652-0.131-0.652-0.705v-0.466c0-0.548,0.229-0.8,0.652-0.8
		c0.653,0,0.653,0.47,0.653,1.033H33.33z M34.186,136.13c0-0.421-0.067-0.672-0.428-0.672s-0.428,0.251-0.428,0.672H34.186z"/>
	<path style="fill:#6D6E71;" d="M35.81,135.312h0.222c-0.008,0.181-0.012,0.274-0.012,0.372v1.595c0,0.417-0.127,0.665-0.668,0.665
		c-0.473,0-0.566-0.335-0.552-0.526h0.226c-0.016,0.218,0.146,0.346,0.356,0.346c0.439,0,0.413-0.236,0.413-0.804h-0.008
		c-0.098,0.162-0.277,0.229-0.458,0.229c-0.544,0-0.582-0.47-0.582-0.89c0-0.439,0.004-0.443,0.057-0.646
		c0.019-0.079,0.15-0.376,0.533-0.376c0.191,0,0.383,0.098,0.466,0.267l0.007,0.008V135.312z M34.973,136.22
		c0,0.395,0,0.788,0.409,0.788c0.188,0,0.308-0.123,0.342-0.214c0.056-0.146,0.071-0.232,0.071-0.788
		c0-0.397-0.214-0.548-0.424-0.548C34.98,135.458,34.973,135.938,34.973,136.22z"/>
	<path style="fill:#6D6E71;" d="M36.532,134.786v-0.285h0.278v0.285H36.532z M36.559,137.211v-1.896h0.226v1.896H36.559z"/>
	<path style="fill:#6D6E71;" d="M37.819,137.248c-0.409,0-0.571-0.198-0.567-0.601h0.229c0,0.26,0.06,0.432,0.349,0.432
		c0.218,0,0.323-0.123,0.323-0.334c0-0.495-0.853-0.367-0.853-0.994c0-0.35,0.24-0.474,0.57-0.474c0.376,0,0.496,0.26,0.496,0.549
		h-0.222c-0.012-0.24-0.075-0.368-0.33-0.368c-0.162,0-0.289,0.105-0.289,0.274c0,0.473,0.852,0.345,0.852,0.979
		C38.378,137.068,38.172,137.248,37.819,137.248z"/>
	<path style="fill:#6D6E71;" d="M38.605,135.495v-0.18h0.305v-0.391l0.225-0.098v0.488h0.384v0.18h-0.384v1.217
		c0,0.251,0.026,0.312,0.207,0.312c0.075,0,0.128-0.004,0.177-0.012v0.195c-0.068,0.008-0.144,0.012-0.215,0.012
		c-0.304,0-0.394-0.136-0.394-0.368v-1.355H38.605z"/>
	<path style="fill:#6D6E71;" d="M39.994,136.311v0.146c0,0.263,0.071,0.612,0.428,0.612c0.282,0,0.421-0.181,0.417-0.436h0.236
		c-0.026,0.458-0.273,0.615-0.653,0.615c-0.326,0-0.652-0.131-0.652-0.705v-0.466c0-0.548,0.229-0.8,0.652-0.8
		c0.653,0,0.653,0.47,0.653,1.033H39.994z M40.85,136.13c0-0.421-0.067-0.672-0.428-0.672s-0.428,0.251-0.428,0.672H40.85z"/>
	<path style="fill:#6D6E71;" d="M41.723,135.57h0.008c0.094-0.18,0.293-0.293,0.521-0.293v0.229
		c-0.318-0.026-0.529,0.165-0.529,0.484v1.22h-0.225v-1.896h0.225V135.57z"/>
	<path style="fill:#6D6E71;" d="M42.702,136.311v0.146c0,0.263,0.071,0.612,0.428,0.612c0.282,0,0.421-0.181,0.417-0.436h0.236
		c-0.026,0.458-0.273,0.615-0.653,0.615c-0.326,0-0.653-0.131-0.653-0.705v-0.466c0-0.548,0.229-0.8,0.653-0.8
		c0.653,0,0.653,0.47,0.653,1.033H42.702z M43.559,136.13c0-0.421-0.068-0.672-0.429-0.672s-0.428,0.251-0.428,0.672H43.559z"/>
	<path style="fill:#6D6E71;" d="M45.186,136.971l-0.008,0.004c-0.116,0.18-0.259,0.273-0.48,0.273c-0.548,0-0.578-0.544-0.578-0.986
		c0-0.364,0-0.984,0.582-0.984c0.173,0,0.342,0.079,0.458,0.226l0.008,0.004v-1.006h0.225v2.335c0,0.188,0.012,0.312,0.023,0.375
		h-0.218L45.186,136.971z M45.175,136.434v-0.338c0-0.112,0-0.638-0.425-0.638c-0.405,0-0.405,0.368-0.405,0.811
		c0,0.706,0.169,0.8,0.413,0.8C44.972,137.068,45.175,136.896,45.175,136.434z"/>
	<path style="fill:#6D6E71;" d="M46.52,135.495v-0.18h0.304v-0.391l0.225-0.098v0.488h0.384v0.18h-0.384v1.217
		c0,0.251,0.026,0.312,0.207,0.312c0.075,0,0.128-0.004,0.177-0.012v0.195c-0.068,0.008-0.144,0.012-0.215,0.012
		c-0.304,0-0.394-0.136-0.394-0.368v-1.355H46.52z"/>
	<path style="fill:#6D6E71;" d="M47.971,135.57h0.008c0.094-0.18,0.293-0.293,0.521-0.293v0.229
		c-0.318-0.026-0.529,0.165-0.529,0.484v1.22h-0.225v-1.896h0.225V135.57z"/>
	<path style="fill:#6D6E71;" d="M49.754,136.979h-0.008c-0.12,0.18-0.304,0.27-0.537,0.27c-0.338,0-0.521-0.229-0.521-0.559
		c0-0.665,0.668-0.597,1.051-0.627v-0.158c0-0.277-0.082-0.446-0.383-0.446c-0.206,0-0.371,0.102-0.371,0.326h-0.24
		c0.019-0.363,0.3-0.507,0.63-0.507c0.192,0,0.59,0.02,0.59,0.504v0.953c0,0.135,0,0.255,0.022,0.477h-0.232V136.979z
		 M49.738,136.242c-0.322,0.012-0.811-0.026-0.811,0.436c0,0.214,0.109,0.391,0.342,0.391c0.259,0,0.469-0.232,0.469-0.48V136.242z"
		/>
	<path style="fill:#6D6E71;" d="M51.434,136.971l-0.008,0.004c-0.116,0.18-0.259,0.273-0.48,0.273c-0.548,0-0.578-0.544-0.578-0.986
		c0-0.364,0-0.984,0.582-0.984c0.173,0,0.342,0.079,0.458,0.226l0.008,0.004v-1.006h0.225v2.335c0,0.188,0.012,0.312,0.023,0.375
		h-0.218L51.434,136.971z M51.423,136.434v-0.338c0-0.112,0-0.638-0.425-0.638c-0.405,0-0.405,0.368-0.405,0.811
		c0,0.706,0.169,0.8,0.413,0.8C51.22,137.068,51.423,136.896,51.423,136.434z"/>
	<path style="fill:#6D6E71;" d="M52.28,136.311v0.146c0,0.263,0.071,0.612,0.428,0.612c0.282,0,0.421-0.181,0.417-0.436h0.236
		c-0.026,0.458-0.273,0.615-0.653,0.615c-0.326,0-0.653-0.131-0.653-0.705v-0.466c0-0.548,0.229-0.8,0.653-0.8
		c0.653,0,0.653,0.47,0.653,1.033H52.28z M53.137,136.13c0-0.421-0.068-0.672-0.429-0.672s-0.428,0.251-0.428,0.672H53.137z"/>
	<path style="fill:#6D6E71;" d="M53.99,137.211h-0.225v-1.899h0.202v0.236h0.008c0.09-0.153,0.24-0.271,0.45-0.271
		c0.195,0,0.368,0.109,0.432,0.297c0.094-0.188,0.256-0.297,0.466-0.297c0.315,0,0.48,0.218,0.491,0.522v1.411H55.59v-1.355
		c-0.004-0.188-0.071-0.397-0.293-0.397c-0.285,0-0.395,0.285-0.395,0.533v1.22h-0.225v-1.355c-0.004-0.188-0.071-0.397-0.293-0.397
		c-0.285,0-0.395,0.285-0.395,0.533V137.211z"/>
	<path style="fill:#6D6E71;" d="M57.25,136.979h-0.008c-0.12,0.18-0.304,0.27-0.537,0.27c-0.338,0-0.521-0.229-0.521-0.559
		c0-0.665,0.668-0.597,1.051-0.627v-0.158c0-0.277-0.082-0.446-0.383-0.446c-0.206,0-0.371,0.102-0.371,0.326h-0.24
		c0.019-0.363,0.3-0.507,0.63-0.507c0.192,0,0.59,0.02,0.59,0.504v0.953c0,0.135,0,0.255,0.022,0.477H57.25V136.979z
		 M57.234,136.242c-0.322,0.012-0.811-0.026-0.811,0.436c0,0.214,0.109,0.391,0.342,0.391c0.259,0,0.469-0.232,0.469-0.48V136.242z"
		/>
	<path style="fill:#6D6E71;" d="M58.175,135.57h0.008c0.094-0.18,0.293-0.293,0.521-0.293v0.229
		c-0.318-0.026-0.529,0.165-0.529,0.484v1.22H57.95v-1.896h0.225V135.57z"/>
	<path style="fill:#6D6E71;" d="M58.985,134.501h0.226v1.651h0.007l0.653-0.837h0.263l-0.672,0.845l0.717,1.051h-0.285l-0.676-1.032
		h-0.007v1.032h-0.226V134.501z"/>
	<path style="fill:#6D6E71;" d="M60.94,137.248c-0.409,0-0.571-0.198-0.567-0.601h0.229c0,0.26,0.06,0.432,0.349,0.432
		c0.218,0,0.323-0.123,0.323-0.334c0-0.495-0.853-0.367-0.853-0.994c0-0.35,0.24-0.474,0.57-0.474c0.376,0,0.496,0.26,0.496,0.549
		h-0.222c-0.012-0.24-0.075-0.368-0.33-0.368c-0.162,0-0.289,0.105-0.289,0.274c0,0.473,0.852,0.345,0.852,0.979
		C61.499,137.068,61.293,137.248,60.94,137.248z"/>
	<path style="fill:#6D6E71;" d="M62.68,136.468v-0.409c0-0.492,0.21-0.781,0.652-0.781c0.443,0,0.653,0.289,0.653,0.781v0.409
		c0,0.491-0.21,0.78-0.653,0.78C62.89,137.248,62.68,136.959,62.68,136.468z M62.904,136.262c0,0.495,0.057,0.807,0.428,0.807
		c0.372,0,0.428-0.312,0.428-0.807c0-0.492-0.056-0.804-0.428-0.804C62.961,135.458,62.904,135.77,62.904,136.262z"/>
	<path style="fill:#6D6E71;" d="M64.539,135.495h-0.304v-0.18h0.304v-0.319c0-0.18,0.026-0.511,0.484-0.511
		c0.034,0,0.071,0.008,0.128,0.016v0.188h-0.169c-0.218,0-0.218,0.195-0.218,0.304v0.323h0.383v0.18h-0.383v1.716h-0.226V135.495z"
		/>
	<path style="fill:#6D6E71;" d="M67.458,135.188c-0.008-0.334-0.09-0.536-0.458-0.536c-0.293,0-0.477,0.101-0.477,0.42
		c0,0.401,0.202,0.413,0.511,0.635c0.334,0.24,0.675,0.312,0.675,0.837c0,0.484-0.247,0.721-0.721,0.721
		c-0.529,0-0.766-0.285-0.743-0.814h0.248c0,0.3,0.022,0.611,0.507,0.611c0.315,0,0.469-0.169,0.469-0.48
		c0-0.367-0.243-0.473-0.634-0.713c-0.525-0.323-0.548-0.484-0.552-0.755c-0.004-0.469,0.293-0.664,0.735-0.664
		c0.563,0,0.684,0.349,0.684,0.739H67.458z"/>
	<path style="fill:#6D6E71;" d="M69.337,135.315v1.896h-0.195v-0.21h-0.008c-0.131,0.161-0.267,0.247-0.477,0.247
		c-0.391,0-0.499-0.285-0.499-0.593v-1.34h0.225v1.303c0,0.052-0.011,0.45,0.315,0.45c0.305,0,0.413-0.285,0.413-0.417v-1.336
		H69.337z"/>
	<path style="fill:#6D6E71;" d="M70.029,137.211h-0.225v-1.899h0.202v0.236h0.008c0.09-0.153,0.24-0.271,0.45-0.271
		c0.195,0,0.368,0.109,0.432,0.297c0.094-0.188,0.256-0.297,0.466-0.297c0.315,0,0.48,0.218,0.491,0.522v1.411h-0.225v-1.355
		c-0.004-0.188-0.071-0.397-0.293-0.397c-0.285,0-0.395,0.285-0.395,0.533v1.22h-0.225v-1.355c-0.004-0.188-0.071-0.397-0.293-0.397
		c-0.285,0-0.395,0.285-0.395,0.533V137.211z"/>
	<path style="fill:#6D6E71;" d="M72.357,134.786v-0.285h0.278v0.285H72.357z M72.384,137.211v-1.896h0.226v1.896H72.384z"/>
	<path style="fill:#6D6E71;" d="M72.973,135.495v-0.18h0.304v-0.391l0.225-0.098v0.488h0.384v0.18h-0.384v1.217
		c0,0.251,0.026,0.312,0.207,0.312c0.075,0,0.128-0.004,0.177-0.012v0.195c-0.068,0.008-0.144,0.012-0.215,0.012
		c-0.304,0-0.394-0.136-0.394-0.368v-1.355H72.973z"/>
	<path style="fill:#6D6E71;" d="M74.135,136.468v-0.409c0-0.492,0.211-0.781,0.653-0.781c0.443,0,0.653,0.289,0.653,0.781v0.409
		c0,0.491-0.21,0.78-0.653,0.78C74.346,137.248,74.135,136.959,74.135,136.468z M74.36,136.262c0,0.495,0.057,0.807,0.428,0.807
		c0.372,0,0.429-0.312,0.429-0.807c0-0.492-0.057-0.804-0.429-0.804C74.417,135.458,74.36,135.77,74.36,136.262z"/>
	<path style="fill:#6D6E71;" d="M76.07,137.211h-0.225v-1.899h0.202v0.236h0.008c0.09-0.153,0.24-0.271,0.45-0.271
		c0.195,0,0.368,0.109,0.432,0.297c0.094-0.188,0.256-0.297,0.466-0.297c0.315,0,0.48,0.218,0.491,0.522v1.411H77.67v-1.355
		c-0.004-0.188-0.071-0.397-0.293-0.397c-0.285,0-0.395,0.285-0.395,0.533v1.22h-0.225v-1.355c-0.004-0.188-0.071-0.397-0.293-0.397
		c-0.285,0-0.395,0.285-0.395,0.533V137.211z"/>
	<path style="fill:#6D6E71;" d="M78.301,136.468v-0.409c0-0.492,0.211-0.781,0.653-0.781c0.443,0,0.653,0.289,0.653,0.781v0.409
		c0,0.491-0.21,0.78-0.653,0.78C78.512,137.248,78.301,136.959,78.301,136.468z M78.526,136.262c0,0.495,0.057,0.807,0.428,0.807
		c0.372,0,0.429-0.312,0.429-0.807c0-0.492-0.057-0.804-0.429-0.804C78.583,135.458,78.526,135.77,78.526,136.262z"/>
	<path style="fill:#6D6E71;" d="M80.899,134.501h0.717c0.759,0,0.853,0.442,0.853,1.366c0,0.9-0.132,1.344-0.949,1.344h-0.62
		V134.501z M81.14,137.008h0.293c0.725,0,0.796-0.194,0.796-1.302c0-0.777-0.105-1.003-0.773-1.003H81.14V137.008z"/>
	<path style="fill:#6D6E71;" d="M83.912,136.979h-0.008c-0.12,0.18-0.304,0.27-0.537,0.27c-0.338,0-0.521-0.229-0.521-0.559
		c0-0.665,0.668-0.597,1.051-0.627v-0.158c0-0.277-0.082-0.446-0.383-0.446c-0.206,0-0.371,0.102-0.371,0.326h-0.24
		c0.019-0.363,0.3-0.507,0.63-0.507c0.192,0,0.59,0.02,0.59,0.504v0.953c0,0.135,0,0.255,0.022,0.477h-0.232V136.979z
		 M83.896,136.242c-0.322,0.012-0.811-0.026-0.811,0.436c0,0.214,0.109,0.391,0.342,0.391c0.259,0,0.469-0.232,0.469-0.48V136.242z"
		/>
	<path style="fill:#6D6E71;" d="M84.646,134.786v-0.285h0.278v0.285H84.646z M84.672,137.211v-1.896h0.226v1.896H84.672z"/>
	<path style="fill:#6D6E71;" d="M85.654,137.211h-0.226v-1.896h0.226v0.232h0.008c0.108-0.157,0.255-0.271,0.458-0.271
		c0.469,0,0.518,0.35,0.518,0.598v1.336h-0.225v-1.325c0-0.222-0.087-0.428-0.35-0.428c-0.202,0-0.409,0.139-0.409,0.563V137.211z"
		/>
	<path style="fill:#6D6E71;" d="M87.143,134.786v-0.285h0.278v0.285H87.143z M87.169,137.211v-1.896h0.226v1.896H87.169z"/>
	<path style="fill:#6D6E71;" d="M88.151,135.544l0.008-0.003c0.12-0.185,0.308-0.264,0.458-0.264c0.593,0,0.597,0.519,0.597,0.767
		v0.424c0,0.491-0.169,0.78-0.653,0.78c-0.139,0-0.277-0.067-0.395-0.247l-0.007-0.004v0.931h-0.226v-2.612h0.218V135.544z
		 M88.159,136.43c0,0.433,0.195,0.639,0.401,0.639c0.372,0,0.428-0.312,0.428-0.807c0-0.492-0.056-0.804-0.428-0.804
		c-0.146,0-0.401,0.165-0.401,0.635V136.43z"/>
	<path style="fill:#6D6E71;" d="M89.816,135.544l0.008-0.003c0.12-0.185,0.308-0.264,0.458-0.264c0.593,0,0.597,0.519,0.597,0.767
		v0.424c0,0.491-0.169,0.78-0.653,0.78c-0.139,0-0.277-0.067-0.395-0.247l-0.007-0.004v0.931h-0.226v-2.612h0.218V135.544z
		 M89.824,136.43c0,0.433,0.195,0.639,0.401,0.639c0.372,0,0.428-0.312,0.428-0.807c0-0.492-0.056-0.804-0.428-0.804
		c-0.146,0-0.401,0.165-0.401,0.635V136.43z"/>
	<path style="fill:#6D6E71;" d="M91.207,136.468v-0.409c0-0.492,0.211-0.781,0.653-0.781c0.443,0,0.653,0.289,0.653,0.781v0.409
		c0,0.491-0.21,0.78-0.653,0.78C91.418,137.248,91.207,136.959,91.207,136.468z M91.433,136.262c0,0.495,0.057,0.807,0.428,0.807
		c0.372,0,0.429-0.312,0.429-0.807c0-0.492-0.057-0.804-0.429-0.804C91.489,135.458,91.433,135.77,91.433,136.262z"/>
	<path style="fill:#6D6E71;" d="M93.146,137.211h-0.226v-1.896h0.226v0.232h0.008c0.108-0.157,0.255-0.271,0.458-0.271
		c0.469,0,0.518,0.35,0.518,0.598v1.336h-0.225v-1.325c0-0.222-0.087-0.428-0.35-0.428c-0.202,0-0.409,0.139-0.409,0.563V137.211z"
		/>
	<path style="fill:#6D6E71;" d="M95.43,134.501h0.743c0.226,0,0.597,0.03,0.597,0.656c0,0.545-0.176,0.792-0.642,0.792H95.67v1.262
		h-0.24V134.501z M95.67,135.747h0.446c0.252,0,0.413-0.12,0.413-0.544c0-0.462-0.199-0.5-0.416-0.5H95.67V135.747z"/>
	<path style="fill:#6D6E71;" d="M97.083,137.211v-2.71h0.226v1.047h0.008c0.108-0.157,0.255-0.271,0.458-0.271
		c0.469,0,0.518,0.35,0.518,0.598v1.336h-0.225v-1.325c0-0.222-0.087-0.428-0.35-0.428c-0.202,0-0.409,0.139-0.409,0.563v1.189
		H97.083z"/>
	<path style="fill:#6D6E71;" d="M99.729,136.979h-0.008c-0.12,0.18-0.304,0.27-0.537,0.27c-0.338,0-0.521-0.229-0.521-0.559
		c0-0.665,0.668-0.597,1.051-0.627v-0.158c0-0.277-0.082-0.446-0.383-0.446c-0.206,0-0.371,0.102-0.371,0.326h-0.24
		c0.019-0.363,0.3-0.507,0.63-0.507c0.192,0,0.59,0.02,0.59,0.504v0.953c0,0.135,0,0.255,0.022,0.477h-0.232V136.979z
		 M99.713,136.242c-0.322,0.012-0.811-0.026-0.811,0.436c0,0.214,0.109,0.391,0.342,0.391c0.259,0,0.469-0.232,0.469-0.48V136.242z"
		/>
	<path style="fill:#6D6E71;" d="M100.653,135.57h0.008c0.094-0.18,0.293-0.293,0.521-0.293v0.229
		c-0.318-0.026-0.529,0.165-0.529,0.484v1.22h-0.225v-1.896h0.225V135.57z"/>
	<path style="fill:#6D6E71;" d="M101.678,137.211h-0.225v-1.899h0.202v0.236h0.008c0.09-0.153,0.24-0.271,0.45-0.271
		c0.195,0,0.368,0.109,0.432,0.297c0.094-0.188,0.256-0.297,0.466-0.297c0.315,0,0.48,0.218,0.491,0.522v1.411h-0.225v-1.355
		c-0.004-0.188-0.071-0.397-0.293-0.397c-0.285,0-0.395,0.285-0.395,0.533v1.22h-0.225v-1.355c-0.004-0.188-0.071-0.397-0.293-0.397
		c-0.285,0-0.395,0.285-0.395,0.533V137.211z"/>
	<path style="fill:#6D6E71;" d="M104.938,136.979h-0.008c-0.12,0.18-0.304,0.27-0.537,0.27c-0.338,0-0.521-0.229-0.521-0.559
		c0-0.665,0.668-0.597,1.051-0.627v-0.158c0-0.277-0.082-0.446-0.383-0.446c-0.206,0-0.371,0.102-0.371,0.326h-0.24
		c0.019-0.363,0.3-0.507,0.63-0.507c0.192,0,0.59,0.02,0.59,0.504v0.953c0,0.135,0,0.255,0.022,0.477h-0.232V136.979z
		 M104.922,136.242c-0.322,0.012-0.811-0.026-0.811,0.436c0,0.214,0.109,0.391,0.342,0.391c0.259,0,0.469-0.232,0.469-0.48V136.242z
		"/>
	<path style="fill:#6D6E71;" d="M106.439,135.855c0-0.731,0.008-1.407,0.818-1.407c0.657,0,0.668,0.54,0.668,0.784h-0.24
		c0-0.3-0.082-0.581-0.428-0.581c-0.57,0-0.578,0.483-0.578,1.204s0.008,1.205,0.578,1.205c0.312,0,0.428-0.277,0.432-0.627h0.255
		c0,0.195-0.045,0.83-0.687,0.83C106.447,137.264,106.439,136.588,106.439,135.855z"/>
	<path style="fill:#6D6E71;" d="M108.281,136.468v-0.409c0-0.492,0.21-0.781,0.652-0.781c0.443,0,0.653,0.289,0.653,0.781v0.409
		c0,0.491-0.21,0.78-0.653,0.78C108.491,137.248,108.281,136.959,108.281,136.468z M108.506,136.262
		c0,0.495,0.057,0.807,0.428,0.807c0.372,0,0.428-0.312,0.428-0.807c0-0.492-0.056-0.804-0.428-0.804
		C108.562,135.458,108.506,135.77,108.506,136.262z"/>
	<path style="fill:#6D6E71;" d="M110.043,136.926h0.278v0.285h-0.278V136.926z"/>
	<path style="fill:#6D6E71;" d="M110.95,136.926h0.274l-0.226,0.68h-0.198L110.95,136.926z"/>
	<path style="fill:#6D6E71;" d="M112.514,137.211v-2.71h0.24v2.507h0.896v0.203H112.514z"/>
	<path style="fill:#6D6E71;" d="M113.781,135.495v-0.18h0.304v-0.391l0.225-0.098v0.488h0.384v0.18h-0.384v1.217
		c0,0.251,0.026,0.312,0.207,0.312c0.075,0,0.128-0.004,0.177-0.012v0.195c-0.068,0.008-0.144,0.012-0.215,0.012
		c-0.304,0-0.394-0.136-0.394-0.368v-1.355H113.781z"/>
	<path style="fill:#6D6E71;" d="M115.987,136.971l-0.008,0.004c-0.116,0.18-0.259,0.273-0.48,0.273
		c-0.548,0-0.578-0.544-0.578-0.986c0-0.364,0-0.984,0.582-0.984c0.173,0,0.342,0.079,0.458,0.226l0.008,0.004v-1.006h0.225v2.335
		c0,0.188,0.012,0.312,0.023,0.375h-0.218L115.987,136.971z M115.977,136.434v-0.338c0-0.112,0-0.638-0.425-0.638
		c-0.405,0-0.405,0.368-0.405,0.811c0,0.706,0.169,0.8,0.413,0.8C115.773,137.068,115.977,136.896,115.977,136.434z"/>
	<path style="fill:#6D6E71;" d="M116.706,136.926h0.278v0.285h-0.278V136.926z"/>
	<path style="fill:#6D6E71;" d="M1.389,139.688c-0.008-0.334-0.09-0.536-0.458-0.536c-0.293,0-0.477,0.101-0.477,0.42
		c0,0.401,0.202,0.413,0.511,0.635c0.334,0.24,0.675,0.312,0.675,0.837c0,0.484-0.247,0.721-0.721,0.721
		c-0.528,0-0.766-0.285-0.743-0.814h0.248c0,0.3,0.022,0.611,0.507,0.611c0.315,0,0.469-0.169,0.469-0.48
		c0-0.367-0.243-0.473-0.634-0.713c-0.525-0.323-0.548-0.484-0.552-0.755c-0.004-0.469,0.293-0.664,0.735-0.664
		c0.563,0,0.684,0.349,0.684,0.739H1.389z"/>
	<path style="fill:#6D6E71;" d="M3.268,139.815v1.896H3.072v-0.21H3.064c-0.131,0.161-0.267,0.247-0.477,0.247
		c-0.391,0-0.499-0.285-0.499-0.593v-1.34h0.225v1.303c0,0.052-0.011,0.45,0.315,0.45c0.305,0,0.413-0.285,0.413-0.417v-1.336H3.268
		z"/>
	<path style="fill:#6D6E71;" d="M3.964,141.711H3.738v-1.896h0.226v0.232h0.008c0.108-0.157,0.255-0.271,0.458-0.271
		c0.469,0,0.518,0.35,0.518,0.598v1.336H4.723v-1.325c0-0.222-0.087-0.428-0.35-0.428c-0.203,0-0.409,0.139-0.409,0.563V141.711z"/>
	<path style="fill:#6D6E71;" d="M5.355,140.968v-0.409c0-0.492,0.21-0.781,0.652-0.781c0.443,0,0.653,0.289,0.653,0.781v0.409
		c0,0.491-0.21,0.78-0.653,0.78C5.565,141.748,5.355,141.459,5.355,140.968z M5.58,140.762c0,0.495,0.057,0.807,0.428,0.807
		c0.372,0,0.428-0.312,0.428-0.807c0-0.492-0.056-0.804-0.428-0.804C5.637,139.958,5.58,140.27,5.58,140.762z"/>
	<path style="fill:#6D6E71;" d="M7.575,141.426h0.008l0.462-1.61h0.218l-0.563,1.896H7.44l-0.563-1.896h0.244L7.575,141.426z"/>
	<path style="fill:#6D6E71;" d="M8.576,139.286v-0.285h0.278v0.285H8.576z M8.603,141.711v-1.896h0.226v1.896H8.603z"/>
	<path style="fill:#6D6E71;" d="M9.311,140.968v-0.409c0-0.492,0.211-0.781,0.653-0.781c0.443,0,0.653,0.289,0.653,0.781v0.409
		c0,0.491-0.21,0.78-0.653,0.78C9.521,141.748,9.311,141.459,9.311,140.968z M9.536,140.762c0,0.495,0.057,0.807,0.428,0.807
		c0.372,0,0.429-0.312,0.429-0.807c0-0.492-0.057-0.804-0.429-0.804C9.593,139.958,9.536,140.27,9.536,140.762z"/>
	<path style="fill:#6D6E71;" d="M11.25,141.711h-0.226v-1.896h0.226v0.232h0.008c0.108-0.157,0.255-0.271,0.458-0.271
		c0.469,0,0.518,0.35,0.518,0.598v1.336h-0.225v-1.325c0-0.222-0.087-0.428-0.35-0.428c-0.202,0-0.409,0.139-0.409,0.563V141.711z"
		/>
	<path style="fill:#6D6E71;" d="M13.533,139.001h0.743c0.226,0,0.597,0.03,0.597,0.656c0,0.545-0.176,0.792-0.642,0.792h-0.458
		v1.262h-0.24V139.001z M13.773,140.247h0.446c0.252,0,0.413-0.12,0.413-0.544c0-0.462-0.199-0.5-0.416-0.5h-0.443V140.247z"/>
	<path style="fill:#6D6E71;" d="M15.187,141.711v-2.71h0.226v1.047h0.008c0.108-0.157,0.255-0.271,0.458-0.271
		c0.469,0,0.518,0.35,0.518,0.598v1.336h-0.225v-1.325c0-0.222-0.087-0.428-0.35-0.428c-0.202,0-0.409,0.139-0.409,0.563v1.189
		H15.187z"/>
	<path style="fill:#6D6E71;" d="M17.832,141.479h-0.008c-0.12,0.18-0.304,0.27-0.537,0.27c-0.338,0-0.521-0.229-0.521-0.559
		c0-0.665,0.668-0.597,1.051-0.627v-0.158c0-0.277-0.082-0.446-0.383-0.446c-0.206,0-0.371,0.102-0.371,0.326h-0.24
		c0.019-0.363,0.3-0.507,0.63-0.507c0.192,0,0.59,0.02,0.59,0.504v0.953c0,0.135,0,0.255,0.022,0.477h-0.232V141.479z
		 M17.816,140.742c-0.322,0.012-0.811-0.026-0.811,0.436c0,0.214,0.109,0.391,0.342,0.391c0.259,0,0.469-0.232,0.469-0.48V140.742z"
		/>
	<path style="fill:#6D6E71;" d="M18.757,140.07h0.008c0.094-0.18,0.293-0.293,0.521-0.293v0.229
		c-0.318-0.026-0.529,0.165-0.529,0.484v1.22h-0.225v-1.896h0.225V140.07z"/>
	<path style="fill:#6D6E71;" d="M19.781,141.711h-0.225v-1.899h0.202v0.236h0.008c0.09-0.153,0.24-0.271,0.45-0.271
		c0.195,0,0.368,0.109,0.432,0.297c0.094-0.188,0.256-0.297,0.466-0.297c0.315,0,0.48,0.218,0.491,0.522v1.411h-0.225v-1.355
		c-0.004-0.188-0.071-0.397-0.293-0.397c-0.285,0-0.395,0.285-0.395,0.533v1.22h-0.225v-1.355c-0.004-0.188-0.071-0.397-0.293-0.397
		c-0.285,0-0.395,0.285-0.395,0.533V141.711z"/>
	<path style="fill:#6D6E71;" d="M23.041,141.479h-0.008c-0.12,0.18-0.304,0.27-0.537,0.27c-0.338,0-0.521-0.229-0.521-0.559
		c0-0.665,0.668-0.597,1.051-0.627v-0.158c0-0.277-0.082-0.446-0.383-0.446c-0.206,0-0.371,0.102-0.371,0.326h-0.24
		c0.019-0.363,0.3-0.507,0.63-0.507c0.192,0,0.59,0.02,0.59,0.504v0.953c0,0.135,0,0.255,0.022,0.477h-0.232V141.479z
		 M23.025,140.742c-0.322,0.012-0.811-0.026-0.811,0.436c0,0.214,0.109,0.391,0.342,0.391c0.259,0,0.469-0.232,0.469-0.48V140.742z"
		/>
	<path style="fill:#6D6E71;" d="M24.57,140.359c0.012-0.236-0.075-0.401-0.334-0.401c-0.139,0-0.255,0.079-0.304,0.218
		c-0.03,0.086-0.053,0.346-0.053,0.597c0,0.342,0,0.796,0.35,0.796c0.296,0,0.334-0.188,0.345-0.417H24.8
		c0.019,0.511-0.342,0.597-0.519,0.597c-0.642,0-0.642-0.506-0.642-0.976c0-0.188,0.008-0.484,0.057-0.627
		c0.098-0.271,0.312-0.368,0.57-0.368c0.326,0,0.548,0.185,0.529,0.582H24.57z"/>
	<path style="fill:#6D6E71;" d="M25.361,140.811v0.146c0,0.263,0.071,0.612,0.428,0.612c0.282,0,0.421-0.181,0.417-0.436h0.236
		c-0.026,0.458-0.273,0.615-0.653,0.615c-0.326,0-0.652-0.131-0.652-0.705v-0.466c0-0.548,0.229-0.8,0.652-0.8
		c0.653,0,0.653,0.47,0.653,1.033H25.361z M26.217,140.63c0-0.421-0.067-0.672-0.428-0.672s-0.428,0.251-0.428,0.672H26.217z"/>
	<path style="fill:#6D6E71;" d="M28.044,139.815v1.896h-0.195v-0.21h-0.008c-0.131,0.161-0.267,0.247-0.477,0.247
		c-0.391,0-0.499-0.285-0.499-0.593v-1.34h0.225v1.303c0,0.052-0.011,0.45,0.315,0.45c0.305,0,0.413-0.285,0.413-0.417v-1.336
		H28.044z"/>
	<path style="fill:#6D6E71;" d="M28.346,139.995v-0.18h0.305v-0.391l0.225-0.098v0.488h0.384v0.18h-0.384v1.217
		c0,0.251,0.026,0.312,0.207,0.312c0.075,0,0.128-0.004,0.177-0.012v0.195c-0.068,0.008-0.144,0.012-0.215,0.012
		c-0.304,0-0.394-0.136-0.394-0.368v-1.355H28.346z"/>
	<path style="fill:#6D6E71;" d="M29.606,139.286v-0.285h0.278v0.285H29.606z M29.633,141.711v-1.896h0.226v1.896H29.633z"/>
	<path style="fill:#6D6E71;" d="M31.234,140.359c0.012-0.236-0.075-0.401-0.334-0.401c-0.139,0-0.255,0.079-0.304,0.218
		c-0.03,0.086-0.053,0.346-0.053,0.597c0,0.342,0,0.796,0.35,0.796c0.296,0,0.334-0.188,0.345-0.417h0.226
		c0.019,0.511-0.342,0.597-0.519,0.597c-0.642,0-0.642-0.506-0.642-0.976c0-0.188,0.008-0.484,0.057-0.627
		c0.098-0.271,0.312-0.368,0.57-0.368c0.326,0,0.548,0.185,0.529,0.582H31.234z"/>
	<path style="fill:#6D6E71;" d="M32.829,141.479h-0.008c-0.12,0.18-0.304,0.27-0.537,0.27c-0.338,0-0.521-0.229-0.521-0.559
		c0-0.665,0.668-0.597,1.051-0.627v-0.158c0-0.277-0.082-0.446-0.383-0.446c-0.206,0-0.371,0.102-0.371,0.326h-0.24
		c0.019-0.363,0.3-0.507,0.63-0.507c0.191,0,0.59,0.02,0.59,0.504v0.953c0,0.135,0,0.255,0.022,0.477h-0.232V141.479z
		 M32.813,140.742c-0.322,0.012-0.811-0.026-0.811,0.436c0,0.214,0.109,0.391,0.342,0.391c0.259,0,0.469-0.232,0.469-0.48V140.742z"
		/>
	<path style="fill:#6D6E71;" d="M33.589,141.711v-2.71h0.226v2.71H33.589z"/>
	<path style="fill:#6D6E71;" d="M34.85,141.748c-0.409,0-0.571-0.198-0.567-0.601h0.229c0,0.26,0.06,0.432,0.349,0.432
		c0.218,0,0.323-0.123,0.323-0.334c0-0.495-0.853-0.367-0.853-0.994c0-0.35,0.24-0.474,0.57-0.474c0.376,0,0.496,0.26,0.496,0.549
		h-0.222c-0.012-0.24-0.075-0.368-0.33-0.368c-0.162,0-0.289,0.105-0.289,0.274c0,0.473,0.852,0.345,0.852,0.979
		C35.408,141.568,35.202,141.748,34.85,141.748z"/>
	<path style="fill:#6D6E71;" d="M36.945,139.001v2.71h-0.24v-2.71H36.945z"/>
	<path style="fill:#6D6E71;" d="M37.694,141.711h-0.226v-1.896h0.226v0.232h0.008c0.108-0.157,0.255-0.271,0.458-0.271
		c0.469,0,0.518,0.35,0.518,0.598v1.336h-0.225v-1.325c0-0.222-0.087-0.428-0.35-0.428c-0.203,0-0.409,0.139-0.409,0.563V141.711z"
		/>
	<path style="fill:#6D6E71;" d="M39.979,140.359c0.012-0.236-0.075-0.401-0.334-0.401c-0.139,0-0.255,0.079-0.304,0.218
		c-0.03,0.086-0.053,0.346-0.053,0.597c0,0.342,0,0.796,0.35,0.796c0.296,0,0.334-0.188,0.345-0.417h0.226
		c0.019,0.511-0.342,0.597-0.519,0.597c-0.642,0-0.642-0.506-0.642-0.976c0-0.188,0.008-0.484,0.057-0.627
		c0.098-0.271,0.312-0.368,0.57-0.368c0.326,0,0.548,0.185,0.529,0.582H39.979z"/>
	<path style="fill:#6D6E71;" d="M40.642,141.426h0.278v0.285h-0.278V141.426z"/>
	<path style="fill:#6D6E71;" d="M42.306,139.286v-0.285h0.278v0.285H42.306z M42.332,141.711v-1.896h0.226v1.896H42.332z"/>
	<path style="fill:#6D6E71;" d="M43.593,141.748c-0.409,0-0.571-0.198-0.567-0.601h0.229c0,0.26,0.06,0.432,0.349,0.432
		c0.218,0,0.323-0.123,0.323-0.334c0-0.495-0.853-0.367-0.853-0.994c0-0.35,0.24-0.474,0.57-0.474c0.376,0,0.496,0.26,0.496,0.549
		h-0.222c-0.012-0.24-0.075-0.368-0.33-0.368c-0.162,0-0.289,0.105-0.289,0.274c0,0.473,0.852,0.345,0.852,0.979
		C44.151,141.568,43.945,141.748,43.593,141.748z"/>
	<path style="fill:#6D6E71;" d="M46.36,141.479h-0.008c-0.12,0.18-0.304,0.27-0.537,0.27c-0.338,0-0.521-0.229-0.521-0.559
		c0-0.665,0.668-0.597,1.051-0.627v-0.158c0-0.277-0.082-0.446-0.383-0.446c-0.206,0-0.371,0.102-0.371,0.326h-0.24
		c0.019-0.363,0.3-0.507,0.63-0.507c0.191,0,0.59,0.02,0.59,0.504v0.953c0,0.135,0,0.255,0.022,0.477H46.36V141.479z
		 M46.345,140.742c-0.322,0.012-0.811-0.026-0.811,0.436c0,0.214,0.109,0.391,0.342,0.391c0.259,0,0.469-0.232,0.469-0.48V140.742z"
		/>
	<path style="fill:#6D6E71;" d="M48.141,140.705c0,0.353,0,0.855,0.552,0.855s0.552-0.503,0.552-0.855v-1.704h0.24v1.881
		c0,0.697-0.368,0.882-0.792,0.882c-0.425,0-0.792-0.185-0.792-0.882v-1.881h0.24V140.705z"/>
	<path style="fill:#6D6E71;" d="M50.011,141.426h0.278v0.285h-0.278V141.426z"/>
	<path style="fill:#6D6E71;" d="M51.984,139.688c-0.008-0.334-0.09-0.536-0.458-0.536c-0.293,0-0.477,0.101-0.477,0.42
		c0,0.401,0.202,0.413,0.511,0.635c0.334,0.24,0.675,0.312,0.675,0.837c0,0.484-0.247,0.721-0.721,0.721
		c-0.528,0-0.766-0.285-0.743-0.814h0.248c0,0.3,0.022,0.611,0.507,0.611c0.315,0,0.469-0.169,0.469-0.48
		c0-0.367-0.243-0.473-0.634-0.713c-0.525-0.323-0.548-0.484-0.552-0.755c-0.004-0.469,0.293-0.664,0.735-0.664
		c0.563,0,0.684,0.349,0.684,0.739H51.984z"/>
	<path style="fill:#6D6E71;" d="M52.718,141.426h0.278v0.285h-0.278V141.426z"/>
	<path style="fill:#6D6E71;" d="M54.837,141.748c-0.409,0-0.571-0.198-0.567-0.601h0.229c0,0.26,0.06,0.432,0.349,0.432
		c0.218,0,0.323-0.123,0.323-0.334c0-0.495-0.853-0.367-0.853-0.994c0-0.35,0.24-0.474,0.57-0.474c0.376,0,0.496,0.26,0.496,0.549
		h-0.222c-0.012-0.24-0.075-0.368-0.33-0.368c-0.162,0-0.289,0.105-0.289,0.274c0,0.473,0.852,0.345,0.852,0.979
		C55.396,141.568,55.189,141.748,54.837,141.748z"/>
	<path style="fill:#6D6E71;" d="M56.986,139.815v1.896h-0.195v-0.21h-0.008c-0.131,0.161-0.267,0.247-0.477,0.247
		c-0.391,0-0.499-0.285-0.499-0.593v-1.34h0.225v1.303c0,0.052-0.011,0.45,0.315,0.45c0.305,0,0.413-0.285,0.413-0.417v-1.336
		H56.986z"/>
	<path style="fill:#6D6E71;" d="M57.442,141.711c0.012-0.063,0.022-0.124,0.022-0.188v-2.522h0.226v1.028l0.007,0.008
		c0.117-0.181,0.267-0.26,0.48-0.26c0.616,0,0.567,0.646,0.567,0.984c0,0.416-0.034,0.986-0.586,0.986
		c-0.222,0-0.383-0.09-0.477-0.266h-0.008v0.229H57.442z M58.092,141.568c0.417,0,0.428-0.356,0.428-0.8
		c0-0.442-0.011-0.811-0.428-0.811c-0.364,0-0.409,0.491-0.409,0.777C57.683,141.035,57.683,141.568,58.092,141.568z"/>
	<path style="fill:#6D6E71;" d="M59.626,141.748c-0.409,0-0.571-0.198-0.567-0.601h0.229c0,0.26,0.06,0.432,0.349,0.432
		c0.218,0,0.323-0.123,0.323-0.334c0-0.495-0.853-0.367-0.853-0.994c0-0.35,0.24-0.474,0.57-0.474c0.376,0,0.496,0.26,0.496,0.549
		h-0.222c-0.012-0.24-0.075-0.368-0.33-0.368c-0.162,0-0.289,0.105-0.289,0.274c0,0.473,0.852,0.345,0.852,0.979
		C60.185,141.568,59.979,141.748,59.626,141.748z"/>
	<path style="fill:#6D6E71;" d="M60.63,139.286v-0.285h0.278v0.285H60.63z M60.656,141.711v-1.896h0.226v1.896H60.656z"/>
	<path style="fill:#6D6E71;" d="M62.408,141.471l-0.008,0.004c-0.116,0.18-0.259,0.273-0.48,0.273c-0.548,0-0.578-0.544-0.578-0.986
		c0-0.364,0-0.984,0.582-0.984c0.173,0,0.342,0.079,0.458,0.226l0.008,0.004v-1.006h0.225v2.335c0,0.188,0.012,0.312,0.023,0.375
		H62.42L62.408,141.471z M62.397,140.934v-0.338c0-0.112,0-0.638-0.425-0.638c-0.405,0-0.405,0.368-0.405,0.811
		c0,0.706,0.169,0.8,0.413,0.8C62.194,141.568,62.397,141.396,62.397,140.934z"/>
	<path style="fill:#6D6E71;" d="M63.127,139.286v-0.285h0.278v0.285H63.127z M63.153,141.711v-1.896h0.226v1.896H63.153z"/>
	<path style="fill:#6D6E71;" d="M64.891,141.479h-0.008c-0.12,0.18-0.304,0.27-0.537,0.27c-0.338,0-0.521-0.229-0.521-0.559
		c0-0.665,0.668-0.597,1.051-0.627v-0.158c0-0.277-0.082-0.446-0.383-0.446c-0.206,0-0.371,0.102-0.371,0.326h-0.24
		c0.019-0.363,0.3-0.507,0.63-0.507c0.192,0,0.59,0.02,0.59,0.504v0.953c0,0.135,0,0.255,0.022,0.477h-0.232V141.479z
		 M64.875,140.742c-0.322,0.012-0.811-0.026-0.811,0.436c0,0.214,0.109,0.391,0.342,0.391c0.259,0,0.469-0.232,0.469-0.48V140.742z"
		/>
	<path style="fill:#6D6E71;" d="M65.815,140.07h0.008c0.094-0.18,0.293-0.293,0.521-0.293v0.229
		c-0.318-0.026-0.529,0.165-0.529,0.484v1.22h-0.225v-1.896h0.225V140.07z"/>
	<path style="fill:#6D6E71;" d="M67.027,141.715l-0.601-1.899h0.244l0.462,1.554h0.008l0.446-1.554h0.226l-0.785,2.612h-0.221
		L67.027,141.715z"/>
	<path style="fill:#6D6E71;" d="M68.861,140.968v-0.409c0-0.492,0.21-0.781,0.652-0.781c0.443,0,0.653,0.289,0.653,0.781v0.409
		c0,0.491-0.21,0.78-0.653,0.78C69.071,141.748,68.861,141.459,68.861,140.968z M69.086,140.762c0,0.495,0.057,0.807,0.428,0.807
		c0.372,0,0.428-0.312,0.428-0.807c0-0.492-0.056-0.804-0.428-0.804C69.143,139.958,69.086,140.27,69.086,140.762z"/>
	<path style="fill:#6D6E71;" d="M70.721,139.995h-0.304v-0.18h0.304v-0.319c0-0.18,0.026-0.511,0.484-0.511
		c0.034,0,0.071,0.008,0.128,0.016v0.188h-0.169c-0.218,0-0.218,0.195-0.218,0.304v0.323h0.383v0.18h-0.383v1.716h-0.226V139.995z"
		/>
	<path style="fill:#6D6E71;" d="M73.64,139.688c-0.008-0.334-0.09-0.536-0.458-0.536c-0.293,0-0.477,0.101-0.477,0.42
		c0,0.401,0.202,0.413,0.511,0.635c0.334,0.24,0.675,0.312,0.675,0.837c0,0.484-0.247,0.721-0.721,0.721
		c-0.529,0-0.766-0.285-0.743-0.814h0.248c0,0.3,0.022,0.611,0.507,0.611c0.315,0,0.469-0.169,0.469-0.48
		c0-0.367-0.243-0.473-0.634-0.713c-0.525-0.323-0.548-0.484-0.552-0.755c-0.004-0.469,0.293-0.664,0.735-0.664
		c0.563,0,0.684,0.349,0.684,0.739H73.64z"/>
	<path style="fill:#6D6E71;" d="M75.519,139.815v1.896h-0.195v-0.21h-0.008c-0.131,0.161-0.267,0.247-0.477,0.247
		c-0.391,0-0.499-0.285-0.499-0.593v-1.34h0.225v1.303c0,0.052-0.011,0.45,0.315,0.45c0.305,0,0.413-0.285,0.413-0.417v-1.336
		H75.519z"/>
	<path style="fill:#6D6E71;" d="M76.211,141.711h-0.225v-1.899h0.202v0.236h0.008c0.09-0.153,0.24-0.271,0.45-0.271
		c0.195,0,0.368,0.109,0.432,0.297c0.094-0.188,0.256-0.297,0.466-0.297c0.315,0,0.48,0.218,0.491,0.522v1.411h-0.225v-1.355
		c-0.004-0.188-0.071-0.397-0.293-0.397c-0.285,0-0.395,0.285-0.395,0.533v1.22h-0.225v-1.355c-0.004-0.188-0.071-0.397-0.293-0.397
		c-0.285,0-0.395,0.285-0.395,0.533V141.711z"/>
	<path style="fill:#6D6E71;" d="M78.539,139.286v-0.285h0.278v0.285H78.539z M78.565,141.711v-1.896h0.226v1.896H78.565z"/>
	<path style="fill:#6D6E71;" d="M79.154,139.995v-0.18h0.304v-0.391l0.225-0.098v0.488h0.384v0.18h-0.384v1.217
		c0,0.251,0.026,0.312,0.207,0.312c0.075,0,0.128-0.004,0.177-0.012v0.195c-0.068,0.008-0.144,0.012-0.215,0.012
		c-0.304,0-0.394-0.136-0.394-0.368v-1.355H79.154z"/>
	<path style="fill:#6D6E71;" d="M80.316,140.968v-0.409c0-0.492,0.211-0.781,0.653-0.781c0.443,0,0.653,0.289,0.653,0.781v0.409
		c0,0.491-0.21,0.78-0.653,0.78C80.527,141.748,80.316,141.459,80.316,140.968z M80.542,140.762c0,0.495,0.057,0.807,0.428,0.807
		c0.372,0,0.429-0.312,0.429-0.807c0-0.492-0.057-0.804-0.429-0.804C80.599,139.958,80.542,140.27,80.542,140.762z"/>
	<path style="fill:#6D6E71;" d="M82.252,141.711h-0.225v-1.899h0.202v0.236h0.008c0.09-0.153,0.24-0.271,0.45-0.271
		c0.195,0,0.368,0.109,0.432,0.297c0.094-0.188,0.256-0.297,0.466-0.297c0.315,0,0.48,0.218,0.491,0.522v1.411h-0.225v-1.355
		c-0.004-0.188-0.071-0.397-0.293-0.397c-0.285,0-0.395,0.285-0.395,0.533v1.22h-0.225v-1.355c-0.004-0.188-0.071-0.397-0.293-0.397
		c-0.285,0-0.395,0.285-0.395,0.533V141.711z"/>
	<path style="fill:#6D6E71;" d="M84.482,140.968v-0.409c0-0.492,0.211-0.781,0.653-0.781c0.443,0,0.653,0.289,0.653,0.781v0.409
		c0,0.491-0.21,0.78-0.653,0.78C84.693,141.748,84.482,141.459,84.482,140.968z M84.708,140.762c0,0.495,0.057,0.807,0.428,0.807
		c0.372,0,0.429-0.312,0.429-0.807c0-0.492-0.057-0.804-0.429-0.804C84.765,139.958,84.708,140.27,84.708,140.762z"/>
	<path style="fill:#6D6E71;" d="M87.081,139.001h0.717c0.759,0,0.853,0.442,0.853,1.366c0,0.9-0.132,1.344-0.949,1.344h-0.62
		V139.001z M87.321,141.508h0.293c0.725,0,0.796-0.194,0.796-1.302c0-0.777-0.105-1.003-0.773-1.003h-0.315V141.508z"/>
	<path style="fill:#6D6E71;" d="M90.094,141.479h-0.008c-0.12,0.18-0.304,0.27-0.537,0.27c-0.338,0-0.521-0.229-0.521-0.559
		c0-0.665,0.668-0.597,1.051-0.627v-0.158c0-0.277-0.082-0.446-0.383-0.446c-0.206,0-0.371,0.102-0.371,0.326h-0.24
		c0.019-0.363,0.3-0.507,0.63-0.507c0.192,0,0.59,0.02,0.59,0.504v0.953c0,0.135,0,0.255,0.022,0.477h-0.232V141.479z
		 M90.078,140.742c-0.322,0.012-0.811-0.026-0.811,0.436c0,0.214,0.109,0.391,0.342,0.391c0.259,0,0.469-0.232,0.469-0.48V140.742z"
		/>
	<path style="fill:#6D6E71;" d="M90.827,139.286v-0.285h0.278v0.285H90.827z M90.854,141.711v-1.896h0.226v1.896H90.854z"/>
	<path style="fill:#6D6E71;" d="M91.836,141.711H91.61v-1.896h0.226v0.232h0.008c0.108-0.157,0.255-0.271,0.458-0.271
		c0.469,0,0.518,0.35,0.518,0.598v1.336h-0.225v-1.325c0-0.222-0.087-0.428-0.35-0.428c-0.202,0-0.409,0.139-0.409,0.563V141.711z"
		/>
	<path style="fill:#6D6E71;" d="M93.324,139.286v-0.285h0.278v0.285H93.324z M93.351,141.711v-1.896h0.226v1.896H93.351z"/>
	<path style="fill:#6D6E71;" d="M94.333,140.044l0.008-0.003c0.12-0.185,0.308-0.264,0.458-0.264c0.593,0,0.597,0.519,0.597,0.767
		v0.424c0,0.491-0.169,0.78-0.653,0.78c-0.139,0-0.277-0.067-0.395-0.247l-0.007-0.004v0.931h-0.226v-2.612h0.218V140.044z
		 M94.341,140.93c0,0.433,0.195,0.639,0.401,0.639c0.372,0,0.428-0.312,0.428-0.807c0-0.492-0.056-0.804-0.428-0.804
		c-0.146,0-0.401,0.165-0.401,0.635V140.93z"/>
	<path style="fill:#6D6E71;" d="M95.998,140.044l0.008-0.003c0.12-0.185,0.308-0.264,0.458-0.264c0.593,0,0.597,0.519,0.597,0.767
		v0.424c0,0.491-0.169,0.78-0.653,0.78c-0.139,0-0.277-0.067-0.395-0.247l-0.007-0.004v0.931H95.78v-2.612h0.218V140.044z
		 M96.006,140.93c0,0.433,0.195,0.639,0.401,0.639c0.372,0,0.428-0.312,0.428-0.807c0-0.492-0.056-0.804-0.428-0.804
		c-0.146,0-0.401,0.165-0.401,0.635V140.93z"/>
	<path style="fill:#6D6E71;" d="M97.389,140.968v-0.409c0-0.492,0.211-0.781,0.653-0.781c0.443,0,0.653,0.289,0.653,0.781v0.409
		c0,0.491-0.21,0.78-0.653,0.78C97.6,141.748,97.389,141.459,97.389,140.968z M97.614,140.762c0,0.495,0.057,0.807,0.428,0.807
		c0.372,0,0.429-0.312,0.429-0.807c0-0.492-0.057-0.804-0.429-0.804C97.671,139.958,97.614,140.27,97.614,140.762z"/>
	<path style="fill:#6D6E71;" d="M99.328,141.711h-0.226v-1.896h0.226v0.232h0.008c0.108-0.157,0.255-0.271,0.458-0.271
		c0.469,0,0.518,0.35,0.518,0.598v1.336h-0.225v-1.325c0-0.222-0.087-0.428-0.35-0.428c-0.202,0-0.409,0.139-0.409,0.563V141.711z"
		/>
	<path style="fill:#6D6E71;" d="M101.611,139.001h0.743c0.226,0,0.597,0.03,0.597,0.656c0,0.545-0.176,0.792-0.642,0.792h-0.458
		v1.262h-0.24V139.001z M101.852,140.247h0.446c0.252,0,0.413-0.12,0.413-0.544c0-0.462-0.199-0.5-0.416-0.5h-0.443V140.247z"/>
	<path style="fill:#6D6E71;" d="M103.265,141.711v-2.71h0.226v1.047h0.008c0.108-0.157,0.255-0.271,0.458-0.271
		c0.469,0,0.518,0.35,0.518,0.598v1.336h-0.225v-1.325c0-0.222-0.087-0.428-0.35-0.428c-0.202,0-0.409,0.139-0.409,0.563v1.189
		H103.265z"/>
	<path style="fill:#6D6E71;" d="M105.91,141.479h-0.008c-0.12,0.18-0.304,0.27-0.537,0.27c-0.338,0-0.521-0.229-0.521-0.559
		c0-0.665,0.668-0.597,1.051-0.627v-0.158c0-0.277-0.082-0.446-0.383-0.446c-0.206,0-0.371,0.102-0.371,0.326h-0.24
		c0.019-0.363,0.3-0.507,0.63-0.507c0.192,0,0.59,0.02,0.59,0.504v0.953c0,0.135,0,0.255,0.022,0.477h-0.232V141.479z
		 M105.895,140.742c-0.322,0.012-0.811-0.026-0.811,0.436c0,0.214,0.109,0.391,0.342,0.391c0.259,0,0.469-0.232,0.469-0.48V140.742z
		"/>
	<path style="fill:#6D6E71;" d="M106.835,140.07h0.008c0.094-0.18,0.293-0.293,0.521-0.293v0.229
		c-0.318-0.026-0.529,0.165-0.529,0.484v1.22h-0.225v-1.896h0.225V140.07z"/>
	<path style="fill:#6D6E71;" d="M107.859,141.711h-0.225v-1.899h0.202v0.236h0.008c0.09-0.153,0.24-0.271,0.45-0.271
		c0.195,0,0.368,0.109,0.432,0.297c0.094-0.188,0.256-0.297,0.466-0.297c0.315,0,0.48,0.218,0.491,0.522v1.411h-0.225v-1.355
		c-0.004-0.188-0.071-0.397-0.293-0.397c-0.285,0-0.395,0.285-0.395,0.533v1.22h-0.225v-1.355c-0.004-0.188-0.071-0.397-0.293-0.397
		c-0.285,0-0.395,0.285-0.395,0.533V141.711z"/>
	<path style="fill:#6D6E71;" d="M111.119,141.479h-0.008c-0.12,0.18-0.304,0.27-0.537,0.27c-0.338,0-0.521-0.229-0.521-0.559
		c0-0.665,0.668-0.597,1.051-0.627v-0.158c0-0.277-0.082-0.446-0.383-0.446c-0.206,0-0.371,0.102-0.371,0.326h-0.24
		c0.019-0.363,0.3-0.507,0.63-0.507c0.192,0,0.59,0.02,0.59,0.504v0.953c0,0.135,0,0.255,0.022,0.477h-0.232V141.479z
		 M111.104,140.742c-0.322,0.012-0.811-0.026-0.811,0.436c0,0.214,0.109,0.391,0.342,0.391c0.259,0,0.469-0.232,0.469-0.48V140.742z
		"/>
	<path style="fill:#6D6E71;" d="M112.621,140.355c0-0.731,0.008-1.407,0.818-1.407c0.657,0,0.668,0.54,0.668,0.784h-0.24
		c0-0.3-0.082-0.581-0.428-0.581c-0.57,0-0.578,0.483-0.578,1.204s0.008,1.205,0.578,1.205c0.312,0,0.428-0.277,0.432-0.627h0.255
		c0,0.195-0.045,0.83-0.687,0.83C112.629,141.764,112.621,141.088,112.621,140.355z"/>
	<path style="fill:#6D6E71;" d="M114.463,140.968v-0.409c0-0.492,0.21-0.781,0.652-0.781c0.443,0,0.653,0.289,0.653,0.781v0.409
		c0,0.491-0.21,0.78-0.653,0.78C114.673,141.748,114.463,141.459,114.463,140.968z M114.688,140.762
		c0,0.495,0.057,0.807,0.428,0.807c0.372,0,0.428-0.312,0.428-0.807c0-0.492-0.056-0.804-0.428-0.804
		C114.744,139.958,114.688,140.27,114.688,140.762z"/>
	<path style="fill:#6D6E71;" d="M116.225,141.426h0.278v0.285h-0.278V141.426z"/>
	<path style="fill:#6D6E71;" d="M117.132,141.426h0.274l-0.226,0.68h-0.198L117.132,141.426z"/>
	<path style="fill:#6D6E71;" d="M118.695,141.711v-2.71h0.24v2.507h0.896v0.203H118.695z"/>
	<path style="fill:#6D6E71;" d="M119.963,139.995v-0.18h0.304v-0.391l0.225-0.098v0.488h0.384v0.18h-0.384v1.217
		c0,0.251,0.026,0.312,0.207,0.312c0.075,0,0.128-0.004,0.177-0.012v0.195c-0.068,0.008-0.144,0.012-0.215,0.012
		c-0.304,0-0.394-0.136-0.394-0.368v-1.355H119.963z"/>
	<path style="fill:#6D6E71;" d="M122.169,141.471l-0.008,0.004c-0.116,0.18-0.259,0.273-0.48,0.273
		c-0.548,0-0.578-0.544-0.578-0.986c0-0.364,0-0.984,0.582-0.984c0.173,0,0.342,0.079,0.458,0.226l0.008,0.004v-1.006h0.225v2.335
		c0,0.188,0.012,0.312,0.023,0.375h-0.218L122.169,141.471z M122.158,140.934v-0.338c0-0.112,0-0.638-0.425-0.638
		c-0.405,0-0.405,0.368-0.405,0.811c0,0.706,0.169,0.8,0.413,0.8C121.955,141.568,122.158,141.396,122.158,140.934z"/>
	<path style="fill:#6D6E71;" d="M122.888,141.426h0.278v0.285h-0.278V141.426z"/>
	<path style="fill:#6D6E71;" d="M0.102,144.855c0-0.772,0.615-1.407,1.369-1.407c0.759,0,1.37,0.635,1.37,1.407
		c0,0.777-0.611,1.408-1.37,1.408C0.717,146.264,0.102,145.633,0.102,144.855z M2.661,144.855c0-0.687-0.521-1.227-1.19-1.227
		c-0.664,0-1.189,0.54-1.189,1.227c0,0.684,0.525,1.228,1.189,1.228C2.14,146.083,2.661,145.539,2.661,144.855z M1.134,144.826
		c0,0.409,0.033,0.664,0.33,0.664c0.202,0,0.277-0.108,0.281-0.319h0.226c0,0.12-0.045,0.499-0.462,0.499
		c-0.612,0-0.601-0.528-0.601-0.844s-0.012-0.845,0.601-0.845c0.458,0,0.436,0.379,0.436,0.469H1.719
		c0.008-0.18-0.041-0.289-0.255-0.289C1.167,144.161,1.134,144.417,1.134,144.826z"/>
	<path style="fill:#6D6E71;" d="M4.448,146.211H3.116v-0.21c0.582-0.901,1.089-1.502,1.089-1.851c0-0.35-0.222-0.395-0.429-0.395
		c-0.285,0-0.428,0.207-0.428,0.477H3.124c0-0.521,0.349-0.679,0.652-0.679c0.305,0,0.669,0.098,0.669,0.544
		c0,0.383-0.191,0.597-1.066,1.91h1.069V146.211z"/>
	<path style="fill:#6D6E71;" d="M6.137,144.619v0.567c0,0.491,0,1.065-0.669,1.065c-0.668,0-0.668-0.574-0.668-1.065v-0.567
		c0-0.491,0-1.065,0.668-1.065C6.137,143.554,6.137,144.128,6.137,144.619z M5.04,145.415c0,0.59,0.259,0.635,0.428,0.635
		s0.429-0.045,0.429-0.635v-1.024c0-0.59-0.26-0.635-0.429-0.635s-0.428,0.045-0.428,0.635V145.415z"/>
	<path style="fill:#6D6E71;" d="M6.634,144.004c0.173-0.12,0.342-0.248,0.473-0.409h0.211v2.616H7.092v-2.316
		c-0.143,0.136-0.293,0.26-0.458,0.368V144.004z"/>
	<path style="fill:#6D6E71;" d="M9.2,144.177c-0.016-0.26-0.12-0.421-0.383-0.421c-0.451,0-0.458,0.47-0.458,0.867v0.229
		l0.007-0.004c0.098-0.191,0.285-0.285,0.515-0.285c0.627,0,0.586,0.66,0.586,0.739c0,0.511-0.061,0.949-0.635,0.949
		c-0.639,0-0.698-0.371-0.698-0.894v-0.855c0-0.634,0.12-0.949,0.698-0.949c0.405,0,0.601,0.214,0.608,0.623H9.2z M8.82,144.766
		c-0.273,0-0.461,0.181-0.461,0.627c0,0.022-0.053,0.657,0.442,0.657c0.405,0,0.425-0.368,0.425-0.68
		C9.227,144.965,9.129,144.766,8.82,144.766z"/>
	<path style="fill:#6D6E71;" d="M11.881,144.188c-0.008-0.334-0.09-0.536-0.458-0.536c-0.293,0-0.477,0.101-0.477,0.42
		c0,0.401,0.202,0.413,0.511,0.635c0.334,0.24,0.675,0.312,0.675,0.837c0,0.484-0.247,0.721-0.721,0.721
		c-0.528,0-0.766-0.285-0.743-0.814h0.248c0,0.3,0.022,0.611,0.507,0.611c0.315,0,0.469-0.169,0.469-0.48
		c0-0.367-0.243-0.473-0.634-0.713c-0.525-0.323-0.548-0.484-0.552-0.755c-0.004-0.469,0.293-0.664,0.735-0.664
		c0.563,0,0.684,0.349,0.684,0.739H11.881z"/>
	<path style="fill:#6D6E71;" d="M13.76,144.315v1.896h-0.195v-0.21h-0.008c-0.131,0.161-0.267,0.247-0.477,0.247
		c-0.391,0-0.499-0.285-0.499-0.593v-1.34h0.225v1.303c0,0.052-0.011,0.45,0.315,0.45c0.305,0,0.413-0.285,0.413-0.417v-1.336H13.76
		z"/>
	<path style="fill:#6D6E71;" d="M14.456,146.211H14.23v-1.896h0.226v0.232h0.008c0.108-0.157,0.255-0.271,0.458-0.271
		c0.469,0,0.518,0.35,0.518,0.598v1.336h-0.225v-1.325c0-0.222-0.087-0.428-0.35-0.428c-0.203,0-0.409,0.139-0.409,0.563V146.211z"
		/>
	<path style="fill:#6D6E71;" d="M15.848,145.468v-0.409c0-0.492,0.21-0.781,0.652-0.781c0.443,0,0.653,0.289,0.653,0.781v0.409
		c0,0.491-0.21,0.78-0.653,0.78C16.058,146.248,15.848,145.959,15.848,145.468z M16.072,145.262c0,0.495,0.057,0.807,0.428,0.807
		c0.372,0,0.428-0.312,0.428-0.807c0-0.492-0.056-0.804-0.428-0.804C16.129,144.458,16.072,144.77,16.072,145.262z"/>
	<path style="fill:#6D6E71;" d="M18.067,145.926h0.008l0.462-1.61h0.218l-0.563,1.896h-0.259l-0.563-1.896h0.244L18.067,145.926z"/>
	<path style="fill:#6D6E71;" d="M19.068,143.786v-0.285h0.278v0.285H19.068z M19.095,146.211v-1.896h0.226v1.896H19.095z"/>
	<path style="fill:#6D6E71;" d="M19.803,145.468v-0.409c0-0.492,0.211-0.781,0.653-0.781c0.443,0,0.653,0.289,0.653,0.781v0.409
		c0,0.491-0.21,0.78-0.653,0.78C20.014,146.248,19.803,145.959,19.803,145.468z M20.028,145.262c0,0.495,0.057,0.807,0.428,0.807
		c0.372,0,0.429-0.312,0.429-0.807c0-0.492-0.057-0.804-0.429-0.804C20.085,144.458,20.028,144.77,20.028,145.262z"/>
	<path style="fill:#6D6E71;" d="M21.742,146.211h-0.226v-1.896h0.226v0.232h0.008c0.108-0.157,0.255-0.271,0.458-0.271
		c0.469,0,0.518,0.35,0.518,0.598v1.336h-0.225v-1.325c0-0.222-0.087-0.428-0.35-0.428c-0.202,0-0.409,0.139-0.409,0.563V146.211z"
		/>
	<path style="fill:#6D6E71;" d="M24.025,143.501h0.743c0.226,0,0.597,0.03,0.597,0.656c0,0.545-0.176,0.792-0.642,0.792h-0.458
		v1.262h-0.24V143.501z M24.266,144.747h0.446c0.252,0,0.413-0.12,0.413-0.544c0-0.462-0.199-0.5-0.416-0.5h-0.443V144.747z"/>
	<path style="fill:#6D6E71;" d="M25.679,146.211v-2.71h0.226v1.047h0.008c0.108-0.157,0.255-0.271,0.458-0.271
		c0.469,0,0.518,0.35,0.518,0.598v1.336h-0.225v-1.325c0-0.222-0.087-0.428-0.35-0.428c-0.202,0-0.409,0.139-0.409,0.563v1.189
		H25.679z"/>
	<path style="fill:#6D6E71;" d="M28.324,145.979h-0.008c-0.12,0.18-0.304,0.27-0.537,0.27c-0.338,0-0.521-0.229-0.521-0.559
		c0-0.665,0.668-0.597,1.051-0.627v-0.158c0-0.277-0.082-0.446-0.383-0.446c-0.206,0-0.371,0.102-0.371,0.326h-0.24
		c0.019-0.363,0.3-0.507,0.63-0.507c0.192,0,0.59,0.02,0.59,0.504v0.953c0,0.135,0,0.255,0.022,0.477h-0.232V145.979z
		 M28.309,145.242c-0.322,0.012-0.811-0.026-0.811,0.436c0,0.214,0.109,0.391,0.342,0.391c0.259,0,0.469-0.232,0.469-0.48V145.242z"
		/>
	<path style="fill:#6D6E71;" d="M29.249,144.57h0.008c0.094-0.18,0.293-0.293,0.521-0.293v0.229
		c-0.318-0.026-0.529,0.165-0.529,0.484v1.22h-0.225v-1.896h0.225V144.57z"/>
	<path style="fill:#6D6E71;" d="M30.273,146.211h-0.225v-1.899h0.202v0.236h0.008c0.09-0.153,0.24-0.271,0.45-0.271
		c0.195,0,0.368,0.109,0.432,0.297c0.094-0.188,0.256-0.297,0.466-0.297c0.315,0,0.48,0.218,0.491,0.522v1.411h-0.225v-1.355
		c-0.004-0.188-0.071-0.397-0.293-0.397c-0.285,0-0.395,0.285-0.395,0.533v1.22h-0.225v-1.355c-0.004-0.188-0.071-0.397-0.293-0.397
		c-0.285,0-0.395,0.285-0.395,0.533V146.211z"/>
	<path style="fill:#6D6E71;" d="M33.533,145.979h-0.008c-0.12,0.18-0.304,0.27-0.537,0.27c-0.338,0-0.521-0.229-0.521-0.559
		c0-0.665,0.668-0.597,1.051-0.627v-0.158c0-0.277-0.082-0.446-0.383-0.446c-0.206,0-0.371,0.102-0.371,0.326h-0.24
		c0.019-0.363,0.3-0.507,0.63-0.507c0.192,0,0.59,0.02,0.59,0.504v0.953c0,0.135,0,0.255,0.022,0.477h-0.232V145.979z
		 M33.518,145.242c-0.322,0.012-0.811-0.026-0.811,0.436c0,0.214,0.109,0.391,0.342,0.391c0.259,0,0.469-0.232,0.469-0.48V145.242z"
		/>
	<path style="fill:#6D6E71;" d="M35.062,144.859c0.012-0.236-0.075-0.401-0.334-0.401c-0.139,0-0.255,0.079-0.304,0.218
		c-0.03,0.086-0.053,0.346-0.053,0.597c0,0.342,0,0.796,0.35,0.796c0.296,0,0.334-0.188,0.345-0.417h0.226
		c0.019,0.511-0.342,0.597-0.519,0.597c-0.642,0-0.642-0.506-0.642-0.976c0-0.188,0.008-0.484,0.057-0.627
		c0.098-0.271,0.312-0.368,0.57-0.368c0.326,0,0.548,0.185,0.529,0.582H35.062z"/>
	<path style="fill:#6D6E71;" d="M35.854,145.311v0.146c0,0.263,0.071,0.612,0.428,0.612c0.282,0,0.421-0.181,0.417-0.436h0.236
		c-0.026,0.458-0.273,0.615-0.653,0.615c-0.326,0-0.652-0.131-0.652-0.705v-0.466c0-0.548,0.229-0.8,0.652-0.8
		c0.653,0,0.653,0.47,0.653,1.033H35.854z M36.709,145.13c0-0.421-0.067-0.672-0.428-0.672s-0.428,0.251-0.428,0.672H36.709z"/>
	<path style="fill:#6D6E71;" d="M38.536,144.315v1.896h-0.195v-0.21h-0.008c-0.131,0.161-0.267,0.247-0.477,0.247
		c-0.391,0-0.499-0.285-0.499-0.593v-1.34h0.225v1.303c0,0.052-0.011,0.45,0.315,0.45c0.305,0,0.413-0.285,0.413-0.417v-1.336
		H38.536z"/>
	<path style="fill:#6D6E71;" d="M38.838,144.495v-0.18h0.305v-0.391l0.225-0.098v0.488h0.384v0.18h-0.384v1.217
		c0,0.251,0.026,0.312,0.207,0.312c0.075,0,0.128-0.004,0.177-0.012v0.195c-0.068,0.008-0.144,0.012-0.215,0.012
		c-0.304,0-0.394-0.136-0.394-0.368v-1.355H38.838z"/>
	<path style="fill:#6D6E71;" d="M40.099,143.786v-0.285h0.278v0.285H40.099z M40.125,146.211v-1.896h0.226v1.896H40.125z"/>
	<path style="fill:#6D6E71;" d="M41.727,144.859c0.012-0.236-0.075-0.401-0.334-0.401c-0.139,0-0.255,0.079-0.304,0.218
		c-0.03,0.086-0.053,0.346-0.053,0.597c0,0.342,0,0.796,0.35,0.796c0.296,0,0.334-0.188,0.345-0.417h0.226
		c0.019,0.511-0.342,0.597-0.519,0.597c-0.642,0-0.642-0.506-0.642-0.976c0-0.188,0.008-0.484,0.057-0.627
		c0.098-0.271,0.312-0.368,0.57-0.368c0.326,0,0.548,0.185,0.529,0.582H41.727z"/>
	<path style="fill:#6D6E71;" d="M43.321,145.979h-0.008c-0.12,0.18-0.304,0.27-0.537,0.27c-0.338,0-0.521-0.229-0.521-0.559
		c0-0.665,0.668-0.597,1.051-0.627v-0.158c0-0.277-0.082-0.446-0.383-0.446c-0.206,0-0.371,0.102-0.371,0.326h-0.24
		c0.019-0.363,0.3-0.507,0.63-0.507c0.191,0,0.59,0.02,0.59,0.504v0.953c0,0.135,0,0.255,0.022,0.477h-0.232V145.979z
		 M43.306,145.242c-0.322,0.012-0.811-0.026-0.811,0.436c0,0.214,0.109,0.391,0.342,0.391c0.259,0,0.469-0.232,0.469-0.48V145.242z"
		/>
	<path style="fill:#6D6E71;" d="M44.081,146.211v-2.71h0.226v2.71H44.081z"/>
	<path style="fill:#6D6E71;" d="M45.342,146.248c-0.409,0-0.571-0.198-0.567-0.601h0.229c0,0.26,0.06,0.432,0.349,0.432
		c0.218,0,0.323-0.123,0.323-0.334c0-0.495-0.853-0.367-0.853-0.994c0-0.35,0.24-0.474,0.57-0.474c0.376,0,0.496,0.26,0.496,0.549
		h-0.222c-0.012-0.24-0.075-0.368-0.33-0.368c-0.162,0-0.289,0.105-0.289,0.274c0,0.473,0.852,0.345,0.852,0.979
		C45.9,146.068,45.694,146.248,45.342,146.248z"/>
	<path style="fill:#6D6E71;" d="M47.438,143.501v2.71h-0.24v-2.71H47.438z"/>
	<path style="fill:#6D6E71;" d="M48.187,146.211h-0.226v-1.896h0.226v0.232h0.008c0.108-0.157,0.255-0.271,0.458-0.271
		c0.469,0,0.518,0.35,0.518,0.598v1.336h-0.225v-1.325c0-0.222-0.087-0.428-0.35-0.428c-0.203,0-0.409,0.139-0.409,0.563V146.211z"
		/>
	<path style="fill:#6D6E71;" d="M50.471,144.859c0.012-0.236-0.075-0.401-0.334-0.401c-0.139,0-0.255,0.079-0.304,0.218
		c-0.03,0.086-0.053,0.346-0.053,0.597c0,0.342,0,0.796,0.35,0.796c0.296,0,0.334-0.188,0.345-0.417H50.7
		c0.019,0.511-0.342,0.597-0.519,0.597c-0.642,0-0.642-0.506-0.642-0.976c0-0.188,0.008-0.484,0.057-0.627
		c0.098-0.271,0.312-0.368,0.57-0.368c0.326,0,0.548,0.185,0.529,0.582H50.471z"/>
	<path style="fill:#6D6E71;" d="M51.134,145.926h0.278v0.285h-0.278V145.926z"/>
	<path style="fill:#6D6E71;" d="M53.71,143.501l0.845,2.71h-0.251l-0.218-0.713h-1.062l-0.214,0.713h-0.24l0.855-2.71H53.71z
		 M54.021,145.295l-0.461-1.531h-0.008l-0.458,1.531H54.021z"/>
	<path style="fill:#6D6E71;" d="M54.909,146.211v-2.71h0.226v2.71H54.909z"/>
	<path style="fill:#6D6E71;" d="M55.741,146.211v-2.71h0.226v2.71H55.741z"/>
	<path style="fill:#6D6E71;" d="M57.57,144.57h0.008c0.094-0.18,0.293-0.293,0.521-0.293v0.229
		c-0.318-0.026-0.529,0.165-0.529,0.484v1.22h-0.225v-1.896h0.225V144.57z"/>
	<path style="fill:#6D6E71;" d="M58.422,143.786v-0.285H58.7v0.285H58.422z M58.448,146.211v-1.896h0.226v1.896H58.448z"/>
	<path style="fill:#6D6E71;" d="M60.196,144.312h0.222c-0.008,0.181-0.012,0.274-0.012,0.372v1.595c0,0.417-0.127,0.665-0.668,0.665
		c-0.473,0-0.566-0.335-0.552-0.526h0.226c-0.016,0.218,0.146,0.346,0.356,0.346c0.439,0,0.413-0.236,0.413-0.804h-0.008
		c-0.098,0.162-0.277,0.229-0.458,0.229c-0.544,0-0.582-0.47-0.582-0.89c0-0.439,0.004-0.443,0.057-0.646
		c0.019-0.079,0.15-0.376,0.533-0.376c0.191,0,0.383,0.098,0.466,0.267l0.007,0.008V144.312z M59.359,145.22
		c0,0.395,0,0.788,0.409,0.788c0.188,0,0.308-0.123,0.342-0.214c0.056-0.146,0.071-0.232,0.071-0.788
		c0-0.397-0.214-0.548-0.424-0.548C59.367,144.458,59.359,144.938,59.359,145.22z"/>
	<path style="fill:#6D6E71;" d="M60.87,146.211v-2.71h0.226v1.047h0.008c0.108-0.157,0.255-0.271,0.458-0.271
		c0.469,0,0.518,0.35,0.518,0.598v1.336h-0.225v-1.325c0-0.222-0.087-0.428-0.35-0.428c-0.202,0-0.409,0.139-0.409,0.563v1.189
		H60.87z"/>
	<path style="fill:#6D6E71;" d="M62.367,144.495v-0.18h0.304v-0.391l0.225-0.098v0.488h0.384v0.18h-0.384v1.217
		c0,0.251,0.026,0.312,0.207,0.312c0.075,0,0.128-0.004,0.177-0.012v0.195c-0.068,0.008-0.144,0.012-0.215,0.012
		c-0.304,0-0.394-0.136-0.394-0.368v-1.355H62.367z"/>
	<path style="fill:#6D6E71;" d="M64.082,146.248c-0.409,0-0.571-0.198-0.567-0.601h0.229c0,0.26,0.06,0.432,0.349,0.432
		c0.218,0,0.323-0.123,0.323-0.334c0-0.495-0.853-0.367-0.853-0.994c0-0.35,0.24-0.474,0.57-0.474c0.376,0,0.496,0.26,0.496,0.549
		h-0.222c-0.012-0.24-0.075-0.368-0.33-0.368c-0.162,0-0.289,0.105-0.289,0.274c0,0.473,0.852,0.345,0.852,0.979
		C64.641,146.068,64.435,146.248,64.082,146.248z"/>
	<path style="fill:#6D6E71;" d="M66.109,144.57h0.008c0.094-0.18,0.293-0.293,0.521-0.293v0.229
		c-0.318-0.026-0.529,0.165-0.529,0.484v1.22h-0.225v-1.896h0.225V144.57z"/>
	<path style="fill:#6D6E71;" d="M67.089,145.311v0.146c0,0.263,0.071,0.612,0.428,0.612c0.282,0,0.421-0.181,0.417-0.436h0.236
		c-0.026,0.458-0.273,0.615-0.653,0.615c-0.326,0-0.653-0.131-0.653-0.705v-0.466c0-0.548,0.229-0.8,0.653-0.8
		c0.653,0,0.653,0.47,0.653,1.033H67.089z M67.945,145.13c0-0.421-0.068-0.672-0.429-0.672s-0.428,0.251-0.428,0.672H67.945z"/>
	<path style="fill:#6D6E71;" d="M69.081,146.248c-0.409,0-0.571-0.198-0.567-0.601h0.229c0,0.26,0.06,0.432,0.349,0.432
		c0.218,0,0.323-0.123,0.323-0.334c0-0.495-0.853-0.367-0.853-0.994c0-0.35,0.24-0.474,0.57-0.474c0.376,0,0.496,0.26,0.496,0.549
		h-0.222c-0.012-0.24-0.075-0.368-0.33-0.368c-0.162,0-0.289,0.105-0.289,0.274c0,0.473,0.852,0.345,0.852,0.979
		C69.64,146.068,69.434,146.248,69.081,146.248z"/>
	<path style="fill:#6D6E71;" d="M70.213,145.311v0.146c0,0.263,0.071,0.612,0.428,0.612c0.282,0,0.421-0.181,0.417-0.436h0.236
		c-0.026,0.458-0.273,0.615-0.653,0.615c-0.326,0-0.652-0.131-0.652-0.705v-0.466c0-0.548,0.229-0.8,0.652-0.8
		c0.653,0,0.653,0.47,0.653,1.033H70.213z M71.068,145.13c0-0.421-0.067-0.672-0.428-0.672s-0.428,0.251-0.428,0.672H71.068z"/>
	<path style="fill:#6D6E71;" d="M71.941,144.57h0.008c0.094-0.18,0.293-0.293,0.521-0.293v0.229
		c-0.318-0.026-0.529,0.165-0.529,0.484v1.22h-0.225v-1.896h0.225V144.57z"/>
	<path style="fill:#6D6E71;" d="M73.251,145.926h0.008l0.462-1.61h0.218l-0.563,1.896h-0.259l-0.563-1.896h0.244L73.251,145.926z"/>
	<path style="fill:#6D6E71;" d="M74.38,145.311v0.146c0,0.263,0.071,0.612,0.428,0.612c0.282,0,0.421-0.181,0.417-0.436h0.236
		c-0.026,0.458-0.273,0.615-0.653,0.615c-0.326,0-0.653-0.131-0.653-0.705v-0.466c0-0.548,0.229-0.8,0.653-0.8
		c0.653,0,0.653,0.47,0.653,1.033H74.38z M75.236,145.13c0-0.421-0.068-0.672-0.429-0.672s-0.428,0.251-0.428,0.672H75.236z"/>
	<path style="fill:#6D6E71;" d="M76.863,145.971l-0.008,0.004c-0.116,0.18-0.259,0.273-0.48,0.273c-0.548,0-0.578-0.544-0.578-0.986
		c0-0.364,0-0.984,0.582-0.984c0.173,0,0.342,0.079,0.458,0.226l0.008,0.004v-1.006h0.225v2.335c0,0.188,0.012,0.312,0.023,0.375
		h-0.218L76.863,145.971z M76.853,145.434v-0.338c0-0.112,0-0.638-0.425-0.638c-0.405,0-0.405,0.368-0.405,0.811
		c0,0.706,0.169,0.8,0.413,0.8C76.649,146.068,76.853,145.896,76.853,145.434z"/>
	<path style="fill:#6D6E71;" d="M77.582,145.926h0.278v0.285h-0.278V145.926z"/>
	<path style="fill:#6D6E71;" d="M79.303,144.004c0.173-0.12,0.342-0.248,0.473-0.409h0.211v2.616h-0.226v-2.316
		c-0.143,0.136-0.293,0.26-0.458,0.368V144.004z"/>
	<path style="fill:#6D6E71;" d="M82.112,146.211H80.78v-0.21c0.582-0.901,1.089-1.502,1.089-1.851c0-0.35-0.222-0.395-0.429-0.395
		c-0.285,0-0.428,0.207-0.428,0.477h-0.225c0-0.521,0.349-0.679,0.652-0.679c0.305,0,0.669,0.098,0.669,0.544
		c0,0.383-0.191,0.597-1.066,1.91h1.069V146.211z"/>
	<path style="fill:#6D6E71;" d="M82.287,146.624l1.066-3.123h0.203l-1.07,3.123H82.287z"/>
	<path style="fill:#6D6E71;" d="M83.882,144.004c0.173-0.12,0.342-0.248,0.473-0.409h0.211v2.616H84.34v-2.316
		c-0.143,0.136-0.293,0.26-0.458,0.368V144.004z"/>
	<path style="fill:#6D6E71;" d="M86.448,144.177c-0.016-0.26-0.12-0.421-0.383-0.421c-0.451,0-0.458,0.47-0.458,0.867v0.229
		l0.007-0.004c0.098-0.191,0.285-0.285,0.515-0.285c0.627,0,0.586,0.66,0.586,0.739c0,0.511-0.061,0.949-0.635,0.949
		c-0.639,0-0.698-0.371-0.698-0.894v-0.855c0-0.634,0.12-0.949,0.698-0.949c0.405,0,0.601,0.214,0.608,0.623H86.448z
		 M86.068,144.766c-0.273,0-0.461,0.181-0.461,0.627c0,0.022-0.053,0.657,0.442,0.657c0.405,0,0.425-0.368,0.425-0.68
		C86.475,144.965,86.377,144.766,86.068,144.766z"/>
	<path style="fill:#6D6E71;" d="M88.899,143.501l0.845,2.71h-0.251l-0.218-0.713h-1.062l-0.214,0.713h-0.24l0.855-2.71H88.899z
		 M89.211,145.295l-0.461-1.531h-0.008l-0.458,1.531H89.211z"/>
	<path style="fill:#6D6E71;" d="M90.035,143.501h0.743c0.226,0,0.597,0.03,0.597,0.656c0,0.545-0.176,0.792-0.642,0.792h-0.458
		v1.262h-0.24V143.501z M90.275,144.747h0.446c0.252,0,0.413-0.12,0.413-0.544c0-0.462-0.199-0.5-0.416-0.5h-0.443V144.747z"/>
	<path style="fill:#6D6E71;" d="M92.173,143.703h-0.66v-0.202h1.562v0.202h-0.661v2.508h-0.24V143.703z"/>
	<path style="fill:#6D6E71;" d="M94.36,144.177c-0.016-0.26-0.12-0.421-0.383-0.421c-0.451,0-0.458,0.47-0.458,0.867v0.229
		l0.007-0.004c0.098-0.191,0.285-0.285,0.515-0.285c0.627,0,0.586,0.66,0.586,0.739c0,0.511-0.061,0.949-0.635,0.949
		c-0.639,0-0.698-0.371-0.698-0.894v-0.855c0-0.634,0.12-0.949,0.698-0.949c0.405,0,0.601,0.214,0.608,0.623H94.36z M93.98,144.766
		c-0.273,0-0.461,0.181-0.461,0.627c0,0.022-0.053,0.657,0.442,0.657c0.405,0,0.425-0.368,0.425-0.68
		C94.387,144.965,94.289,144.766,93.98,144.766z"/>
	<path style="fill:#6D6E71;" d="M96.269,146.211h-1.332v-0.21c0.582-0.901,1.089-1.502,1.089-1.851c0-0.35-0.222-0.395-0.429-0.395
		c-0.285,0-0.428,0.207-0.428,0.477h-0.225c0-0.521,0.349-0.679,0.652-0.679c0.305,0,0.669,0.098,0.669,0.544
		c0,0.383-0.191,0.597-1.066,1.91h1.069V146.211z"/>
	<path style="fill:#6D6E71;" d="M97.559,144.841c0.356,0.079,0.413,0.342,0.413,0.661c0,0.341-0.09,0.75-0.684,0.75
		c-0.593,0-0.683-0.409-0.683-0.75c0-0.319,0.056-0.582,0.413-0.661l-0.008-0.008c-0.319-0.067-0.379-0.33-0.379-0.627
		c0-0.24,0.019-0.652,0.656-0.652c0.639,0,0.657,0.412,0.657,0.652c0,0.297-0.061,0.56-0.387,0.627V144.841z M97.731,145.531
		c0-0.281-0.03-0.597-0.443-0.597s-0.442,0.315-0.442,0.597c0,0.305,0.104,0.541,0.442,0.541S97.731,145.836,97.731,145.531z
		 M97.705,144.24c0-0.308-0.083-0.507-0.417-0.507s-0.416,0.199-0.416,0.507c0,0.301,0.101,0.515,0.416,0.515
		S97.705,144.541,97.705,144.24z"/>
	<path style="fill:#6D6E71;" d="M98.263,145.317v-0.214h0.759v0.214H98.263z"/>
	<path style="fill:#6D6E71;" d="M99.497,144.004c0.173-0.12,0.342-0.248,0.473-0.409h0.211v2.616h-0.226v-2.316
		c-0.143,0.136-0.293,0.26-0.458,0.368V144.004z"/>
	<path style="fill:#6D6E71;" d="M102.063,144.177c-0.016-0.26-0.12-0.421-0.383-0.421c-0.451,0-0.458,0.47-0.458,0.867v0.229
		l0.007-0.004c0.098-0.191,0.285-0.285,0.515-0.285c0.627,0,0.586,0.66,0.586,0.739c0,0.511-0.061,0.949-0.635,0.949
		c-0.639,0-0.698-0.371-0.698-0.894v-0.855c0-0.634,0.12-0.949,0.698-0.949c0.405,0,0.601,0.214,0.608,0.623H102.063z
		 M101.684,144.766c-0.273,0-0.461,0.181-0.461,0.627c0,0.022-0.053,0.657,0.442,0.657c0.405,0,0.425-0.368,0.425-0.68
		C102.09,144.965,101.992,144.766,101.684,144.766z"/>
</g>
</svg>
