<?xml version="1.0" encoding="utf-8"?>
<!-- Generator: Adobe Illustrator 18.1.1, SVG Export Plug-In . SVG Version: 6.00 Build 0)  -->
<svg version="1.1" id="Layer_1" xmlns="http://www.w3.org/2000/svg" xmlns:xlink="http://www.w3.org/1999/xlink" x="0px" y="0px"
	 viewBox="0 0 1244.3 462.3" enable-background="new 0 0 1244.3 462.3" xml:space="preserve">
<g>
	<g>
		<rect x="362.5" y="406" fill="#A6A8AB" width="82.7" height="17.7"/>
		<rect x="445.2" y="379.8" fill="#1D1756" width="82.7" height="43.8"/>
	</g>
	<rect x="171.9" y="345.8" fill="#A6A8AB" width="82.7" height="77.8"/>
	<rect x="254.6" y="415.1" fill="#1D1756" width="82.7" height="8.6"/>
	<g>
		<rect x="733.7" y="217.1" fill="#1D1756" width="82.7" height="206.6"/>
		<rect x="651" y="243.1" fill="#A6A8AB" width="82.7" height="180.6"/>
	</g>
	<g>
		<rect x="916.9" y="251.4" fill="#1D1756" width="82.7" height="172.2"/>
		<rect x="834.2" y="320.3" fill="#A6A8AB" width="82.7" height="103.3"/>
	</g>
	<g>
		<rect x="1100.1" y="277.4" fill="#1D1756" width="82.7" height="146.2"/>
		<rect x="1017.4" y="156.1" fill="#A6A8AB" width="82.7" height="267.5"/>
	</g>
	<line fill="none" stroke="#231F20" stroke-width="1.3255" stroke-miterlimit="10" x1="589.4" y1="423.6" x2="589.4" y2="125.5"/>
	<polyline fill="none" stroke="#231F20" stroke-width="1.3255" stroke-miterlimit="10" points="86.9,77.4 86.9,422.5 86.9,423.6 
		1244.3,423.6 	"/>
	<g>
		<path fill="#6D6E70" d="M35.3,168.2c0,0,1.6,1.7,3.9,1.7c1.8,0,3.2-1.2,3.2-2.8c0-1.9-1.7-2.9-3.7-2.9h-1.1l-0.5-1.2l3.5-4
			c0.5-0.6,1-1,1-1v0c0,0-0.5,0.1-1.4,0.1h-5.4v-1.9h9.5v1.4l-4.3,4.9c2.1,0.2,4.7,1.5,4.7,4.6c0,2.7-2.1,5-5.4,5
			c-3.2,0-5.2-2.1-5.2-2.1L35.3,168.2z"/>
		<path fill="#6D6E70" d="M47.3,169.4h2.3v2.3h-2.3V169.4z"/>
		<path fill="#6D6E70" d="M52.1,163.9c0-4.5,1.4-8,5.6-8c4.3,0,5.6,3.5,5.6,8c0,4.5-1.4,8.1-5.6,8.1C53.5,172,52.1,168.4,52.1,163.9
			z M61.1,163.9c0-3.4-0.7-6-3.4-6c-2.6,0-3.3,2.6-3.3,6c0,3.4,0.7,6.1,3.3,6.1C60.3,170,61.1,167.3,61.1,163.9z"/>
	</g>
	<g>
		<path fill="#6D6E70" d="M33.3,79.7l7.3-10h2.5v9.5h2.2V81h-2.2v4.2H41V81h-7.7V79.7z M41,79.2v-5.7c0-0.7,0.1-1.5,0.1-1.5h0
			c0,0-0.4,0.7-0.8,1.3l-4.5,5.9v0H41z"/>
		<path fill="#6D6E70" d="M47.3,82.9h2.3v2.3h-2.3V82.9z"/>
		<path fill="#6D6E70" d="M52.1,77.4c0-4.5,1.4-8,5.6-8c4.3,0,5.6,3.5,5.6,8c0,4.5-1.4,8.1-5.6,8.1C53.5,85.5,52.1,81.9,52.1,77.4z
			 M61.1,77.4c0-3.4-0.7-6-3.4-6c-2.6,0-3.3,2.6-3.3,6c0,3.4,0.7,6.1,3.3,6.1C60.3,83.4,61.1,80.8,61.1,77.4z"/>
	</g>
	<g>
		<path fill="#6D6E70" d="M34.1,257c0-5.5,7.8-6.3,7.8-10c0-1.5-1.2-2.6-2.9-2.6c-2.1,0-3.2,2-3.2,2l-1.6-1.1c0,0,1.4-2.9,5-2.9
			c2.9,0,5,1.8,5,4.5c0,5.1-7.6,5.9-7.6,9.4h7.9v1.9H34.2C34.2,257.8,34.1,257.4,34.1,257z"/>
		<path fill="#6D6E70" d="M47.3,255.9h2.3v2.3h-2.3V255.9z"/>
		<path fill="#6D6E70" d="M52.1,250.4c0-4.5,1.4-8,5.6-8c4.3,0,5.6,3.5,5.6,8c0,4.5-1.4,8.1-5.6,8.1
			C53.5,258.5,52.1,254.9,52.1,250.4z M61.1,250.4c0-3.4-0.7-6-3.4-6c-2.6,0-3.3,2.6-3.3,6c0,3.4,0.7,6.1,3.3,6.1
			C60.3,256.5,61.1,253.8,61.1,250.4z"/>
	</g>
	<g>
		<path fill="#6D6E70" d="M36,342.8h3.5v-10c0-0.5,0-1,0-1h0c0,0-0.2,0.4-0.8,0.9l-1.5,1.4l-1.4-1.4l3.8-3.6h2v13.6h3.5v1.9H36
			V342.8z"/>
		<path fill="#6D6E70" d="M47.3,342.4h2.3v2.3h-2.3V342.4z"/>
		<path fill="#6D6E70" d="M52.1,336.9c0-4.5,1.4-8,5.6-8c4.3,0,5.6,3.5,5.6,8c0,4.5-1.4,8.1-5.6,8.1C53.5,345,52.1,341.4,52.1,336.9
			z M61.1,336.9c0-3.4-0.7-6-3.4-6c-2.6,0-3.3,2.6-3.3,6c0,3.4,0.7,6.1,3.3,6.1C60.3,343,61.1,340.3,61.1,336.9z"/>
	</g>
	<g>
		<path fill="#6D6E70" d="M52.1,423.4c0-4.5,1.4-8,5.6-8c4.3,0,5.6,3.5,5.6,8c0,4.5-1.4,8.1-5.6,8.1
			C53.5,431.5,52.1,427.9,52.1,423.4z M61.1,423.4c0-3.4-0.7-6-3.4-6c-2.6,0-3.3,2.6-3.3,6c0,3.4,0.7,6.1,3.3,6.1
			C60.3,429.5,61.1,426.8,61.1,423.4z"/>
	</g>
	<g>
		<path fill="#1D1756" d="M121.7,13.6h-6.1l-1.5,4.4h-3.3l6.1-17h3.3l6.1,17h-3.3L121.7,13.6z M118.7,3.8c0,0-0.4,1.7-0.7,2.6
			l-1.5,4.6h4.6l-1.5-4.6C119.1,5.5,118.7,3.8,118.7,3.8L118.7,3.8z"/>
		<path fill="#1D1756" d="M136.2,0.6c4.3,0,6.5,2.2,6.5,2.2l-1.6,2.3c0,0-1.9-1.6-4.6-1.6c-3.9,0-6,2.6-6,5.9c0,3.7,2.6,6.1,5.9,6.1
			c2.6,0,4.4-1.8,4.4-1.8v-2H138V9h5.5v9h-2.7v-0.8c0-0.4,0-0.7,0-0.7h0c0,0-1.8,1.8-5.1,1.8c-4.6,0-8.6-3.5-8.6-8.8
			C127.2,4.4,131,0.6,136.2,0.6z"/>
		<path fill="#1D1756" d="M154.6,0.6c4.3,0,6.5,2.2,6.5,2.2l-1.6,2.3c0,0-1.9-1.6-4.6-1.6c-3.9,0-6,2.6-6,5.9c0,3.7,2.6,6.1,5.9,6.1
			c2.6,0,4.4-1.8,4.4-1.8v-2h-2.7V9h5.5v9h-2.7v-0.8c0-0.4,0-0.7,0-0.7h0c0,0-1.8,1.8-5.1,1.8c-4.6,0-8.6-3.5-8.6-8.8
			C145.6,4.4,149.4,0.6,154.6,0.6z"/>
		<path fill="#1D1756" d="M165.2,0.9h5.6c1.9,0,2.8,0.1,3.5,0.5c1.7,0.8,2.9,2.4,2.9,4.7c0,2-1.1,3.9-3,4.7v0c0,0,0.2,0.2,0.6,0.8
			l3.6,6.4h-3.5l-3.5-6.4h-3v6.4h-3.2V0.9z M171.2,8.9c1.7,0,2.8-1,2.8-2.7c0-1.6-0.7-2.6-3.2-2.6h-2.4v5.3H171.2z"/>
		<path fill="#1D1756" d="M181.1,0.9h10.4v2.7h-7.3V8h5.9v2.7h-5.9v4.6h7.7v2.7h-10.8V0.9z"/>
		<path fill="#1D1756" d="M195.4,13.6c0,0,1.9,1.8,4.4,1.8c1.3,0,2.5-0.7,2.5-2.1c0-3-8.2-2.5-8.2-7.8c0-2.8,2.5-4.9,5.9-4.9
			c3.4,0,5.2,1.8,5.2,1.8l-1.4,2.5c0,0-1.7-1.5-3.9-1.5c-1.5,0-2.6,0.8-2.6,2c0,3,8.2,2.3,8.2,7.7c0,2.7-2.1,5-5.8,5
			c-3.9,0-6-2.3-6-2.3L195.4,13.6z"/>
		<path fill="#1D1756" d="M208.8,13.6c0,0,1.9,1.8,4.4,1.8c1.3,0,2.5-0.7,2.5-2.1c0-3-8.2-2.5-8.2-7.8c0-2.8,2.5-4.9,5.9-4.9
			c3.4,0,5.2,1.8,5.2,1.8l-1.4,2.5c0,0-1.7-1.5-3.9-1.5c-1.5,0-2.6,0.8-2.6,2c0,3,8.2,2.3,8.2,7.7c0,2.7-2.1,5-5.8,5
			c-3.9,0-6-2.3-6-2.3L208.8,13.6z"/>
		<path fill="#1D1756" d="M221.8,0.9h3.2v17h-3.2V0.9z"/>
		<path fill="#1D1756" d="M236.9,0.6c5.1,0,9,3.8,9,8.7c0,5-3.9,8.9-9,8.9s-9-3.9-9-8.9C227.9,4.4,231.8,0.6,236.9,0.6z M236.9,15.4
			c3.2,0,5.8-2.6,5.8-6.1c0-3.4-2.6-5.9-5.8-5.9c-3.2,0-5.8,2.5-5.8,5.9C231.2,12.8,233.7,15.4,236.9,15.4z"/>
		<path fill="#1D1756" d="M248.9,0.9h3.2l6.6,9.8c0.7,1,1.5,2.6,1.5,2.6h0c0,0-0.2-1.6-0.2-2.6V0.9h3.1v17H260l-6.6-9.8
			c-0.7-1-1.5-2.6-1.5-2.6h0c0,0,0.2,1.6,0.2,2.6v9.8h-3.2V0.9z"/>
		<path fill="#1D1756" d="M273.1,0.9h5.6c1.9,0,2.8,0.1,3.5,0.5c1.7,0.8,2.9,2.4,2.9,4.7c0,2-1.1,3.9-3,4.7v0c0,0,0.2,0.2,0.6,0.8
			l3.6,6.4h-3.5l-3.5-6.4h-3v6.4h-3.2V0.9z M279.1,8.9c1.7,0,2.8-1,2.8-2.7c0-1.6-0.7-2.6-3.2-2.6h-2.4v5.3H279.1z"/>
		<path fill="#1D1756" d="M289,0.9h10.4v2.7h-7.3V8h5.9v2.7h-5.9v4.6h7.7v2.7H289V0.9z"/>
		<path fill="#1D1756" d="M302.9,0.9h3.2v14.4h7.5v2.7h-10.7V0.9z"/>
		<path fill="#1D1756" d="M325.1,13.6H319l-1.5,4.4h-3.3l6.1-17h3.3l6.1,17h-3.3L325.1,13.6z M322.1,3.8c0,0-0.4,1.7-0.7,2.6
			l-1.5,4.6h4.6l-1.5-4.6C322.5,5.5,322.1,3.8,322.1,3.8L322.1,3.8z"/>
		<path fill="#1D1756" d="M334.5,3.5h-5.7V0.9h14.6v2.7h-5.7v14.4h-3.2V3.5z"/>
		<path fill="#1D1756" d="M345.4,0.9h10.4v2.7h-7.3V8h5.9v2.7h-5.9v4.6h7.7v2.7h-10.8V0.9z"/>
		<path fill="#1D1756" d="M359.3,0.9h5.9c5.4,0,8.9,3.1,8.9,8.5s-3.5,8.5-8.9,8.5h-5.9V0.9z M365.1,15.3c3.5,0,5.8-2,5.8-5.9
			c0-3.8-2.3-5.8-5.8-5.8h-2.6v11.7H365.1z"/>
		<path fill="#1D1756" d="M376.7,8.6l2-2.4v0l-3.1-0.7l0.8-2.6l3,1.2l-0.2-3.1h2.8L381.9,4l3-1.2l0.9,2.6l-3.1,0.8v0l2.1,2.4
			l-2.2,1.6l-1.7-2.6h0l-1.7,2.6L376.7,8.6z"/>
	</g>
	<g>
		<path fill="#1D1756" d="M651,0.9h6.7c3.3,0,5.6,2.2,5.6,5.5c0,3.3-2.3,5.6-5.6,5.6h-3.6v5.9H651V0.9z M657.1,9.4
			c1.8,0,2.9-1.2,2.9-2.9c0-1.8-1.1-2.9-2.9-2.9h-3v5.8H657.1z"/>
		<path fill="#1D1756" d="M666.2,13.6c0,0,1.9,1.8,4.4,1.8c1.3,0,2.5-0.7,2.5-2.1c0-3-8.2-2.5-8.2-7.8c0-2.8,2.5-4.9,5.9-4.9
			c3.4,0,5.2,1.8,5.2,1.8l-1.4,2.5c0,0-1.7-1.5-3.9-1.5c-1.5,0-2.6,0.8-2.6,2c0,3,8.2,2.3,8.2,7.7c0,2.7-2.1,5-5.8,5
			c-3.9,0-6-2.3-6-2.3L666.2,13.6z"/>
		<path fill="#1D1756" d="M682.8,10.8L677,0.9h3.6l2.7,5c0.6,1.1,1,2.3,1.1,2.3h0c0,0,0.5-1.2,1.1-2.3l2.7-5h3.6l-5.8,9.9v7.1h-3.2
			V10.8z"/>
		<path fill="#1D1756" d="M701.2,0.6c4.3,0,6.4,2.3,6.4,2.3l-1.5,2.3c0,0-2-1.8-4.8-1.8c-3.7,0-5.9,2.7-5.9,5.9
			c0,3.2,2.2,6.1,5.9,6.1c3,0,5.1-2.2,5.1-2.2l1.7,2.2c0,0-2.4,2.8-6.9,2.8c-5.3,0-9-3.9-9-8.9C692.2,4.4,696,0.6,701.2,0.6z"/>
		<path fill="#1D1756" d="M710.7,0.9h3.2v7.2h8V0.9h3.2v17h-3.2v-7.2h-8v7.2h-3.2V0.9z"/>
		<path fill="#1D1756" d="M729.3,0.9h3.2v17h-3.2V0.9z"/>
		<path fill="#1D1756" d="M745.3,13.6h-6.1l-1.5,4.4h-3.3l6.1-17h3.3l6.1,17h-3.3L745.3,13.6z M742.2,3.8c0,0-0.4,1.7-0.7,2.6
			l-1.5,4.6h4.6l-1.5-4.6C742.6,5.5,742.3,3.8,742.2,3.8L742.2,3.8z"/>
		<path fill="#1D1756" d="M754.6,3.5h-5.7V0.9h14.6v2.7h-5.7v14.4h-3.2V3.5z"/>
		<path fill="#1D1756" d="M765.6,0.9h5.6c1.9,0,2.8,0.1,3.5,0.5c1.7,0.8,2.9,2.4,2.9,4.7c0,2-1.1,3.9-2.9,4.7v0c0,0,0.2,0.2,0.6,0.8
			l3.6,6.4h-3.5l-3.5-6.4h-3v6.4h-3.2V0.9z M771.6,8.9c1.7,0,2.8-1,2.8-2.7c0-1.6-0.7-2.6-3.2-2.6h-2.4v5.3H771.6z"/>
		<path fill="#1D1756" d="M781.5,0.9h3.2v17h-3.2V0.9z"/>
		<path fill="#1D1756" d="M796.6,0.6c4.3,0,6.4,2.3,6.4,2.3l-1.5,2.3c0,0-2-1.8-4.8-1.8c-3.7,0-5.9,2.7-5.9,5.9
			c0,3.2,2.2,6.1,5.9,6.1c3,0,5.1-2.2,5.1-2.2l1.7,2.2c0,0-2.4,2.8-6.9,2.8c-5.3,0-9-3.9-9-8.9C787.6,4.4,791.5,0.6,796.6,0.6z"/>
		<path fill="#1D1756" d="M806.3,4.2h-1.8V2.8h1.8V0h1.7v2.8h1.8v1.4H808v6.5h-1.7V4.2z"/>
	</g>
	<g>
		<path fill="#6D6E70" d="M209.3,452.8h-6.4l-1.8,4.9h-1.6l5.8-15.5h1.7l5.8,15.5h-1.6L209.3,452.8z M206.1,443.8c0,0-0.3,1.3-0.6,2
			l-2.1,5.6h5.5l-2.1-5.6C206.5,445.1,206.2,443.8,206.1,443.8L206.1,443.8z"/>
		<path fill="#6D6E70" d="M218.6,461c2.2,0,4-1,4-3.5v-1c0-0.4,0-0.8,0-0.8h0c-0.7,1.2-1.8,1.9-3.6,1.9c-3,0-5-2.4-5-5.7
			c0-3.3,1.9-5.6,4.9-5.6c3,0,3.7,1.8,3.7,1.8h0c0,0,0-0.1,0-0.4v-1.2h1.5v10.8c0,3.5-2.7,4.9-5.4,4.9c-1.3,0-2.6-0.3-3.7-0.9
			l0.6-1.2C215.6,460.2,217,461,218.6,461z M222.6,451.9c0-3.2-1.6-4.2-3.6-4.2c-2.2,0-3.5,1.6-3.5,4.2s1.5,4.4,3.7,4.4
			C221,456.3,222.6,455.2,222.6,451.9z"/>
		<path fill="#6D6E70" d="M231.5,461c2.2,0,4-1,4-3.5v-1c0-0.4,0-0.8,0-0.8h0c-0.7,1.2-1.8,1.9-3.6,1.9c-3,0-5-2.4-5-5.7
			c0-3.3,1.9-5.6,4.9-5.6c3,0,3.7,1.8,3.7,1.8h0c0,0,0-0.1,0-0.4v-1.2h1.5v10.8c0,3.5-2.7,4.9-5.4,4.9c-1.3,0-2.6-0.3-3.7-0.9
			l0.6-1.2C228.4,460.2,229.8,461,231.5,461z M235.5,451.9c0-3.2-1.6-4.2-3.6-4.2c-2.2,0-3.5,1.6-3.5,4.2s1.5,4.4,3.7,4.4
			C233.9,456.3,235.5,455.2,235.5,451.9z"/>
		<path fill="#6D6E70" d="M240.5,446.6h1.5v2c0,0.5,0,0.9,0,0.9h0c0.5-1.7,1.8-2.9,3.6-2.9c0.3,0,0.6,0.1,0.6,0.1v1.5
			c0,0-0.3,0-0.6,0c-1.6,0-2.8,1.2-3.3,2.9c-0.2,0.7-0.3,1.5-0.3,2.2v4.7h-1.5V446.6z"/>
		<path fill="#6D6E70" d="M252.9,446.3c3.1,0,4.7,2.4,4.7,5.1c0,0.3,0,0.8,0,0.8h-8.7c0.1,2.8,2,4.4,4.4,4.4c2.1,0,3.4-1.3,3.4-1.3
			l0.7,1.1c0,0-1.6,1.5-4.2,1.5c-3.4,0-5.9-2.4-5.9-5.8C247.3,448.5,249.9,446.3,252.9,446.3z M256.1,451c-0.1-2.3-1.5-3.4-3.2-3.4
			c-1.9,0-3.5,1.2-3.9,3.4H256.1z"/>
		<path fill="#6D6E70" d="M260.3,455.3c0,0,1.3,1.3,3.4,1.3c1.2,0,2.3-0.6,2.3-1.8c0-2.4-6.1-1.8-6.1-5.4c0-2,1.8-3.1,3.9-3.1
			c2.4,0,3.5,1.2,3.5,1.2l-0.7,1.1c0,0-1-1-2.8-1c-1.1,0-2.3,0.5-2.3,1.7c0,2.4,6.1,1.8,6.1,5.4c0,1.8-1.6,3.1-3.9,3.1
			c-2.7,0-4.2-1.6-4.2-1.6L260.3,455.3z"/>
		<path fill="#6D6E70" d="M270,455.3c0,0,1.3,1.3,3.4,1.3c1.2,0,2.3-0.6,2.3-1.8c0-2.4-6.1-1.8-6.1-5.4c0-2,1.8-3.1,3.9-3.1
			c2.4,0,3.5,1.2,3.5,1.2l-0.7,1.1c0,0-1-1-2.8-1c-1.1,0-2.3,0.5-2.3,1.7c0,2.4,6.1,1.8,6.1,5.4c0,1.8-1.6,3.1-3.9,3.1
			c-2.7,0-4.2-1.6-4.2-1.6L270,455.3z"/>
		<path fill="#6D6E70" d="M279.8,442.2h1.6v1.9h-1.6V442.2z M279.9,446.6h1.5v11.1h-1.5V446.6z"/>
		<path fill="#6D6E70" d="M290,446.3c3.3,0,6,2.5,6,5.7c0,3.3-2.7,5.9-6,5.9s-6-2.5-6-5.9C284,448.8,286.7,446.3,290,446.3z
			 M290,456.6c2.4,0,4.4-1.9,4.4-4.5c0-2.5-2-4.4-4.4-4.4c-2.4,0-4.4,1.9-4.4,4.4C285.6,454.7,287.6,456.6,290,456.6z"/>
		<path fill="#6D6E70" d="M298.7,446.6h1.5v1.7c0,0.5,0,0.9,0,0.9h0c0.4-1,1.8-2.8,4.5-2.8c2.8,0,3.8,1.6,3.8,4.3v7h-1.5V451
			c0-1.7-0.3-3.3-2.5-3.3c-1.9,0-3.6,1.3-4.1,3.1c-0.1,0.5-0.2,1-0.2,1.5v5.3h-1.5V446.6z"/>
	</g>
	<g>
		<path fill="#6D6E70" d="M679.4,442.2h5.1c4.8,0,8,2.8,8,7.7c0,4.9-3.2,7.7-8,7.7h-5.1V442.2z M684.4,456.3c3.9,0,6.5-2.2,6.5-6.4
			c0-4.1-2.6-6.4-6.5-6.4H681v12.7H684.4z"/>
		<path fill="#6D6E70" d="M700.2,446.3c3.1,0,4.7,2.4,4.7,5.1c0,0.3,0,0.8,0,0.8h-8.7c0.1,2.8,2,4.4,4.4,4.4c2.1,0,3.4-1.3,3.4-1.3
			l0.7,1.1c0,0-1.6,1.5-4.2,1.5c-3.4,0-5.9-2.4-5.9-5.8C694.6,448.5,697.2,446.3,700.2,446.3z M703.4,451c-0.1-2.3-1.5-3.4-3.2-3.4
			c-1.9,0-3.5,1.2-3.9,3.4H703.4z"/>
		<path fill="#6D6E70" d="M707.7,446.6h1.5v1.1c0,0.5,0,0.9,0,0.9h0c0,0,0.9-2.2,3.9-2.2c3,0,4.9,2.4,4.9,5.8c0,3.5-2.1,5.8-5.1,5.8
			c-2.7,0-3.7-2.1-3.7-2.1h0c0,0,0,0.4,0,1v5.3h-1.5V446.6z M712.8,456.6c2,0,3.6-1.7,3.6-4.5c0-2.7-1.5-4.4-3.6-4.4
			c-1.9,0-3.7,1.3-3.7,4.5C709.2,454.4,710.4,456.6,712.8,456.6z"/>
		<path fill="#6D6E70" d="M720.7,446.6h1.5v2c0,0.5,0,0.9,0,0.9h0c0.5-1.7,1.8-2.9,3.6-2.9c0.3,0,0.6,0.1,0.6,0.1v1.5
			c0,0-0.3,0-0.6,0c-1.6,0-2.8,1.2-3.3,2.9c-0.2,0.7-0.3,1.5-0.3,2.2v4.7h-1.5V446.6z"/>
		<path fill="#6D6E70" d="M733.2,446.3c3.1,0,4.7,2.4,4.7,5.1c0,0.3,0,0.8,0,0.8h-8.7c0.1,2.8,2,4.4,4.4,4.4c2.1,0,3.4-1.3,3.4-1.3
			l0.7,1.1c0,0-1.6,1.5-4.2,1.5c-3.4,0-5.9-2.4-5.9-5.8C727.6,448.5,730.1,446.3,733.2,446.3z M736.3,451c-0.1-2.3-1.5-3.4-3.2-3.4
			c-1.9,0-3.5,1.2-3.9,3.4H736.3z"/>
		<path fill="#6D6E70" d="M740.5,455.3c0,0,1.3,1.3,3.4,1.3c1.2,0,2.3-0.6,2.3-1.8c0-2.4-6.1-1.8-6.1-5.4c0-2,1.8-3.1,3.9-3.1
			c2.4,0,3.5,1.2,3.5,1.2l-0.7,1.1c0,0-1-1-2.8-1c-1.1,0-2.3,0.5-2.3,1.7c0,2.4,6.1,1.8,6.1,5.4c0,1.8-1.6,3.1-3.9,3.1
			c-2.7,0-4.2-1.6-4.2-1.6L740.5,455.3z"/>
		<path fill="#6D6E70" d="M750.3,455.3c0,0,1.3,1.3,3.4,1.3c1.2,0,2.3-0.6,2.3-1.8c0-2.4-6.1-1.8-6.1-5.4c0-2,1.8-3.1,3.9-3.1
			c2.4,0,3.5,1.2,3.5,1.2l-0.7,1.1c0,0-1-1-2.8-1c-1.1,0-2.3,0.5-2.3,1.7c0,2.4,6.1,1.8,6.1,5.4c0,1.8-1.6,3.1-3.9,3.1
			c-2.7,0-4.2-1.6-4.2-1.6L750.3,455.3z"/>
		<path fill="#6D6E70" d="M760.1,442.2h1.6v1.9h-1.6V442.2z M760.1,446.6h1.5v11.1h-1.5V446.6z"/>
		<path fill="#6D6E70" d="M770.3,446.3c3.3,0,6,2.5,6,5.7c0,3.3-2.7,5.9-6,5.9c-3.3,0-6-2.5-6-5.9
			C764.3,448.8,767,446.3,770.3,446.3z M770.3,456.6c2.4,0,4.4-1.9,4.4-4.5c0-2.5-2-4.4-4.4-4.4c-2.4,0-4.4,1.9-4.4,4.4
			C765.9,454.7,767.8,456.6,770.3,456.6z"/>
		<path fill="#6D6E70" d="M778.9,446.6h1.5v1.7c0,0.5,0,0.9,0,0.9h0c0.4-1,1.8-2.8,4.5-2.8c2.8,0,3.8,1.6,3.8,4.3v7h-1.5V451
			c0-1.7-0.3-3.3-2.5-3.3c-1.9,0-3.6,1.3-4.1,3.1c-0.1,0.5-0.2,1-0.2,1.5v5.3h-1.5V446.6z"/>
	</g>
	<g>
		<path fill="#6D6E70" d="M872.9,442.2h1.6v15.5h-1.6V442.2z"/>
		<path fill="#6D6E70" d="M878.3,446.6h1.5v1.7c0,0.5,0,0.9,0,0.9h0c0.4-1,1.8-2.8,4.5-2.8c2.8,0,3.8,1.6,3.8,4.3v7h-1.5V451
			c0-1.7-0.3-3.3-2.5-3.3c-1.9,0-3.6,1.3-4.1,3.1c-0.1,0.5-0.2,1-0.2,1.5v5.3h-1.5V446.6z"/>
		<path fill="#6D6E70" d="M891.4,455.3c0,0,1.3,1.3,3.4,1.3c1.2,0,2.3-0.6,2.3-1.8c0-2.4-6.1-1.8-6.1-5.4c0-2,1.8-3.1,3.9-3.1
			c2.4,0,3.5,1.2,3.5,1.2l-0.7,1.1c0,0-1-1-2.8-1c-1.1,0-2.3,0.5-2.3,1.7c0,2.4,6.1,1.8,6.1,5.4c0,1.8-1.6,3.1-3.9,3.1
			c-2.7,0-4.2-1.6-4.2-1.6L891.4,455.3z"/>
		<path fill="#6D6E70" d="M906.4,446.3c3.3,0,6,2.5,6,5.7c0,3.3-2.7,5.9-6,5.9c-3.3,0-6-2.5-6-5.9
			C900.4,448.8,903.1,446.3,906.4,446.3z M906.4,456.6c2.4,0,4.4-1.9,4.4-4.5c0-2.5-2-4.4-4.4-4.4c-2.4,0-4.4,1.9-4.4,4.4
			C902,454.7,904,456.6,906.4,456.6z"/>
		<path fill="#6D6E70" d="M915,446.6h1.5v1.7c0,0.5,0,0.9,0,0.9h0c0.5-1.5,2.3-2.8,4.1-2.8c2.1,0,3.2,0.9,3.5,2.8h0
			c0.6-1.5,2.3-2.8,4.2-2.8c2.7,0,3.8,1.6,3.8,4.3v7h-1.5V451c0-1.8-0.4-3.3-2.5-3.3c-1.7,0-3.2,1.5-3.6,3.1c-0.2,0.5-0.2,1-0.2,1.6
			v5.2h-1.5V451c0-1.7-0.2-3.3-2.4-3.3c-1.8,0-3.2,1.6-3.7,3.3c-0.1,0.5-0.2,1-0.2,1.5v5.2H915V446.6z"/>
		<path fill="#6D6E70" d="M935.4,446.6h1.5v1.7c0,0.5,0,0.9,0,0.9h0c0.4-1,1.8-2.8,4.5-2.8c2.8,0,3.8,1.6,3.8,4.3v7h-1.5V451
			c0-1.7-0.3-3.3-2.5-3.3c-1.9,0-3.6,1.3-4.1,3.1c-0.1,0.5-0.2,1-0.2,1.5v5.3h-1.5V446.6z"/>
		<path fill="#6D6E70" d="M948.5,442.2h1.6v1.9h-1.6V442.2z M948.6,446.6h1.5v11.1h-1.5V446.6z"/>
		<path fill="#6D6E70" d="M959.6,450.8h0.6v-0.3c0-2.1-1.2-2.9-2.8-2.9c-1.9,0-3.2,1.1-3.2,1.1l-0.7-1.1c0,0,1.5-1.3,4-1.3
			c2.7,0,4.2,1.5,4.2,4.2v7.1h-1.5v-1.2c0-0.6,0-0.9,0-0.9h0c0,0-0.9,2.4-3.8,2.4c-1.9,0-3.9-1.1-3.9-3.3
			C952.6,450.9,957.6,450.8,959.6,450.8z M956.7,456.7c2.2,0,3.5-2.2,3.5-4.1v-0.5h-0.7c-1.8,0-5.3,0.1-5.3,2.5
			C954.2,455.6,955,456.7,956.7,456.7z"/>
	</g>
	<g>
		<path fill="#6D6E70" d="M1073.6,452.8h-6.4l-1.8,4.9h-1.6l5.8-15.5h1.7l5.8,15.5h-1.6L1073.6,452.8z M1070.4,443.8
			c0,0-0.3,1.3-0.6,2l-2.1,5.6h5.5l-2.1-5.6C1070.8,445.1,1070.5,443.8,1070.4,443.8L1070.4,443.8z"/>
		<path fill="#6D6E70" d="M1079,446.6h1.5v1.7c0,0.5,0,0.9,0,0.9h0c0.4-1,1.8-2.8,4.5-2.8c2.8,0,3.8,1.6,3.8,4.3v7h-1.5V451
			c0-1.7-0.3-3.3-2.5-3.3c-1.9,0-3.6,1.3-4.1,3.1c-0.1,0.5-0.2,1-0.2,1.5v5.3h-1.5V446.6z"/>
		<path fill="#6D6E70" d="M1095.8,452.9c0,0-0.2,0.3-0.4,0.6l-2.7,4.2h-1.8l4-5.8l-3.6-5.3h1.8l2.4,3.7c0.2,0.3,0.4,0.6,0.4,0.6h0
			c0,0,0.2-0.4,0.4-0.6l2.4-3.7h1.8l-3.6,5.3l4,5.8h-1.8l-2.7-4.2C1096,453.2,1095.9,452.9,1095.8,452.9L1095.8,452.9L1095.8,452.9z
			"/>
		<path fill="#6D6E70" d="M1102.9,442.2h1.6v1.9h-1.6V442.2z M1103,446.6h1.5v11.1h-1.5V446.6z"/>
		<path fill="#6D6E70" d="M1112.8,446.3c3.1,0,4.7,2.4,4.7,5.1c0,0.3,0,0.8,0,0.8h-8.7c0.1,2.8,2,4.4,4.4,4.4c2.1,0,3.4-1.3,3.4-1.3
			l0.7,1.1c0,0-1.6,1.5-4.2,1.5c-3.4,0-5.9-2.4-5.9-5.8C1107.2,448.5,1109.7,446.3,1112.8,446.3z M1116,451
			c-0.1-2.3-1.5-3.4-3.2-3.4c-1.9,0-3.5,1.2-3.9,3.4H1116z"/>
		<path fill="#6D6E70" d="M1120.6,448h-1.5v-1.3h1.5v-3.2h1.5v3.2h2.8v1.3h-2.8v5.5c0,2.6,1.7,2.9,2.5,2.9c0.3,0,0.5,0,0.5,0v1.3
			c0,0-0.2,0-0.7,0c-1.3,0-3.9-0.4-3.9-4.1V448z"/>
		<path fill="#6D6E70" d="M1126.4,460.5c0,0,0.6,0.5,1.4,0.5c1,0,1.7-0.8,2.1-1.8l0.7-1.6l-4.7-11h1.7l3.3,8.1
			c0.2,0.5,0.4,1.2,0.4,1.2h0c0,0,0.2-0.6,0.4-1.2l3.3-8.1h1.7l-5.6,13.4c-0.6,1.4-1.8,2.3-3.3,2.3c-1.2,0-2-0.7-2-0.7L1126.4,460.5
			z"/>
	</g>
	<g>
		<path fill="#6D6E70" d="M410.6,452.8h-6.4l-1.8,4.9h-1.6l5.8-15.5h1.7l5.8,15.5h-1.6L410.6,452.8z M407.4,443.8c0,0-0.3,1.3-0.6,2
			l-2.1,5.6h5.5l-2.1-5.6C407.8,445.1,407.4,443.8,407.4,443.8L407.4,443.8z"/>
		<path fill="#6D6E70" d="M419.9,461c2.2,0,4-1,4-3.5v-1c0-0.4,0-0.8,0-0.8h0c-0.7,1.2-1.8,1.9-3.6,1.9c-3,0-5-2.4-5-5.7
			c0-3.3,1.9-5.6,4.9-5.6c3,0,3.7,1.8,3.7,1.8h0c0,0,0-0.1,0-0.4v-1.2h1.5v10.8c0,3.5-2.7,4.9-5.4,4.9c-1.3,0-2.6-0.3-3.7-0.9
			l0.6-1.2C416.8,460.2,418.2,461,419.9,461z M423.9,451.9c0-3.2-1.6-4.2-3.6-4.2c-2.2,0-3.5,1.6-3.5,4.2s1.5,4.4,3.7,4.4
			C422.3,456.3,423.9,455.2,423.9,451.9z"/>
		<path fill="#6D6E70" d="M428.8,442.2h1.6v1.9h-1.6V442.2z M428.8,446.6h1.5v11.1h-1.5V446.6z"/>
		<path fill="#6D6E70" d="M434.3,448h-1.5v-1.3h1.5v-3.2h1.5v3.2h2.8v1.3h-2.8v5.5c0,2.6,1.7,2.9,2.5,2.9c0.3,0,0.5,0,0.5,0v1.3
			c0,0-0.2,0-0.7,0c-1.3,0-3.9-0.4-3.9-4.1V448z"/>
		<path fill="#6D6E70" d="M447.2,450.8h0.6v-0.3c0-2.1-1.2-2.9-2.8-2.9c-1.9,0-3.2,1.1-3.2,1.1l-0.7-1.1c0,0,1.5-1.3,4-1.3
			c2.7,0,4.2,1.5,4.2,4.2v7.1h-1.5v-1.2c0-0.6,0-0.9,0-0.9h0c0,0-0.9,2.4-3.8,2.4c-1.9,0-3.9-1.1-3.9-3.3
			C440.2,450.9,445.2,450.8,447.2,450.8z M444.3,456.7c2.2,0,3.5-2.2,3.5-4.1v-0.5h-0.7c-1.8,0-5.3,0.1-5.3,2.5
			C441.8,455.6,442.6,456.7,444.3,456.7z"/>
		<path fill="#6D6E70" d="M453,448h-1.5v-1.3h1.5v-3.2h1.5v3.2h2.8v1.3h-2.8v5.5c0,2.6,1.7,2.9,2.5,2.9c0.3,0,0.5,0,0.5,0v1.3
			c0,0-0.2,0-0.7,0c-1.3,0-3.9-0.4-3.9-4.1V448z"/>
		<path fill="#6D6E70" d="M459.9,442.2h1.6v1.9h-1.6V442.2z M459.9,446.6h1.5v11.1h-1.5V446.6z"/>
		<path fill="#6D6E70" d="M470.1,446.3c3.3,0,6,2.5,6,5.7c0,3.3-2.7,5.9-6,5.9s-6-2.5-6-5.9C464.1,448.8,466.8,446.3,470.1,446.3z
			 M470.1,456.6c2.4,0,4.4-1.9,4.4-4.5c0-2.5-2-4.4-4.4-4.4c-2.4,0-4.4,1.9-4.4,4.4C465.6,454.7,467.6,456.6,470.1,456.6z"/>
		<path fill="#6D6E70" d="M478.7,446.6h1.5v1.7c0,0.5,0,0.9,0,0.9h0c0.4-1,1.8-2.8,4.5-2.8c2.8,0,3.8,1.6,3.8,4.3v7H487V451
			c0-1.7-0.3-3.3-2.5-3.3c-1.9,0-3.6,1.3-4.1,3.1c-0.1,0.5-0.2,1-0.2,1.5v5.3h-1.5V446.6z"/>
	</g>
	<g>
		<path fill="#6D6E70" d="M678.1,230.8c0-6.1,8.2-7.1,8.2-10.5c0-1.5-1.2-2.4-2.7-2.4c-1.3,0-2.1,0.7-2.6,1.3
			c-0.5,0.5-1,0.6-1.5,0.2l-0.7-0.5c-0.5-0.4-0.6-0.8-0.3-1.3c0.8-1,2.4-2.6,5.2-2.6c3,0,5.7,1.8,5.7,5c0,5.5-7.8,6.4-8,9.6h7.2
			c0.7,0,1,0.3,1,1v0.7c0,0.7-0.3,1-1,1h-9.6c-0.6,0-1.1-0.3-1.1-1V230.8z"/>
		<path fill="#6D6E70" d="M691.7,230.2c0-0.6,0.3-1,1-1h1.1c0.7,0,1,0.3,1,1v1.1c0,0.7-0.4,1-1,1h-1.1c-0.7,0-1-0.3-1-1V230.2z"/>
		<path fill="#6D6E70" d="M696.6,230.6c0-0.6,0.3-1,1-1h2.8v-9.5c0-0.6,0-1.2,0-1.2h0c0,0-0.2,0.5-0.7,0.9l-0.8,0.7
			c-0.5,0.4-1,0.4-1.4,0l-0.5-0.5c-0.5-0.5-0.4-1,0-1.4l3.1-2.9c0.4-0.3,0.8-0.5,1.3-0.5h1c0.7,0,1,0.4,1,1v13.4h2.8
			c0.7,0,1,0.3,1,1v0.7c0,0.7-0.4,1-1,1h-8.6c-0.7,0-1-0.3-1-1V230.6z"/>
	</g>
	<g>
		<path fill="#6D6E70" d="M759.3,204.8c0-6.1,8.2-7.1,8.2-10.5c0-1.5-1.2-2.4-2.7-2.4c-1.3,0-2.1,0.7-2.6,1.3
			c-0.5,0.5-1,0.6-1.5,0.2l-0.7-0.5c-0.5-0.4-0.6-0.8-0.3-1.3c0.8-1,2.4-2.6,5.2-2.6c3,0,5.7,1.8,5.7,5c0,5.5-7.8,6.4-8,9.6h7.2
			c0.7,0,1,0.3,1,1v0.7c0,0.7-0.3,1-1,1h-9.6c-0.6,0-1.1-0.3-1.1-1V204.8z"/>
		<path fill="#6D6E70" d="M772.9,204.2c0-0.6,0.3-1,1-1h1.1c0.7,0,1,0.3,1,1v1.1c0,0.7-0.4,1-1,1H774c-0.7,0-1-0.3-1-1V204.2z"/>
		<path fill="#6D6E70" d="M777.3,200.9v-0.2c0-0.5,0.1-0.8,0.4-1.2l6.7-9.6c0.3-0.5,0.7-0.6,1.2-0.6h1.9c0.7,0,1,0.4,1,1v9.1h1.2
			c0.7,0,1,0.3,1,1v0.6c0,0.6-0.3,1-0.8,1h-1.4v3.4c0,0.7-0.3,1-1,1h-1.1c-0.7,0-1-0.3-1-1v-3.4h-7.2
			C777.7,201.9,777.3,201.6,777.3,200.9z M785.5,199.3v-5.3c0-0.8,0.1-1.8,0.1-1.8h0c0,0-0.4,0.9-0.9,1.6l-4,5.4v0H785.5z"/>
	</g>
	<g>
		<path fill="#6D6E70" d="M861.3,307.8c0-0.6,0.3-1,1-1h2.8v-9.5c0-0.6,0-1.2,0-1.2h0c0,0-0.2,0.5-0.7,0.9l-0.8,0.7
			c-0.5,0.4-1,0.4-1.4,0l-0.5-0.5c-0.5-0.5-0.4-1,0-1.4l3.1-2.9c0.4-0.3,0.8-0.5,1.3-0.5h1c0.7,0,1,0.4,1,1v13.4h2.8
			c0.7,0,1,0.3,1,1v0.7c0,0.7-0.4,1-1,1h-8.6c-0.7,0-1-0.3-1-1V307.8z"/>
		<path fill="#6D6E70" d="M873.1,307.4c0-0.6,0.3-1,1-1h1.1c0.7,0,1,0.3,1,1v1.1c0,0.7-0.4,1-1,1h-1.1c-0.7,0-1-0.3-1-1V307.4z"/>
		<path fill="#6D6E70" d="M878,308c0-6.1,8.2-7.1,8.2-10.5c0-1.5-1.2-2.4-2.7-2.4c-1.3,0-2.1,0.7-2.6,1.3c-0.5,0.5-1,0.6-1.5,0.2
			l-0.7-0.5c-0.5-0.4-0.6-0.8-0.3-1.3c0.8-1,2.4-2.6,5.2-2.6c3,0,5.7,1.8,5.7,5c0,5.5-7.8,6.4-8,9.6h7.2c0.7,0,1,0.3,1,1v0.7
			c0,0.7-0.3,1-1,1h-9.6c-0.6,0-1.1-0.3-1.1-1V308z"/>
	</g>
	<g>
		<path fill="#6D6E70" d="M942.4,239.1c0-6.1,8.1-7.1,8.1-10.5c0-1.5-1.2-2.4-2.6-2.4c-1.2,0-2.1,0.7-2.6,1.3
			c-0.5,0.5-1,0.6-1.4,0.2l-0.7-0.5c-0.5-0.4-0.6-0.8-0.3-1.3c0.8-1,2.4-2.6,5.2-2.6c3,0,5.6,1.8,5.6,5c0,5.5-7.8,6.4-7.9,9.6h7.2
			c0.7,0,1,0.3,1,1v0.7c0,0.7-0.3,1-1,1h-9.5c-0.6,0-1.1-0.3-1.1-1V239.1z"/>
		<path fill="#6D6E70" d="M956,238.6c0-0.6,0.3-1,1-1h1.1c0.7,0,1,0.3,1,1v1.1c0,0.7-0.4,1-1,1H957c-0.7,0-1-0.3-1-1V238.6z"/>
		<path fill="#6D6E70" d="M961.2,232.1c0-4.9,1.5-8.8,6.3-8.8s6.3,3.9,6.3,8.8s-1.6,8.8-6.3,8.8S961.2,237,961.2,232.1z
			 M970.5,232.1c0-3.3-0.7-5.9-3.1-5.9s-3.1,2.6-3.1,5.9c0,3.4,0.7,6,3.1,6S970.5,235.5,970.5,232.1z"/>
	</g>
	<g>
		<path fill="#6D6E70" d="M1044.7,142.6l0.5-0.7c0.4-0.6,0.8-0.6,1.4-0.2c0.6,0.4,1.7,1.1,3.1,1.1c1.8,0,3.1-1.1,3.1-2.5
			c0-1.8-1.7-2.6-3.7-2.6h-0.4c-0.6,0-0.9-0.2-1.1-0.7l-0.1-0.2c-0.2-0.4-0.1-0.9,0.2-1.3l2.7-3.1c0.7-0.8,1.3-1.3,1.3-1.3v0
			c0,0-0.5,0.1-1.5,0.1h-4.2c-0.7,0-1-0.3-1-1v-0.7c0-0.6,0.3-1,1-1h8.6c0.7,0,1,0.3,1,1v0.3c0,0.5-0.1,0.9-0.5,1.2l-3.8,4.3
			c2.4,0.3,4.8,2,4.8,5c0,2.9-2.2,5.6-6.1,5.6c-2.4,0-4.2-1-5-1.7C1044.4,143.6,1044.3,143.1,1044.7,142.6z"/>
		<path fill="#6D6E70" d="M1058,143.2c0-0.6,0.3-1,1-1h1.1c0.7,0,1,0.3,1,1v1.1c0,0.7-0.4,1-1,1h-1.1c-0.7,0-1-0.3-1-1V143.2z"/>
		<path fill="#6D6E70" d="M1063,143.6c0-0.6,0.3-1,1-1h2.8v-9.5c0-0.6,0-1.2,0-1.2h0c0,0-0.2,0.5-0.7,0.9l-0.8,0.7
			c-0.5,0.4-1,0.4-1.4,0l-0.5-0.5c-0.5-0.5-0.4-1,0-1.4l3.1-2.9c0.4-0.3,0.8-0.5,1.3-0.5h1c0.7,0,1,0.4,1,1v13.4h2.8
			c0.7,0,1,0.3,1,1v0.7c0,0.7-0.4,1-1,1h-8.6c-0.7,0-1-0.3-1-1V143.6z"/>
	</g>
	<g>
		<path fill="#6D6E70" d="M1127.7,264.9c0-0.6,0.3-1,1-1h2.8v-9.5c0-0.6,0-1.2,0-1.2h0c0,0-0.2,0.5-0.7,0.9l-0.8,0.7
			c-0.5,0.4-1,0.4-1.4,0l-0.5-0.5c-0.5-0.5-0.4-1,0-1.4l3.1-2.9c0.4-0.3,0.8-0.5,1.3-0.5h1c0.7,0,1,0.4,1,1V264h2.8c0.7,0,1,0.3,1,1
			v0.7c0,0.7-0.4,1-1,1h-8.6c-0.7,0-1-0.3-1-1V264.9z"/>
		<path fill="#6D6E70" d="M1139.4,264.5c0-0.6,0.3-1,1-1h1.1c0.7,0,1,0.3,1,1v1.1c0,0.7-0.4,1-1,1h-1.1c-0.7,0-1-0.3-1-1V264.5z"/>
		<path fill="#6D6E70" d="M1151.5,253.8c0.5-1.1,1-1.6,1-1.6v0c0,0-0.3,0-1.1,0h-6.4c-0.7,0-1-0.3-1-1v-0.7c0-0.6,0.3-1,1-1h10
			c0.7,0,1,0.3,1,1v0.5c0,0.5-0.1,0.8-0.3,1.2l-7,13.6c-0.3,0.5-0.6,0.7-1.2,0.7h-1.1c-0.8,0-1.1-0.5-0.7-1.2L1151.5,253.8z"/>
	</g>
	<g>
		<path fill="#6D6E70" d="M274,397.6v-0.3c0-0.6,0.2-0.9,0.8-1.2l9.9-4.3c0.7-0.3,1.2,0,1.2,0.7v0.6c0,0.6-0.3,0.9-0.8,1.2l-7.7,3.1
			v0l7.7,3.1c0.5,0.2,0.8,0.6,0.8,1.2v0.6c0,0.8-0.5,1.1-1.2,0.8l-9.9-4.3C274.2,398.6,274,398.2,274,397.6z"/>
		<path fill="#6D6E70" d="M288.5,395.8c0-4.9,1.5-8.8,6.3-8.8c4.8,0,6.3,3.9,6.3,8.8s-1.6,8.8-6.3,8.8
			C290.1,404.6,288.5,400.7,288.5,395.8z M297.9,395.8c0-3.3-0.7-5.9-3.1-5.9c-2.4,0-3.1,2.6-3.1,5.9c0,3.4,0.7,6,3.1,6
			C297.2,401.8,297.9,399.1,297.9,395.8z"/>
		<path fill="#6D6E70" d="M303.3,402.2c0-0.6,0.3-1,1-1h1.1c0.7,0,1,0.3,1,1v1.1c0,0.7-0.4,1-1,1h-1.1c-0.7,0-1-0.3-1-1V402.2z"/>
		<path fill="#6D6E70" d="M308.2,402.6c0-0.6,0.3-1,1-1h2.8v-9.5c0-0.6,0-1.2,0-1.2h0c0,0-0.2,0.5-0.7,0.9l-0.8,0.7
			c-0.5,0.4-1,0.4-1.4,0l-0.5-0.5c-0.5-0.5-0.4-1,0-1.4l3.1-2.9c0.4-0.3,0.8-0.5,1.3-0.5h1c0.7,0,1,0.4,1,1v13.4h2.8
			c0.7,0,1,0.3,1,1v0.7c0,0.7-0.4,1-1,1h-8.6c-0.7,0-1-0.3-1-1V402.6z"/>
	</g>
	<g>
		<path fill="#6D6E70" d="M197.3,326.5c0-4.9,1.5-8.8,6.3-8.8c4.8,0,6.3,3.9,6.3,8.8s-1.6,8.8-6.3,8.8
			C198.8,335.4,197.3,331.4,197.3,326.5z M206.6,326.5c0-3.3-0.7-5.9-3.1-5.9c-2.4,0-3.1,2.6-3.1,5.9c0,3.4,0.7,6,3.1,6
			C206,332.5,206.6,329.9,206.6,326.5z"/>
		<path fill="#6D6E70" d="M212,333c0-0.6,0.3-1,1-1h1.1c0.7,0,1,0.3,1,1v1.1c0,0.7-0.4,1-1,1H213c-0.7,0-1-0.3-1-1V333z"/>
		<path fill="#6D6E70" d="M218.4,332.9c0.2-0.7,0.6-0.7,1.2-0.6c0.4,0.1,0.9,0.3,1.6,0.3c2.8,0,4.3-2.3,4.7-4.7h0
			c-0.6,0.8-2,1.4-3.6,1.4c-3.2,0-5.4-2.6-5.4-5.6c0-3.2,2.3-5.8,5.7-5.8c3.7,0,6.8,3,6.8,8c0,4.6-2.6,9.6-8,9.6
			c-1,0-2.1-0.2-2.6-0.4c-0.6-0.2-0.8-0.6-0.6-1.2L218.4,332.9z M226.1,324.6c0-1.7-1.5-4-3.4-4c-1.6,0-2.6,1.2-2.6,2.9
			c0,1.7,1.1,3.1,3.3,3.1C224.9,326.6,226.1,325.8,226.1,324.6z"/>
	</g>
	<g>
		<path fill="#6D6E70" d="M388.3,386.6c0-4.9,1.5-8.8,6.3-8.8c4.8,0,6.3,3.9,6.3,8.8s-1.6,8.8-6.3,8.8
			C389.8,395.5,388.3,391.5,388.3,386.6z M397.7,386.6c0-3.3-0.7-5.9-3.1-5.9c-2.4,0-3.1,2.6-3.1,5.9c0,3.4,0.7,6,3.1,6
			C397,392.6,397.7,390,397.7,386.6z"/>
		<path fill="#6D6E70" d="M403,393.1c0-0.6,0.3-1,1-1h1.1c0.7,0,1,0.3,1,1v1.1c0,0.7-0.4,1-1,1H404c-0.7,0-1-0.3-1-1V393.1z"/>
		<path fill="#6D6E70" d="M407.9,393.7c0-6.1,8.2-7.1,8.2-10.5c0-1.5-1.2-2.4-2.7-2.4c-1.3,0-2.1,0.7-2.6,1.3
			c-0.5,0.5-1,0.6-1.5,0.2l-0.7-0.5c-0.5-0.4-0.6-0.8-0.3-1.3c0.8-1,2.4-2.6,5.2-2.6c3,0,5.7,1.8,5.7,5c0,5.5-7.8,6.4-8,9.6h7.2
			c0.7,0,1,0.3,1,1v0.7c0,0.7-0.3,1-1,1h-9.6c-0.6,0-1.1-0.3-1.1-1V393.7z"/>
	</g>
	<g>
		<path fill="#6D6E70" d="M471,360.5c0-4.9,1.5-8.8,6.3-8.8c4.8,0,6.3,3.9,6.3,8.8s-1.6,8.8-6.3,8.8
			C472.6,369.4,471,365.4,471,360.5z M480.4,360.5c0-3.3-0.7-5.9-3.1-5.9c-2.4,0-3.1,2.6-3.1,5.9c0,3.4,0.7,6,3.1,6
			C479.7,366.5,480.4,363.9,480.4,360.5z"/>
		<path fill="#6D6E70" d="M485.8,367c0-0.6,0.3-1,1-1h1.1c0.7,0,1,0.3,1,1v1.1c0,0.7-0.4,1-1,1h-1.1c-0.7,0-1-0.3-1-1V367z"/>
		<path fill="#6D6E70" d="M491,366.3l0.5-0.7c0.4-0.6,0.8-0.6,1.4-0.2c0.6,0.4,1.5,1.1,2.9,1.1c1.7,0,3.3-1.1,3.3-2.9
			c0-1.8-1.5-3-3.5-3c-0.9,0-1.6,0.3-2,0.4c-0.5,0.2-0.9,0.2-1.4,0L492,361c-0.6-0.2-0.8-0.6-0.8-1.2l0.6-6.8c0-0.6,0.4-1,1.1-1h7.2
			c0.7,0,1,0.4,1,1v0.7c0,0.6-0.3,1-1,1h-5.4l-0.3,2.8c0,0.5-0.1,0.8-0.1,0.8h0c0,0,0.8-0.4,1.9-0.4c3.9,0,6.1,2.5,6.1,5.6
			c0,3.4-2.7,5.9-6.3,5.9c-2.4,0-4.1-1-4.9-1.7C490.7,367.3,490.7,366.8,491,366.3z"/>
	</g>
	<g>
		<rect x="111" y="39.6" fill="#A6A8AB" width="18.4" height="17.9"/>
		<rect x="333.5" y="39.6" fill="#1D1756" width="18.4" height="17.9"/>
		<g>
			<path fill="#6D6E70" d="M137.7,41.7h5c2.6,0,4.4,1.6,4.4,4.2c0,2.6-1.9,4.3-4.4,4.3h-3.6v5.5h-1.4V41.7z M142.5,49
				c1.9,0,3.2-1.1,3.2-3.1c0-1.9-1.2-3-3.2-3h-3.4V49H142.5z"/>
			<path fill="#6D6E70" d="M149.1,41.7h1.4v11.4c0,1.3,0.6,1.5,1.1,1.5c0.2,0,0.3,0,0.3,0v1.2c0,0-0.2,0-0.5,0
				c-0.9,0-2.4-0.3-2.4-2.5V41.7z"/>
			<path fill="#6D6E70" d="M159.5,49.6h0.6v-0.3c0-1.9-1.1-2.6-2.6-2.6c-1.7,0-2.9,1-2.9,1l-0.7-1c0,0,1.4-1.1,3.7-1.1
				c2.5,0,3.8,1.3,3.8,3.9v6.4h-1.3v-1.1c0-0.5,0-0.8,0-0.8h0c0,0-0.9,2.2-3.4,2.2c-1.7,0-3.5-1-3.5-3
				C153.2,49.7,157.7,49.6,159.5,49.6z M156.9,54.9c2,0,3.2-2,3.2-3.7v-0.4h-0.6c-1.6,0-4.9,0.1-4.9,2.3
				C154.6,53.9,155.4,54.9,156.9,54.9z"/>
			<path fill="#6D6E70" d="M169.1,45.5c2.5,0,3.8,1.4,3.8,1.4l-0.7,1c0,0-1.1-1.2-3-1.2c-2.3,0-4,1.6-4,4c0,2.4,1.8,4,4.1,4
				c2.1,0,3.3-1.4,3.3-1.4l0.6,1.1c0,0-1.4,1.6-4,1.6c-3.1,0-5.4-2.1-5.4-5.3C163.7,47.7,166.1,45.5,169.1,45.5z"/>
			<path fill="#6D6E70" d="M179.8,45.5c2.8,0,4.3,2.1,4.3,4.6c0,0.2,0,0.7,0,0.7h-7.9c0.1,2.6,1.9,4,4,4c1.9,0,3.1-1.2,3.1-1.2
				l0.6,1c0,0-1.5,1.4-3.8,1.4c-3.1,0-5.4-2.2-5.4-5.3C174.7,47.5,177,45.5,179.8,45.5z M182.6,49.7c-0.1-2.1-1.4-3.1-2.9-3.1
				c-1.7,0-3.2,1.1-3.5,3.1H182.6z"/>
			<path fill="#6D6E70" d="M186.4,41.7h1.4v4.9c0,0.5,0,0.8,0,0.8h0c0,0,0.9-1.9,3.5-1.9c2.8,0,4.5,2.2,4.5,5.3
				c0,3.2-1.9,5.3-4.6,5.3c-2.5,0-3.4-2-3.4-2h0c0,0,0,0.3,0,0.8v0.9h-1.4V41.7z M191.1,54.9c1.8,0,3.3-1.5,3.3-4.1
				c0-2.5-1.3-4-3.3-4c-1.7,0-3.3,1.2-3.3,4.1C187.8,52.8,188.9,54.9,191.1,54.9z"/>
			<path fill="#6D6E70" d="M202.9,45.5c3,0,5.4,2.2,5.4,5.2c0,3-2.4,5.3-5.4,5.3c-3,0-5.4-2.3-5.4-5.3
				C197.5,47.7,199.9,45.5,202.9,45.5z M202.9,54.8c2.2,0,4-1.8,4-4.1c0-2.3-1.8-4-4-4c-2.2,0-4,1.7-4,4
				C198.9,53.1,200.7,54.8,202.9,54.8z"/>
			<path fill="#6D6E70" d="M215.9,49.1c0-2.9,0.8-5.5,2.3-7.9h1.3c-1.5,2.4-2.3,5.1-2.3,7.9c0,3,0.8,5.9,2.3,8.6h-1.3
				C216.8,55.3,215.9,52.2,215.9,49.1z"/>
			<path fill="#6D6E70" d="M221.6,45.7h1.4v1.5c0,0.4,0,0.8,0,0.8h0c0.4-0.9,1.7-2.5,4.1-2.5c2.5,0,3.4,1.4,3.4,3.9v6.4h-1.4v-6
				c0-1.6-0.2-3-2.2-3c-1.8,0-3.3,1.2-3.7,2.8c-0.1,0.4-0.2,0.9-0.2,1.4v4.8h-1.4V45.7z"/>
			<path fill="#6D6E70" d="M234.1,47.8h9.5V49h-9.5V47.8z M234.1,51.3h9.5v1.2h-9.5V51.3z"/>
			<path fill="#6D6E70" d="M246.3,51l7.1-9.3h1.5v8.9h2v1.2h-2v3.9h-1.4v-3.9h-7.2V51z M253.5,50.7v-5.9c0-0.6,0.1-1.3,0.1-1.3h0
				c0,0-0.3,0.6-0.7,1.1l-4.8,6.1v0H253.5z"/>
			<path fill="#6D6E70" d="M258.8,54.9c0-4.9,7.4-5.6,7.4-9.4c0-1.5-1.2-2.7-3-2.7c-2.1,0-3.2,1.9-3.2,1.9l-1.1-0.7
				c0,0,1.3-2.5,4.4-2.5c2.7,0,4.4,1.7,4.4,3.9c0,4.7-7.3,5.4-7.3,9.1h7.5v1.2h-9C258.8,55.5,258.8,55.2,258.8,54.9z"/>
			<path fill="#6D6E70" d="M270.2,49.4c0-3.5,1.9-7.9,6.3-7.9c1.6,0,2.6,0.6,2.6,0.6l-0.5,1.2c0,0-0.9-0.5-2.1-0.5
				c-3,0-4.5,2.9-4.8,5.6h0c0.7-1,2.2-1.6,3.6-1.6c2.6,0,4.5,1.9,4.5,4.5c0,2.9-2,4.7-4.5,4.7C272.2,56.1,270.2,53.2,270.2,49.4z
				 M278.4,51.4c0-2-1.3-3.3-3.3-3.3c-1.9,0-3.5,1.3-3.5,2.4c0,1.9,1.5,4.3,3.6,4.3C277.3,54.8,278.4,53.3,278.4,51.4z"/>
			<path fill="#6D6E70" d="M281.4,57.7c1.6-2.7,2.3-5.6,2.3-8.6c0-2.8-0.8-5.4-2.3-7.9h1.3c1.5,2.3,2.3,5,2.3,7.9
				c0,3.2-0.9,6.2-2.3,8.6H281.4z"/>
		</g>
		<g>
			<path fill="#6D6E70" d="M363.3,43h-5.2v-1.2h11.8V43h-5.2v12.8h-1.4V43z"/>
			<path fill="#6D6E70" d="M374.2,45.5c3,0,5.4,2.2,5.4,5.2c0,3-2.4,5.3-5.4,5.3c-3,0-5.4-2.3-5.4-5.3
				C368.8,47.7,371.2,45.5,374.2,45.5z M374.2,54.8c2.2,0,4-1.8,4-4.1c0-2.3-1.8-4-4-4c-2.2,0-4,1.7-4,4
				C370.2,53.1,372,54.8,374.2,54.8z"/>
			<path fill="#6D6E70" d="M382.4,47H381v-1.1h1.4V43h1.4v2.9h2.6V47h-2.6v5c0,2.4,1.5,2.7,2.3,2.7c0.3,0,0.5,0,0.5,0v1.2
				c0,0-0.2,0-0.6,0c-1.2,0-3.6-0.4-3.6-3.7V47z"/>
			<path fill="#6D6E70" d="M394,49.6h0.6v-0.3c0-1.9-1.1-2.6-2.6-2.6c-1.7,0-2.9,1-2.9,1l-0.7-1c0,0,1.4-1.1,3.7-1.1
				c2.5,0,3.8,1.3,3.8,3.9v6.4h-1.3v-1.1c0-0.5,0-0.8,0-0.8h0c0,0-0.9,2.2-3.4,2.2c-1.7,0-3.5-1-3.5-3
				C387.7,49.7,392.3,49.6,394,49.6z M391.5,54.9c2,0,3.2-2,3.2-3.7v-0.4H394c-1.6,0-4.9,0.1-4.9,2.3
				C389.2,53.9,389.9,54.9,391.5,54.9z"/>
			<path fill="#6D6E70" d="M398.9,41.7h1.4v11.4c0,1.3,0.6,1.5,1.1,1.5c0.2,0,0.3,0,0.3,0v1.2c0,0-0.2,0-0.5,0
				c-0.9,0-2.4-0.3-2.4-2.5V41.7z"/>
			<path fill="#6D6E70" d="M416.5,51.3h-5.8l-1.6,4.5h-1.5l5.3-14.1h1.5l5.3,14.1h-1.5L416.5,51.3z M413.6,43.2c0,0-0.3,1.2-0.6,1.8
				l-1.9,5.1h5l-1.9-5.1C414,44.4,413.6,43.2,413.6,43.2L413.6,43.2z"/>
			<path fill="#6D6E70" d="M421.8,41.7h5c2.6,0,4.4,1.6,4.4,4.2c0,2.6-1.9,4.3-4.4,4.3h-3.6v5.5h-1.4V41.7z M426.5,49
				c1.9,0,3.2-1.1,3.2-3.1c0-1.9-1.2-3-3.2-3h-3.4V49H426.5z"/>
			<path fill="#6D6E70" d="M437,43h-5.2v-1.2h11.8V43h-5.2v12.8H437V43z"/>
			<path fill="#6D6E70" d="M445.5,41.7h1.4v14.1h-1.4V41.7z"/>
			<path fill="#6D6E70" d="M457.2,41.5c4.1,0,7.3,3.1,7.3,7.2c0,4.1-3.3,7.4-7.3,7.4c-4.1,0-7.3-3.2-7.3-7.4
				C449.9,44.6,453.1,41.5,457.2,41.5z M457.2,54.8c3.2,0,5.9-2.6,5.9-6.1c0-3.4-2.6-5.9-5.9-5.9c-3.3,0-5.9,2.5-5.9,5.9
				C451.3,52.1,453.9,54.8,457.2,54.8z"/>
			<path fill="#6D6E70" d="M468.1,41.7h1.5l3.8,8.3c0.3,0.7,0.7,1.7,0.7,1.7h0c0,0,0.4-1,0.7-1.7l3.8-8.3h1.5l1.1,14.1h-1.4L479,46
				c-0.1-0.8,0-2,0-2h0c0,0-0.4,1.2-0.8,2l-3.4,7.2h-1.3l-3.4-7.2c-0.3-0.7-0.8-2-0.8-2h0c0,0,0,1.2,0,2l-0.8,9.8H467L468.1,41.7z"
				/>
			<path fill="#6D6E70" d="M483.3,46.4h1.4V44h-1.4v-0.7h1.4V41h0.8v2.3h1.4V44h-1.4v2.4h1.4v0.7h-1.4v2.7h-0.8v-2.7h-1.4V46.4z"/>
			<path fill="#6D6E70" d="M494.5,49.1c0-2.9,0.8-5.5,2.3-7.9h1.3c-1.5,2.4-2.3,5.1-2.3,7.9c0,3,0.8,5.9,2.3,8.6h-1.3
				C495.4,55.3,494.5,52.2,494.5,49.1z"/>
			<path fill="#6D6E70" d="M500.2,45.7h1.4v1.5c0,0.4,0,0.8,0,0.8h0c0.4-0.9,1.7-2.5,4.1-2.5c2.5,0,3.4,1.4,3.4,3.9v6.4h-1.4v-6
				c0-1.6-0.2-3-2.2-3c-1.8,0-3.3,1.2-3.7,2.8c-0.1,0.4-0.2,0.9-0.2,1.4v4.8h-1.4V45.7z"/>
			<path fill="#6D6E70" d="M512.6,47.8h9.5V49h-9.5V47.8z M512.6,51.3h9.5v1.2h-9.5V51.3z"/>
			<path fill="#6D6E70" d="M525.3,54.6h3.2V44.2c0-0.4,0-0.8,0-0.8h0c0,0-0.1,0.3-0.7,0.8l-1.5,1.5l-0.9-0.9l3.3-3.2h1.3v12.8h3.2
				v1.2h-7.8V54.6z"/>
			<path fill="#6D6E70" d="M534.8,48.8c0-4,1.2-7.3,5-7.3c3.7,0,5,3.2,5,7.3c0,4.1-1.2,7.3-5,7.3C536.1,56,534.8,52.8,534.8,48.8z
				 M543.3,48.8c0-3.3-0.8-6-3.5-6c-2.7,0-3.5,2.6-3.5,6c0,3.4,0.8,6,3.5,6C542.5,54.7,543.3,52.1,543.3,48.8z"/>
			<path fill="#6D6E70" d="M547.2,54.9c0-4.9,7.4-5.6,7.4-9.4c0-1.5-1.2-2.7-3-2.7c-2.1,0-3.2,1.9-3.2,1.9l-1.1-0.7
				c0,0,1.3-2.5,4.4-2.5c2.7,0,4.4,1.7,4.4,3.9c0,4.7-7.3,5.4-7.3,9.1h7.5v1.2h-9C547.2,55.5,547.2,55.2,547.2,54.9z"/>
			<path fill="#6D6E70" d="M558.4,54.6h3.2V44.2c0-0.4,0-0.8,0-0.8h0c0,0-0.1,0.3-0.7,0.8l-1.5,1.5l-0.9-0.9l3.3-3.2h1.3v12.8h3.2
				v1.2h-7.8V54.6z"/>
			<path fill="#6D6E70" d="M567.2,57.7c1.6-2.7,2.3-5.6,2.3-8.6c0-2.8-0.8-5.4-2.3-7.9h1.3c1.5,2.3,2.3,5,2.3,7.9
				c0,3.2-0.9,6.2-2.3,8.6H567.2z"/>
		</g>
	</g>
	<g>
		<path fill="#6D6E70" d="M3.1,310.2c-1.7,0-3.1-1.3-3.1-3s1.4-3,3.1-3c1.7,0,3.1,1.4,3.1,3S4.8,310.2,3.1,310.2z M0.3,298.5V297
			l15.5,11.5v1.5L0.3,298.5z M3.1,305.4c-1,0-1.8,0.8-1.8,1.8s0.8,1.7,1.8,1.7c1,0,1.8-0.8,1.8-1.7S4.1,305.4,3.1,305.4z M9.9,299.9
			c0-1.7,1.4-3,3.1-3c1.7,0,3,1.4,3,3s-1.4,3-3,3C11.3,302.9,9.9,301.6,9.9,299.9z M14.8,299.9c0-1-0.8-1.8-1.8-1.8
			c-1,0-1.8,0.8-1.8,1.8s0.8,1.7,1.8,1.7C14,301.6,14.8,300.9,14.8,299.9z"/>
		<path fill="#6D6E70" d="M4.4,283.6c0-3.2,2.5-5.7,5.7-5.7c3.3,0,5.9,2.6,5.9,5.7s-2.5,5.7-5.9,5.7C6.9,289.4,4.4,286.8,4.4,283.6z
			 M14.7,283.6c0-2.3-1.9-4.2-4.5-4.2c-2.5,0-4.4,1.9-4.4,4.2s1.9,4.2,4.4,4.2C12.7,287.9,14.7,286,14.7,283.6z"/>
		<path fill="#6D6E70" d="M6.1,275v1.4H4.8V275H4.3c-3.7,0-4.1-2.5-4.1-3.7c0-0.4,0-0.7,0-0.7h1.3c0,0,0,0.2,0,0.5
			c0,0.8,0.3,2.4,2.8,2.4h0.5v-2.8h1.3v2.8h9.7v1.5H6.1z"/>
		<path fill="#6D6E70" d="M4.7,263.3v-1.4h1.1c0.5,0,0.9,0,0.9,0v0c0,0-2.2-0.9-2.2-3.7c0-2.9,2.4-4.7,5.8-4.7c3.5,0,5.8,2,5.8,4.8
			c0,2.6-2.1,3.5-2.1,3.5v0c0,0,0.4,0,1,0h5.3v1.5H4.7z M14.7,258.4c0-1.9-1.7-3.5-4.5-3.5c-2.7,0-4.4,1.4-4.4,3.4
			c0,1.8,1.3,3.5,4.5,3.5C12.5,261.8,14.7,260.6,14.7,258.4z"/>
		<path fill="#6D6E70" d="M8.9,245.1v-0.6H8.6c-2.1,0-2.9,1.1-2.9,2.7c0,1.8,1.1,3.1,1.1,3.1l-1.1,0.7c0,0-1.3-1.4-1.3-3.8
			c0-2.6,1.5-4,4.2-4h7.1v1.4h-1.2c-0.6,0-0.9,0-0.9,0v0c0,0,2.4,0.9,2.4,3.6c0,1.8-1.1,3.7-3.3,3.7C9,251.7,8.9,246.9,8.9,245.1z
			 M14.7,247.8c0-2.1-2.2-3.3-4.1-3.3h-0.5v0.6c0,1.7,0.1,5.1,2.5,5.1C13.7,250.2,14.7,249.4,14.7,247.8z"/>
		<path fill="#6D6E70" d="M6.1,239.5v1.4H4.8v-1.4H1.6v-1.4h3.2v-2.7h1.3v2.7h5.5c2.6,0,2.9-1.6,2.9-2.4c0-0.3,0-0.5,0-0.5h1.3
			c0,0,0,0.2,0,0.6c0,1.2-0.4,3.8-4.1,3.8H6.1z"/>
		<path fill="#6D6E70" d="M0.3,233v-1.5h1.9v1.5H0.3z M4.7,232.9v-1.5h11.1v1.5H4.7z"/>
		<path fill="#6D6E70" d="M4.4,223.6c0-3,2.4-4.5,5.1-4.5c0.3,0,0.8,0,0.8,0v8.3c2.8-0.1,4.4-2,4.4-4.2c0-2-1.3-3.3-1.3-3.3l1.1-0.7
			c0,0,1.5,1.6,1.5,4c0,3.2-2.4,5.7-5.8,5.7C6.6,228.9,4.4,226.5,4.4,223.6z M9,220.6c-2.3,0.1-3.4,1.5-3.4,3.1
			c0,1.8,1.2,3.4,3.4,3.7V220.6z"/>
		<path fill="#6D6E70" d="M4.7,216.5v-1.4h1.6c0.5,0,0.9,0,0.9,0v0c-1-0.4-2.8-1.8-2.8-4.3c0-2.7,1.6-3.6,4.3-3.6h7v1.5H9.1
			c-1.7,0-3.3,0.3-3.3,2.3c0,1.8,1.3,3.4,3.1,3.9c0.5,0.1,1,0.2,1.5,0.2h5.3v1.5H4.7z"/>
		<path fill="#6D6E70" d="M6.1,203.6v1.4H4.8v-1.4H1.6v-1.4h3.2v-2.7h1.3v2.7h5.5c2.6,0,2.9-1.6,2.9-2.4c0-0.3,0-0.5,0-0.5h1.3
			c0,0,0,0.2,0,0.6c0,1.2-0.4,3.8-4.1,3.8H6.1z"/>
		<path fill="#6D6E70" d="M13.3,197.1c0,0,1.3-1.2,1.3-3.2c0-1.2-0.6-2.2-1.8-2.2c-2.4,0-1.8,5.8-5.4,5.8c-2,0-3.1-1.7-3.1-3.7
			c0-2.3,1.2-3.3,1.2-3.3l1.1,0.7c0,0-1,0.9-1,2.7c0,1.1,0.5,2.1,1.7,2.1c2.4,0,1.8-5.8,5.4-5.8c1.8,0,3.1,1.5,3.1,3.7
			c0,2.6-1.6,4-1.6,4L13.3,197.1z"/>
	</g>
</g>
</svg>
