<?xml version="1.0" encoding="utf-8"?>
<!-- Generator: Adobe Illustrator 18.1.1, SVG Export Plug-In . SVG Version: 6.00 Build 0)  -->
<svg version="1.1" id="Layer_1" xmlns="http://www.w3.org/2000/svg" xmlns:xlink="http://www.w3.org/1999/xlink" x="0px" y="0px"
	 viewBox="0 0 1410.9 641.3" enable-background="new 0 0 1410.9 641.3" xml:space="preserve">
<g>
	<g>
		
			<line fill="none" stroke="#929497" stroke-width="2.5738" stroke-linecap="round" stroke-miterlimit="10" stroke-dasharray="0.1716,6.8636" x1="582.5" y1="552.7" x2="1397.2" y2="552.7"/>
		<g>
			<polygon fill="#929497" points="584.9,561.1 570.5,552.7 584.9,544.4 			"/>
		</g>
		<g>
			<polygon fill="#929497" points="1394.7,561.1 1409.2,552.7 1394.7,544.4 			"/>
		</g>
	</g>
</g>
<g>
	<g>
		
			<line fill="none" stroke="#929497" stroke-width="2.5738" stroke-linecap="round" stroke-miterlimit="10" stroke-dasharray="0.1716,6.8636" x1="392.3" y1="609.2" x2="1397.2" y2="609.2"/>
		<g>
			<polygon fill="#929497" points="394.7,617.6 380.3,609.2 394.7,600.9 			"/>
		</g>
		<g>
			<polygon fill="#929497" points="1394.7,617.6 1409.2,609.2 1394.7,600.9 			"/>
		</g>
	</g>
</g>
<g>
	<rect x="1073.2" y="14.6" fill="#211646" width="336" height="128.1"/>
	<g>
		<path fill="#FFFFFF" d="M1092.6,41.7c0,0,1.8,1.8,4.4,1.8c1.8,0,3.4-1.1,3.4-2.9c0-4.2-8.4-3.2-8.4-8.4c0-2.4,2.1-4.5,5.3-4.5
			c2.9,0,4.5,1.6,4.5,1.6l-0.8,1.4c0,0-1.5-1.4-3.7-1.4c-2.2,0-3.6,1.4-3.6,2.9c0,4,8.4,2.9,8.4,8.4c0,2.5-1.9,4.6-5.1,4.6
			c-3.5,0-5.4-2.2-5.4-2.2L1092.6,41.7z"/>
		<path fill="#FFFFFF" d="M1111.8,37.4h0.7v-0.3c0-2.3-1.3-3.1-3-3.1c-2,0-3.4,1.2-3.4,1.2l-0.8-1.2c0,0,1.6-1.4,4.3-1.4
			c2.9,0,4.5,1.6,4.5,4.6v7.7h-1.6v-1.3c0-0.6,0-1,0-1h0c0,0-1,2.6-4,2.6c-2,0-4.1-1.2-4.1-3.6C1104.4,37.5,1109.7,37.4,1111.8,37.4
			z M1108.7,43.7c2.3,0,3.7-2.4,3.7-4.5v-0.5h-0.7c-1.9,0-5.7,0.1-5.7,2.7C1106,42.6,1106.9,43.7,1108.7,43.7z"/>
		<path fill="#FFFFFF" d="M1118.4,34.3h-1.5v-1.4h1.5v-0.6c0-4,2.8-4.5,4.2-4.5c0.5,0,0.7,0,0.7,0v1.5c0,0-0.2,0-0.6,0
			c-0.9,0-2.7,0.3-2.7,3v0.6h3.1v1.4h-3.1v10.6h-1.6V34.3z"/>
		<path fill="#FFFFFF" d="M1130.6,32.5c3.3,0,5,2.6,5,5.6c0,0.3,0,0.8,0,0.8h-9.3c0.1,3.1,2.2,4.8,4.7,4.8c2.2,0,3.7-1.5,3.7-1.5
			l0.7,1.2c0,0-1.8,1.7-4.5,1.7c-3.6,0-6.3-2.6-6.3-6.3C1124.7,34.9,1127.3,32.5,1130.6,32.5z M1134,37.5c-0.1-2.5-1.6-3.7-3.4-3.7
			c-2,0-3.8,1.3-4.2,3.7H1134z"/>
		<path fill="#FFFFFF" d="M1139.2,34.3h-1.6v-1.4h1.6v-3.5h1.6v3.5h3v1.4h-3v6c0,2.8,1.8,3.2,2.7,3.2c0.3,0,0.6,0,0.6,0v1.5
			c0,0-0.3,0-0.7,0c-1.4,0-4.2-0.5-4.2-4.5V34.3z"/>
		<path fill="#FFFFFF" d="M1145.6,47.9c0,0,0.7,0.6,1.4,0.6c1.1,0,1.8-0.9,2.3-2l0.7-1.7l-5-12h1.8l3.6,8.8c0.2,0.6,0.4,1.3,0.4,1.3
			h0c0,0,0.2-0.7,0.4-1.3l3.5-8.8h1.8l-6,14.6c-0.6,1.5-1.9,2.5-3.5,2.5c-1.2,0-2.1-0.7-2.1-0.7L1145.6,47.9z"/>
		<path fill="#FFFFFF" d="M1171.7,37.4h0.7v-0.3c0-2.3-1.3-3.1-3-3.1c-2,0-3.4,1.2-3.4,1.2l-0.8-1.2c0,0,1.6-1.4,4.3-1.4
			c2.9,0,4.5,1.6,4.5,4.6v7.7h-1.6v-1.3c0-0.6,0-1,0-1h0c0,0-1,2.6-4,2.6c-2,0-4.1-1.2-4.1-3.6C1164.3,37.5,1169.6,37.4,1171.7,37.4
			z M1168.6,43.7c2.3,0,3.7-2.4,3.7-4.5v-0.5h-0.7c-1.9,0-5.7,0.1-5.7,2.7C1165.9,42.6,1166.8,43.7,1168.6,43.7z"/>
		<path fill="#FFFFFF" d="M1177.7,32.8h1.6v1.8c0,0.5,0,1,0,1h0c0.4-1.1,2-3,4.8-3c3,0,4,1.7,4,4.7v7.7h-1.6v-7.2
			c0-1.9-0.3-3.6-2.6-3.6c-2.1,0-3.8,1.4-4.4,3.4c-0.1,0.5-0.2,1.1-0.2,1.6v5.8h-1.6V32.8z"/>
		<path fill="#FFFFFF" d="M1198.4,37.4h0.7v-0.3c0-2.3-1.3-3.1-3-3.1c-2,0-3.4,1.2-3.4,1.2l-0.8-1.2c0,0,1.6-1.4,4.3-1.4
			c2.9,0,4.5,1.6,4.5,4.6v7.7h-1.6v-1.3c0-0.6,0-1,0-1h0c0,0-1,2.6-4,2.6c-2,0-4.1-1.2-4.1-3.6C1191,37.5,1196.3,37.4,1198.4,37.4z
			 M1195.3,43.7c2.3,0,3.7-2.4,3.7-4.5v-0.5h-0.7c-1.9,0-5.7,0.1-5.7,2.7C1192.7,42.6,1193.5,43.7,1195.3,43.7z"/>
		<path fill="#FFFFFF" d="M1204.3,28h1.6v13.7c0,1.6,0.7,1.8,1.3,1.8c0.2,0,0.4,0,0.4,0v1.5c0,0-0.3,0-0.6,0c-1,0-2.8-0.3-2.8-3V28z
			"/>
		<path fill="#FFFFFF" d="M1209.2,47.9c0,0,0.7,0.6,1.4,0.6c1.1,0,1.8-0.9,2.3-2l0.7-1.7l-5-12h1.8l3.6,8.8c0.2,0.6,0.4,1.3,0.4,1.3
			h0c0,0,0.2-0.7,0.4-1.3l3.5-8.8h1.8l-6,14.6c-0.6,1.5-1.9,2.5-3.5,2.5c-1.2,0-2.1-0.7-2.1-0.7L1209.2,47.9z"/>
		<path fill="#FFFFFF" d="M1222.2,42.2c0,0,1.3,1.5,3.6,1.5c1.3,0,2.4-0.6,2.4-1.9c0-2.6-6.5-2-6.5-5.9c0-2.2,1.9-3.3,4.1-3.3
			c2.5,0,3.7,1.3,3.7,1.3l-0.7,1.2c0,0-1-1.1-3-1.1c-1.2,0-2.4,0.5-2.4,1.9c0,2.7,6.5,1.9,6.5,5.9c0,2-1.7,3.4-4.1,3.4
			c-2.9,0-4.5-1.8-4.5-1.8L1222.2,42.2z"/>
		<path fill="#FFFFFF" d="M1232.9,28h1.7v2h-1.7V28z M1233,32.8h1.6v12.1h-1.6V32.8z"/>
		<path fill="#FFFFFF" d="M1238.4,42.2c0,0,1.3,1.5,3.6,1.5c1.3,0,2.4-0.6,2.4-1.9c0-2.6-6.5-2-6.5-5.9c0-2.2,1.9-3.3,4.1-3.3
			c2.5,0,3.7,1.3,3.7,1.3l-0.7,1.2c0,0-1-1.1-3-1.1c-1.2,0-2.4,0.5-2.4,1.9c0,2.7,6.5,1.9,6.5,5.9c0,2-1.7,3.4-4.1,3.4
			c-2.9,0-4.5-1.8-4.5-1.8L1238.4,42.2z"/>
		<path fill="#FFFFFF" d="M1249.8,32.8h1.9v1.9h-1.9V32.8z M1249.8,42.9h1.9v1.9h-1.9V42.9z"/>
		<path fill="#FFFFFF" d="M1091.7,70.3c0-6.1,8-7.1,8-10.5c0-1.5-1.2-2.4-2.6-2.4c-2,0-3.1,2-3.1,2l-2.3-1.5c0,0,1.6-3.4,5.6-3.4
			c3,0,5.5,1.8,5.5,5c0,5.5-7.6,6.4-7.7,9.6h8v2.7h-11.3C1091.7,71.3,1091.7,70.8,1091.7,70.3z"/>
		<path fill="#FFFFFF" d="M1106.3,63.7h7.2v2.7h-7.2V63.7z"/>
		<path fill="#FFFFFF" d="M1115.7,59.6h3.2l2.1,8c0.2,0.6,0.2,1.3,0.2,1.3h0c0,0,0.1-0.6,0.3-1.3l2.3-8h2.7l2.3,8
			c0.2,0.6,0.3,1.3,0.3,1.3h0c0,0,0.1-0.6,0.3-1.3l2.1-8h3.2l-3.7,12.2h-3.4l-2.1-7c-0.2-0.6-0.3-1.3-0.3-1.3h0c0,0-0.1,0.7-0.3,1.3
			l-2.1,7h-3.4L1115.7,59.6z"/>
		<path fill="#FFFFFF" d="M1142.1,59.3c3.5,0,5.4,2.6,5.4,5.8c0,0.4-0.1,1.2-0.1,1.2h-8.4c0.2,2.1,1.8,3.2,3.7,3.2
			c2,0,3.5-1.3,3.5-1.3l1.2,2.2c0,0-1.9,1.8-4.9,1.8c-4.1,0-6.6-2.9-6.6-6.4C1135.9,62,1138.4,59.3,1142.1,59.3z M1144.4,64.2
			c0-1.7-1.1-2.5-2.4-2.5c-1.6,0-2.6,1-2.9,2.5H1144.4z"/>
		<path fill="#FFFFFF" d="M1155.4,59.3c3.5,0,5.4,2.6,5.4,5.8c0,0.4-0.1,1.2-0.1,1.2h-8.4c0.2,2.1,1.8,3.2,3.7,3.2
			c2,0,3.5-1.3,3.5-1.3l1.2,2.2c0,0-1.9,1.8-4.9,1.8c-4.1,0-6.6-2.9-6.6-6.4C1149.2,62,1151.7,59.3,1155.4,59.3z M1157.7,64.2
			c0-1.7-1.1-2.5-2.4-2.5c-1.6,0-2.6,1-2.9,2.5H1157.7z"/>
		<path fill="#FFFFFF" d="M1163.3,54.8h3v9.1h1.5l3-4.3h3.4l-3.9,5.5v0l4.3,6.7h-3.5l-3.2-5.4h-1.6v5.4h-3V54.8z"/>
		<path fill="#FFFFFF" d="M1182.9,62.2h-1.6v-2.4h1.7v-3.5h3v3.5h2.8v2.4h-2.8V67c0,2,1.6,2.3,2.4,2.3c0.3,0,0.6,0,0.6,0v2.7
			c0,0-0.4,0.1-0.9,0.1c-1.7,0-5.1-0.5-5.1-4.6V62.2z"/>
		<path fill="#FFFFFF" d="M1191.5,54.8h3v2.7h-3V54.8z M1191.5,59.6h3v12.2h-3V59.6z"/>
		<path fill="#FFFFFF" d="M1198.4,62.2h-1.6v-2.4h1.7v-3.5h3v3.5h2.8v2.4h-2.8V67c0,2,1.6,2.3,2.4,2.3c0.3,0,0.6,0,0.6,0v2.7
			c0,0-0.4,0.1-0.9,0.1c-1.7,0-5.1-0.5-5.1-4.6V62.2z"/>
		<path fill="#FFFFFF" d="M1206.9,59.6h2.9v2.1c0,0.5,0,0.9,0,0.9h0c0.6-1.8,2-3.1,3.9-3.1c0.3,0,0.6,0,0.6,0v3c0,0-0.3,0-0.7,0
			c-1.3,0-2.8,0.7-3.3,2.6c-0.2,0.6-0.3,1.3-0.3,2v4.8h-3V59.6z"/>
		<path fill="#FFFFFF" d="M1222.6,64.2h0.4V64c0-1.6-1-2.2-2.4-2.2c-1.8,0-3.4,1.2-3.4,1.2l-1.2-2.2c0,0,1.9-1.5,4.8-1.5
			c3.2,0,5.1,1.8,5.1,4.9v7.7h-2.8v-1c0-0.5,0-0.9,0-0.9h0c0,0-0.9,2.2-3.7,2.2c-2.2,0-4.2-1.4-4.2-3.8
			C1215.3,64.4,1220.6,64.2,1222.6,64.2z M1220.2,69.8c1.6,0,2.8-1.7,2.8-3.2v-0.3h-0.5c-1.6,0-4.1,0.2-4.1,1.9
			C1218.4,69,1219,69.8,1220.2,69.8z"/>
		<path fill="#FFFFFF" d="M1229.7,62.2h-1.6v-2.4h1.7v-3.5h3v3.5h2.8v2.4h-2.8V67c0,2,1.6,2.3,2.4,2.3c0.3,0,0.6,0,0.6,0v2.7
			c0,0-0.4,0.1-0.9,0.1c-1.7,0-5.1-0.5-5.1-4.6V62.2z"/>
		<path fill="#FFFFFF" d="M1238.2,54.8h3v2.7h-3V54.8z M1238.2,59.6h3v12.2h-3V59.6z"/>
		<path fill="#FFFFFF" d="M1250.4,59.3c3.7,0,6.7,2.7,6.7,6.4c0,3.8-3,6.4-6.7,6.4c-3.7,0-6.7-2.6-6.7-6.4
			C1243.7,62,1246.7,59.3,1250.4,59.3z M1250.4,69.5c2,0,3.6-1.5,3.6-3.8c0-2.3-1.7-3.8-3.6-3.8c-2,0-3.6,1.6-3.6,3.8
			C1246.8,68,1248.5,69.5,1250.4,69.5z"/>
		<path fill="#FFFFFF" d="M1259.6,59.6h2.9V61c0,0.5,0,0.8,0,0.8h0c0.5-1,1.9-2.5,4.3-2.5c2.7,0,4.2,1.4,4.2,4.7v7.9h-3v-7.2
			c0-1.5-0.4-2.5-1.9-2.5c-1.6,0-2.8,1-3.3,2.5c-0.2,0.5-0.2,1.1-0.2,1.6v5.6h-3V59.6z"/>
		<path fill="#FFFFFF" d="M1091.7,91c0-4.5,2.6-9.5,7.8-9.5c2.2,0,3.5,0.7,3.5,0.7l-0.9,2.7c0,0-1.1-0.5-2.4-0.5
			c-2.7,0-4.1,2.2-4.5,4.6h0c0.6-0.7,2-1.2,3.2-1.2c3.4,0,5.5,2.6,5.5,5.7c0,3.2-2.2,5.7-5.6,5.7C1094.8,99.1,1091.7,96.2,1091.7,91
			z M1100.9,93.4c0-1.7-1.1-3.1-3.1-3.1c-1.5,0-2.8,0.8-2.8,1.8c0,2.1,1.6,4.2,3.4,4.2C1099.9,96.3,1100.9,95,1100.9,93.4z"/>
		<path fill="#FFFFFF" d="M1106.8,90.7h7.2v2.7h-7.2V90.7z"/>
		<path fill="#FFFFFF" d="M1116.3,86.6h3.2l2.1,8c0.2,0.6,0.2,1.3,0.2,1.3h0c0,0,0.1-0.6,0.3-1.3l2.3-8h2.7l2.3,8
			c0.2,0.6,0.3,1.3,0.3,1.3h0c0,0,0.1-0.6,0.3-1.3l2.1-8h3.2l-3.7,12.2h-3.4l-2.1-7c-0.2-0.6-0.3-1.3-0.3-1.3h0c0,0-0.1,0.7-0.3,1.3
			l-2.1,7h-3.4L1116.3,86.6z"/>
		<path fill="#FFFFFF" d="M1142.7,86.3c3.5,0,5.4,2.6,5.4,5.8c0,0.4-0.1,1.2-0.1,1.2h-8.4c0.2,2.1,1.8,3.2,3.7,3.2
			c2,0,3.5-1.3,3.5-1.3l1.2,2.2c0,0-1.9,1.8-4.9,1.8c-4.1,0-6.6-2.9-6.6-6.4C1136.4,89,1139,86.3,1142.7,86.3z M1145,91.2
			c0-1.7-1.1-2.5-2.4-2.5c-1.6,0-2.6,1-2.9,2.5H1145z"/>
		<path fill="#FFFFFF" d="M1156,86.3c3.5,0,5.4,2.6,5.4,5.8c0,0.4-0.1,1.2-0.1,1.2h-8.4c0.2,2.1,1.8,3.2,3.7,3.2
			c2,0,3.5-1.3,3.5-1.3l1.2,2.2c0,0-1.9,1.8-4.9,1.8c-4.1,0-6.6-2.9-6.6-6.4C1149.7,89,1152.3,86.3,1156,86.3z M1158.3,91.2
			c0-1.7-1.1-2.5-2.4-2.5c-1.6,0-2.6,1-2.9,2.5H1158.3z"/>
		<path fill="#FFFFFF" d="M1163.9,81.8h3v9.1h1.5l3-4.3h3.4l-3.9,5.5v0l4.3,6.7h-3.5l-3.2-5.4h-1.6v5.4h-3V81.8z"/>
		<path fill="#FFFFFF" d="M1191.9,94.5h-6l-1.4,4.4h-3.2l6-17h3.2l6,17h-3.2L1191.9,94.5z M1188.9,84.8c0,0-0.4,1.7-0.7,2.6
			l-1.5,4.6h4.5l-1.5-4.6C1189.3,86.4,1189,84.8,1188.9,84.8L1188.9,84.8z"/>
		<path fill="#FFFFFF" d="M1198.7,81.8h10.2v2.7h-7.1v4.5h5.7v2.7h-5.7v4.6h7.5v2.7h-10.6V81.8z"/>
		<path fill="#FFFFFF" d="M1212.5,81.8h5.8c5.3,0,8.7,3.1,8.7,8.5s-3.4,8.5-8.7,8.5h-5.8V81.8z M1218.2,96.2c3.5,0,5.7-2,5.7-5.9
			c0-3.8-2.3-5.8-5.7-5.8h-2.5v11.7H1218.2z"/>
		<path fill="#FFFFFF" d="M1234.3,86.6h3.2l2.1,8c0.2,0.6,0.2,1.3,0.2,1.3h0c0,0,0.1-0.6,0.3-1.3l2.3-8h2.7l2.3,8
			c0.2,0.6,0.3,1.3,0.3,1.3h0c0,0,0.1-0.6,0.3-1.3l2.1-8h3.2l-3.7,12.2h-3.4l-2.1-7c-0.2-0.6-0.3-1.3-0.3-1.3h0c0,0-0.1,0.7-0.3,1.3
			l-2.1,7h-3.4L1234.3,86.6z"/>
		<path fill="#FFFFFF" d="M1255.3,81.8h3v2.7h-3V81.8z M1255.3,86.6h3v12.2h-3V86.6z"/>
		<path fill="#FFFFFF" d="M1262.3,89.2h-1.6v-2.4h1.7v-3.5h3v3.5h2.8v2.4h-2.8V94c0,2,1.6,2.3,2.4,2.3c0.3,0,0.6,0,0.6,0v2.7
			c0,0-0.4,0.1-0.9,0.1c-1.7,0-5.1-0.5-5.1-4.6V89.2z"/>
		<path fill="#FFFFFF" d="M1270.8,81.8h3v5.9c0,0.6,0,1,0,1h0c0.6-1.2,2.1-2.4,4.2-2.4c2.7,0,4.2,1.4,4.2,4.7v7.9h-3v-7.2
			c0-1.5-0.4-2.5-1.9-2.5c-1.6,0-2.9,1.1-3.3,2.5c-0.1,0.5-0.2,1-0.2,1.6v5.6h-3V81.8z"/>
		<path fill="#FFFFFF" d="M1290.2,86.3c2.7,0,3.5,1.6,3.5,1.6h0c0,0,0-0.3,0-0.7v-5.4h3v17h-2.9v-1c0-0.5,0-0.8,0-0.8h0
			c0,0-1,2.1-3.8,2.1c-3.3,0-5.4-2.6-5.4-6.4C1284.7,88.8,1287,86.3,1290.2,86.3z M1290.8,96.6c1.6,0,3.1-1.2,3.1-3.9
			c0-1.9-1-3.8-3-3.8c-1.7,0-3.1,1.4-3.1,3.8C1287.7,95.1,1289,96.6,1290.8,96.6z"/>
		<path fill="#FFFFFF" d="M1300.2,86.6h2.9v2.1c0,0.5,0,0.9,0,0.9h0c0.6-1.8,2-3.1,3.9-3.1c0.3,0,0.6,0,0.6,0v3c0,0-0.3,0-0.7,0
			c-1.3,0-2.8,0.7-3.3,2.6c-0.2,0.6-0.3,1.3-0.3,2v4.8h-3V86.6z"/>
		<path fill="#FFFFFF" d="M1315.8,91.2h0.4V91c0-1.6-1-2.2-2.4-2.2c-1.8,0-3.4,1.2-3.4,1.2l-1.2-2.2c0,0,1.9-1.5,4.8-1.5
			c3.2,0,5.1,1.8,5.1,4.9v7.7h-2.8v-1c0-0.5,0-0.9,0-0.9h0c0,0-0.9,2.2-3.7,2.2c-2.2,0-4.2-1.4-4.2-3.8
			C1308.6,91.4,1313.8,91.2,1315.8,91.2z M1313.5,96.8c1.6,0,2.8-1.7,2.8-3.2v-0.3h-0.5c-1.6,0-4.1,0.2-4.1,1.9
			C1311.6,96,1312.2,96.8,1313.5,96.8z"/>
		<path fill="#FFFFFF" d="M1321.1,86.6h3.2l2.1,8c0.2,0.6,0.2,1.3,0.2,1.3h0c0,0,0.1-0.6,0.3-1.3l2.3-8h2.7l2.3,8
			c0.2,0.6,0.3,1.3,0.3,1.3h0c0,0,0.1-0.6,0.3-1.3l2.1-8h3.2l-3.7,12.2h-3.4l-2.1-7c-0.2-0.6-0.3-1.3-0.3-1.3h0c0,0-0.1,0.7-0.3,1.3
			l-2.1,7h-3.4L1321.1,86.6z"/>
		<path fill="#FFFFFF" d="M1348.3,91.2h0.4V91c0-1.6-1-2.2-2.4-2.2c-1.8,0-3.4,1.2-3.4,1.2l-1.2-2.2c0,0,1.9-1.5,4.8-1.5
			c3.2,0,5.1,1.8,5.1,4.9v7.7h-2.8v-1c0-0.5,0-0.9,0-0.9h0c0,0-0.9,2.2-3.7,2.2c-2.2,0-4.2-1.4-4.2-3.8
			C1341.1,91.4,1346.3,91.2,1348.3,91.2z M1346,96.8c1.6,0,2.8-1.7,2.8-3.2v-0.3h-0.5c-1.6,0-4.1,0.2-4.1,1.9
			C1344.2,96,1344.8,96.8,1346,96.8z"/>
		<path fill="#FFFFFF" d="M1354.8,81.8h3v12.8c0,1.3,0.5,1.7,1.2,1.7c0.2,0,0.5,0,0.5,0v2.7c0,0-0.5,0.1-1,0.1
			c-1.7,0-3.8-0.4-3.8-3.9V81.8z"/>
		<path fill="#FFFFFF" d="M1091.8,123.2h3.7v-9.5c0-0.6,0-1.2,0-1.2h0c0,0-0.2,0.4-0.7,1l-1.4,1.3l-1.8-1.9l4.3-4.1h2.7v14.4h3.7
			v2.7h-10.4V123.2z"/>
		<path fill="#FFFFFF" d="M1104.1,117.3c0-4.9,1.5-8.8,6.2-8.8c4.7,0,6.2,3.9,6.2,8.8s-1.5,8.8-6.2,8.8
			C1105.6,126.1,1104.1,122.2,1104.1,117.3z M1113.3,117.3c0-3.3-0.7-5.9-3-5.9c-2.3,0-3,2.6-3,5.9c0,3.4,0.7,6,3,6
			C1112.6,123.3,1113.3,120.7,1113.3,117.3z"/>
		<path fill="#FFFFFF" d="M1119.7,117.7h7.2v2.7h-7.2V117.7z"/>
		<path fill="#FFFFFF" d="M1129.1,113.6h3.2l2.1,8c0.2,0.6,0.2,1.3,0.2,1.3h0c0,0,0.1-0.6,0.3-1.3l2.3-8h2.7l2.3,8
			c0.2,0.6,0.3,1.3,0.3,1.3h0c0,0,0.1-0.6,0.3-1.3l2.1-8h3.2l-3.7,12.2h-3.4l-2.1-7c-0.2-0.6-0.3-1.3-0.3-1.3h0c0,0-0.1,0.7-0.3,1.3
			l-2.1,7h-3.4L1129.1,113.6z"/>
		<path fill="#FFFFFF" d="M1155.5,113.3c3.5,0,5.4,2.6,5.4,5.8c0,0.4-0.1,1.2-0.1,1.2h-8.4c0.2,2.1,1.8,3.2,3.7,3.2
			c2,0,3.5-1.3,3.5-1.3l1.2,2.2c0,0-1.9,1.8-4.9,1.8c-4.1,0-6.6-2.9-6.6-6.4C1149.3,116,1151.9,113.3,1155.5,113.3z M1157.9,118.2
			c0-1.7-1.1-2.5-2.4-2.5c-1.6,0-2.6,1-2.9,2.5H1157.9z"/>
		<path fill="#FFFFFF" d="M1168.8,113.3c3.5,0,5.4,2.6,5.4,5.8c0,0.4-0.1,1.2-0.1,1.2h-8.4c0.2,2.1,1.8,3.2,3.7,3.2
			c2,0,3.5-1.3,3.5-1.3l1.2,2.2c0,0-1.9,1.8-4.9,1.8c-4.1,0-6.6-2.9-6.6-6.4C1162.6,116,1165.2,113.3,1168.8,113.3z M1171.2,118.2
			c0-1.7-1.1-2.5-2.4-2.5c-1.6,0-2.6,1-2.9,2.5H1171.2z"/>
		<path fill="#FFFFFF" d="M1176.8,108.8h3v9.1h1.5l3-4.3h3.4l-3.9,5.5v0l4.3,6.7h-3.5l-3.2-5.4h-1.6v5.4h-3V108.8z"/>
		<path fill="#FFFFFF" d="M1195.9,113.6h2.9v1.4c0,0.5,0,0.8,0,0.8h0c0.6-1.2,2.1-2.5,4-2.5c1.9,0,3.1,0.9,3.6,2.5h0
			c0.7-1.3,2.3-2.5,4.2-2.5c2.5,0,4,1.4,4,4.7v7.9h-3v-7.3c0-1.4-0.3-2.4-1.7-2.4c-1.6,0-2.6,1.2-3,2.8c-0.1,0.5-0.1,1-0.1,1.6v5.4
			h-3v-7.3c0-1.3-0.2-2.4-1.7-2.4c-1.6,0-2.6,1.2-3,2.8c-0.1,0.5-0.1,1-0.1,1.6v5.4h-3V113.6z"/>
		<path fill="#FFFFFF" d="M1223.6,113.3c3.7,0,6.7,2.7,6.7,6.4c0,3.8-3,6.4-6.7,6.4c-3.7,0-6.7-2.6-6.7-6.4
			C1216.9,116,1219.9,113.3,1223.6,113.3z M1223.6,123.5c2,0,3.6-1.5,3.6-3.8c0-2.3-1.7-3.8-3.6-3.8c-2,0-3.6,1.6-3.6,3.8
			C1220,122,1221.6,123.5,1223.6,123.5z"/>
		<path fill="#FFFFFF" d="M1232.8,113.6h2.9v1.4c0,0.5,0,0.8,0,0.8h0c0.5-1,1.9-2.5,4.3-2.5c2.7,0,4.2,1.4,4.2,4.7v7.9h-3v-7.2
			c0-1.5-0.4-2.5-1.9-2.5c-1.6,0-2.8,1-3.3,2.5c-0.2,0.5-0.2,1.1-0.2,1.6v5.6h-3V113.6z"/>
		<path fill="#FFFFFF" d="M1253.3,113.3c3.7,0,6.7,2.7,6.7,6.4c0,3.8-3,6.4-6.7,6.4c-3.7,0-6.7-2.6-6.7-6.4
			C1246.6,116,1249.6,113.3,1253.3,113.3z M1253.3,123.5c2,0,3.6-1.5,3.6-3.8c0-2.3-1.7-3.8-3.6-3.8c-2,0-3.6,1.6-3.6,3.8
			C1249.7,122,1251.3,123.5,1253.3,123.5z"/>
		<path fill="#FFFFFF" d="M1263,116.2h-1.6v-2.4h1.7v-3.5h3v3.5h2.8v2.4h-2.8v4.8c0,2,1.6,2.3,2.4,2.3c0.3,0,0.6,0,0.6,0v2.7
			c0,0-0.4,0.1-0.9,0.1c-1.7,0-5.1-0.5-5.1-4.6V116.2z"/>
		<path fill="#FFFFFF" d="M1271.5,108.8h3v5.9c0,0.6,0,1,0,1h0c0.6-1.2,2.1-2.4,4.2-2.4c2.7,0,4.2,1.4,4.2,4.7v7.9h-3v-7.2
			c0-1.5-0.4-2.5-1.9-2.5c-1.6,0-2.9,1.1-3.3,2.5c-0.1,0.5-0.2,1-0.2,1.6v5.6h-3V108.8z"/>
		<path fill="#FFFFFF" d="M1291.6,113.3c3.5,0,5.4,2.6,5.4,5.8c0,0.4-0.1,1.2-0.1,1.2h-8.4c0.2,2.1,1.8,3.2,3.7,3.2
			c2,0,3.5-1.3,3.5-1.3l1.2,2.2c0,0-1.9,1.8-4.9,1.8c-4.1,0-6.6-2.9-6.6-6.4C1285.4,116,1288,113.3,1291.6,113.3z M1294,118.2
			c0-1.7-1.1-2.5-2.4-2.5c-1.6,0-2.6,1-2.9,2.5H1294z"/>
		<path fill="#FFFFFF" d="M1299.5,113.6h2.9v2.1c0,0.5,0,0.9,0,0.9h0c0.6-1.8,2-3.1,3.9-3.1c0.3,0,0.6,0,0.6,0v3c0,0-0.3,0-0.7,0
			c-1.3,0-2.8,0.7-3.3,2.6c-0.2,0.6-0.3,1.3-0.3,2v4.8h-3V113.6z"/>
		<path fill="#FFFFFF" d="M1315.2,118.2h0.4V118c0-1.6-1-2.2-2.4-2.2c-1.8,0-3.4,1.2-3.4,1.2l-1.2-2.2c0,0,1.9-1.5,4.8-1.5
			c3.2,0,5.1,1.8,5.1,4.9v7.7h-2.8v-1c0-0.5,0-0.9,0-0.9h0c0,0-0.9,2.2-3.7,2.2c-2.2,0-4.2-1.4-4.2-3.8
			C1307.9,118.4,1313.2,118.2,1315.2,118.2z M1312.9,123.8c1.6,0,2.8-1.7,2.8-3.2v-0.3h-0.5c-1.6,0-4.1,0.2-4.1,1.9
			C1311,123,1311.6,123.8,1312.9,123.8z"/>
		<path fill="#FFFFFF" d="M1321.8,113.6h2.8v0.9c0,0.5,0,0.8,0,0.8h0c0,0,1.1-2,3.9-2c3.3,0,5.4,2.6,5.4,6.4c0,3.9-2.4,6.4-5.6,6.4
			c-2.4,0-3.5-1.7-3.5-1.7h0c0,0,0,0.4,0,1.1v5.1h-3V113.6z M1327.8,123.6c1.7,0,3.1-1.4,3.1-3.8c0-2.3-1.2-3.8-3-3.8
			c-1.6,0-3.1,1.2-3.1,3.9C1324.7,121.7,1325.8,123.6,1327.8,123.6z"/>
		<path fill="#FFFFFF" d="M1335.8,127.8c0,0,0.7,0.5,1.4,0.5c0.8,0,1.7-0.5,2.1-1.6l0.5-1.1l-5.2-12h3.4l2.6,7.1
			c0.2,0.6,0.5,1.7,0.5,1.7h0c0,0,0.2-1,0.4-1.6l2.4-7.1h3.3l-5.5,14.1c-0.9,2.2-2.6,3.2-4.4,3.2c-1.5,0-2.5-0.8-2.5-0.8
			L1335.8,127.8z"/>
	</g>
</g>
<g>
	<path fill="#6D6E71" d="M845.2,579h3.5v-11.4c0-0.4,0-0.9,0-0.9h0c0,0-0.2,0.3-0.8,0.9l-1.7,1.6l-1-1l3.5-3.5h1.4V579h3.4v1.4h-8.4
		V579z"/>
	<path fill="#6D6E71" d="M854.3,573.4c0-3.9,2-8.7,6.8-8.7c1.7,0,2.8,0.6,2.8,0.6l-0.6,1.3c0,0-1-0.5-2.2-0.5
		c-3.2,0-4.9,3.2-5.1,6.2h0c0.7-1.1,2.3-1.8,3.9-1.8c2.8,0,4.8,2.1,4.8,5c0,3.2-2.2,5.2-4.9,5.2
		C856.5,580.7,854.3,577.6,854.3,573.4z M863.2,575.5c0-2.2-1.4-3.7-3.5-3.7c-2.1,0-3.7,1.4-3.7,2.6c0,2.1,1.6,4.7,3.9,4.7
		C862,579.2,863.2,577.6,863.2,575.5z"/>
	<path fill="#6D6E71" d="M868.2,573.5h6.2v1.4h-6.2V573.5z"/>
	<path fill="#6D6E71" d="M877.2,569.3h1.6l2.7,8.3c0.2,0.5,0.3,1.2,0.3,1.2h0c0,0,0.2-0.7,0.3-1.2l2.7-8.2h1.5l2.7,8.2
		c0.2,0.5,0.3,1.2,0.3,1.2h0c0,0,0.2-0.6,0.3-1.2l2.7-8.3h1.6l-3.7,11.1h-1.6l-2.7-7.9c-0.2-0.5-0.4-1.2-0.4-1.2h0
		c0,0-0.2,0.6-0.3,1.2l-2.7,7.9h-1.6L877.2,569.3z"/>
	<path fill="#6D6E71" d="M900.9,569.1c3.1,0,4.6,2.4,4.6,5.1c0,0.3,0,0.8,0,0.8H897c0.1,2.8,2,4.4,4.3,4.4c2,0,3.4-1.3,3.4-1.3
		l0.7,1.1c0,0-1.6,1.5-4.1,1.5c-3.3,0-5.8-2.4-5.8-5.8C895.4,571.2,897.9,569.1,900.9,569.1z M904,573.7c-0.1-2.3-1.5-3.4-3.1-3.4
		c-1.8,0-3.5,1.2-3.8,3.4H904z"/>
	<path fill="#6D6E71" d="M913.1,569.1c3.1,0,4.6,2.4,4.6,5.1c0,0.3,0,0.8,0,0.8h-8.5c0.1,2.8,2,4.4,4.3,4.4c2,0,3.4-1.3,3.4-1.3
		l0.7,1.1c0,0-1.6,1.5-4.1,1.5c-3.3,0-5.8-2.4-5.8-5.8C907.6,571.2,910.1,569.1,913.1,569.1z M916.2,573.7c-0.1-2.3-1.5-3.4-3.1-3.4
		c-1.8,0-3.5,1.2-3.8,3.4H916.2z"/>
	<path fill="#6D6E71" d="M920.5,564.9h1.5v8.6h1.8l3.3-4.2h1.8l-3.9,4.8v0l4.2,6.2h-1.8l-3.7-5.5H922v5.5h-1.5V564.9z"/>
	<path fill="#6D6E71" d="M937.9,570.7h-1.5v-1.3h1.5v-3.2h1.5v3.2h2.8v1.3h-2.8v5.5c0,2.6,1.7,2.9,2.5,2.9c0.3,0,0.5,0,0.5,0v1.3
		c0,0-0.2,0-0.6,0c-1.3,0-3.9-0.4-3.9-4.1V570.7z"/>
	<path fill="#6D6E71" d="M944.9,569.3h1.5v2c0,0.5,0,0.9,0,0.9h0c0.5-1.7,1.8-2.9,3.5-2.9c0.3,0,0.6,0.1,0.6,0.1v1.5
		c0,0-0.3,0-0.5,0c-1.6,0-2.7,1.2-3.2,2.9c-0.2,0.7-0.3,1.5-0.3,2.2v4.7h-1.5V569.3z"/>
	<path fill="#6D6E71" d="M957.4,569.1c3.1,0,4.6,2.4,4.6,5.1c0,0.3,0,0.8,0,0.8h-8.5c0.1,2.8,2,4.4,4.3,4.4c2,0,3.4-1.3,3.4-1.3
		l0.7,1.1c0,0-1.6,1.5-4.1,1.5c-3.3,0-5.8-2.4-5.8-5.8C951.9,571.2,954.4,569.1,957.4,569.1z M960.5,573.7c-0.1-2.3-1.5-3.4-3.1-3.4
		c-1.8,0-3.5,1.2-3.8,3.4H960.5z"/>
	<path fill="#6D6E71" d="M970.7,573.6h0.6v-0.3c0-2.1-1.2-2.9-2.8-2.9c-1.8,0-3.1,1.1-3.1,1.1l-0.7-1.1c0,0,1.5-1.3,3.9-1.3
		c2.7,0,4.1,1.5,4.1,4.2v7.1h-1.4v-1.2c0-0.6,0-0.9,0-0.9h0c0,0-0.9,2.4-3.7,2.4c-1.8,0-3.8-1.1-3.8-3.3
		C964,573.6,968.8,573.6,970.7,573.6z M968,579.4c2.1,0,3.4-2.2,3.4-4.1v-0.5h-0.6c-1.7,0-5.2,0.1-5.2,2.5
		C965.5,578.3,966.3,579.4,968,579.4z"/>
	<path fill="#6D6E71" d="M976.7,570.7h-1.5v-1.3h1.5v-3.2h1.5v3.2h2.8v1.3h-2.8v5.5c0,2.6,1.7,2.9,2.5,2.9c0.3,0,0.5,0,0.5,0v1.3
		c0,0-0.2,0-0.6,0c-1.3,0-3.9-0.4-3.9-4.1V570.7z"/>
	<path fill="#6D6E71" d="M983.7,569.3h1.5v1.7c0,0.5,0,0.9,0,0.9h0c0.5-1.5,2.3-2.8,4-2.8c2,0,3.1,0.9,3.4,2.8h0
		c0.6-1.5,2.2-2.8,4.1-2.8c2.7,0,3.7,1.6,3.7,4.3v7h-1.5v-6.7c0-1.8-0.4-3.3-2.4-3.3c-1.7,0-3.1,1.5-3.5,3.1c-0.2,0.5-0.2,1-0.2,1.6
		v5.2h-1.5v-6.7c0-1.7-0.2-3.3-2.3-3.3c-1.8,0-3.2,1.6-3.6,3.3c-0.1,0.5-0.2,1-0.2,1.5v5.2h-1.5V569.3z"/>
	<path fill="#6D6E71" d="M1008.5,569.1c3.1,0,4.6,2.4,4.6,5.1c0,0.3,0,0.8,0,0.8h-8.5c0.1,2.8,2,4.4,4.3,4.4c2,0,3.4-1.3,3.4-1.3
		l0.7,1.1c0,0-1.6,1.5-4.1,1.5c-3.3,0-5.8-2.4-5.8-5.8C1003.1,571.2,1005.5,569.1,1008.5,569.1z M1011.6,573.7
		c-0.1-2.3-1.5-3.4-3.1-3.4c-1.8,0-3.5,1.2-3.8,3.4H1011.6z"/>
	<path fill="#6D6E71" d="M1016,569.3h1.5v1.7c0,0.5,0,0.9,0,0.9h0c0.4-1,1.8-2.8,4.4-2.8c2.7,0,3.7,1.6,3.7,4.3v7h-1.5v-6.6
		c0-1.7-0.3-3.3-2.4-3.3c-1.9,0-3.5,1.3-4,3.1c-0.1,0.5-0.2,1-0.2,1.5v5.3h-1.5V569.3z"/>
	<path fill="#6D6E71" d="M1029.5,570.7h-1.5v-1.3h1.5v-3.2h1.5v3.2h2.8v1.3h-2.8v5.5c0,2.6,1.7,2.9,2.5,2.9c0.3,0,0.5,0,0.5,0v1.3
		c0,0-0.2,0-0.6,0c-1.3,0-3.9-0.4-3.9-4.1V570.7z"/>
	<path fill="#6D6E71" d="M1042.3,569.3h1.4v1.1c0,0.5,0,0.9,0,0.9h0c0,0,0.9-2.2,3.8-2.2c3,0,4.8,2.4,4.8,5.8c0,3.5-2.1,5.8-5,5.8
		c-2.7,0-3.6-2.1-3.6-2.1h0c0,0,0,0.4,0,1v5.3h-1.5V569.3z M1047.3,579.3c2,0,3.6-1.7,3.6-4.5c0-2.7-1.4-4.4-3.5-4.4
		c-1.8,0-3.6,1.3-3.6,4.5C1043.8,577.1,1045,579.3,1047.3,579.3z"/>
	<path fill="#6D6E71" d="M1060,569.1c3.1,0,4.6,2.4,4.6,5.1c0,0.3,0,0.8,0,0.8h-8.5c0.1,2.8,2,4.4,4.3,4.4c2,0,3.4-1.3,3.4-1.3
		l0.7,1.1c0,0-1.6,1.5-4.1,1.5c-3.3,0-5.8-2.4-5.8-5.8C1054.5,571.2,1057,569.1,1060,569.1z M1063.1,573.7c-0.1-2.3-1.5-3.4-3.1-3.4
		c-1.8,0-3.5,1.2-3.8,3.4H1063.1z"/>
	<path fill="#6D6E71" d="M1067.5,569.3h1.5v2c0,0.5,0,0.9,0,0.9h0c0.5-1.7,1.8-2.9,3.5-2.9c0.3,0,0.6,0.1,0.6,0.1v1.5
		c0,0-0.3,0-0.5,0c-1.6,0-2.7,1.2-3.2,2.9c-0.2,0.7-0.3,1.5-0.3,2.2v4.7h-1.5V569.3z"/>
	<path fill="#6D6E71" d="M1075.2,564.9h1.6v1.9h-1.6V564.9z M1075.3,569.3h1.5v11.1h-1.5V569.3z"/>
	<path fill="#6D6E71" d="M1085.4,569.1c3.2,0,5.9,2.5,5.9,5.7c0,3.3-2.6,5.9-5.9,5.9s-5.9-2.5-5.9-5.9
		C1079.6,571.5,1082.2,569.1,1085.4,569.1z M1085.4,579.3c2.4,0,4.3-1.9,4.3-4.5c0-2.5-1.9-4.4-4.3-4.4c-2.4,0-4.3,1.9-4.3,4.4
		C1081.1,577.4,1083.1,579.3,1085.4,579.3z"/>
	<path fill="#6D6E71" d="M1098.3,569.1c2.7,0,3.6,2.1,3.6,2.1h0c0,0,0-0.4,0-0.8v-5.4h1.5v15.5h-1.5v-1.2c0-0.5,0-0.8,0-0.8h0
		c0,0-0.9,2.2-3.8,2.2c-3,0-4.8-2.4-4.8-5.8C1093.3,571.4,1095.4,569.1,1098.3,569.1z M1098.4,579.3c1.8,0,3.6-1.3,3.6-4.5
		c0-2.2-1.1-4.4-3.5-4.4c-2,0-3.6,1.7-3.6,4.4C1094.9,577.6,1096.3,579.3,1098.4,579.3z"/>
</g>
<g>
	<path fill="#6D6E71" d="M695.3,635.5h3.5v-11.4c0-0.4,0-0.9,0-0.9h0c0,0-0.2,0.3-0.8,0.9l-1.7,1.6l-1-1l3.5-3.5h1.4v14.1h3.4v1.4
		h-8.4V635.5z"/>
	<path fill="#6D6E71" d="M706.9,628.2c-1.1-0.7-1.9-1.7-1.9-3.1c0-2,1.5-3.9,4.7-3.9c2.9,0,4.7,1.6,4.7,4c0,2.2-1.7,4-1.9,4.2
		c1.3,0.7,2.2,1.7,2.2,3.3c0,2.4-2.1,4.5-5.1,4.5c-2.8,0-5.2-1.8-5.2-4.7C704.4,629.9,706.6,628.4,706.9,628.2z M708.2,628.9
		c-0.5,0.3-2.2,1.5-2.2,3.5c0,2.1,1.8,3.4,3.7,3.4c1.8,0,3.6-1.3,3.6-3.1C713.2,630.6,710.5,630,708.2,628.9z M711.3,628.7
		c0.3-0.3,1.6-1.6,1.6-3.5c0-1.7-1.3-2.7-3.2-2.7c-2,0-3.1,1.1-3.1,2.5C706.5,627.1,709,627.8,711.3,628.7z"/>
	<path fill="#6D6E71" d="M718.5,629.9h6.2v1.4h-6.2V629.9z"/>
	<path fill="#6D6E71" d="M727.4,625.8h1.6l2.7,8.3c0.2,0.5,0.3,1.2,0.3,1.2h0c0,0,0.2-0.7,0.3-1.2l2.7-8.2h1.5l2.7,8.2
		c0.2,0.5,0.3,1.2,0.3,1.2h0c0,0,0.2-0.6,0.3-1.2l2.7-8.3h1.6l-3.7,11.1h-1.6l-2.7-7.9c-0.2-0.5-0.4-1.2-0.4-1.2h0
		c0,0-0.2,0.6-0.3,1.2l-2.7,7.9h-1.6L727.4,625.8z"/>
	<path fill="#6D6E71" d="M751.2,625.5c3.1,0,4.6,2.4,4.6,5.1c0,0.3,0,0.8,0,0.8h-8.5c0.1,2.8,2,4.4,4.3,4.4c2,0,3.4-1.3,3.4-1.3
		l0.7,1.1c0,0-1.6,1.5-4.1,1.5c-3.3,0-5.8-2.4-5.8-5.8C745.7,627.7,748.2,625.5,751.2,625.5z M754.3,630.2c-0.1-2.3-1.5-3.4-3.1-3.4
		c-1.8,0-3.5,1.2-3.8,3.4H754.3z"/>
	<path fill="#6D6E71" d="M763.3,625.5c3.1,0,4.6,2.4,4.6,5.1c0,0.3,0,0.8,0,0.8h-8.5c0.1,2.8,2,4.4,4.3,4.4c2,0,3.4-1.3,3.4-1.3
		l0.7,1.1c0,0-1.6,1.5-4.1,1.5c-3.3,0-5.8-2.4-5.8-5.8C757.9,627.7,760.3,625.5,763.3,625.5z M766.4,630.2c-0.1-2.3-1.5-3.4-3.1-3.4
		c-1.8,0-3.5,1.2-3.8,3.4H766.4z"/>
	<path fill="#6D6E71" d="M770.8,621.4h1.5v8.6h1.8l3.3-4.2h1.8l-3.9,4.8v0l4.2,6.2h-1.8l-3.7-5.5h-1.8v5.5h-1.5V621.4z"/>
	<path fill="#6D6E71" d="M792,625.5c2.7,0,3.6,2.1,3.6,2.1h0c0,0,0-0.4,0-0.8v-5.4h1.5v15.5h-1.5v-1.2c0-0.5,0-0.8,0-0.8h0
		c0,0-0.9,2.2-3.8,2.2c-3,0-4.8-2.4-4.8-5.8C787,627.8,789.1,625.5,792,625.5z M792.1,635.8c1.8,0,3.6-1.3,3.6-4.5
		c0-2.2-1.1-4.4-3.5-4.4c-2,0-3.6,1.7-3.6,4.4C788.6,634.1,790,635.8,792.1,635.8z"/>
	<path fill="#6D6E71" d="M805.8,625.5c3.2,0,5.9,2.5,5.9,5.7c0,3.3-2.6,5.9-5.9,5.9s-5.9-2.5-5.9-5.9
		C799.9,628,802.5,625.5,805.8,625.5z M805.8,635.8c2.4,0,4.3-1.9,4.3-4.5c0-2.5-1.9-4.4-4.3-4.4c-2.4,0-4.3,1.9-4.3,4.4
		C801.5,633.9,803.4,635.8,805.8,635.8z"/>
	<path fill="#6D6E71" d="M814.3,634.5c0,0,1.2,1.3,3.3,1.3c1.2,0,2.2-0.6,2.2-1.8c0-2.4-6-1.8-6-5.4c0-2,1.8-3.1,3.8-3.1
		c2.3,0,3.4,1.2,3.4,1.2l-0.7,1.1c0,0-0.9-1-2.8-1c-1.1,0-2.2,0.5-2.2,1.7c0,2.4,6,1.8,6,5.4c0,1.8-1.6,3.1-3.8,3.1
		c-2.7,0-4.1-1.6-4.1-1.6L814.3,634.5z"/>
	<path fill="#6D6E71" d="M828.8,625.5c3.1,0,4.6,2.4,4.6,5.1c0,0.3,0,0.8,0,0.8h-8.5c0.1,2.8,2,4.4,4.3,4.4c2,0,3.4-1.3,3.4-1.3
		l0.7,1.1c0,0-1.6,1.5-4.1,1.5c-3.3,0-5.8-2.4-5.8-5.8C823.4,627.7,825.9,625.5,828.8,625.5z M831.9,630.2c-0.1-2.3-1.5-3.4-3.1-3.4
		c-1.8,0-3.5,1.2-3.8,3.4H831.9z"/>
	<path fill="#6D6E71" d="M836.8,629.9h6.2v1.4h-6.2V629.9z"/>
	<path fill="#6D6E71" d="M847.1,621.4h1.5v5.4c0,0.5,0,0.9,0,0.9h0c0,0,0.9-2.1,3.8-2.1c3,0,4.8,2.4,4.8,5.8c0,3.5-2.1,5.8-5,5.8
		c-2.6,0-3.6-2.2-3.6-2.2h0c0,0,0,0.4,0,0.9v1h-1.5V621.4z M852.1,635.8c2,0,3.6-1.7,3.6-4.5c0-2.7-1.4-4.4-3.5-4.4
		c-1.8,0-3.6,1.3-3.6,4.5C848.6,633.6,849.7,635.8,852.1,635.8z"/>
	<path fill="#6D6E71" d="M860,621.4h1.5v12.5c0,1.5,0.7,1.7,1.2,1.7c0.2,0,0.4,0,0.4,0v1.3c0,0-0.3,0-0.5,0c-0.9,0-2.6-0.3-2.6-2.7
		V621.4z"/>
	<path fill="#6D6E71" d="M865.5,621.4h1.6v1.9h-1.6V621.4z M865.5,625.8h1.5v11.1h-1.5V625.8z"/>
	<path fill="#6D6E71" d="M870.6,625.8h1.5v1.7c0,0.5,0,0.9,0,0.9h0c0.4-1,1.8-2.8,4.4-2.8c2.7,0,3.7,1.6,3.7,4.3v7h-1.5v-6.6
		c0-1.7-0.3-3.3-2.4-3.3c-1.9,0-3.5,1.3-4,3.1c-0.1,0.5-0.2,1-0.2,1.5v5.3h-1.5V625.8z"/>
	<path fill="#6D6E71" d="M887.9,625.5c2.7,0,3.6,2.1,3.6,2.1h0c0,0,0-0.4,0-0.8v-5.4h1.5v15.5h-1.5v-1.2c0-0.5,0-0.8,0-0.8h0
		c0,0-0.9,2.2-3.8,2.2c-3,0-4.8-2.4-4.8-5.8C883,627.8,885,625.5,887.9,625.5z M888,635.8c1.8,0,3.6-1.3,3.6-4.5
		c0-2.2-1.1-4.4-3.5-4.4c-2,0-3.6,1.7-3.6,4.4C884.5,634.1,885.9,635.8,888,635.8z"/>
	<path fill="#6D6E71" d="M901.3,625.5c3.1,0,4.6,2.4,4.6,5.1c0,0.3,0,0.8,0,0.8h-8.5c0.1,2.8,2,4.4,4.3,4.4c2,0,3.4-1.3,3.4-1.3
		l0.7,1.1c0,0-1.6,1.5-4.1,1.5c-3.3,0-5.8-2.4-5.8-5.8C895.9,627.7,898.3,625.5,901.3,625.5z M904.4,630.2c-0.1-2.3-1.5-3.4-3.1-3.4
		c-1.8,0-3.5,1.2-3.8,3.4H904.4z"/>
	<path fill="#6D6E71" d="M913.1,625.5c2.7,0,3.6,2.1,3.6,2.1h0c0,0,0-0.4,0-0.8v-5.4h1.5v15.5h-1.5v-1.2c0-0.5,0-0.8,0-0.8h0
		c0,0-0.9,2.2-3.8,2.2c-3,0-4.8-2.4-4.8-5.8C908.1,627.8,910.2,625.5,913.1,625.5z M913.1,635.8c1.8,0,3.6-1.3,3.6-4.5
		c0-2.2-1.1-4.4-3.5-4.4c-2,0-3.6,1.7-3.6,4.4C909.6,634.1,911.1,635.8,913.1,635.8z"/>
	<path fill="#6D6E71" d="M928.1,627.2h-1.5v-1.3h1.5v-3.2h1.5v3.2h2.8v1.3h-2.8v5.5c0,2.6,1.7,2.9,2.5,2.9c0.3,0,0.5,0,0.5,0v1.3
		c0,0-0.2,0-0.6,0c-1.3,0-3.9-0.4-3.9-4.1V627.2z"/>
	<path fill="#6D6E71" d="M935.1,625.8h1.5v2c0,0.5,0,0.9,0,0.9h0c0.5-1.7,1.8-2.9,3.5-2.9c0.3,0,0.6,0.1,0.6,0.1v1.5
		c0,0-0.3,0-0.5,0c-1.6,0-2.7,1.2-3.2,2.9c-0.2,0.7-0.3,1.5-0.3,2.2v4.7h-1.5V625.8z"/>
	<path fill="#6D6E71" d="M947.6,625.5c3.1,0,4.6,2.4,4.6,5.1c0,0.3,0,0.8,0,0.8h-8.5c0.1,2.8,2,4.4,4.3,4.4c2,0,3.4-1.3,3.4-1.3
		l0.7,1.1c0,0-1.6,1.5-4.1,1.5c-3.3,0-5.8-2.4-5.8-5.8C942.1,627.7,944.6,625.5,947.6,625.5z M950.7,630.2c-0.1-2.3-1.5-3.4-3.1-3.4
		c-1.8,0-3.5,1.2-3.8,3.4H950.7z"/>
	<path fill="#6D6E71" d="M960.9,630h0.6v-0.3c0-2.1-1.2-2.9-2.8-2.9c-1.8,0-3.1,1.1-3.1,1.1l-0.7-1.1c0,0,1.5-1.3,3.9-1.3
		c2.7,0,4.1,1.5,4.1,4.2v7.1h-1.4v-1.2c0-0.6,0-0.9,0-0.9h0c0,0-0.9,2.4-3.7,2.4c-1.8,0-3.8-1.1-3.8-3.3
		C954.2,630.1,959,630,960.9,630z M958.2,635.9c2.1,0,3.4-2.2,3.4-4.1v-0.5h-0.6c-1.7,0-5.2,0.1-5.2,2.5
		C955.7,634.8,956.5,635.9,958.2,635.9z"/>
	<path fill="#6D6E71" d="M966.9,627.2h-1.5v-1.3h1.5v-3.2h1.5v3.2h2.8v1.3h-2.8v5.5c0,2.6,1.7,2.9,2.5,2.9c0.3,0,0.5,0,0.5,0v1.3
		c0,0-0.2,0-0.6,0c-1.3,0-3.9-0.4-3.9-4.1V627.2z"/>
	<path fill="#6D6E71" d="M973.9,625.8h1.5v1.7c0,0.5,0,0.9,0,0.9h0c0.5-1.5,2.3-2.8,4-2.8c2,0,3.1,0.9,3.4,2.8h0
		c0.6-1.5,2.2-2.8,4.1-2.8c2.7,0,3.7,1.6,3.7,4.3v7h-1.5v-6.7c0-1.8-0.4-3.3-2.4-3.3c-1.7,0-3.1,1.5-3.5,3.1c-0.2,0.5-0.2,1-0.2,1.6
		v5.2h-1.5v-6.7c0-1.7-0.2-3.3-2.3-3.3c-1.8,0-3.2,1.6-3.6,3.3c-0.1,0.5-0.2,1-0.2,1.5v5.2h-1.5V625.8z"/>
	<path fill="#6D6E71" d="M998.7,625.5c3.1,0,4.6,2.4,4.6,5.1c0,0.3,0,0.8,0,0.8h-8.5c0.1,2.8,2,4.4,4.3,4.4c2,0,3.4-1.3,3.4-1.3
		l0.7,1.1c0,0-1.6,1.5-4.1,1.5c-3.3,0-5.8-2.4-5.8-5.8C993.2,627.7,995.7,625.5,998.7,625.5z M1001.8,630.2
		c-0.1-2.3-1.5-3.4-3.1-3.4c-1.8,0-3.5,1.2-3.8,3.4H1001.8z"/>
	<path fill="#6D6E71" d="M1006.2,625.8h1.5v1.7c0,0.5,0,0.9,0,0.9h0c0.4-1,1.8-2.8,4.4-2.8c2.7,0,3.7,1.6,3.7,4.3v7h-1.5v-6.6
		c0-1.7-0.3-3.3-2.4-3.3c-1.9,0-3.5,1.3-4,3.1c-0.1,0.5-0.2,1-0.2,1.5v5.3h-1.5V625.8z"/>
	<path fill="#6D6E71" d="M1019.6,627.2h-1.5v-1.3h1.5v-3.2h1.5v3.2h2.8v1.3h-2.8v5.5c0,2.6,1.7,2.9,2.5,2.9c0.3,0,0.5,0,0.5,0v1.3
		c0,0-0.2,0-0.6,0c-1.3,0-3.9-0.4-3.9-4.1V627.2z"/>
	<path fill="#6D6E71" d="M1032.5,625.8h1.4v1.1c0,0.5,0,0.9,0,0.9h0c0,0,0.9-2.2,3.8-2.2c3,0,4.8,2.4,4.8,5.8c0,3.5-2.1,5.8-5,5.8
		c-2.7,0-3.6-2.1-3.6-2.1h0c0,0,0,0.4,0,1v5.3h-1.5V625.8z M1037.5,635.8c2,0,3.6-1.7,3.6-4.5c0-2.7-1.4-4.4-3.5-4.4
		c-1.8,0-3.6,1.3-3.6,4.5C1034,633.6,1035.2,635.8,1037.5,635.8z"/>
	<path fill="#6D6E71" d="M1050.2,625.5c3.1,0,4.6,2.4,4.6,5.1c0,0.3,0,0.8,0,0.8h-8.5c0.1,2.8,2,4.4,4.3,4.4c2,0,3.4-1.3,3.4-1.3
		l0.7,1.1c0,0-1.6,1.5-4.1,1.5c-3.3,0-5.8-2.4-5.8-5.8C1044.7,627.7,1047.2,625.5,1050.2,625.5z M1053.3,630.2
		c-0.1-2.3-1.5-3.4-3.1-3.4c-1.8,0-3.5,1.2-3.8,3.4H1053.3z"/>
	<path fill="#6D6E71" d="M1057.6,625.8h1.5v2c0,0.5,0,0.9,0,0.9h0c0.5-1.7,1.8-2.9,3.5-2.9c0.3,0,0.6,0.1,0.6,0.1v1.5
		c0,0-0.3,0-0.5,0c-1.6,0-2.7,1.2-3.2,2.9c-0.2,0.7-0.3,1.5-0.3,2.2v4.7h-1.5V625.8z"/>
	<path fill="#6D6E71" d="M1065.4,621.4h1.6v1.9h-1.6V621.4z M1065.5,625.8h1.5v11.1h-1.5V625.8z"/>
	<path fill="#6D6E71" d="M1075.6,625.5c3.2,0,5.9,2.5,5.9,5.7c0,3.3-2.6,5.9-5.9,5.9s-5.9-2.5-5.9-5.9
		C1069.8,628,1072.4,625.5,1075.6,625.5z M1075.6,635.8c2.4,0,4.3-1.9,4.3-4.5c0-2.5-1.9-4.4-4.3-4.4c-2.4,0-4.3,1.9-4.3,4.4
		C1071.3,633.9,1073.2,635.8,1075.6,635.8z"/>
	<path fill="#6D6E71" d="M1088.5,625.5c2.7,0,3.6,2.1,3.6,2.1h0c0,0,0-0.4,0-0.8v-5.4h1.5v15.5h-1.5v-1.2c0-0.5,0-0.8,0-0.8h0
		c0,0-0.9,2.2-3.8,2.2c-3,0-4.8-2.4-4.8-5.8C1083.5,627.8,1085.6,625.5,1088.5,625.5z M1088.6,635.8c1.8,0,3.6-1.3,3.6-4.5
		c0-2.2-1.1-4.4-3.5-4.4c-2,0-3.6,1.7-3.6,4.4C1085.1,634.1,1086.5,635.8,1088.6,635.8z"/>
</g>
<g>
	<path fill="#F38B00" d="M1,3H27v3.9H1V3z"/>
	<path fill="#6D6E71" d="M41.7,9.8H36l-1.6,4.5H33l5.2-14.1h1.5l5.2,14.1h-1.5L41.7,9.8z M38.9,1.7c0,0-0.3,1.2-0.5,1.8l-1.9,5.1
		h4.8l-1.8-5.1C39.2,2.9,38.9,1.7,38.9,1.7L38.9,1.7z"/>
	<path fill="#6D6E71" d="M47.1,0.2h4.9c2.5,0,4.3,1.6,4.3,4.2c0,2.6-1.8,4.3-4.3,4.3h-3.5v5.5h-1.4V0.2z M51.8,7.5
		c1.9,0,3.1-1.1,3.1-3.1c0-1.9-1.2-3-3.1-3h-3.3v6.1H51.8z"/>
	<path fill="#6D6E71" d="M62.2,1.5h-5.1V0.2h11.5v1.2h-5v12.8h-1.4V1.5z"/>
	<path fill="#6D6E71" d="M70.8,0.2h1.4v14.1h-1.4V0.2z"/>
	<path fill="#6D6E71" d="M82.5,0c4,0,7.2,3.1,7.2,7.2c0,4.1-3.2,7.4-7.2,7.4s-7.2-3.2-7.2-7.4C75.3,3.1,78.5,0,82.5,0z M82.5,13.3
		c3.2,0,5.7-2.6,5.7-6.1c0-3.4-2.6-5.9-5.7-5.9c-3.2,0-5.7,2.5-5.7,5.9C76.7,10.6,79.3,13.3,82.5,13.3z"/>
	<path fill="#6D6E71" d="M93.4,0.2h1.4l3.7,8.3c0.3,0.7,0.7,1.7,0.7,1.7h0c0,0,0.4-1,0.7-1.7l3.7-8.3h1.4l1.1,14.1h-1.4L104,4.5
		c-0.1-0.8,0-2,0-2h0c0,0-0.4,1.2-0.7,2l-3.3,7.2h-1.3l-3.3-7.2c-0.3-0.7-0.8-2-0.8-2h0c0,0,0,1.2,0,2l-0.8,9.8h-1.4L93.4,0.2z"/>
	<path fill="#6D6E71" d="M114.3,13.1h3.2V2.7c0-0.4,0-0.8,0-0.8h0c0,0-0.1,0.3-0.7,0.8l-1.5,1.5l-0.9-0.9l3.2-3.2h1.3v12.8h3.1v1.2
		h-7.6V13.1z"/>
	<path fill="#6D6E71" d="M123.7,13.4c0-4.9,7.2-5.6,7.2-9.4c0-1.5-1.2-2.7-2.9-2.7c-2.1,0-3.1,1.9-3.1,1.9l-1-0.7
		c0,0,1.3-2.5,4.3-2.5c2.7,0,4.3,1.7,4.3,3.9c0,4.7-7.1,5.4-7.1,9.1h7.3v1.2h-8.8C123.7,14,123.7,13.7,123.7,13.4z"/>
	<path fill="#6D6E71" d="M135.2,7.3c0-4,1.2-7.3,4.9-7.3s4.8,3.2,4.8,7.3c0,4.1-1.2,7.3-4.8,7.3S135.2,11.3,135.2,7.3z M143.4,7.3
		c0-3.3-0.7-6-3.4-6c-2.7,0-3.4,2.6-3.4,6c0,3.4,0.7,6,3.4,6C142.7,13.2,143.4,10.6,143.4,7.3z"/>
	<path fill="#6D6E71" d="M147.7,7.3c0-4,1.2-7.3,4.9-7.3s4.8,3.2,4.8,7.3c0,4.1-1.2,7.3-4.8,7.3S147.7,11.3,147.7,7.3z M155.9,7.3
		c0-3.3-0.7-6-3.4-6c-2.7,0-3.4,2.6-3.4,6c0,3.4,0.7,6,3.4,6C155.2,13.2,155.9,10.6,155.9,7.3z"/>
	<path fill="#6D6E71" d="M165.8,4.2h1.3v1.5c0,0.4,0,0.8,0,0.8h0c0.5-1.4,2.1-2.5,3.6-2.5c1.9,0,2.8,0.9,3.1,2.5h0
		c0.5-1.4,2-2.5,3.7-2.5c2.4,0,3.3,1.4,3.3,3.9v6.4h-1.4V8.2c0-1.6-0.3-3-2.2-3c-1.5,0-2.8,1.4-3.2,2.8c-0.1,0.4-0.2,0.9-0.2,1.5
		v4.8h-1.4V8.2c0-1.5-0.2-3-2.1-3c-1.6,0-2.9,1.4-3.3,3c-0.1,0.4-0.1,0.9-0.1,1.3v4.8h-1.4V4.2z"/>
	<path fill="#6D6E71" d="M187.6,17.3c2,0,3.5-0.9,3.5-3.2v-0.9c0-0.4,0-0.7,0-0.7h0c-0.6,1.1-1.6,1.8-3.2,1.8
		c-2.7,0-4.5-2.1-4.5-5.2s1.7-5.1,4.4-5.1c2.7,0,3.3,1.7,3.3,1.7h0c0,0,0-0.1,0-0.3V4.2h1.3v9.8c0,3.2-2.4,4.4-4.8,4.4
		c-1.2,0-2.3-0.3-3.3-0.8l0.5-1.1C184.9,16.6,186.1,17.3,187.6,17.3z M191.1,9.1c0-2.9-1.4-3.8-3.2-3.8c-2,0-3.1,1.4-3.1,3.8
		s1.3,4,3.3,4C189.7,13,191.1,12,191.1,9.1z"/>
	<path fill="#211646" d="M224.1,3H250v3.9h-25.9V3z"/>
	<path fill="#6D6E71" d="M264.8,9.8h-5.7l-1.6,4.5H256l5.2-14.1h1.5l5.2,14.1h-1.5L264.8,9.8z M261.9,1.7c0,0-0.3,1.2-0.5,1.8
		l-1.9,5.1h4.8l-1.8-5.1C262.3,2.9,262,1.7,261.9,1.7L261.9,1.7z"/>
	<path fill="#6D6E71" d="M270.1,0.2h4.9c2.5,0,4.3,1.6,4.3,4.2c0,2.6-1.8,4.3-4.3,4.3h-3.5v5.5h-1.4V0.2z M274.8,7.5
		c1.9,0,3.1-1.1,3.1-3.1c0-1.9-1.2-3-3.1-3h-3.3v6.1H274.8z"/>
	<path fill="#6D6E71" d="M285.3,1.5h-5.1V0.2h11.5v1.2h-5v12.8h-1.4V1.5z"/>
	<path fill="#6D6E71" d="M293.9,0.2h1.4v14.1h-1.4V0.2z"/>
	<path fill="#6D6E71" d="M305.5,0c4,0,7.2,3.1,7.2,7.2c0,4.1-3.2,7.4-7.2,7.4s-7.2-3.2-7.2-7.4C298.3,3.1,301.5,0,305.5,0z
		 M305.5,13.3c3.2,0,5.7-2.6,5.7-6.1c0-3.4-2.6-5.9-5.7-5.9c-3.2,0-5.7,2.5-5.7,5.9C299.8,10.6,302.3,13.3,305.5,13.3z"/>
	<path fill="#6D6E71" d="M316.5,0.2h1.4l3.7,8.3c0.3,0.7,0.7,1.7,0.7,1.7h0c0,0,0.4-1,0.7-1.7l3.7-8.3h1.4l1.1,14.1h-1.4l-0.8-9.8
		c-0.1-0.8,0-2,0-2h0c0,0-0.4,1.2-0.7,2l-3.3,7.2h-1.3l-3.3-7.2c-0.3-0.7-0.8-2-0.8-2h0c0,0,0,1.2,0,2l-0.8,9.8h-1.4L316.5,0.2z"/>
	<path fill="#6D6E71" d="M337.3,13.1h3.2V2.7c0-0.4,0-0.8,0-0.8h0c0,0-0.1,0.3-0.7,0.8l-1.5,1.5l-0.9-0.9l3.2-3.2h1.3v12.8h3.1v1.2
		h-7.6V13.1z"/>
	<path fill="#6D6E71" d="M346.8,7.9c0-3.5,1.8-7.9,6.2-7.9c1.6,0,2.6,0.6,2.6,0.6l-0.5,1.2c0,0-0.9-0.5-2-0.5
		c-2.9,0-4.4,2.9-4.7,5.6h0c0.7-1,2.1-1.6,3.6-1.6c2.6,0,4.4,1.9,4.4,4.5c0,2.9-2,4.7-4.4,4.7C348.8,14.5,346.8,11.7,346.8,7.9z
		 M354.9,9.9c0-2-1.3-3.3-3.2-3.3c-1.9,0-3.4,1.3-3.4,2.4c0,1.9,1.5,4.3,3.6,4.3C353.8,13.2,354.9,11.8,354.9,9.9z"/>
	<path fill="#6D6E71" d="M358.8,7.3c0-4,1.2-7.3,4.9-7.3s4.8,3.2,4.8,7.3c0,4.1-1.2,7.3-4.8,7.3S358.8,11.3,358.8,7.3z M367.1,7.3
		c0-3.3-0.7-6-3.4-6c-2.7,0-3.4,2.6-3.4,6c0,3.4,0.7,6,3.4,6C366.4,13.2,367.1,10.6,367.1,7.3z"/>
	<path fill="#6D6E71" d="M371.3,7.3c0-4,1.2-7.3,4.9-7.3s4.8,3.2,4.8,7.3c0,4.1-1.2,7.3-4.8,7.3S371.3,11.3,371.3,7.3z M379.6,7.3
		c0-3.3-0.7-6-3.4-6c-2.7,0-3.4,2.6-3.4,6c0,3.4,0.7,6,3.4,6C378.9,13.2,379.6,10.6,379.6,7.3z"/>
	<path fill="#6D6E71" d="M389.4,4.2h1.3v1.5c0,0.4,0,0.8,0,0.8h0c0.5-1.4,2.1-2.5,3.6-2.5c1.9,0,2.8,0.9,3.1,2.5h0
		c0.5-1.4,2-2.5,3.7-2.5c2.4,0,3.3,1.4,3.3,3.9v6.4h-1.4V8.2c0-1.6-0.3-3-2.2-3c-1.5,0-2.8,1.4-3.2,2.8c-0.1,0.4-0.2,0.9-0.2,1.5
		v4.8h-1.4V8.2c0-1.5-0.2-3-2.1-3c-1.6,0-2.9,1.4-3.3,3c-0.1,0.4-0.1,0.9-0.1,1.3v4.8h-1.4V4.2z"/>
	<path fill="#6D6E71" d="M411.2,17.3c2,0,3.5-0.9,3.5-3.2v-0.9c0-0.4,0-0.7,0-0.7h0c-0.6,1.1-1.6,1.8-3.2,1.8
		c-2.7,0-4.5-2.1-4.5-5.2s1.7-5.1,4.4-5.1c2.7,0,3.3,1.7,3.3,1.7h0c0,0,0-0.1,0-0.3V4.2h1.3v9.8c0,3.2-2.4,4.4-4.8,4.4
		c-1.2,0-2.3-0.3-3.3-0.8l0.5-1.1C408.5,16.6,409.8,17.3,411.2,17.3z M414.8,9.1c0-2.9-1.4-3.8-3.2-3.8c-2,0-3.1,1.4-3.1,3.8
		s1.3,4,3.3,4C413.4,13,414.8,12,414.8,9.1z"/>
</g>
</svg>
