<?xml version="1.0" encoding="utf-8"?>
<!-- Generator: Adobe Illustrator 18.1.1, SVG Export Plug-In . SVG Version: 6.00 Build 0)  -->
<svg version="1.1" id="Layer_1" xmlns="http://www.w3.org/2000/svg" xmlns:xlink="http://www.w3.org/1999/xlink" x="0px" y="0px"
	 viewBox="0 0 1223.6 409.1" enable-background="new 0 0 1223.6 409.1" xml:space="preserve">
<rect x="306" y="1" fill="#A6A8AB" width="305.8" height="66.8"/>
<rect x="612.2" y="1" fill="#0072B1" width="304.8" height="66.8"/>
<rect x="916.6" y="1" fill="#F8971D" width="306.8" height="66.8"/>
<rect x="305.9" y="105.3" fill="#CADEED" width="917.7" height="37.5"/>
<rect x="305.9" y="181.1" fill="#CADEED" width="917.7" height="37.5"/>
<rect x="305.9" y="257.6" fill="#CADEED" width="917.7" height="37.5"/>
<rect x="305.9" y="332.8" fill="#CADEED" width="917.7" height="37.5"/>
<g>
	<path fill="#FFFFFF" d="M419.4,15h6c2.9,0,5,2,5,5.1s-2,5.1-5,5.1h-3.2v5.4h-2.8V15z M424.9,22.8c1.7,0,2.6-1.1,2.6-2.7
		c0-1.6-1-2.6-2.6-2.6h-2.7v5.3H424.9z"/>
	<path fill="#FFFFFF" d="M432.3,15h2.8v11.7c0,1.2,0.4,1.5,1.1,1.5c0.2,0,0.4,0,0.4,0v2.4c0,0-0.4,0.1-0.9,0.1
		c-1.5,0-3.5-0.4-3.5-3.6V15z"/>
	<path fill="#FFFFFF" d="M444.4,23.6h0.4v-0.2c0-1.5-0.9-2-2.2-2c-1.6,0-3.1,1.1-3.1,1.1l-1.1-2c0,0,1.7-1.4,4.4-1.4
		c2.9,0,4.7,1.6,4.7,4.5v7H445v-0.9c0-0.4,0-0.8,0-0.8h0c0,0-0.9,2-3.4,2c-2,0-3.8-1.3-3.8-3.5C437.8,23.9,442.6,23.6,444.4,23.6z
		 M442.3,28.7c1.5,0,2.5-1.6,2.5-2.9v-0.3h-0.5c-1.4,0-3.7,0.2-3.7,1.8C440.6,28,441.1,28.7,442.3,28.7z"/>
	<path fill="#FFFFFF" d="M455.7,19.2c2.9,0,4.3,1.7,4.3,1.7l-1.2,1.9c0,0-1.2-1.2-2.9-1.2c-2.1,0-3.4,1.6-3.4,3.5
		c0,1.9,1.4,3.5,3.5,3.5c1.9,0,3.3-1.4,3.3-1.4l1.1,2c0,0-1.6,1.8-4.6,1.8c-3.7,0-6.1-2.6-6.1-5.9C449.6,21.9,452,19.2,455.7,19.2z"
		/>
	<path fill="#FFFFFF" d="M467.3,19.2c3.2,0,5,2.4,5,5.3c0,0.3-0.1,1.1-0.1,1.1h-7.7c0.2,2,1.7,3,3.4,3c1.8,0,3.2-1.2,3.2-1.2l1.1,2
		c0,0-1.7,1.6-4.5,1.6c-3.7,0-6-2.7-6-5.9C461.6,21.6,464,19.2,467.3,19.2z M469.5,23.7c0-1.5-1-2.3-2.2-2.3c-1.4,0-2.4,0.9-2.7,2.3
		H469.5z"/>
	<path fill="#FFFFFF" d="M474.6,15h2.8v4.8c0,0.6,0,0.9,0,0.9h0c0,0,1-1.6,3.4-1.6c3,0,5,2.4,5,5.9c0,3.6-2.2,5.9-5.1,5.9
		c-2.3,0-3.3-1.7-3.3-1.7h0c0,0,0,0.3,0,0.8v0.6h-2.6V15z M480.1,28.6c1.5,0,2.8-1.3,2.8-3.5c0-2.1-1.1-3.5-2.8-3.5
		c-1.5,0-2.8,1.1-2.8,3.5C477.3,26.8,478.3,28.6,480.1,28.6z"/>
	<path fill="#FFFFFF" d="M493.4,19.2c3.4,0,6.2,2.4,6.2,5.9c0,3.5-2.8,5.9-6.2,5.9c-3.4,0-6.2-2.4-6.2-5.9
		C487.2,21.6,490,19.2,493.4,19.2z M493.4,28.5c1.8,0,3.3-1.4,3.3-3.5c0-2.1-1.5-3.5-3.3-3.5c-1.8,0-3.3,1.4-3.3,3.5
		C490.1,27.1,491.6,28.5,493.4,28.5z"/>
	<path fill="#FFFFFF" d="M419.7,46.1c0-3.2,0.9-6.1,2.6-8.8h2.4c-1.6,2.7-2.5,5.7-2.5,8.8c0,3.3,0.8,6.6,2.5,9.6h-2.4
		C420.7,53.1,419.7,49.7,419.7,46.1z"/>
	<path fill="#FFFFFF" d="M426.6,42.4h2.7v1.3c0,0.4,0,0.8,0,0.8h0c0.5-0.9,1.7-2.3,4-2.3c2.5,0,3.9,1.3,3.9,4.3v7.2h-2.8V47
		c0-1.4-0.4-2.3-1.8-2.3c-1.5,0-2.6,0.9-3,2.3c-0.2,0.5-0.2,1-0.2,1.5v5.1h-2.8V42.4z"/>
	<path fill="#FFFFFF" d="M440.4,44h10.7v2.2h-10.7V44z M440.4,48.5h10.7v2.2h-10.7V48.5z"/>
	<path fill="#FFFFFF" d="M453.5,47.9l6.7-9.9h3.4v9.2h2v2.4h-2v4h-2.8v-4h-7.3V47.9z M460.8,47.3v-4.8c0-0.8,0.1-1.6,0.1-1.6h0
		c0,0-0.4,0.8-0.8,1.4l-3.6,5v0H460.8z"/>
	<path fill="#FFFFFF" d="M467.7,52.3c0-5.6,7.3-6.5,7.3-9.6c0-1.4-1.1-2.2-2.4-2.2c-1.8,0-2.8,1.8-2.8,1.8l-2.1-1.4
		c0,0,1.4-3.1,5.2-3.1c2.8,0,5.1,1.7,5.1,4.6c0,5-7,5.9-7.1,8.8h7.3v2.4h-10.4C467.7,53.1,467.7,52.7,467.7,52.3z"/>
	<path fill="#FFFFFF" d="M480.5,46.5c0-4.1,2.4-8.7,7.2-8.7c2,0,3.2,0.7,3.2,0.7l-0.8,2.4c0,0-1-0.5-2.2-0.5c-2.5,0-3.8,2-4.2,4.2h0
		c0.5-0.6,1.8-1.1,2.9-1.1c3.1,0,5,2.4,5,5.2c0,2.9-2,5.2-5.1,5.2C483.3,53.9,480.5,51.2,480.5,46.5z M488.8,48.7
		c0-1.6-1-2.9-2.9-2.9c-1.4,0-2.6,0.7-2.6,1.7c0,2,1.4,3.8,3.1,3.8C488,51.3,488.8,50.2,488.8,48.7z"/>
	<path fill="#FFFFFF" d="M493,55.7c1.6-3,2.5-6.3,2.5-9.6c0-3.1-0.9-6.1-2.5-8.8h2.4c1.7,2.6,2.6,5.6,2.6,8.8c0,3.6-1,7-2.6,9.6H493
		z"/>
</g>
<g>
	<path fill="#FFFFFF" d="M689.4,26.6h-5.5l-1.3,4h-2.9l5.5-15.6h3l5.5,15.6h-2.9L689.4,26.6z M686.6,17.7c0,0-0.4,1.5-0.7,2.4
		l-1.4,4.2h4.1l-1.4-4.2C687,19.3,686.6,17.7,686.6,17.7L686.6,17.7z"/>
	<path fill="#FFFFFF" d="M695.6,15h6c2.9,0,5,2,5,5.1s-2,5.1-5,5.1h-3.2v5.4h-2.8V15z M701.1,22.8c1.7,0,2.6-1.1,2.6-2.7
		c0-1.6-1-2.6-2.6-2.6h-2.7v5.3H701.1z"/>
	<path fill="#FFFFFF" d="M712.3,17.5h-5.1V15h13.1v2.4h-5.1v13.2h-2.8V17.5z"/>
	<path fill="#FFFFFF" d="M722.4,15h2.8v15.6h-2.8V15z"/>
	<path fill="#FFFFFF" d="M736.2,14.8c4.6,0,8.1,3.5,8.1,8c0,4.6-3.5,8.2-8.1,8.2s-8.1-3.6-8.1-8.2C728.1,18.3,731.6,14.8,736.2,14.8
		z M736.2,28.3c2.9,0,5.1-2.4,5.1-5.6c0-3.1-2.3-5.4-5.1-5.4s-5.1,2.3-5.1,5.4C731,25.9,733.3,28.3,736.2,28.3z"/>
	<path fill="#FFFFFF" d="M747.9,15h3l3.1,7.7c0.4,0.9,0.8,2.3,0.8,2.3h0c0,0,0.4-1.4,0.8-2.3l3.1-7.7h3l1.3,15.6h-2.8l-0.7-8.7
		c-0.1-1,0-2.4,0-2.4h0c0,0-0.5,1.5-0.8,2.4l-2.5,6.1h-2.5l-2.5-6.1c-0.4-0.9-0.9-2.4-0.9-2.4h0c0,0,0,1.4,0,2.4l-0.7,8.7h-2.8
		L747.9,15z"/>
	<path fill="#FFFFFF" d="M773.3,22.1c-0.9-0.7-1.6-1.7-1.6-3.1c0-2.2,1.6-4.3,5-4.3c2.9,0,5.1,1.6,5.1,4.3c0,1.9-1.6,3.7-1.7,3.9
		c1.1,0.7,2,1.7,2,3.3c0,2.4-2,4.6-5.5,4.6c-3.4,0-5.6-2.1-5.6-4.8C770.9,23.9,772.8,22.4,773.3,22.1z M775.3,23.3
		c-0.5,0.4-1.5,1.3-1.5,2.6c0,1.5,1.3,2.5,2.7,2.5c1.5,0,2.6-0.9,2.6-2.3C779.1,24.8,777.2,24.2,775.3,23.3z M777.9,21.9
		c0.2-0.2,1.1-1.3,1.1-2.6c0-1.2-0.9-2-2.3-2c-1.4,0-2.2,0.8-2.2,1.8C774.5,20.5,776.1,21.1,777.9,21.9z"/>
	<path fill="#FFFFFF" d="M784.5,22.8c0-4.5,1.4-8.1,5.7-8.1s5.7,3.6,5.7,8.1c0,4.5-1.4,8.1-5.7,8.1S784.5,27.3,784.5,22.8z
		 M792.9,22.8c0-3-0.6-5.4-2.8-5.4c-2.1,0-2.8,2.4-2.8,5.4c0,3.1,0.6,5.5,2.8,5.5C792.3,28.3,792.9,25.9,792.9,22.8z"/>
	<path fill="#FFFFFF" d="M798.3,22.8c0-4.5,1.4-8.1,5.7-8.1s5.7,3.6,5.7,8.1c0,4.5-1.4,8.1-5.7,8.1S798.3,27.3,798.3,22.8z
		 M806.7,22.8c0-3-0.6-5.4-2.8-5.4c-2.1,0-2.8,2.4-2.8,5.4c0,3.1,0.6,5.5,2.8,5.5C806.1,28.3,806.7,25.9,806.7,22.8z"/>
	<path fill="#FFFFFF" d="M817.8,19.4h2.7v1.3c0,0.4,0,0.8,0,0.8h0c0.5-1.1,1.9-2.3,3.7-2.3c1.7,0,2.8,0.8,3.3,2.3h0
		c0.6-1.2,2.1-2.3,3.8-2.3c2.3,0,3.7,1.3,3.7,4.3v7.2h-2.8V24c0-1.3-0.2-2.2-1.5-2.2c-1.4,0-2.4,1.1-2.7,2.6
		c-0.1,0.4-0.1,0.9-0.1,1.5v4.9H825V24c0-1.2-0.2-2.2-1.5-2.2c-1.5,0-2.4,1.1-2.8,2.6c-0.1,0.4-0.1,0.9-0.1,1.4v4.9h-2.8V19.4z"/>
	<path fill="#FFFFFF" d="M842.1,32.9c1.7,0,3.2-0.7,3.2-2.7v-0.7c0-0.3,0-0.6,0-0.6h0c-0.7,1-1.6,1.5-3.1,1.5c-3.2,0-5-2.6-5-5.7
		s1.7-5.6,5-5.6c2.4,0,3.3,1.4,3.3,1.4h0.1c0,0,0-0.1,0-0.3v-0.9h2.6V30c0,3.9-3,5.3-5.9,5.3c-1.4,0-2.9-0.4-4-1l0.8-2.1
		C839,32.2,840.4,32.9,842.1,32.9z M845.4,24.8c0-2.6-1.3-3.2-2.8-3.2c-1.7,0-2.6,1.2-2.6,3.1c0,2,1,3.4,2.8,3.4
		C844.1,28.1,845.4,27.3,845.4,24.8z"/>
	<path fill="#FFFFFF" d="M726.6,46.1c0-3.2,0.9-6.1,2.6-8.8h2.4c-1.6,2.7-2.5,5.7-2.5,8.8c0,3.3,0.8,6.6,2.5,9.6h-2.4
		C727.6,53.1,726.6,49.7,726.6,46.1z"/>
	<path fill="#FFFFFF" d="M733.5,42.4h2.7v1.3c0,0.4,0,0.8,0,0.8h0c0.5-0.9,1.7-2.3,4-2.3c2.5,0,3.9,1.3,3.9,4.3v7.2h-2.8V47
		c0-1.4-0.4-2.3-1.8-2.3c-1.5,0-2.6,0.9-3,2.3c-0.2,0.5-0.2,1-0.2,1.5v5.1h-2.8V42.4z"/>
	<path fill="#FFFFFF" d="M747.3,44H758v2.2h-10.7V44z M747.3,48.5H758v2.2h-10.7V48.5z"/>
	<path fill="#FFFFFF" d="M760.4,47.9l6.7-9.9h3.4v9.2h2v2.4h-2v4h-2.8v-4h-7.3V47.9z M767.7,47.3v-4.8c0-0.8,0.1-1.6,0.1-1.6h0
		c0,0-0.4,0.8-0.8,1.4l-3.6,5v0H767.7z"/>
	<path fill="#FFFFFF" d="M774.7,51.2h3.4v-8.7c0-0.5,0-1.1,0-1.1h0c0,0-0.2,0.4-0.7,0.9l-1.3,1.2l-1.7-1.8l3.9-3.8h2.5v13.2h3.4v2.4
		h-9.5V51.2z"/>
	<path fill="#FFFFFF" d="M787.1,49.7c0,0,1.3,1.6,3.3,1.6c1.5,0,2.9-1,2.9-2.7c0-1.6-1.4-2.7-3.1-2.7c-1.4,0-2.4,0.7-2.4,0.7
		l-1.6-0.6L787,38h8.2v2.4h-5.8l-0.2,2.6c0,0.4-0.1,0.7-0.1,0.7h0c0,0,0.7-0.4,1.7-0.4c3.5,0,5.5,2.3,5.5,5.1c0,3.1-2.4,5.4-5.6,5.4
		c-3.3,0-5-2.1-5-2.1L787.1,49.7z"/>
	<path fill="#FFFFFF" d="M797.7,55.7c1.6-3,2.5-6.3,2.5-9.6c0-3.1-0.9-6.1-2.5-8.8h2.4c1.7,2.6,2.6,5.6,2.6,8.8c0,3.6-1,7-2.6,9.6
		H797.7z"/>
</g>
<g>
	<path fill="#FFFFFF" d="M989.5,26.6H984l-1.3,4h-2.9l5.5-15.6h3l5.5,15.6h-2.9L989.5,26.6z M986.7,17.7c0,0-0.4,1.5-0.7,2.4
		l-1.4,4.2h4.1l-1.4-4.2C987.1,19.3,986.8,17.7,986.7,17.7L986.7,17.7z"/>
	<path fill="#FFFFFF" d="M995.7,15h6c2.9,0,5,2,5,5.1s-2,5.1-5,5.1h-3.2v5.4h-2.8V15z M1001.2,22.8c1.6,0,2.6-1.1,2.6-2.7
		c0-1.6-1-2.6-2.6-2.6h-2.7v5.3H1001.2z"/>
	<path fill="#FFFFFF" d="M1012.4,17.5h-5.1V15h13.1v2.4h-5.1v13.2h-2.8V17.5z"/>
	<path fill="#FFFFFF" d="M1022.5,15h2.8v15.6h-2.8V15z"/>
	<path fill="#FFFFFF" d="M1036.3,14.8c4.6,0,8.1,3.5,8.1,8c0,4.6-3.5,8.2-8.1,8.2s-8.1-3.6-8.1-8.2
		C1028.2,18.3,1031.7,14.8,1036.3,14.8z M1036.3,28.3c2.9,0,5.1-2.4,5.1-5.6c0-3.1-2.3-5.4-5.1-5.4s-5.1,2.3-5.1,5.4
		C1031.1,25.9,1033.4,28.3,1036.3,28.3z"/>
	<path fill="#FFFFFF" d="M1048,15h3l3.1,7.7c0.4,0.9,0.8,2.3,0.8,2.3h0c0,0,0.4-1.4,0.8-2.3l3.1-7.7h3l1.3,15.6h-2.8l-0.7-8.7
		c-0.1-1,0-2.4,0-2.4h0c0,0-0.5,1.5-0.8,2.4l-2.5,6.1h-2.5l-2.5-6.1c-0.4-0.9-0.9-2.4-0.9-2.4h0c0,0,0,1.4,0,2.4l-0.7,8.7h-2.8
		L1048,15z"/>
	<path fill="#FFFFFF" d="M1071.1,28.2h3.4v-8.7c0-0.5,0-1.1,0-1.1h0c0,0-0.2,0.4-0.7,0.9l-1.3,1.2l-1.7-1.8l3.9-3.8h2.5v13.2h3.4
		v2.4h-9.5V28.2z"/>
	<path fill="#FFFFFF" d="M1082.3,29.3c0-5.6,7.3-6.5,7.3-9.6c0-1.4-1.1-2.2-2.4-2.2c-1.8,0-2.8,1.8-2.8,1.8l-2.1-1.4
		c0,0,1.4-3.1,5.2-3.1c2.8,0,5.1,1.7,5.1,4.6c0,5-7,5.9-7.1,8.8h7.3v2.4h-10.4C1082.3,30.1,1082.3,29.7,1082.3,29.3z"/>
	<path fill="#FFFFFF" d="M1095.2,22.8c0-4.5,1.4-8.1,5.7-8.1s5.7,3.6,5.7,8.1c0,4.5-1.4,8.1-5.7,8.1S1095.2,27.3,1095.2,22.8z
		 M1103.6,22.8c0-3-0.6-5.4-2.8-5.4c-2.1,0-2.8,2.4-2.8,5.4c0,3.1,0.6,5.5,2.8,5.5C1103,28.3,1103.6,25.9,1103.6,22.8z"/>
	<path fill="#FFFFFF" d="M1109,22.8c0-4.5,1.4-8.1,5.7-8.1s5.7,3.6,5.7,8.1c0,4.5-1.4,8.1-5.7,8.1S1109,27.3,1109,22.8z
		 M1117.4,22.8c0-3-0.6-5.4-2.8-5.4c-2.1,0-2.8,2.4-2.8,5.4c0,3.1,0.6,5.5,2.8,5.5C1116.8,28.3,1117.4,25.9,1117.4,22.8z"/>
	<path fill="#FFFFFF" d="M1128.5,19.4h2.7v1.3c0,0.4,0,0.8,0,0.8h0c0.5-1.1,1.9-2.3,3.7-2.3c1.7,0,2.8,0.8,3.3,2.3h0
		c0.6-1.2,2.1-2.3,3.8-2.3c2.3,0,3.7,1.3,3.7,4.3v7.2h-2.8V24c0-1.3-0.2-2.2-1.5-2.2c-1.4,0-2.4,1.1-2.7,2.6
		c-0.1,0.4-0.1,0.9-0.1,1.5v4.9h-2.8V24c0-1.2-0.2-2.2-1.5-2.2c-1.5,0-2.4,1.1-2.8,2.6c-0.1,0.4-0.1,0.9-0.1,1.4v4.9h-2.8V19.4z"/>
	<path fill="#FFFFFF" d="M1152.8,32.9c1.7,0,3.2-0.7,3.2-2.7v-0.7c0-0.3,0-0.6,0-0.6h0c-0.7,1-1.6,1.5-3.1,1.5c-3.2,0-5-2.6-5-5.7
		s1.7-5.6,5-5.6c2.4,0,3.3,1.4,3.3,1.4h0.1c0,0,0-0.1,0-0.3v-0.9h2.6V30c0,3.9-3,5.3-5.9,5.3c-1.4,0-2.9-0.4-4-1l0.8-2.1
		C1149.7,32.2,1151.1,32.9,1152.8,32.9z M1156.1,24.8c0-2.6-1.3-3.2-2.8-3.2c-1.7,0-2.6,1.2-2.6,3.1c0,2,1,3.4,2.8,3.4
		C1154.8,28.1,1156.1,27.3,1156.1,24.8z"/>
	<path fill="#FFFFFF" d="M1028.7,46.1c0-3.2,0.9-6.1,2.6-8.8h2.4c-1.6,2.7-2.5,5.7-2.5,8.8c0,3.3,0.8,6.6,2.5,9.6h-2.4
		C1029.6,53.1,1028.7,49.7,1028.7,46.1z"/>
	<path fill="#FFFFFF" d="M1035.6,42.4h2.7v1.3c0,0.4,0,0.8,0,0.8h0c0.5-0.9,1.7-2.3,4-2.3c2.5,0,3.9,1.3,3.9,4.3v7.2h-2.8V47
		c0-1.4-0.4-2.3-1.8-2.3c-1.5,0-2.6,0.9-3,2.3c-0.2,0.5-0.2,1-0.2,1.5v5.1h-2.8V42.4z"/>
	<path fill="#FFFFFF" d="M1049.3,44h10.7v2.2h-10.7V44z M1049.3,48.5h10.7v2.2h-10.7V48.5z"/>
	<path fill="#FFFFFF" d="M1062.5,47.9l6.7-9.9h3.4v9.2h2v2.4h-2v4h-2.8v-4h-7.3V47.9z M1069.8,47.3v-4.8c0-0.8,0.1-1.6,0.1-1.6h0
		c0,0-0.4,0.8-0.8,1.4l-3.6,5v0H1069.8z"/>
	<path fill="#FFFFFF" d="M1076.7,51.2h3.4v-8.7c0-0.5,0-1.1,0-1.1h0c0,0-0.2,0.4-0.7,0.9l-1.3,1.2l-1.7-1.8l3.9-3.8h2.5v13.2h3.4
		v2.4h-9.5V51.2z"/>
	<path fill="#FFFFFF" d="M1088.1,45.8c0-4.5,1.4-8.1,5.7-8.1s5.7,3.6,5.7,8.1c0,4.5-1.4,8.1-5.7,8.1S1088.1,50.3,1088.1,45.8z
		 M1096.5,45.8c0-3-0.6-5.4-2.8-5.4c-2.1,0-2.8,2.4-2.8,5.4c0,3.1,0.6,5.5,2.8,5.5C1095.8,51.3,1096.5,48.9,1096.5,45.8z"/>
	<path fill="#FFFFFF" d="M1101.1,55.7c1.6-3,2.5-6.3,2.5-9.6c0-3.1-0.9-6.1-2.5-8.8h2.4c1.7,2.6,2.6,5.6,2.6,8.8c0,3.6-1,7-2.6,9.6
		H1101.1z"/>
</g>
<g>
	<path fill="#6E6F71" d="M16.8,78.3h3l3.1,7.7c0.4,0.9,0.8,2.3,0.8,2.3h0c0,0,0.4-1.4,0.8-2.3l3.1-7.7h3l1.3,15.6H29l-0.7-8.7
		c-0.1-1,0-2.4,0-2.4h0c0,0-0.5,1.5-0.8,2.4l-2.5,6.1h-2.5l-2.5-6.1c-0.4-0.9-0.9-2.4-0.9-2.4h0c0,0,0,1.4,0,2.4l-0.7,8.7h-2.8
		L16.8,78.3z"/>
	<path fill="#6E6F71" d="M39.8,82.5c3.2,0,5,2.4,5,5.3c0,0.3-0.1,1.1-0.1,1.1h-7.7c0.2,2,1.7,3,3.4,3c1.8,0,3.2-1.2,3.2-1.2l1.1,2
		c0,0-1.7,1.6-4.5,1.6c-3.7,0-6-2.7-6-5.9C34.1,84.9,36.4,82.5,39.8,82.5z M41.9,86.9c0-1.5-1-2.3-2.2-2.3c-1.4,0-2.4,0.9-2.7,2.3
		H41.9z"/>
	<path fill="#6E6F71" d="M47.1,82.7h2.7V84c0,0.4,0,0.8,0,0.8h0c0.6-1.1,1.9-2.3,3.7-2.3c1.7,0,2.8,0.8,3.3,2.3h0
		c0.6-1.2,2.1-2.3,3.8-2.3c2.3,0,3.7,1.3,3.7,4.3v7.2h-2.8v-6.7c0-1.3-0.2-2.2-1.5-2.2c-1.4,0-2.4,1.1-2.7,2.6
		c-0.1,0.4-0.1,0.9-0.1,1.5v4.9h-2.8v-6.7c0-1.2-0.2-2.2-1.5-2.2c-1.5,0-2.4,1.1-2.8,2.6c-0.1,0.4-0.1,0.9-0.1,1.4v4.9h-2.8V82.7z"
		/>
	<path fill="#6E6F71" d="M72.5,82.5c3.4,0,6.2,2.4,6.2,5.9c0,3.5-2.8,5.9-6.2,5.9c-3.4,0-6.2-2.4-6.2-5.9
		C66.3,84.9,69.1,82.5,72.5,82.5z M72.5,91.8c1.8,0,3.3-1.4,3.3-3.5c0-2.1-1.5-3.5-3.3-3.5c-1.8,0-3.3,1.4-3.3,3.5
		C69.1,90.4,70.7,91.8,72.5,91.8z"/>
	<path fill="#6E6F71" d="M80.9,82.7h2.7v1.9c0,0.4,0,0.8,0,0.8h0c0.5-1.6,1.8-2.9,3.6-2.9c0.3,0,0.5,0,0.5,0v2.8c0,0-0.3,0-0.7,0
		c-1.2,0-2.5,0.7-3.1,2.4c-0.2,0.6-0.2,1.2-0.2,1.8v4.4h-2.8V82.7z"/>
	<path fill="#6E6F71" d="M88.9,95.7c0,0,0.6,0.5,1.3,0.5c0.8,0,1.5-0.5,1.9-1.5l0.4-1l-4.7-11H91l2.4,6.5c0.2,0.6,0.4,1.5,0.4,1.5h0
		c0,0,0.2-0.9,0.4-1.5l2.2-6.5h3.1l-5,12.9c-0.8,2-2.4,2.9-4,2.9c-1.3,0-2.3-0.7-2.3-0.7L88.9,95.7z"/>
	<path fill="#6E6F71" d="M106.3,78.3h2.8v2.5h-2.8V78.3z M106.3,82.7h2.8v11.2h-2.8V82.7z"/>
	<path fill="#6E6F71" d="M112.2,82.7h2.7V84c0,0.4,0,0.8,0,0.8h0c0.6-1.1,1.9-2.3,3.7-2.3c1.7,0,2.8,0.8,3.3,2.3h0
		c0.6-1.2,2.1-2.3,3.8-2.3c2.3,0,3.7,1.3,3.7,4.3v7.2h-2.8v-6.7c0-1.3-0.2-2.2-1.5-2.2c-1.4,0-2.4,1.1-2.7,2.6
		c-0.1,0.4-0.1,0.9-0.1,1.5v4.9h-2.8v-6.7c0-1.2-0.2-2.2-1.5-2.2c-1.5,0-2.4,1.1-2.8,2.6C115,88,115,88.5,115,89v4.9h-2.8V82.7z"/>
	<path fill="#6E6F71" d="M132.3,82.7h2.6v0.8c0,0.4,0,0.8,0,0.8h0c0,0,1-1.8,3.6-1.8c3,0,5,2.4,5,5.9c0,3.6-2.2,5.9-5.1,5.9
		c-2.2,0-3.2-1.5-3.2-1.5h0c0,0,0,0.4,0,1v4.7h-2.8V82.7z M137.8,91.8c1.5,0,2.8-1.3,2.8-3.5c0-2.1-1.1-3.5-2.8-3.5
		c-1.5,0-2.8,1.1-2.8,3.5C135,90.1,136,91.8,137.8,91.8z"/>
	<path fill="#6E6F71" d="M151.5,86.9h0.4v-0.2c0-1.5-0.9-2-2.2-2c-1.6,0-3.1,1.1-3.1,1.1l-1.1-2c0,0,1.7-1.4,4.4-1.4
		c2.9,0,4.7,1.6,4.7,4.5v7H152V93c0-0.4,0-0.8,0-0.8h0c0,0-0.9,2-3.4,2c-2,0-3.8-1.3-3.8-3.5C144.8,87.1,149.6,86.9,151.5,86.9z
		 M149.3,92c1.5,0,2.5-1.6,2.5-2.9v-0.3h-0.5c-1.4,0-3.7,0.2-3.7,1.8C147.6,91.3,148.2,92,149.3,92z"/>
	<path fill="#6E6F71" d="M157.5,78.3h2.8v2.5h-2.8V78.3z M157.5,82.7h2.8v11.2h-2.8V82.7z"/>
	<path fill="#6E6F71" d="M163.4,82.7h2.7v1.9c0,0.4,0,0.8,0,0.8h0c0.5-1.6,1.8-2.9,3.6-2.9c0.3,0,0.5,0,0.5,0v2.8c0,0-0.3,0-0.7,0
		c-1.2,0-2.5,0.7-3.1,2.4c-0.2,0.6-0.2,1.2-0.2,1.8v4.4h-2.8V82.7z"/>
	<path fill="#6E6F71" d="M172,82.7h2.7V84c0,0.4,0,0.8,0,0.8h0c0.6-1.1,1.9-2.3,3.7-2.3c1.7,0,2.8,0.8,3.3,2.3h0
		c0.6-1.2,2.1-2.3,3.8-2.3c2.3,0,3.7,1.3,3.7,4.3v7.2h-2.8v-6.7c0-1.3-0.2-2.2-1.5-2.2c-1.4,0-2.4,1.1-2.7,2.6
		C182,88,182,88.5,182,89v4.9h-2.8v-6.7c0-1.2-0.2-2.2-1.5-2.2c-1.5,0-2.4,1.1-2.8,2.6c-0.1,0.4-0.1,0.9-0.1,1.4v4.9H172V82.7z"/>
	<path fill="#6E6F71" d="M197,82.5c3.2,0,5,2.4,5,5.3c0,0.3-0.1,1.1-0.1,1.1h-7.7c0.2,2,1.7,3,3.4,3c1.8,0,3.2-1.2,3.2-1.2l1.1,2
		c0,0-1.7,1.6-4.5,1.6c-3.7,0-6-2.7-6-5.9C191.3,84.9,193.7,82.5,197,82.5z M199.2,86.9c0-1.5-1-2.3-2.2-2.3c-1.4,0-2.4,0.9-2.7,2.3
		H199.2z"/>
	<path fill="#6E6F71" d="M204.3,82.7h2.7V84c0,0.4,0,0.8,0,0.8h0c0.5-0.9,1.7-2.3,4-2.3c2.5,0,3.9,1.3,3.9,4.3v7.2h-2.8v-6.6
		c0-1.4-0.4-2.3-1.8-2.3c-1.5,0-2.6,0.9-3,2.3c-0.2,0.5-0.2,1-0.2,1.5v5.1h-2.8V82.7z"/>
	<path fill="#6E6F71" d="M218.3,85.1h-1.5v-2.2h1.5v-3.2h2.7v3.2h2.6v2.2h-2.6v4.4c0,1.8,1.5,2.1,2.2,2.1c0.3,0,0.5,0,0.5,0V94
		c0,0-0.3,0.1-0.9,0.1c-1.6,0-4.7-0.5-4.7-4.2V85.1z"/>
</g>
<g>
	<path fill="#6E6F71" d="M444.8,86.2c0-4.4,1.3-8,5.3-8c4,0,5.3,3.5,5.3,8c0,4.5-1.3,8-5.3,8C446.2,94.2,444.8,90.7,444.8,86.2z
		 M453.9,86.2c0-3.7-0.8-6.6-3.7-6.6c-2.9,0-3.8,2.9-3.8,6.6c0,3.7,0.8,6.6,3.8,6.6C453.1,92.8,453.9,89.9,453.9,86.2z"/>
	<path fill="#6E6F71" d="M458.4,92.2h1.7v1.8h-1.7V92.2z"/>
	<path fill="#6E6F71" d="M463.3,92.9c0-5.4,7.9-6.1,7.9-10.3c0-1.7-1.3-3-3.2-3c-2.3,0-3.5,2.1-3.5,2.1l-1.1-0.8
		c0,0,1.4-2.8,4.7-2.8c2.9,0,4.7,1.9,4.7,4.3c0,5.2-7.8,5.9-7.8,10h8.1v1.4h-9.7C463.3,93.6,463.3,93.3,463.3,92.9z"/>
	<path fill="#6E6F71" d="M475.6,81.3c0-1.7,1.4-3.1,3.1-3.1s3.1,1.4,3.1,3.1c0,1.7-1.4,3.1-3.1,3.1S475.6,83,475.6,81.3z
		 M487.5,78.5h1.6l-11.8,15.5h-1.6L487.5,78.5z M480.5,81.3c0-1-0.8-1.8-1.8-1.8s-1.8,0.8-1.8,1.8c0,1,0.8,1.8,1.8,1.8
		S480.5,82.3,480.5,81.3z M486.1,88.1c1.7,0,3.1,1.4,3.1,3.1c0,1.7-1.4,3-3.1,3c-1.7,0-3.1-1.4-3.1-3
		C483.1,89.5,484.4,88.1,486.1,88.1z M486.1,93c1,0,1.8-0.8,1.8-1.8c0-1-0.8-1.8-1.8-1.8c-1,0-1.8,0.8-1.8,1.8
		C484.4,92.2,485.1,93,486.1,93z"/>
</g>
<g>
	<path fill="#6E6F71" d="M751.4,92.6h3.5V81.2c0-0.4,0-0.9,0-0.9h0c0,0-0.2,0.3-0.8,0.9l-1.7,1.7l-1-1l3.5-3.5h1.4v14.1h3.4v1.4
		h-8.4V92.6z"/>
	<path fill="#6E6F71" d="M762.3,92.2h1.7v1.8h-1.7V92.2z"/>
	<path fill="#6E6F71" d="M766.9,86.2c0-4.4,1.3-8,5.3-8s5.3,3.5,5.3,8c0,4.5-1.3,8-5.3,8S766.9,90.7,766.9,86.2z M776,86.2
		c0-3.7-0.8-6.6-3.7-6.6c-2.9,0-3.8,2.9-3.8,6.6c0,3.7,0.8,6.6,3.8,6.6C775.2,92.8,776,89.9,776,86.2z"/>
	<path fill="#6E6F71" d="M780.3,81.3c0-1.7,1.4-3.1,3.1-3.1c1.7,0,3.1,1.4,3.1,3.1c0,1.7-1.4,3.1-3.1,3.1
		C781.7,84.3,780.3,83,780.3,81.3z M792.2,78.5h1.6L782,93.9h-1.6L792.2,78.5z M785.2,81.3c0-1-0.8-1.8-1.8-1.8
		c-1,0-1.8,0.8-1.8,1.8c0,1,0.8,1.8,1.8,1.8C784.4,83.1,785.2,82.3,785.2,81.3z M790.8,88.1c1.7,0,3.1,1.4,3.1,3.1
		c0,1.7-1.4,3-3.1,3c-1.7,0-3.1-1.4-3.1-3C787.8,89.5,789.1,88.1,790.8,88.1z M790.8,93c1,0,1.8-0.8,1.8-1.8c0-1-0.8-1.8-1.8-1.8
		c-1,0-1.8,0.8-1.8,1.8C789.1,92.2,789.8,93,790.8,93z"/>
</g>
<g>
	<path fill="#6E6F71" d="M1057.8,92.6h3.5V81.2c0-0.4,0-0.9,0-0.9h0c0,0-0.2,0.3-0.8,0.9l-1.7,1.7l-1-1l3.5-3.5h1.4v14.1h3.4v1.4
		h-8.4V92.6z"/>
	<path fill="#6E6F71" d="M1068.7,92.2h1.7v1.8h-1.7V92.2z"/>
	<path fill="#6E6F71" d="M1080.4,81.3c0.4-0.8,0.9-1.4,0.9-1.4v0c0,0-0.4,0-1.2,0h-7.2v-1.4h10.1v1.1l-7.2,14.4h-1.6L1080.4,81.3z"
		/>
	<path fill="#6E6F71" d="M1084.7,81.3c0-1.7,1.4-3.1,3.1-3.1c1.7,0,3.1,1.4,3.1,3.1c0,1.7-1.4,3.1-3.1,3.1
		C1086,84.3,1084.7,83,1084.7,81.3z M1096.6,78.5h1.6l-11.8,15.5h-1.6L1096.6,78.5z M1089.6,81.3c0-1-0.8-1.8-1.8-1.8
		c-1,0-1.8,0.8-1.8,1.8c0,1,0.8,1.8,1.8,1.8C1088.8,83.1,1089.6,82.3,1089.6,81.3z M1095.2,88.1c1.7,0,3.1,1.4,3.1,3.1
		c0,1.7-1.4,3-3.1,3c-1.7,0-3.1-1.4-3.1-3C1092.1,89.5,1093.5,88.1,1095.2,88.1z M1095.2,93c1,0,1.8-0.8,1.8-1.8
		c0-1-0.8-1.8-1.8-1.8c-1,0-1.8,0.8-1.8,1.8C1093.4,92.2,1094.2,93,1095.2,93z"/>
</g>
<g>
	<path fill="#6E6F71" d="M16,116.2h5.3c4.8,0,8,2.9,8,7.8s-3.1,7.8-8,7.8H16V116.2z M21.2,129.4c3.2,0,5.2-1.9,5.2-5.4
		c0-3.5-2.1-5.3-5.2-5.3h-2.3v10.7H21.2z"/>
	<path fill="#6E6F71" d="M31.8,116.2h2.8v2.5h-2.8V116.2z M31.8,120.6h2.8v11.2h-2.8V120.6z"/>
	<path fill="#6E6F71" d="M38,128.5c0,0,1.2,1.2,3.1,1.2c0.8,0,1.5-0.4,1.5-1c0-1.7-5.5-1.5-5.5-5.1c0-2.1,1.9-3.3,4.3-3.3
		c2.5,0,3.8,1.3,3.8,1.3l-1,2.1c0,0-1-1-2.8-1c-0.7,0-1.4,0.3-1.4,1c0,1.6,5.5,1.4,5.5,5c0,1.9-1.6,3.4-4.3,3.4
		c-2.8,0-4.4-1.7-4.4-1.7L38,128.5z"/>
	<path fill="#6E6F71" d="M48.1,123h-1.5v-2.2h1.5v-3.2h2.7v3.2h2.6v2.2h-2.6v4.4c0,1.8,1.5,2.1,2.2,2.1c0.3,0,0.5,0,0.5,0v2.4
		c0,0-0.3,0.1-0.9,0.1c-1.6,0-4.7-0.5-4.7-4.2V123z"/>
	<path fill="#6E6F71" d="M55.8,120.6h2.8v6.6c0,1.4,0.4,2.3,1.7,2.3c2,0,3.1-1.8,3.1-3.8v-5.1h2.8v11.2h-2.7v-1.3c0-0.4,0-0.8,0-0.8
		h0c-0.5,1.2-2,2.3-3.9,2.3c-2.4,0-3.9-1.2-3.9-4.3V120.6z"/>
	<path fill="#6E6F71" d="M69.3,120.6H72v1.9c0,0.4,0,0.8,0,0.8h0c0.5-1.6,1.8-2.9,3.6-2.9c0.3,0,0.5,0,0.5,0v2.8c0,0-0.3,0-0.7,0
		c-1.2,0-2.5,0.7-3.1,2.4c-0.2,0.6-0.2,1.2-0.2,1.8v4.4h-2.8V120.6z"/>
	<path fill="#6E6F71" d="M78,116.2h2.8v4.8c0,0.6,0,0.9,0,0.9h0c0,0,1-1.6,3.4-1.6c3,0,5,2.4,5,5.9c0,3.6-2.2,5.9-5.1,5.9
		c-2.3,0-3.3-1.7-3.3-1.7h0c0,0,0,0.3,0,0.8v0.6H78V116.2z M83.5,129.7c1.5,0,2.8-1.3,2.8-3.5c0-2.1-1.1-3.5-2.8-3.5
		c-1.5,0-2.8,1.1-2.8,3.5C80.7,128,81.6,129.7,83.5,129.7z"/>
	<path fill="#6E6F71" d="M97.1,124.8h0.4v-0.2c0-1.5-0.9-2-2.2-2c-1.6,0-3.1,1.1-3.1,1.1l-1.1-2c0,0,1.7-1.4,4.4-1.4
		c2.9,0,4.7,1.6,4.7,4.5v7h-2.6v-0.9c0-0.4,0-0.8,0-0.8h0c0,0-0.9,2-3.4,2c-2,0-3.8-1.3-3.8-3.5C90.5,125,95.3,124.8,97.1,124.8z
		 M95,129.9c1.5,0,2.5-1.6,2.5-2.9v-0.3H97c-1.4,0-3.7,0.2-3.7,1.8C93.3,129.2,93.8,129.9,95,129.9z"/>
	<path fill="#6E6F71" d="M103.2,120.6h2.7v1.3c0,0.4,0,0.8,0,0.8h0c0.5-0.9,1.7-2.3,4-2.3c2.5,0,3.9,1.3,3.9,4.3v7.2h-2.8v-6.6
		c0-1.4-0.4-2.3-1.8-2.3c-1.5,0-2.6,0.9-3,2.3c-0.2,0.5-0.2,1-0.2,1.5v5.1h-2.8V120.6z"/>
	<path fill="#6E6F71" d="M121.9,120.3c2.9,0,4.3,1.7,4.3,1.7l-1.2,1.9c0,0-1.2-1.2-2.9-1.2c-2.1,0-3.4,1.6-3.4,3.5
		c0,1.9,1.4,3.5,3.5,3.5c1.9,0,3.3-1.4,3.3-1.4l1.1,2c0,0-1.6,1.8-4.6,1.8c-3.7,0-6.1-2.6-6.1-5.9
		C115.8,123,118.2,120.3,121.9,120.3z"/>
	<path fill="#6E6F71" d="M133.5,120.3c3.2,0,5,2.4,5,5.3c0,0.3-0.1,1.1-0.1,1.1h-7.7c0.2,2,1.7,3,3.4,3c1.8,0,3.2-1.2,3.2-1.2l1.1,2
		c0,0-1.7,1.6-4.5,1.6c-3.7,0-6-2.7-6-5.9C127.8,122.7,130.2,120.3,133.5,120.3z M135.7,124.8c0-1.5-1-2.3-2.2-2.3
		c-1.4,0-2.4,0.9-2.7,2.3H135.7z"/>
	<path fill="#6E6F71" d="M146.2,116.2h2.8v2.5h-2.8V116.2z M146.2,120.6h2.8v11.2h-2.8V120.6z"/>
	<path fill="#6E6F71" d="M152,120.6h2.7v1.3c0,0.4,0,0.8,0,0.8h0c0.5-0.9,1.7-2.3,4-2.3c2.5,0,3.9,1.3,3.9,4.3v7.2h-2.8v-6.6
		c0-1.4-0.4-2.3-1.8-2.3c-1.5,0-2.6,0.9-3,2.3c-0.2,0.5-0.2,1-0.2,1.5v5.1H152V120.6z"/>
	<path fill="#6E6F71" d="M176.6,124.8h0.4v-0.2c0-1.5-0.9-2-2.2-2c-1.6,0-3.1,1.1-3.1,1.1l-1.1-2c0,0,1.7-1.4,4.4-1.4
		c2.9,0,4.7,1.6,4.7,4.5v7h-2.6v-0.9c0-0.4,0-0.8,0-0.8h0c0,0-0.9,2-3.4,2c-2,0-3.8-1.3-3.8-3.5C169.9,125,174.7,124.8,176.6,124.8z
		 M174.4,129.9c1.5,0,2.5-1.6,2.5-2.9v-0.3h-0.5c-1.4,0-3.7,0.2-3.7,1.8C172.7,129.2,173.3,129.9,174.4,129.9z"/>
	<path fill="#6E6F71" d="M183,123h-1.5v-2.2h1.5v-3.2h2.7v3.2h2.6v2.2h-2.6v4.4c0,1.8,1.5,2.1,2.2,2.1c0.3,0,0.5,0,0.5,0v2.4
		c0,0-0.3,0.1-0.9,0.1c-1.6,0-4.7-0.5-4.7-4.2V123z"/>
	<path fill="#6E6F71" d="M191.3,123h-1.5v-2.2h1.5v-3.2h2.7v3.2h2.6v2.2h-2.6v4.4c0,1.8,1.5,2.1,2.2,2.1c0.3,0,0.5,0,0.5,0v2.4
		c0,0-0.3,0.1-0.9,0.1c-1.6,0-4.7-0.5-4.7-4.2V123z"/>
	<path fill="#6E6F71" d="M204.1,120.3c3.2,0,5,2.4,5,5.3c0,0.3-0.1,1.1-0.1,1.1h-7.7c0.2,2,1.7,3,3.4,3c1.8,0,3.2-1.2,3.2-1.2l1.1,2
		c0,0-1.7,1.6-4.5,1.6c-3.7,0-6-2.7-6-5.9C198.4,122.7,200.7,120.3,204.1,120.3z M206.2,124.8c0-1.5-1-2.3-2.2-2.3
		c-1.4,0-2.4,0.9-2.7,2.3H206.2z"/>
	<path fill="#6E6F71" d="M211.3,120.6h2.7v1.3c0,0.4,0,0.8,0,0.8h0c0.5-0.9,1.7-2.3,4-2.3c2.5,0,3.9,1.3,3.9,4.3v7.2h-2.8v-6.6
		c0-1.4-0.4-2.3-1.8-2.3c-1.5,0-2.6,0.9-3,2.3c-0.2,0.5-0.2,1-0.2,1.5v5.1h-2.8V120.6z"/>
	<path fill="#6E6F71" d="M225.3,123h-1.5v-2.2h1.5v-3.2h2.7v3.2h2.6v2.2h-2.6v4.4c0,1.8,1.5,2.1,2.2,2.1c0.3,0,0.5,0,0.5,0v2.4
		c0,0-0.3,0.1-0.9,0.1c-1.6,0-4.7-0.5-4.7-4.2V123z"/>
	<path fill="#6E6F71" d="M233.1,116.2h2.8v2.5h-2.8V116.2z M233.1,120.6h2.8v11.2h-2.8V120.6z"/>
	<path fill="#6E6F71" d="M244.3,120.3c3.4,0,6.2,2.4,6.2,5.9c0,3.5-2.8,5.9-6.2,5.9c-3.4,0-6.2-2.4-6.2-5.9
		C238.1,122.8,240.9,120.3,244.3,120.3z M244.3,129.7c1.8,0,3.3-1.4,3.3-3.5c0-2.1-1.5-3.5-3.3-3.5c-1.8,0-3.3,1.4-3.3,3.5
		C241,128.3,242.5,129.7,244.3,129.7z"/>
	<path fill="#6E6F71" d="M252.7,120.6h2.7v1.3c0,0.4,0,0.8,0,0.8h0c0.5-0.9,1.7-2.3,4-2.3c2.5,0,3.9,1.3,3.9,4.3v7.2h-2.8v-6.6
		c0-1.4-0.4-2.3-1.8-2.3c-1.5,0-2.6,0.9-3,2.3c-0.2,0.5-0.2,1-0.2,1.5v5.1h-2.8V120.6z"/>
</g>
<g>
	<path fill="#6E6F71" d="M444.9,124.1c0-4.4,1.3-8,5.3-8c4,0,5.3,3.5,5.3,8c0,4.5-1.3,8-5.3,8C446.2,132.1,444.9,128.5,444.9,124.1z
		 M454,124.1c0-3.7-0.8-6.6-3.7-6.6c-2.9,0-3.8,2.9-3.8,6.6c0,3.7,0.8,6.6,3.8,6.6C453.2,130.6,454,127.8,454,124.1z"/>
	<path fill="#6E6F71" d="M458.4,130h1.7v1.8h-1.7V130z"/>
	<path fill="#6E6F71" d="M464.2,128.8c0,0,1.1,1.8,3.5,1.8c2.1,0,3.9-1.5,3.9-3.6s-1.7-3.6-3.9-3.6c-1.7,0-2.8,0.8-2.8,0.8l-1-0.4
		l0.8-7.5h7.5v1.4H466l-0.4,4c-0.1,0.6-0.2,0.9-0.2,0.9h0c0,0,1-0.6,2.4-0.6c3.1,0,5.3,2.2,5.3,5c0,2.9-2.4,5.1-5.4,5.1
		c-3.1,0-4.5-2.2-4.5-2.2L464.2,128.8z"/>
	<path fill="#6E6F71" d="M475.5,119.1c0-1.7,1.4-3.1,3.1-3.1s3.1,1.4,3.1,3.1c0,1.7-1.4,3.1-3.1,3.1S475.5,120.8,475.5,119.1z
		 M487.5,116.3h1.6l-11.8,15.5h-1.6L487.5,116.3z M480.4,119.1c0-1-0.8-1.8-1.8-1.8s-1.8,0.8-1.8,1.8c0,1,0.8,1.8,1.8,1.8
		S480.4,120.1,480.4,119.1z M486.1,126c1.7,0,3.1,1.4,3.1,3.1c0,1.7-1.4,3-3.1,3s-3.1-1.4-3.1-3C483,127.3,484.3,126,486.1,126z
		 M486.1,130.8c1,0,1.8-0.8,1.8-1.8c0-1-0.8-1.8-1.8-1.8s-1.8,0.8-1.8,1.8C484.3,130,485,130.8,486.1,130.8z"/>
</g>
<g>
	<path fill="#6E6F71" d="M751.3,124.1c0-4.4,1.3-8,5.3-8s5.3,3.5,5.3,8c0,4.5-1.3,8-5.3,8S751.3,128.5,751.3,124.1z M760.4,124.1
		c0-3.7-0.8-6.6-3.7-6.6c-2.9,0-3.8,2.9-3.8,6.6c0,3.7,0.8,6.6,3.8,6.6C759.5,130.6,760.4,127.8,760.4,124.1z"/>
	<path fill="#6E6F71" d="M764.8,130h1.7v1.8h-1.7V130z"/>
	<path fill="#6E6F71" d="M776.5,119.1c0.4-0.8,0.9-1.4,0.9-1.4v0c0,0-0.4,0-1.2,0h-7.2v-1.4H779v1.1l-7.2,14.4h-1.6L776.5,119.1z"/>
	<path fill="#6E6F71" d="M780.8,119.1c0-1.7,1.4-3.1,3.1-3.1c1.7,0,3.1,1.4,3.1,3.1c0,1.7-1.4,3.1-3.1,3.1
		C782.1,122.2,780.8,120.8,780.8,119.1z M792.7,116.3h1.6l-11.8,15.5h-1.6L792.7,116.3z M785.6,119.1c0-1-0.8-1.8-1.8-1.8
		c-1,0-1.8,0.8-1.8,1.8c0,1,0.8,1.8,1.8,1.8C784.9,121,785.6,120.1,785.6,119.1z M791.3,126c1.7,0,3.1,1.4,3.1,3.1
		c0,1.7-1.4,3-3.1,3c-1.7,0-3.1-1.4-3.1-3C788.2,127.3,789.6,126,791.3,126z M791.3,130.8c1,0,1.8-0.8,1.8-1.8c0-1-0.8-1.8-1.8-1.8
		c-1,0-1.8,0.8-1.8,1.8C789.5,130,790.3,130.8,791.3,130.8z"/>
</g>
<g>
	<path fill="#6E6F71" d="M1057.3,130.4h3.5v-11.4c0-0.4,0-0.9,0-0.9h0c0,0-0.2,0.3-0.8,0.9l-1.7,1.7l-1-1l3.5-3.5h1.4v14.1h3.4v1.4
		h-8.4V130.4z"/>
	<path fill="#6E6F71" d="M1068.1,130h1.7v1.8h-1.7V130z"/>
	<path fill="#6E6F71" d="M1073.9,128.8c0,0,1.1,1.8,3.5,1.8c2.1,0,3.8-1.5,3.8-3.6s-1.7-3.6-3.9-3.6c-1.7,0-2.8,0.8-2.8,0.8l-1-0.4
		l0.8-7.5h7.5v1.4h-6.2l-0.4,4c-0.1,0.6-0.2,0.9-0.2,0.9h0c0,0,1-0.6,2.4-0.6c3.1,0,5.3,2.2,5.3,5c0,2.9-2.4,5.1-5.4,5.1
		c-3.1,0-4.5-2.2-4.5-2.2L1073.9,128.8z"/>
	<path fill="#6E6F71" d="M1085.2,119.1c0-1.7,1.4-3.1,3.1-3.1c1.7,0,3.1,1.4,3.1,3.1c0,1.7-1.4,3.1-3.1,3.1
		C1086.6,122.2,1085.2,120.8,1085.2,119.1z M1097.2,116.3h1.6l-11.8,15.5h-1.6L1097.2,116.3z M1090.1,119.1c0-1-0.8-1.8-1.8-1.8
		c-1,0-1.8,0.8-1.8,1.8c0,1,0.8,1.8,1.8,1.8C1089.3,121,1090.1,120.1,1090.1,119.1z M1095.7,126c1.7,0,3.1,1.4,3.1,3.1
		c0,1.7-1.4,3-3.1,3c-1.7,0-3.1-1.4-3.1-3C1092.7,127.3,1094,126,1095.7,126z M1095.7,130.8c1,0,1.8-0.8,1.8-1.8
		c0-1-0.8-1.8-1.8-1.8c-1,0-1.8,0.8-1.8,1.8C1094,130,1094.7,130.8,1095.7,130.8z"/>
</g>
<g>
	<path fill="#6E6F71" d="M23.8,165.7h-5.5l-1.3,4H14l5.5-15.6h3l5.5,15.6h-2.9L23.8,165.7z M21,156.8c0,0-0.4,1.5-0.7,2.4l-1.4,4.2
		h4.1l-1.4-4.2C21.4,158.3,21.1,156.8,21,156.8L21,156.8z"/>
	<path fill="#6E6F71" d="M29.6,158.5h2.7v1.3c0,0.4,0,0.8,0,0.8h0c0.6-1.1,1.9-2.3,3.7-2.3c1.7,0,2.8,0.8,3.3,2.3h0
		c0.6-1.2,2.1-2.3,3.8-2.3c2.3,0,3.7,1.3,3.7,4.3v7.2h-2.8V163c0-1.3-0.2-2.2-1.5-2.2c-1.4,0-2.4,1.1-2.7,2.6
		c-0.1,0.4-0.1,0.9-0.1,1.5v4.9h-2.8V163c0-1.2-0.2-2.2-1.5-2.2c-1.5,0-2.4,1.1-2.8,2.6c-0.1,0.4-0.1,0.9-0.1,1.4v4.9h-2.8V158.5z"
		/>
	<path fill="#6E6F71" d="M49.7,158.5h2.7v1.3c0,0.4,0,0.8,0,0.8h0c0.5-0.9,1.7-2.3,4-2.3c2.5,0,3.9,1.3,3.9,4.3v7.2h-2.8V163
		c0-1.4-0.4-2.3-1.8-2.3c-1.5,0-2.6,0.9-3,2.3c-0.2,0.5-0.2,1-0.2,1.5v5.1h-2.8V158.5z"/>
	<path fill="#6E6F71" d="M68,158.2c3.2,0,5,2.4,5,5.3c0,0.3-0.1,1.1-0.1,1.1h-7.7c0.2,2,1.7,3,3.4,3c1.8,0,3.2-1.2,3.2-1.2l1.1,2
		c0,0-1.7,1.6-4.5,1.6c-3.7,0-6-2.7-6-5.9C62.4,160.6,64.7,158.2,68,158.2z M70.2,162.7c0-1.5-1-2.3-2.2-2.3c-1.4,0-2.4,0.9-2.7,2.3
		H70.2z"/>
	<path fill="#6E6F71" d="M75.7,166.3c0,0,1.2,1.2,3.1,1.2c0.8,0,1.5-0.4,1.5-1c0-1.7-5.5-1.5-5.5-5.1c0-2.1,1.9-3.3,4.3-3.3
		c2.5,0,3.8,1.3,3.8,1.3l-1,2.1c0,0-1-1-2.8-1c-0.7,0-1.4,0.3-1.4,1c0,1.6,5.5,1.4,5.5,5c0,1.9-1.6,3.4-4.3,3.4
		c-2.8,0-4.4-1.7-4.4-1.7L75.7,166.3z"/>
	<path fill="#6E6F71" d="M85.3,154.1H88v2.5h-2.8V154.1z M85.3,158.5h2.8v11.2h-2.8V158.5z"/>
	<path fill="#6E6F71" d="M96.8,162.6h0.4v-0.2c0-1.5-0.9-2-2.2-2c-1.6,0-3.1,1.1-3.1,1.1l-1.1-2c0,0,1.7-1.4,4.4-1.4
		c2.9,0,4.7,1.6,4.7,4.5v7h-2.6v-0.9c0-0.4,0-0.8,0-0.8h0c0,0-0.9,2-3.4,2c-2,0-3.8-1.3-3.8-3.5C90.2,162.9,95,162.6,96.8,162.6z
		 M94.7,167.8c1.5,0,2.5-1.6,2.5-2.9v-0.3h-0.5c-1.4,0-3.7,0.2-3.7,1.8C93,167.1,93.6,167.8,94.7,167.8z"/>
</g>
<g>
	<path fill="#6E6F71" d="M444.8,161.9c0-4.4,1.3-8,5.3-8c4,0,5.3,3.5,5.3,8c0,4.5-1.3,8-5.3,8C446.2,169.9,444.8,166.4,444.8,161.9z
		 M453.9,161.9c0-3.7-0.8-6.6-3.7-6.6c-2.9,0-3.8,2.9-3.8,6.6c0,3.7,0.8,6.6,3.8,6.6C453.1,168.5,453.9,165.6,453.9,161.9z"/>
	<path fill="#6E6F71" d="M458.4,167.9h1.7v1.8h-1.7V167.9z"/>
	<path fill="#6E6F71" d="M463.3,168.7c0-5.4,7.9-6.1,7.9-10.3c0-1.7-1.3-3-3.2-3c-2.3,0-3.5,2.1-3.5,2.1l-1.1-0.8
		c0,0,1.4-2.8,4.7-2.8c2.9,0,4.7,1.9,4.7,4.3c0,5.2-7.8,5.9-7.8,10h8.1v1.4h-9.7C463.3,169.3,463.3,169,463.3,168.7z"/>
	<path fill="#6E6F71" d="M475.6,157c0-1.7,1.4-3.1,3.1-3.1s3.1,1.4,3.1,3.1c0,1.7-1.4,3.1-3.1,3.1S475.6,158.7,475.6,157z
		 M487.5,154.2h1.6l-11.8,15.5h-1.6L487.5,154.2z M480.5,157c0-1-0.8-1.8-1.8-1.8s-1.8,0.8-1.8,1.8c0,1,0.8,1.8,1.8,1.8
		S480.5,158,480.5,157z M486.1,163.8c1.7,0,3.1,1.4,3.1,3.1c0,1.7-1.4,3-3.1,3c-1.7,0-3.1-1.4-3.1-3
		C483.1,165.2,484.4,163.8,486.1,163.8z M486.1,168.7c1,0,1.8-0.8,1.8-1.8c0-1-0.8-1.8-1.8-1.8c-1,0-1.8,0.8-1.8,1.8
		C484.4,167.9,485.1,168.7,486.1,168.7z"/>
</g>
<g>
	<path fill="#6E6F71" d="M751.4,168.3h3.5V157c0-0.4,0-0.9,0-0.9h0c0,0-0.2,0.3-0.8,0.9l-1.7,1.7l-1-1l3.5-3.5h1.4v14.1h3.4v1.4
		h-8.4V168.3z"/>
	<path fill="#6E6F71" d="M762.3,167.9h1.7v1.8h-1.7V167.9z"/>
	<path fill="#6E6F71" d="M766.9,161.9c0-4.4,1.3-8,5.3-8s5.3,3.5,5.3,8c0,4.5-1.3,8-5.3,8S766.9,166.4,766.9,161.9z M776,161.9
		c0-3.7-0.8-6.6-3.7-6.6c-2.9,0-3.8,2.9-3.8,6.6c0,3.7,0.8,6.6,3.8,6.6C775.2,168.5,776,165.6,776,161.9z"/>
	<path fill="#6E6F71" d="M780.3,157c0-1.7,1.4-3.1,3.1-3.1c1.7,0,3.1,1.4,3.1,3.1c0,1.7-1.4,3.1-3.1,3.1
		C781.7,160.1,780.3,158.7,780.3,157z M792.2,154.2h1.6L782,169.7h-1.6L792.2,154.2z M785.2,157c0-1-0.8-1.8-1.8-1.8
		c-1,0-1.8,0.8-1.8,1.8c0,1,0.8,1.8,1.8,1.8C784.4,158.8,785.2,158,785.2,157z M790.8,163.8c1.7,0,3.1,1.4,3.1,3.1
		c0,1.7-1.4,3-3.1,3c-1.7,0-3.1-1.4-3.1-3C787.8,165.2,789.1,163.8,790.8,163.8z M790.8,168.7c1,0,1.8-0.8,1.8-1.8
		c0-1-0.8-1.8-1.8-1.8c-1,0-1.8,0.8-1.8,1.8C789.1,167.9,789.8,168.7,790.8,168.7z"/>
</g>
<g>
	<path fill="#6E6F71" d="M1056.7,161.9c0-4.4,1.3-8,5.3-8s5.3,3.5,5.3,8c0,4.5-1.3,8-5.3,8S1056.7,166.4,1056.7,161.9z
		 M1065.7,161.9c0-3.7-0.8-6.6-3.7-6.6c-2.9,0-3.8,2.9-3.8,6.6c0,3.7,0.8,6.6,3.8,6.6C1064.9,168.5,1065.7,165.6,1065.7,161.9z"/>
	<path fill="#6E6F71" d="M1070.2,167.9h1.7v1.8h-1.7V167.9z"/>
	<path fill="#6E6F71" d="M1081.9,157c0.4-0.8,0.9-1.4,0.9-1.4v0c0,0-0.4,0-1.2,0h-7.2v-1.4h10.1v1.1l-7.2,14.4h-1.6L1081.9,157z"/>
	<path fill="#6E6F71" d="M1086.2,157c0-1.7,1.4-3.1,3.1-3.1c1.7,0,3.1,1.4,3.1,3.1c0,1.7-1.4,3.1-3.1,3.1
		C1087.5,160.1,1086.2,158.7,1086.2,157z M1098.1,154.2h1.6l-11.8,15.5h-1.6L1098.1,154.2z M1091,157c0-1-0.8-1.8-1.8-1.8
		c-1,0-1.8,0.8-1.8,1.8c0,1,0.8,1.8,1.8,1.8C1090.2,158.8,1091,158,1091,157z M1096.7,163.8c1.7,0,3.1,1.4,3.1,3.1
		c0,1.7-1.4,3-3.1,3c-1.7,0-3.1-1.4-3.1-3C1093.6,165.2,1095,163.8,1096.7,163.8z M1096.7,168.7c1,0,1.8-0.8,1.8-1.8
		c0-1-0.8-1.8-1.8-1.8c-1,0-1.8,0.8-1.8,1.8C1094.9,167.9,1095.7,168.7,1096.7,168.7z"/>
</g>
<g>
	<path fill="#6E6F71" d="M23,191.7c3.8,0,5.8,2.1,5.8,2.1l-1.4,2.1c0,0-1.8-1.7-4.3-1.7c-3.3,0-5.2,2.5-5.2,5.4c0,3,2,5.6,5.3,5.6
		c2.7,0,4.5-2,4.5-2l1.5,2c0,0-2.2,2.5-6.1,2.5c-4.8,0-8.1-3.5-8.1-8.1C14.9,195.1,18.4,191.7,23,191.7z"/>
	<path fill="#6E6F71" d="M36.6,196.1c3.4,0,6.2,2.4,6.2,5.9c0,3.5-2.8,5.9-6.2,5.9c-3.4,0-6.2-2.4-6.2-5.9
		C30.5,198.5,33.2,196.1,36.6,196.1z M36.7,205.4c1.8,0,3.3-1.4,3.3-3.5c0-2.1-1.5-3.5-3.3-3.5c-1.8,0-3.3,1.4-3.3,3.5
		C33.3,204,34.8,205.4,36.7,205.4z"/>
	<path fill="#6E6F71" d="M45.1,196.3h2.7v1.3c0,0.4,0,0.8,0,0.8h0c0.5-0.9,1.7-2.3,4-2.3c2.5,0,3.9,1.3,3.9,4.3v7.2h-2.8v-6.6
		c0-1.4-0.4-2.3-1.8-2.3c-1.5,0-2.6,0.9-3,2.3c-0.2,0.5-0.2,1-0.2,1.5v5.1h-2.8V196.3z"/>
	<path fill="#6E6F71" d="M59.1,198.7h-1.4v-2.2h1.4V196c0-3.7,3-4.2,4.6-4.2c0.6,0,0.9,0.1,0.9,0.1v2.4c0,0-0.2,0-0.6,0
		c-0.8,0-2.2,0.2-2.2,1.8v0.4h2.4v2.2h-2.4v8.8h-2.8V198.7z"/>
	<path fill="#6E6F71" d="M66,196.3h2.8v6.6c0,1.4,0.4,2.3,1.7,2.3c2,0,3.1-1.8,3.1-3.8v-5.1h2.8v11.2h-2.7v-1.3c0-0.4,0-0.8,0-0.8h0
		c-0.6,1.2-2,2.3-3.9,2.3c-2.4,0-3.9-1.2-3.9-4.3V196.3z"/>
	<path fill="#6E6F71" d="M79.9,204.2c0,0,1.2,1.2,3.1,1.2c0.8,0,1.5-0.4,1.5-1c0-1.7-5.5-1.5-5.5-5.1c0-2.1,1.9-3.3,4.3-3.3
		c2.5,0,3.8,1.3,3.8,1.3l-1,2.1c0,0-1-1-2.8-1c-0.7,0-1.4,0.3-1.4,1c0,1.6,5.5,1.4,5.5,5c0,1.9-1.6,3.4-4.3,3.4
		c-2.8,0-4.4-1.7-4.4-1.7L79.9,204.2z"/>
	<path fill="#6E6F71" d="M89.5,191.9h2.8v2.5h-2.8V191.9z M89.5,196.3h2.8v11.2h-2.8V196.3z"/>
	<path fill="#6E6F71" d="M100.7,196.1c3.4,0,6.2,2.4,6.2,5.9c0,3.5-2.8,5.9-6.2,5.9c-3.4,0-6.2-2.4-6.2-5.9
		C94.5,198.5,97.3,196.1,100.7,196.1z M100.7,205.4c1.8,0,3.3-1.4,3.3-3.5c0-2.1-1.5-3.5-3.3-3.5c-1.8,0-3.3,1.4-3.3,3.5
		C97.4,204,98.9,205.4,100.7,205.4z"/>
	<path fill="#6E6F71" d="M109.1,196.3h2.7v1.3c0,0.4,0,0.8,0,0.8h0c0.5-0.9,1.7-2.3,4-2.3c2.5,0,3.9,1.3,3.9,4.3v7.2h-2.8v-6.6
		c0-1.4-0.4-2.3-1.8-2.3c-1.5,0-2.6,0.9-3,2.3c-0.2,0.5-0.2,1-0.2,1.5v5.1h-2.8V196.3z"/>
	<path fill="#6E6F71" d="M128.3,200.5h0.4v-0.2c0-1.5-0.9-2-2.2-2c-1.6,0-3.1,1.1-3.1,1.1l-1.1-2c0,0,1.7-1.4,4.4-1.4
		c2.9,0,4.7,1.6,4.7,4.5v7h-2.6v-0.9c0-0.4,0-0.8,0-0.8h0c0,0-0.9,2-3.4,2c-2,0-3.8-1.3-3.8-3.5
		C121.6,200.7,126.5,200.5,128.3,200.5z M126.2,205.6c1.5,0,2.5-1.6,2.5-2.9v-0.3h-0.5c-1.4,0-3.7,0.2-3.7,1.8
		C124.5,204.9,125,205.6,126.2,205.6z"/>
	<path fill="#6E6F71" d="M134.2,191.9h2.8v11.7c0,1.2,0.4,1.5,1.1,1.5c0.2,0,0.4,0,0.4,0v2.4c0,0-0.4,0.1-0.9,0.1
		c-1.5,0-3.5-0.4-3.5-3.6V191.9z"/>
	<path fill="#6E6F71" d="M146.3,204.2c0,0,1.2,1.2,3.1,1.2c0.8,0,1.5-0.4,1.5-1c0-1.7-5.5-1.5-5.5-5.1c0-2.1,1.9-3.3,4.3-3.3
		c2.5,0,3.8,1.3,3.8,1.3l-1,2.1c0,0-1-1-2.8-1c-0.7,0-1.4,0.3-1.4,1c0,1.6,5.5,1.4,5.5,5c0,1.9-1.6,3.4-4.3,3.4
		c-2.8,0-4.4-1.7-4.4-1.7L146.3,204.2z"/>
	<path fill="#6E6F71" d="M156.4,198.7h-1.5v-2.2h1.5v-3.2h2.7v3.2h2.6v2.2h-2.6v4.4c0,1.8,1.5,2.1,2.2,2.1c0.3,0,0.5,0,0.5,0v2.4
		c0,0-0.3,0.1-0.9,0.1c-1.6,0-4.7-0.5-4.7-4.2V198.7z"/>
	<path fill="#6E6F71" d="M169.9,200.5h0.4v-0.2c0-1.5-0.9-2-2.2-2c-1.6,0-3.1,1.1-3.1,1.1l-1.1-2c0,0,1.7-1.4,4.4-1.4
		c2.9,0,4.7,1.6,4.7,4.5v7h-2.6v-0.9c0-0.4,0-0.8,0-0.8h0c0,0-0.9,2-3.4,2c-2,0-3.8-1.3-3.8-3.5C163.2,200.7,168,200.5,169.9,200.5z
		 M167.7,205.6c1.5,0,2.5-1.6,2.5-2.9v-0.3h-0.5c-1.4,0-3.7,0.2-3.7,1.8C166,204.9,166.6,205.6,167.7,205.6z"/>
	<path fill="#6E6F71" d="M176.3,198.7h-1.5v-2.2h1.5v-3.2h2.7v3.2h2.6v2.2h-2.6v4.4c0,1.8,1.5,2.1,2.2,2.1c0.3,0,0.5,0,0.5,0v2.4
		c0,0-0.3,0.1-0.9,0.1c-1.6,0-4.7-0.5-4.7-4.2V198.7z"/>
	<path fill="#6E6F71" d="M189,196.1c3.2,0,5,2.4,5,5.3c0,0.3-0.1,1.1-0.1,1.1h-7.7c0.2,2,1.7,3,3.4,3c1.8,0,3.2-1.2,3.2-1.2l1.1,2
		c0,0-1.7,1.6-4.5,1.6c-3.7,0-6-2.7-6-5.9C183.3,198.5,185.7,196.1,189,196.1z M191.2,200.5c0-1.5-1-2.3-2.2-2.3
		c-1.4,0-2.4,0.9-2.7,2.3H191.2z"/>
</g>
<g>
	<path fill="#6E6F71" d="M444.9,199.8c0-4.4,1.3-8,5.3-8c4,0,5.3,3.5,5.3,8c0,4.5-1.3,8-5.3,8C446.2,207.8,444.9,204.3,444.9,199.8z
		 M454,199.8c0-3.7-0.8-6.6-3.7-6.6c-2.9,0-3.8,2.9-3.8,6.6c0,3.7,0.8,6.6,3.8,6.6C453.2,206.4,454,203.5,454,199.8z"/>
	<path fill="#6E6F71" d="M458.4,205.8h1.7v1.8h-1.7V205.8z"/>
	<path fill="#6E6F71" d="M464.2,204.6c0,0,1.1,1.8,3.5,1.8c2.1,0,3.9-1.5,3.9-3.6s-1.7-3.6-3.9-3.6c-1.7,0-2.8,0.8-2.8,0.8l-1-0.4
		l0.8-7.5h7.5v1.4H466l-0.4,4c-0.1,0.6-0.2,0.9-0.2,0.9h0c0,0,1-0.6,2.4-0.6c3.1,0,5.3,2.2,5.3,5c0,2.9-2.4,5.1-5.4,5.1
		c-3.1,0-4.5-2.2-4.5-2.2L464.2,204.6z"/>
	<path fill="#6E6F71" d="M475.5,194.9c0-1.7,1.4-3.1,3.1-3.1s3.1,1.4,3.1,3.1c0,1.7-1.4,3.1-3.1,3.1S475.5,196.6,475.5,194.9z
		 M487.5,192.1h1.6l-11.8,15.5h-1.6L487.5,192.1z M480.4,194.9c0-1-0.8-1.8-1.8-1.8s-1.8,0.8-1.8,1.8c0,1,0.8,1.8,1.8,1.8
		S480.4,195.9,480.4,194.9z M486.1,201.7c1.7,0,3.1,1.4,3.1,3.1c0,1.7-1.4,3-3.1,3s-3.1-1.4-3.1-3
		C483,203.1,484.3,201.7,486.1,201.7z M486.1,206.6c1,0,1.8-0.8,1.8-1.8c0-1-0.8-1.8-1.8-1.8s-1.8,0.8-1.8,1.8
		C484.3,205.8,485,206.6,486.1,206.6z"/>
</g>
<g>
	<path fill="#6E6F71" d="M750.7,199.8c0-4.4,1.3-8,5.3-8s5.3,3.5,5.3,8c0,4.5-1.3,8-5.3,8S750.7,204.3,750.7,199.8z M759.8,199.8
		c0-3.7-0.8-6.6-3.7-6.6c-2.9,0-3.8,2.9-3.8,6.6c0,3.7,0.8,6.6,3.8,6.6C759,206.4,759.8,203.5,759.8,199.8z"/>
	<path fill="#6E6F71" d="M764.2,205.8h1.7v1.8h-1.7V205.8z"/>
	<path fill="#6E6F71" d="M770,204.6c0,0,1.1,1.8,3.5,1.8c2.1,0,3.9-1.5,3.9-3.6s-1.7-3.6-3.9-3.6c-1.7,0-2.8,0.8-2.8,0.8l-1-0.4
		l0.8-7.5h7.5v1.4h-6.2l-0.4,4c-0.1,0.6-0.2,0.9-0.2,0.9h0c0,0,1-0.6,2.4-0.6c3.1,0,5.3,2.2,5.3,5c0,2.9-2.4,5.1-5.4,5.1
		c-3.1,0-4.5-2.2-4.5-2.2L770,204.6z"/>
	<path fill="#6E6F71" d="M781.3,194.9c0-1.7,1.4-3.1,3.1-3.1c1.7,0,3.1,1.4,3.1,3.1c0,1.7-1.4,3.1-3.1,3.1
		C782.7,197.9,781.3,196.6,781.3,194.9z M793.2,192.1h1.6L783,207.5h-1.6L793.2,192.1z M786.2,194.9c0-1-0.8-1.8-1.8-1.8
		c-1,0-1.8,0.8-1.8,1.8c0,1,0.8,1.8,1.8,1.8C785.4,196.7,786.2,195.9,786.2,194.9z M791.8,201.7c1.7,0,3.1,1.4,3.1,3.1
		c0,1.7-1.4,3-3.1,3c-1.7,0-3.1-1.4-3.1-3C788.8,203.1,790.1,201.7,791.8,201.7z M791.8,206.6c1,0,1.8-0.8,1.8-1.8
		c0-1-0.8-1.8-1.8-1.8c-1,0-1.8,0.8-1.8,1.8C790.1,205.8,790.8,206.6,791.8,206.6z"/>
</g>
<g>
	<path fill="#6E6F71" d="M1056.7,199.8c0-4.4,1.3-8,5.3-8s5.3,3.5,5.3,8c0,4.5-1.3,8-5.3,8S1056.7,204.3,1056.7,199.8z
		 M1065.7,199.8c0-3.7-0.8-6.6-3.7-6.6c-2.9,0-3.8,2.9-3.8,6.6c0,3.7,0.8,6.6,3.8,6.6C1064.9,206.4,1065.7,203.5,1065.7,199.8z"/>
	<path fill="#6E6F71" d="M1070.2,205.8h1.7v1.8h-1.7V205.8z"/>
	<path fill="#6E6F71" d="M1081.9,194.9c0.4-0.8,0.9-1.4,0.9-1.4v0c0,0-0.4,0-1.2,0h-7.2v-1.4h10.1v1.1l-7.2,14.4h-1.6L1081.9,194.9z
		"/>
	<path fill="#6E6F71" d="M1086.2,194.9c0-1.7,1.4-3.1,3.1-3.1c1.7,0,3.1,1.4,3.1,3.1c0,1.7-1.4,3.1-3.1,3.1
		C1087.5,197.9,1086.2,196.6,1086.2,194.9z M1098.1,192.1h1.6l-11.8,15.5h-1.6L1098.1,192.1z M1091,194.9c0-1-0.8-1.8-1.8-1.8
		c-1,0-1.8,0.8-1.8,1.8c0,1,0.8,1.8,1.8,1.8C1090.2,196.7,1091,195.9,1091,194.9z M1096.7,201.7c1.7,0,3.1,1.4,3.1,3.1
		c0,1.7-1.4,3-3.1,3c-1.7,0-3.1-1.4-3.1-3C1093.6,203.1,1095,201.7,1096.7,201.7z M1096.7,206.6c1,0,1.8-0.8,1.8-1.8
		c0-1-0.8-1.8-1.8-1.8c-1,0-1.8,0.8-1.8,1.8C1094.9,205.8,1095.7,206.6,1096.7,206.6z"/>
</g>
<g>
	<path fill="#6E6F71" d="M23.8,241.4h-5.5l-1.3,4H14l5.5-15.6h3l5.5,15.6h-2.9L23.8,241.4z M21,232.5c0,0-0.4,1.5-0.7,2.4l-1.4,4.2
		h4.1l-1.4-4.2C21.4,234,21.1,232.5,21,232.5L21,232.5z"/>
	<path fill="#6E6F71" d="M29.6,234.2h2.6v0.8c0,0.4,0,0.8,0,0.8h0c0,0,1-1.8,3.6-1.8c3,0,5,2.4,5,5.9c0,3.6-2.2,5.9-5.1,5.9
		c-2.2,0-3.2-1.5-3.2-1.5h0c0,0,0,0.4,0,1v4.7h-2.8V234.2z M35.1,243.3c1.5,0,2.8-1.3,2.8-3.5c0-2.1-1.1-3.5-2.8-3.5
		c-1.5,0-2.8,1.1-2.8,3.5C32.3,241.6,33.2,243.3,35.1,243.3z"/>
	<path fill="#6E6F71" d="M43,229.8h2.8v5.4c0,0.5,0,0.9,0,0.9h0c0.6-1.1,1.9-2.2,3.9-2.2c2.5,0,3.9,1.3,3.9,4.3v7.2h-2.8v-6.6
		c0-1.4-0.4-2.3-1.8-2.3c-1.5,0-2.6,1-3,2.3c-0.1,0.4-0.2,0.9-0.2,1.5v5.1H43V229.8z"/>
	<path fill="#6E6F71" d="M62.2,238.4h0.4v-0.2c0-1.5-0.9-2-2.2-2c-1.6,0-3.1,1.1-3.1,1.1l-1.1-2c0,0,1.7-1.4,4.4-1.4
		c2.9,0,4.7,1.6,4.7,4.5v7h-2.6v-0.9c0-0.4,0-0.8,0-0.8h0c0,0-0.9,2-3.4,2c-2,0-3.8-1.3-3.8-3.5C55.6,238.6,60.4,238.4,62.2,238.4z
		 M60.1,243.5c1.5,0,2.5-1.6,2.5-2.9v-0.3h-0.5c-1.4,0-3.7,0.2-3.7,1.8C58.4,242.8,58.9,243.5,60.1,243.5z"/>
	<path fill="#6E6F71" d="M68.6,242.1c0,0,1.2,1.2,3.1,1.2c0.8,0,1.5-0.4,1.5-1c0-1.7-5.5-1.5-5.5-5.1c0-2.1,1.9-3.3,4.3-3.3
		c2.5,0,3.8,1.3,3.8,1.3l-1,2.1c0,0-1-1-2.8-1c-0.7,0-1.4,0.3-1.4,1c0,1.6,5.5,1.4,5.5,5c0,1.9-1.6,3.4-4.3,3.4
		c-2.8,0-4.4-1.6-4.4-1.6L68.6,242.1z"/>
	<path fill="#6E6F71" d="M78.2,229.8H81v2.5h-2.8V229.8z M78.2,234.2H81v11.2h-2.8V234.2z"/>
	<path fill="#6E6F71" d="M89.8,238.4h0.4v-0.2c0-1.5-0.9-2-2.2-2c-1.6,0-3.1,1.1-3.1,1.1l-1.1-2c0,0,1.7-1.4,4.4-1.4
		c2.9,0,4.7,1.6,4.7,4.5v7h-2.6v-0.9c0-0.4,0-0.8,0-0.8h0c0,0-0.9,2-3.4,2c-2,0-3.8-1.3-3.8-3.5C83.1,238.6,87.9,238.4,89.8,238.4z
		 M87.6,243.5c1.5,0,2.5-1.6,2.5-2.9v-0.3h-0.5c-1.4,0-3.7,0.2-3.7,1.8C85.9,242.8,86.5,243.5,87.6,243.5z"/>
</g>
<g>
	<path fill="#6E6F71" d="M453.5,237.7c0-4.4,1.3-8,5.3-8c4,0,5.3,3.5,5.3,8c0,4.5-1.3,8-5.3,8C454.8,245.7,453.5,242.2,453.5,237.7z
		 M462.6,237.7c0-3.7-0.8-6.6-3.7-6.6c-2.9,0-3.8,2.9-3.8,6.6c0,3.7,0.8,6.6,3.8,6.6C461.8,244.2,462.6,241.4,462.6,237.7z"/>
	<path fill="#6E6F71" d="M466.9,232.7c0-1.7,1.4-3.1,3.1-3.1s3.1,1.4,3.1,3.1c0,1.7-1.4,3.1-3.1,3.1S466.9,234.4,466.9,232.7z
		 M478.9,229.9h1.6l-11.8,15.5h-1.6L478.9,229.9z M471.8,232.7c0-1-0.8-1.8-1.8-1.8s-1.8,0.8-1.8,1.8c0,1,0.8,1.8,1.8,1.8
		S471.8,233.8,471.8,232.7z M477.5,239.6c1.7,0,3.1,1.4,3.1,3.1c0,1.7-1.4,3-3.1,3s-3.1-1.4-3.1-3
		C474.4,240.9,475.7,239.6,477.5,239.6z M477.5,244.4c1,0,1.8-0.8,1.8-1.8c0-1-0.8-1.8-1.8-1.8s-1.8,0.8-1.8,1.8
		C475.7,243.6,476.5,244.4,477.5,244.4z"/>
</g>
<g>
	<path fill="#6E6F71" d="M750.6,237.7c0-4.4,1.3-8,5.3-8s5.3,3.5,5.3,8c0,4.5-1.3,8-5.3,8S750.6,242.2,750.6,237.7z M759.7,237.7
		c0-3.7-0.8-6.6-3.7-6.6c-2.9,0-3.8,2.9-3.8,6.6c0,3.7,0.8,6.6,3.8,6.6C758.9,244.2,759.7,241.4,759.7,237.7z"/>
	<path fill="#6E6F71" d="M764.2,243.7h1.7v1.8h-1.7V243.7z"/>
	<path fill="#6E6F71" d="M769.1,244.4c0-5.4,7.9-6.1,7.9-10.3c0-1.7-1.3-3-3.2-3c-2.3,0-3.5,2.1-3.5,2.1l-1.1-0.8
		c0,0,1.4-2.8,4.7-2.8c2.9,0,4.7,1.9,4.7,4.3c0,5.2-7.8,5.9-7.8,10h8.1v1.4h-9.7C769.1,245.1,769.1,244.7,769.1,244.4z"/>
	<path fill="#6E6F71" d="M781.4,232.7c0-1.7,1.4-3.1,3.1-3.1c1.7,0,3.1,1.4,3.1,3.1c0,1.7-1.4,3.1-3.1,3.1
		C782.8,235.8,781.4,234.4,781.4,232.7z M793.3,229.9h1.6l-11.8,15.5h-1.6L793.3,229.9z M786.3,232.7c0-1-0.8-1.8-1.8-1.8
		c-1,0-1.8,0.8-1.8,1.8c0,1,0.8,1.8,1.8,1.8C785.5,234.6,786.3,233.8,786.3,232.7z M791.9,239.6c1.7,0,3.1,1.4,3.1,3.1
		c0,1.7-1.4,3-3.1,3c-1.7,0-3.1-1.4-3.1-3C788.8,240.9,790.2,239.6,791.9,239.6z M791.9,244.4c1,0,1.8-0.8,1.8-1.8
		c0-1-0.8-1.8-1.8-1.8c-1,0-1.8,0.8-1.8,1.8C790.2,243.6,790.9,244.4,791.9,244.4z"/>
</g>
<g>
	<path fill="#6E6F71" d="M1057.2,244h3.5v-11.4c0-0.4,0-0.9,0-0.9h0c0,0-0.2,0.3-0.8,0.9l-1.7,1.6l-1-1l3.5-3.5h1.4V244h3.4v1.4
		h-8.4V244z"/>
	<path fill="#6E6F71" d="M1068.1,243.7h1.7v1.8h-1.7V243.7z"/>
	<path fill="#6E6F71" d="M1073,244.4c0-5.4,7.9-6.1,7.9-10.3c0-1.7-1.3-3-3.2-3c-2.3,0-3.5,2.1-3.5,2.1l-1.1-0.8
		c0,0,1.4-2.8,4.7-2.8c2.9,0,4.7,1.9,4.7,4.3c0,5.2-7.8,5.9-7.8,10h8.1v1.4h-9.7C1073,245.1,1073,244.7,1073,244.4z"/>
	<path fill="#6E6F71" d="M1085.3,232.7c0-1.7,1.4-3.1,3.1-3.1c1.7,0,3.1,1.4,3.1,3.1c0,1.7-1.4,3.1-3.1,3.1
		C1086.7,235.8,1085.3,234.4,1085.3,232.7z M1097.2,229.9h1.6l-11.8,15.5h-1.6L1097.2,229.9z M1090.2,232.7c0-1-0.8-1.8-1.8-1.8
		c-1,0-1.8,0.8-1.8,1.8c0,1,0.8,1.8,1.8,1.8C1089.4,234.6,1090.2,233.8,1090.2,232.7z M1095.8,239.6c1.7,0,3.1,1.4,3.1,3.1
		c0,1.7-1.4,3-3.1,3c-1.7,0-3.1-1.4-3.1-3C1092.7,240.9,1094.1,239.6,1095.8,239.6z M1095.8,244.4c1,0,1.8-0.8,1.8-1.8
		c0-1-0.8-1.8-1.8-1.8c-1,0-1.8,0.8-1.8,1.8C1094.1,243.6,1094.8,244.4,1095.8,244.4z"/>
</g>
<g>
	<path fill="#6E6F71" d="M16.4,279.3c0,0,1.7,1.7,3.9,1.7c1.2,0,2.3-0.6,2.3-1.9c0-2.8-7.4-2.3-7.4-7.1c0-2.6,2.2-4.5,5.2-4.5
		c3.1,0,4.7,1.7,4.7,1.7l-1.2,2.3c0,0-1.5-1.4-3.5-1.4c-1.3,0-2.4,0.8-2.4,1.9c0,2.8,7.3,2.1,7.3,7.1c0,2.5-1.9,4.6-5.1,4.6
		c-3.5,0-5.4-2.1-5.4-2.1L16.4,279.3z"/>
	<path fill="#6E6F71" d="M27.7,272.1h2.6v0.8c0,0.4,0,0.8,0,0.8h0c0,0,1-1.8,3.6-1.8c3,0,5,2.4,5,5.9c0,3.6-2.2,5.9-5.1,5.9
		c-2.2,0-3.2-1.5-3.2-1.5h0c0,0,0,0.4,0,1v4.7h-2.8V272.1z M33.2,281.2c1.5,0,2.8-1.3,2.8-3.5c0-2.1-1.1-3.5-2.8-3.5
		c-1.5,0-2.8,1.1-2.8,3.5C30.5,279.5,31.4,281.2,33.2,281.2z"/>
	<path fill="#6E6F71" d="M46.1,271.8c3.2,0,5,2.4,5,5.3c0,0.3-0.1,1.1-0.1,1.1h-7.7c0.2,2,1.7,3,3.4,3c1.8,0,3.2-1.2,3.2-1.2l1.1,2
		c0,0-1.7,1.6-4.5,1.6c-3.7,0-6-2.7-6-5.9C40.4,274.2,42.7,271.8,46.1,271.8z M48.3,276.3c0-1.5-1-2.3-2.2-2.3
		c-1.4,0-2.4,0.9-2.7,2.3H48.3z"/>
	<path fill="#6E6F71" d="M58.3,271.8c3.2,0,5,2.4,5,5.3c0,0.3-0.1,1.1-0.1,1.1h-7.7c0.2,2,1.7,3,3.4,3c1.8,0,3.2-1.2,3.2-1.2l1.1,2
		c0,0-1.7,1.6-4.5,1.6c-3.7,0-6-2.7-6-5.9C52.6,274.2,54.9,271.8,58.3,271.8z M60.4,276.3c0-1.5-1-2.3-2.2-2.3
		c-1.4,0-2.4,0.9-2.7,2.3H60.4z"/>
	<path fill="#6E6F71" d="M70.8,271.8c2.9,0,4.3,1.7,4.3,1.7l-1.2,1.9c0,0-1.2-1.2-2.9-1.2c-2.1,0-3.4,1.6-3.4,3.5
		c0,1.9,1.4,3.5,3.5,3.5c1.9,0,3.3-1.4,3.3-1.4l1.1,2c0,0-1.6,1.8-4.6,1.8c-3.7,0-6.1-2.6-6.1-5.9C64.7,274.5,67.1,271.8,70.8,271.8
		z"/>
	<path fill="#6E6F71" d="M77.6,267.7h2.8v5.4c0,0.5,0,0.9,0,0.9h0c0.6-1.1,1.9-2.2,3.9-2.2c2.5,0,3.9,1.3,3.9,4.3v7.2h-2.8v-6.6
		c0-1.4-0.4-2.3-1.8-2.3c-1.5,0-2.6,1-3,2.3c-0.1,0.4-0.2,0.9-0.2,1.5v5.1h-2.8V267.7z"/>
	<path fill="#6E6F71" d="M100.7,271.8c2.5,0,3.2,1.4,3.2,1.4h0c0,0,0-0.3,0-0.6v-4.9h2.8v15.6h-2.6v-0.9c0-0.4,0-0.7,0-0.7h0
		c0,0-0.9,1.9-3.5,1.9c-3,0-5-2.4-5-5.9C95.6,274.1,97.7,271.8,100.7,271.8z M101.2,281.2c1.5,0,2.8-1.1,2.8-3.5
		c0-1.7-0.9-3.5-2.8-3.5c-1.5,0-2.8,1.3-2.8,3.5C98.4,279.8,99.6,281.2,101.2,281.2z"/>
	<path fill="#6E6F71" d="M109.8,267.7h2.8v2.5h-2.8V267.7z M109.8,272.1h2.8v11.2h-2.8V272.1z"/>
	<path fill="#6E6F71" d="M116,279.9c0,0,1.2,1.2,3.1,1.2c0.8,0,1.5-0.4,1.5-1c0-1.7-5.5-1.5-5.5-5.1c0-2.1,1.9-3.3,4.3-3.3
		c2.5,0,3.8,1.3,3.8,1.3l-1,2.1c0,0-1-1-2.8-1c-0.7,0-1.4,0.3-1.4,1c0,1.6,5.5,1.4,5.5,5c0,1.9-1.6,3.4-4.3,3.4
		c-2.8,0-4.4-1.6-4.4-1.6L116,279.9z"/>
	<path fill="#6E6F71" d="M131,271.8c3.4,0,6.2,2.4,6.2,5.9c0,3.5-2.8,5.9-6.2,5.9c-3.4,0-6.2-2.4-6.2-5.9
		C124.8,274.2,127.6,271.8,131,271.8z M131,281.2c1.8,0,3.3-1.4,3.3-3.5c0-2.1-1.5-3.5-3.3-3.5c-1.8,0-3.3,1.4-3.3,3.5
		C127.6,279.8,129.2,281.2,131,281.2z"/>
	<path fill="#6E6F71" d="M139.4,272.1h2.7v1.9c0,0.4,0,0.8,0,0.8h0c0.5-1.6,1.8-2.9,3.6-2.9c0.3,0,0.5,0,0.5,0v2.8c0,0-0.3,0-0.7,0
		c-1.2,0-2.5,0.7-3.1,2.4c-0.2,0.5-0.2,1.2-0.2,1.8v4.4h-2.8V272.1z"/>
	<path fill="#6E6F71" d="M152.3,271.8c2.5,0,3.2,1.4,3.2,1.4h0c0,0,0-0.3,0-0.6v-4.9h2.8v15.6h-2.6v-0.9c0-0.4,0-0.7,0-0.7h0
		c0,0-0.9,1.9-3.5,1.9c-3,0-5-2.4-5-5.9C147.2,274.1,149.3,271.8,152.3,271.8z M152.8,281.2c1.5,0,2.8-1.1,2.8-3.5
		c0-1.7-0.9-3.5-2.8-3.5c-1.5,0-2.8,1.3-2.8,3.5C150,279.8,151.1,281.2,152.8,281.2z"/>
	<path fill="#6E6F71" d="M166.3,271.8c3.2,0,5,2.4,5,5.3c0,0.3-0.1,1.1-0.1,1.1h-7.7c0.2,2,1.7,3,3.4,3c1.8,0,3.2-1.2,3.2-1.2l1.1,2
		c0,0-1.7,1.6-4.5,1.6c-3.7,0-6-2.7-6-5.9C160.6,274.2,163,271.8,166.3,271.8z M168.5,276.3c0-1.5-1-2.3-2.2-2.3
		c-1.4,0-2.4,0.9-2.7,2.3H168.5z"/>
	<path fill="#6E6F71" d="M173.6,272.1h2.7v1.9c0,0.4,0,0.8,0,0.8h0c0.5-1.6,1.8-2.9,3.6-2.9c0.3,0,0.5,0,0.5,0v2.8c0,0-0.3,0-0.7,0
		c-1.2,0-2.5,0.7-3.1,2.4c-0.2,0.5-0.2,1.2-0.2,1.8v4.4h-2.8V272.1z"/>
</g>
<g>
	<path fill="#6E6F71" d="M453.5,275.5c0-4.4,1.3-8,5.3-8c4,0,5.3,3.5,5.3,8c0,4.5-1.3,8-5.3,8C454.8,283.5,453.5,280,453.5,275.5z
		 M462.6,275.5c0-3.7-0.8-6.6-3.7-6.6c-2.9,0-3.8,2.9-3.8,6.6c0,3.7,0.8,6.6,3.8,6.6C461.8,282.1,462.6,279.2,462.6,275.5z"/>
	<path fill="#6E6F71" d="M466.9,270.6c0-1.7,1.4-3.1,3.1-3.1s3.1,1.4,3.1,3.1c0,1.7-1.4,3.1-3.1,3.1S466.9,272.3,466.9,270.6z
		 M478.9,267.8h1.6l-11.8,15.5h-1.6L478.9,267.8z M471.8,270.6c0-1-0.8-1.8-1.8-1.8s-1.8,0.8-1.8,1.8c0,1,0.8,1.8,1.8,1.8
		S471.8,271.6,471.8,270.6z M477.5,277.4c1.7,0,3.1,1.4,3.1,3.1c0,1.7-1.4,3-3.1,3s-3.1-1.4-3.1-3
		C474.4,278.8,475.7,277.4,477.5,277.4z M477.5,282.3c1,0,1.8-0.8,1.8-1.8c0-1-0.8-1.8-1.8-1.8s-1.8,0.8-1.8,1.8
		C475.7,281.5,476.5,282.3,477.5,282.3z"/>
</g>
<g>
	<path fill="#6E6F71" d="M759.3,275.5c0-4.4,1.3-8,5.3-8s5.3,3.5,5.3,8c0,4.5-1.3,8-5.3,8S759.3,280,759.3,275.5z M768.4,275.5
		c0-3.7-0.8-6.6-3.7-6.6c-2.9,0-3.8,2.9-3.8,6.6c0,3.7,0.8,6.6,3.8,6.6C767.6,282.1,768.4,279.2,768.4,275.5z"/>
	<path fill="#6E6F71" d="M772.7,270.6c0-1.7,1.4-3.1,3.1-3.1c1.7,0,3.1,1.4,3.1,3.1c0,1.7-1.4,3.1-3.1,3.1
		C774.1,273.7,772.7,272.3,772.7,270.6z M784.7,267.8h1.6l-11.8,15.5h-1.6L784.7,267.8z M777.6,270.6c0-1-0.8-1.8-1.8-1.8
		c-1,0-1.8,0.8-1.8,1.8c0,1,0.8,1.8,1.8,1.8C776.8,272.4,777.6,271.6,777.6,270.6z M783.3,277.4c1.7,0,3.1,1.4,3.1,3.1
		c0,1.7-1.4,3-3.1,3c-1.7,0-3.1-1.4-3.1-3C780.2,278.8,781.5,277.4,783.3,277.4z M783.3,282.3c1,0,1.8-0.8,1.8-1.8
		c0-1-0.8-1.8-1.8-1.8c-1,0-1.8,0.8-1.8,1.8C781.5,281.5,782.2,282.3,783.3,282.3z"/>
</g>
<g>
	<path fill="#6E6F71" d="M1056.7,275.5c0-4.4,1.3-8,5.3-8s5.3,3.5,5.3,8c0,4.5-1.3,8-5.3,8S1056.7,280,1056.7,275.5z M1065.7,275.5
		c0-3.7-0.8-6.6-3.7-6.6c-2.9,0-3.8,2.9-3.8,6.6c0,3.7,0.8,6.6,3.8,6.6C1064.9,282.1,1065.7,279.2,1065.7,275.5z"/>
	<path fill="#6E6F71" d="M1070.2,281.5h1.7v1.8h-1.7V281.5z"/>
	<path fill="#6E6F71" d="M1081.9,270.6c0.4-0.8,0.9-1.4,0.9-1.4v0c0,0-0.4,0-1.2,0h-7.2v-1.4h10.1v1.1l-7.2,14.4h-1.6L1081.9,270.6z
		"/>
	<path fill="#6E6F71" d="M1086.2,270.6c0-1.7,1.4-3.1,3.1-3.1c1.7,0,3.1,1.4,3.1,3.1c0,1.7-1.4,3.1-3.1,3.1
		C1087.5,273.7,1086.2,272.3,1086.2,270.6z M1098.1,267.8h1.6l-11.8,15.5h-1.6L1098.1,267.8z M1091,270.6c0-1-0.8-1.8-1.8-1.8
		c-1,0-1.8,0.8-1.8,1.8c0,1,0.8,1.8,1.8,1.8C1090.2,272.4,1091,271.6,1091,270.6z M1096.7,277.4c1.7,0,3.1,1.4,3.1,3.1
		c0,1.7-1.4,3-3.1,3c-1.7,0-3.1-1.4-3.1-3C1093.6,278.8,1095,277.4,1096.7,277.4z M1096.7,282.3c1,0,1.8-0.8,1.8-1.8
		c0-1-0.8-1.8-1.8-1.8c-1,0-1.8,0.8-1.8,1.8C1094.9,281.5,1095.7,282.3,1096.7,282.3z"/>
</g>
<g>
	<path fill="#6E6F71" d="M16.4,317.1c0,0,1.7,1.7,3.9,1.7c1.2,0,2.3-0.6,2.3-1.9c0-2.8-7.4-2.3-7.4-7.1c0-2.6,2.2-4.5,5.2-4.5
		c3.1,0,4.7,1.7,4.7,1.7l-1.2,2.3c0,0-1.5-1.4-3.5-1.4c-1.3,0-2.4,0.8-2.4,1.9c0,2.8,7.3,2.1,7.3,7.1c0,2.5-1.9,4.6-5.1,4.6
		c-3.5,0-5.4-2.1-5.4-2.1L16.4,317.1z"/>
	<path fill="#6E6F71" d="M27.6,305.5h2.8v11.7c0,1.2,0.4,1.5,1.1,1.5c0.2,0,0.4,0,0.4,0v2.4c0,0-0.4,0.1-0.9,0.1
		c-1.5,0-3.5-0.4-3.5-3.6V305.5z"/>
	<path fill="#6E6F71" d="M39.3,309.7c3.4,0,6.2,2.4,6.2,5.9c0,3.5-2.8,5.9-6.2,5.9c-3.4,0-6.2-2.4-6.2-5.9
		C33.2,312.1,35.9,309.7,39.3,309.7z M39.3,319c1.8,0,3.3-1.4,3.3-3.5c0-2.1-1.5-3.5-3.3-3.5c-1.8,0-3.3,1.4-3.3,3.5
		C36,317.6,37.5,319,39.3,319z"/>
	<path fill="#6E6F71" d="M46.5,309.9h2.9l2,7.4c0.2,0.6,0.2,1.2,0.2,1.2h0c0,0,0.1-0.6,0.3-1.2L54,310h2.5l2.1,7.3
		c0.2,0.6,0.2,1.2,0.2,1.2h0c0,0,0.1-0.6,0.2-1.2l2-7.4H64l-3.4,11.2h-3.1l-1.9-6.4c-0.2-0.6-0.3-1.2-0.3-1.2h0c0,0-0.1,0.6-0.3,1.2
		l-1.9,6.4h-3.1L46.5,309.9z"/>
	<path fill="#6E6F71" d="M65.8,309.9h2.7v1.3c0,0.4,0,0.8,0,0.8h0c0.5-0.9,1.7-2.3,4-2.3c2.5,0,3.9,1.3,3.9,4.3v7.2h-2.8v-6.6
		c0-1.4-0.4-2.3-1.8-2.3c-1.5,0-2.6,0.9-3,2.3c-0.2,0.5-0.2,1-0.2,1.5v5.1h-2.8V309.9z"/>
	<path fill="#6E6F71" d="M84.2,309.7c3.2,0,5,2.4,5,5.3c0,0.3-0.1,1.1-0.1,1.1h-7.7c0.2,2,1.7,3,3.4,3c1.8,0,3.2-1.2,3.2-1.2l1.1,2
		c0,0-1.7,1.6-4.5,1.6c-3.7,0-6-2.7-6-5.9C78.5,312.1,80.9,309.7,84.2,309.7z M86.4,314.2c0-1.5-1-2.3-2.2-2.3
		c-1.4,0-2.4,0.9-2.7,2.3H86.4z"/>
	<path fill="#6E6F71" d="M91.8,317.8c0,0,1.2,1.2,3.1,1.2c0.8,0,1.5-0.4,1.5-1c0-1.7-5.5-1.5-5.5-5.1c0-2.1,1.9-3.3,4.3-3.3
		c2.5,0,3.8,1.3,3.8,1.3l-1,2.1c0,0-1-1-2.8-1c-0.7,0-1.4,0.3-1.4,1c0,1.6,5.5,1.4,5.5,5c0,1.9-1.6,3.4-4.3,3.4
		c-2.8,0-4.4-1.6-4.4-1.6L91.8,317.8z"/>
	<path fill="#6E6F71" d="M101.8,317.8c0,0,1.2,1.2,3.1,1.2c0.8,0,1.5-0.4,1.5-1c0-1.7-5.5-1.5-5.5-5.1c0-2.1,1.9-3.3,4.3-3.3
		c2.5,0,3.8,1.3,3.8,1.3l-1,2.1c0,0-1-1-2.8-1c-0.7,0-1.4,0.3-1.4,1c0,1.6,5.5,1.4,5.5,5c0,1.9-1.6,3.4-4.3,3.4
		c-2.8,0-4.4-1.6-4.4-1.6L101.8,317.8z"/>
	<path fill="#6E6F71" d="M122,309.7c3.4,0,6.2,2.4,6.2,5.9c0,3.5-2.8,5.9-6.2,5.9c-3.4,0-6.2-2.4-6.2-5.9
		C115.9,312.1,118.6,309.7,122,309.7z M122.1,319c1.8,0,3.3-1.4,3.3-3.5c0-2.1-1.5-3.5-3.3-3.5c-1.8,0-3.3,1.4-3.3,3.5
		C118.7,317.6,120.2,319,122.1,319z"/>
	<path fill="#6E6F71" d="M131,312.3h-1.4v-2.2h1.4v-0.5c0-3.7,3-4.2,4.6-4.2c0.6,0,0.9,0.1,0.9,0.1v2.4c0,0-0.2,0-0.6,0
		c-0.8,0-2.2,0.2-2.2,1.8v0.4h2.4v2.2h-2.4v8.8H131V312.3z"/>
	<path fill="#6E6F71" d="M143.9,312.3h-1.5v-2.2h1.5v-3.2h2.7v3.2h2.6v2.2h-2.6v4.4c0,1.8,1.5,2.1,2.2,2.1c0.3,0,0.5,0,0.5,0v2.4
		c0,0-0.3,0.1-0.9,0.1c-1.6,0-4.7-0.5-4.7-4.2V312.3z"/>
	<path fill="#6E6F71" d="M151.7,305.5h2.8v5.4c0,0.5,0,0.9,0,0.9h0c0.6-1.1,1.9-2.2,3.9-2.2c2.5,0,3.9,1.3,3.9,4.3v7.2h-2.8v-6.6
		c0-1.4-0.4-2.3-1.8-2.3c-1.5,0-2.6,1-3,2.3c-0.1,0.4-0.2,0.9-0.2,1.5v5.1h-2.8V305.5z"/>
	<path fill="#6E6F71" d="M170.5,309.7c3.4,0,6.2,2.4,6.2,5.9c0,3.5-2.8,5.9-6.2,5.9c-3.4,0-6.2-2.4-6.2-5.9
		C164.3,312.1,167.1,309.7,170.5,309.7z M170.5,319c1.8,0,3.3-1.4,3.3-3.5c0-2.1-1.5-3.5-3.3-3.5c-1.8,0-3.3,1.4-3.3,3.5
		C167.2,317.6,168.7,319,170.5,319z"/>
	<path fill="#6E6F71" d="M178.8,309.9h2.8v6.6c0,1.4,0.4,2.3,1.7,2.3c2,0,3.1-1.8,3.1-3.8v-5.1h2.8v11.2h-2.7v-1.3
		c0-0.4,0-0.8,0-0.8h0c-0.6,1.2-2,2.3-3.9,2.3c-2.4,0-3.9-1.2-3.9-4.3V309.9z"/>
	<path fill="#6E6F71" d="M196.6,323.4c1.7,0,3.2-0.7,3.2-2.7V320c0-0.3,0-0.6,0-0.6h0c-0.7,1-1.6,1.5-3.1,1.5c-3.2,0-5-2.6-5-5.7
		c0-3.1,1.7-5.6,5-5.6c2.4,0,3.3,1.4,3.3,1.4h0.1c0,0,0-0.1,0-0.3v-0.9h2.6v10.5c0,3.8-3,5.3-5.9,5.3c-1.4,0-2.9-0.4-4-1l0.8-2.1
		C193.4,322.7,194.9,323.4,196.6,323.4z M199.8,315.3c0-2.6-1.3-3.2-2.8-3.2c-1.7,0-2.6,1.2-2.6,3.1c0,2,1,3.4,2.8,3.4
		C198.5,318.6,199.8,317.8,199.8,315.3z"/>
	<path fill="#6E6F71" d="M205.6,305.5h2.8v5.4c0,0.5,0,0.9,0,0.9h0c0.6-1.1,1.9-2.2,3.9-2.2c2.5,0,3.9,1.3,3.9,4.3v7.2h-2.8v-6.6
		c0-1.4-0.4-2.3-1.8-2.3c-1.5,0-2.6,1-3,2.3c-0.1,0.4-0.2,0.9-0.2,1.5v5.1h-2.8V305.5z"/>
	<path fill="#6E6F71" d="M219.6,312.3h-1.5v-2.2h1.5v-3.2h2.7v3.2h2.6v2.2h-2.6v4.4c0,1.8,1.5,2.1,2.2,2.1c0.3,0,0.5,0,0.5,0v2.4
		c0,0-0.3,0.1-0.9,0.1c-1.6,0-4.7-0.5-4.7-4.2V312.3z"/>
</g>
<g>
	<path fill="#6E6F71" d="M453.5,313.4c0-4.4,1.3-8,5.3-8c4,0,5.3,3.5,5.3,8c0,4.5-1.3,8-5.3,8C454.8,321.4,453.5,317.9,453.5,313.4z
		 M462.6,313.4c0-3.7-0.8-6.6-3.7-6.6c-2.9,0-3.8,2.9-3.8,6.6c0,3.7,0.8,6.6,3.8,6.6C461.8,320,462.6,317.1,462.6,313.4z"/>
	<path fill="#6E6F71" d="M466.9,308.5c0-1.7,1.4-3.1,3.1-3.1s3.1,1.4,3.1,3.1c0,1.7-1.4,3.1-3.1,3.1S466.9,310.2,466.9,308.5z
		 M478.9,305.7h1.6l-11.8,15.5h-1.6L478.9,305.7z M471.8,308.5c0-1-0.8-1.8-1.8-1.8s-1.8,0.8-1.8,1.8c0,1,0.8,1.8,1.8,1.8
		S471.8,309.5,471.8,308.5z M477.5,315.3c1.7,0,3.1,1.4,3.1,3.1c0,1.7-1.4,3-3.1,3s-3.1-1.4-3.1-3
		C474.4,316.7,475.7,315.3,477.5,315.3z M477.5,320.2c1,0,1.8-0.8,1.8-1.8c0-1-0.8-1.8-1.8-1.8s-1.8,0.8-1.8,1.8
		C475.7,319.4,476.5,320.2,477.5,320.2z"/>
</g>
<g>
	<path fill="#6E6F71" d="M750.6,313.4c0-4.4,1.3-8,5.3-8s5.3,3.5,5.3,8c0,4.5-1.3,8-5.3,8S750.6,317.9,750.6,313.4z M759.7,313.4
		c0-3.7-0.8-6.6-3.7-6.6c-2.9,0-3.8,2.9-3.8,6.6c0,3.7,0.8,6.6,3.8,6.6C758.9,320,759.7,317.1,759.7,313.4z"/>
	<path fill="#6E6F71" d="M764.2,319.4h1.7v1.8h-1.7V319.4z"/>
	<path fill="#6E6F71" d="M769.1,320.2c0-5.4,7.9-6.1,7.9-10.3c0-1.7-1.3-3-3.2-3c-2.3,0-3.5,2.1-3.5,2.1l-1.1-0.8
		c0,0,1.4-2.8,4.7-2.8c2.9,0,4.7,1.9,4.7,4.3c0,5.2-7.8,5.9-7.8,10h8.1v1.4h-9.7C769.1,320.8,769.1,320.5,769.1,320.2z"/>
	<path fill="#6E6F71" d="M781.4,308.5c0-1.7,1.4-3.1,3.1-3.1c1.7,0,3.1,1.4,3.1,3.1c0,1.7-1.4,3.1-3.1,3.1
		C782.8,311.5,781.4,310.2,781.4,308.5z M793.3,305.7h1.6l-11.8,15.5h-1.6L793.3,305.7z M786.3,308.5c0-1-0.8-1.8-1.8-1.8
		c-1,0-1.8,0.8-1.8,1.8c0,1,0.8,1.8,1.8,1.8C785.5,310.3,786.3,309.5,786.3,308.5z M791.9,315.3c1.7,0,3.1,1.4,3.1,3.1
		c0,1.7-1.4,3-3.1,3c-1.7,0-3.1-1.4-3.1-3C788.8,316.7,790.2,315.3,791.9,315.3z M791.9,320.2c1,0,1.8-0.8,1.8-1.8
		c0-1-0.8-1.8-1.8-1.8c-1,0-1.8,0.8-1.8,1.8C790.2,319.4,790.9,320.2,791.9,320.2z"/>
</g>
<g>
	<path fill="#6E6F71" d="M1056.1,313.4c0-4.4,1.3-8,5.3-8s5.3,3.5,5.3,8c0,4.5-1.3,8-5.3,8S1056.1,317.9,1056.1,313.4z
		 M1065.2,313.4c0-3.7-0.8-6.6-3.7-6.6c-2.9,0-3.8,2.9-3.8,6.6c0,3.7,0.8,6.6,3.8,6.6C1064.4,320,1065.2,317.1,1065.2,313.4z"/>
	<path fill="#6E6F71" d="M1069.6,319.4h1.7v1.8h-1.7V319.4z"/>
	<path fill="#6E6F71" d="M1075.4,318.2c0,0,1.1,1.8,3.5,1.8c2.1,0,3.9-1.5,3.9-3.6s-1.7-3.6-3.9-3.6c-1.7,0-2.8,0.8-2.8,0.8l-1-0.4
		l0.8-7.5h7.5v1.4h-6.2l-0.4,4c-0.1,0.5-0.2,0.9-0.2,0.9h0c0,0,1-0.6,2.4-0.6c3.1,0,5.3,2.2,5.3,5c0,2.9-2.4,5.1-5.4,5.1
		c-3.1,0-4.5-2.2-4.5-2.2L1075.4,318.2z"/>
	<path fill="#6E6F71" d="M1086.7,308.5c0-1.7,1.4-3.1,3.1-3.1c1.7,0,3.1,1.4,3.1,3.1c0,1.7-1.4,3.1-3.1,3.1
		C1088.1,311.5,1086.7,310.2,1086.7,308.5z M1098.6,305.7h1.6l-11.8,15.5h-1.6L1098.6,305.7z M1091.6,308.5c0-1-0.8-1.8-1.8-1.8
		c-1,0-1.8,0.8-1.8,1.8c0,1,0.8,1.8,1.8,1.8C1090.8,310.3,1091.6,309.5,1091.6,308.5z M1097.2,315.3c1.7,0,3.1,1.4,3.1,3.1
		c0,1.7-1.4,3-3.1,3c-1.7,0-3.1-1.4-3.1-3C1094.2,316.7,1095.5,315.3,1097.2,315.3z M1097.2,320.2c1,0,1.8-0.8,1.8-1.8
		c0-1-0.8-1.8-1.8-1.8c-1,0-1.8,0.8-1.8,1.8C1095.5,319.4,1096.2,320.2,1097.2,320.2z"/>
</g>
<g>
	<path fill="#6E6F71" d="M16,343.4h5.3c4.8,0,8,2.9,8,7.8s-3.1,7.8-8,7.8H16V343.4z M21.2,356.6c3.2,0,5.2-1.9,5.2-5.4
		c0-3.5-2.1-5.3-5.2-5.3h-2.3v10.7H21.2z"/>
	<path fill="#6E6F71" d="M31.8,343.4h2.8v2.5h-2.8V343.4z M31.8,347.8h2.8V359h-2.8V347.8z"/>
	<path fill="#6E6F71" d="M38,355.7c0,0,1.2,1.2,3.1,1.2c0.8,0,1.5-0.4,1.5-1c0-1.7-5.5-1.5-5.5-5.1c0-2.1,1.9-3.3,4.3-3.3
		c2.5,0,3.8,1.3,3.8,1.3l-1,2.1c0,0-1-1-2.8-1c-0.7,0-1.4,0.3-1.4,1c0,1.6,5.5,1.4,5.5,5c0,1.9-1.6,3.4-4.3,3.4
		c-2.8,0-4.4-1.6-4.4-1.6L38,355.7z"/>
	<path fill="#6E6F71" d="M53,347.5c3.4,0,6.2,2.4,6.2,5.9c0,3.5-2.8,5.9-6.2,5.9c-3.4,0-6.2-2.4-6.2-5.9
		C46.8,350,49.5,347.5,53,347.5z M53,356.9c1.8,0,3.3-1.4,3.3-3.5c0-2.1-1.5-3.5-3.3-3.5c-1.8,0-3.3,1.4-3.3,3.5
		C49.6,355.5,51.2,356.9,53,356.9z"/>
	<path fill="#6E6F71" d="M61.4,347.8h2.7v1.9c0,0.4,0,0.8,0,0.8h0c0.5-1.6,1.8-2.9,3.6-2.9c0.3,0,0.5,0,0.5,0v2.8c0,0-0.3,0-0.7,0
		c-1.2,0-2.5,0.7-3.1,2.4c-0.2,0.5-0.2,1.2-0.2,1.8v4.4h-2.8V347.8z"/>
	<path fill="#6E6F71" d="M70,343.4h2.8v2.5H70V343.4z M70,347.8h2.8V359H70V347.8z"/>
	<path fill="#6E6F71" d="M80.8,347.5c3.2,0,5,2.4,5,5.3c0,0.3-0.1,1.1-0.1,1.1H78c0.2,2,1.7,3,3.4,3c1.8,0,3.2-1.2,3.2-1.2l1.1,2
		c0,0-1.7,1.6-4.5,1.6c-3.7,0-6-2.7-6-5.9C75.1,350,77.5,347.5,80.8,347.5z M83,352c0-1.5-1-2.3-2.2-2.3c-1.4,0-2.4,0.9-2.7,2.3H83z
		"/>
	<path fill="#6E6F71" d="M88.1,347.8h2.7v1.3c0,0.4,0,0.8,0,0.8h0c0.5-0.9,1.7-2.3,4-2.3c2.5,0,3.9,1.3,3.9,4.3v7.2h-2.8v-6.6
		c0-1.4-0.4-2.3-1.8-2.3c-1.5,0-2.6,0.9-3,2.3c-0.2,0.5-0.2,1-0.2,1.5v5.1h-2.8V347.8z"/>
	<path fill="#6E6F71" d="M102.1,350.2h-1.5V348h1.5v-3.2h2.7v3.2h2.6v2.2h-2.6v4.4c0,1.8,1.5,2.1,2.2,2.1c0.3,0,0.5,0,0.5,0v2.4
		c0,0-0.3,0.1-0.9,0.1c-1.6,0-4.7-0.5-4.7-4.2V350.2z"/>
	<path fill="#6E6F71" d="M115.6,352h0.4v-0.2c0-1.5-0.9-2-2.2-2c-1.6,0-3.1,1.1-3.1,1.1l-1.1-2c0,0,1.7-1.4,4.4-1.4
		c2.9,0,4.7,1.6,4.7,4.5v7h-2.6v-0.9c0-0.4,0-0.8,0-0.8h0c0,0-0.9,2-3.4,2c-2,0-3.8-1.3-3.8-3.5C108.9,352.2,113.7,352,115.6,352z
		 M113.4,357.1c1.5,0,2.5-1.6,2.5-2.9v-0.3h-0.5c-1.4,0-3.7,0.2-3.7,1.8C111.7,356.4,112.3,357.1,113.4,357.1z"/>
	<path fill="#6E6F71" d="M122,350.2h-1.5V348h1.5v-3.2h2.7v3.2h2.6v2.2h-2.6v4.4c0,1.8,1.5,2.1,2.2,2.1c0.3,0,0.5,0,0.5,0v2.4
		c0,0-0.3,0.1-0.9,0.1c-1.6,0-4.7-0.5-4.7-4.2V350.2z"/>
	<path fill="#6E6F71" d="M129.8,343.4h2.8v2.5h-2.8V343.4z M129.8,347.8h2.8V359h-2.8V347.8z"/>
	<path fill="#6E6F71" d="M141,347.5c3.4,0,6.2,2.4,6.2,5.9c0,3.5-2.8,5.9-6.2,5.9c-3.4,0-6.2-2.4-6.2-5.9
		C134.9,350,137.6,347.5,141,347.5z M141.1,356.9c1.8,0,3.3-1.4,3.3-3.5c0-2.1-1.5-3.5-3.3-3.5c-1.8,0-3.3,1.4-3.3,3.5
		C137.7,355.5,139.2,356.9,141.1,356.9z"/>
	<path fill="#6E6F71" d="M149.5,347.8h2.7v1.3c0,0.4,0,0.8,0,0.8h0c0.5-0.9,1.7-2.3,4-2.3c2.5,0,3.9,1.3,3.9,4.3v7.2h-2.8v-6.6
		c0-1.4-0.4-2.3-1.8-2.3c-1.5,0-2.6,0.9-3,2.3c-0.2,0.5-0.2,1-0.2,1.5v5.1h-2.8V347.8z"/>
</g>
<g>
	<path fill="#6E6F71" d="M453.5,351.3c0-4.4,1.3-8,5.3-8c4,0,5.3,3.5,5.3,8c0,4.5-1.3,8-5.3,8C454.8,359.3,453.5,355.8,453.5,351.3z
		 M462.6,351.3c0-3.7-0.8-6.6-3.7-6.6c-2.9,0-3.8,2.9-3.8,6.6c0,3.7,0.8,6.6,3.8,6.6C461.8,357.9,462.6,355,462.6,351.3z"/>
	<path fill="#6E6F71" d="M466.9,346.3c0-1.7,1.4-3.1,3.1-3.1s3.1,1.4,3.1,3.1c0,1.7-1.4,3.1-3.1,3.1S466.9,348,466.9,346.3z
		 M478.9,343.5h1.6L468.7,359h-1.6L478.9,343.5z M471.8,346.3c0-1-0.8-1.8-1.8-1.8s-1.8,0.8-1.8,1.8c0,1,0.8,1.8,1.8,1.8
		S471.8,347.4,471.8,346.3z M477.5,353.2c1.7,0,3.1,1.4,3.1,3.1c0,1.7-1.4,3-3.1,3s-3.1-1.4-3.1-3
		C474.4,354.6,475.7,353.2,477.5,353.2z M477.5,358c1,0,1.8-0.8,1.8-1.8c0-1-0.8-1.8-1.8-1.8s-1.8,0.8-1.8,1.8
		C475.7,357.2,476.5,358,477.5,358z"/>
</g>
<g>
	<path fill="#6E6F71" d="M750.6,351.3c0-4.4,1.3-8,5.3-8s5.3,3.5,5.3,8c0,4.5-1.3,8-5.3,8S750.6,355.8,750.6,351.3z M759.7,351.3
		c0-3.7-0.8-6.6-3.7-6.6c-2.9,0-3.8,2.9-3.8,6.6c0,3.7,0.8,6.6,3.8,6.6C758.9,357.9,759.7,355,759.7,351.3z"/>
	<path fill="#6E6F71" d="M764.2,357.3h1.7v1.8h-1.7V357.3z"/>
	<path fill="#6E6F71" d="M769.1,358c0-5.4,7.9-6.1,7.9-10.3c0-1.7-1.3-3-3.2-3c-2.3,0-3.5,2.1-3.5,2.1l-1.1-0.8c0,0,1.4-2.8,4.7-2.8
		c2.9,0,4.7,1.9,4.7,4.3c0,5.2-7.8,5.9-7.8,10h8.1v1.4h-9.7C769.1,358.7,769.1,358.3,769.1,358z"/>
	<path fill="#6E6F71" d="M781.4,346.3c0-1.7,1.4-3.1,3.1-3.1c1.7,0,3.1,1.4,3.1,3.1c0,1.7-1.4,3.1-3.1,3.1
		C782.8,349.4,781.4,348,781.4,346.3z M793.3,343.5h1.6L783.1,359h-1.6L793.3,343.5z M786.3,346.3c0-1-0.8-1.8-1.8-1.8
		c-1,0-1.8,0.8-1.8,1.8c0,1,0.8,1.8,1.8,1.8C785.5,348.2,786.3,347.4,786.3,346.3z M791.9,353.2c1.7,0,3.1,1.4,3.1,3.1
		c0,1.7-1.4,3-3.1,3c-1.7,0-3.1-1.4-3.1-3C788.8,354.6,790.2,353.2,791.9,353.2z M791.9,358c1,0,1.8-0.8,1.8-1.8
		c0-1-0.8-1.8-1.8-1.8c-1,0-1.8,0.8-1.8,1.8C790.2,357.2,790.9,358,791.9,358z"/>
</g>
<g>
	<path fill="#6E6F71" d="M1064.7,351.3c0-4.4,1.3-8,5.3-8s5.3,3.5,5.3,8c0,4.5-1.3,8-5.3,8S1064.7,355.8,1064.7,351.3z
		 M1073.8,351.3c0-3.7-0.8-6.6-3.7-6.6c-2.9,0-3.8,2.9-3.8,6.6c0,3.7,0.8,6.6,3.8,6.6C1073,357.9,1073.8,355,1073.8,351.3z"/>
	<path fill="#6E6F71" d="M1078.1,346.3c0-1.7,1.4-3.1,3.1-3.1c1.7,0,3.1,1.4,3.1,3.1c0,1.7-1.4,3.1-3.1,3.1
		C1079.5,349.4,1078.1,348,1078.1,346.3z M1090.1,343.5h1.6l-11.8,15.5h-1.6L1090.1,343.5z M1083,346.3c0-1-0.8-1.8-1.8-1.8
		c-1,0-1.8,0.8-1.8,1.8c0,1,0.8,1.8,1.8,1.8C1082.2,348.2,1083,347.4,1083,346.3z M1088.6,353.2c1.7,0,3.1,1.4,3.1,3.1
		c0,1.7-1.4,3-3.1,3c-1.7,0-3.1-1.4-3.1-3C1085.6,354.6,1086.9,353.2,1088.6,353.2z M1088.6,358c1,0,1.8-0.8,1.8-1.8
		c0-1-0.8-1.8-1.8-1.8c-1,0-1.8,0.8-1.8,1.8C1086.9,357.2,1087.6,358,1088.6,358z"/>
</g>
<g>
	<path fill="#6E6F71" d="M16,381.3h6c2.9,0,5,2,5,5.1c0,3-2,5.1-5,5.1h-3.2v5.4H16V381.3z M21.5,389c1.7,0,2.6-1.1,2.6-2.7
		c0-1.6-1-2.6-2.6-2.6h-2.7v5.3H21.5z"/>
	<path fill="#6E6F71" d="M29.4,393.5c0,0,1.2,1.2,3.1,1.2c0.8,0,1.5-0.4,1.5-1c0-1.7-5.5-1.5-5.5-5.1c0-2.1,1.9-3.3,4.3-3.3
		c2.5,0,3.8,1.3,3.8,1.3l-1,2.1c0,0-1-1-2.8-1c-0.7,0-1.4,0.3-1.4,1c0,1.6,5.5,1.4,5.5,5c0,1.9-1.6,3.4-4.3,3.4
		c-2.8,0-4.4-1.6-4.4-1.6L29.4,393.5z"/>
	<path fill="#6E6F71" d="M38.4,398.7c0,0,0.6,0.5,1.3,0.5c0.8,0,1.5-0.5,1.9-1.5l0.4-1l-4.7-11h3.1l2.4,6.5c0.2,0.6,0.4,1.5,0.4,1.5
		h0c0,0,0.2-0.9,0.4-1.5l2.2-6.5h3.1l-5,12.9c-0.8,2-2.4,2.9-4,2.9c-1.3,0-2.3-0.7-2.3-0.7L38.4,398.7z"/>
	<path fill="#6E6F71" d="M55.8,385.4c2.9,0,4.3,1.7,4.3,1.7l-1.2,1.9c0,0-1.2-1.2-2.9-1.2c-2.1,0-3.4,1.6-3.4,3.5
		c0,1.9,1.4,3.5,3.5,3.5c1.9,0,3.3-1.4,3.3-1.4l1.1,2c0,0-1.6,1.8-4.6,1.8c-3.7,0-6.1-2.6-6.1-5.9C49.7,388.1,52,385.4,55.8,385.4z"
		/>
	<path fill="#6E6F71" d="M62.5,381.3h2.8v5.4c0,0.5,0,0.9,0,0.9h0c0.6-1.1,1.9-2.2,3.9-2.2c2.5,0,3.9,1.3,3.9,4.3v7.2h-2.8v-6.6
		c0-1.4-0.4-2.3-1.8-2.3c-1.5,0-2.6,1-3,2.3c-0.1,0.4-0.2,0.9-0.2,1.5v5.1h-2.8V381.3z"/>
	<path fill="#6E6F71" d="M81.3,385.4c3.4,0,6.2,2.4,6.2,5.9c0,3.5-2.8,5.9-6.2,5.9c-3.4,0-6.2-2.4-6.2-5.9
		C75.1,387.8,77.9,385.4,81.3,385.4z M81.3,394.8c1.8,0,3.3-1.4,3.3-3.5c0-2.1-1.5-3.5-3.3-3.5c-1.8,0-3.3,1.4-3.3,3.5
		C77.9,393.4,79.5,394.8,81.3,394.8z"/>
	<path fill="#6E6F71" d="M89.7,385.7h2.7v1.3c0,0.4,0,0.8,0,0.8h0c0.6-1.1,1.9-2.3,3.7-2.3c1.7,0,2.8,0.8,3.3,2.3h0
		c0.6-1.2,2.1-2.3,3.8-2.3c2.3,0,3.7,1.3,3.7,4.3v7.2h-2.8v-6.7c0-1.3-0.2-2.2-1.5-2.2c-1.4,0-2.4,1.1-2.7,2.6
		c-0.1,0.4-0.1,0.9-0.1,1.5v4.9h-2.8v-6.7c0-1.2-0.2-2.2-1.5-2.2c-1.5,0-2.4,1.1-2.8,2.6c-0.1,0.4-0.1,0.9-0.1,1.4v4.9h-2.8V385.7z"
		/>
	<path fill="#6E6F71" d="M115.1,385.4c3.4,0,6.2,2.4,6.2,5.9c0,3.5-2.8,5.9-6.2,5.9c-3.4,0-6.2-2.4-6.2-5.9
		C108.9,387.8,111.7,385.4,115.1,385.4z M115.1,394.8c1.8,0,3.3-1.4,3.3-3.5c0-2.1-1.5-3.5-3.3-3.5c-1.8,0-3.3,1.4-3.3,3.5
		C111.8,393.4,113.3,394.8,115.1,394.8z"/>
	<path fill="#6E6F71" d="M124,388.1h-1.5v-2.2h1.5v-3.2h2.7v3.2h2.6v2.2h-2.6v4.4c0,1.8,1.5,2.1,2.2,2.1c0.3,0,0.5,0,0.5,0v2.4
		c0,0-0.3,0.1-0.9,0.1c-1.6,0-4.7-0.5-4.7-4.2V388.1z"/>
	<path fill="#6E6F71" d="M137.2,385.4c3.4,0,6.2,2.4,6.2,5.9c0,3.5-2.8,5.9-6.2,5.9c-3.4,0-6.2-2.4-6.2-5.9
		C131,387.8,133.7,385.4,137.2,385.4z M137.2,394.8c1.8,0,3.3-1.4,3.3-3.5c0-2.1-1.5-3.5-3.3-3.5c-1.8,0-3.3,1.4-3.3,3.5
		C133.8,393.4,135.3,394.8,137.2,394.8z"/>
	<path fill="#6E6F71" d="M145.6,385.7h2.7v1.9c0,0.4,0,0.8,0,0.8h0c0.5-1.6,1.8-2.9,3.6-2.9c0.3,0,0.5,0,0.5,0v2.8c0,0-0.3,0-0.7,0
		c-1.2,0-2.5,0.7-3.1,2.4c-0.2,0.5-0.2,1.2-0.2,1.8v4.4h-2.8V385.7z"/>
	<path fill="#6E6F71" d="M159.6,385.7h2.7v1.9c0,0.4,0,0.8,0,0.8h0c0.5-1.6,1.8-2.9,3.6-2.9c0.3,0,0.5,0,0.5,0v2.8c0,0-0.3,0-0.7,0
		c-1.2,0-2.5,0.7-3.1,2.4c-0.2,0.5-0.2,1.2-0.2,1.8v4.4h-2.8V385.7z"/>
	<path fill="#6E6F71" d="M173,385.4c3.2,0,5,2.4,5,5.3c0,0.3-0.1,1.1-0.1,1.1h-7.7c0.2,2,1.7,3,3.4,3c1.8,0,3.2-1.2,3.2-1.2l1.1,2
		c0,0-1.7,1.6-4.5,1.6c-3.7,0-6-2.7-6-5.9C167.3,387.8,169.6,385.4,173,385.4z M175.1,389.9c0-1.5-1-2.3-2.2-2.3
		c-1.4,0-2.4,0.9-2.7,2.3H175.1z"/>
	<path fill="#6E6F71" d="M180.8,388.1h-1.5v-2.2h1.5v-3.2h2.7v3.2h2.6v2.2h-2.6v4.4c0,1.8,1.5,2.1,2.2,2.1c0.3,0,0.5,0,0.5,0v2.4
		c0,0-0.3,0.1-0.9,0.1c-1.6,0-4.7-0.5-4.7-4.2V388.1z"/>
	<path fill="#6E6F71" d="M194.3,389.8h0.4v-0.2c0-1.5-0.9-2-2.2-2c-1.6,0-3.1,1.1-3.1,1.1l-1.1-2c0,0,1.7-1.4,4.4-1.4
		c2.9,0,4.7,1.6,4.7,4.5v7h-2.6V396c0-0.4,0-0.8,0-0.8h0c0,0-0.9,2-3.4,2c-2,0-3.8-1.3-3.8-3.5C187.6,390.1,192.4,389.8,194.3,389.8
		z M192.1,395c1.5,0,2.5-1.6,2.5-2.9v-0.3h-0.5c-1.4,0-3.7,0.2-3.7,1.8C190.4,394.3,191,395,192.1,395z"/>
	<path fill="#6E6F71" d="M200.3,385.7h2.7v1.9c0,0.4,0,0.8,0,0.8h0c0.5-1.6,1.8-2.9,3.6-2.9c0.3,0,0.5,0,0.5,0v2.8c0,0-0.3,0-0.7,0
		c-1.2,0-2.5,0.7-3.1,2.4c-0.2,0.5-0.2,1.2-0.2,1.8v4.4h-2.8V385.7z"/>
	<path fill="#6E6F71" d="M213.2,385.4c2.5,0,3.2,1.4,3.2,1.4h0c0,0,0-0.3,0-0.6v-4.9h2.8v15.6h-2.6V396c0-0.4,0-0.7,0-0.7h0
		c0,0-0.9,1.9-3.5,1.9c-3,0-5-2.4-5-5.9C208.1,387.7,210.2,385.4,213.2,385.4z M213.7,394.8c1.5,0,2.8-1.1,2.8-3.5
		c0-1.7-0.9-3.5-2.8-3.5c-1.5,0-2.8,1.3-2.8,3.5C210.9,393.4,212.1,394.8,213.7,394.8z"/>
	<path fill="#6E6F71" d="M228,389.8h0.4v-0.2c0-1.5-0.9-2-2.2-2c-1.6,0-3.1,1.1-3.1,1.1l-1.1-2c0,0,1.7-1.4,4.4-1.4
		c2.9,0,4.7,1.6,4.7,4.5v7h-2.6V396c0-0.4,0-0.8,0-0.8h0c0,0-0.9,2-3.4,2c-2,0-3.8-1.3-3.8-3.5C221.4,390.1,226.2,389.8,228,389.8z
		 M225.9,395c1.5,0,2.5-1.6,2.5-2.9v-0.3h-0.5c-1.4,0-3.7,0.2-3.7,1.8C224.2,394.3,224.8,395,225.9,395z"/>
	<path fill="#6E6F71" d="M234.5,388.1h-1.5v-2.2h1.5v-3.2h2.7v3.2h2.6v2.2h-2.6v4.4c0,1.8,1.5,2.1,2.2,2.1c0.3,0,0.5,0,0.5,0v2.4
		c0,0-0.3,0.1-0.9,0.1c-1.6,0-4.7-0.5-4.7-4.2V388.1z"/>
	<path fill="#6E6F71" d="M242.3,381.3h2.8v2.5h-2.8V381.3z M242.3,385.7h2.8v11.2h-2.8V385.7z"/>
	<path fill="#6E6F71" d="M253.5,385.4c3.4,0,6.2,2.4,6.2,5.9c0,3.5-2.8,5.9-6.2,5.9c-3.4,0-6.2-2.4-6.2-5.9
		C247.4,387.8,250.1,385.4,253.5,385.4z M253.6,394.8c1.8,0,3.3-1.4,3.3-3.5c0-2.1-1.5-3.5-3.3-3.5c-1.8,0-3.3,1.4-3.3,3.5
		C250.2,393.4,251.7,394.8,253.6,394.8z"/>
	<path fill="#6E6F71" d="M262,385.7h2.7v1.3c0,0.4,0,0.8,0,0.8h0c0.5-0.9,1.7-2.3,4-2.3c2.5,0,3.9,1.3,3.9,4.3v7.2h-2.8v-6.6
		c0-1.4-0.4-2.3-1.8-2.3c-1.5,0-2.6,0.9-3,2.3c-0.2,0.5-0.2,1-0.2,1.5v5.1H262V385.7z"/>
</g>
<g>
	<path fill="#6E6F71" d="M453.5,389.1c0-4.4,1.3-8,5.3-8c4,0,5.3,3.5,5.3,8c0,4.5-1.3,8-5.3,8C454.8,397.2,453.5,393.6,453.5,389.1z
		 M462.6,389.1c0-3.7-0.8-6.6-3.7-6.6c-2.9,0-3.8,2.9-3.8,6.6c0,3.7,0.8,6.6,3.8,6.6C461.8,395.7,462.6,392.8,462.6,389.1z"/>
	<path fill="#6E6F71" d="M466.9,384.2c0-1.7,1.4-3.1,3.1-3.1s3.1,1.4,3.1,3.1c0,1.7-1.4,3.1-3.1,3.1S466.9,385.9,466.9,384.2z
		 M478.9,381.4h1.6l-11.8,15.5h-1.6L478.9,381.4z M471.8,384.2c0-1-0.8-1.8-1.8-1.8s-1.8,0.8-1.8,1.8c0,1,0.8,1.8,1.8,1.8
		S471.8,385.2,471.8,384.2z M477.5,391c1.7,0,3.1,1.4,3.1,3.1c0,1.7-1.4,3-3.1,3s-3.1-1.4-3.1-3C474.4,392.4,475.7,391,477.5,391z
		 M477.5,395.9c1,0,1.8-0.8,1.8-1.8c0-1-0.8-1.8-1.8-1.8s-1.8,0.8-1.8,1.8C475.7,395.1,476.5,395.9,477.5,395.9z"/>
</g>
<g>
	<path fill="#6E6F71" d="M750.6,389.1c0-4.4,1.3-8,5.3-8s5.3,3.5,5.3,8c0,4.5-1.3,8-5.3,8S750.6,393.6,750.6,389.1z M759.7,389.1
		c0-3.7-0.8-6.6-3.7-6.6c-2.9,0-3.8,2.9-3.8,6.6c0,3.7,0.8,6.6,3.8,6.6C758.9,395.7,759.7,392.8,759.7,389.1z"/>
	<path fill="#6E6F71" d="M764.2,395.1h1.7v1.8h-1.7V395.1z"/>
	<path fill="#6E6F71" d="M769.1,395.9c0-5.4,7.9-6.1,7.9-10.3c0-1.7-1.3-3-3.2-3c-2.3,0-3.5,2.1-3.5,2.1l-1.1-0.8
		c0,0,1.4-2.8,4.7-2.8c2.9,0,4.7,1.9,4.7,4.3c0,5.2-7.8,5.9-7.8,10h8.1v1.4h-9.7C769.1,396.5,769.1,396.2,769.1,395.9z"/>
	<path fill="#6E6F71" d="M781.4,384.2c0-1.7,1.4-3.1,3.1-3.1c1.7,0,3.1,1.4,3.1,3.1c0,1.7-1.4,3.1-3.1,3.1
		C782.8,387.3,781.4,385.9,781.4,384.2z M793.3,381.4h1.6l-11.8,15.5h-1.6L793.3,381.4z M786.3,384.2c0-1-0.8-1.8-1.8-1.8
		c-1,0-1.8,0.8-1.8,1.8c0,1,0.8,1.8,1.8,1.8C785.5,386,786.3,385.2,786.3,384.2z M791.9,391c1.7,0,3.1,1.4,3.1,3.1
		c0,1.7-1.4,3-3.1,3c-1.7,0-3.1-1.4-3.1-3C788.8,392.4,790.2,391,791.9,391z M791.9,395.9c1,0,1.8-0.8,1.8-1.8c0-1-0.8-1.8-1.8-1.8
		c-1,0-1.8,0.8-1.8,1.8C790.2,395.1,790.9,395.9,791.9,395.9z"/>
</g>
<g>
	<path fill="#6E6F71" d="M1056,389.1c0-4.4,1.3-8,5.3-8s5.3,3.5,5.3,8c0,4.5-1.3,8-5.3,8S1056,393.6,1056,389.1z M1065.1,389.1
		c0-3.7-0.8-6.6-3.7-6.6c-2.9,0-3.8,2.9-3.8,6.6c0,3.7,0.8,6.6,3.8,6.6C1064.3,395.7,1065.1,392.8,1065.1,389.1z"/>
	<path fill="#6E6F71" d="M1069.5,395.1h1.7v1.8h-1.7V395.1z"/>
	<path fill="#6E6F71" d="M1074.5,395.9c0-5.4,7.9-6.1,7.9-10.3c0-1.7-1.3-3-3.2-3c-2.3,0-3.5,2.1-3.5,2.1l-1.1-0.8
		c0,0,1.4-2.8,4.7-2.8c2.9,0,4.7,1.9,4.7,4.3c0,5.2-7.8,5.9-7.8,10h8.1v1.4h-9.7C1074.5,396.5,1074.5,396.2,1074.5,395.9z"/>
	<path fill="#6E6F71" d="M1086.8,384.2c0-1.7,1.4-3.1,3.1-3.1c1.7,0,3.1,1.4,3.1,3.1c0,1.7-1.4,3.1-3.1,3.1
		C1088.2,387.3,1086.8,385.9,1086.8,384.2z M1098.7,381.4h1.6l-11.8,15.5h-1.6L1098.7,381.4z M1091.7,384.2c0-1-0.8-1.8-1.8-1.8
		c-1,0-1.8,0.8-1.8,1.8c0,1,0.8,1.8,1.8,1.8C1090.9,386,1091.7,385.2,1091.7,384.2z M1097.3,391c1.7,0,3.1,1.4,3.1,3.1
		c0,1.7-1.4,3-3.1,3c-1.7,0-3.1-1.4-3.1-3C1094.2,392.4,1095.6,391,1097.3,391z M1097.3,395.9c1,0,1.8-0.8,1.8-1.8
		c0-1-0.8-1.8-1.8-1.8c-1,0-1.8,0.8-1.8,1.8C1095.6,395.1,1096.3,395.9,1097.3,395.9z"/>
</g>
<line fill="none" stroke="#D0D2D3" stroke-miterlimit="10" x1="0.6" y1="370.7" x2="1223.6" y2="370.7"/>
<line fill="none" stroke="#D0D2D3" stroke-miterlimit="10" x1="0.6" y1="333.1" x2="1223.6" y2="333.1"/>
<line fill="none" stroke="#D0D2D3" stroke-miterlimit="10" x1="0.6" y1="257.9" x2="1223.6" y2="257.9"/>
<line fill="none" stroke="#D0D2D3" stroke-miterlimit="10" x1="0.6" y1="295.5" x2="1223.6" y2="295.5"/>
<line fill="none" stroke="#D0D2D3" stroke-miterlimit="10" x1="0.6" y1="219" x2="1223.6" y2="219"/>
<line fill="none" stroke="#D0D2D3" stroke-miterlimit="10" x1="0.6" y1="181.4" x2="1223.6" y2="181.4"/>
<line fill="none" stroke="#D0D2D3" stroke-miterlimit="10" x1="0.6" y1="143.2" x2="1223.6" y2="143.2"/>
<line fill="none" stroke="#D0D2D3" stroke-miterlimit="10" x1="0.6" y1="105.6" x2="1223.6" y2="105.6"/>
<line fill="none" stroke="#D0D2D3" stroke-miterlimit="10" x1="0.6" y1="408.6" x2="1223.6" y2="408.6"/>
<line fill="none" stroke="#D0D2D3" stroke-miterlimit="10" x1="305.5" y1="1.1" x2="305.5" y2="409"/>
<line fill="none" stroke="#D0D2D3" stroke-width="0.9149" stroke-miterlimit="10" x1="611.5" y1="67.6" x2="611.5" y2="409"/>
<line fill="none" stroke="#D0D2D3" stroke-width="0.9149" stroke-miterlimit="10" x1="916.5" y1="67.6" x2="916.5" y2="409"/>
<line fill="none" stroke="#FFFFFF" stroke-width="0.9897" stroke-miterlimit="10" x1="611.5" y1="0" x2="611.5" y2="67.8"/>
<line fill="none" stroke="#FFFFFF" stroke-width="0.9897" stroke-miterlimit="10" x1="916.5" y1="0" x2="916.5" y2="67.8"/>
<line fill="none" stroke="#D0D2D3" stroke-width="0.9998" stroke-miterlimit="10" x1="305.8" y1="67.8" x2="1223.6" y2="67.8"/>
<rect x="0" y="0" fill="#CADEED" width="306" height="67.8"/>
<g>
	<path fill="#6E6F71" d="M23,14.8c3.8,0,5.8,2.1,5.8,2.1L27.4,19c0,0-1.8-1.7-4.3-1.7c-3.3,0-5.2,2.5-5.2,5.4c0,3,2,5.6,5.3,5.6
		c2.7,0,4.5-2,4.5-2l1.5,2c0,0-2.2,2.5-6.1,2.5c-4.8,0-8.1-3.5-8.1-8.1C14.9,18.2,18.4,14.8,23,14.8z"/>
	<path fill="#6E6F71" d="M36.6,19.2c3.4,0,6.2,2.4,6.2,5.9c0,3.5-2.8,5.9-6.2,5.9c-3.4,0-6.2-2.4-6.2-5.9
		C30.5,21.6,33.2,19.2,36.6,19.2z M36.7,28.5c1.8,0,3.3-1.4,3.3-3.5c0-2.1-1.5-3.5-3.3-3.5c-1.8,0-3.3,1.4-3.3,3.5
		C33.3,27.1,34.8,28.5,36.7,28.5z"/>
	<path fill="#6E6F71" d="M49.3,32.9c1.7,0,3.2-0.7,3.2-2.7v-0.7c0-0.3,0-0.6,0-0.6h0c-0.7,1-1.6,1.5-3.1,1.5c-3.2,0-5-2.6-5-5.7
		s1.7-5.6,5-5.6c2.4,0,3.3,1.4,3.3,1.4h0.1c0,0,0-0.1,0-0.3v-0.9h2.6V30c0,3.9-3,5.3-5.9,5.3c-1.4,0-2.9-0.4-4-1l0.8-2.1
		C46.2,32.2,47.6,32.9,49.3,32.9z M52.5,24.8c0-2.6-1.3-3.2-2.8-3.2c-1.7,0-2.6,1.2-2.6,3.1c0,2,1,3.4,2.8,3.4
		C51.3,28.1,52.5,27.3,52.5,24.8z"/>
	<path fill="#6E6F71" d="M58.3,19.4H61v1.3c0,0.4,0,0.8,0,0.8h0c0.5-0.9,1.7-2.3,4-2.3c2.5,0,3.9,1.3,3.9,4.3v7.2h-2.8V24
		c0-1.4-0.4-2.3-1.8-2.3c-1.5,0-2.6,0.9-3,2.3c-0.2,0.5-0.2,1-0.2,1.5v5.1h-2.8V19.4z"/>
	<path fill="#6E6F71" d="M71.8,15h2.8v2.5h-2.8V15z M71.8,19.4h2.8v11.2h-2.8V19.4z"/>
	<path fill="#6E6F71" d="M78.2,21.8h-1.5v-2.2h1.5v-3.2H81v3.2h2.6v2.2H81v4.4c0,1.8,1.5,2.1,2.2,2.1c0.3,0,0.5,0,0.5,0v2.4
		c0,0-0.3,0.1-0.9,0.1c-1.6,0-4.7-0.5-4.7-4.2V21.8z"/>
	<path fill="#6E6F71" d="M86,15h2.8v2.5H86V15z M86,19.4h2.8v11.2H86V19.4z"/>
	<path fill="#6E6F71" d="M90.3,19.4h2.9l2.3,7c0.2,0.7,0.4,1.7,0.4,1.7h0c0,0,0.2-1,0.4-1.7l2.3-7h2.9l-4,11.2h-3.3L90.3,19.4z"/>
	<path fill="#6E6F71" d="M108.2,19.2c3.2,0,5,2.4,5,5.3c0,0.3-0.1,1.1-0.1,1.1h-7.7c0.2,2,1.7,3,3.4,3c1.8,0,3.2-1.2,3.2-1.2l1.1,2
		c0,0-1.7,1.6-4.5,1.6c-3.7,0-6-2.7-6-5.9C102.5,21.6,104.9,19.2,108.2,19.2z M110.4,23.7c0-1.5-1-2.3-2.2-2.3
		c-1.4,0-2.4,0.9-2.7,2.3H110.4z"/>
	<path fill="#6E6F71" d="M125.1,19.2c2.5,0,3.2,1.4,3.2,1.4h0c0,0,0-0.3,0-0.6V15h2.8v15.6h-2.6v-0.9c0-0.4,0-0.7,0-0.7h0
		c0,0-0.9,1.9-3.5,1.9c-3,0-5-2.4-5-5.9C120.1,21.5,122.2,19.2,125.1,19.2z M125.7,28.6c1.5,0,2.8-1.1,2.8-3.5
		c0-1.7-0.9-3.5-2.8-3.5c-1.5,0-2.8,1.3-2.8,3.5C122.9,27.2,124,28.6,125.7,28.6z"/>
	<path fill="#6E6F71" d="M133.7,32.5c0,0,0.6,0.5,1.3,0.5c0.8,0,1.5-0.5,1.9-1.5l0.4-1l-4.7-11h3.1l2.4,6.5c0.2,0.6,0.4,1.5,0.4,1.5
		h0c0,0,0.2-0.9,0.4-1.5l2.2-6.5h3.1l-5,12.9c-0.8,2-2.4,2.9-4,2.9c-1.3,0-2.3-0.7-2.3-0.7L133.7,32.5z"/>
	<path fill="#6E6F71" d="M146.1,27.3c0,0,1.2,1.2,3.1,1.2c0.8,0,1.5-0.4,1.5-1c0-1.7-5.5-1.5-5.5-5.1c0-2.1,1.9-3.3,4.3-3.3
		c2.5,0,3.8,1.3,3.8,1.3l-1,2.1c0,0-1-1-2.8-1c-0.7,0-1.4,0.3-1.4,1c0,1.6,5.5,1.4,5.5,5c0,1.9-1.6,3.4-4.3,3.4
		c-2.8,0-4.4-1.7-4.4-1.7L146.1,27.3z"/>
	<path fill="#6E6F71" d="M156.2,21.8h-1.4v-2.2h1.4v-0.5c0-3.7,3-4.2,4.6-4.2c0.6,0,0.9,0.1,0.9,0.1v2.4c0,0-0.2,0-0.6,0
		c-0.8,0-2.2,0.2-2.2,1.8v0.4h2.4v2.2H159v8.8h-2.8V21.8z"/>
	<path fill="#6E6F71" d="M163.2,19.4h2.8v6.6c0,1.4,0.4,2.3,1.7,2.3c2,0,3.1-1.8,3.1-3.8v-5.1h2.8v11.2h-2.7v-1.3c0-0.4,0-0.8,0-0.8
		h0c-0.5,1.2-2,2.3-3.9,2.3c-2.4,0-3.9-1.2-3.9-4.3V19.4z"/>
	<path fill="#6E6F71" d="M176.7,19.4h2.7v1.3c0,0.4,0,0.8,0,0.8h0c0.5-0.9,1.7-2.3,4-2.3c2.5,0,3.9,1.3,3.9,4.3v7.2h-2.8V24
		c0-1.4-0.4-2.3-1.8-2.3c-1.5,0-2.6,0.9-3,2.3c-0.2,0.5-0.2,1-0.2,1.5v5.1h-2.8V19.4z"/>
	<path fill="#6E6F71" d="M195.5,19.2c2.9,0,4.3,1.7,4.3,1.7l-1.2,1.9c0,0-1.2-1.2-2.9-1.2c-2.1,0-3.4,1.6-3.4,3.5
		c0,1.9,1.4,3.5,3.5,3.5c1.9,0,3.3-1.4,3.3-1.4l1.1,2c0,0-1.6,1.8-4.6,1.8c-3.7,0-6.1-2.6-6.1-5.9C189.4,21.9,191.8,19.2,195.5,19.2
		z"/>
	<path fill="#6E6F71" d="M202.7,21.8h-1.5v-2.2h1.5v-3.2h2.7v3.2h2.6v2.2h-2.6v4.4c0,1.8,1.5,2.1,2.2,2.1c0.3,0,0.5,0,0.5,0v2.4
		c0,0-0.3,0.1-0.9,0.1c-1.6,0-4.7-0.5-4.7-4.2V21.8z"/>
	<path fill="#6E6F71" d="M210.5,15h2.8v2.5h-2.8V15z M210.5,19.4h2.8v11.2h-2.8V19.4z"/>
	<path fill="#6E6F71" d="M221.7,19.2c3.4,0,6.2,2.4,6.2,5.9c0,3.5-2.8,5.9-6.2,5.9c-3.4,0-6.2-2.4-6.2-5.9
		C215.5,21.6,218.3,19.2,221.7,19.2z M221.7,28.5c1.8,0,3.3-1.4,3.3-3.5c0-2.1-1.5-3.5-3.3-3.5c-1.8,0-3.3,1.4-3.3,3.5
		C218.4,27.1,219.9,28.5,221.7,28.5z"/>
	<path fill="#6E6F71" d="M230.1,19.4h2.7v1.3c0,0.4,0,0.8,0,0.8h0c0.5-0.9,1.7-2.3,4-2.3c2.5,0,3.9,1.3,3.9,4.3v7.2h-2.8V24
		c0-1.4-0.4-2.3-1.8-2.3c-1.5,0-2.6,0.9-3,2.3c-0.2,0.5-0.2,1-0.2,1.5v5.1h-2.8V19.4z"/>
	<path fill="#6E6F71" d="M243.8,23.3h12.2v2.2h-12.2V23.3z"/>
	<path fill="#6E6F71" d="M15.6,42.4h2.7v1.9c0,0.4,0,0.8,0,0.8h0c0.5-1.6,1.8-2.9,3.6-2.9c0.3,0,0.5,0,0.5,0v2.8c0,0-0.3,0-0.7,0
		c-1.2,0-2.5,0.7-3.1,2.4c-0.2,0.6-0.2,1.2-0.2,1.8v4.4h-2.8V42.4z"/>
	<path fill="#6E6F71" d="M29.1,42.2c3.2,0,5,2.4,5,5.3c0,0.3-0.1,1.1-0.1,1.1h-7.7c0.2,2,1.7,3,3.4,3c1.8,0,3.2-1.2,3.2-1.2l1.1,2
		c0,0-1.7,1.6-4.5,1.6c-3.7,0-6-2.7-6-5.9C23.4,44.6,25.8,42.2,29.1,42.2z M31.3,46.7c0-1.5-1-2.3-2.2-2.3c-1.4,0-2.4,0.9-2.7,2.3
		H31.3z"/>
	<path fill="#6E6F71" d="M36.2,38H39v11.7c0,1.2,0.4,1.5,1.1,1.5c0.2,0,0.4,0,0.4,0v2.4c0,0-0.4,0.1-0.9,0.1c-1.5,0-3.5-0.4-3.5-3.6
		V38z"/>
	<path fill="#6E6F71" d="M48.3,46.6h0.4v-0.2c0-1.5-0.9-2-2.2-2c-1.6,0-3.1,1.1-3.1,1.1l-1.1-2c0,0,1.7-1.4,4.4-1.4
		c2.9,0,4.7,1.6,4.7,4.5v7h-2.6v-0.9c0-0.4,0-0.8,0-0.8h0c0,0-0.9,2-3.4,2c-2,0-3.8-1.3-3.8-3.5C41.7,46.9,46.5,46.6,48.3,46.6z
		 M46.2,51.7c1.5,0,2.5-1.6,2.5-2.9v-0.3h-0.5c-1.4,0-3.7,0.2-3.7,1.8C44.5,51,45.1,51.7,46.2,51.7z"/>
	<path fill="#6E6F71" d="M54.9,44.8h-1.5v-2.2h1.5v-3.2h2.7v3.2h2.6v2.2h-2.6v4.4c0,1.8,1.5,2.1,2.2,2.1c0.3,0,0.5,0,0.5,0v2.4
		c0,0-0.3,0.1-0.9,0.1c-1.6,0-4.7-0.5-4.7-4.2V44.8z"/>
	<path fill="#6E6F71" d="M67.6,42.2c3.2,0,5,2.4,5,5.3c0,0.3-0.1,1.1-0.1,1.1h-7.7c0.2,2,1.7,3,3.4,3c1.8,0,3.2-1.2,3.2-1.2l1.1,2
		c0,0-1.7,1.6-4.5,1.6c-3.7,0-6-2.7-6-5.9C61.9,44.6,64.2,42.2,67.6,42.2z M69.7,46.7c0-1.5-1-2.3-2.2-2.3c-1.4,0-2.4,0.9-2.7,2.3
		H69.7z"/>
	<path fill="#6E6F71" d="M79.2,42.2c2.5,0,3.2,1.4,3.2,1.4h0c0,0,0-0.3,0-0.6V38h2.8v15.6h-2.6v-0.9c0-0.4,0-0.7,0-0.7h0
		c0,0-0.9,1.9-3.5,1.9c-3,0-5-2.4-5-5.9C74.1,44.5,76.2,42.2,79.2,42.2z M79.7,51.6c1.5,0,2.8-1.1,2.8-3.5c0-1.7-0.9-3.5-2.8-3.5
		c-1.5,0-2.8,1.3-2.8,3.5C76.9,50.2,78.1,51.6,79.7,51.6z"/>
	<path fill="#6E6F71" d="M98.6,42.2c3.2,0,5,2.4,5,5.3c0,0.3-0.1,1.1-0.1,1.1h-7.7c0.2,2,1.7,3,3.4,3c1.8,0,3.2-1.2,3.2-1.2l1.1,2
		c0,0-1.7,1.6-4.5,1.6c-3.7,0-6-2.7-6-5.9C92.9,44.6,95.2,42.2,98.6,42.2z M100.7,46.7c0-1.5-1-2.3-2.2-2.3c-1.4,0-2.4,0.9-2.7,2.3
		H100.7z"/>
	<path fill="#6E6F71" d="M104.3,42.4h2.9l2.3,7c0.2,0.7,0.4,1.7,0.4,1.7h0c0,0,0.2-1,0.4-1.7l2.3-7h2.9l-4,11.2h-3.3L104.3,42.4z"/>
	<path fill="#6E6F71" d="M122.2,42.2c3.2,0,5,2.4,5,5.3c0,0.3-0.1,1.1-0.1,1.1h-7.7c0.2,2,1.7,3,3.4,3c1.8,0,3.2-1.2,3.2-1.2l1.1,2
		c0,0-1.7,1.6-4.5,1.6c-3.7,0-6-2.7-6-5.9C116.5,44.6,118.8,42.2,122.2,42.2z M124.3,46.7c0-1.5-1-2.3-2.2-2.3
		c-1.4,0-2.4,0.9-2.7,2.3H124.3z"/>
	<path fill="#6E6F71" d="M129.4,42.4h2.7v1.3c0,0.4,0,0.8,0,0.8h0c0.5-0.9,1.7-2.3,4-2.3c2.5,0,3.9,1.3,3.9,4.3v7.2h-2.8V47
		c0-1.4-0.4-2.3-1.8-2.3c-1.5,0-2.6,0.9-3,2.3c-0.2,0.5-0.2,1-0.2,1.5v5.1h-2.8V42.4z"/>
	<path fill="#6E6F71" d="M143.4,44.8H142v-2.2h1.5v-3.2h2.7v3.2h2.6v2.2h-2.6v4.4c0,1.8,1.5,2.1,2.2,2.1c0.3,0,0.5,0,0.5,0v2.4
		c0,0-0.3,0.1-0.9,0.1c-1.6,0-4.7-0.5-4.7-4.2V44.8z"/>
	<path fill="#6E6F71" d="M151.6,50.3c0,0,1.2,1.2,3.1,1.2c0.8,0,1.5-0.4,1.5-1c0-1.7-5.5-1.5-5.5-5.1c0-2.1,1.9-3.3,4.3-3.3
		c2.5,0,3.8,1.3,3.8,1.3l-1,2.1c0,0-1-1-2.8-1c-0.7,0-1.4,0.3-1.4,1c0,1.6,5.5,1.4,5.5,5c0,1.9-1.6,3.4-4.3,3.4
		c-2.8,0-4.4-1.7-4.4-1.7L151.6,50.3z"/>
</g>
</svg>
