<?xml version="1.0" encoding="utf-8"?>
<!-- Generator: Adobe Illustrator 18.1.1, SVG Export Plug-In . SVG Version: 6.00 Build 0)  -->
<svg version="1.1" id="Layer_1" xmlns="http://www.w3.org/2000/svg" xmlns:xlink="http://www.w3.org/1999/xlink" x="0px" y="0px"
	 viewBox="0 0 1228 146.6" enable-background="new 0 0 1228 146.6" xml:space="preserve">
<g>
	<rect x="0" y="0" fill="#BCD6E9" width="307" height="146"/>
	<rect x="307.1" y="0" fill="#A6A8AB" width="307.5" height="82.8"/>
	<rect x="613.4" y="0" fill="#0072B1" width="307" height="82.8"/>
	<rect x="920.7" y="0" fill="#F8971D" width="307" height="82.8"/>
	<line fill="none" stroke="#FFFFFF" stroke-miterlimit="10" x1="307" y1="146.1" x2="307" y2="0"/>
	<g>
		<path fill="#1D1756" d="M31.3,52.9c3.8,0,5.8,2.1,5.8,2.1l-1.4,2.1c0,0-1.8-1.7-4.3-1.7c-3.3,0-5.2,2.5-5.2,5.4c0,3,2,5.6,5.3,5.6
			c2.7,0,4.5-2,4.5-2l1.5,2c0,0-2.2,2.5-6.1,2.5c-4.8,0-8.1-3.5-8.1-8.1C23.2,56.4,26.7,52.9,31.3,52.9z"/>
		<path fill="#1D1756" d="M44.9,57.3c3.4,0,6.2,2.4,6.2,5.9c0,3.5-2.8,5.9-6.2,5.9c-3.4,0-6.2-2.4-6.2-5.9
			C38.8,59.7,41.5,57.3,44.9,57.3z M45,66.7c1.8,0,3.3-1.4,3.3-3.5c0-2.1-1.5-3.5-3.3-3.5c-1.8,0-3.3,1.4-3.3,3.5
			C41.6,65.2,43.1,66.7,45,66.7z"/>
		<path fill="#1D1756" d="M53.4,57.5h2.7v1.3c0,0.4,0,0.8,0,0.8h0c0.5-0.9,1.7-2.3,4-2.3c2.5,0,3.9,1.3,3.9,4.3v7.2h-2.8v-6.6
			c0-1.4-0.4-2.3-1.8-2.3c-1.5,0-2.6,0.9-3,2.3c-0.2,0.5-0.2,1-0.2,1.5v5.1h-2.8V57.5z"/>
		<path fill="#1D1756" d="M67.3,59.9h-1.5v-2.2h1.5v-3.2h2.7v3.2h2.6v2.2h-2.6v4.4c0,1.8,1.5,2.1,2.2,2.1c0.3,0,0.5,0,0.5,0v2.4
			c0,0-0.3,0.1-0.9,0.1c-1.6,0-4.7-0.5-4.7-4.2V59.9z"/>
		<path fill="#1D1756" d="M75.2,57.5h2.7v1.9c0,0.4,0,0.8,0,0.8h0c0.5-1.6,1.8-2.9,3.6-2.9c0.3,0,0.5,0,0.5,0v2.8c0,0-0.3,0-0.7,0
			c-1.2,0-2.5,0.7-3.1,2.4c-0.2,0.6-0.2,1.2-0.2,1.8v4.4h-2.8V57.5z"/>
		<path fill="#1D1756" d="M89.1,57.3c3.4,0,6.2,2.4,6.2,5.9c0,3.5-2.8,5.9-6.2,5.9c-3.4,0-6.2-2.4-6.2-5.9
			C83,59.7,85.7,57.3,89.1,57.3z M89.1,66.7c1.8,0,3.3-1.4,3.3-3.5c0-2.1-1.5-3.5-3.3-3.5c-1.8,0-3.3,1.4-3.3,3.5
			C85.8,65.2,87.3,66.7,89.1,66.7z"/>
		<path fill="#1D1756" d="M97.4,53.1h2.8v11.7c0,1.2,0.4,1.5,1.1,1.5c0.2,0,0.4,0,0.4,0v2.4c0,0-0.4,0.1-0.9,0.1
			c-1.5,0-3.5-0.4-3.5-3.6V53.1z"/>
		<path fill="#1D1756" d="M103.6,53.1h2.8v11.7c0,1.2,0.4,1.5,1.1,1.5c0.2,0,0.4,0,0.4,0v2.4c0,0-0.4,0.1-0.9,0.1
			c-1.5,0-3.5-0.4-3.5-3.6V53.1z"/>
		<path fill="#1D1756" d="M114.9,57.3c3.2,0,5,2.4,5,5.3c0,0.3-0.1,1.1-0.1,1.1h-7.7c0.2,2,1.7,3,3.4,3c1.8,0,3.2-1.2,3.2-1.2l1.1,2
			c0,0-1.7,1.6-4.5,1.6c-3.7,0-6-2.7-6-5.9C109.3,59.7,111.6,57.3,114.9,57.3z M117.1,61.8c0-1.5-1-2.3-2.2-2.3
			c-1.4,0-2.4,0.9-2.7,2.3H117.1z"/>
		<path fill="#1D1756" d="M126.5,57.3c2.5,0,3.2,1.4,3.2,1.4h0c0,0,0-0.3,0-0.6v-4.9h2.8v15.6H130v-0.9c0-0.4,0-0.7,0-0.7h0
			c0,0-0.9,1.9-3.5,1.9c-3,0-5-2.4-5-5.9C121.5,59.6,123.6,57.3,126.5,57.3z M127.1,66.7c1.5,0,2.8-1.1,2.8-3.5
			c0-1.7-0.9-3.5-2.8-3.5c-1.5,0-2.8,1.3-2.8,3.5C124.3,65.3,125.4,66.7,127.1,66.7z"/>
		<path fill="#1D1756" d="M146.7,61.7h0.4v-0.2c0-1.5-0.9-2-2.2-2c-1.6,0-3.1,1.1-3.1,1.1l-1.1-2c0,0,1.7-1.4,4.4-1.4
			c2.9,0,4.7,1.6,4.7,4.5v7h-2.6v-0.9c0-0.4,0-0.8,0-0.8h0c0,0-0.9,2-3.4,2c-2,0-3.8-1.3-3.8-3.5C140.1,62,144.9,61.7,146.7,61.7z
			 M144.6,66.9c1.5,0,2.5-1.6,2.5-2.9v-0.3h-0.5c-1.4,0-3.7,0.2-3.7,1.8C142.9,66.1,143.4,66.9,144.6,66.9z"/>
		<path fill="#1D1756" d="M157.1,57.3c2.5,0,3.2,1.4,3.2,1.4h0c0,0,0-0.3,0-0.6v-4.9h2.8v15.6h-2.6v-0.9c0-0.4,0-0.7,0-0.7h0
			c0,0-0.9,1.9-3.5,1.9c-3,0-5-2.4-5-5.9C152,59.6,154.1,57.3,157.1,57.3z M157.6,66.7c1.5,0,2.8-1.1,2.8-3.5c0-1.7-0.9-3.5-2.8-3.5
			c-1.5,0-2.8,1.3-2.8,3.5C154.8,65.3,156,66.7,157.6,66.7z"/>
		<path fill="#1D1756" d="M169,57.5v11.6c0,3.8-3.1,4.2-4.7,4.2c-0.5,0-0.9-0.1-0.9-0.1v-2.4c0,0,0.2,0,0.5,0c0.8,0,2.3-0.2,2.3-2.1
			V57.5H169z M166.2,53.1h2.8v2.5h-2.8V53.1z"/>
		<path fill="#1D1756" d="M171.9,57.5h2.8v6.6c0,1.4,0.4,2.3,1.7,2.3c2,0,3.1-1.8,3.1-3.8v-5.1h2.8v11.2h-2.7v-1.3
			c0-0.4,0-0.8,0-0.8h0c-0.6,1.2-2,2.3-3.9,2.3c-2.4,0-3.9-1.2-3.9-4.3V57.5z"/>
		<path fill="#1D1756" d="M185.5,57.5h2.7v1.3c0,0.4,0,0.8,0,0.8h0c0.5-0.9,1.7-2.3,4-2.3c2.5,0,3.9,1.3,3.9,4.3v7.2h-2.8v-6.6
			c0-1.4-0.4-2.3-1.8-2.3c-1.5,0-2.6,0.9-3,2.3c-0.2,0.5-0.2,1-0.2,1.5v5.1h-2.8V57.5z"/>
		<path fill="#1D1756" d="M204.2,57.3c2.9,0,4.3,1.7,4.3,1.7l-1.2,1.9c0,0-1.2-1.2-2.9-1.2c-2.1,0-3.4,1.6-3.4,3.5
			c0,1.9,1.4,3.5,3.5,3.5c1.9,0,3.3-1.4,3.3-1.4l1.1,2c0,0-1.6,1.8-4.6,1.8c-3.7,0-6.1-2.6-6.1-5.9C198.2,60,200.5,57.3,204.2,57.3z
			"/>
		<path fill="#1D1756" d="M211.4,59.9H210v-2.2h1.5v-3.2h2.7v3.2h2.6v2.2h-2.6v4.4c0,1.8,1.5,2.1,2.2,2.1c0.3,0,0.5,0,0.5,0v2.4
			c0,0-0.3,0.1-0.9,0.1c-1.6,0-4.7-0.5-4.7-4.2V59.9z"/>
		<path fill="#1D1756" d="M219.2,53.1h2.8v2.5h-2.8V53.1z M219.2,57.5h2.8v11.2h-2.8V57.5z"/>
		<path fill="#1D1756" d="M223.6,57.5h2.9l2.3,7c0.2,0.7,0.4,1.7,0.4,1.7h0c0,0,0.2-1,0.4-1.7l2.3-7h2.9l-4,11.2h-3.3L223.6,57.5z"
			/>
		<path fill="#1D1756" d="M241.4,57.3c3.2,0,5,2.4,5,5.3c0,0.3-0.1,1.1-0.1,1.1h-7.7c0.2,2,1.7,3,3.4,3c1.8,0,3.2-1.2,3.2-1.2l1.1,2
			c0,0-1.7,1.6-4.5,1.6c-3.7,0-6-2.7-6-5.9C235.7,59.7,238.1,57.3,241.4,57.3z M243.6,61.8c0-1.5-1-2.3-2.2-2.3
			c-1.4,0-2.4,0.9-2.7,2.3H243.6z"/>
		<path fill="#1D1756" d="M28.8,80.3c3.2,0,5,2.4,5,5.3c0,0.3-0.1,1.1-0.1,1.1h-7.7c0.2,2,1.7,3,3.4,3c1.8,0,3.2-1.2,3.2-1.2l1.1,2
			c0,0-1.7,1.6-4.5,1.6c-3.7,0-6-2.7-6-5.9C23.1,82.7,25.4,80.3,28.8,80.3z M30.9,84.8c0-1.5-1-2.3-2.2-2.3c-1.4,0-2.4,0.9-2.7,2.3
			H30.9z"/>
		<path fill="#1D1756" d="M36.1,80.5h2.6v0.8c0,0.4,0,0.8,0,0.8h0c0,0,1-1.8,3.6-1.8c3,0,5,2.4,5,5.9c0,3.6-2.2,5.9-5.1,5.9
			c-2.2,0-3.2-1.5-3.2-1.5h0c0,0,0,0.4,0,1v4.7h-2.8V80.5z M41.6,89.7c1.5,0,2.8-1.3,2.8-3.5c0-2.1-1.1-3.5-2.8-3.5
			c-1.5,0-2.8,1.1-2.8,3.5C38.8,88,39.7,89.7,41.6,89.7z"/>
		<path fill="#1D1756" d="M49.5,76.1h2.8v2.5h-2.8V76.1z M49.5,80.5h2.8v11.2h-2.8V80.5z"/>
		<path fill="#1D1756" d="M55.2,76.1H58v11.7c0,1.2,0.4,1.5,1.1,1.5c0.2,0,0.4,0,0.4,0v2.4c0,0-0.4,0.1-0.9,0.1
			c-1.5,0-3.5-0.4-3.5-3.6V76.1z"/>
		<path fill="#1D1756" d="M66.5,80.3c3.2,0,5,2.4,5,5.3c0,0.3-0.1,1.1-0.1,1.1h-7.7c0.2,2,1.7,3,3.4,3c1.8,0,3.2-1.2,3.2-1.2l1.1,2
			c0,0-1.7,1.6-4.5,1.6c-3.7,0-6-2.7-6-5.9C60.8,82.7,63.2,80.3,66.5,80.3z M68.7,84.8c0-1.5-1-2.3-2.2-2.3c-1.4,0-2.4,0.9-2.7,2.3
			H68.7z"/>
		<path fill="#1D1756" d="M73.8,80.5h2.6v0.8c0,0.4,0,0.8,0,0.8h0c0,0,1-1.8,3.6-1.8c3,0,5,2.4,5,5.9c0,3.6-2.2,5.9-5.1,5.9
			c-2.2,0-3.2-1.5-3.2-1.5h0c0,0,0,0.4,0,1v4.7h-2.8V80.5z M79.3,89.7c1.5,0,2.8-1.3,2.8-3.5c0-2.1-1.1-3.5-2.8-3.5
			c-1.5,0-2.8,1.1-2.8,3.5C76.5,88,77.5,89.7,79.3,89.7z"/>
		<path fill="#1D1756" d="M87.6,88.4c0,0,1.2,1.2,3.1,1.2c0.8,0,1.5-0.4,1.5-1c0-1.7-5.5-1.5-5.5-5.1c0-2.1,1.9-3.3,4.3-3.3
			c2.5,0,3.8,1.3,3.8,1.3l-1,2.1c0,0-1-1-2.8-1c-0.7,0-1.4,0.3-1.4,1c0,1.6,5.5,1.4,5.5,5c0,1.9-1.6,3.4-4.3,3.4
			c-2.8,0-4.4-1.6-4.4-1.6L87.6,88.4z"/>
		<path fill="#1D1756" d="M96.6,93.6c0,0,0.6,0.5,1.3,0.5c0.8,0,1.5-0.5,1.9-1.5l0.4-1l-4.7-11h3.1L101,87c0.2,0.6,0.4,1.5,0.4,1.5
			h0c0,0,0.2-0.9,0.4-1.5l2.2-6.5h3.1l-5,12.9c-0.8,2-2.4,2.9-4,2.9c-1.3,0-2.3-0.7-2.3-0.7L96.6,93.6z"/>
		<path fill="#1D1756" d="M114.3,88.4c0,0,1.2,1.2,3.1,1.2c0.8,0,1.5-0.4,1.5-1c0-1.7-5.5-1.5-5.5-5.1c0-2.1,1.9-3.3,4.3-3.3
			c2.5,0,3.8,1.3,3.8,1.3l-1,2.1c0,0-1-1-2.8-1c-0.7,0-1.4,0.3-1.4,1c0,1.6,5.5,1.4,5.5,5c0,1.9-1.6,3.4-4.3,3.4
			c-2.8,0-4.4-1.6-4.4-1.6L114.3,88.4z"/>
		<path fill="#1D1756" d="M124.4,82.9H123v-2.2h1.5v-3.2h2.7v3.2h2.6v2.2h-2.6v4.4c0,1.8,1.5,2.1,2.2,2.1c0.3,0,0.5,0,0.5,0v2.4
			c0,0-0.3,0.1-0.9,0.1c-1.6,0-4.7-0.5-4.7-4.2V82.9z"/>
		<path fill="#1D1756" d="M132.1,80.5h2.8v6.6c0,1.4,0.4,2.3,1.7,2.3c2,0,3.1-1.8,3.1-3.8v-5.1h2.8v11.2h-2.7v-1.3
			c0-0.4,0-0.8,0-0.8h0c-0.6,1.2-2,2.3-3.9,2.3c-2.4,0-3.9-1.2-3.9-4.3V80.5z"/>
		<path fill="#1D1756" d="M149.9,80.3c2.5,0,3.2,1.4,3.2,1.4h0c0,0,0-0.3,0-0.6v-4.9h2.8v15.6h-2.6v-0.9c0-0.4,0-0.7,0-0.7h0
			c0,0-0.9,1.9-3.5,1.9c-3,0-5-2.4-5-5.9C144.9,82.6,147,80.3,149.9,80.3z M150.5,89.7c1.5,0,2.8-1.1,2.8-3.5c0-1.7-0.9-3.5-2.8-3.5
			c-1.5,0-2.8,1.3-2.8,3.5C147.7,88.3,148.8,89.7,150.5,89.7z"/>
		<path fill="#1D1756" d="M159.1,76.1h2.8v2.5h-2.8V76.1z M159.1,80.5h2.8v11.2h-2.8V80.5z"/>
		<path fill="#1D1756" d="M169.9,80.3c3.2,0,5,2.4,5,5.3c0,0.3-0.1,1.1-0.1,1.1H167c0.2,2,1.7,3,3.4,3c1.8,0,3.2-1.2,3.2-1.2l1.1,2
			c0,0-1.7,1.6-4.5,1.6c-3.7,0-6-2.7-6-5.9C164.2,82.7,166.5,80.3,169.9,80.3z M172,84.8c0-1.5-1-2.3-2.2-2.3
			c-1.4,0-2.4,0.9-2.7,2.3H172z"/>
		<path fill="#1D1756" d="M177.5,88.4c0,0,1.2,1.2,3.1,1.2c0.8,0,1.5-0.4,1.5-1c0-1.7-5.5-1.5-5.5-5.1c0-2.1,1.9-3.3,4.3-3.3
			c2.5,0,3.8,1.3,3.8,1.3l-1,2.1c0,0-1-1-2.8-1c-0.7,0-1.4,0.3-1.4,1c0,1.6,5.5,1.4,5.5,5c0,1.9-1.6,3.4-4.3,3.4
			c-2.8,0-4.4-1.6-4.4-1.6L177.5,88.4z"/>
	</g>
	<g>
		<path fill="#FFFFFF" d="M421.7,21.5h6c2.9,0,5,2,5,5.1s-2,5.1-5,5.1h-3.2v5.4h-2.8V21.5z M427.2,29.3c1.7,0,2.6-1.1,2.6-2.7
			c0-1.6-1-2.6-2.6-2.6h-2.7v5.3H427.2z"/>
		<path fill="#FFFFFF" d="M434.6,21.5h2.8v11.7c0,1.2,0.4,1.5,1.1,1.5c0.2,0,0.4,0,0.4,0v2.4c0,0-0.4,0.1-0.9,0.1
			c-1.5,0-3.5-0.4-3.5-3.6V21.5z"/>
		<path fill="#FFFFFF" d="M446.7,30.1h0.4v-0.2c0-1.5-0.9-2-2.2-2c-1.6,0-3.1,1.1-3.1,1.1l-1.1-2c0,0,1.7-1.4,4.4-1.4
			c2.9,0,4.7,1.6,4.7,4.5v7h-2.6v-0.9c0-0.4,0-0.8,0-0.8h0c0,0-0.9,2-3.4,2c-2,0-3.8-1.3-3.8-3.5C440.1,30.3,444.9,30.1,446.7,30.1z
			 M444.6,35.2c1.5,0,2.5-1.6,2.5-2.9V32h-0.5c-1.4,0-3.7,0.2-3.7,1.8C442.9,34.5,443.4,35.2,444.6,35.2z"/>
		<path fill="#FFFFFF" d="M458.1,25.6c2.9,0,4.3,1.7,4.3,1.7l-1.2,1.9c0,0-1.2-1.2-2.9-1.2c-2.1,0-3.4,1.6-3.4,3.5
			c0,1.9,1.4,3.5,3.5,3.5c1.9,0,3.3-1.4,3.3-1.4l1.1,2c0,0-1.6,1.8-4.6,1.8c-3.7,0-6.1-2.6-6.1-5.9C452,28.3,454.3,25.6,458.1,25.6z
			"/>
		<path fill="#FFFFFF" d="M469.7,25.6c3.2,0,5,2.4,5,5.3c0,0.3-0.1,1.1-0.1,1.1h-7.7c0.2,2,1.7,3,3.4,3c1.8,0,3.2-1.2,3.2-1.2l1.1,2
			c0,0-1.7,1.6-4.5,1.6c-3.7,0-6-2.7-6-5.9C464,28.1,466.3,25.6,469.7,25.6z M471.8,30.1c0-1.5-1-2.3-2.2-2.3
			c-1.4,0-2.4,0.9-2.7,2.3H471.8z"/>
		<path fill="#FFFFFF" d="M476.9,21.5h2.8v4.8c0,0.6,0,0.9,0,0.9h0c0,0,1-1.6,3.4-1.6c3,0,5,2.4,5,5.9c0,3.6-2.2,5.9-5.1,5.9
			c-2.3,0-3.3-1.7-3.3-1.7h0c0,0,0,0.3,0,0.8v0.6h-2.6V21.5z M482.4,35c1.5,0,2.8-1.3,2.8-3.5c0-2.1-1.1-3.5-2.8-3.5
			c-1.5,0-2.8,1.1-2.8,3.5C479.7,33.3,480.6,35,482.4,35z"/>
		<path fill="#FFFFFF" d="M495.7,25.6c3.4,0,6.2,2.4,6.2,5.9c0,3.5-2.8,5.9-6.2,5.9c-3.4,0-6.2-2.4-6.2-5.9
			C489.6,28.1,492.3,25.6,495.7,25.6z M495.7,35c1.8,0,3.3-1.4,3.3-3.5c0-2.1-1.5-3.5-3.3-3.5c-1.8,0-3.3,1.4-3.3,3.5
			C492.4,33.6,493.9,35,495.7,35z"/>
		<path fill="#FFFFFF" d="M422,52.6c0-3.2,0.9-6.1,2.6-8.8h2.4c-1.6,2.7-2.5,5.7-2.5,8.8c0,3.3,0.8,6.6,2.5,9.6h-2.4
			C423,59.5,422,56.2,422,52.6z"/>
		<path fill="#FFFFFF" d="M428.9,48.9h2.7v1.3c0,0.4,0,0.8,0,0.8h0c0.5-0.9,1.7-2.3,4-2.3c2.5,0,3.9,1.3,3.9,4.3v7.2h-2.8v-6.6
			c0-1.4-0.4-2.3-1.8-2.3c-1.5,0-2.6,0.9-3,2.3c-0.2,0.5-0.2,1-0.2,1.5v5.1h-2.8V48.9z"/>
		<path fill="#FFFFFF" d="M442.7,50.5h10.7v2.2h-10.7V50.5z M442.7,55h10.7v2.2h-10.7V55z"/>
		<path fill="#FFFFFF" d="M455.8,54.4l6.7-9.9h3.4v9.2h2v2.4h-2v4h-2.8v-4h-7.3V54.4z M463.1,53.7v-4.8c0-0.8,0.1-1.6,0.1-1.6h0
			c0,0-0.4,0.8-0.8,1.4l-3.6,5v0H463.1z"/>
		<path fill="#FFFFFF" d="M470,58.7c0-5.6,7.3-6.5,7.3-9.6c0-1.4-1.1-2.2-2.4-2.2c-1.8,0-2.8,1.8-2.8,1.8l-2.1-1.4
			c0,0,1.4-3.1,5.2-3.1c2.8,0,5.1,1.7,5.1,4.6c0,5-7,5.9-7.1,8.8h7.3v2.4h-10.4C470.1,59.6,470,59.2,470,58.7z"/>
		<path fill="#FFFFFF" d="M482.8,53c0-4.1,2.4-8.7,7.2-8.7c2,0,3.2,0.7,3.2,0.7l-0.8,2.4c0,0-1-0.5-2.2-0.5c-2.5,0-3.8,2-4.2,4.2h0
			c0.6-0.6,1.8-1.1,2.9-1.1c3.1,0,5,2.4,5,5.2c0,2.9-2,5.2-5.1,5.2C485.6,60.4,482.8,57.7,482.8,53z M491.2,55.1
			c0-1.6-1-2.9-2.9-2.9c-1.4,0-2.6,0.7-2.6,1.7c0,2,1.4,3.8,3.1,3.8C490.3,57.8,491.2,56.6,491.2,55.1z"/>
		<path fill="#FFFFFF" d="M495.3,62.2c1.6-3,2.5-6.3,2.5-9.6c0-3.1-0.9-6.1-2.5-8.8h2.4c1.7,2.6,2.6,5.6,2.6,8.8c0,3.6-1,7-2.6,9.6
			H495.3z"/>
	</g>
	<g>
		<path fill="#FFFFFF" d="M691.7,33.1h-5.5l-1.3,4h-2.9l5.5-15.6h3l5.5,15.6H693L691.7,33.1z M688.9,24.2c0,0-0.4,1.5-0.7,2.4
			l-1.4,4.2h4.1l-1.4-4.2C689.3,25.7,688.9,24.2,688.9,24.2L688.9,24.2z"/>
		<path fill="#FFFFFF" d="M697.9,21.5h6c2.9,0,5,2,5,5.1s-2,5.1-5,5.1h-3.2v5.4h-2.8V21.5z M703.4,29.3c1.6,0,2.6-1.1,2.6-2.7
			c0-1.6-1-2.6-2.6-2.6h-2.7v5.3H703.4z"/>
		<path fill="#FFFFFF" d="M714.6,23.9h-5.1v-2.4h13.1v2.4h-5.1v13.2h-2.8V23.9z"/>
		<path fill="#FFFFFF" d="M724.7,21.5h2.8v15.6h-2.8V21.5z"/>
		<path fill="#FFFFFF" d="M738.5,21.2c4.6,0,8.1,3.5,8.1,8c0,4.6-3.5,8.2-8.1,8.2s-8.1-3.6-8.1-8.2
			C730.4,24.7,733.9,21.2,738.5,21.2z M738.5,34.8c2.9,0,5.1-2.4,5.1-5.6c0-3.1-2.3-5.4-5.1-5.4s-5.1,2.3-5.1,5.4
			C733.3,32.4,735.6,34.8,738.5,34.8z"/>
		<path fill="#FFFFFF" d="M750.2,21.5h3l3.1,7.7c0.4,0.9,0.8,2.3,0.8,2.3h0c0,0,0.4-1.4,0.8-2.3l3.1-7.7h3l1.3,15.6h-2.8l-0.7-8.7
			c-0.1-1,0-2.4,0-2.4h0c0,0-0.5,1.5-0.8,2.4l-2.5,6.1h-2.5l-2.5-6.1c-0.4-0.9-0.9-2.4-0.9-2.4h0c0,0,0,1.4,0,2.4l-0.7,8.7h-2.8
			L750.2,21.5z"/>
		<path fill="#FFFFFF" d="M775.6,28.6c-0.9-0.7-1.6-1.7-1.6-3.1c0-2.2,1.6-4.3,5-4.3c2.9,0,5.1,1.6,5.1,4.3c0,1.9-1.6,3.7-1.7,3.9
			c1.1,0.7,2,1.7,2,3.3c0,2.4-2,4.6-5.5,4.6c-3.4,0-5.6-2.1-5.6-4.8C773.2,30.4,775.1,28.9,775.6,28.6z M777.6,29.7
			c-0.5,0.4-1.5,1.3-1.5,2.6c0,1.5,1.3,2.5,2.7,2.5c1.5,0,2.6-0.9,2.6-2.3C781.4,31.2,779.5,30.6,777.6,29.7z M780.2,28.4
			c0.2-0.2,1.1-1.3,1.1-2.6c0-1.2-0.9-2-2.3-2c-1.4,0-2.2,0.8-2.2,1.8C776.8,27,778.4,27.6,780.2,28.4z"/>
		<path fill="#FFFFFF" d="M786.8,29.3c0-4.5,1.4-8.1,5.7-8.1s5.7,3.6,5.7,8.1c0,4.5-1.4,8.1-5.7,8.1S786.8,33.8,786.8,29.3z
			 M795.2,29.3c0-3-0.6-5.4-2.8-5.4c-2.1,0-2.8,2.4-2.8,5.4c0,3.1,0.6,5.5,2.8,5.5C794.6,34.8,795.2,32.4,795.2,29.3z"/>
		<path fill="#FFFFFF" d="M800.6,29.3c0-4.5,1.4-8.1,5.7-8.1s5.7,3.6,5.7,8.1c0,4.5-1.4,8.1-5.7,8.1S800.6,33.8,800.6,29.3z
			 M809,29.3c0-3-0.6-5.4-2.8-5.4c-2.1,0-2.8,2.4-2.8,5.4c0,3.1,0.6,5.5,2.8,5.5C808.4,34.8,809,32.4,809,29.3z"/>
		<path fill="#FFFFFF" d="M820.1,25.9h2.7v1.3c0,0.4,0,0.8,0,0.8h0c0.5-1.1,1.9-2.3,3.7-2.3c1.7,0,2.8,0.8,3.3,2.3h0
			c0.6-1.2,2.1-2.3,3.8-2.3c2.3,0,3.7,1.3,3.7,4.3v7.2h-2.8v-6.7c0-1.3-0.2-2.2-1.5-2.2c-1.4,0-2.4,1.1-2.7,2.6
			c-0.1,0.4-0.1,0.9-0.1,1.5v4.9h-2.8v-6.7c0-1.2-0.2-2.2-1.5-2.2c-1.5,0-2.4,1.1-2.8,2.6c-0.1,0.4-0.1,0.9-0.1,1.4v4.9h-2.8V25.9z"
			/>
		<path fill="#FFFFFF" d="M844.4,39.4c1.7,0,3.2-0.7,3.2-2.7V36c0-0.3,0-0.6,0-0.6h0c-0.7,1-1.6,1.5-3.1,1.5c-3.2,0-5-2.6-5-5.7
			s1.7-5.6,5-5.6c2.4,0,3.3,1.4,3.3,1.4h0.1c0,0,0-0.1,0-0.3v-0.9h2.6v10.5c0,3.9-3,5.3-5.9,5.3c-1.4,0-2.9-0.4-4-1l0.8-2.1
			C841.3,38.6,842.7,39.4,844.4,39.4z M847.7,31.2c0-2.6-1.3-3.2-2.8-3.2c-1.7,0-2.6,1.2-2.6,3.1c0,2,1,3.4,2.8,3.4
			C846.4,34.5,847.7,33.8,847.7,31.2z"/>
		<path fill="#FFFFFF" d="M728.9,52.6c0-3.2,0.9-6.1,2.6-8.8h2.4c-1.6,2.7-2.5,5.7-2.5,8.8c0,3.3,0.8,6.6,2.5,9.6h-2.4
			C729.9,59.5,728.9,56.2,728.9,52.6z"/>
		<path fill="#FFFFFF" d="M735.8,48.9h2.7v1.3c0,0.4,0,0.8,0,0.8h0c0.5-0.9,1.7-2.3,4-2.3c2.5,0,3.9,1.3,3.9,4.3v7.2h-2.8v-6.6
			c0-1.4-0.4-2.3-1.8-2.3c-1.5,0-2.6,0.9-3,2.3c-0.2,0.5-0.2,1-0.2,1.5v5.1h-2.8V48.9z"/>
		<path fill="#FFFFFF" d="M749.6,50.5h10.7v2.2h-10.7V50.5z M749.6,55h10.7v2.2h-10.7V55z"/>
		<path fill="#FFFFFF" d="M762.7,54.4l6.7-9.9h3.4v9.2h2v2.4h-2v4H770v-4h-7.3V54.4z M770,53.7v-4.8c0-0.8,0.1-1.6,0.1-1.6h0
			c0,0-0.4,0.8-0.8,1.4l-3.6,5v0H770z"/>
		<path fill="#FFFFFF" d="M777,57.7h3.4V49c0-0.5,0-1.1,0-1.1h0c0,0-0.2,0.4-0.7,0.9l-1.3,1.2l-1.7-1.8l3.9-3.8h2.5v13.2h3.4v2.4
			H777V57.7z"/>
		<path fill="#FFFFFF" d="M789.4,56.1c0,0,1.3,1.6,3.3,1.6c1.5,0,2.9-1,2.9-2.7c0-1.6-1.4-2.7-3.1-2.7c-1.4,0-2.4,0.7-2.4,0.7
			l-1.6-0.6l0.7-7.9h8.2v2.4h-5.8l-0.2,2.6c0,0.4-0.1,0.7-0.1,0.7h0c0,0,0.7-0.4,1.7-0.4c3.5,0,5.5,2.3,5.5,5.1
			c0,3.1-2.4,5.4-5.6,5.4c-3.3,0-5-2.1-5-2.1L789.4,56.1z"/>
		<path fill="#FFFFFF" d="M800,62.2c1.6-3,2.5-6.3,2.5-9.6c0-3.1-0.9-6.1-2.5-8.8h2.4c1.7,2.6,2.6,5.6,2.6,8.8c0,3.6-1,7-2.6,9.6
			H800z"/>
	</g>
	<g>
		<path fill="#FFFFFF" d="M993.6,33.1h-5.5l-1.3,4h-2.9l5.5-15.6h3l5.5,15.6h-2.9L993.6,33.1z M990.8,24.2c0,0-0.4,1.5-0.7,2.4
			l-1.4,4.2h4.1l-1.4-4.2C991.2,25.7,990.9,24.2,990.8,24.2L990.8,24.2z"/>
		<path fill="#FFFFFF" d="M999.8,21.5h6c2.9,0,5,2,5,5.1s-2,5.1-5,5.1h-3.2v5.4h-2.8V21.5z M1005.3,29.3c1.6,0,2.6-1.1,2.6-2.7
			c0-1.6-1-2.6-2.6-2.6h-2.7v5.3H1005.3z"/>
		<path fill="#FFFFFF" d="M1016.6,23.9h-5.1v-2.4h13.1v2.4h-5.1v13.2h-2.8V23.9z"/>
		<path fill="#FFFFFF" d="M1026.6,21.5h2.8v15.6h-2.8V21.5z"/>
		<path fill="#FFFFFF" d="M1040.4,21.2c4.6,0,8.1,3.5,8.1,8c0,4.6-3.5,8.2-8.1,8.2s-8.1-3.6-8.1-8.2
			C1032.3,24.7,1035.8,21.2,1040.4,21.2z M1040.4,34.8c2.9,0,5.1-2.4,5.1-5.6c0-3.1-2.3-5.4-5.1-5.4s-5.1,2.3-5.1,5.4
			C1035.2,32.4,1037.5,34.8,1040.4,34.8z"/>
		<path fill="#FFFFFF" d="M1052.1,21.5h3l3.1,7.7c0.4,0.9,0.8,2.3,0.8,2.3h0c0,0,0.4-1.4,0.8-2.3l3.1-7.7h3l1.3,15.6h-2.8l-0.7-8.7
			c-0.1-1,0-2.4,0-2.4h0c0,0-0.5,1.5-0.8,2.4l-2.5,6.1h-2.5l-2.5-6.1c-0.4-0.9-0.9-2.4-0.9-2.4h0c0,0,0,1.4,0,2.4l-0.7,8.7h-2.8
			L1052.1,21.5z"/>
		<path fill="#FFFFFF" d="M1075.2,34.7h3.4V26c0-0.5,0-1.1,0-1.1h0c0,0-0.2,0.4-0.7,0.9l-1.3,1.2l-1.7-1.8l3.9-3.8h2.5v13.2h3.4v2.4
			h-9.5V34.7z"/>
		<path fill="#FFFFFF" d="M1086.4,35.7c0-5.6,7.3-6.5,7.3-9.6c0-1.4-1.1-2.2-2.4-2.2c-1.8,0-2.8,1.8-2.8,1.8l-2.1-1.4
			c0,0,1.4-3.1,5.2-3.1c2.8,0,5.1,1.7,5.1,4.6c0,5-7,5.9-7.1,8.8h7.3v2.4h-10.4C1086.5,36.6,1086.4,36.2,1086.4,35.7z"/>
		<path fill="#FFFFFF" d="M1099.3,29.3c0-4.5,1.4-8.1,5.7-8.1s5.7,3.6,5.7,8.1c0,4.5-1.4,8.1-5.7,8.1S1099.3,33.8,1099.3,29.3z
			 M1107.7,29.3c0-3-0.6-5.4-2.8-5.4c-2.1,0-2.8,2.4-2.8,5.4c0,3.1,0.6,5.5,2.8,5.5C1107.1,34.8,1107.7,32.4,1107.7,29.3z"/>
		<path fill="#FFFFFF" d="M1113.1,29.3c0-4.5,1.4-8.1,5.7-8.1s5.7,3.6,5.7,8.1c0,4.5-1.4,8.1-5.7,8.1S1113.1,33.8,1113.1,29.3z
			 M1121.6,29.3c0-3-0.6-5.4-2.8-5.4c-2.1,0-2.8,2.4-2.8,5.4c0,3.1,0.6,5.5,2.8,5.5C1120.9,34.8,1121.6,32.4,1121.6,29.3z"/>
		<path fill="#FFFFFF" d="M1132.6,25.9h2.7v1.3c0,0.4,0,0.8,0,0.8h0c0.5-1.1,1.9-2.3,3.7-2.3c1.7,0,2.8,0.8,3.3,2.3h0
			c0.6-1.2,2.1-2.3,3.8-2.3c2.3,0,3.7,1.3,3.7,4.3v7.2h-2.8v-6.7c0-1.3-0.2-2.2-1.5-2.2c-1.4,0-2.4,1.1-2.7,2.6
			c-0.1,0.4-0.1,0.9-0.1,1.5v4.9h-2.8v-6.7c0-1.2-0.2-2.2-1.5-2.2c-1.5,0-2.4,1.1-2.8,2.6c-0.1,0.4-0.1,0.9-0.1,1.4v4.9h-2.8V25.9z"
			/>
		<path fill="#FFFFFF" d="M1157,39.4c1.7,0,3.2-0.7,3.2-2.7V36c0-0.3,0-0.6,0-0.6h0c-0.7,1-1.6,1.5-3.1,1.5c-3.2,0-5-2.6-5-5.7
			s1.7-5.6,5-5.6c2.4,0,3.3,1.4,3.3,1.4h0.1c0,0,0-0.1,0-0.3v-0.9h2.6v10.5c0,3.9-3,5.3-5.9,5.3c-1.4,0-2.9-0.4-4-1l0.8-2.1
			C1153.8,38.6,1155.3,39.4,1157,39.4z M1160.2,31.2c0-2.6-1.3-3.2-2.8-3.2c-1.7,0-2.6,1.2-2.6,3.1c0,2,1,3.4,2.8,3.4
			C1158.9,34.5,1160.2,33.8,1160.2,31.2z"/>
		<path fill="#FFFFFF" d="M1035.5,52.6c0-3.2,0.9-6.1,2.6-8.8h2.4c-1.6,2.7-2.5,5.7-2.5,8.8c0,3.3,0.8,6.6,2.5,9.6h-2.4
			C1036.4,59.5,1035.5,56.2,1035.5,52.6z"/>
		<path fill="#FFFFFF" d="M1042.4,48.9h2.7v1.3c0,0.4,0,0.8,0,0.8h0c0.5-0.9,1.7-2.3,4-2.3c2.5,0,3.9,1.3,3.9,4.3v7.2h-2.8v-6.6
			c0-1.4-0.4-2.3-1.8-2.3c-1.5,0-2.6,0.9-3,2.3c-0.2,0.5-0.2,1-0.2,1.5v5.1h-2.8V48.9z"/>
		<path fill="#FFFFFF" d="M1056.1,50.5h10.7v2.2h-10.7V50.5z M1056.1,55h10.7v2.2h-10.7V55z"/>
		<path fill="#FFFFFF" d="M1069.3,54.4l6.7-9.9h3.4v9.2h2v2.4h-2v4h-2.8v-4h-7.3V54.4z M1076.6,53.7v-4.8c0-0.8,0.1-1.6,0.1-1.6h0
			c0,0-0.4,0.8-0.8,1.4l-3.6,5v0H1076.6z"/>
		<path fill="#FFFFFF" d="M1083.5,57.7h3.4V49c0-0.5,0-1.1,0-1.1h0c0,0-0.2,0.4-0.7,0.9L1085,50l-1.7-1.8l3.9-3.8h2.5v13.2h3.4v2.4
			h-9.5V57.7z"/>
		<path fill="#FFFFFF" d="M1094.9,52.3c0-4.5,1.4-8.1,5.7-8.1s5.7,3.6,5.7,8.1c0,4.5-1.4,8.1-5.7,8.1S1094.9,56.8,1094.9,52.3z
			 M1103.3,52.3c0-3-0.6-5.4-2.8-5.4c-2.1,0-2.8,2.4-2.8,5.4c0,3.1,0.6,5.5,2.8,5.5C1102.6,57.8,1103.3,55.4,1103.3,52.3z"/>
		<path fill="#FFFFFF" d="M1107.9,62.2c1.6-3,2.5-6.3,2.5-9.6c0-3.1-0.9-6.1-2.5-8.8h2.4c1.7,2.6,2.6,5.6,2.6,8.8c0,3.6-1,7-2.6,9.6
			H1107.9z"/>
	</g>
	<g>
		<path fill="#6D6E70" d="M448.6,116.2c0-4.4,1.3-8,5.3-8c4,0,5.3,3.5,5.3,8c0,4.5-1.3,8-5.3,8C449.9,124.2,448.6,120.6,448.6,116.2
			z M457.7,116.2c0-3.7-0.8-6.6-3.7-6.6c-2.9,0-3.8,2.9-3.8,6.6c0,3.7,0.8,6.6,3.8,6.6C456.8,122.7,457.7,119.9,457.7,116.2z"/>
		<path fill="#6D6E70" d="M461.8,111.2c0-1.7,1.4-3.1,3.1-3.1s3.1,1.4,3.1,3.1c0,1.7-1.4,3.1-3.1,3.1S461.8,112.9,461.8,111.2z
			 M473.7,108.4h1.6l-11.8,15.5h-1.6L473.7,108.4z M466.7,111.2c0-1-0.8-1.8-1.8-1.8s-1.8,0.8-1.8,1.8c0,1,0.8,1.8,1.8,1.8
			S466.7,112.2,466.7,111.2z M472.3,118c1.7,0,3.1,1.4,3.1,3.1c0,1.7-1.4,3-3.1,3s-3.1-1.4-3.1-3C469.3,119.4,470.6,118,472.3,118z
			 M472.3,122.9c1,0,1.8-0.8,1.8-1.8c0-1-0.8-1.8-1.8-1.8s-1.8,0.8-1.8,1.8C470.6,122.1,471.3,122.9,472.3,122.9z"/>
	</g>
	<g>
		<path fill="#6D6E70" d="M746.5,122.5h3.5v-11.4c0-0.4,0-0.9,0-0.9h0c0,0-0.2,0.3-0.8,0.9l-1.7,1.6l-1-1l3.5-3.5h1.4v14.1h3.4v1.4
			h-8.4V122.5z"/>
		<path fill="#6D6E70" d="M757.8,122.1h1.7v1.8h-1.7V122.1z"/>
		<path fill="#6D6E70" d="M762.7,116.2c0-4.4,1.3-8,5.3-8c4,0,5.3,3.5,5.3,8c0,4.5-1.3,8-5.3,8C764.1,124.2,762.7,120.6,762.7,116.2
			z M771.8,116.2c0-3.7-0.8-6.6-3.7-6.6c-2.9,0-3.8,2.9-3.8,6.6c0,3.7,0.8,6.6,3.8,6.6C771,122.7,771.8,119.9,771.8,116.2z"/>
		<path fill="#6D6E70" d="M775.8,111.2c0-1.7,1.4-3.1,3.1-3.1c1.7,0,3.1,1.4,3.1,3.1c0,1.7-1.4,3.1-3.1,3.1
			C777.2,114.3,775.8,112.9,775.8,111.2z M787.8,108.4h1.6l-11.8,15.5H776L787.8,108.4z M780.7,111.2c0-1-0.8-1.8-1.8-1.8
			c-1,0-1.8,0.8-1.8,1.8c0,1,0.8,1.8,1.8,1.8C779.9,113.1,780.7,112.2,780.7,111.2z M786.4,118c1.7,0,3.1,1.4,3.1,3.1
			c0,1.7-1.4,3-3.1,3c-1.7,0-3.1-1.4-3.1-3C783.3,119.4,784.6,118,786.4,118z M786.4,122.9c1,0,1.8-0.8,1.8-1.8c0-1-0.8-1.8-1.8-1.8
			c-1,0-1.8,0.8-1.8,1.8C784.6,122.1,785.3,122.9,786.4,122.9z"/>
	</g>
	<g>
		<path fill="#6D6E70" d="M1054.7,122.5h3.5v-11.4c0-0.4,0-0.9,0-0.9h0c0,0-0.2,0.3-0.8,0.9l-1.7,1.6l-1-1l3.5-3.5h1.4v14.1h3.4v1.4
			h-8.4V122.5z"/>
		<path fill="#6D6E70" d="M1065.3,122.1h1.7v1.8h-1.7V122.1z"/>
		<path fill="#6D6E70" d="M1070.9,120.9c0,0,1.1,1.8,3.5,1.8c2.1,0,3.9-1.5,3.9-3.6s-1.7-3.6-3.9-3.6c-1.7,0-2.8,0.8-2.8,0.8l-1-0.4
			l0.8-7.5h7.5v1.4h-6.2l-0.4,4c-0.1,0.5-0.2,0.9-0.2,0.9h0c0,0,1-0.6,2.4-0.6c3.1,0,5.3,2.2,5.3,5c0,2.9-2.4,5.1-5.4,5.1
			c-3.1,0-4.5-2.2-4.5-2.2L1070.9,120.9z"/>
		<path fill="#6D6E70" d="M1082,111.2c0-1.7,1.4-3.1,3.1-3.1c1.7,0,3.1,1.4,3.1,3.1c0,1.7-1.4,3.1-3.1,3.1
			C1083.4,114.3,1082,112.9,1082,111.2z M1093.9,108.4h1.6l-11.8,15.5h-1.6L1093.9,108.4z M1086.9,111.2c0-1-0.8-1.8-1.8-1.8
			c-1,0-1.8,0.8-1.8,1.8c0,1,0.8,1.8,1.8,1.8C1086.1,113.1,1086.9,112.2,1086.9,111.2z M1092.5,118c1.7,0,3.1,1.4,3.1,3.1
			c0,1.7-1.4,3-3.1,3c-1.7,0-3.1-1.4-3.1-3C1089.4,119.4,1090.8,118,1092.5,118z M1092.5,122.9c1,0,1.8-0.8,1.8-1.8
			c0-1-0.8-1.8-1.8-1.8c-1,0-1.8,0.8-1.8,1.8C1090.8,122.1,1091.5,122.9,1092.5,122.9z"/>
	</g>
	<line fill="none" stroke="#D0D2D3" stroke-miterlimit="10" x1="0" y1="146.1" x2="1228" y2="146.1"/>
	<line fill="none" stroke="#D0D2D3" stroke-miterlimit="10" x1="613.2" y1="82.7" x2="613.2" y2="146.4"/>
	<line fill="none" stroke="#D0D2D3" stroke-miterlimit="10" x1="920.5" y1="82.7" x2="920.5" y2="146.4"/>
	<line fill="none" stroke="#FFFFFF" stroke-miterlimit="10" x1="613.2" y1="0.1" x2="613.2" y2="82.8"/>
	<line fill="none" stroke="#FFFFFF" stroke-miterlimit="10" x1="920.5" y1="0" x2="920.5" y2="82.8"/>
</g>
</svg>
