<?xml version="1.0" encoding="utf-8"?>
<!-- Generator: Adobe Illustrator 18.1.1, SVG Export Plug-In . SVG Version: 6.00 Build 0)  -->
<svg version="1.1" id="Layer_1" xmlns="http://www.w3.org/2000/svg" xmlns:xlink="http://www.w3.org/1999/xlink" x="0px" y="0px"
	 viewBox="0 0 65.7 80.3" enable-background="new 0 0 65.7 80.3" xml:space="preserve">
<g>
	<g>
		<path fill="#6D6F71" d="M4.3,76.1h-2V63L0,64.6v-1.9c0.5-0.2,2-1.3,2.6-1.8h1.7V76.1z"/>
		<path fill="#6D6F71" d="M7.3,76.1v-1.8c4.5-6.2,5.8-7.4,5.8-10c0-1.2-0.6-2-1.9-2c-1.5,0-1.8,1.3-1.8,2.5H7.4
			c-0.2-2.5,1.1-4.2,3.7-4.2c2.8,0,4.1,1.3,4.1,4c0,3.4-1.7,4.6-5.7,9.7h6.1v1.8H7.3z"/>
		<path fill="#6D6F71" d="M25.2,68.5c0,4,0,7.9-4.1,7.9s-4.1-3.9-4.1-7.9c0-4.1-0.1-7.9,4.1-7.9S25.2,64.4,25.2,68.5z M19,68.9
			c0,2.6-0.2,5.8,2.1,5.8s2.1-3.2,2.1-5.8c0-4.1,0-6.6-2.1-6.6S19,64.8,19,68.9z"/>
		<path fill="#6D6F71" d="M34.9,68.5c0,4,0,7.9-4.1,7.9s-4.1-3.9-4.1-7.9c0-4.1-0.1-7.9,4.1-7.9S34.9,64.4,34.9,68.5z M28.7,68.9
			c0,2.6-0.2,5.8,2.1,5.8s2.1-3.2,2.1-5.8c0-4.1,0-6.6-2.1-6.6S28.7,64.8,28.7,68.9z"/>
		<path fill="#6D6F71" d="M47.6,76.1v-7.7c0-1.1-0.3-2.2-1.8-2.2c-0.6,0-1.3,0.3-1.6,0.7c-0.3,0.5-0.4,1.2-0.4,1.6v7.5h-1.8v-8.8
			c0-0.8,0-1.5-0.1-2.3h1.9v1.4h0c0.5-1.2,1.5-1.6,2.8-1.6c1,0,2.2,0.4,2.6,1.4c0.6-1.2,1.6-1.4,2.6-1.4c1.2,0,3,0.3,3,2.9v8.4h-1.8
			v-7.7c0-1.1-0.3-2.2-1.8-2.2c-0.7,0-0.9,0-1.4,0.4c-0.5,0.4-0.6,1.5-0.6,2v7.5H47.6z"/>
		<path fill="#6D6F71" d="M63.9,65h1.8v12.2c0,2.5-1.7,3.1-4.1,3.1c-1.8,0-3.5-0.9-3.4-3h2c0,1,0.7,1.6,1.7,1.6
			c1.3,0,1.9-0.8,1.9-1.9v-2.3h-0.1c-0.5,0.9-1.5,1.4-2.4,1.4c-3,0-3.6-2.6-3.6-5.9c0-5.1,2.6-5.4,3.5-5.4c1.2,0,2.1,0.5,2.6,1.6h0
			V65z M61.8,66.2c-2,0-2.1,2.5-2.1,3.9c0,3.6,0.8,4.4,2.2,4.4c2.2,0,2.1-2.6,2.1-4.1C64,68.8,64.1,66.2,61.8,66.2z"/>
	</g>
</g>
<g>
	<g>
		<path fill="#6D6F71" d="M4.3,15.5h-2v-13L0,4V2.1c0.5-0.2,2-1.3,2.6-1.8h1.7V15.5z"/>
		<path fill="#6D6F71" d="M7.2,7.9C7.2,3.8,7.1,0,11.3,0c2.3,0,3.9,1.4,3.8,3.7h-2c0-1.1-0.6-2.2-1.8-2.2C9.6,1.5,9.2,2.9,9.2,7h0
			c0.5-0.9,1.4-1.4,2.5-1.4c2,0,3.6,1.1,3.6,5.1c0,2.7-1.1,5.1-4.1,5.1C7.2,15.8,7.2,11.9,7.2,7.9z M11.4,14.1
			c1.7,0,1.9-1.8,1.9-3.8c0-1.4-0.3-3.1-2.1-3.1c-1.8,0-2,1.9-2,3.3C9.3,12.1,9.5,14.1,11.4,14.1z"/>
		<path fill="#6D6F71" d="M25.2,7.9c0,4,0,7.9-4.1,7.9s-4.1-3.9-4.1-7.9c0-4.1-0.1-7.9,4.1-7.9S25.2,3.8,25.2,7.9z M19,8.3
			c0,2.6-0.2,5.8,2.1,5.8s2.1-3.2,2.1-5.8c0-4.1,0-6.6-2.1-6.6S19,4.2,19,8.3z"/>
		<path fill="#6D6F71" d="M34.9,7.9c0,4,0,7.9-4.1,7.9s-4.1-3.9-4.1-7.9c0-4.1-0.1-7.9,4.1-7.9S34.9,3.8,34.9,7.9z M28.7,8.3
			c0,2.6-0.2,5.8,2.1,5.8s2.1-3.2,2.1-5.8c0-4.1,0-6.6-2.1-6.6S28.7,4.2,28.7,8.3z"/>
		<path fill="#6D6F71" d="M47.6,15.5V7.8c0-1.1-0.3-2.2-1.8-2.2c-0.6,0-1.3,0.3-1.6,0.7C44,7,43.9,7.6,43.9,8v7.5h-1.8V6.7
			c0-0.8,0-1.5-0.1-2.3h1.9v1.4h0c0.5-1.2,1.5-1.6,2.8-1.6c1,0,2.2,0.4,2.6,1.4c0.6-1.2,1.6-1.4,2.6-1.4c1.2,0,3,0.3,3,2.9v8.4h-1.8
			V7.8c0-1.1-0.3-2.2-1.8-2.2c-0.7,0-0.9,0-1.4,0.4c-0.5,0.4-0.6,1.5-0.6,2v7.5H47.6z"/>
		<path fill="#6D6F71" d="M63.9,4.4h1.8v12.2c0,2.5-1.7,3.1-4.1,3.1c-1.8,0-3.5-0.9-3.4-3h2c0,1,0.7,1.6,1.7,1.6
			c1.3,0,1.9-0.8,1.9-1.9v-2.3h-0.1c-0.5,0.9-1.5,1.4-2.4,1.4c-3,0-3.6-2.6-3.6-5.9c0-5.1,2.6-5.4,3.5-5.4c1.2,0,2.1,0.5,2.6,1.6h0
			V4.4z M61.8,5.7c-2,0-2.1,2.5-2.1,3.9c0,3.6,0.8,4.4,2.2,4.4C64,14,64,11.4,64,9.9C64,8.3,64.1,5.7,61.8,5.7z"/>
	</g>
</g>
</svg>
