<?xml version="1.0" encoding="utf-8"?>
<!-- Generator: Adobe Illustrator 18.1.1, SVG Export Plug-In . SVG Version: 6.00 Build 0)  -->
<svg version="1.1" id="Layer_1" xmlns="http://www.w3.org/2000/svg" xmlns:xlink="http://www.w3.org/1999/xlink" x="0px" y="0px"
	 viewBox="0 0 1404.2 598.7" enable-background="new 0 0 1404.2 598.7" xml:space="preserve">
<g>
	<g>
		<rect x="1253.8" y="519.2" fill="#A6A8AB" width="19" height="19"/>
		<rect x="1272.8" y="473.4" fill="#FDDEBB" width="19" height="64.7"/>
		<rect x="1291.7" y="473.3" fill="#FBC88E" width="19" height="64.9"/>
		<polygon fill="#F9AD56" points="1329.7,538.2 1310.7,538.2 1310.7,514.4 1329.6,514.4 		"/>
		<rect x="1329.7" y="514.2" fill="#F7921E" width="19" height="24"/>
		<rect x="1348.6" y="411.5" fill="#80BEDA" width="19" height="126.7"/>
		<rect x="1367.6" y="469.6" fill="#007DB4" width="19" height="68.5"/>
	</g>
	<g>
		<rect x="1088.1" y="513.2" fill="#A6A8AB" width="19" height="25"/>
		<rect x="1107.1" y="457.6" fill="#FDDEBB" width="19" height="80.6"/>
		<rect x="1126" y="452.1" fill="#FBC88E" width="19" height="86.1"/>
		<rect x="1145" y="447.4" fill="#F9AD56" width="19" height="90.8"/>
		<rect x="1164" y="386.6" fill="#F7921E" width="19" height="151.6"/>
		<rect x="1182.9" y="334.9" fill="#80BEDA" width="19" height="203.3"/>
		<rect x="1201.9" y="398.5" fill="#007DB4" width="19" height="139.7"/>
	</g>
	<g>
		<rect x="922.4" y="508.2" fill="#A6A8AB" width="19" height="30"/>
		<rect x="941.4" y="482.1" fill="#FDDEBB" width="19" height="56.1"/>
		<rect x="960.3" y="487" fill="#FBC88E" width="19" height="51.2"/>
		<rect x="979.3" y="498.5" fill="#F9AD56" width="19" height="39.7"/>
		<rect x="998.3" y="477.4" fill="#F7921E" width="19" height="60.8"/>
		<rect x="1017.2" y="370.4" fill="#80BEDA" width="19" height="167.8"/>
		<rect x="1036.2" y="388.3" fill="#007DB4" width="19" height="149.9"/>
	</g>
	<g>
		<rect x="756.7" y="473" fill="#A6A8AB" width="19" height="65.2"/>
		<rect x="775.7" y="428" fill="#FDDEBB" width="19" height="110.2"/>
		<rect x="794.6" y="427.3" fill="#FBC88E" width="19" height="110.9"/>
		<rect x="813.6" y="447.8" fill="#F9AD56" width="19" height="90.4"/>
		<rect x="832.6" y="439.4" fill="#F7921E" width="19" height="98.8"/>
		<rect x="851.5" y="360.5" fill="#80BEDA" width="19" height="177.7"/>
		<rect x="870.5" y="303.4" fill="#007DB4" width="19" height="234.8"/>
	</g>
	<g>
		<rect x="591" y="514.1" fill="#A6A8AB" width="19" height="24.1"/>
		<rect x="610" y="494.7" fill="#FDDEBB" width="19" height="43.4"/>
		<rect x="628.9" y="516.4" fill="#FBC88E" width="19" height="21.8"/>
		<rect x="647.9" y="527.1" fill="#F9AD56" width="19" height="10.9"/>
		<rect x="666.9" y="514.2" fill="#F7921E" width="19" height="24"/>
		<rect x="685.8" y="370.8" fill="#80BEDA" width="19" height="167.4"/>
		<rect x="704.8" y="442.5" fill="#007DB4" width="19" height="95.7"/>
	</g>
	<g>
		<rect x="425.3" y="419.6" fill="#A6A8AB" width="19" height="118.6"/>
		<rect x="444.3" y="388.9" fill="#FDDEBB" width="19" height="149.3"/>
		<rect x="463.2" y="396.4" fill="#FBC88E" width="19" height="141.8"/>
		<rect x="482.2" y="406.1" fill="#F9AD56" width="19" height="132.1"/>
		<rect x="501.2" y="400.9" fill="#F7921E" width="19" height="137.3"/>
		<rect x="520.1" y="309" fill="#80BEDA" width="19" height="229.2"/>
		<rect x="539.1" y="328.9" fill="#007DB4" width="19" height="209.2"/>
	</g>
	<g>
		<rect x="259.6" y="429.2" fill="#A6A8AB" width="19" height="109"/>
		<rect x="278.6" y="368.4" fill="#FDDEBB" width="19" height="169.8"/>
		<rect x="297.6" y="437.3" fill="#FBC88E" width="19" height="100.9"/>
		<rect x="316.5" y="406.1" fill="#F9AD56" width="19" height="132.1"/>
		<rect x="335.5" y="413.9" fill="#F7921E" width="19" height="124.3"/>
		<rect x="354.4" y="295.7" fill="#80BEDA" width="19" height="242.4"/>
		<rect x="373.4" y="270.2" fill="#007DB4" width="19" height="268"/>
	</g>
	<g>
		<rect x="93.9" y="418.8" fill="#A6A8AB" width="19" height="119.4"/>
		<rect x="112.9" y="334.1" fill="#FDDEBB" width="19" height="204.1"/>
		<rect x="131.9" y="329.4" fill="#FBC88E" width="19" height="208.8"/>
		<rect x="150.8" y="313.5" fill="#F9AD56" width="19" height="224.7"/>
		<rect x="169.8" y="362.4" fill="#F7921E" width="19" height="175.8"/>
		<rect x="188.7" y="154.5" fill="#80BEDA" width="19" height="383.7"/>
		<rect x="207.7" y="108.6" fill="#007DB4" width="19" height="429.6"/>
	</g>
	<polyline fill="none" stroke="#231F20" stroke-width="1.5234" stroke-miterlimit="10" points="76.2,83.8 76.2,537.7 76.2,538.2 
		1404.2,538.2 	"/>
	<g>
		<path fill="#4D4D4D" d="M36.2,89.8c0,0,1.5,1.7,3.8,1.7c1.7,0,3.2-1.2,3.2-2.8c0-1.9-1.7-2.9-3.6-2.9h-1.1l-0.5-1.2l3.4-4
			c0.5-0.6,1-1,1-1v0c0,0-0.5,0.1-1.3,0.1h-5.3v-1.9H45v1.4l-4.2,4.9c2,0.2,4.6,1.5,4.6,4.6c0,2.7-2.1,5-5.3,5c-3.2,0-5-2.1-5-2.1
			L36.2,89.8z"/>
		<path fill="#4D4D4D" d="M48.6,89.9c0,0,1.2,1.7,3.4,1.7c1.8,0,3.4-1.3,3.4-3.1c0-1.9-1.5-3.2-3.5-3.2c-1.5,0-2.6,0.8-2.6,0.8
			L48,85.5l0.8-7.7h7.8v1.9h-5.9L50.3,83c0,0.5-0.1,0.8-0.1,0.8h0c0,0,0.9-0.5,2-0.5c3.3,0,5.4,2.3,5.4,5.1c0,3-2.4,5.2-5.5,5.2
			c-3.2,0-4.8-2.2-4.8-2.2L48.6,89.9z"/>
	</g>
	<g>
		<path fill="#4D4D4D" d="M35.2,222c0-5.5,7.6-6.3,7.6-10c0-1.5-1.2-2.6-2.8-2.6c-2,0-3.1,2-3.1,2l-1.6-1.1c0,0,1.4-2.9,4.9-2.9
			c2.9,0,4.9,1.8,4.9,4.5c0,5.1-7.4,5.9-7.5,9.4h7.7v1.9h-10C35.3,222.7,35.2,222.3,35.2,222z"/>
		<path fill="#4D4D4D" d="M48.6,219.7c0,0,1.2,1.7,3.4,1.7c1.8,0,3.4-1.3,3.4-3.1c0-1.9-1.5-3.2-3.5-3.2c-1.5,0-2.6,0.8-2.6,0.8
			l-1.3-0.5l0.8-7.7h7.8v1.9h-5.9l-0.4,3.3c0,0.5-0.1,0.8-0.1,0.8h0c0,0,0.9-0.5,2-0.5c3.3,0,5.4,2.3,5.4,5.1c0,3-2.4,5.2-5.5,5.2
			c-3.2,0-4.8-2.2-4.8-2.2L48.6,219.7z"/>
	</g>
	<g>
		<path fill="#4D4D4D" d="M34.8,154.8c0,0,1.5,1.7,3.8,1.7c1.7,0,3.2-1.2,3.2-2.8c0-1.9-1.7-2.9-3.6-2.9h-1.1l-0.5-1.2l3.4-4
			c0.5-0.6,1-1,1-1v0c0,0-0.5,0.1-1.3,0.1h-5.3v-1.9h9.3v1.4l-4.2,4.9c2,0.2,4.6,1.5,4.6,4.6c0,2.7-2.1,5-5.3,5c-3.2,0-5-2.1-5-2.1
			L34.8,154.8z"/>
		<path fill="#4D4D4D" d="M46.4,150.5c0-4.5,1.3-8,5.5-8c4.2,0,5.5,3.5,5.5,8c0,4.5-1.3,8.1-5.5,8.1C47.7,158.5,46.4,155,46.4,150.5
			z M55.1,150.5c0-3.4-0.7-6-3.3-6c-2.5,0-3.3,2.6-3.3,6c0,3.4,0.7,6.1,3.3,6.1C54.4,156.5,55.1,153.9,55.1,150.5z"/>
	</g>
	<g>
		<path fill="#4D4D4D" d="M33.8,286.9c0-5.5,7.6-6.3,7.6-10c0-1.5-1.2-2.6-2.8-2.6c-2,0-3.1,2-3.1,2l-1.6-1.1c0,0,1.4-2.9,4.9-2.9
			c2.9,0,4.9,1.8,4.9,4.5c0,5.1-7.4,5.9-7.5,9.4H44v1.9H34C33.9,287.7,33.8,287.3,33.8,286.9z"/>
		<path fill="#4D4D4D" d="M46.4,280.3c0-4.5,1.3-8,5.5-8c4.2,0,5.5,3.5,5.5,8c0,4.5-1.3,8.1-5.5,8.1
			C47.7,288.3,46.4,284.8,46.4,280.3z M55.1,280.3c0-3.4-0.7-6-3.3-6c-2.5,0-3.3,2.6-3.3,6c0,3.4,0.7,6.1,3.3,6.1
			C54.4,286.3,55.1,283.7,55.1,280.3z"/>
	</g>
	<g>
		<path fill="#4D4D4D" d="M37.1,351.1h3.4v-10c0-0.5,0-1,0-1h0c0,0-0.2,0.4-0.7,0.9l-1.5,1.4l-1.3-1.4l3.7-3.6h1.9v13.6H46v1.9h-8.9
			V351.1z"/>
		<path fill="#4D4D4D" d="M48.6,349.5c0,0,1.2,1.7,3.4,1.7c1.8,0,3.4-1.3,3.4-3.1c0-1.9-1.5-3.2-3.5-3.2c-1.5,0-2.6,0.8-2.6,0.8
			l-1.3-0.5l0.8-7.7h7.8v1.9h-5.9l-0.4,3.3c0,0.5-0.1,0.8-0.1,0.8h0c0,0,0.9-0.5,2-0.5c3.3,0,5.4,2.3,5.4,5.1c0,3-2.4,5.2-5.5,5.2
			c-3.2,0-4.8-2.2-4.8-2.2L48.6,349.5z"/>
	</g>
	<g>
		<path fill="#4D4D4D" d="M35.7,416h3.4v-10c0-0.5,0-1,0-1h0c0,0-0.2,0.4-0.7,0.9l-1.5,1.4l-1.3-1.4l3.7-3.6h1.9V416h3.4v1.9h-8.9
			V416z"/>
		<path fill="#4D4D4D" d="M46.4,410.1c0-4.5,1.3-8,5.5-8c4.2,0,5.5,3.5,5.5,8c0,4.5-1.3,8.1-5.5,8.1
			C47.7,418.1,46.4,414.6,46.4,410.1z M55.1,410.1c0-3.4-0.7-6-3.3-6c-2.5,0-3.3,2.6-3.3,6c0,3.4,0.7,6.1,3.3,6.1
			C54.4,416.1,55.1,413.5,55.1,410.1z"/>
	</g>
	<g>
		<path fill="#4D4D4D" d="M48.6,479.3c0,0,1.2,1.7,3.4,1.7c1.8,0,3.4-1.3,3.4-3.1c0-1.9-1.5-3.2-3.5-3.2c-1.5,0-2.6,0.8-2.6,0.8
			L48,475l0.8-7.7h7.8v1.9h-5.9l-0.4,3.3c0,0.5-0.1,0.8-0.1,0.8h0c0,0,0.9-0.5,2-0.5c3.3,0,5.4,2.3,5.4,5.1c0,3-2.4,5.2-5.5,5.2
			c-3.2,0-4.8-2.2-4.8-2.2L48.6,479.3z"/>
	</g>
	<g>
		<path fill="#4D4D4D" d="M46.4,539.9c0-4.5,1.3-8,5.5-8c4.2,0,5.5,3.5,5.5,8c0,4.5-1.3,8.1-5.5,8.1C47.7,548,46.4,544.4,46.4,539.9
			z M55.1,539.9c0-3.4-0.7-6-3.3-6c-2.5,0-3.3,2.6-3.3,6c0,3.4,0.7,6.1,3.3,6.1C54.4,546,55.1,543.3,55.1,539.9z"/>
	</g>
	<g>
		<path fill="#6D6E70" d="M3.1,374.5c-1.7,0-3.1-1.4-3.1-3.1c0-1.7,1.4-3.1,3.1-3.1c1.7,0,3.1,1.4,3.1,3.1
			C6.1,373.1,4.8,374.5,3.1,374.5z M0.3,362.6V361l15.5,11.8v1.6L0.3,362.6z M3.1,369.6c-1,0-1.8,0.8-1.8,1.8c0,1,0.8,1.8,1.8,1.8
			c1,0,1.8-0.8,1.8-1.8C4.9,370.4,4.1,369.6,3.1,369.6z M9.9,364c0-1.7,1.4-3.1,3.1-3.1c1.7,0,3,1.4,3,3.1c0,1.7-1.4,3.1-3,3.1
			C11.3,367.1,9.9,365.7,9.9,364z M14.8,364c0-1-0.8-1.8-1.8-1.8c-1,0-1.8,0.8-1.8,1.8c0,1,0.8,1.8,1.8,1.8
			C14,365.8,14.8,365,14.8,364z"/>
		<path fill="#6D6E70" d="M4.4,347.4c0-3.2,2.5-5.9,5.7-5.9c3.3,0,5.9,2.6,5.9,5.9s-2.5,5.9-5.9,5.9C6.9,353.2,4.4,350.6,4.4,347.4z
			 M14.7,347.4c0-2.4-1.9-4.3-4.5-4.3c-2.5,0-4.4,1.9-4.4,4.3c0,2.4,1.9,4.3,4.4,4.3C12.7,351.7,14.7,349.7,14.7,347.4z"/>
		<path fill="#6D6E70" d="M6.1,338.5v1.4H4.8v-1.4H4.3c-3.7,0-4.1-2.6-4.1-3.8c0-0.4,0-0.7,0-0.7h1.3c0,0,0,0.2,0,0.5
			c0,0.9,0.3,2.5,2.8,2.5h0.5v-2.8h1.3v2.8h9.7v1.5H6.1z"/>
		<path fill="#6D6E70" d="M4.7,326.5v-1.4h1.1c0.5,0,0.9,0,0.9,0v0c0,0-2.2-0.9-2.2-3.8c0-3,2.4-4.8,5.8-4.8c3.5,0,5.8,2.1,5.8,5
			c0,2.7-2.1,3.6-2.1,3.6v0c0,0,0.4,0,1,0h5.3v1.5H4.7z M14.7,321.5c0-2-1.7-3.6-4.5-3.6c-2.7,0-4.4,1.4-4.4,3.5
			c0,1.8,1.3,3.6,4.5,3.6C12.5,325,14.7,323.8,14.7,321.5z"/>
		<path fill="#6D6E70" d="M8.9,307.9v-0.6H8.6c-2.1,0-2.9,1.2-2.9,2.8c0,1.8,1.1,3.1,1.1,3.1l-1.1,0.7c0,0-1.3-1.5-1.3-3.9
			c0-2.7,1.5-4.1,4.2-4.1h7.1v1.4h-1.2c-0.6,0-0.9,0-0.9,0v0c0,0,2.4,0.9,2.4,3.7c0,1.8-1.1,3.8-3.3,3.8
			C9,314.6,8.9,309.8,8.9,307.9z M14.7,310.6c0-2.1-2.2-3.4-4.1-3.4h-0.5v0.6c0,1.7,0.1,5.2,2.5,5.2
			C13.7,313.1,14.7,312.3,14.7,310.6z"/>
		<path fill="#6D6E70" d="M6.1,302.2v1.5H4.8v-1.5H1.6v-1.5h3.2v-2.8h1.3v2.8h5.5c2.6,0,2.9-1.6,2.9-2.5c0-0.3,0-0.5,0-0.5h1.3
			c0,0,0,0.2,0,0.6c0,1.3-0.4,3.9-4.1,3.9H6.1z"/>
		<path fill="#6D6E70" d="M0.3,295.5v-1.6h1.9v1.6H0.3z M4.7,295.4v-1.5h11.1v1.5H4.7z"/>
		<path fill="#6D6E70" d="M4.4,285.9c0-3.1,2.4-4.6,5.1-4.6c0.3,0,0.8,0,0.8,0v8.5c2.8-0.1,4.4-2,4.4-4.3c0-2-1.3-3.4-1.3-3.4
			l1.1-0.7c0,0,1.5,1.6,1.5,4.1c0,3.3-2.4,5.8-5.8,5.8C6.6,291.3,4.4,288.9,4.4,285.9z M9,282.8c-2.3,0.1-3.4,1.5-3.4,3.1
			c0,1.8,1.2,3.5,3.4,3.8V282.8z"/>
		<path fill="#6D6E70" d="M4.7,278.6v-1.5h1.6c0.5,0,0.9,0,0.9,0v0c-1-0.4-2.8-1.8-2.8-4.4c0-2.7,1.6-3.7,4.3-3.7h7v1.5H9.1
			c-1.7,0-3.3,0.3-3.3,2.4c0,1.9,1.3,3.5,3.1,4c0.5,0.1,1,0.2,1.5,0.2h5.3v1.5H4.7z"/>
		<path fill="#6D6E70" d="M6.1,265.4v1.5H4.8v-1.5H1.6v-1.5h3.2v-2.8h1.3v2.8h5.5c2.6,0,2.9-1.6,2.9-2.5c0-0.3,0-0.5,0-0.5h1.3
			c0,0,0,0.2,0,0.6c0,1.3-0.4,3.9-4.1,3.9H6.1z"/>
		<path fill="#6D6E70" d="M13.3,258.7c0,0,1.3-1.2,1.3-3.3c0-1.2-0.6-2.2-1.8-2.2c-2.4,0-1.8,6-5.4,6c-2,0-3.1-1.8-3.1-3.8
			c0-2.3,1.2-3.4,1.2-3.4l1.1,0.7c0,0-1,0.9-1,2.8c0,1.1,0.5,2.2,1.7,2.2c2.4,0,1.8-6,5.4-6c1.8,0,3.1,1.6,3.1,3.8
			c0,2.7-1.6,4.1-1.6,4.1L13.3,258.7z"/>
	</g>
	<g>
		<path fill="#6D6E70" d="M1290.4,560h1.6l4.3,11.7c0.3,0.8,0.6,2,0.6,2h0c0,0,0.3-1.2,0.6-2l4.3-11.7h1.6l-5.7,15.5h-1.6
			L1290.4,560z"/>
		<path fill="#6D6E70" d="M1305.5,560h1.6v1.9h-1.6V560z M1305.6,564.4h1.5v11.1h-1.5V564.4z"/>
		<path fill="#6D6E70" d="M1310.6,573.1c0,0,1.2,1.3,3.3,1.3c1.2,0,2.2-0.6,2.2-1.8c0-2.4-6-1.8-6-5.4c0-2,1.8-3.1,3.8-3.1
			c2.3,0,3.4,1.2,3.4,1.2l-0.7,1.1c0,0-0.9-1-2.8-1c-1.1,0-2.2,0.5-2.2,1.7c0,2.4,6,1.8,6,5.4c0,1.8-1.6,3.1-3.8,3.1
			c-2.7,0-4.1-1.6-4.1-1.6L1310.6,573.1z"/>
		<path fill="#6D6E70" d="M1320.4,560h1.6v1.9h-1.6V560z M1320.4,564.4h1.5v11.1h-1.5V564.4z"/>
		<path fill="#6D6E70" d="M1330.6,564.1c3.2,0,5.9,2.5,5.9,5.7c0,3.3-2.6,5.9-5.9,5.9s-5.9-2.5-5.9-5.9
			C1324.7,566.6,1327.3,564.1,1330.6,564.1z M1330.6,574.4c2.4,0,4.3-1.9,4.3-4.5c0-2.5-1.9-4.4-4.3-4.4c-2.4,0-4.3,1.9-4.3,4.4
			C1326.2,572.5,1328.2,574.4,1330.6,574.4z"/>
		<path fill="#6D6E70" d="M1339.2,564.4h1.5v1.7c0,0.5,0,0.9,0,0.9h0c0.4-1,1.8-2.8,4.4-2.8c2.7,0,3.7,1.6,3.7,4.3v7h-1.5v-6.6
			c0-1.7-0.3-3.3-2.4-3.3c-1.9,0-3.5,1.3-4,3.1c-0.1,0.5-0.2,1-0.2,1.5v5.3h-1.5V564.4z"/>
		<path fill="#6D6E70" d="M1286,583h1.5v5.4c0,0.5,0,0.9,0,0.9h0c0,0,0.9-2.1,3.8-2.1c3,0,4.8,2.4,4.8,5.8c0,3.5-2.1,5.8-5,5.8
			c-2.6,0-3.6-2.2-3.6-2.2h0c0,0,0,0.4,0,0.9v1h-1.5V583z M1291,597.4c2,0,3.6-1.7,3.6-4.5c0-2.7-1.4-4.4-3.5-4.4
			c-1.8,0-3.6,1.3-3.6,4.5C1287.5,595.2,1288.6,597.4,1291,597.4z"/>
		<path fill="#6D6E70" d="M1298.9,583h1.5v12.5c0,1.5,0.7,1.7,1.2,1.7c0.2,0,0.4,0,0.4,0v1.3c0,0-0.3,0-0.5,0
			c-0.9,0-2.6-0.3-2.6-2.7V583z"/>
		<path fill="#6D6E70" d="M1304.3,587.4h1.5v6.6c0,1.7,0.3,3.3,2.4,3.3c2.5,0,4.1-2.2,4.1-4.6v-5.3h1.5v11.1h-1.5v-1.7
			c0-0.5,0-0.9,0-0.9h0c-0.4,1.1-1.9,2.8-4.3,2.8c-2.6,0-3.7-1.4-3.7-4.3V587.4z"/>
		<path fill="#6D6E70" d="M1317.4,587.4h1.5v2c0,0.5,0,0.9,0,0.9h0c0.5-1.7,1.8-2.9,3.5-2.9c0.3,0,0.6,0.1,0.6,0.1v1.5
			c0,0-0.3,0-0.5,0c-1.6,0-2.7,1.2-3.2,2.9c-0.2,0.7-0.3,1.5-0.3,2.2v4.7h-1.5V587.4z"/>
		<path fill="#6D6E70" d="M1325.2,587.4h1.5v2c0,0.5,0,0.9,0,0.9h0c0.5-1.7,1.8-2.9,3.5-2.9c0.3,0,0.6,0.1,0.6,0.1v1.5
			c0,0-0.3,0-0.5,0c-1.6,0-2.7,1.2-3.2,2.9c-0.2,0.7-0.3,1.5-0.3,2.2v4.7h-1.5V587.4z"/>
		<path fill="#6D6E70" d="M1337.7,587.1c3.1,0,4.6,2.4,4.6,5.1c0,0.3,0,0.8,0,0.8h-8.5c0.1,2.8,2,4.4,4.3,4.4c2,0,3.4-1.3,3.4-1.3
			l0.7,1.1c0,0-1.6,1.5-4.1,1.5c-3.3,0-5.8-2.4-5.8-5.8C1332.3,589.3,1334.7,587.1,1337.7,587.1z M1340.8,591.8
			c-0.1-2.3-1.5-3.4-3.1-3.4c-1.8,0-3.5,1.2-3.8,3.4H1340.8z"/>
		<path fill="#6D6E70" d="M1349.5,587.1c2.7,0,3.6,2.1,3.6,2.1h0c0,0,0-0.4,0-0.8V583h1.5v15.5h-1.5v-1.2c0-0.5,0-0.8,0-0.8h0
			c0,0-0.9,2.2-3.8,2.2c-3,0-4.8-2.4-4.8-5.8C1344.5,589.4,1346.5,587.1,1349.5,587.1z M1349.5,597.4c1.8,0,3.6-1.3,3.6-4.5
			c0-2.2-1.1-4.4-3.5-4.4c-2,0-3.6,1.7-3.6,4.4C1346,595.7,1347.4,597.4,1349.5,597.4z"/>
	</g>
	<g>
		<path fill="#6D6E70" d="M115.9,560h5c4.6,0,7.8,2.8,7.8,7.7c0,4.9-3.1,7.7-7.8,7.7h-5V560z M120.7,574.1c3.8,0,6.3-2.2,6.3-6.4
			c0-4.1-2.6-6.4-6.3-6.4h-3.3v12.7H120.7z"/>
		<path fill="#6D6E70" d="M131.7,560h1.6v1.9h-1.6V560z M131.7,564.4h1.5v11.1h-1.5V564.4z"/>
		<path fill="#6D6E70" d="M135.9,574.5l6.2-7.8c0.4-0.5,0.9-1,0.9-1v0c0,0-0.4,0-1.1,0h-5.7v-1.3h8.8v1l-6.2,7.7
			c-0.4,0.5-0.9,1-0.9,1v0c0,0,0.4,0,1.1,0h6.2v1.3h-9.3V574.5z"/>
		<path fill="#6D6E70" d="M147.1,574.5l6.2-7.8c0.4-0.5,0.9-1,0.9-1v0c0,0-0.4,0-1.1,0h-5.7v-1.3h8.8v1l-6.2,7.7
			c-0.4,0.5-0.9,1-0.9,1v0c0,0,0.4,0,1.1,0h6.2v1.3h-9.3V574.5z"/>
		<path fill="#6D6E70" d="M159.2,560h1.6v1.9h-1.6V560z M159.2,564.4h1.5v11.1h-1.5V564.4z"/>
		<path fill="#6D6E70" d="M164.3,564.4h1.5v1.7c0,0.5,0,0.9,0,0.9h0c0.4-1,1.8-2.8,4.4-2.8c2.7,0,3.7,1.6,3.7,4.3v7h-1.5v-6.6
			c0-1.7-0.3-3.3-2.4-3.3c-1.9,0-3.5,1.3-4,3.1c-0.1,0.5-0.2,1-0.2,1.5v5.3h-1.5V564.4z"/>
		<path fill="#6D6E70" d="M182.1,564.1c3.1,0,4.6,2.4,4.6,5.1c0,0.3,0,0.8,0,0.8h-8.5c0.1,2.8,2,4.4,4.3,4.4c2,0,3.4-1.3,3.4-1.3
			l0.7,1.1c0,0-1.6,1.5-4.1,1.5c-3.3,0-5.8-2.4-5.8-5.8C176.6,566.3,179.1,564.1,182.1,564.1z M185.2,568.8
			c-0.1-2.3-1.5-3.4-3.1-3.4c-1.8,0-3.5,1.2-3.8,3.4H185.2z"/>
		<path fill="#6D6E70" d="M189.4,573.1c0,0,1.2,1.3,3.3,1.3c1.2,0,2.2-0.6,2.2-1.8c0-2.4-6-1.8-6-5.4c0-2,1.8-3.1,3.8-3.1
			c2.3,0,3.4,1.2,3.4,1.2l-0.7,1.1c0,0-0.9-1-2.8-1c-1.1,0-2.2,0.5-2.2,1.7c0,2.4,6,1.8,6,5.4c0,1.8-1.6,3.1-3.8,3.1
			c-2.7,0-4.1-1.6-4.1-1.6L189.4,573.1z"/>
		<path fill="#6D6E70" d="M199.2,573.1c0,0,1.2,1.3,3.3,1.3c1.2,0,2.2-0.6,2.2-1.8c0-2.4-6-1.8-6-5.4c0-2,1.8-3.1,3.8-3.1
			c2.3,0,3.4,1.2,3.4,1.2l-0.7,1.1c0,0-0.9-1-2.8-1c-1.1,0-2.2,0.5-2.2,1.7c0,2.4,6,1.8,6,5.4c0,1.8-1.6,3.1-3.8,3.1
			c-2.7,0-4.1-1.6-4.1-1.6L199.2,573.1z"/>
	</g>
	<g>
		<path fill="#6D6E70" d="M264.5,572.6c0,0,1.6,1.7,4,1.7c1.7,0,3.1-1,3.1-2.7c0-3.9-7.7-2.9-7.7-7.7c0-2.2,2-4.2,4.8-4.2
			c2.7,0,4.1,1.5,4.1,1.5l-0.7,1.3c0,0-1.4-1.3-3.4-1.3c-2,0-3.3,1.3-3.3,2.7c0,3.7,7.7,2.6,7.7,7.7c0,2.3-1.8,4.2-4.7,4.2
			c-3.2,0-4.9-2-4.9-2L264.5,572.6z"/>
		<path fill="#6D6E70" d="M281.2,564.1c3.2,0,5.9,2.5,5.9,5.7c0,3.3-2.6,5.9-5.9,5.9c-3.2,0-5.9-2.5-5.9-5.9
			C275.3,566.6,277.9,564.1,281.2,564.1z M281.2,574.4c2.4,0,4.3-1.9,4.3-4.5c0-2.5-1.9-4.4-4.3-4.4c-2.4,0-4.3,1.9-4.3,4.4
			C276.8,572.5,278.8,574.4,281.2,574.4z"/>
		<path fill="#6D6E70" d="M289.8,564.4h1.5v1.7c0,0.5,0,0.9,0,0.9h0c0.5-1.5,2.3-2.8,4-2.8c2,0,3.1,0.9,3.4,2.8h0
			c0.6-1.5,2.2-2.8,4.1-2.8c2.7,0,3.7,1.6,3.7,4.3v7H305v-6.7c0-1.8-0.4-3.3-2.4-3.3c-1.7,0-3.1,1.5-3.5,3.1c-0.2,0.5-0.2,1-0.2,1.6
			v5.2h-1.5v-6.7c0-1.7-0.2-3.3-2.3-3.3c-1.8,0-3.2,1.6-3.6,3.3c-0.1,0.5-0.2,1-0.2,1.5v5.2h-1.5V564.4z"/>
		<path fill="#6D6E70" d="M310,564.4h1.5v1.7c0,0.5,0,0.9,0,0.9h0c0.4-1,1.8-2.8,4.4-2.8c2.7,0,3.7,1.6,3.7,4.3v7h-1.5v-6.6
			c0-1.7-0.3-3.3-2.4-3.3c-1.9,0-3.5,1.3-4,3.1c-0.1,0.5-0.2,1-0.2,1.5v5.3H310V564.4z"/>
		<path fill="#6D6E70" d="M328,564.1c3.2,0,5.9,2.5,5.9,5.7c0,3.3-2.6,5.9-5.9,5.9c-3.2,0-5.9-2.5-5.9-5.9
			C322.2,566.6,324.8,564.1,328,564.1z M328,574.4c2.4,0,4.3-1.9,4.3-4.5c0-2.5-1.9-4.4-4.3-4.4c-2.4,0-4.3,1.9-4.3,4.4
			C323.7,572.5,325.7,574.4,328,574.4z"/>
		<path fill="#6D6E70" d="M336.6,560h1.5v12.5c0,1.5,0.7,1.7,1.2,1.7c0.2,0,0.4,0,0.4,0v1.3c0,0-0.3,0-0.6,0c-0.9,0-2.6-0.3-2.6-2.7
			V560z"/>
		<path fill="#6D6E70" d="M346.8,564.1c3.1,0,4.6,2.4,4.6,5.1c0,0.3,0,0.8,0,0.8h-8.5c0.1,2.8,2,4.4,4.3,4.4c2,0,3.4-1.3,3.4-1.3
			l0.7,1.1c0,0-1.6,1.5-4.1,1.5c-3.3,0-5.8-2.4-5.8-5.8C341.3,566.3,343.8,564.1,346.8,564.1z M349.9,568.8
			c-0.1-2.3-1.5-3.4-3.1-3.4c-1.8,0-3.5,1.2-3.8,3.4H349.9z"/>
		<path fill="#6D6E70" d="M354.3,564.4h1.5v1.7c0,0.5,0,0.9,0,0.9h0c0.4-1,1.8-2.8,4.4-2.8c2.7,0,3.7,1.6,3.7,4.3v7h-1.5v-6.6
			c0-1.7-0.3-3.3-2.4-3.3c-1.9,0-3.5,1.3-4,3.1c-0.1,0.5-0.2,1-0.2,1.5v5.3h-1.5V564.4z"/>
		<path fill="#6D6E70" d="M372.4,564.1c2.7,0,4,1.6,4,1.6l-0.8,1.1c0,0-1.2-1.3-3.2-1.3c-2.4,0-4.3,1.8-4.3,4.4
			c0,2.6,1.9,4.4,4.4,4.4c2.2,0,3.5-1.6,3.5-1.6l0.7,1.2c0,0-1.5,1.7-4.3,1.7c-3.3,0-5.8-2.4-5.8-5.8
			C366.6,566.5,369.1,564.1,372.4,564.1z"/>
		<path fill="#6D6E70" d="M384.1,564.1c3.1,0,4.6,2.4,4.6,5.1c0,0.3,0,0.8,0,0.8h-8.5c0.1,2.8,2,4.4,4.3,4.4c2,0,3.4-1.3,3.4-1.3
			l0.7,1.1c0,0-1.6,1.5-4.1,1.5c-3.3,0-5.8-2.4-5.8-5.8C378.6,566.3,381.1,564.1,384.1,564.1z M387.2,568.8
			c-0.1-2.3-1.5-3.4-3.1-3.4c-1.8,0-3.5,1.2-3.8,3.4H387.2z"/>
	</g>
	<g>
		<path fill="#6D6E70" d="M443.2,560h1.5v7h9v-7h1.5v15.5h-1.5v-7.1h-9v7.1h-1.5V560z"/>
		<path fill="#6D6E70" d="M463.9,564.1c3.1,0,4.6,2.4,4.6,5.1c0,0.3,0,0.8,0,0.8H460c0.1,2.8,2,4.4,4.3,4.4c2,0,3.4-1.3,3.4-1.3
			l0.7,1.1c0,0-1.6,1.5-4.1,1.5c-3.3,0-5.8-2.4-5.8-5.8C458.5,566.3,460.9,564.1,463.9,564.1z M467,568.8c-0.1-2.3-1.5-3.4-3.1-3.4
			c-1.8,0-3.5,1.2-3.8,3.4H467z"/>
		<path fill="#6D6E70" d="M477.3,568.6h0.6v-0.3c0-2.1-1.2-2.9-2.8-2.9c-1.8,0-3.1,1.1-3.1,1.1l-0.7-1.1c0,0,1.5-1.3,3.9-1.3
			c2.7,0,4.1,1.5,4.1,4.2v7.1H478v-1.2c0-0.5,0-0.9,0-0.9h0c0,0-0.9,2.4-3.7,2.4c-1.8,0-3.8-1.1-3.8-3.3
			C470.5,568.7,475.4,568.6,477.3,568.6z M474.5,574.5c2.1,0,3.4-2.2,3.4-4.1v-0.5h-0.6c-1.7,0-5.2,0.1-5.2,2.5
			C472,573.4,472.8,574.5,474.5,574.5z"/>
		<path fill="#6D6E70" d="M487.1,564.1c2.7,0,3.6,2.1,3.6,2.1h0c0,0,0-0.4,0-0.8V560h1.5v15.5h-1.5v-1.2c0-0.5,0-0.8,0-0.8h0
			c0,0-0.9,2.2-3.8,2.2c-3,0-4.8-2.4-4.8-5.8C482.1,566.4,484.2,564.1,487.1,564.1z M487.1,574.4c1.8,0,3.6-1.3,3.6-4.5
			c0-2.2-1.1-4.4-3.5-4.4c-2,0-3.6,1.7-3.6,4.4C483.6,572.7,485.1,574.4,487.1,574.4z"/>
		<path fill="#6D6E70" d="M501.7,568.6h0.6v-0.3c0-2.1-1.2-2.9-2.8-2.9c-1.8,0-3.1,1.1-3.1,1.1l-0.7-1.1c0,0,1.5-1.3,3.9-1.3
			c2.7,0,4.1,1.5,4.1,4.2v7.1h-1.4v-1.2c0-0.5,0-0.9,0-0.9h0c0,0-0.9,2.4-3.7,2.4c-1.8,0-3.8-1.1-3.8-3.3
			C494.9,568.7,499.8,568.6,501.7,568.6z M498.9,574.5c2.1,0,3.4-2.2,3.4-4.1v-0.5h-0.6c-1.7,0-5.2,0.1-5.2,2.5
			C496.4,573.4,497.2,574.5,498.9,574.5z"/>
		<path fill="#6D6E70" d="M512.3,564.1c2.7,0,4,1.6,4,1.6l-0.8,1.1c0,0-1.2-1.3-3.2-1.3c-2.4,0-4.3,1.8-4.3,4.4
			c0,2.6,1.9,4.4,4.4,4.4c2.2,0,3.5-1.6,3.5-1.6l0.7,1.2c0,0-1.5,1.7-4.3,1.7c-3.3,0-5.8-2.4-5.8-5.8
			C506.5,566.5,509,564.1,512.3,564.1z"/>
		<path fill="#6D6E70" d="M519.3,560h1.5v6c0,0.5,0,0.9,0,0.9h0c0.4-1.1,1.9-2.8,4.4-2.8c2.7,0,3.7,1.6,3.7,4.3v7h-1.5v-6.6
			c0-1.7-0.3-3.3-2.4-3.3c-1.9,0-3.5,1.3-4,3.1c-0.1,0.4-0.2,0.9-0.2,1.5v5.3h-1.5V560z"/>
		<path fill="#6D6E70" d="M537,564.1c3.1,0,4.6,2.4,4.6,5.1c0,0.3,0,0.8,0,0.8h-8.5c0.1,2.8,2,4.4,4.3,4.4c2,0,3.4-1.3,3.4-1.3
			l0.7,1.1c0,0-1.6,1.5-4.1,1.5c-3.3,0-5.8-2.4-5.8-5.8C531.6,566.3,534.1,564.1,537,564.1z M540.1,568.8c-0.1-2.3-1.5-3.4-3.1-3.4
			c-1.8,0-3.5,1.2-3.8,3.4H540.1z"/>
	</g>
	<g>
		<path fill="#6D6E70" d="M637.5,570.5h-6.2l-1.8,4.9H628l5.7-15.5h1.6l5.7,15.5h-1.6L637.5,570.5z M634.4,561.6c0,0-0.3,1.3-0.6,2
			l-2.1,5.6h5.3l-2-5.6C634.8,562.9,634.5,561.6,634.4,561.6L634.4,561.6z"/>
		<path fill="#6D6E70" d="M643.4,565.8H642v-1.3h1.5v-3.2h1.5v3.2h2.8v1.3h-2.8v5.5c0,2.6,1.6,2.9,2.5,2.9c0.3,0,0.5,0,0.5,0v1.3
			c0,0-0.2,0-0.6,0c-1.3,0-3.9-0.4-3.9-4.1V565.8z"/>
		<path fill="#6D6E70" d="M656.3,568.6h0.6v-0.3c0-2.1-1.2-2.9-2.8-2.9c-1.8,0-3.1,1.1-3.1,1.1l-0.7-1.1c0,0,1.5-1.3,3.9-1.3
			c2.7,0,4.1,1.5,4.1,4.2v7.1h-1.4v-1.2c0-0.5,0-0.9,0-0.9h0c0,0-0.9,2.4-3.7,2.4c-1.8,0-3.8-1.1-3.8-3.3
			C649.5,568.7,654.4,568.6,656.3,568.6z M653.5,574.5c2.1,0,3.4-2.2,3.4-4.1v-0.5h-0.6c-1.7,0-5.2,0.1-5.2,2.5
			C651,573.4,651.8,574.5,653.5,574.5z"/>
		<path fill="#6D6E70" d="M665.4,570.7c0,0-0.2,0.3-0.4,0.6l-2.7,4.2h-1.8l3.9-5.8l-3.6-5.3h1.8l2.4,3.7c0.2,0.3,0.4,0.6,0.4,0.6h0
			c0,0,0.2-0.4,0.4-0.6l2.4-3.7h1.8l-3.6,5.3l3.9,5.8h-1.8l-2.7-4.2C665.6,571,665.5,570.7,665.4,570.7L665.4,570.7L665.4,570.7z"/>
		<path fill="#6D6E70" d="M672.6,560h1.6v1.9h-1.6V560z M672.6,564.4h1.5v11.1h-1.5V564.4z"/>
		<path fill="#6D6E70" d="M683.6,568.6h0.6v-0.3c0-2.1-1.2-2.9-2.8-2.9c-1.8,0-3.1,1.1-3.1,1.1l-0.7-1.1c0,0,1.5-1.3,3.9-1.3
			c2.7,0,4.1,1.5,4.1,4.2v7.1h-1.4v-1.2c0-0.5,0-0.9,0-0.9h0c0,0-0.9,2.4-3.7,2.4c-1.8,0-3.8-1.1-3.8-3.3
			C676.8,568.7,681.7,568.6,683.6,568.6z M680.8,574.5c2.1,0,3.4-2.2,3.4-4.1v-0.5h-0.6c-1.7,0-5.2,0.1-5.2,2.5
			C678.4,573.4,679.2,574.5,680.8,574.5z"/>
	</g>
	<g>
		<path fill="#6D6E70" d="M788.3,560h1.5l7.9,11.1c0.5,0.8,1.3,2.1,1.3,2.1h0c0,0-0.1-1.3-0.1-2.1V560h1.5v15.5h-1.5l-7.9-11.1
			c-0.5-0.8-1.3-2.1-1.3-2.1h0c0,0,0.1,1.3,0.1,2.1v11.1h-1.5V560z"/>
		<path fill="#6D6E70" d="M810.3,568.6h0.6v-0.3c0-2.1-1.2-2.9-2.8-2.9c-1.8,0-3.1,1.1-3.1,1.1l-0.7-1.1c0,0,1.5-1.3,3.9-1.3
			c2.7,0,4.1,1.5,4.1,4.2v7.1H811v-1.2c0-0.5,0-0.9,0-0.9h0c0,0-0.9,2.4-3.7,2.4c-1.8,0-3.8-1.1-3.8-3.3
			C803.5,568.7,808.4,568.6,810.3,568.6z M807.5,574.5c2.1,0,3.4-2.2,3.4-4.1v-0.5h-0.6c-1.7,0-5.2,0.1-5.2,2.5
			C805.1,573.4,805.9,574.5,807.5,574.5z"/>
		<path fill="#6D6E70" d="M815.7,564.4h1.5v6.6c0,1.7,0.3,3.3,2.4,3.3c2.5,0,4.1-2.2,4.1-4.6v-5.3h1.5v11.1h-1.5v-1.7
			c0-0.5,0-0.9,0-0.9h0c-0.4,1.1-1.9,2.8-4.3,2.8c-2.6,0-3.7-1.4-3.7-4.3V564.4z"/>
		<path fill="#6D6E70" d="M828.7,573.1c0,0,1.2,1.3,3.3,1.3c1.2,0,2.2-0.6,2.2-1.8c0-2.4-6-1.8-6-5.4c0-2,1.8-3.1,3.8-3.1
			c2.3,0,3.4,1.2,3.4,1.2l-0.7,1.1c0,0-0.9-1-2.8-1c-1.1,0-2.2,0.5-2.2,1.7c0,2.4,6,1.8,6,5.4c0,1.8-1.6,3.1-3.8,3.1
			c-2.7,0-4.1-1.6-4.1-1.6L828.7,573.1z"/>
		<path fill="#6D6E70" d="M843.2,564.1c3.1,0,4.6,2.4,4.6,5.1c0,0.3,0,0.8,0,0.8h-8.5c0.1,2.8,2,4.4,4.3,4.4c2,0,3.4-1.3,3.4-1.3
			l0.7,1.1c0,0-1.6,1.5-4.1,1.5c-3.3,0-5.8-2.4-5.8-5.8C837.8,566.3,840.3,564.1,843.2,564.1z M846.3,568.8
			c-0.1-2.3-1.5-3.4-3.1-3.4c-1.8,0-3.5,1.2-3.8,3.4H846.3z"/>
		<path fill="#6D6E70" d="M856.6,568.6h0.6v-0.3c0-2.1-1.2-2.9-2.8-2.9c-1.8,0-3.1,1.1-3.1,1.1l-0.7-1.1c0,0,1.5-1.3,3.9-1.3
			c2.7,0,4.1,1.5,4.1,4.2v7.1h-1.4v-1.2c0-0.5,0-0.9,0-0.9h0c0,0-0.9,2.4-3.7,2.4c-1.8,0-3.8-1.1-3.8-3.3
			C849.8,568.7,854.7,568.6,856.6,568.6z M853.8,574.5c2.1,0,3.4-2.2,3.4-4.1v-0.5h-0.6c-1.7,0-5.2,0.1-5.2,2.5
			C851.4,573.4,852.2,574.5,853.8,574.5z"/>
	</g>
	<g>
		<path fill="#6D6E70" d="M943.7,560h1.6l4.3,11.7c0.3,0.8,0.6,2,0.6,2h0c0,0,0.3-1.2,0.6-2l4.3-11.7h1.6l-5.7,15.5h-1.6L943.7,560z
			"/>
		<path fill="#6D6E70" d="M963.9,564.1c3.2,0,5.9,2.5,5.9,5.7c0,3.3-2.6,5.9-5.9,5.9s-5.9-2.5-5.9-5.9
			C958.1,566.6,960.7,564.1,963.9,564.1z M963.9,574.4c2.4,0,4.3-1.9,4.3-4.5c0-2.5-1.9-4.4-4.3-4.4c-2.4,0-4.3,1.9-4.3,4.4
			C959.6,572.5,961.5,574.4,963.9,574.4z"/>
		<path fill="#6D6E70" d="M972.6,564.4h1.5v1.7c0,0.5,0,0.9,0,0.9h0c0.5-1.5,2.3-2.8,4-2.8c2,0,3.1,0.9,3.4,2.8h0
			c0.6-1.5,2.2-2.8,4.1-2.8c2.7,0,3.7,1.6,3.7,4.3v7h-1.5v-6.7c0-1.8-0.4-3.3-2.4-3.3c-1.7,0-3.1,1.5-3.5,3.1
			c-0.2,0.5-0.2,1-0.2,1.6v5.2h-1.5v-6.7c0-1.7-0.2-3.3-2.3-3.3c-1.8,0-3.2,1.6-3.6,3.3c-0.1,0.5-0.2,1-0.2,1.5v5.2h-1.5V564.4z"/>
		<path fill="#6D6E70" d="M992.7,560h1.6v1.9h-1.6V560z M992.7,564.4h1.5v11.1h-1.5V564.4z"/>
		<path fill="#6D6E70" d="M998.2,565.8h-1.5v-1.3h1.5v-3.2h1.5v3.2h2.8v1.3h-2.8v5.5c0,2.6,1.7,2.9,2.5,2.9c0.3,0,0.5,0,0.5,0v1.3
			c0,0-0.2,0-0.6,0c-1.3,0-3.9-0.4-3.9-4.1V565.8z"/>
		<path fill="#6D6E70" d="M1005.1,560h1.6v1.9h-1.6V560z M1005.2,564.4h1.5v11.1h-1.5V564.4z"/>
		<path fill="#6D6E70" d="M1010.3,564.4h1.5v1.7c0,0.5,0,0.9,0,0.9h0c0.4-1,1.8-2.8,4.4-2.8c2.7,0,3.7,1.6,3.7,4.3v7h-1.5v-6.6
			c0-1.7-0.3-3.3-2.4-3.3c-1.9,0-3.5,1.3-4,3.1c-0.1,0.5-0.2,1-0.2,1.5v5.3h-1.5V564.4z"/>
		<path fill="#6D6E70" d="M1027.2,578.8c2.2,0,3.9-1,3.9-3.5v-1c0-0.4,0-0.8,0-0.8h0c-0.7,1.2-1.8,1.9-3.5,1.9c-3,0-4.9-2.4-4.9-5.7
			c0-3.3,1.8-5.6,4.8-5.6c2.9,0,3.7,1.8,3.7,1.8h0c0,0,0-0.1,0-0.4v-1.2h1.5v10.8c0,3.5-2.6,4.9-5.3,4.9c-1.3,0-2.6-0.3-3.6-0.9
			l0.6-1.2C1024.2,578,1025.5,578.8,1027.2,578.8z M1031.1,569.7c0-3.2-1.5-4.2-3.5-4.2c-2.2,0-3.4,1.6-3.4,4.2s1.4,4.4,3.6,4.4
			C1029.5,574.1,1031.1,573,1031.1,569.7z"/>
	</g>
	<g>
		<path fill="#6D6E70" d="M1115.4,560h5c4.6,0,7.8,2.8,7.8,7.7c0,4.9-3.1,7.7-7.8,7.7h-5V560z M1120.2,574.1c3.8,0,6.3-2.2,6.3-6.4
			c0-4.1-2.6-6.4-6.3-6.4h-3.3v12.7H1120.2z"/>
		<path fill="#6D6E70" d="M1131.2,560h1.6v1.9h-1.6V560z M1131.2,564.4h1.5v11.1h-1.5V564.4z"/>
		<path fill="#6D6E70" d="M1136.3,564.4h1.4v1.1c0,0.5,0,0.9,0,0.9h0c0,0,0.9-2.2,3.8-2.2c3,0,4.8,2.4,4.8,5.8c0,3.5-2.1,5.8-5,5.8
			c-2.7,0-3.6-2.1-3.6-2.1h0c0,0,0,0.4,0,1v5.3h-1.5V564.4z M1141.3,574.4c2,0,3.6-1.6,3.6-4.5c0-2.7-1.4-4.4-3.5-4.4
			c-1.8,0-3.6,1.3-3.6,4.5C1137.8,572.2,1139,574.4,1141.3,574.4z"/>
		<path fill="#6D6E70" d="M1149.2,560h1.5v12.5c0,1.5,0.7,1.7,1.2,1.7c0.2,0,0.4,0,0.4,0v1.3c0,0-0.3,0-0.5,0
			c-0.9,0-2.6-0.3-2.6-2.7V560z"/>
		<path fill="#6D6E70" d="M1159.7,564.1c3.2,0,5.9,2.5,5.9,5.7c0,3.3-2.6,5.9-5.9,5.9s-5.9-2.5-5.9-5.9
			C1153.9,566.6,1156.5,564.1,1159.7,564.1z M1159.7,574.4c2.4,0,4.3-1.9,4.3-4.5c0-2.5-1.9-4.4-4.3-4.4c-2.4,0-4.3,1.9-4.3,4.4
			C1155.4,572.5,1157.4,574.4,1159.7,574.4z"/>
		<path fill="#6D6E70" d="M1168.4,564.4h1.4v1.1c0,0.5,0,0.9,0,0.9h0c0,0,0.9-2.2,3.8-2.2c3,0,4.8,2.4,4.8,5.8c0,3.5-2.1,5.8-5,5.8
			c-2.7,0-3.6-2.1-3.6-2.1h0c0,0,0,0.4,0,1v5.3h-1.5V564.4z M1173.4,574.4c2,0,3.6-1.6,3.6-4.5c0-2.7-1.4-4.4-3.5-4.4
			c-1.8,0-3.6,1.3-3.6,4.5C1169.8,572.2,1171.1,574.4,1173.4,574.4z"/>
		<path fill="#6D6E70" d="M1181.3,560h1.6v1.9h-1.6V560z M1181.3,564.4h1.5v11.1h-1.5V564.4z"/>
		<path fill="#6D6E70" d="M1192.3,568.6h0.6v-0.3c0-2.1-1.2-2.9-2.8-2.9c-1.8,0-3.1,1.1-3.1,1.1l-0.7-1.1c0,0,1.5-1.3,3.9-1.3
			c2.7,0,4.1,1.5,4.1,4.2v7.1h-1.4v-1.2c0-0.5,0-0.9,0-0.9h0c0,0-0.9,2.4-3.7,2.4c-1.8,0-3.8-1.1-3.8-3.3
			C1185.5,568.7,1190.4,568.6,1192.3,568.6z M1189.6,574.5c2.1,0,3.4-2.2,3.4-4.1v-0.5h-0.6c-1.7,0-5.2,0.1-5.2,2.5
			C1187.1,573.4,1187.9,574.5,1189.6,574.5z"/>
	</g>
	<g>
		<path fill="#6D6E70" d="M153.9,1.8h4.9c2.5,0,4.3,1.6,4.3,4.2c0,2.6-1.8,4.3-4.3,4.3h-3.5v5.5h-1.4V1.8z M158.6,9.1
			c1.9,0,3.1-1.1,3.1-3.1c0-1.9-1.2-3-3.1-3h-3.3v6.1H158.6z"/>
		<path fill="#6D6E70" d="M165.9,1.8h4.8c2.2,0,3.8,1.3,3.8,3.5c0,1.5-0.7,2.5-1.8,3.1v0c1.4,0.4,2.4,1.8,2.4,3.5
			c0,2.5-1.9,3.9-4.2,3.9h-5V1.8z M170.7,7.9c1.4,0,2.4-1,2.4-2.5c0-1.4-0.9-2.4-2.4-2.4h-3.4v4.9H170.7z M170.8,14.6
			c1.7,0,2.8-1.1,2.8-2.7c0-1.7-1.1-2.8-2.8-2.8h-3.6v5.5H170.8z"/>
		<path fill="#6D6E70" d="M184.6,1.5c4,0,7.2,3.1,7.2,7.2c0,4.1-3.2,7.4-7.2,7.4s-7.2-3.2-7.2-7.4C177.4,4.7,180.6,1.5,184.6,1.5z
			 M184.6,14.8c3.2,0,5.7-2.6,5.7-6.1c0-3.4-2.6-5.9-5.7-5.9c-3.2,0-5.7,2.5-5.7,5.9C178.9,12.2,181.4,14.8,184.6,14.8z"/>
		<path fill="#6D6E70" d="M198.7,1h1.3l-5.1,15.7h-1.3L198.7,1z"/>
		<path fill="#6D6E70" d="M202.7,1.8h4.9c2.5,0,4.3,1.6,4.3,4.2c0,2.6-1.8,4.3-4.3,4.3h-3.5v5.5h-1.4V1.8z M207.4,9.1
			c1.9,0,3.1-1.1,3.1-3.1c0-1.9-1.2-3-3.1-3h-3.3v6.1H207.4z"/>
		<path fill="#6D6E70" d="M214.7,1.8h4.8c2.2,0,3.8,1.3,3.8,3.5c0,1.5-0.7,2.5-1.8,3.1v0c1.4,0.4,2.4,1.8,2.4,3.5
			c0,2.5-1.9,3.9-4.2,3.9h-5V1.8z M219.5,7.9c1.4,0,2.4-1,2.4-2.5c0-1.4-0.9-2.4-2.4-2.4H216v4.9H219.5z M219.6,14.6
			c1.7,0,2.8-1.1,2.8-2.7c0-1.7-1.1-2.8-2.8-2.8H216v5.5H219.6z"/>
		<path fill="#6D6E70" d="M233.4,1.5c4,0,7.2,3.1,7.2,7.2c0,4.1-3.2,7.4-7.2,7.4s-7.2-3.2-7.2-7.4C226.2,4.7,229.4,1.5,233.4,1.5z
			 M233.4,14.8c3.2,0,5.7-2.6,5.7-6.1c0-3.4-2.6-5.9-5.7-5.9c-3.2,0-5.7,2.5-5.7,5.9C227.7,12.2,230.2,14.8,233.4,14.8z"/>
		<path fill="#6D6E70" d="M247.5,1h1.3l-5.1,15.7h-1.3L247.5,1z"/>
		<path fill="#6D6E70" d="M251.5,1.8h4.9c2.5,0,4.3,1.6,4.3,4.2c0,2.6-1.8,4.3-4.3,4.3h-3.5v5.5h-1.4V1.8z M256.2,9.1
			c1.9,0,3.1-1.1,3.1-3.1c0-1.9-1.2-3-3.1-3h-3.3v6.1H256.2z"/>
		<path fill="#6D6E70" d="M263.5,1.8h4.8c2.2,0,3.8,1.3,3.8,3.5c0,1.5-0.7,2.5-1.8,3.1v0c1.4,0.4,2.4,1.8,2.4,3.5
			c0,2.5-1.9,3.9-4.2,3.9h-5V1.8z M268.3,7.9c1.4,0,2.4-1,2.4-2.5c0-1.4-0.9-2.4-2.4-2.4h-3.4v4.9H268.3z M268.4,14.6
			c1.7,0,2.8-1.1,2.8-2.7c0-1.7-1.1-2.8-2.8-2.8h-3.6v5.5H268.4z"/>
		<path fill="#6D6E70" d="M282.2,1.5c4,0,7.2,3.1,7.2,7.2c0,4.1-3.2,7.4-7.2,7.4s-7.2-3.2-7.2-7.4C275,4.7,278.2,1.5,282.2,1.5z
			 M282.2,14.8c3.2,0,5.7-2.6,5.7-6.1c0-3.4-2.6-5.9-5.7-5.9c-3.2,0-5.7,2.5-5.7,5.9C276.5,12.2,279,14.8,282.2,14.8z"/>
		<path fill="#6D6E70" d="M297.4,9.1c0-2.9,0.8-5.5,2.3-7.9h1.3c-1.4,2.4-2.3,5.1-2.3,7.9c0,3,0.8,5.9,2.3,8.6h-1.3
			C298.3,15.3,297.4,12.3,297.4,9.1z"/>
		<path fill="#6D6E70" d="M303.2,5.8h1.3v1.5c0,0.4,0,0.8,0,0.8h0c0.4-0.9,1.6-2.5,4-2.5c2.5,0,3.4,1.4,3.4,3.9v6.4h-1.4v-6
			c0-1.6-0.2-3-2.2-3c-1.7,0-3.2,1.2-3.7,2.8c-0.1,0.4-0.2,0.9-0.2,1.4v4.8h-1.4V5.8z"/>
		<path fill="#6D6E70" d="M315.6,7.8h9.3V9h-9.3V7.8z M315.6,11.3h9.3v1.2h-9.3V11.3z"/>
		<path fill="#6D6E70" d="M327.8,11l6.9-9.3h1.5v8.9h2v1.2h-2v3.9h-1.4v-3.9h-7V11z M334.9,10.7V4.8c0-0.6,0.1-1.3,0.1-1.3h0
			c0,0-0.3,0.6-0.7,1.1l-4.7,6.1v0H334.9z"/>
		<path fill="#6D6E70" d="M340.3,14.9c0-4.9,7.2-5.6,7.2-9.4c0-1.5-1.2-2.7-2.9-2.7c-2.1,0-3.1,1.9-3.1,1.9l-1-0.7
			c0,0,1.3-2.5,4.3-2.5c2.7,0,4.3,1.7,4.3,3.9c0,4.7-7.1,5.4-7.1,9.1h7.3v1.2h-8.8C340.3,15.5,340.3,15.2,340.3,14.9z"/>
		<path fill="#6D6E70" d="M351.7,9.5c0-3.5,1.8-7.9,6.2-7.9c1.6,0,2.6,0.6,2.6,0.6l-0.5,1.2c0,0-0.9-0.5-2-0.5
			c-2.9,0-4.4,2.9-4.7,5.6h0c0.7-1,2.1-1.6,3.6-1.6c2.6,0,4.4,1.9,4.4,4.5c0,2.9-2,4.7-4.4,4.7C353.7,16.1,351.7,13.3,351.7,9.5z
			 M359.8,11.4c0-2-1.3-3.3-3.2-3.3c-1.9,0-3.4,1.3-3.4,2.4c0,1.9,1.5,4.3,3.6,4.3C358.6,14.8,359.8,13.3,359.8,11.4z"/>
		<path fill="#6D6E70" d="M363,17.7c1.5-2.7,2.3-5.6,2.3-8.6c0-2.8-0.8-5.4-2.3-7.9h1.3c1.4,2.3,2.3,5,2.3,7.9
			c0,3.2-0.9,6.2-2.3,8.6H363z"/>
		<path fill="#6D6E70" d="M152.5,41l6.9-9.3h1.5v8.9h2v1.2h-2v3.9h-1.4v-3.9h-7V41z M159.6,40.7v-5.9c0-0.6,0.1-1.3,0.1-1.3h0
			c0,0-0.3,0.6-0.7,1.1l-4.7,6.1v0H159.6z"/>
		<path fill="#6D6E70" d="M165.2,38.8c0-4,1.2-7.3,4.9-7.3s4.8,3.2,4.8,7.3c0,4.1-1.2,7.3-4.8,7.3S165.2,42.9,165.2,38.8z
			 M173.5,38.8c0-3.3-0.7-6-3.4-6c-2.7,0-3.4,2.6-3.4,6c0,3.4,0.7,6,3.4,6C172.7,44.8,173.5,42.2,173.5,38.8z"/>
		<path fill="#6D6E70" d="M177.7,38.8c0-4,1.2-7.3,4.9-7.3s4.8,3.2,4.8,7.3c0,4.1-1.2,7.3-4.8,7.3S177.7,42.9,177.7,38.8z M186,38.8
			c0-3.3-0.7-6-3.4-6c-2.7,0-3.4,2.6-3.4,6c0,3.4,0.7,6,3.4,6C185.2,44.8,186,42.2,186,38.8z"/>
		<path fill="#6D6E70" d="M194.7,31h1.3l-5.1,15.7h-1.3L194.7,31z"/>
		<path fill="#6D6E70" d="M200.2,38c-1-0.7-1.7-1.5-1.7-2.9c0-1.8,1.4-3.6,4.2-3.6c2.6,0,4.3,1.5,4.3,3.7c0,2-1.6,3.6-1.7,3.8
			c1.2,0.7,2,1.6,2,3c0,2.2-1.9,4.1-4.7,4.1c-2.5,0-4.8-1.6-4.8-4.3C197.9,39.5,199.9,38.2,200.2,38z M201.4,38.6
			c-0.4,0.3-2,1.4-2,3.2c0,1.9,1.6,3.1,3.3,3.1c1.7,0,3.2-1.1,3.2-2.8C205.9,40.2,203.4,39.6,201.4,38.6z M204.2,38.4
			c0.3-0.2,1.5-1.5,1.5-3.2c0-1.5-1.2-2.4-2.9-2.4c-1.8,0-2.8,1-2.8,2.3C199.9,36.9,202.1,37.6,204.2,38.4z"/>
		<path fill="#6D6E70" d="M210.1,38.8c0-4,1.2-7.3,4.9-7.3s4.8,3.2,4.8,7.3c0,4.1-1.2,7.3-4.8,7.3S210.1,42.9,210.1,38.8z
			 M218.3,38.8c0-3.3-0.7-6-3.4-6c-2.7,0-3.4,2.6-3.4,6c0,3.4,0.7,6,3.4,6C217.6,44.8,218.3,42.2,218.3,38.8z"/>
		<path fill="#6D6E70" d="M222.6,38.8c0-4,1.2-7.3,4.9-7.3s4.8,3.2,4.8,7.3c0,4.1-1.2,7.3-4.8,7.3S222.6,42.9,222.6,38.8z
			 M230.8,38.8c0-3.3-0.7-6-3.4-6c-2.7,0-3.4,2.6-3.4,6c0,3.4,0.7,6,3.4,6C230.1,44.8,230.8,42.2,230.8,38.8z"/>
		<path fill="#6D6E70" d="M239.6,31h1.3l-5.1,15.7h-1.3L239.6,31z"/>
		<path fill="#6D6E70" d="M242.6,44.6h3.2V34.3c0-0.4,0-0.8,0-0.8h0c0,0-0.1,0.3-0.7,0.8l-1.5,1.5l-0.9-0.9l3.2-3.2h1.3v12.8h3.1
			v1.2h-7.6V44.6z"/>
		<path fill="#6D6E70" d="M252,44.9c0-4.9,7.2-5.6,7.2-9.4c0-1.5-1.2-2.7-2.9-2.7c-2.1,0-3.1,1.9-3.1,1.9l-1-0.7
			c0,0,1.3-2.5,4.3-2.5c2.7,0,4.3,1.7,4.3,3.9c0,4.7-7.1,5.4-7.1,9.1h7.3v1.2h-8.8C252.1,45.5,252,45.2,252,44.9z"/>
		<path fill="#6D6E70" d="M263.5,38.8c0-4,1.2-7.3,4.9-7.3c3.7,0,4.8,3.2,4.8,7.3c0,4.1-1.2,7.3-4.8,7.3
			C264.7,46.1,263.5,42.9,263.5,38.8z M271.8,38.8c0-3.3-0.7-6-3.4-6c-2.7,0-3.4,2.6-3.4,6c0,3.4,0.7,6,3.4,6
			C271.1,44.8,271.8,42.2,271.8,38.8z"/>
		<path fill="#6D6E70" d="M276,38.8c0-4,1.2-7.3,4.9-7.3c3.7,0,4.8,3.2,4.8,7.3c0,4.1-1.2,7.3-4.8,7.3C277.2,46.1,276,42.9,276,38.8
			z M284.3,38.8c0-3.3-0.7-6-3.4-6c-2.7,0-3.4,2.6-3.4,6c0,3.4,0.7,6,3.4,6C283.6,44.8,284.3,42.2,284.3,38.8z"/>
		<path fill="#6D6E70" d="M294.1,39.1c0-2.9,0.8-5.5,2.3-7.9h1.3c-1.4,2.4-2.3,5.1-2.3,7.9c0,3,0.8,5.9,2.3,8.6h-1.3
			C295,45.3,294.1,42.3,294.1,39.1z"/>
		<path fill="#6D6E70" d="M300,35.8h1.3v1.5c0,0.4,0,0.8,0,0.8h0c0.4-0.9,1.6-2.5,4-2.5c2.5,0,3.4,1.4,3.4,3.9v6.4h-1.4v-6
			c0-1.6-0.2-3-2.2-3c-1.7,0-3.2,1.2-3.7,2.8c-0.1,0.4-0.2,0.9-0.2,1.4v4.8H300V35.8z"/>
		<path fill="#6D6E70" d="M312.4,37.8h9.3V39h-9.3V37.8z M312.4,41.3h9.3v1.2h-9.3V41.3z"/>
		<path fill="#6D6E70" d="M325,44.6h3.2V34.3c0-0.4,0-0.8,0-0.8h0c0,0-0.1,0.3-0.7,0.8l-1.5,1.5l-0.9-0.9l3.2-3.2h1.3v12.8h3.1v1.2
			H325V44.6z"/>
		<path fill="#6D6E70" d="M334.6,38.8c0-4,1.2-7.3,4.9-7.3c3.7,0,4.8,3.2,4.8,7.3c0,4.1-1.2,7.3-4.8,7.3
			C335.8,46.1,334.6,42.9,334.6,38.8z M342.8,38.8c0-3.3-0.7-6-3.4-6c-2.7,0-3.4,2.6-3.4,6c0,3.4,0.7,6,3.4,6
			C342.1,44.8,342.8,42.2,342.8,38.8z"/>
		<path fill="#6D6E70" d="M346.9,44.9c0-4.9,7.2-5.6,7.2-9.4c0-1.5-1.2-2.7-2.9-2.7c-2.1,0-3.1,1.9-3.1,1.9l-1-0.7
			c0,0,1.3-2.5,4.3-2.5c2.7,0,4.3,1.7,4.3,3.9c0,4.7-7.1,5.4-7.1,9.1h7.3v1.2H347C346.9,45.5,346.9,45.2,346.9,44.9z"/>
		<path fill="#6D6E70" d="M357.7,47.7c1.5-2.7,2.3-5.6,2.3-8.6c0-2.8-0.8-5.4-2.3-7.9h1.3c1.4,2.3,2.3,5,2.3,7.9
			c0,3.2-0.9,6.2-2.3,8.6H357.7z"/>
	</g>
	<g>
		<path fill="#6D6E70" d="M439.8,11l6.9-9.3h1.5v8.9h2v1.2h-2v3.9h-1.4v-3.9h-7V11z M446.8,10.7V4.8c0-0.6,0.1-1.3,0.1-1.3h0
			c0,0-0.3,0.6-0.7,1.1l-4.7,6.1v0H446.8z"/>
		<path fill="#6D6E70" d="M452.4,8.8c0-4,1.2-7.3,4.9-7.3s4.8,3.2,4.8,7.3c0,4.1-1.2,7.3-4.8,7.3S452.4,12.9,452.4,8.8z M460.7,8.8
			c0-3.3-0.7-6-3.4-6c-2.7,0-3.4,2.6-3.4,6c0,3.4,0.7,6,3.4,6C460,14.8,460.7,12.2,460.7,8.8z"/>
		<path fill="#6D6E70" d="M464.9,8.8c0-4,1.2-7.3,4.9-7.3s4.8,3.2,4.8,7.3c0,4.1-1.2,7.3-4.8,7.3S464.9,12.9,464.9,8.8z M473.2,8.8
			c0-3.3-0.7-6-3.4-6c-2.7,0-3.4,2.6-3.4,6c0,3.4,0.7,6,3.4,6C472.5,14.8,473.2,12.2,473.2,8.8z"/>
		<path fill="#6D6E70" d="M481.9,1h1.3l-5.1,15.7h-1.3L481.9,1z"/>
		<path fill="#6D6E70" d="M484.6,11l6.9-9.3h1.5v8.9h2v1.2h-2v3.9h-1.4v-3.9h-7V11z M491.6,10.7V4.8c0-0.6,0.1-1.3,0.1-1.3h0
			c0,0-0.3,0.6-0.7,1.1l-4.7,6.1v0H491.6z"/>
		<path fill="#6D6E70" d="M497.2,8.8c0-4,1.2-7.3,4.9-7.3c3.7,0,4.8,3.2,4.8,7.3c0,4.1-1.2,7.3-4.8,7.3
			C498.4,16.1,497.2,12.9,497.2,8.8z M505.5,8.8c0-3.3-0.7-6-3.4-6c-2.7,0-3.4,2.6-3.4,6c0,3.4,0.7,6,3.4,6
			C504.7,14.8,505.5,12.2,505.5,8.8z"/>
		<path fill="#6D6E70" d="M509.7,8.8c0-4,1.2-7.3,4.9-7.3c3.7,0,4.8,3.2,4.8,7.3c0,4.1-1.2,7.3-4.8,7.3
			C510.9,16.1,509.7,12.9,509.7,8.8z M518,8.8c0-3.3-0.7-6-3.4-6c-2.7,0-3.4,2.6-3.4,6c0,3.4,0.7,6,3.4,6
			C517.2,14.8,518,12.2,518,8.8z"/>
		<path fill="#6D6E70" d="M526.7,1h1.3l-5.1,15.7h-1.3L526.7,1z"/>
		<path fill="#6D6E70" d="M529.3,11l6.9-9.3h1.5v8.9h2v1.2h-2v3.9h-1.4v-3.9h-7V11z M536.4,10.7V4.8c0-0.6,0.1-1.3,0.1-1.3h0
			c0,0-0.3,0.6-0.7,1.1l-4.7,6.1v0H536.4z"/>
		<path fill="#6D6E70" d="M542,8.8c0-4,1.2-7.3,4.9-7.3s4.8,3.2,4.8,7.3c0,4.1-1.2,7.3-4.8,7.3S542,12.9,542,8.8z M550.3,8.8
			c0-3.3-0.7-6-3.4-6c-2.7,0-3.4,2.6-3.4,6c0,3.4,0.7,6,3.4,6C549.5,14.8,550.3,12.2,550.3,8.8z"/>
		<path fill="#6D6E70" d="M554.5,8.8c0-4,1.2-7.3,4.9-7.3s4.8,3.2,4.8,7.3c0,4.1-1.2,7.3-4.8,7.3S554.5,12.9,554.5,8.8z M562.8,8.8
			c0-3.3-0.7-6-3.4-6c-2.7,0-3.4,2.6-3.4,6c0,3.4,0.7,6,3.4,6C562,14.8,562.8,12.2,562.8,8.8z"/>
		<path fill="#6D6E70" d="M572.6,9.1c0-2.9,0.8-5.5,2.3-7.9h1.3c-1.4,2.4-2.3,5.1-2.3,7.9c0,3,0.8,5.9,2.3,8.6h-1.3
			C573.4,15.3,572.6,12.3,572.6,9.1z"/>
		<path fill="#6D6E70" d="M578.4,5.8h1.3v1.5c0,0.4,0,0.8,0,0.8h0c0.4-0.9,1.6-2.5,4-2.5c2.5,0,3.4,1.4,3.4,3.9v6.4h-1.4v-6
			c0-1.6-0.2-3-2.2-3c-1.7,0-3.2,1.2-3.7,2.8c-0.1,0.4-0.2,0.9-0.2,1.4v4.8h-1.4V5.8z"/>
		<path fill="#6D6E70" d="M590.8,7.8h9.3V9h-9.3V7.8z M590.8,11.3h9.3v1.2h-9.3V11.3z"/>
		<path fill="#6D6E70" d="M603.4,14.6h3.2V4.3c0-0.4,0-0.8,0-0.8h0c0,0-0.1,0.3-0.7,0.8l-1.5,1.5l-0.9-0.9l3.2-3.2h1.3v12.8h3.1v1.2
			h-7.6V14.6z"/>
		<path fill="#6D6E70" d="M613.5,15.5l0.5-1.2c0,0,0.9,0.5,2,0.5c3,0,4.4-2.9,4.7-5.6h0c-0.7,1-2.1,1.6-3.6,1.6
			c-2.6,0-4.4-1.9-4.4-4.5c0-2.9,1.9-4.7,4.4-4.7c3.1,0,5.1,2.8,5.1,6.6c0,3.5-1.8,7.9-6.2,7.9C614.5,16.1,613.5,15.5,613.5,15.5z
			 M620.7,7.1c0-1.9-1.5-4.3-3.6-4.3c-1.9,0-3,1.4-3,3.4c0,2,1.3,3.3,3.2,3.3C619.2,9.5,620.7,8.3,620.7,7.1z"/>
		<path fill="#6D6E70" d="M624.8,9.5c0-3.5,1.8-7.9,6.2-7.9c1.6,0,2.6,0.6,2.6,0.6l-0.5,1.2c0,0-0.9-0.5-2-0.5
			c-2.9,0-4.4,2.9-4.7,5.6h0c0.7-1,2.1-1.6,3.6-1.6c2.6,0,4.4,1.9,4.4,4.5c0,2.9-2,4.7-4.4,4.7C626.8,16.1,624.8,13.3,624.8,9.5z
			 M632.9,11.4c0-2-1.3-3.3-3.2-3.3c-1.9,0-3.4,1.3-3.4,2.4c0,1.9,1.5,4.3,3.6,4.3C631.8,14.8,632.9,13.3,632.9,11.4z"/>
		<path fill="#6D6E70" d="M636.1,17.7c1.5-2.7,2.3-5.6,2.3-8.6c0-2.8-0.8-5.4-2.3-7.9h1.3c1.4,2.3,2.3,5,2.3,7.9
			c0,3.2-0.9,6.2-2.3,8.6H636.1z"/>
		<path fill="#6D6E70" d="M442.7,38c-1-0.7-1.7-1.5-1.7-2.9c0-1.8,1.4-3.6,4.2-3.6c2.6,0,4.3,1.5,4.3,3.7c0,2-1.6,3.6-1.7,3.8
			c1.2,0.7,2,1.6,2,3c0,2.2-1.9,4.1-4.7,4.1c-2.5,0-4.8-1.6-4.8-4.3C440.4,39.5,442.4,38.2,442.7,38z M443.8,38.6
			c-0.4,0.3-2,1.4-2,3.2c0,1.9,1.6,3.1,3.3,3.1c1.7,0,3.2-1.1,3.2-2.8C448.4,40.2,445.9,39.6,443.8,38.6z M446.6,38.4
			c0.3-0.2,1.5-1.5,1.5-3.2c0-1.5-1.2-2.4-2.9-2.4c-1.8,0-2.8,1-2.8,2.3C442.3,36.9,444.6,37.6,446.6,38.4z"/>
		<path fill="#6D6E70" d="M452.5,38.8c0-4,1.2-7.3,4.9-7.3s4.8,3.2,4.8,7.3c0,4.1-1.2,7.3-4.8,7.3S452.5,42.9,452.5,38.8z
			 M460.8,38.8c0-3.3-0.7-6-3.4-6c-2.7,0-3.4,2.6-3.4,6c0,3.4,0.7,6,3.4,6C460.1,44.8,460.8,42.2,460.8,38.8z"/>
		<path fill="#6D6E70" d="M465,38.8c0-4,1.2-7.3,4.9-7.3s4.8,3.2,4.8,7.3c0,4.1-1.2,7.3-4.8,7.3S465,42.9,465,38.8z M473.3,38.8
			c0-3.3-0.7-6-3.4-6c-2.7,0-3.4,2.6-3.4,6c0,3.4,0.7,6,3.4,6C472.6,44.8,473.3,42.2,473.3,38.8z"/>
		<path fill="#6D6E70" d="M482,31h1.3l-5.1,15.7H477L482,31z"/>
		<path fill="#6D6E70" d="M487.6,38c-1-0.7-1.7-1.5-1.7-2.9c0-1.8,1.4-3.6,4.2-3.6c2.6,0,4.3,1.5,4.3,3.7c0,2-1.6,3.6-1.7,3.8
			c1.2,0.7,2,1.6,2,3c0,2.2-1.9,4.1-4.7,4.1c-2.5,0-4.8-1.6-4.8-4.3C485.3,39.5,487.2,38.2,487.6,38z M488.7,38.6
			c-0.4,0.3-2,1.4-2,3.2c0,1.9,1.6,3.1,3.3,3.1c1.7,0,3.2-1.1,3.2-2.8C493.3,40.2,490.8,39.6,488.7,38.6z M491.5,38.4
			c0.3-0.2,1.5-1.5,1.5-3.2c0-1.5-1.2-2.4-2.9-2.4c-1.8,0-2.8,1-2.8,2.3C487.2,36.9,489.5,37.6,491.5,38.4z"/>
		<path fill="#6D6E70" d="M497.4,38.8c0-4,1.2-7.3,4.9-7.3c3.7,0,4.8,3.2,4.8,7.3c0,4.1-1.2,7.3-4.8,7.3
			C498.6,46.1,497.4,42.9,497.4,38.8z M505.7,38.8c0-3.3-0.7-6-3.4-6c-2.7,0-3.4,2.6-3.4,6c0,3.4,0.7,6,3.4,6
			C504.9,44.8,505.7,42.2,505.7,38.8z"/>
		<path fill="#6D6E70" d="M509.9,38.8c0-4,1.2-7.3,4.9-7.3c3.7,0,4.8,3.2,4.8,7.3c0,4.1-1.2,7.3-4.8,7.3
			C511.1,46.1,509.9,42.9,509.9,38.8z M518.2,38.8c0-3.3-0.7-6-3.4-6c-2.7,0-3.4,2.6-3.4,6c0,3.4,0.7,6,3.4,6
			C517.4,44.8,518.2,42.2,518.2,38.8z"/>
		<path fill="#6D6E70" d="M526.9,31h1.3l-5.1,15.7h-1.3L526.9,31z"/>
		<path fill="#6D6E70" d="M532.4,38c-1-0.7-1.7-1.5-1.7-2.9c0-1.8,1.4-3.6,4.2-3.6c2.6,0,4.3,1.5,4.3,3.7c0,2-1.6,3.6-1.7,3.8
			c1.2,0.7,2,1.6,2,3c0,2.2-1.9,4.1-4.7,4.1c-2.5,0-4.8-1.6-4.8-4.3C530.1,39.5,532.1,38.2,532.4,38z M533.6,38.6
			c-0.4,0.3-2,1.4-2,3.2c0,1.9,1.6,3.1,3.3,3.1c1.7,0,3.2-1.1,3.2-2.8C538.2,40.2,535.7,39.6,533.6,38.6z M536.4,38.4
			c0.3-0.2,1.5-1.5,1.5-3.2c0-1.5-1.2-2.4-2.9-2.4c-1.8,0-2.8,1-2.8,2.3C532.1,36.9,534.4,37.6,536.4,38.4z"/>
		<path fill="#6D6E70" d="M542.3,38.8c0-4,1.2-7.3,4.9-7.3c3.7,0,4.8,3.2,4.8,7.3c0,4.1-1.2,7.3-4.8,7.3
			C543.5,46.1,542.3,42.9,542.3,38.8z M550.6,38.8c0-3.3-0.7-6-3.4-6c-2.7,0-3.4,2.6-3.4,6c0,3.4,0.7,6,3.4,6
			C549.8,44.8,550.6,42.2,550.6,38.8z"/>
		<path fill="#6D6E70" d="M554.8,38.8c0-4,1.2-7.3,4.9-7.3c3.7,0,4.8,3.2,4.8,7.3c0,4.1-1.2,7.3-4.8,7.3
			C556,46.1,554.8,42.9,554.8,38.8z M563.1,38.8c0-3.3-0.7-6-3.4-6c-2.7,0-3.4,2.6-3.4,6c0,3.4,0.7,6,3.4,6
			C562.3,44.8,563.1,42.2,563.1,38.8z"/>
		<path fill="#6D6E70" d="M572.9,39.1c0-2.9,0.8-5.5,2.3-7.9h1.3c-1.4,2.4-2.3,5.1-2.3,7.9c0,3,0.8,5.9,2.3,8.6h-1.3
			C573.7,45.3,572.9,42.3,572.9,39.1z"/>
		<path fill="#6D6E70" d="M578.7,35.8h1.3v1.5c0,0.4,0,0.8,0,0.8h0c0.4-0.9,1.6-2.5,4-2.5c2.5,0,3.4,1.4,3.4,3.9v6.4h-1.4v-6
			c0-1.6-0.2-3-2.2-3c-1.7,0-3.2,1.2-3.7,2.8c-0.1,0.4-0.2,0.9-0.2,1.4v4.8h-1.4V35.8z"/>
		<path fill="#6D6E70" d="M591.1,37.8h9.3V39h-9.3V37.8z M591.1,41.3h9.3v1.2h-9.3V41.3z"/>
		<path fill="#6D6E70" d="M603.7,44.6h3.2V34.3c0-0.4,0-0.8,0-0.8h0c0,0-0.1,0.3-0.7,0.8l-1.5,1.5l-0.9-0.9l3.2-3.2h1.3v12.8h3.1
			v1.2h-7.6V44.6z"/>
		<path fill="#6D6E70" d="M613.3,38.8c0-4,1.2-7.3,4.9-7.3c3.7,0,4.8,3.2,4.8,7.3c0,4.1-1.2,7.3-4.8,7.3
			C614.5,46.1,613.3,42.9,613.3,38.8z M621.6,38.8c0-3.3-0.7-6-3.4-6c-2.7,0-3.4,2.6-3.4,6c0,3.4,0.7,6,3.4,6
			C620.9,44.8,621.6,42.2,621.6,38.8z"/>
		<path fill="#6D6E70" d="M625.6,44.6h3.2V34.3c0-0.4,0-0.8,0-0.8h0c0,0-0.1,0.3-0.7,0.8l-1.5,1.5l-0.9-0.9l3.2-3.2h1.3v12.8h3.1
			v1.2h-7.6V44.6z"/>
		<path fill="#6D6E70" d="M634.4,47.7c1.5-2.7,2.3-5.6,2.3-8.6c0-2.8-0.8-5.4-2.3-7.9h1.3c1.4,2.3,2.3,5,2.3,7.9
			c0,3.2-0.9,6.2-2.3,8.6H634.4z"/>
	</g>
	<g>
		<path fill="#6D6E70" d="M710.8,11l6.9-9.3h1.5v8.9h2v1.2h-2v3.9h-1.4v-3.9h-7V11z M717.9,10.7V4.8c0-0.6,0.1-1.3,0.1-1.3h0
			c0,0-0.3,0.6-0.7,1.1l-4.7,6.1v0H717.9z"/>
		<path fill="#6D6E70" d="M723.5,8.8c0-4,1.2-7.3,4.9-7.3c3.7,0,4.8,3.2,4.8,7.3c0,4.1-1.2,7.3-4.8,7.3
			C724.7,16.1,723.5,12.9,723.5,8.8z M731.7,8.8c0-3.3-0.7-6-3.4-6c-2.7,0-3.4,2.6-3.4,6c0,3.4,0.7,6,3.4,6
			C731,14.8,731.7,12.2,731.7,8.8z"/>
		<path fill="#6D6E70" d="M736,8.8c0-4,1.2-7.3,4.9-7.3c3.7,0,4.8,3.2,4.8,7.3c0,4.1-1.2,7.3-4.8,7.3C737.2,16.1,736,12.9,736,8.8z
			 M744.2,8.8c0-3.3-0.7-6-3.4-6c-2.7,0-3.4,2.6-3.4,6c0,3.4,0.7,6,3.4,6C743.5,14.8,744.2,12.2,744.2,8.8z"/>
		<path fill="#6D6E70" d="M753,1h1.3l-5.1,15.7h-1.3L753,1z"/>
		<path fill="#6D6E70" d="M755.6,11l6.9-9.3h1.5v8.9h2v1.2h-2v3.9h-1.4v-3.9h-7V11z M762.6,10.7V4.8c0-0.6,0.1-1.3,0.1-1.3h0
			c0,0-0.3,0.6-0.7,1.1l-4.7,6.1v0H762.6z"/>
		<path fill="#6D6E70" d="M768.3,8.8c0-4,1.2-7.3,4.9-7.3c3.7,0,4.8,3.2,4.8,7.3c0,4.1-1.2,7.3-4.8,7.3
			C769.5,16.1,768.3,12.9,768.3,8.8z M776.5,8.8c0-3.3-0.7-6-3.4-6c-2.7,0-3.4,2.6-3.4,6c0,3.4,0.7,6,3.4,6
			C775.8,14.8,776.5,12.2,776.5,8.8z"/>
		<path fill="#6D6E70" d="M780.8,8.8c0-4,1.2-7.3,4.9-7.3c3.7,0,4.8,3.2,4.8,7.3c0,4.1-1.2,7.3-4.8,7.3
			C782,16.1,780.8,12.9,780.8,8.8z M789,8.8c0-3.3-0.7-6-3.4-6c-2.7,0-3.4,2.6-3.4,6c0,3.4,0.7,6,3.4,6C788.3,14.8,789,12.2,789,8.8
			z"/>
		<path fill="#6D6E70" d="M797.8,1h1.3L794,16.7h-1.3L797.8,1z"/>
		<path fill="#6D6E70" d="M803.3,8c-1-0.7-1.7-1.5-1.7-2.9c0-1.8,1.4-3.6,4.2-3.6c2.6,0,4.3,1.5,4.3,3.7c0,2-1.6,3.6-1.7,3.8
			c1.2,0.7,2,1.6,2,3c0,2.2-1.9,4.1-4.7,4.1c-2.5,0-4.8-1.6-4.8-4.3C801,9.5,803,8.2,803.3,8z M804.4,8.6c-0.4,0.3-2,1.4-2,3.2
			c0,1.9,1.6,3.1,3.3,3.1c1.7,0,3.2-1.1,3.2-2.8C809,10.2,806.5,9.6,804.4,8.6z M807.2,8.4c0.3-0.2,1.5-1.5,1.5-3.2
			c0-1.5-1.2-2.4-2.9-2.4c-1.8,0-2.8,1-2.8,2.3C802.9,6.9,805.2,7.6,807.2,8.4z"/>
		<path fill="#6D6E70" d="M813.1,8.8c0-4,1.2-7.3,4.9-7.3c3.7,0,4.8,3.2,4.8,7.3c0,4.1-1.2,7.3-4.8,7.3
			C814.3,16.1,813.1,12.9,813.1,8.8z M821.4,8.8c0-3.3-0.7-6-3.4-6c-2.7,0-3.4,2.6-3.4,6c0,3.4,0.7,6,3.4,6
			C820.7,14.8,821.4,12.2,821.4,8.8z"/>
		<path fill="#6D6E70" d="M825.6,8.8c0-4,1.2-7.3,4.9-7.3c3.7,0,4.8,3.2,4.8,7.3c0,4.1-1.2,7.3-4.8,7.3
			C826.8,16.1,825.6,12.9,825.6,8.8z M833.9,8.8c0-3.3-0.7-6-3.4-6c-2.7,0-3.4,2.6-3.4,6c0,3.4,0.7,6,3.4,6
			C833.2,14.8,833.9,12.2,833.9,8.8z"/>
		<path fill="#6D6E70" d="M843.7,9.1c0-2.9,0.8-5.5,2.3-7.9h1.3c-1.4,2.4-2.3,5.1-2.3,7.9c0,3,0.8,5.9,2.3,8.6H846
			C844.6,15.3,843.7,12.3,843.7,9.1z"/>
		<path fill="#6D6E70" d="M849.6,5.8h1.3v1.5c0,0.4,0,0.8,0,0.8h0c0.4-0.9,1.6-2.5,4-2.5c2.5,0,3.4,1.4,3.4,3.9v6.4h-1.4v-6
			c0-1.6-0.2-3-2.2-3c-1.7,0-3.2,1.2-3.7,2.8c-0.1,0.4-0.2,0.9-0.2,1.4v4.8h-1.4V5.8z"/>
		<path fill="#6D6E70" d="M862,7.8h9.3V9H862V7.8z M862,11.3h9.3v1.2H862V11.3z"/>
		<path fill="#6D6E70" d="M874.7,14.9c0-4.9,7.2-5.6,7.2-9.4c0-1.5-1.2-2.7-2.9-2.7c-2.1,0-3.1,1.9-3.1,1.9l-1-0.7
			c0,0,1.3-2.5,4.3-2.5c2.7,0,4.3,1.7,4.3,3.9c0,4.7-7.1,5.4-7.1,9.1h7.3v1.2h-8.8C874.7,15.5,874.7,15.2,874.7,14.9z"/>
		<path fill="#6D6E70" d="M885.9,14.6h3.2V4.3c0-0.4,0-0.8,0-0.8h0c0,0-0.1,0.3-0.7,0.8l-1.5,1.5l-0.9-0.9l3.2-3.2h1.3v12.8h3.1v1.2
			h-7.6V14.6z"/>
		<path fill="#6D6E70" d="M895.4,9.5c0-3.5,1.8-7.9,6.2-7.9c1.6,0,2.6,0.6,2.6,0.6l-0.5,1.2c0,0-0.9-0.5-2-0.5
			c-2.9,0-4.4,2.9-4.7,5.6h0c0.7-1,2.1-1.6,3.6-1.6c2.6,0,4.4,1.9,4.4,4.5c0,2.9-2,4.7-4.4,4.7C897.4,16.1,895.4,13.3,895.4,9.5z
			 M903.5,11.4c0-2-1.3-3.3-3.2-3.3c-1.9,0-3.4,1.3-3.4,2.4c0,1.9,1.5,4.3,3.6,4.3C902.3,14.8,903.5,13.3,903.5,11.4z"/>
		<path fill="#6D6E70" d="M906.7,17.7c1.5-2.7,2.3-5.6,2.3-8.6c0-2.8-0.8-5.4-2.3-7.9h1.3c1.4,2.3,2.3,5,2.3,7.9
			c0,3.2-0.9,6.2-2.3,8.6H906.7z"/>
		<path fill="#6D6E70" d="M713.7,38c-1-0.7-1.7-1.5-1.7-2.9c0-1.8,1.4-3.6,4.2-3.6c2.6,0,4.3,1.5,4.3,3.7c0,2-1.6,3.6-1.7,3.8
			c1.2,0.7,2,1.6,2,3c0,2.2-1.9,4.1-4.7,4.1c-2.5,0-4.8-1.6-4.8-4.3C711.4,39.5,713.4,38.2,713.7,38z M714.9,38.6
			c-0.4,0.3-2,1.4-2,3.2c0,1.9,1.6,3.1,3.3,3.1c1.7,0,3.2-1.1,3.2-2.8C719.4,40.2,716.9,39.6,714.9,38.6z M717.7,38.4
			c0.3-0.2,1.5-1.5,1.5-3.2c0-1.5-1.2-2.4-2.9-2.4c-1.8,0-2.8,1-2.8,2.3C713.4,36.9,715.6,37.6,717.7,38.4z"/>
		<path fill="#6D6E70" d="M723.6,38.8c0-4,1.2-7.3,4.9-7.3c3.7,0,4.8,3.2,4.8,7.3c0,4.1-1.2,7.3-4.8,7.3
			C724.8,46.1,723.6,42.9,723.6,38.8z M731.8,38.8c0-3.3-0.7-6-3.4-6c-2.7,0-3.4,2.6-3.4,6c0,3.4,0.7,6,3.4,6
			C731.1,44.8,731.8,42.2,731.8,38.8z"/>
		<path fill="#6D6E70" d="M736.1,38.8c0-4,1.2-7.3,4.9-7.3c3.7,0,4.8,3.2,4.8,7.3c0,4.1-1.2,7.3-4.8,7.3
			C737.3,46.1,736.1,42.9,736.1,38.8z M744.3,38.8c0-3.3-0.7-6-3.4-6c-2.7,0-3.4,2.6-3.4,6c0,3.4,0.7,6,3.4,6
			C743.6,44.8,744.3,42.2,744.3,38.8z"/>
		<path fill="#6D6E70" d="M753.1,31h1.3l-5.1,15.7H748L753.1,31z"/>
		<path fill="#6D6E70" d="M758.6,38c-1-0.7-1.7-1.5-1.7-2.9c0-1.8,1.4-3.6,4.2-3.6c2.6,0,4.3,1.5,4.3,3.7c0,2-1.6,3.6-1.7,3.8
			c1.2,0.7,2,1.6,2,3c0,2.2-1.9,4.1-4.7,4.1c-2.5,0-4.8-1.6-4.8-4.3C756.3,39.5,758.3,38.2,758.6,38z M759.7,38.6
			c-0.4,0.3-2,1.4-2,3.2c0,1.9,1.6,3.1,3.3,3.1c1.7,0,3.2-1.1,3.2-2.8C764.3,40.2,761.8,39.6,759.7,38.6z M762.5,38.4
			c0.3-0.2,1.5-1.5,1.5-3.2c0-1.5-1.2-2.4-2.9-2.4c-1.8,0-2.8,1-2.8,2.3C758.3,36.9,760.5,37.6,762.5,38.4z"/>
		<path fill="#6D6E70" d="M768.5,38.8c0-4,1.2-7.3,4.9-7.3c3.7,0,4.8,3.2,4.8,7.3c0,4.1-1.2,7.3-4.8,7.3
			C769.7,46.1,768.5,42.9,768.5,38.8z M776.7,38.8c0-3.3-0.7-6-3.4-6c-2.7,0-3.4,2.6-3.4,6c0,3.4,0.7,6,3.4,6
			C776,44.8,776.7,42.2,776.7,38.8z"/>
		<path fill="#6D6E70" d="M781,38.8c0-4,1.2-7.3,4.9-7.3c3.7,0,4.8,3.2,4.8,7.3c0,4.1-1.2,7.3-4.8,7.3C782.2,46.1,781,42.9,781,38.8
			z M789.2,38.8c0-3.3-0.7-6-3.4-6c-2.7,0-3.4,2.6-3.4,6c0,3.4,0.7,6,3.4,6C788.5,44.8,789.2,42.2,789.2,38.8z"/>
		<path fill="#6D6E70" d="M798,31h1.3l-5.1,15.7h-1.3L798,31z"/>
		<path fill="#6D6E70" d="M801,44.6h3.2V34.3c0-0.4,0-0.8,0-0.8h0c0,0-0.1,0.3-0.7,0.8l-1.5,1.5l-0.9-0.9l3.2-3.2h1.3v12.8h3.1v1.2
			H801V44.6z"/>
		<path fill="#6D6E70" d="M810.4,44.9c0-4.9,7.2-5.6,7.2-9.4c0-1.5-1.2-2.7-2.9-2.7c-2.1,0-3.1,1.9-3.1,1.9l-1-0.7
			c0,0,1.3-2.5,4.3-2.5c2.7,0,4.3,1.7,4.3,3.9c0,4.7-7.1,5.4-7.1,9.1h7.3v1.2h-8.8C810.4,45.5,810.4,45.2,810.4,44.9z"/>
		<path fill="#6D6E70" d="M821.9,38.8c0-4,1.2-7.3,4.9-7.3c3.7,0,4.8,3.2,4.8,7.3c0,4.1-1.2,7.3-4.8,7.3
			C823.1,46.1,821.9,42.9,821.9,38.8z M830.2,38.8c0-3.3-0.7-6-3.4-6c-2.7,0-3.4,2.6-3.4,6c0,3.4,0.7,6,3.4,6
			C829.4,44.8,830.2,42.2,830.2,38.8z"/>
		<path fill="#6D6E70" d="M834.4,38.8c0-4,1.2-7.3,4.9-7.3c3.7,0,4.8,3.2,4.8,7.3c0,4.1-1.2,7.3-4.8,7.3
			C835.6,46.1,834.4,42.9,834.4,38.8z M842.7,38.8c0-3.3-0.7-6-3.4-6c-2.7,0-3.4,2.6-3.4,6c0,3.4,0.7,6,3.4,6
			C841.9,44.8,842.7,42.2,842.7,38.8z"/>
		<path fill="#6D6E70" d="M852.5,39.1c0-2.9,0.8-5.5,2.3-7.9h1.3c-1.4,2.4-2.3,5.1-2.3,7.9c0,3,0.8,5.9,2.3,8.6h-1.3
			C853.4,45.3,852.5,42.3,852.5,39.1z"/>
		<path fill="#6D6E70" d="M858.3,35.8h1.3v1.5c0,0.4,0,0.8,0,0.8h0c0.4-0.9,1.6-2.5,4-2.5c2.5,0,3.4,1.4,3.4,3.9v6.4h-1.4v-6
			c0-1.6-0.2-3-2.2-3c-1.7,0-3.2,1.2-3.7,2.8c-0.1,0.4-0.2,0.9-0.2,1.4v4.8h-1.4V35.8z"/>
		<path fill="#6D6E70" d="M870.7,37.8h9.3V39h-9.3V37.8z M870.7,41.3h9.3v1.2h-9.3V41.3z"/>
		<path fill="#6D6E70" d="M884,43.1c0,0,1.4,1.7,3.6,1.7c1.7,0,3.2-1.2,3.2-3c0-2-1.7-3-3.5-3h-1l-0.3-0.8l3.5-4.1
			c0.4-0.4,0.7-0.8,0.7-0.8v0c0,0-0.4,0.1-1.1,0.1h-5.3v-1.2h8.2v0.9l-4.2,4.8c1.8,0.1,4.4,1.1,4.4,4.1c0,2.4-2,4.4-4.6,4.4
			c-2.8,0-4.5-1.9-4.5-1.9L884,43.1z"/>
		<path fill="#6D6E70" d="M894.9,38.8c0-4,1.2-7.3,4.9-7.3c3.7,0,4.8,3.2,4.8,7.3c0,4.1-1.2,7.3-4.8,7.3
			C896.1,46.1,894.9,42.9,894.9,38.8z M903.1,38.8c0-3.3-0.7-6-3.4-6c-2.7,0-3.4,2.6-3.4,6c0,3.4,0.7,6,3.4,6
			C902.4,44.8,903.1,42.2,903.1,38.8z"/>
		<path fill="#6D6E70" d="M909.6,38c-1-0.7-1.7-1.5-1.7-2.9c0-1.8,1.4-3.6,4.2-3.6c2.6,0,4.3,1.5,4.3,3.7c0,2-1.6,3.6-1.7,3.8
			c1.2,0.7,2,1.6,2,3c0,2.2-1.9,4.1-4.7,4.1c-2.5,0-4.8-1.6-4.8-4.3C907.3,39.5,909.2,38.2,909.6,38z M910.7,38.6
			c-0.4,0.3-2,1.4-2,3.2c0,1.9,1.6,3.1,3.3,3.1c1.7,0,3.2-1.1,3.2-2.8C915.3,40.2,912.8,39.6,910.7,38.6z M913.5,38.4
			c0.3-0.2,1.5-1.5,1.5-3.2c0-1.5-1.2-2.4-2.9-2.4c-1.8,0-2.8,1-2.8,2.3C909.2,36.9,911.5,37.6,913.5,38.4z"/>
		<path fill="#6D6E70" d="M918.7,47.7c1.5-2.7,2.3-5.6,2.3-8.6c0-2.8-0.8-5.4-2.3-7.9h1.3c1.4,2.3,2.3,5,2.3,7.9
			c0,3.2-0.9,6.2-2.3,8.6H918.7z"/>
	</g>
	<g>
		<path fill="#6D6E70" d="M992.5,11l6.9-9.3h1.5v8.9h2v1.2h-2v3.9h-1.4v-3.9h-7V11z M999.5,10.7V4.8c0-0.6,0.1-1.3,0.1-1.3h0
			c0,0-0.3,0.6-0.7,1.1l-4.7,6.1v0H999.5z"/>
		<path fill="#6D6E70" d="M1005.1,8.8c0-4,1.2-7.3,4.9-7.3c3.7,0,4.8,3.2,4.8,7.3c0,4.1-1.2,7.3-4.8,7.3
			C1006.3,16.1,1005.1,12.9,1005.1,8.8z M1013.4,8.8c0-3.3-0.7-6-3.4-6c-2.7,0-3.4,2.6-3.4,6c0,3.4,0.7,6,3.4,6
			C1012.6,14.8,1013.4,12.2,1013.4,8.8z"/>
		<path fill="#6D6E70" d="M1017.6,8.8c0-4,1.2-7.3,4.9-7.3c3.7,0,4.8,3.2,4.8,7.3c0,4.1-1.2,7.3-4.8,7.3
			C1018.8,16.1,1017.6,12.9,1017.6,8.8z M1025.9,8.8c0-3.3-0.7-6-3.4-6c-2.7,0-3.4,2.6-3.4,6c0,3.4,0.7,6,3.4,6
			C1025.1,14.8,1025.9,12.2,1025.9,8.8z"/>
		<path fill="#6D6E70" d="M1034.6,1h1.3l-5.1,15.7h-1.3L1034.6,1z"/>
		<path fill="#6D6E70" d="M1040.1,8c-1-0.7-1.7-1.5-1.7-2.9c0-1.8,1.4-3.6,4.2-3.6c2.6,0,4.3,1.5,4.3,3.7c0,2-1.6,3.6-1.7,3.8
			c1.2,0.7,2,1.6,2,3c0,2.2-1.9,4.1-4.7,4.1c-2.5,0-4.8-1.6-4.8-4.3C1037.8,9.5,1039.8,8.2,1040.1,8z M1041.3,8.6
			c-0.4,0.3-2,1.4-2,3.2c0,1.9,1.6,3.1,3.3,3.1c1.7,0,3.2-1.1,3.2-2.8C1045.8,10.2,1043.4,9.6,1041.3,8.6z M1044.1,8.4
			c0.3-0.2,1.5-1.5,1.5-3.2c0-1.5-1.2-2.4-2.9-2.4c-1.8,0-2.8,1-2.8,2.3C1039.8,6.9,1042.1,7.6,1044.1,8.4z"/>
		<path fill="#6D6E70" d="M1050,8.8c0-4,1.2-7.3,4.9-7.3c3.7,0,4.8,3.2,4.8,7.3c0,4.1-1.2,7.3-4.8,7.3
			C1051.2,16.1,1050,12.9,1050,8.8z M1058.3,8.8c0-3.3-0.7-6-3.4-6c-2.7,0-3.4,2.6-3.4,6c0,3.4,0.7,6,3.4,6
			C1057.5,14.8,1058.3,12.2,1058.3,8.8z"/>
		<path fill="#6D6E70" d="M1062.5,8.8c0-4,1.2-7.3,4.9-7.3c3.7,0,4.8,3.2,4.8,7.3c0,4.1-1.2,7.3-4.8,7.3
			C1063.7,16.1,1062.5,12.9,1062.5,8.8z M1070.8,8.8c0-3.3-0.7-6-3.4-6c-2.7,0-3.4,2.6-3.4,6c0,3.4,0.7,6,3.4,6
			C1070,14.8,1070.8,12.2,1070.8,8.8z"/>
		<path fill="#6D6E70" d="M1079.5,1h1.3l-5.1,15.7h-1.3L1079.5,1z"/>
		<path fill="#6D6E70" d="M1085,8c-1-0.7-1.7-1.5-1.7-2.9c0-1.8,1.4-3.6,4.2-3.6c2.6,0,4.3,1.5,4.3,3.7c0,2-1.6,3.6-1.7,3.8
			c1.2,0.7,2,1.6,2,3c0,2.2-1.9,4.1-4.7,4.1c-2.5,0-4.8-1.6-4.8-4.3C1082.7,9.5,1084.7,8.2,1085,8z M1086.2,8.6
			c-0.4,0.3-2,1.4-2,3.2c0,1.9,1.6,3.1,3.3,3.1c1.7,0,3.2-1.1,3.2-2.8C1090.7,10.2,1088.2,9.6,1086.2,8.6z M1089,8.4
			c0.3-0.2,1.5-1.5,1.5-3.2c0-1.5-1.2-2.4-2.9-2.4c-1.8,0-2.8,1-2.8,2.3C1084.7,6.9,1086.9,7.6,1089,8.4z"/>
		<path fill="#6D6E70" d="M1094.9,8.8c0-4,1.2-7.3,4.9-7.3c3.7,0,4.8,3.2,4.8,7.3c0,4.1-1.2,7.3-4.8,7.3
			C1096.1,16.1,1094.9,12.9,1094.9,8.8z M1103.1,8.8c0-3.3-0.7-6-3.4-6c-2.7,0-3.4,2.6-3.4,6c0,3.4,0.7,6,3.4,6
			C1102.4,14.8,1103.1,12.2,1103.1,8.8z"/>
		<path fill="#6D6E70" d="M1107.4,8.8c0-4,1.2-7.3,4.9-7.3c3.7,0,4.8,3.2,4.8,7.3c0,4.1-1.2,7.3-4.8,7.3
			C1108.6,16.1,1107.4,12.9,1107.4,8.8z M1115.6,8.8c0-3.3-0.7-6-3.4-6c-2.7,0-3.4,2.6-3.4,6c0,3.4,0.7,6,3.4,6
			C1114.9,14.8,1115.6,12.2,1115.6,8.8z"/>
		<path fill="#6D6E70" d="M1125.5,9.1c0-2.9,0.8-5.5,2.3-7.9h1.3c-1.4,2.4-2.3,5.1-2.3,7.9c0,3,0.8,5.9,2.3,8.6h-1.3
			C1126.3,15.3,1125.5,12.3,1125.5,9.1z"/>
		<path fill="#6D6E70" d="M1131.3,5.8h1.3v1.5c0,0.4,0,0.8,0,0.8h0c0.4-0.9,1.6-2.5,4-2.5c2.5,0,3.4,1.4,3.4,3.9v6.4h-1.4v-6
			c0-1.6-0.2-3-2.2-3c-1.7,0-3.2,1.2-3.7,2.8c-0.1,0.4-0.2,0.9-0.2,1.4v4.8h-1.4V5.8z"/>
		<path fill="#6D6E70" d="M1143.7,7.8h9.3V9h-9.3V7.8z M1143.7,11.3h9.3v1.2h-9.3V11.3z"/>
		<path fill="#6D6E70" d="M1157,15.5l0.5-1.2c0,0,0.9,0.5,2,0.5c3,0,4.4-2.9,4.7-5.6h0c-0.7,1-2.1,1.6-3.6,1.6
			c-2.6,0-4.4-1.9-4.4-4.5c0-2.9,1.9-4.7,4.4-4.7c3.1,0,5.1,2.8,5.1,6.6c0,3.5-1.8,7.9-6.2,7.9C1158.1,16.1,1157,15.5,1157,15.5z
			 M1164.3,7.1c0-1.9-1.5-4.3-3.6-4.3c-1.9,0-3,1.4-3,3.4c0,2,1.3,3.3,3.2,3.3C1162.8,9.5,1164.3,8.3,1164.3,7.1z"/>
		<path fill="#6D6E70" d="M1170.7,8c-1-0.7-1.7-1.5-1.7-2.9c0-1.8,1.4-3.6,4.2-3.6c2.6,0,4.3,1.5,4.3,3.7c0,2-1.6,3.6-1.7,3.8
			c1.2,0.7,2,1.6,2,3c0,2.2-1.9,4.1-4.7,4.1c-2.5,0-4.8-1.6-4.8-4.3C1168.4,9.5,1170.3,8.2,1170.7,8z M1171.8,8.6
			c-0.4,0.3-2,1.4-2,3.2c0,1.9,1.6,3.1,3.3,3.1c1.7,0,3.2-1.1,3.2-2.8C1176.4,10.2,1173.9,9.6,1171.8,8.6z M1174.6,8.4
			c0.3-0.2,1.5-1.5,1.5-3.2c0-1.5-1.2-2.4-2.9-2.4c-1.8,0-2.8,1-2.8,2.3C1170.3,6.9,1172.6,7.6,1174.6,8.4z"/>
		<path fill="#6D6E70" d="M1179.8,17.7c1.5-2.7,2.3-5.6,2.3-8.6c0-2.8-0.8-5.4-2.3-7.9h1.3c1.4,2.3,2.3,5,2.3,7.9
			c0,3.2-0.9,6.2-2.3,8.6H1179.8z"/>
	</g>
	<rect x="126.8" y="0" fill="#A6A8AB" width="15" height="15"/>
	<rect x="126.8" y="31.4" fill="#F7921E" width="15" height="15"/>
	<rect x="414.1" y="0" fill="#FDDEBB" width="15" height="15"/>
	<rect x="414.1" y="31.4" fill="#80BEDA" width="15" height="15"/>
	<rect x="685.1" y="0" fill="#FBC88E" width="15" height="15"/>
	<rect x="966.8" y="0" fill="#F9AD56" width="15" height="15"/>
	<rect x="685.1" y="31.4" fill="#007DB4" width="15" height="15"/>
</g>
</svg>
