<?xml version="1.0" encoding="utf-8"?>
<!-- Generator: Adobe Illustrator 18.1.1, SVG Export Plug-In . SVG Version: 6.00 Build 0)  -->
<svg version="1.1" id="Layer_1" xmlns="http://www.w3.org/2000/svg" xmlns:xlink="http://www.w3.org/1999/xlink" x="0px" y="0px"
	 viewBox="57.7 349.4 160 119.8" enable-background="new 57.7 349.4 160 119.8" xml:space="preserve">
<g>
	<g>
		<path fill="#6D6E71" d="M152.5,365.6h-2.1v-13.5l-2.4,1.6v-2c0.5-0.2,2.1-1.4,2.7-1.9h1.8V365.6L152.5,365.6z"/>
		<path fill="#6D6E71" d="M157,365.6v-1.9c4.7-6.5,6-7.7,6-10.4c0-1.3-0.6-2.1-2-2.1c-1.6,0-1.9,1.4-1.9,2.6h-2.2
			c-0.2-2.6,1.2-4.4,3.8-4.4c2.9,0,4.3,1.4,4.3,4.2c0,3.5-1.8,4.8-5.9,10.1h6.4v1.9L157,365.6L157,365.6z"/>
		<path fill="#6D6E71" d="M175.5,357.7c0,4.2,0,8.2-4.3,8.2c-4.3,0-4.3-4.1-4.3-8.2c0-4.3-0.1-8.2,4.3-8.2
			C175.6,349.5,175.5,353.4,175.5,357.7z M169,358.1c0,2.7-0.2,6,2.2,6c2.4,0,2.2-3.3,2.2-6c0-4.3,0-6.8-2.2-6.8
			C169,351.2,169,353.9,169,358.1z"/>
		<path fill="#6D6E71" d="M185.6,357.7c0,4.2,0,8.2-4.3,8.2s-4.3-4.1-4.3-8.2c0-4.3-0.1-8.2,4.3-8.2
			C185.8,349.5,185.6,353.4,185.6,357.7z M179.2,358.1c0,2.7-0.2,6,2.2,6c2.4,0,2.2-3.3,2.2-6c0-4.3,0-6.8-2.2-6.8
			S179.2,353.9,179.2,358.1z"/>
		<path fill="#6D6E71" d="M198.8,365.6v-8c0-1.2-0.3-2.3-1.9-2.3c-0.5,0-1.4,0.3-1.7,0.7c-0.3,0.6-0.4,1.3-0.4,1.7v7.8H193v-9.2
			c0-0.8,0-1.6-0.1-2.4h2v1.5l0,0c0.5-1.3,1.6-1.7,2.9-1.7c1,0,2.3,0.4,2.7,1.5c0.6-1.3,1.7-1.5,2.7-1.5c1.3,0,3.1,0.3,3.1,3v8.7
			h-1.7v-8c0-1.2-0.3-2.3-1.9-2.3c-0.7,0-0.9,0-1.5,0.4c-0.5,0.4-0.6,1.6-0.6,2.1v7.8h-1.9v0.1H198.8z"/>
		<path fill="#6D6E71" d="M215.8,354h1.9v12.7c0,2.6-1.7,3.2-4.3,3.2c-1.9,0-3.6-0.9-3.5-3.1h2.1c0,1,0.7,1.7,1.8,1.7
			c1.4,0,2-0.8,2-2v-2.4h-0.1c-0.5,0.9-1.6,1.5-2.5,1.5c-3.1,0-3.7-2.7-3.7-6.1c0-5.3,2.7-5.6,3.6-5.6c1.3,0,2.2,0.5,2.7,1.7l0,0
			L215.8,354L215.8,354L215.8,354z M213.6,355.4c-2.1,0-2.2,2.6-2.2,4.1c0,3.7,0.8,4.6,2.3,4.6c2.3,0,2.2-2.7,2.2-4.3
			C215.9,358,216,355.4,213.6,355.4z"/>
	</g>
</g>
<g>
	<g>
		<path fill="#6D6E71" d="M57.9,397.3c0-4.3-0.1-8.2,4.3-8.2c2.4,0,4.1,1.5,3.9,3.8H64c0-1.2-0.6-2.3-1.9-2.3
			c-1.8,0-2.2,1.6-2.2,5.7l0,0c0.5-0.9,1.5-1.5,2.6-1.5c2.1,0,3.7,1.2,3.7,5.3c0,2.8-1.2,5.3-4.3,5.3
			C57.9,405.5,57.9,401.5,57.9,397.3z M62.2,403.8c1.8,0,2-1.9,2-3.9c0-1.5-0.3-3.2-2.2-3.2s-2.1,2-2.1,3.4
			C60.1,401.7,60.3,403.8,62.2,403.8z"/>
		<path fill="#6D6E71" d="M76.6,397.3c0,4.2,0,8.2-4.3,8.2s-4.3-4.1-4.3-8.2c0-4.3-0.1-8.2,4.3-8.2
			C76.7,389.1,76.6,393.1,76.6,397.3z M70.1,397.7c0,2.7-0.2,6,2.2,6c2.4,0,2.2-3.3,2.2-6c0-4.3,0-6.8-2.2-6.8
			C70.1,390.9,70.1,393.5,70.1,397.7z"/>
		<path fill="#6D6E71" d="M86.8,397.3c0,4.2,0,8.2-4.3,8.2c-4.3,0-4.3-4.1-4.3-8.2c0-4.3-0.1-8.2,4.3-8.2
			C86.9,389.1,86.8,393.1,86.8,397.3z M80.2,397.7c0,2.7-0.2,6,2.2,6c2.4,0,2.2-3.3,2.2-6c0-4.3,0-6.8-2.2-6.8
			C80.2,390.9,80.2,393.5,80.2,397.7z"/>
		<path fill="#6D6E71" d="M99.9,405.2v-8c0-1.2-0.3-2.3-1.9-2.3c-0.6,0-1.4,0.3-1.7,0.7c-0.3,0.6-0.4,1.3-0.4,1.7v7.8H94V396
			c0-0.8,0-1.6-0.1-2.4h2v1.5l0,0c0.5-1.3,1.6-1.7,2.9-1.7c1,0,2.3,0.4,2.7,1.5c0.6-1.3,1.7-1.5,2.7-1.5c1.3,0,3.1,0.3,3.1,3v8.7
			h-1.9v-7.9c0-1.2-0.3-2.3-1.9-2.3c-0.7,0-0.9,0-1.5,0.4s-0.6,1.6-0.6,2.1v7.8L99.9,405.2L99.9,405.2z"/>
		<path fill="#6D6E71" d="M116.8,393.7h1.9v12.7c0,2.6-1.7,3.2-4.3,3.2c-1.9,0-3.6-0.9-3.5-3.1h2.1c0,1,0.7,1.7,1.8,1.7
			c1.4,0,2-0.8,2-2v-2.4h-0.1c-0.5,0.9-1.6,1.5-2.5,1.5c-3.1,0-3.7-2.7-3.7-6.1c0-5.3,2.7-5.6,3.6-5.6c1.3,0,2.2,0.5,2.7,1.7l0,0
			L116.8,393.7L116.8,393.7z M114.6,395c-2.1,0-2.2,2.6-2.2,4.1c0,3.7,0.8,4.6,2.3,4.6c2.3,0,2.2-2.7,2.2-4.3
			C116.9,397.6,117,395,114.6,395z"/>
	</g>
</g>
<g>
	<g>
		<path fill="#6D6E71" d="M162.4,415.4c2.3,0.2,2.9,2.1,2.9,4.2c0,2.9-1.5,4.6-4.3,4.6c-2.8,0-4.3-1.8-4.3-4.6
			c0-2.1,0.6-3.8,2.9-4.2l0,0c-1.9-0.4-2.8-1.9-2.8-3.7c0-2.5,1.6-3.9,4.1-3.9c2.5,0,4.1,1.4,4.1,3.9
			C165.1,413.4,164.2,415,162.4,415.4L162.4,415.4z M163.1,419.5c0-1.5-0.2-3.2-2.1-3.2c-2,0-2.1,1.9-2.1,3.2c0,1.4,0.5,2.8,2.1,2.8
			C162.6,422.4,163.1,420.9,163.1,419.5z M163,411.6c0-1.2-0.6-2.4-2-2.4c-1.4,0-2,1.2-2,2.4c0,1.2,0.4,2.9,2,2.9
			C162.6,414.5,163,412.7,163,411.6z"/>
		<path fill="#6D6E71" d="M175.5,415.9c0,4.2,0,8.2-4.3,8.2c-4.3,0-4.3-4.1-4.3-8.2c0-4.3-0.1-8.2,4.3-8.2
			C175.6,407.7,175.5,411.6,175.5,415.9z M169,416.3c0,2.7-0.2,6,2.2,6c2.4,0,2.2-3.3,2.2-6c0-4.3,0-6.8-2.2-6.8
			C169,409.5,169,412.1,169,416.3z"/>
		<path fill="#6D6E71" d="M185.6,415.9c0,4.2,0,8.2-4.3,8.2s-4.3-4.1-4.3-8.2c0-4.3-0.1-8.2,4.3-8.2
			C185.8,407.7,185.6,411.6,185.6,415.9z M179.1,416.3c0,2.7-0.2,6,2.2,6c2.4,0,2.2-3.3,2.2-6c0-4.3,0-6.8-2.2-6.8
			S179.1,412.1,179.1,416.3z"/>
		<path fill="#6D6E71" d="M198.7,423.7v-8c0-1.2-0.3-2.3-1.9-2.3c-0.6,0-1.4,0.3-1.7,0.7c-0.3,0.5-0.4,1.3-0.4,1.7v7.8h-1.8v-9.2
			c0-0.8,0-1.6-0.1-2.4h2v1.5l0,0c0.5-1.3,1.6-1.7,2.9-1.7c1,0,2.3,0.4,2.7,1.5c0.6-1.3,1.7-1.5,2.7-1.5c1.3,0,3.1,0.3,3.1,3v8.7
			h-1.9v-8c0-1.2-0.3-2.3-1.9-2.3c-0.7,0-0.9,0-1.5,0.4c-0.5,0.4-0.6,1.6-0.6,2.1v7.8L198.7,423.7L198.7,423.7L198.7,423.7z"/>
		<path fill="#6D6E71" d="M215.7,412.2h1.9v12.7c0,2.6-1.8,3.2-4.3,3.2c-1.9,0-3.6-0.9-3.5-3.1h2.1c0,1,0.7,1.7,1.8,1.7
			c1.4,0,2-0.8,2-2v-2.4h-0.1c-0.5,0.9-1.6,1.5-2.5,1.5c-3.1,0-3.7-2.7-3.7-6.1c0-5.3,2.7-5.6,3.6-5.6c1.3,0,2.2,0.5,2.7,1.7l0,0
			L215.7,412.2L215.7,412.2L215.7,412.2z M213.5,413.5c-2.1,0-2.2,2.6-2.2,4.1c0,3.7,0.8,4.6,2.3,4.6c2.3,0,2.2-2.7,2.2-4.3
			C215.8,416.2,215.9,413.5,213.5,413.5z"/>
	</g>
</g>
<g>
	<g>
		<path fill="#6D6E71" d="M57.7,461v-1.9l4.5-10.2h2.8v10.2h1.9v1.9h-1.9v3.8h-2V461H57.7z M63,459.3v-8.2l0,0l-3.4,8.2H63z"/>
		<path fill="#6D6E71" d="M76.6,457.1c0,4.2,0,8.2-4.3,8.2s-4.3-4.1-4.3-8.2c0-4.3-0.1-8.2,4.3-8.2
			C76.7,448.9,76.6,452.8,76.6,457.1z M70.1,457.5c0,2.7-0.2,6,2.2,6c2.4,0,2.2-3.3,2.2-6c0-4.3,0-6.8-2.2-6.8
			S70.1,453.2,70.1,457.5z"/>
		<path fill="#6D6E71" d="M86.8,457.1c0,4.2,0,8.2-4.3,8.2c-4.3,0-4.3-4.1-4.3-8.2c0-4.3-0.1-8.2,4.3-8.2
			C86.9,448.9,86.8,452.8,86.8,457.1z M80.2,457.5c0,2.7-0.2,6,2.2,6c2.4,0,2.2-3.3,2.2-6c0-4.3,0-6.8-2.2-6.8
			S80.2,453.2,80.2,457.5z"/>
		<path fill="#6D6E71" d="M99.9,464.9v-8c0-1.2-0.3-2.3-1.9-2.3c-0.6,0-1.4,0.3-1.7,0.7c-0.3,0.6-0.4,1.3-0.4,1.7v7.8H94v-9.2
			c0-0.8,0-1.6-0.1-2.4h2v1.5l0,0c0.5-1.3,1.6-1.7,2.9-1.7c1,0,2.3,0.4,2.7,1.5c0.6-1.3,1.7-1.5,2.7-1.5c1.3,0,3.1,0.3,3.1,3v8.7
			h-1.9v-8c0-1.2-0.3-2.3-1.9-2.3c-0.7,0-0.9,0-1.5,0.4c-0.5,0.4-0.6,1.6-0.6,2.1v7.8h-1.7v0.1H99.9z"/>
		<path fill="#6D6E71" d="M116.8,453.3h1.9V466c0,2.6-1.7,3.2-4.3,3.2c-1.9,0-3.6-0.9-3.5-3.1h2.1c0,1,0.7,1.7,1.8,1.7
			c1.4,0,2-0.8,2-2v-2.4h-0.1c-0.5,0.9-1.6,1.5-2.5,1.5c-3.1,0-3.7-2.7-3.7-6.1c0-5.3,2.7-5.6,3.6-5.6c1.3,0,2.2,0.5,2.7,1.7l0,0
			L116.8,453.3L116.8,453.3z M114.6,454.7c-2.1,0-2.2,2.6-2.2,4.1c0,3.7,0.8,4.6,2.3,4.6c2.3,0,2.2-2.7,2.2-4.3
			C116.9,457.4,117,454.7,114.6,454.7z"/>
	</g>
</g>
</svg>
