<?xml version="1.0" encoding="utf-8"?>
<!-- Generator: Adobe Illustrator 18.1.1, SVG Export Plug-In . SVG Version: 6.00 Build 0)  -->
<svg version="1.1" id="Layer_1" xmlns="http://www.w3.org/2000/svg" xmlns:xlink="http://www.w3.org/1999/xlink" x="0px" y="0px"
	 viewBox="0 0 388.2 633.1" enable-background="new 0 0 388.2 633.1" xml:space="preserve">
<rect x="0.1" y="190.6" fill="#DAE7F2" width="387.8" height="35.3"/>
<rect x="0.1" y="260.8" fill="#DAE7F2" width="387.8" height="35.3"/>
<rect x="0.1" y="330.9" fill="#DAE7F2" width="387.8" height="35.3"/>
<rect x="0.1" y="401.8" fill="#DAE7F2" width="387.8" height="35.3"/>
<rect x="0.1" y="471.7" fill="#DAE7F2" width="387.8" height="35.3"/>
<rect x="0.1" y="542.3" fill="#DAE7F2" width="387.8" height="56.9"/>
<line fill="none" stroke="#D0D2D3" stroke-miterlimit="10" x1="0" y1="190.7" x2="387.9" y2="190.7"/>
<line fill="none" stroke="#D0D2D3" stroke-miterlimit="10" x1="0" y1="225.8" x2="387.9" y2="225.8"/>
<line fill="none" stroke="#D0D2D3" stroke-miterlimit="10" x1="0" y1="260.9" x2="387.9" y2="260.9"/>
<line fill="none" stroke="#D0D2D3" stroke-miterlimit="10" x1="0" y1="296.1" x2="387.9" y2="296.1"/>
<line fill="none" stroke="#D0D2D3" stroke-miterlimit="10" x1="0" y1="331.2" x2="387.9" y2="331.2"/>
<line fill="none" stroke="#D0D2D3" stroke-miterlimit="10" x1="0" y1="366.3" x2="387.9" y2="366.3"/>
<line fill="none" stroke="#D0D2D3" stroke-miterlimit="10" x1="0" y1="401.5" x2="387.9" y2="401.5"/>
<line fill="none" stroke="#D0D2D3" stroke-miterlimit="10" x1="0" y1="436.6" x2="387.9" y2="436.6"/>
<line fill="none" stroke="#D0D2D3" stroke-miterlimit="10" x1="0" y1="471.7" x2="387.9" y2="471.7"/>
<line fill="none" stroke="#D0D2D3" stroke-miterlimit="10" x1="0" y1="506.9" x2="387.9" y2="506.9"/>
<line fill="none" stroke="#D0D2D3" stroke-miterlimit="10" x1="0" y1="542.4" x2="387.9" y2="542.4"/>
<line fill="none" stroke="#D0D2D3" stroke-miterlimit="10" x1="0" y1="598.8" x2="387.9" y2="598.8"/>
<line fill="none" stroke="#D0D2D3" stroke-miterlimit="10" x1="0" y1="632.6" x2="387.9" y2="632.6"/>
<rect x="0.2" y="0" fill="#0072B1" width="388" height="60.6"/>
<path fill="#1D1756" d="M185.5,60.6H388v89.6H185.5V60.6z"/>
<rect x="0.2" y="60.5" fill="#F8971D" width="185.4" height="89.6"/>
<g>
	<path fill="#FFFFFF" d="M55,23.3h3.4v-8.7c0-0.5,0-1.1,0-1.1h0c0,0-0.2,0.4-0.7,0.9l-1.3,1.2l-1.7-1.8l3.9-3.8h2.5v13.2h3.4v2.4H55
		V23.3z"/>
	<path fill="#FFFFFF" d="M66.3,17.9c0-4.5,1.4-8.1,5.7-8.1c4.3,0,5.7,3.6,5.7,8.1c0,4.5-1.4,8.1-5.7,8.1
		C67.7,26,66.3,22.4,66.3,17.9z M74.7,17.9c0-3-0.6-5.4-2.8-5.4c-2.1,0-2.8,2.4-2.8,5.4c0,3.1,0.6,5.5,2.8,5.5
		C74.1,23.4,74.7,21,74.7,17.9z"/>
	<path fill="#FFFFFF" d="M80.6,18.2h6.6v2.4h-6.6V18.2z"/>
	<path fill="#FFFFFF" d="M89.3,14.5h2.9l2,7.4c0.2,0.6,0.2,1.2,0.2,1.2h0c0,0,0.1-0.6,0.3-1.2l2.1-7.3h2.5l2.1,7.3
		c0.2,0.6,0.2,1.2,0.2,1.2h0c0,0,0.1-0.6,0.2-1.2l2-7.4h2.9l-3.4,11.2h-3.1l-1.9-6.4c-0.2-0.6-0.3-1.2-0.3-1.2h0
		c0,0-0.1,0.6-0.3,1.2l-1.9,6.4h-3.1L89.3,14.5z"/>
	<path fill="#FFFFFF" d="M113.5,14.2c3.2,0,5,2.4,5,5.3c0,0.3-0.1,1.1-0.1,1.1h-7.7c0.2,2,1.7,3,3.4,3c1.8,0,3.2-1.2,3.2-1.2l1.1,2
		c0,0-1.7,1.6-4.5,1.6c-3.7,0-6-2.7-6-5.9C107.8,16.7,110.1,14.2,113.5,14.2z M115.6,18.7c0-1.5-1-2.3-2.2-2.3
		c-1.4,0-2.4,0.9-2.7,2.3H115.6z"/>
	<path fill="#FFFFFF" d="M125.7,14.2c3.2,0,5,2.4,5,5.3c0,0.3-0.1,1.1-0.1,1.1h-7.7c0.2,2,1.7,3,3.4,3c1.8,0,3.2-1.2,3.2-1.2l1.1,2
		c0,0-1.7,1.6-4.5,1.6c-3.7,0-6-2.7-6-5.9C120,16.7,122.3,14.2,125.7,14.2z M127.8,18.7c0-1.5-1-2.3-2.2-2.3c-1.4,0-2.4,0.9-2.7,2.3
		H127.8z"/>
	<path fill="#FFFFFF" d="M132.9,10.1h2.8v8.4h1.4l2.7-4h3.1l-3.5,5v0l4,6.2h-3.2l-3-4.9h-1.5v4.9h-2.8V10.1z"/>
	<path fill="#FFFFFF" d="M150.4,14.5h2.7v1.3c0,0.4,0,0.8,0,0.8h0c0.5-1.1,1.9-2.3,3.7-2.3c1.7,0,2.8,0.8,3.3,2.3h0
		c0.6-1.2,2.1-2.3,3.8-2.3c2.3,0,3.7,1.3,3.7,4.3v7.2h-2.8V19c0-1.3-0.2-2.2-1.5-2.2c-1.4,0-2.4,1.1-2.7,2.6
		c-0.1,0.4-0.1,0.9-0.1,1.5v4.9h-2.8V19c0-1.2-0.2-2.2-1.5-2.2c-1.5,0-2.4,1.1-2.8,2.6c-0.1,0.4-0.1,0.9-0.1,1.4v4.9h-2.8V14.5z"/>
	<path fill="#FFFFFF" d="M175.8,14.2c3.4,0,6.2,2.4,6.2,5.9c0,3.5-2.8,5.9-6.2,5.9c-3.4,0-6.2-2.4-6.2-5.9
		C169.7,16.7,172.4,14.2,175.8,14.2z M175.9,23.6c1.8,0,3.3-1.4,3.3-3.5c0-2.1-1.5-3.5-3.3-3.5c-1.8,0-3.3,1.4-3.3,3.5
		C172.5,22.2,174,23.6,175.9,23.6z"/>
	<path fill="#FFFFFF" d="M184.3,14.5h2.7v1.3c0,0.4,0,0.8,0,0.8h0c0.5-0.9,1.7-2.3,4-2.3c2.5,0,3.9,1.3,3.9,4.3v7.2h-2.8v-6.6
		c0-1.4-0.4-2.3-1.8-2.3c-1.5,0-2.6,0.9-3,2.3c-0.2,0.5-0.2,1-0.2,1.5v5.1h-2.8V14.5z"/>
	<path fill="#FFFFFF" d="M203.1,14.2c3.4,0,6.2,2.4,6.2,5.9c0,3.5-2.8,5.9-6.2,5.9c-3.4,0-6.2-2.4-6.2-5.9
		C196.9,16.7,199.7,14.2,203.1,14.2z M203.1,23.6c1.8,0,3.3-1.4,3.3-3.5c0-2.1-1.5-3.5-3.3-3.5c-1.8,0-3.3,1.4-3.3,3.5
		C199.8,22.2,201.3,23.6,203.1,23.6z"/>
	<path fill="#FFFFFF" d="M212,16.9h-1.5v-2.2h1.5v-3.2h2.7v3.2h2.6v2.2h-2.6v4.4c0,1.8,1.5,2.1,2.2,2.1c0.3,0,0.5,0,0.5,0v2.4
		c0,0-0.3,0.1-0.9,0.1c-1.6,0-4.7-0.5-4.7-4.2V16.9z"/>
	<path fill="#FFFFFF" d="M219.8,10.1h2.8v5.4c0,0.6,0,0.9,0,0.9h0c0.5-1.1,1.9-2.2,3.9-2.2c2.5,0,3.9,1.3,3.9,4.3v7.2h-2.8v-6.6
		c0-1.4-0.4-2.3-1.8-2.3c-1.5,0-2.6,1-3,2.3c-0.1,0.4-0.2,0.9-0.2,1.5v5.1h-2.8V10.1z"/>
	<path fill="#FFFFFF" d="M238.2,14.2c3.2,0,5,2.4,5,5.3c0,0.3-0.1,1.1-0.1,1.1h-7.7c0.2,2,1.7,3,3.4,3c1.8,0,3.2-1.2,3.2-1.2l1.1,2
		c0,0-1.7,1.6-4.5,1.6c-3.7,0-6-2.7-6-5.9C232.5,16.7,234.8,14.2,238.2,14.2z M240.3,18.7c0-1.5-1-2.3-2.2-2.3
		c-1.4,0-2.4,0.9-2.7,2.3H240.3z"/>
	<path fill="#FFFFFF" d="M245.5,14.5h2.7v1.9c0,0.4,0,0.8,0,0.8h0c0.5-1.6,1.8-2.9,3.6-2.9c0.3,0,0.5,0,0.5,0v2.8c0,0-0.3,0-0.7,0
		c-1.2,0-2.5,0.7-3.1,2.4c-0.2,0.6-0.2,1.2-0.2,1.8v4.4h-2.8V14.5z"/>
	<path fill="#FFFFFF" d="M259.8,18.7h0.4v-0.2c0-1.5-0.9-2-2.2-2c-1.6,0-3.1,1.1-3.1,1.1l-1.1-2c0,0,1.7-1.4,4.4-1.4
		c2.9,0,4.7,1.6,4.7,4.5v7h-2.6v-0.9c0-0.4,0-0.8,0-0.8h0c0,0-0.9,2-3.4,2c-2,0-3.8-1.3-3.8-3.5C253.2,18.9,258,18.7,259.8,18.7z
		 M257.7,23.8c1.5,0,2.5-1.6,2.5-2.9v-0.3h-0.5c-1.4,0-3.7,0.2-3.7,1.8C256,23.1,256.5,23.8,257.7,23.8z"/>
	<path fill="#FFFFFF" d="M265.9,14.5h2.6v0.8c0,0.4,0,0.8,0,0.8h0c0,0,1-1.8,3.6-1.8c3,0,5,2.4,5,5.9c0,3.6-2.2,5.9-5.1,5.9
		c-2.2,0-3.2-1.5-3.2-1.5h0c0,0,0,0.4,0,1v4.7h-2.8V14.5z M271.4,23.6c1.5,0,2.8-1.3,2.8-3.5c0-2.1-1.1-3.5-2.8-3.5
		c-1.5,0-2.8,1.1-2.8,3.5C268.6,21.9,269.5,23.6,271.4,23.6z"/>
	<path fill="#FFFFFF" d="M278.7,27.5c0,0,0.6,0.5,1.3,0.5c0.8,0,1.5-0.5,1.9-1.5l0.4-1l-4.7-11h3.1l2.4,6.5c0.2,0.6,0.4,1.5,0.4,1.5
		h0c0,0,0.2-0.9,0.4-1.5l2.2-6.5h3.1l-5,12.9c-0.8,2-2.4,2.9-4,2.9c-1.3,0-2.3-0.7-2.3-0.7L278.7,27.5z"/>
	<path fill="#FFFFFF" d="M102.9,37.5h2.6v0.8c0,0.4,0,0.8,0,0.8h0c0,0,1-1.8,3.6-1.8c3,0,5,2.4,5,5.9c0,3.6-2.2,5.9-5.1,5.9
		c-2.2,0-3.2-1.5-3.2-1.5h0c0,0,0,0.4,0,1v4.7h-2.8V37.5z M108.4,46.6c1.5,0,2.8-1.3,2.8-3.5c0-2.1-1.1-3.5-2.8-3.5
		c-1.5,0-2.8,1.1-2.8,3.5C105.6,44.9,106.6,46.6,108.4,46.6z"/>
	<path fill="#FFFFFF" d="M116.4,33.1h2.8v5.4c0,0.6,0,0.9,0,0.9h0c0.5-1.1,1.9-2.2,3.9-2.2c2.5,0,3.9,1.3,3.9,4.3v7.2h-2.8v-6.6
		c0-1.4-0.4-2.3-1.8-2.3c-1.5,0-2.6,1-3,2.3c-0.1,0.4-0.2,0.9-0.2,1.5v5.1h-2.8V33.1z"/>
	<path fill="#FFFFFF" d="M135.6,41.7h0.4v-0.2c0-1.5-0.9-2-2.2-2c-1.6,0-3.1,1.1-3.1,1.1l-1.1-2c0,0,1.7-1.4,4.4-1.4
		c2.9,0,4.7,1.6,4.7,4.5v7h-2.6v-0.9c0-0.4,0-0.8,0-0.8h0c0,0-0.9,2-3.4,2c-2,0-3.8-1.3-3.8-3.5C128.9,41.9,133.7,41.7,135.6,41.7z
		 M133.4,46.8c1.5,0,2.5-1.6,2.5-2.9v-0.3h-0.5c-1.4,0-3.7,0.2-3.7,1.8C131.7,46.1,132.3,46.8,133.4,46.8z"/>
	<path fill="#FFFFFF" d="M141.9,45.4c0,0,1.2,1.2,3.1,1.2c0.8,0,1.5-0.4,1.5-1c0-1.7-5.5-1.5-5.5-5.1c0-2.1,1.9-3.3,4.3-3.3
		c2.5,0,3.8,1.3,3.8,1.3l-1,2.1c0,0-1-1-2.8-1c-0.7,0-1.4,0.3-1.4,1c0,1.6,5.5,1.4,5.5,5c0,1.9-1.6,3.4-4.3,3.4
		c-2.8,0-4.4-1.7-4.4-1.7L141.9,45.4z"/>
	<path fill="#FFFFFF" d="M156.5,37.2c3.2,0,5,2.4,5,5.3c0,0.3-0.1,1.1-0.1,1.1h-7.7c0.2,2,1.7,3,3.4,3c1.8,0,3.2-1.2,3.2-1.2l1.1,2
		c0,0-1.7,1.6-4.5,1.6c-3.7,0-6-2.7-6-5.9C150.8,39.7,153.1,37.2,156.5,37.2z M158.6,41.7c0-1.5-1-2.3-2.2-2.3
		c-1.4,0-2.4,0.9-2.7,2.3H158.6z"/>
	<path fill="#FFFFFF" d="M169,41.2c0-3.2,0.9-6.1,2.6-8.8h2.4c-1.6,2.7-2.5,5.7-2.5,8.8c0,3.3,0.8,6.6,2.5,9.6h-2.4
		C170,48.2,169,44.8,169,41.2z"/>
	<path fill="#FFFFFF" d="M175.9,37.5h2.7v1.3c0,0.4,0,0.8,0,0.8h0c0.5-0.9,1.7-2.3,4-2.3c2.5,0,3.9,1.3,3.9,4.3v7.2h-2.8v-6.6
		c0-1.4-0.4-2.3-1.8-2.3c-1.5,0-2.6,0.9-3,2.3c-0.2,0.5-0.2,1-0.2,1.5v5.1h-2.8V37.5z"/>
	<path fill="#FFFFFF" d="M189.7,39.1h10.7v2.2h-10.7V39.1z M189.7,43.6h10.7v2.2h-10.7V43.6z"/>
	<path fill="#FFFFFF" d="M203.3,47.3c0-5.6,7.3-6.5,7.3-9.6c0-1.4-1.1-2.2-2.4-2.2c-1.8,0-2.8,1.8-2.8,1.8l-2.1-1.4
		c0,0,1.4-3.1,5.2-3.1c2.8,0,5.1,1.7,5.1,4.6c0,5-7,5.9-7.1,8.8h7.3v2.4h-10.4C203.4,48.2,203.3,47.8,203.3,47.3z"/>
	<path fill="#FFFFFF" d="M222.5,37c0.5-1,0.9-1.4,0.9-1.4v0c0,0-0.3,0-1.1,0h-6.7v-2.4h10.7v2l-6.8,13.6h-2.9L222.5,37z"/>
	<path fill="#FFFFFF" d="M227.1,43l6.7-9.9h3.4v9.2h2v2.4h-2v4h-2.8v-4h-7.3V43z M234.4,42.3v-4.8c0-0.8,0.1-1.6,0.1-1.6h0
		c0,0-0.4,0.8-0.8,1.4l-3.6,5v0H234.4z"/>
	<path fill="#FFFFFF" d="M240.6,50.8c1.6-3,2.5-6.3,2.5-9.6c0-3.1-0.9-6.1-2.5-8.8h2.4c1.7,2.6,2.6,5.6,2.6,8.8c0,3.6-1,7-2.6,9.6
		H240.6z"/>
</g>
<g>
	<path fill="#FFFFFF" d="M60.3,86h-5.5l-1.3,4h-2.9L56,74.3h3L64.5,90h-2.9L60.3,86z M57.5,77c0,0-0.4,1.5-0.7,2.4l-1.4,4.2h4.1
		l-1.4-4.2C57.9,78.6,57.6,77,57.5,77L57.5,77z"/>
	<path fill="#FFFFFF" d="M66.5,74.3h6c2.9,0,5,2,5,5.1s-2,5.1-5,5.1h-3.2V90h-2.8V74.3z M72,82.1c1.6,0,2.6-1.1,2.6-2.7
		c0-1.6-1-2.6-2.6-2.6h-2.7v5.3H72z"/>
	<path fill="#FFFFFF" d="M83.2,76.8h-5.1v-2.4h13.1v2.4h-5.1V90h-2.8V76.8z"/>
	<path fill="#FFFFFF" d="M93.3,74.3h2.8V90h-2.8V74.3z"/>
	<path fill="#FFFFFF" d="M107.1,74.1c4.6,0,8.1,3.5,8.1,8c0,4.6-3.5,8.2-8.1,8.2S99,86.6,99,82C99,77.6,102.5,74.1,107.1,74.1z
		 M107.1,87.6c2.9,0,5.1-2.4,5.1-5.6c0-3.1-2.3-5.4-5.1-5.4s-5.1,2.3-5.1,5.4C101.9,85.3,104.2,87.6,107.1,87.6z"/>
	<path fill="#FFFFFF" d="M118.8,74.3h3l3.1,7.7c0.4,0.9,0.8,2.3,0.8,2.3h0c0,0,0.4-1.4,0.8-2.3l3.1-7.7h3l1.3,15.6h-2.8l-0.7-8.7
		c-0.1-1,0-2.4,0-2.4h0c0,0-0.5,1.5-0.8,2.4l-2.5,6.1h-2.5l-2.5-6.1c-0.4-0.9-0.9-2.4-0.9-2.4h0c0,0,0,1.4,0,2.4l-0.7,8.7h-2.8
		L118.8,74.3z"/>
	<path fill="#FFFFFF" d="M48.9,110.5h3.4v-8.7c0-0.5,0-1.1,0-1.1h0c0,0-0.2,0.4-0.7,0.9l-1.3,1.2l-1.7-1.8l3.9-3.8h2.5v13.2h3.4v2.4
		h-9.5V110.5z"/>
	<path fill="#FFFFFF" d="M60.1,111.6c0-5.6,7.3-6.5,7.3-9.6c0-1.4-1.1-2.2-2.4-2.2c-1.8,0-2.8,1.8-2.8,1.8l-2.1-1.4
		c0,0,1.4-3.1,5.2-3.1c2.8,0,5.1,1.7,5.1,4.6c0,5-7,5.9-7.1,8.8h7.3v2.4H60.2C60.2,112.5,60.1,112,60.1,111.6z"/>
	<path fill="#FFFFFF" d="M73,105.1c0-4.5,1.4-8.1,5.7-8.1s5.7,3.6,5.7,8.1c0,4.5-1.4,8.1-5.7,8.1S73,109.6,73,105.1z M81.4,105.1
		c0-3-0.6-5.4-2.8-5.4c-2.1,0-2.8,2.4-2.8,5.4c0,3.1,0.6,5.5,2.8,5.5C80.8,110.6,81.4,108.2,81.4,105.1z"/>
	<path fill="#FFFFFF" d="M86.8,105.1c0-4.5,1.4-8.1,5.7-8.1s5.7,3.6,5.7,8.1c0,4.5-1.4,8.1-5.7,8.1S86.8,109.6,86.8,105.1z
		 M95.2,105.1c0-3-0.6-5.4-2.8-5.4c-2.1,0-2.8,2.4-2.8,5.4c0,3.1,0.6,5.5,2.8,5.5C94.6,110.6,95.2,108.2,95.2,105.1z"/>
	<path fill="#FFFFFF" d="M106.3,101.7h2.7v1.3c0,0.4,0,0.8,0,0.8h0c0.5-1.1,1.9-2.3,3.7-2.3c1.7,0,2.8,0.8,3.3,2.3h0
		c0.6-1.2,2.1-2.3,3.8-2.3c2.3,0,3.7,1.3,3.7,4.3v7.2h-2.8v-6.7c0-1.3-0.2-2.2-1.5-2.2c-1.4,0-2.4,1.1-2.7,2.6
		c-0.1,0.4-0.1,0.9-0.1,1.5v4.9h-2.8v-6.7c0-1.2-0.2-2.2-1.5-2.2c-1.5,0-2.4,1.1-2.8,2.6c-0.1,0.4-0.1,0.9-0.1,1.4v4.9h-2.8V101.7z"
		/>
	<path fill="#FFFFFF" d="M130.6,115.2c1.7,0,3.2-0.7,3.2-2.7v-0.7c0-0.3,0-0.6,0-0.6h0c-0.7,1-1.6,1.5-3.1,1.5c-3.2,0-5-2.6-5-5.7
		s1.7-5.6,5-5.6c2.4,0,3.3,1.4,3.3,1.4h0.1c0,0,0-0.1,0-0.3v-0.9h2.6v10.5c0,3.9-3,5.3-5.9,5.3c-1.4,0-2.9-0.4-4-1l0.8-2.1
		C127.5,114.5,129,115.2,130.6,115.2z M133.9,107.1c0-2.6-1.3-3.2-2.8-3.2c-1.7,0-2.6,1.2-2.6,3.1c0,2,1,3.4,2.8,3.4
		C132.6,110.4,133.9,109.6,133.9,107.1z"/>
	<path fill="#FFFFFF" d="M58,128.4c0-3.2,0.9-6.1,2.6-8.8H63c-1.6,2.7-2.5,5.7-2.5,8.8c0,3.3,0.8,6.6,2.5,9.6h-2.4
		C59,135.4,58,132,58,128.4z"/>
	<path fill="#FFFFFF" d="M64.9,124.7h2.7v1.3c0,0.4,0,0.8,0,0.8h0c0.5-0.9,1.7-2.3,4-2.3c2.5,0,3.9,1.3,3.9,4.3v7.2h-2.8v-6.6
		c0-1.4-0.4-2.3-1.8-2.3c-1.5,0-2.6,0.9-3,2.3c-0.2,0.5-0.2,1-0.2,1.5v5.1h-2.8V124.7z"/>
	<path fill="#FFFFFF" d="M78.7,126.3h10.7v2.2H78.7V126.3z M78.7,130.9h10.7v2.2H78.7V130.9z"/>
	<path fill="#FFFFFF" d="M93,135.6l0.8-2.4c0,0,1,0.5,2.2,0.5c2.5,0,3.8-2,4.2-4.2h0c-0.6,0.6-1.8,1.1-2.9,1.1c-3.1,0-5-2.4-5-5.2
		c0-2.9,2-5.2,5.1-5.2c3.3,0,6,2.7,6,7.4c0,4.1-2.4,8.7-7.2,8.7C94.2,136.2,93,135.6,93,135.6z M100.4,126.5c0-2-1.5-3.8-3.1-3.8
		c-1.5,0-2.4,1.1-2.4,2.6c0,1.6,1,2.9,2.9,2.9C99.3,128.2,100.4,127.5,100.4,126.5z"/>
	<path fill="#FFFFFF" d="M106.7,132c0,0,1.5,1.6,3.5,1.6c1.6,0,2.8-1,2.8-2.3c0-1.6-1.5-2.4-3.3-2.4h-1.1l-0.6-1.5l2.9-3.4
		c0.6-0.7,1.1-1.2,1.1-1.2v0c0,0-0.5,0.1-1.4,0.1H106v-2.4h9.5v1.8l-3.8,4.4c2.2,0.3,4.3,1.8,4.3,4.6c0,2.7-2,5.1-5.5,5.1
		c-3.3,0-5.2-2.1-5.2-2.1L106.7,132z"/>
	<path fill="#FFFFFF" d="M117.6,138.1c1.6-3,2.5-6.3,2.5-9.6c0-3.1-0.9-6.1-2.5-8.8h2.4c1.7,2.6,2.6,5.6,2.6,8.8c0,3.6-1,7-2.6,9.6
		H117.6z"/>
</g>
<g>
	<path fill="#FFFFFF" d="M254.1,86.1h-5.5l-1.3,4h-2.9l5.5-15.6h3l5.5,15.6h-2.9L254.1,86.1z M251.3,77.2c0,0-0.4,1.5-0.7,2.4
		l-1.4,4.2h4.1l-1.4-4.2C251.7,78.7,251.4,77.2,251.3,77.2L251.3,77.2z"/>
	<path fill="#FFFFFF" d="M260.3,74.5h6c2.9,0,5,2,5,5.1s-2,5.1-5,5.1h-3.2v5.4h-2.8V74.5z M265.8,82.2c1.6,0,2.6-1.1,2.6-2.7
		c0-1.6-1-2.6-2.6-2.6h-2.7v5.3H265.8z"/>
	<path fill="#FFFFFF" d="M277.1,76.9h-5.1v-2.4H285v2.4h-5.1v13.2h-2.8V76.9z"/>
	<path fill="#FFFFFF" d="M287.1,74.5h2.8v15.6h-2.8V74.5z"/>
	<path fill="#FFFFFF" d="M300.9,74.2c4.6,0,8.1,3.5,8.1,8c0,4.6-3.5,8.2-8.1,8.2s-8.1-3.6-8.1-8.2C292.8,77.7,296.3,74.2,300.9,74.2
		z M300.9,87.8c2.9,0,5.1-2.4,5.1-5.6c0-3.1-2.3-5.4-5.1-5.4s-5.1,2.3-5.1,5.4C295.8,85.4,298,87.8,300.9,87.8z"/>
	<path fill="#FFFFFF" d="M312.6,74.5h3l3.1,7.7c0.4,0.9,0.8,2.3,0.8,2.3h0c0,0,0.4-1.4,0.8-2.3l3.1-7.7h3l1.3,15.6h-2.8l-0.7-8.7
		c-0.1-1,0-2.4,0-2.4h0c0,0-0.5,1.5-0.8,2.4l-2.5,6.1h-2.5l-2.5-6.1c-0.4-0.9-0.9-2.4-0.9-2.4h0c0,0,0,1.4,0,2.4l-0.7,8.7h-2.8
		L312.6,74.5z"/>
	<path fill="#FFFFFF" d="M242.5,110.6h3.4V102c0-0.5,0-1.1,0-1.1h0c0,0-0.2,0.4-0.7,0.9l-1.3,1.2l-1.7-1.8l3.9-3.8h2.5v13.2h3.4v2.4
		h-9.5V110.6z"/>
	<path fill="#FFFFFF" d="M253.7,105.9c0-4.1,2.4-8.7,7.2-8.7c2,0,3.2,0.7,3.2,0.7l-0.8,2.4c0,0-1-0.5-2.2-0.5c-2.5,0-3.8,2-4.2,4.2
		h0c0.6-0.6,1.8-1.1,2.9-1.1c3.1,0,5,2.4,5,5.2c0,2.9-2,5.2-5.1,5.2C256.5,113.3,253.7,110.6,253.7,105.9z M262.1,108.1
		c0-1.6-1-2.9-2.9-2.9c-1.4,0-2.6,0.7-2.6,1.7c0,2,1.4,3.8,3.1,3.8C261.2,110.8,262.1,109.6,262.1,108.1z"/>
	<path fill="#FFFFFF" d="M267.1,105.3c0-4.5,1.4-8.1,5.7-8.1s5.7,3.6,5.7,8.1c0,4.5-1.4,8.1-5.7,8.1S267.1,109.7,267.1,105.3z
		 M275.5,105.3c0-3-0.6-5.4-2.8-5.4c-2.1,0-2.8,2.4-2.8,5.4c0,3.1,0.6,5.5,2.8,5.5C274.9,110.8,275.5,108.3,275.5,105.3z"/>
	<path fill="#FFFFFF" d="M280.9,105.3c0-4.5,1.4-8.1,5.7-8.1s5.7,3.6,5.7,8.1c0,4.5-1.4,8.1-5.7,8.1S280.9,109.7,280.9,105.3z
		 M289.3,105.3c0-3-0.6-5.4-2.8-5.4c-2.1,0-2.8,2.4-2.8,5.4c0,3.1,0.6,5.5,2.8,5.5C288.7,110.8,289.3,108.3,289.3,105.3z"/>
	<path fill="#FFFFFF" d="M300.4,101.9h2.7v1.3c0,0.4,0,0.8,0,0.8h0c0.5-1.1,1.9-2.3,3.7-2.3c1.7,0,2.8,0.8,3.3,2.3h0
		c0.6-1.2,2.1-2.3,3.8-2.3c2.3,0,3.7,1.3,3.7,4.3v7.2h-2.8v-6.7c0-1.3-0.2-2.2-1.5-2.2c-1.4,0-2.4,1.1-2.7,2.6
		c-0.1,0.4-0.1,0.9-0.1,1.5v4.9h-2.8v-6.7c0-1.2-0.2-2.2-1.5-2.2c-1.5,0-2.4,1.1-2.8,2.6c-0.1,0.4-0.1,0.9-0.1,1.4v4.9h-2.8V101.9z"
		/>
	<path fill="#FFFFFF" d="M324.7,115.3c1.7,0,3.2-0.7,3.2-2.7v-0.7c0-0.3,0-0.6,0-0.6h0c-0.7,1-1.6,1.5-3.1,1.5c-3.2,0-5-2.6-5-5.7
		s1.7-5.6,5-5.6c2.4,0,3.3,1.4,3.3,1.4h0.1c0,0,0-0.1,0-0.3v-0.9h2.6v10.5c0,3.9-3,5.3-5.9,5.3c-1.4,0-2.9-0.4-4-1l0.8-2.1
		C321.6,114.6,323,115.3,324.7,115.3z M328,107.2c0-2.6-1.3-3.2-2.8-3.2c-1.7,0-2.6,1.2-2.6,3.1c0,2,1,3.4,2.8,3.4
		C326.7,110.5,328,109.7,328,107.2z"/>
	<path fill="#FFFFFF" d="M249.5,128.5c0-3.2,0.9-6.1,2.6-8.8h2.4c-1.6,2.7-2.5,5.7-2.5,8.8c0,3.3,0.8,6.6,2.5,9.6h-2.4
		C250.5,135.5,249.5,132.1,249.5,128.5z"/>
	<path fill="#FFFFFF" d="M256.4,124.9h2.7v1.3c0,0.4,0,0.8,0,0.8h0c0.5-0.9,1.7-2.3,4-2.3c2.5,0,3.9,1.3,3.9,4.3v7.2h-2.8v-6.6
		c0-1.4-0.4-2.3-1.8-2.3c-1.5,0-2.6,0.9-3,2.3c-0.2,0.5-0.2,1-0.2,1.5v5.1h-2.8V124.9z"/>
	<path fill="#FFFFFF" d="M270.2,126.5h10.7v2.2h-10.7V126.5z M270.2,131h10.7v2.2h-10.7V131z"/>
	<path fill="#FFFFFF" d="M283.9,133.6h3.4V125c0-0.5,0-1.1,0-1.1h0c0,0-0.2,0.4-0.7,0.9l-1.3,1.2l-1.7-1.8l3.9-3.8h2.5v13.2h3.4v2.4
		h-9.5V133.6z"/>
	<path fill="#FFFFFF" d="M297.4,127.5c-0.9-0.7-1.6-1.7-1.6-3.1c0-2.2,1.6-4.3,5-4.3c2.9,0,5.1,1.6,5.1,4.3c0,1.9-1.6,3.7-1.7,3.9
		c1.1,0.7,2,1.7,2,3.3c0,2.4-2,4.6-5.5,4.6c-3.4,0-5.6-2.1-5.6-4.8C295.1,129.3,297,127.9,297.4,127.5z M299.4,128.7
		c-0.5,0.4-1.5,1.3-1.5,2.6c0,1.5,1.3,2.5,2.7,2.5c1.5,0,2.6-0.9,2.6-2.3C303.3,130.2,301.3,129.6,299.4,128.7z M302.1,127.3
		c0.2-0.2,1.1-1.3,1.1-2.6c0-1.2-0.9-2-2.3-2c-1.4,0-2.2,0.8-2.2,1.8C298.6,126,300.3,126.6,302.1,127.3z"/>
	<path fill="#FFFFFF" d="M308.6,133.6h3.4V125c0-0.5,0-1.1,0-1.1h0c0,0-0.2,0.4-0.7,0.9L310,126l-1.7-1.8l3.9-3.8h2.5v13.2h3.4v2.4
		h-9.5V133.6z"/>
	<path fill="#FFFFFF" d="M319.1,138.2c1.6-3,2.5-6.3,2.5-9.6c0-3.1-0.9-6.1-2.5-8.8h2.4c1.7,2.6,2.6,5.6,2.6,8.8c0,3.6-1,7-2.6,9.6
		H319.1z"/>
</g>
<g>
	<path fill="#6D6E70" d="M76.6,174.5h3.5v-11.4c0-0.4,0-0.9,0-0.9h0c0,0-0.2,0.3-0.8,0.9l-1.7,1.7l-1-1l3.5-3.5h1.5v14.1H85v1.4
		h-8.4V174.5z"/>
	<path fill="#6D6E70" d="M87.1,174.5h3.5v-11.4c0-0.4,0-0.9,0-0.9h0c0,0-0.2,0.3-0.8,0.9l-1.7,1.7l-1-1l3.5-3.5h1.5v14.1h3.4v1.4
		h-8.4V174.5z"/>
	<path fill="#6D6E70" d="M97.1,163.2c0-1.7,1.4-3.1,3.1-3.1c1.7,0,3.1,1.4,3.1,3.1c0,1.7-1.4,3.1-3.1,3.1
		C98.4,166.3,97.1,164.9,97.1,163.2z M109,160.4h1.6l-11.8,15.5h-1.6L109,160.4z M101.9,163.2c0-1-0.8-1.8-1.8-1.8
		c-1,0-1.8,0.8-1.8,1.8c0,1,0.8,1.8,1.8,1.8C101.1,165.1,101.9,164.2,101.9,163.2z M107.6,170.1c1.7,0,3.1,1.4,3.1,3.1
		c0,1.7-1.4,3-3.1,3c-1.7,0-3.1-1.4-3.1-3C104.5,171.4,105.9,170.1,107.6,170.1z M107.6,174.9c1,0,1.8-0.8,1.8-1.8
		c0-1-0.8-1.8-1.8-1.8c-1,0-1.8,0.8-1.8,1.8C105.8,174.1,106.6,174.9,107.6,174.9z"/>
</g>
<g>
	<path fill="#6D6E70" d="M272.3,174.5h3.5v-11.4c0-0.4,0-0.9,0-0.9h0c0,0-0.2,0.3-0.8,0.9l-1.7,1.7l-1-1l3.5-3.5h1.5v14.1h3.4v1.4
		h-8.4V174.5z"/>
	<path fill="#6D6E70" d="M290.5,164.5c0-1.7-1.2-2.9-3.2-2.9c-1.5,0-2.8,0.8-2.8,1.7v0.7h-1.5v-1.1c0-2,2.7-2.7,4.2-2.7
		c2.9,0,4.7,1.9,4.7,4.3c0,5.4-8.2,5.3-8.2,9.6c0,0.3,0.2,0.4,0.5,0.4h6.5c0.3,0,0.5-0.2,0.5-0.5v-1h1.4v1.5c0,0.9-0.4,1.3-1.3,1.3
		h-7.7c-1.1,0-1.4-0.4-1.4-1.5C282.3,168.6,290.5,169.1,290.5,164.5z"/>
	<path fill="#6D6E70" d="M295.1,163.2c0-1.7,1.4-3.1,3.1-3.1c1.7,0,3.1,1.4,3.1,3.1c0,1.7-1.4,3.1-3.1,3.1
		C296.5,166.3,295.1,164.9,295.1,163.2z M307.1,160.4h1.6l-11.8,15.5h-1.6L307.1,160.4z M300,163.2c0-1-0.8-1.8-1.8-1.8
		c-1,0-1.8,0.8-1.8,1.8c0,1,0.8,1.8,1.8,1.8C299.2,165.1,300,164.2,300,163.2z M305.7,170.1c1.7,0,3.1,1.4,3.1,3.1
		c0,1.7-1.4,3-3.1,3c-1.7,0-3.1-1.4-3.1-3C302.6,171.4,303.9,170.1,305.7,170.1z M305.7,174.9c1,0,1.8-0.8,1.8-1.8
		c0-1-0.8-1.8-1.8-1.8c-1,0-1.8,0.8-1.8,1.8C303.9,174.1,304.7,174.9,305.7,174.9z"/>
</g>
<g>
	<path fill="#6D6E70" d="M88.3,202.2c0-1.7-1.2-2.9-3.2-2.9c-1.5,0-2.8,0.8-2.8,1.7v0.7h-1.5v-1.1c0-2,2.7-2.7,4.2-2.7
		c2.9,0,4.7,1.9,4.7,4.3c0,5.4-8.2,5.3-8.2,9.6c0,0.3,0.2,0.4,0.5,0.4h6.5c0.3,0,0.5-0.2,0.5-0.5v-1h1.4v1.5c0,0.9-0.4,1.3-1.3,1.3
		h-7.7c-1.1,0-1.4-0.4-1.4-1.5C80.1,206.3,88.3,206.8,88.3,202.2z"/>
	<path fill="#6D6E70" d="M92.9,200.9c0-1.7,1.4-3.1,3.1-3.1c1.7,0,3.1,1.4,3.1,3.1c0,1.7-1.4,3.1-3.1,3.1
		C94.3,204,92.9,202.6,92.9,200.9z M104.8,198.1h1.6l-11.8,15.5H93L104.8,198.1z M97.8,200.9c0-1-0.8-1.8-1.8-1.8
		c-1,0-1.8,0.8-1.8,1.8c0,1,0.8,1.8,1.8,1.8C97,202.7,97.8,201.9,97.8,200.9z M103.4,207.7c1.7,0,3.1,1.4,3.1,3.1c0,1.7-1.4,3-3.1,3
		c-1.7,0-3.1-1.4-3.1-3C100.4,209.1,101.7,207.7,103.4,207.7z M103.4,212.6c1,0,1.8-0.8,1.8-1.8c0-1-0.8-1.8-1.8-1.8
		c-1,0-1.8,0.8-1.8,1.8C101.7,211.8,102.4,212.6,103.4,212.6z"/>
</g>
<g>
	<path fill="#6D6E70" d="M277,206.8c0-3.9,2-8.9,6.8-8.9c1.7,0,2.8,0.6,2.8,0.6l-0.6,1.3c0,0-1-0.6-2.2-0.6c-3.2,0-4.9,3.2-5.2,6.4
		h0c0.7-1.2,2.3-1.9,3.9-1.9c2.8,0,4.8,2,4.8,4.9c0,3.2-2.2,5.2-4.9,5.2C279.2,213.8,277,210.8,277,206.8z M282.6,212.4
		c2.1,0,3.3-1.6,3.3-3.7c0-2.2-1.4-3.6-3.5-3.6c-2.1,0-3.7,1.4-3.7,2.6C278.6,209.8,280.2,212.4,282.6,212.4z"/>
	<path fill="#6D6E70" d="M289.7,200.9c0-1.7,1.4-3.1,3.1-3.1c1.7,0,3.1,1.4,3.1,3.1c0,1.7-1.4,3.1-3.1,3.1
		C291.1,204,289.7,202.6,289.7,200.9z M301.7,198.1h1.6l-11.8,15.5h-1.6L301.7,198.1z M294.6,200.9c0-1-0.8-1.8-1.8-1.8
		c-1,0-1.8,0.8-1.8,1.8c0,1,0.8,1.8,1.8,1.8C293.8,202.7,294.6,201.9,294.6,200.9z M300.2,207.7c1.7,0,3.1,1.4,3.1,3.1
		c0,1.7-1.4,3-3.1,3c-1.7,0-3.1-1.4-3.1-3C297.2,209.1,298.5,207.7,300.2,207.7z M300.2,212.6c1,0,1.8-0.8,1.8-1.8
		c0-1-0.8-1.8-1.8-1.8c-1,0-1.8,0.8-1.8,1.8C298.5,211.8,299.2,212.6,300.2,212.6z"/>
</g>
<g>
	<path fill="#6D6E70" d="M81.8,245.9h3.5v-11.4c0-0.4,0-0.9,0-0.9h0c0,0-0.2,0.3-0.8,0.9l-1.7,1.7l-1-1l3.5-3.5h1.5v14.1h3.4v1.4
		h-8.4V245.9z"/>
	<path fill="#6D6E70" d="M91.7,234.6c0-1.7,1.4-3.1,3.1-3.1c1.7,0,3.1,1.4,3.1,3.1c0,1.7-1.4,3.1-3.1,3.1
		C93.1,237.6,91.7,236.3,91.7,234.6z M103.6,231.8h1.6l-11.8,15.5h-1.6L103.6,231.8z M96.6,234.6c0-1-0.8-1.8-1.8-1.8
		c-1,0-1.8,0.8-1.8,1.8c0,1,0.8,1.8,1.8,1.8C95.8,236.4,96.6,235.6,96.6,234.6z M102.2,241.4c1.7,0,3.1,1.4,3.1,3.1
		c0,1.7-1.4,3-3.1,3c-1.7,0-3.1-1.4-3.1-3C99.1,242.8,100.5,241.4,102.2,241.4z M102.2,246.3c1,0,1.8-0.8,1.8-1.8
		c0-1-0.8-1.8-1.8-1.8c-1,0-1.8,0.8-1.8,1.8C100.5,245.5,101.2,246.3,102.2,246.3z"/>
</g>
<g>
	<path fill="#6D6E70" d="M285.1,235.9c0-1.7-1.2-2.9-3.2-2.9c-1.5,0-2.8,0.8-2.8,1.7v0.7h-1.5v-1.1c0-2,2.7-2.7,4.2-2.7
		c2.9,0,4.7,1.9,4.7,4.3c0,5.4-8.2,5.3-8.2,9.6c0,0.3,0.2,0.4,0.5,0.4h6.5c0.3,0,0.5-0.2,0.5-0.5v-1h1.4v1.5c0,0.9-0.4,1.3-1.3,1.3
		h-7.7c-1.1,0-1.4-0.4-1.4-1.5C276.9,240,285.1,240.5,285.1,235.9z"/>
	<path fill="#6D6E70" d="M289.8,234.6c0-1.7,1.4-3.1,3.1-3.1c1.7,0,3.1,1.4,3.1,3.1c0,1.7-1.4,3.1-3.1,3.1
		C291.2,237.6,289.8,236.3,289.8,234.6z M301.7,231.8h1.6l-11.8,15.5h-1.6L301.7,231.8z M294.7,234.6c0-1-0.8-1.8-1.8-1.8
		c-1,0-1.8,0.8-1.8,1.8c0,1,0.8,1.8,1.8,1.8C293.9,236.4,294.7,235.6,294.7,234.6z M300.3,241.4c1.7,0,3.1,1.4,3.1,3.1
		c0,1.7-1.4,3-3.1,3c-1.7,0-3.1-1.4-3.1-3C297.2,242.8,298.6,241.4,300.3,241.4z M300.3,246.3c1,0,1.8-0.8,1.8-1.8
		c0-1-0.8-1.8-1.8-1.8c-1,0-1.8,0.8-1.8,1.8C298.5,245.5,299.3,246.3,300.3,246.3z"/>
</g>
<g>
	<path fill="#6D6E70" d="M88.3,271.6c0-1.7-1.2-2.9-3.2-2.9c-1.5,0-2.8,0.8-2.8,1.7v0.7h-1.5v-1.1c0-2,2.7-2.7,4.2-2.7
		c2.9,0,4.7,1.9,4.7,4.3c0,5.4-8.2,5.3-8.2,9.6c0,0.3,0.2,0.4,0.5,0.4h6.5c0.3,0,0.5-0.2,0.5-0.5v-1h1.4v1.5c0,0.9-0.4,1.3-1.3,1.3
		h-7.7c-1.1,0-1.4-0.4-1.4-1.5C80.1,275.7,88.3,276.1,88.3,271.6z"/>
	<path fill="#6D6E70" d="M93,270.3c0-1.7,1.4-3.1,3.1-3.1c1.7,0,3.1,1.4,3.1,3.1c0,1.7-1.4,3.1-3.1,3.1C94.3,273.3,93,272,93,270.3z
		 M104.9,267.5h1.6l-11.8,15.5h-1.6L104.9,267.5z M97.8,270.3c0-1-0.8-1.8-1.8-1.8c-1,0-1.8,0.8-1.8,1.8c0,1,0.8,1.8,1.8,1.8
		C97.1,272.1,97.8,271.3,97.8,270.3z M103.5,277.1c1.7,0,3.1,1.4,3.1,3.1c0,1.7-1.4,3-3.1,3c-1.7,0-3.1-1.4-3.1-3
		C100.4,278.5,101.8,277.1,103.5,277.1z M103.5,282c1,0,1.8-0.8,1.8-1.8c0-1-0.8-1.8-1.8-1.8c-1,0-1.8,0.8-1.8,1.8
		C101.7,281.2,102.5,282,103.5,282z"/>
</g>
<g>
	<path fill="#6D6E70" d="M278.5,281.6h3.5v-11.4c0-0.4,0-0.9,0-0.9h0c0,0-0.2,0.3-0.8,0.9l-1.7,1.7l-1-1l3.5-3.5h1.5v14.1h3.4v1.4
		h-8.4V281.6z"/>
	<path fill="#6D6E70" d="M289,270.3c0-1.7,1.4-3.1,3.1-3.1c1.7,0,3.1,1.4,3.1,3.1c0,1.7-1.4,3.1-3.1,3.1
		C290.3,273.3,289,272,289,270.3z M300.9,267.5h1.6l-11.8,15.5h-1.6L300.9,267.5z M293.9,270.3c0-1-0.8-1.8-1.8-1.8
		c-1,0-1.8,0.8-1.8,1.8c0,1,0.8,1.8,1.8,1.8C293.1,272.1,293.9,271.3,293.9,270.3z M299.5,277.1c1.7,0,3.1,1.4,3.1,3.1
		c0,1.7-1.4,3-3.1,3c-1.7,0-3.1-1.4-3.1-3C296.4,278.5,297.8,277.1,299.5,277.1z M299.5,282c1,0,1.8-0.8,1.8-1.8
		c0-1-0.8-1.8-1.8-1.8c-1,0-1.8,0.8-1.8,1.8C297.7,281.2,298.5,282,299.5,282z"/>
</g>
<g>
	<path fill="#6D6E70" d="M81.3,315.6c0,0,1.2,1.8,3.6,1.8c2.2,0,3.9-1.6,3.9-3.6c0-2.1-1.8-3.6-4-3.6c-1.7,0-3,0.9-3,0.9l-0.8-0.3
		l0.7-6.2c0.1-0.9,0.4-1.3,1.3-1.3h5.1c0.9,0,1.3,0.4,1.3,1.3v1.5h-1.4v-1c0-0.3-0.2-0.5-0.5-0.5h-3.9c-0.3,0-0.4,0.2-0.5,0.5
		l-0.4,3.5c-0.1,0.6-0.1,0.9-0.1,0.9h0c0,0,1-0.6,2.3-0.6c3.1,0,5.4,2.2,5.4,5c0,2.8-2.3,5-5.4,5c-3.1,0-4.6-2.2-4.6-2.2L81.3,315.6
		z"/>
	<path fill="#6D6E70" d="M93,305.9c0-1.7,1.4-3.1,3.1-3.1c1.7,0,3.1,1.4,3.1,3.1c0,1.7-1.4,3.1-3.1,3.1C94.4,309,93,307.6,93,305.9z
		 M105,303.1h1.6l-11.8,15.5h-1.6L105,303.1z M97.9,305.9c0-1-0.8-1.8-1.8-1.8c-1,0-1.8,0.8-1.8,1.8c0,1,0.8,1.8,1.8,1.8
		C97.1,307.8,97.9,307,97.9,305.9z M103.5,312.8c1.7,0,3.1,1.4,3.1,3.1c0,1.7-1.4,3-3.1,3c-1.7,0-3.1-1.4-3.1-3
		C100.5,314.1,101.8,312.8,103.5,312.8z M103.5,317.6c1,0,1.8-0.8,1.8-1.8c0-1-0.8-1.8-1.8-1.8c-1,0-1.8,0.8-1.8,1.8
		C101.8,316.8,102.5,317.6,103.5,317.6z"/>
</g>
<g>
	<path fill="#6D6E70" d="M278.1,315.6c0,0,1.6,1.8,4,1.8c1.8,0,3.5-1.4,3.5-3.3c0-2.1-1.8-3.3-3.8-3.3h-1.1l-0.4-0.9l3.8-4.6
		c0.4-0.5,0.8-0.9,0.8-0.9v0c0,0-0.4,0.1-1.3,0.1h-4c-0.3,0-0.5,0.2-0.5,0.5v1h-1.4v-1.5c0-0.9,0.4-1.3,1.3-1.3h7.9v1l-4.6,5.3
		c1.9,0.1,4.8,1.2,4.8,4.6c0,2.6-2.2,4.8-5.1,4.8c-3.1,0-5-2.2-5-2.2L278.1,315.6z"/>
	<path fill="#6D6E70" d="M289.6,305.9c0-1.7,1.4-3.1,3.1-3.1c1.7,0,3.1,1.4,3.1,3.1c0,1.7-1.4,3.1-3.1,3.1
		C290.9,309,289.6,307.6,289.6,305.9z M301.5,303.1h1.6l-11.8,15.5h-1.6L301.5,303.1z M294.4,305.9c0-1-0.8-1.8-1.8-1.8
		c-1,0-1.8,0.8-1.8,1.8c0,1,0.8,1.8,1.8,1.8C293.6,307.8,294.4,307,294.4,305.9z M300.1,312.8c1.7,0,3.1,1.4,3.1,3.1
		c0,1.7-1.4,3-3.1,3c-1.7,0-3.1-1.4-3.1-3C297,314.1,298.4,312.8,300.1,312.8z M300.1,317.6c1,0,1.8-0.8,1.8-1.8
		c0-1-0.8-1.8-1.8-1.8c-1,0-1.8,0.8-1.8,1.8C298.3,316.8,299.1,317.6,300.1,317.6z"/>
</g>
<g>
	<path fill="#6D6E70" d="M82.9,346.8L82.9,346.8c0,0-2.1-1-2.1-3.2c0-2.1,1.7-4,4.7-4c2.9,0,4.7,1.7,4.7,4.1c0,2.4-2.1,3.8-2.1,3.8
		v0c1.5,0.7,2.5,1.7,2.5,3.5c0,2.4-2.2,4.5-5.2,4.5c-2.7,0-5.3-1.7-5.3-4.6C80.2,348.2,82.9,346.8,82.9,346.8z M85.4,354.1
		c1.8,0,3.6-1.3,3.6-3.1c0-1.6-1.3-2.2-2.9-2.9c-0.6-0.2-1.6-0.6-1.8-0.6c-0.6,0-2.5,1.4-2.5,3.3C81.7,352.9,83.5,354.1,85.4,354.1z
		 M86.7,346.8c0.5,0,2-1.5,2-3.1c0-1.7-1.3-2.7-3.2-2.7c-2,0-3.1,1.2-3.1,2.6c0,1.6,1.4,2.2,3,2.8C85.7,346.6,86.4,346.8,86.7,346.8
		z"/>
	<path fill="#6D6E70" d="M93,342.6c0-1.7,1.4-3.1,3.1-3.1c1.7,0,3.1,1.4,3.1,3.1c0,1.7-1.4,3.1-3.1,3.1
		C94.4,345.7,93,344.3,93,342.6z M105,339.8h1.6l-11.8,15.5h-1.6L105,339.8z M97.9,342.6c0-1-0.8-1.8-1.8-1.8c-1,0-1.8,0.8-1.8,1.8
		c0,1,0.8,1.8,1.8,1.8C97.1,344.4,97.9,343.6,97.9,342.6z M103.5,349.4c1.7,0,3.1,1.4,3.1,3.1c0,1.7-1.4,3-3.1,3
		c-1.7,0-3.1-1.4-3.1-3C100.5,350.8,101.8,349.4,103.5,349.4z M103.5,354.3c1,0,1.8-0.8,1.8-1.8c0-1-0.8-1.8-1.8-1.8
		c-1,0-1.8,0.8-1.8,1.8C101.8,353.5,102.5,354.3,103.5,354.3z"/>
</g>
<g>
	<path fill="#6D6E70" d="M276.5,350l7.5-10.2h1.7v9.8h2.5v1.4h-2.5v4.3h-1.5V351h-7.6V350z M284.2,343.3c0-0.7,0.1-1.5,0.1-1.5h0
		c0,0-0.4,0.6-0.8,1.2l-4.3,5.7c-0.4,0.5-0.8,1-0.8,1v0c0,0,0.6-0.1,1.3-0.1h4.6V343.3z"/>
	<path fill="#6D6E70" d="M289.9,342.6c0-1.7,1.4-3.1,3.1-3.1c1.7,0,3.1,1.4,3.1,3.1c0,1.7-1.4,3.1-3.1,3.1
		C291.3,345.7,289.9,344.3,289.9,342.6z M301.9,339.8h1.6l-11.8,15.5h-1.6L301.9,339.8z M294.8,342.6c0-1-0.8-1.8-1.8-1.8
		c-1,0-1.8,0.8-1.8,1.8c0,1,0.8,1.8,1.8,1.8C294,344.4,294.8,343.6,294.8,342.6z M300.5,349.4c1.7,0,3.1,1.4,3.1,3.1
		c0,1.7-1.4,3-3.1,3c-1.7,0-3.1-1.4-3.1-3C297.4,350.8,298.7,349.4,300.5,349.4z M300.5,354.3c1,0,1.8-0.8,1.8-1.8
		c0-1-0.8-1.8-1.8-1.8c-1,0-1.8,0.8-1.8,1.8C298.7,353.5,299.4,354.3,300.5,354.3z"/>
</g>
<g>
	<path fill="#6D6E70" d="M88.2,377.3c0.4-0.8,0.9-1.4,0.9-1.4v0c0,0-0.4,0-1.2,0h-5.6c-0.3,0-0.5,0.2-0.5,0.5v1h-1.5v-1.5
		c0-0.9,0.4-1.3,1.3-1.3h9.1v1.1L83.2,390h-1.7L88.2,377.3z"/>
	<path fill="#6D6E70" d="M92.4,377.3c0-1.7,1.4-3.1,3.1-3.1c1.7,0,3.1,1.4,3.1,3.1c0,1.7-1.4,3.1-3.1,3.1
		C93.7,380.4,92.4,379,92.4,377.3z M104.3,374.5h1.6L94.1,390h-1.6L104.3,374.5z M97.3,377.3c0-1-0.8-1.8-1.8-1.8
		c-1,0-1.8,0.8-1.8,1.8c0,1,0.8,1.8,1.8,1.8C96.5,379.1,97.3,378.3,97.3,377.3z M102.9,384.1c1.7,0,3.1,1.4,3.1,3.1
		c0,1.7-1.4,3-3.1,3c-1.7,0-3.1-1.4-3.1-3C99.8,385.5,101.2,384.1,102.9,384.1z M102.9,389c1,0,1.8-0.8,1.8-1.8c0-1-0.8-1.8-1.8-1.8
		c-1,0-1.8,0.8-1.8,1.8C101.1,388.2,101.9,389,102.9,389z"/>
</g>
<g>
	<path fill="#6D6E70" d="M278.3,387c0,0,1.2,1.8,3.6,1.8c2.2,0,3.9-1.6,3.9-3.6c0-2.1-1.8-3.6-4-3.6c-1.7,0-3,0.9-3,0.9l-0.8-0.3
		l0.7-6.2c0.1-0.9,0.4-1.3,1.3-1.3h5.1c0.9,0,1.3,0.4,1.3,1.3v1.5h-1.4v-1c0-0.3-0.2-0.5-0.5-0.5h-3.9c-0.3,0-0.4,0.2-0.5,0.5
		l-0.4,3.5c-0.1,0.5-0.1,0.9-0.1,0.9h0c0,0,1-0.6,2.3-0.6c3.1,0,5.4,2.2,5.4,5c0,2.8-2.3,5-5.4,5c-3.1,0-4.6-2.2-4.6-2.2L278.3,387z
		"/>
	<path fill="#6D6E70" d="M290,377.3c0-1.7,1.4-3.1,3.1-3.1c1.7,0,3.1,1.4,3.1,3.1c0,1.7-1.4,3.1-3.1,3.1
		C291.4,380.4,290,379,290,377.3z M301.9,374.5h1.6L291.7,390h-1.6L301.9,374.5z M294.9,377.3c0-1-0.8-1.8-1.8-1.8
		c-1,0-1.8,0.8-1.8,1.8c0,1,0.8,1.8,1.8,1.8C294.1,379.1,294.9,378.3,294.9,377.3z M300.5,384.1c1.7,0,3.1,1.4,3.1,3.1
		c0,1.7-1.4,3-3.1,3c-1.7,0-3.1-1.4-3.1-3C297.4,385.5,298.8,384.1,300.5,384.1z M300.5,389c1,0,1.8-0.8,1.8-1.8
		c0-1-0.8-1.8-1.8-1.8c-1,0-1.8,0.8-1.8,1.8C298.8,388.2,299.5,389,300.5,389z"/>
</g>
<g>
	<path fill="#6D6E70" d="M81.8,424.3h3.5v-11.4c0-0.4,0-0.9,0-0.9h0c0,0-0.2,0.3-0.8,0.9l-1.7,1.6l-1-1l3.5-3.5h1.5v14.1h3.4v1.4
		h-8.4V424.3z"/>
	<path fill="#6D6E70" d="M91.7,413c0-1.7,1.4-3.1,3.1-3.1c1.7,0,3.1,1.4,3.1,3.1c0,1.7-1.4,3.1-3.1,3.1
		C93.1,416,91.7,414.7,91.7,413z M103.7,410.2h1.6l-11.8,15.5h-1.6L103.7,410.2z M96.6,413c0-1-0.8-1.8-1.8-1.8
		c-1,0-1.8,0.8-1.8,1.8c0,1,0.8,1.8,1.8,1.8C95.8,414.8,96.6,414,96.6,413z M102.3,419.8c1.7,0,3.1,1.4,3.1,3.1c0,1.7-1.4,3-3.1,3
		c-1.7,0-3.1-1.4-3.1-3C99.2,421.2,100.5,419.8,102.3,419.8z M102.3,424.7c1,0,1.8-0.8,1.8-1.8c0-1-0.8-1.8-1.8-1.8
		c-1,0-1.8,0.8-1.8,1.8C100.5,423.9,101.2,424.7,102.3,424.7z"/>
</g>
<g>
	<path fill="#6D6E70" d="M278.6,424.3h3.5v-11.4c0-0.4,0-0.9,0-0.9h0c0,0-0.2,0.3-0.8,0.9l-1.7,1.6l-1-1l3.5-3.5h1.5v14.1h3.4v1.4
		h-8.4V424.3z"/>
	<path fill="#6D6E70" d="M289,413c0-1.7,1.4-3.1,3.1-3.1c1.7,0,3.1,1.4,3.1,3.1c0,1.7-1.4,3.1-3.1,3.1C290.4,416,289,414.7,289,413z
		 M300.9,410.2h1.6l-11.8,15.5h-1.6L300.9,410.2z M293.9,413c0-1-0.8-1.8-1.8-1.8c-1,0-1.8,0.8-1.8,1.8c0,1,0.8,1.8,1.8,1.8
		C293.1,414.8,293.9,414,293.9,413z M299.5,419.8c1.7,0,3.1,1.4,3.1,3.1c0,1.7-1.4,3-3.1,3c-1.7,0-3.1-1.4-3.1-3
		C296.4,421.2,297.8,419.8,299.5,419.8z M299.5,424.7c1,0,1.8-0.8,1.8-1.8c0-1-0.8-1.8-1.8-1.8c-1,0-1.8,0.8-1.8,1.8
		C297.7,423.9,298.5,424.7,299.5,424.7z"/>
</g>
<g>
	<path fill="#6D6E70" d="M81.8,460h3.5v-11.4c0-0.4,0-0.9,0-0.9h0c0,0-0.2,0.3-0.8,0.9l-1.7,1.6l-1-1l3.5-3.5h1.5V460h3.4v1.4h-8.4
		V460z"/>
	<path fill="#6D6E70" d="M91.7,448.6c0-1.7,1.4-3.1,3.1-3.1c1.7,0,3.1,1.4,3.1,3.1c0,1.7-1.4,3.1-3.1,3.1
		C93.1,451.7,91.7,450.3,91.7,448.6z M103.7,445.9h1.6l-11.8,15.5h-1.6L103.7,445.9z M96.6,448.6c0-1-0.8-1.8-1.8-1.8
		c-1,0-1.8,0.8-1.8,1.8c0,1,0.8,1.8,1.8,1.8C95.8,450.5,96.6,449.7,96.6,448.6z M102.3,455.5c1.7,0,3.1,1.4,3.1,3.1
		c0,1.7-1.4,3-3.1,3c-1.7,0-3.1-1.4-3.1-3C99.2,456.9,100.5,455.5,102.3,455.5z M102.3,460.4c1,0,1.8-0.8,1.8-1.8
		c0-1-0.8-1.8-1.8-1.8c-1,0-1.8,0.8-1.8,1.8C100.5,459.5,101.2,460.4,102.3,460.4z"/>
</g>
<g>
	<path fill="#6D6E70" d="M278.1,458.3c0,0,1.6,1.8,4,1.8c1.8,0,3.5-1.4,3.5-3.3c0-2.1-1.8-3.3-3.8-3.3h-1.1l-0.4-0.9l3.8-4.6
		c0.4-0.5,0.8-0.9,0.8-0.9v0c0,0-0.4,0.1-1.3,0.1h-4c-0.3,0-0.5,0.2-0.5,0.5v1h-1.4v-1.5c0-0.9,0.4-1.3,1.3-1.3h7.9v1l-4.6,5.3
		c1.9,0.1,4.8,1.2,4.8,4.6c0,2.6-2.2,4.8-5.1,4.8c-3.1,0-5-2.2-5-2.2L278.1,458.3z"/>
	<path fill="#6D6E70" d="M289.6,448.6c0-1.7,1.4-3.1,3.1-3.1c1.7,0,3.1,1.4,3.1,3.1c0,1.7-1.4,3.1-3.1,3.1
		C290.9,451.7,289.6,450.3,289.6,448.6z M301.5,445.9h1.6l-11.8,15.5h-1.6L301.5,445.9z M294.5,448.6c0-1-0.8-1.8-1.8-1.8
		c-1,0-1.8,0.8-1.8,1.8c0,1,0.8,1.8,1.8,1.8C293.7,450.5,294.5,449.7,294.5,448.6z M300.1,455.5c1.7,0,3.1,1.4,3.1,3.1
		c0,1.7-1.4,3-3.1,3c-1.7,0-3.1-1.4-3.1-3C297,456.9,298.4,455.5,300.1,455.5z M300.1,460.4c1,0,1.8-0.8,1.8-1.8
		c0-1-0.8-1.8-1.8-1.8c-1,0-1.8,0.8-1.8,1.8C298.3,459.5,299.1,460.4,300.1,460.4z"/>
</g>
<g>
	<path fill="#6D6E70" d="M88.3,485.6c0-1.7-1.2-2.9-3.2-2.9c-1.5,0-2.8,0.8-2.8,1.7v0.7h-1.5V484c0-2,2.7-2.7,4.2-2.7
		c2.9,0,4.7,1.9,4.7,4.3c0,5.4-8.2,5.3-8.2,9.6c0,0.3,0.2,0.4,0.5,0.4h6.5c0.3,0,0.5-0.2,0.5-0.5v-1h1.4v1.5c0,0.9-0.4,1.3-1.3,1.3
		h-7.7c-1.1,0-1.4-0.4-1.4-1.5C80.1,489.7,88.3,490.2,88.3,485.6z"/>
	<path fill="#6D6E70" d="M93,484.3c0-1.7,1.4-3.1,3.1-3.1c1.7,0,3.1,1.4,3.1,3.1c0,1.7-1.4,3.1-3.1,3.1C94.3,487.4,93,486,93,484.3z
		 M104.9,481.5h1.6L94.7,497h-1.6L104.9,481.5z M97.9,484.3c0-1-0.8-1.8-1.8-1.8c-1,0-1.8,0.8-1.8,1.8c0,1,0.8,1.8,1.8,1.8
		C97.1,486.1,97.9,485.3,97.9,484.3z M103.5,491.1c1.7,0,3.1,1.4,3.1,3.1c0,1.7-1.4,3-3.1,3c-1.7,0-3.1-1.4-3.1-3
		C100.4,492.5,101.8,491.1,103.5,491.1z M103.5,496c1,0,1.8-0.8,1.8-1.8c0-1-0.8-1.8-1.8-1.8c-1,0-1.8,0.8-1.8,1.8
		C101.7,495.2,102.5,496,103.5,496z"/>
</g>
<g>
	<path fill="#6D6E70" d="M278.6,495.6h3.5v-11.4c0-0.4,0-0.9,0-0.9h0c0,0-0.2,0.3-0.8,0.9l-1.7,1.6l-1-1l3.5-3.5h1.5v14.1h3.4v1.4
		h-8.4V495.6z"/>
	<path fill="#6D6E70" d="M289,484.3c0-1.7,1.4-3.1,3.1-3.1c1.7,0,3.1,1.4,3.1,3.1c0,1.7-1.4,3.1-3.1,3.1
		C290.4,487.4,289,486,289,484.3z M300.9,481.5h1.6L290.7,497h-1.6L300.9,481.5z M293.9,484.3c0-1-0.8-1.8-1.8-1.8
		c-1,0-1.8,0.8-1.8,1.8c0,1,0.8,1.8,1.8,1.8C293.1,486.1,293.9,485.3,293.9,484.3z M299.5,491.1c1.7,0,3.1,1.4,3.1,3.1
		c0,1.7-1.4,3-3.1,3c-1.7,0-3.1-1.4-3.1-3C296.4,492.5,297.8,491.1,299.5,491.1z M299.5,496c1,0,1.8-0.8,1.8-1.8
		c0-1-0.8-1.8-1.8-1.8c-1,0-1.8,0.8-1.8,1.8C297.7,495.2,298.5,496,299.5,496z"/>
</g>
<g>
	<path fill="#6D6E70" d="M81.3,529.7c0,0,1.2,1.8,3.6,1.8c2.2,0,3.9-1.6,3.9-3.6c0-2.1-1.8-3.6-4-3.6c-1.7,0-3,0.9-3,0.9l-0.8-0.3
		l0.7-6.2c0.1-0.9,0.4-1.3,1.3-1.3h5.1c0.9,0,1.3,0.4,1.3,1.3v1.5H88v-1c0-0.3-0.2-0.5-0.5-0.5h-3.9c-0.3,0-0.4,0.2-0.5,0.5
		l-0.4,3.5c-0.1,0.5-0.1,0.9-0.1,0.9h0c0,0,1-0.6,2.3-0.6c3.1,0,5.4,2.2,5.4,5c0,2.8-2.3,5-5.4,5c-3.1,0-4.6-2.2-4.6-2.2L81.3,529.7
		z"/>
	<path fill="#6D6E70" d="M93,520c0-1.7,1.4-3.1,3.1-3.1c1.7,0,3.1,1.4,3.1,3.1c0,1.7-1.4,3.1-3.1,3.1C94.4,523.1,93,521.7,93,520z
		 M105,517.2h1.6l-11.8,15.5h-1.6L105,517.2z M97.9,520c0-1-0.8-1.8-1.8-1.8c-1,0-1.8,0.8-1.8,1.8c0,1,0.8,1.8,1.8,1.8
		C97.1,521.8,97.9,521,97.9,520z M103.6,526.8c1.7,0,3.1,1.4,3.1,3.1c0,1.7-1.4,3-3.1,3c-1.7,0-3.1-1.4-3.1-3
		C100.5,528.2,101.8,526.8,103.6,526.8z M103.6,531.7c1,0,1.8-0.8,1.8-1.8c0-1-0.8-1.8-1.8-1.8c-1,0-1.8,0.8-1.8,1.8
		C101.8,530.9,102.6,531.7,103.6,531.7z"/>
</g>
<g>
	<path fill="#6D6E70" d="M285.3,521.3c0-1.6-1.2-2.9-3.2-2.9c-1.5,0-2.8,0.8-2.8,1.7v0.7h-1.5v-1.1c0-2,2.7-2.7,4.2-2.7
		c2.9,0,4.7,1.9,4.7,4.3c0,5.4-8.2,5.3-8.2,9.6c0,0.3,0.2,0.4,0.5,0.4h6.5c0.3,0,0.5-0.2,0.5-0.5v-1h1.4v1.5c0,0.9-0.4,1.3-1.3,1.3
		h-7.7c-1.1,0-1.4-0.4-1.4-1.5C277.1,525.4,285.3,525.9,285.3,521.3z"/>
	<path fill="#6D6E70" d="M290,520c0-1.7,1.4-3.1,3.1-3.1c1.7,0,3.1,1.4,3.1,3.1c0,1.7-1.4,3.1-3.1,3.1
		C291.3,523.1,290,521.7,290,520z M301.9,517.2h1.6l-11.8,15.5h-1.6L301.9,517.2z M294.9,520c0-1-0.8-1.8-1.8-1.8
		c-1,0-1.8,0.8-1.8,1.8c0,1,0.8,1.8,1.8,1.8C294.1,521.8,294.9,521,294.9,520z M300.5,526.8c1.7,0,3.1,1.4,3.1,3.1
		c0,1.7-1.4,3-3.1,3c-1.7,0-3.1-1.4-3.1-3C297.4,528.2,298.8,526.8,300.5,526.8z M300.5,531.7c1,0,1.8-0.8,1.8-1.8
		c0-1-0.8-1.8-1.8-1.8c-1,0-1.8,0.8-1.8,1.8C298.7,530.9,299.5,531.7,300.5,531.7z"/>
</g>
<g>
	<path fill="#6D6E70" d="M79.6,574l7.5-10.2h1.7v9.8h2.5v1.4h-2.5v4.3h-1.5V575h-7.6V574z M87.2,567.3c0-0.7,0.1-1.5,0.1-1.5h0
		c0,0-0.4,0.6-0.8,1.2l-4.3,5.7c-0.4,0.5-0.8,1-0.8,1v0c0,0,0.6-0.1,1.3-0.1h4.6V567.3z"/>
	<path fill="#6D6E70" d="M93,566.6c0-1.7,1.4-3.1,3.1-3.1c1.7,0,3.1,1.4,3.1,3.1c0,1.7-1.4,3.1-3.1,3.1
		C94.3,569.7,93,568.3,93,566.6z M104.9,563.8h1.6l-11.8,15.5h-1.6L104.9,563.8z M97.9,566.6c0-1-0.8-1.8-1.8-1.8
		c-1,0-1.8,0.8-1.8,1.8c0,1,0.8,1.8,1.8,1.8C97.1,568.4,97.9,567.6,97.9,566.6z M103.5,573.4c1.7,0,3.1,1.4,3.1,3.1
		c0,1.7-1.4,3-3.1,3c-1.7,0-3.1-1.4-3.1-3C100.4,574.8,101.8,573.4,103.5,573.4z M103.5,578.3c1,0,1.8-0.8,1.8-1.8
		c0-1-0.8-1.8-1.8-1.8c-1,0-1.8,0.8-1.8,1.8C101.7,577.5,102.5,578.3,103.5,578.3z"/>
</g>
<g>
	<path fill="#6D6E70" d="M278.7,577.9h3.5v-11.4c0-0.4,0-0.9,0-0.9h0c0,0-0.2,0.3-0.8,0.9l-1.7,1.6l-1-1l3.5-3.5h1.5v14.1h3.4v1.4
		h-8.4V577.9z"/>
	<path fill="#6D6E70" d="M288.6,566.6c0-1.7,1.4-3.1,3.1-3.1c1.7,0,3.1,1.4,3.1,3.1c0,1.7-1.4,3.1-3.1,3.1
		C290,569.7,288.6,568.3,288.6,566.6z M300.5,563.8h1.6l-11.8,15.5h-1.6L300.5,563.8z M293.5,566.6c0-1-0.8-1.8-1.8-1.8
		c-1,0-1.8,0.8-1.8,1.8c0,1,0.8,1.8,1.8,1.8C292.7,568.4,293.5,567.6,293.5,566.6z M299.1,573.4c1.7,0,3.1,1.4,3.1,3.1
		c0,1.7-1.4,3-3.1,3c-1.7,0-3.1-1.4-3.1-3C296,574.8,297.4,573.4,299.1,573.4z M299.1,578.3c1,0,1.8-0.8,1.8-1.8
		c0-1-0.8-1.8-1.8-1.8c-1,0-1.8,0.8-1.8,1.8C297.4,577.5,298.1,578.3,299.1,578.3z"/>
</g>
<g>
	<path fill="#6D6E70" d="M81.8,622.5h3.5v-11.4c0-0.4,0-0.9,0-0.9h0c0,0-0.2,0.3-0.8,0.9l-1.7,1.6l-1-1l3.5-3.5h1.5v14.1h3.4v1.4
		h-8.4V622.5z"/>
	<path fill="#6D6E70" d="M91.8,611.2c0-1.7,1.4-3.1,3.1-3.1c1.7,0,3.1,1.4,3.1,3.1c0,1.7-1.4,3.1-3.1,3.1
		C93.1,614.3,91.8,612.9,91.8,611.2z M103.7,608.4h1.6l-11.8,15.5h-1.6L103.7,608.4z M96.7,611.2c0-1-0.8-1.8-1.8-1.8
		c-1,0-1.8,0.8-1.8,1.8c0,1,0.8,1.8,1.8,1.8C95.9,613.1,96.7,612.2,96.7,611.2z M102.3,618.1c1.7,0,3.1,1.4,3.1,3.1
		c0,1.7-1.4,3-3.1,3c-1.7,0-3.1-1.4-3.1-3C99.2,619.4,100.6,618.1,102.3,618.1z M102.3,622.9c1,0,1.8-0.8,1.8-1.8
		c0-1-0.8-1.8-1.8-1.8c-1,0-1.8,0.8-1.8,1.8C100.5,622.1,101.3,622.9,102.3,622.9z"/>
</g>
<g>
	<path fill="#6D6E70" d="M278,620.9c0,0,1.6,1.8,4,1.8c1.8,0,3.5-1.4,3.5-3.3c0-2.1-1.8-3.3-3.8-3.3h-1.1l-0.4-0.9l3.8-4.6
		c0.4-0.5,0.8-0.9,0.8-0.9v0c0,0-0.4,0.1-1.3,0.1h-4c-0.3,0-0.5,0.2-0.5,0.5v1h-1.4v-1.5c0-0.9,0.4-1.3,1.3-1.3h7.9v1l-4.6,5.3
		c1.9,0.1,4.8,1.2,4.8,4.6c0,2.6-2.2,4.8-5.1,4.8c-3.1,0-5-2.2-5-2.2L278,620.9z"/>
	<path fill="#6D6E70" d="M289.5,611.2c0-1.7,1.4-3.1,3.1-3.1c1.7,0,3.1,1.4,3.1,3.1c0,1.7-1.4,3.1-3.1,3.1
		C290.8,614.3,289.5,612.9,289.5,611.2z M301.4,608.4h1.6l-11.8,15.5h-1.6L301.4,608.4z M294.4,611.2c0-1-0.8-1.8-1.8-1.8
		c-1,0-1.8,0.8-1.8,1.8c0,1,0.8,1.8,1.8,1.8C293.6,613.1,294.4,612.2,294.4,611.2z M300,618.1c1.7,0,3.1,1.4,3.1,3.1
		c0,1.7-1.4,3-3.1,3c-1.7,0-3.1-1.4-3.1-3C296.9,619.4,298.3,618.1,300,618.1z M300,622.9c1,0,1.8-0.8,1.8-1.8c0-1-0.8-1.8-1.8-1.8
		c-1,0-1.8,0.8-1.8,1.8C298.2,622.1,299,622.9,300,622.9z"/>
</g>
<line fill="none" stroke="#D0D2D3" stroke-miterlimit="10" x1="185.5" y1="150" x2="185.5" y2="632.5"/>
<line fill="none" stroke="#FFFFFF" stroke-miterlimit="10" x1="185.5" y1="60.1" x2="185.5" y2="149.9"/>
<line fill="none" stroke="#FFFFFF" stroke-miterlimit="10" x1="0.2" y1="60.2" x2="387.8" y2="60.2"/>
<line fill="none" stroke="#D0D2D3" stroke-miterlimit="10" x1="0.1" y1="150.1" x2="388.1" y2="150.1"/>
</svg>
