<?xml version="1.0" encoding="utf-8"?>
<!-- Generator: Adobe Illustrator 18.1.1, SVG Export Plug-In . SVG Version: 6.00 Build 0)  -->
<svg version="1.1" id="Layer_1" xmlns="http://www.w3.org/2000/svg" xmlns:xlink="http://www.w3.org/1999/xlink" x="0px" y="0px"
	 viewBox="0 128.8 270.2 534.6" enable-background="new 0 128.8 270.2 534.6" xml:space="preserve">
<path fill="none" stroke="#D0D2D3" stroke-width="1.1541" stroke-miterlimit="10" d="M583.1,255.5"/>
<path fill="none" stroke="#D0D2D3" stroke-width="1.1541" stroke-miterlimit="10" d="M583.1,175.2"/>
<g>
	<rect y="128.8" fill="#BCD6E9" width="269.7" height="126.4"/>
	<line fill="none" stroke="#D0D2D3" stroke-miterlimit="10" x1="0.4" y1="289.8" x2="269.2" y2="289.8"/>
	<line fill="none" stroke="#D0D2D3" stroke-miterlimit="10" x1="0.4" y1="319.4" x2="269.2" y2="319.4"/>
	<line fill="none" stroke="#D0D2D3" stroke-miterlimit="10" x1="0.4" y1="349" x2="269.2" y2="349"/>
	<line fill="none" stroke="#D0D2D3" stroke-miterlimit="10" x1="0.4" y1="378.7" x2="269.2" y2="378.7"/>
	<line fill="none" stroke="#D0D2D3" stroke-miterlimit="10" x1="0.4" y1="408.4" x2="269.2" y2="408.4"/>
	<line fill="none" stroke="#D0D2D3" stroke-miterlimit="10" x1="0.4" y1="438" x2="269.2" y2="438"/>
	<line fill="none" stroke="#D0D2D3" stroke-miterlimit="10" x1="0.4" y1="467.7" x2="269.2" y2="467.7"/>
	<line fill="none" stroke="#D0D2D3" stroke-miterlimit="10" x1="0.4" y1="497.4" x2="269.2" y2="497.4"/>
	<line fill="none" stroke="#D0D2D3" stroke-miterlimit="10" x1="0.4" y1="527" x2="269.2" y2="527"/>
	<line fill="none" stroke="#D0D2D3" stroke-miterlimit="10" x1="0.4" y1="556.7" x2="269.2" y2="556.7"/>
	<line fill="none" stroke="#D0D2D3" stroke-miterlimit="10" x1="0.4" y1="586.7" x2="270" y2="586.7"/>
	<line fill="none" stroke="#D0D2D3" stroke-miterlimit="10" x1="0.4" y1="634.3" x2="269.2" y2="634.3"/>
	<line fill="none" stroke="#D0D2D3" stroke-miterlimit="10" x1="0.4" y1="662.8" x2="269.2" y2="662.8"/>
	<g>
		<path fill="#1D1756" d="M20.6,195.4H16l-1.1,3.4h-2.4l4.6-13.2h2.5l4.6,13.2h-2.4L20.6,195.4z M18.3,187.9c0,0-0.3,1.3-0.6,2
			l-1.2,3.5H20l-1.2-3.5C18.7,189.3,18.3,187.9,18.3,187.9L18.3,187.9z"/>
		<path fill="#1D1756" d="M29.1,189.2c2.1,0,2.7,1.2,2.7,1.2l0,0c0,0,0-0.3,0-0.5v-4.1h2.4v13.2h-2.1v-0.8c0-0.3,0-0.6,0-0.6l0,0
			c0,0-0.8,1.6-3,1.6c-2.5,0-4.2-2-4.2-5C24.9,191.1,26.7,189.2,29.1,189.2z M29.6,197.1c1.3,0,2.4-0.9,2.4-3c0-1.4-0.8-3-2.4-3
			c-1.3,0-2.4,1.1-2.4,3C27.3,196,28.2,197.1,29.6,197.1z"/>
		<path fill="#1D1756" d="M35.5,189.4H38l1.9,5.9c0.2,0.6,0.3,1.4,0.3,1.4l0,0c0,0,0.2-0.8,0.3-1.4l1.9-5.9H45l-3.4,9.5h-2.8
			L35.5,189.4z"/>
		<path fill="#1D1756" d="M50.7,189.2c2.7,0,4.2,2,4.2,4.5c0,0.3-0.1,0.9-0.1,0.9h-6.5c0.2,1.7,1.4,2.5,2.9,2.5c1.5,0,2.7-1,2.7-1
			l0.9,1.7c0,0-1.4,1.4-3.8,1.4c-3.1,0-5.1-2.3-5.1-5C45.8,191.2,47.9,189.2,50.7,189.2z M52.5,193c0-1.3-0.8-1.9-1.9-1.9
			c-1.2,0-2,0.8-2.3,1.9H52.5z"/>
		<path fill="#1D1756" d="M56.8,189.4h2.3v1.6c0,0.3,0,0.7,0,0.7l0,0c0.4-1.4,1.5-2.4,3-2.4c0.3,0,0.4,0,0.4,0v2.4c0,0-0.3,0-0.6,0
			c-1,0-2.1,0.6-2.6,2c-0.2,0.5-0.2,1-0.2,1.5v3.7h-2.4V189.4z"/>
		<path fill="#1D1756" d="M64.4,196c0,0,1,1,2.6,1c0.7,0,1.3-0.3,1.3-0.8c0-1.4-4.6-1.3-4.6-4.3c0-1.8,1.6-2.8,3.6-2.8
			c2.1,0,3.2,1.1,3.2,1.1l-0.8,1.8c0,0-0.8-0.8-2.4-0.8c-0.6,0-1.2,0.3-1.2,0.8c0,1.4,4.6,1.2,4.6,4.2c0,1.6-1.4,2.9-3.6,2.9
			c-2.4,0-3.7-1.4-3.7-1.4L64.4,196z"/>
		<path fill="#1D1756" d="M76.7,189.2c2.7,0,4.2,2,4.2,4.5c0,0.3-0.1,0.9-0.1,0.9h-6.5c0.2,1.7,1.4,2.5,2.9,2.5c1.5,0,2.7-1,2.7-1
			l0.9,1.7c0,0-1.4,1.4-3.8,1.4c-3.1,0-5.1-2.3-5.1-5C71.8,191.2,73.8,189.2,76.7,189.2z M78.4,193c0-1.3-0.8-1.9-1.9-1.9
			c-1.2,0-2,0.8-2.3,1.9H78.4z"/>
		<path fill="#1D1756" d="M13.7,208.8H16v1.6c0,0.3,0,0.7,0,0.7l0,0c0.4-1.4,1.5-2.4,3-2.4c0.3,0,0.4,0,0.4,0v2.4c0,0-0.3,0-0.6,0
			c-1,0-2.1,0.6-2.6,2c-0.2,0.5-0.2,1-0.2,1.5v3.7h-2.4V208.8z"/>
		<path fill="#1D1756" d="M25.2,208.6c2.7,0,4.2,2,4.2,4.5c0,0.3-0.1,0.9-0.1,0.9h-6.5c0.2,1.7,1.4,2.5,2.9,2.5c1.5,0,2.7-1,2.7-1
			l0.9,1.7c0,0-1.4,1.4-3.8,1.4c-3.1,0-5.1-2.3-5.1-5C20.3,210.6,22.3,208.6,25.2,208.6z M26.9,212.4c0-1.3-0.8-1.9-1.9-1.9
			c-1.2,0-2,0.8-2.3,1.9H26.9z"/>
		<path fill="#1D1756" d="M36.1,212.3h0.3v-0.2c0-1.3-0.8-1.7-1.9-1.7c-1.4,0-2.6,0.9-2.6,0.9l-0.9-1.7c0,0,1.4-1.2,3.7-1.2
			c2.4,0,4,1.4,4,3.8v5.9h-2.2v-0.8c0-0.3,0-0.7,0-0.7l0,0c0,0-0.8,1.7-2.9,1.7c-1.7,0-3.2-1.1-3.2-3
			C30.5,212.6,34.5,212.3,36.1,212.3z M34.3,216.6c1.3,0,2.1-1.4,2.1-2.4v-0.3H36c-1.2,0-3.1,0.2-3.1,1.5
			C32.8,216,33.3,216.6,34.3,216.6z"/>
		<path fill="#1D1756" d="M45.7,208.6c2.4,0,3.6,1.4,3.6,1.4l-1,1.6c0,0-1-1-2.4-1c-1.8,0-2.9,1.4-2.9,3s1.2,3,3,3
			c1.6,0,2.8-1.2,2.8-1.2l0.9,1.7c0,0-1.4,1.5-3.9,1.5c-3.1,0-5.1-2.2-5.1-5C40.5,210.8,42.6,208.6,45.7,208.6z"/>
		<path fill="#1D1756" d="M51.8,210.8h-1.3V209h1.3v-2.7H54v2.7h2.2v1.9H54v3.7c0,1.5,1.3,1.8,1.9,1.8c0.3,0,0.4,0,0.4,0v2
			c0,0-0.3,0.1-0.8,0.1c-1.4,0-4-0.4-4-3.5v-4.1H51.8z"/>
		<path fill="#1D1756" d="M58.3,205.1h2.4v2.1h-2.4V205.1z M58.3,208.8h2.4v9.5h-2.4V208.8z"/>
		<path fill="#1D1756" d="M67.8,208.6c2.9,0,5.2,2,5.2,5s-2.4,5-5.2,5c-2.9,0-5.2-2-5.2-5C62.6,210.6,64.9,208.6,67.8,208.6z
			 M67.8,216.5c1.5,0,2.8-1.2,2.8-3s-1.3-3-2.8-3c-1.5,0-2.8,1.2-2.8,3S66.3,216.5,67.8,216.5z"/>
		<path fill="#1D1756" d="M74.9,208.8h2.3v1.1c0,0.3,0,0.7,0,0.7l0,0c0.4-0.8,1.4-1.9,3.4-1.9c2.1,0,3.3,1.1,3.3,3.6v6.1h-2.4v-5.6
			c0-1.2-0.3-1.9-1.5-1.9c-1.3,0-2.2,0.8-2.5,1.9c-0.2,0.4-0.2,0.8-0.2,1.3v4.3h-2.4C74.9,218.3,74.9,208.8,74.9,208.8z"/>
	</g>
	<g>
		<path fill="#6D6E70" d="M14.1,265.3h2.4v5.6h6.1v-5.6h2.4v13.2h-2.4v-5.6h-6.1v5.6h-2.4V265.3z"/>
		<path fill="#6D6E70" d="M32,268.8c2.7,0,4.2,2,4.2,4.5c0,0.3-0.1,0.9-0.1,0.9h-6.5c0.2,1.7,1.4,2.5,2.9,2.5c1.5,0,2.7-1,2.7-1
			l0.9,1.7c0,0-1.4,1.4-3.8,1.4c-3.1,0-5.1-2.3-5.1-5C27.2,270.8,29.2,268.8,32,268.8z M33.9,272.6c0-1.3-0.8-1.9-1.9-1.9
			c-1.2,0-2,0.8-2.3,1.9H33.9z"/>
		<path fill="#6D6E70" d="M43,272.5h0.3v-0.2c0-1.3-0.8-1.7-1.9-1.7c-1.4,0-2.6,0.9-2.6,0.9l-0.9-1.7c0,0,1.4-1.2,3.7-1.2
			c2.4,0,4,1.4,4,3.8v5.9h-2.2v-0.8c0-0.3,0-0.7,0-0.7l0,0c0,0-0.8,1.7-2.9,1.7c-1.7,0-3.2-1.1-3.2-3
			C37.4,272.8,41.5,272.5,43,272.5z M41.2,276.8c1.3,0,2.1-1.4,2.1-2.4v-0.3h-0.4c-1.2,0-3.1,0.2-3.1,1.5
			C39.8,276.2,40.2,276.8,41.2,276.8z"/>
		<path fill="#6D6E70" d="M51.8,268.8c2.1,0,2.7,1.2,2.7,1.2l0,0c0,0,0-0.3,0-0.5v-4.1h2.4v13.2h-2.2v-0.8c0-0.3,0-0.6,0-0.6l0,0
			c0,0-0.8,1.6-3,1.6c-2.5,0-4.2-2-4.2-5C47.4,270.8,49.2,268.8,51.8,268.8z M52.2,276.7c1.3,0,2.4-0.9,2.4-3c0-1.4-0.8-3-2.4-3
			c-1.3,0-2.4,1.1-2.4,3C49.8,275.6,50.7,276.7,52.2,276.7z"/>
		<path fill="#6D6E70" d="M64.2,272.5h0.3v-0.2c0-1.3-0.8-1.7-1.9-1.7c-1.4,0-2.6,0.9-2.6,0.9l-0.9-1.7c0,0,1.4-1.2,3.7-1.2
			c2.4,0,4,1.4,4,3.8v5.9h-2.2v-0.8c0-0.3,0-0.7,0-0.7l0,0c0,0-0.8,1.7-2.9,1.7c-1.7,0-3.2-1.1-3.2-3
			C58.6,272.8,62.7,272.5,64.2,272.5z M62.5,276.8c1.3,0,2.1-1.4,2.1-2.4v-0.3h-0.4c-1.2,0-3.1,0.2-3.1,1.5
			C61,276.2,61.5,276.8,62.5,276.8z"/>
		<path fill="#6D6E70" d="M73.8,268.8c2.4,0,3.6,1.4,3.6,1.4l-1,1.6c0,0-1-1-2.4-1c-1.8,0-2.9,1.4-2.9,3c0,1.6,1.2,3,3,3
			c1.6,0,2.8-1.2,2.8-1.2l0.9,1.7c0,0-1.4,1.5-3.9,1.5c-3.1,0-5.1-2.2-5.1-5C68.6,271.1,70.7,268.8,73.8,268.8z"/>
		<path fill="#6D6E70" d="M79.4,265.3h2.4v4.6c0,0.5,0,0.8,0,0.8l0,0c0.5-0.9,1.6-1.9,3.3-1.9c2.1,0,3.3,1.1,3.3,3.6v6.1H86v-5.6
			c0-1.2-0.3-1.9-1.5-1.9c-1.3,0-2.2,0.8-2.5,1.9c-0.1,0.3-0.2,0.8-0.2,1.3v4.3h-2.4V265.3z"/>
		<path fill="#6D6E70" d="M95,268.8c2.7,0,4.2,2,4.2,4.5c0,0.3-0.1,0.9-0.1,0.9h-6.5c0.2,1.7,1.4,2.5,2.9,2.5c1.5,0,2.7-1,2.7-1
			l0.9,1.7c0,0-1.4,1.4-3.8,1.4c-3.1,0-5.1-2.3-5.1-5C90.2,270.8,92.2,268.8,95,268.8z M96.8,272.6c0-1.3-0.8-1.9-1.9-1.9
			c-1.2,0-2,0.8-2.3,1.9H96.8z"/>
	</g>
	<g>
		<path fill="#6D6E70" d="M14.1,295.2h4.5c4.1,0,6.8,2.4,6.8,6.6c0,4.1-2.6,6.6-6.8,6.6h-4.5V295.2z M18.4,306.3
			c2.7,0,4.4-1.6,4.4-4.6s-1.8-4.5-4.4-4.5h-1.9v9H18.4z"/>
		<path fill="#6D6E70" d="M27.4,295.2h2.4v2.1h-2.4V295.2z M27.4,299h2.4v9.5h-2.4V299z"/>
		<path fill="#6D6E70" d="M31.7,307.1l4.2-5.3c0.4-0.5,0.8-0.8,0.8-0.8l0,0c0,0-0.3,0-0.8,0h-4v-2h8v1.3l-4.2,5.3
			c-0.4,0.5-0.8,0.8-0.8,0.8l0,0c0,0,0.3-0.1,0.9-0.1h4.3v2h-8.4V307.1z"/>
		<path fill="#6D6E70" d="M41.5,307.1l4.2-5.3c0.4-0.5,0.8-0.8,0.8-0.8l0,0c0,0-0.3,0-0.8,0h-4v-2h8v1.3l-4.2,5.3
			c-0.4,0.5-0.8,0.8-0.8,0.8l0,0c0,0,0.3-0.1,0.9-0.1h4.3v2h-8.4V307.1z"/>
		<path fill="#6D6E70" d="M51.8,295.2h2.4v2.1h-2.4C51.8,297.3,51.8,295.2,51.8,295.2z M51.8,299h2.4v9.5h-2.4
			C51.8,308.4,51.8,299,51.8,299z"/>
		<path fill="#6D6E70" d="M56.8,299h2.3v1.1c0,0.3,0,0.7,0,0.7l0,0c0.4-0.8,1.4-1.9,3.4-1.9c2.1,0,3.3,1.1,3.3,3.6v6.1h-2.4v-5.6
			c0-1.2-0.3-1.9-1.5-1.9c-1.3,0-2.2,0.8-2.5,1.9c-0.2,0.4-0.2,0.8-0.2,1.3v4.3h-2.4C56.8,308.5,56.8,299,56.8,299z"/>
		<path fill="#6D6E70" d="M72.4,298.7c2.7,0,4.2,2,4.2,4.5c0,0.3-0.1,0.9-0.1,0.9H70c0.2,1.7,1.4,2.5,2.9,2.5c1.5,0,2.7-1,2.7-1
			l0.9,1.7c0,0-1.4,1.4-3.8,1.4c-3.1,0-5.1-2.3-5.1-5C67.5,300.7,69.5,298.7,72.4,298.7z M74.1,302.5c0-1.3-0.8-1.9-1.9-1.9
			c-1.2,0-2,0.8-2.3,1.9H74.1z"/>
		<path fill="#6D6E70" d="M78.8,305.5c0,0,1,1,2.6,1c0.7,0,1.3-0.3,1.3-0.8c0-1.4-4.6-1.3-4.6-4.3c0-1.8,1.6-2.8,3.6-2.8
			c2.1,0,3.2,1.1,3.2,1.1l-0.8,1.8c0,0-0.8-0.8-2.4-0.8c-0.6,0-1.2,0.3-1.2,0.8c0,1.4,4.6,1.2,4.6,4.2c0,1.6-1.4,2.9-3.6,2.9
			c-2.4,0-3.7-1.4-3.7-1.4L78.8,305.5z"/>
		<path fill="#6D6E70" d="M87.1,305.5c0,0,1,1,2.6,1c0.7,0,1.3-0.3,1.3-0.8c0-1.4-4.6-1.3-4.6-4.3c0-1.8,1.6-2.8,3.6-2.8
			c2.1,0,3.2,1.1,3.2,1.1l-0.8,1.8c0,0-0.8-0.8-2.4-0.8c-0.6,0-1.2,0.3-1.2,0.8c0,1.4,4.6,1.2,4.6,4.2c0,1.6-1.4,2.9-3.6,2.9
			c-2.4,0-3.7-1.4-3.7-1.4L87.1,305.5z"/>
	</g>
	<g>
		<path fill="#6D6E70" d="M14.4,334.9c0,0,1.4,1.4,3.3,1.4c1,0,1.9-0.5,1.9-1.6c0-2.4-6.2-1.9-6.2-6c0-2.2,1.9-3.8,4.4-3.8
			c2.6,0,4,1.4,4,1.4l-1,1.9c0,0-1.3-1.2-3-1.2c-1.1,0-2,0.7-2,1.6c0,2.4,6.2,1.8,6.2,6c0,2.1-1.6,3.9-4.3,3.9c-3,0-4.6-1.8-4.6-1.8
			L14.4,334.9z"/>
		<path fill="#6D6E70" d="M28.5,328.6c2.9,0,5.2,2,5.2,5s-2.4,5-5.2,5s-5.2-2-5.2-5C23.3,330.7,25.6,328.6,28.5,328.6z M28.5,336.5
			c1.5,0,2.8-1.2,2.8-3c0-1.8-1.3-3-2.8-3s-2.8,1.2-2.8,3C25.7,335.3,26.9,336.5,28.5,336.5z"/>
		<path fill="#6D6E70" d="M35.6,328.8h2.3v1.1c0,0.3,0,0.7,0,0.7l0,0c0.5-0.9,1.6-1.9,3.1-1.9c1.4,0,2.4,0.7,2.8,1.9l0,0
			c0.5-1,1.8-1.9,3.2-1.9c1.9,0,3.1,1.1,3.1,3.6v6.1h-2.4v-5.7c0-1.1-0.2-1.9-1.3-1.9c-1.2,0-2,0.9-2.3,2.2
			c-0.1,0.3-0.1,0.8-0.1,1.3v4.1h-2.4v-5.7c0-1-0.2-1.9-1.3-1.9c-1.3,0-2,0.9-2.4,2.2c-0.1,0.3-0.1,0.8-0.1,1.2v4.1h-2.4L35.6,328.8
			L35.6,328.8z"/>
		<path fill="#6D6E70" d="M52.5,328.8h2.3v1.1c0,0.3,0,0.7,0,0.7l0,0c0.4-0.8,1.4-1.9,3.4-1.9c2.1,0,3.3,1.1,3.3,3.6v6.1h-2.4v-5.6
			c0-1.2-0.3-1.9-1.5-1.9c-1.3,0-2.2,0.8-2.5,1.9c-0.2,0.4-0.2,0.8-0.2,1.3v4.3h-2.4V328.8z"/>
		<path fill="#6D6E70" d="M68.5,328.6c2.9,0,5.2,2,5.2,5s-2.4,5-5.2,5c-2.9,0-5.2-2-5.2-5C63.2,330.7,65.5,328.6,68.5,328.6z
			 M68.5,336.5c1.5,0,2.8-1.2,2.8-3c0-1.8-1.3-3-2.8-3c-1.5,0-2.8,1.2-2.8,3C65.6,335.3,66.9,336.5,68.5,336.5z"/>
		<path fill="#6D6E70" d="M75.4,325.1h2.4v9.9c0,1,0.3,1.3,0.9,1.3c0.2,0,0.3,0,0.3,0v2c0,0-0.3,0.1-0.8,0.1c-1.3,0-3-0.3-3-3
			L75.4,325.1L75.4,325.1z"/>
		<path fill="#6D6E70" d="M84.9,328.6c2.7,0,4.2,2,4.2,4.5c0,0.3-0.1,0.9-0.1,0.9h-6.5c0.2,1.7,1.4,2.5,2.9,2.5c1.5,0,2.7-1,2.7-1
			l0.9,1.7c0,0-1.4,1.4-3.8,1.4c-3.1,0-5.1-2.3-5.1-5C80.1,330.6,82.1,328.6,84.9,328.6z M86.8,332.4c0-1.3-0.8-1.9-1.9-1.9
			c-1.2,0-2,0.8-2.3,1.9H86.8z"/>
		<path fill="#6D6E70" d="M91.1,328.8h2.3v1.1c0,0.3,0,0.7,0,0.7l0,0c0.4-0.8,1.4-1.9,3.4-1.9c2.1,0,3.3,1.1,3.3,3.6v6.1h-2.4v-5.6
			c0-1.2-0.3-1.9-1.5-1.9c-1.3,0-2.2,0.8-2.5,1.9c-0.2,0.4-0.2,0.8-0.2,1.3v4.3h-2.4C91.1,338.4,91.1,328.8,91.1,328.8z"/>
		<path fill="#6D6E70" d="M107,328.6c2.4,0,3.6,1.4,3.6,1.4l-1,1.6c0,0-1-1-2.4-1c-1.8,0-2.9,1.4-2.9,3c0,1.6,1.2,3,3,3
			c1.6,0,2.8-1.2,2.8-1.2l0.9,1.7c0,0-1.4,1.5-3.9,1.5c-3.1,0-5.1-2.2-5.1-5C101.8,330.9,103.8,328.6,107,328.6z"/>
		<path fill="#6D6E70" d="M116.8,328.6c2.7,0,4.2,2,4.2,4.5c0,0.3-0.1,0.9-0.1,0.9h-6.5c0.2,1.7,1.4,2.5,2.9,2.5c1.5,0,2.7-1,2.7-1
			l0.9,1.7c0,0-1.4,1.4-3.8,1.4c-3.1,0-5.1-2.3-5.1-5C111.9,330.6,114,328.6,116.8,328.6z M118.6,332.4c0-1.3-0.8-1.9-1.9-1.9
			c-1.2,0-2,0.8-2.3,1.9H118.6z"/>
	</g>
	<g>
		<path fill="#6D6E70" d="M14.1,355h7.6v2h-5.1v3.7h4.4v2h-4.4v5.3h-2.4L14.1,355L14.1,355z"/>
		<path fill="#6D6E70" d="M28.3,362.3h0.3v-0.2c0-1.3-0.8-1.7-1.9-1.7c-1.4,0-2.6,0.9-2.6,0.9l-0.9-1.7c0,0,1.4-1.2,3.7-1.2
			c2.4,0,4,1.4,4,3.8v5.9h-2.2v-0.8c0-0.3,0-0.7,0-0.7l0,0c0,0-0.8,1.7-2.9,1.7c-1.7,0-3.2-1.1-3.2-3
			C22.6,362.4,26.7,362.3,28.3,362.3z M26.4,366.6c1.3,0,2.1-1.4,2.1-2.4v-0.3h-0.4c-1.2,0-3.1,0.2-3.1,1.5
			C25,366,25.5,366.6,26.4,366.6z"/>
		<path fill="#6D6E70" d="M33.7,360.8h-1.3v-1.9h1.4v-2.7H36v2.7h2.2v1.9H36v3.7c0,1.5,1.3,1.8,1.9,1.8c0.3,0,0.4,0,0.4,0v2
			c0,0-0.3,0.1-0.8,0.1c-1.4,0-4-0.4-4-3.5L33.7,360.8L33.7,360.8z"/>
		<path fill="#6D6E70" d="M40.3,355h2.4v2.1h-2.4V355z M40.3,358.7h2.4v9.5h-2.4V358.7z"/>
		<path fill="#6D6E70" d="M48.8,370.1c1.4,0,2.7-0.6,2.7-2.3v-0.6c0-0.3,0-0.5,0-0.5l0,0c-0.6,0.8-1.4,1.3-2.6,1.3
			c-2.7,0-4.2-2.2-4.2-4.8s1.4-4.7,4.2-4.7c2,0,2.8,1.2,2.8,1.2h0.1c0,0,0-0.1,0-0.3v-0.8h2.2v8.9c0,3.3-2.5,4.5-5,4.5
			c-1.2,0-2.4-0.3-3.4-0.8l0.7-1.8C46.2,369.4,47.4,370.1,48.8,370.1z M51.6,363.3c0-2.2-1.1-2.7-2.4-2.7c-1.4,0-2.2,1-2.2,2.6
			c0,1.7,0.8,2.9,2.4,2.9C50.5,366.1,51.6,365.4,51.6,363.3z"/>
		<path fill="#6D6E70" d="M56.3,358.7h2.4v5.6c0,1.2,0.3,1.9,1.4,1.9c1.7,0,2.6-1.5,2.6-3.2v-4.3h2.4v9.5h-2.3v-1.1
			c0-0.3,0-0.7,0-0.7l0,0c-0.5,1-1.7,1.9-3.3,1.9c-2,0-3.3-1-3.3-3.6L56.3,358.7L56.3,358.7z"/>
		<path fill="#6D6E70" d="M71.9,358.5c2.7,0,4.2,2,4.2,4.5c0,0.3-0.1,0.9-0.1,0.9h-6.5c0.2,1.7,1.4,2.5,2.9,2.5c1.5,0,2.7-1,2.7-1
			l0.9,1.7c0,0-1.4,1.4-3.8,1.4c-3.1,0-5.1-2.3-5.1-5C67.1,360.6,69.1,358.5,71.9,358.5z M73.7,362.3c0-1.3-0.8-1.9-1.9-1.9
			c-1.2,0-2,0.8-2.3,1.9H73.7z"/>
	</g>
	<g>
		<path fill="#6D6E70" d="M14.1,384.9h2.4l5,7.6c0.5,0.8,1.1,2,1.1,2l0,0c0,0-0.2-1.3-0.2-2v-7.6h2.4v13.2h-2.4l-5-7.6
			c-0.5-0.8-1.1-2-1.1-2l0,0c0,0,0.2,1.3,0.2,2v7.6h-2.4V384.9z"/>
		<path fill="#6D6E70" d="M32.6,392.2h0.3V392c0-1.3-0.8-1.7-1.9-1.7c-1.4,0-2.6,0.9-2.6,0.9l-0.9-1.7c0,0,1.4-1.2,3.7-1.2
			c2.4,0,4,1.4,4,3.8v5.9H33v-0.8c0-0.3,0-0.7,0-0.7l0,0c0,0-0.8,1.7-2.9,1.7c-1.7,0-3.2-1.1-3.2-3C27,392.4,31.1,392.2,32.6,392.2z
			 M30.8,396.5c1.3,0,2.1-1.4,2.1-2.4v-0.3h-0.4c-1.2,0-3.1,0.2-3.1,1.5C29.4,395.9,29.9,396.5,30.8,396.5z"/>
		<path fill="#6D6E70" d="M37.6,388.6h2.4v5.6c0,1.2,0.3,1.9,1.4,1.9c1.7,0,2.6-1.5,2.6-3.2v-4.3h2.4v9.5h-2.3V397
			c0-0.3,0-0.7,0-0.7l0,0c-0.5,1-1.7,1.9-3.3,1.9c-2,0-3.3-1-3.3-3.6C37.6,394.6,37.6,388.6,37.6,388.6z"/>
		<path fill="#6D6E70" d="M49.3,395.3c0,0,1,1,2.6,1c0.7,0,1.3-0.3,1.3-0.8c0-1.4-4.6-1.3-4.6-4.3c0-1.8,1.6-2.8,3.6-2.8
			c2.1,0,3.2,1.1,3.2,1.1l-0.8,1.8c0,0-0.8-0.8-2.4-0.8c-0.6,0-1.2,0.3-1.2,0.8c0,1.4,4.6,1.2,4.6,4.2c0,1.6-1.4,2.9-3.6,2.9
			c-2.4,0-3.7-1.4-3.7-1.4L49.3,395.3z"/>
		<path fill="#6D6E70" d="M61.5,388.4c2.7,0,4.2,2,4.2,4.5c0,0.3-0.1,0.9-0.1,0.9h-6.5c0.2,1.7,1.4,2.5,2.9,2.5c1.5,0,2.7-1,2.7-1
			l0.9,1.7c0,0-1.4,1.4-3.8,1.4c-3.1,0-5.1-2.3-5.1-5C56.7,390.5,58.8,388.4,61.5,388.4z M63.4,392.2c0-1.3-0.8-1.9-1.9-1.9
			c-1.2,0-2,0.8-2.3,1.9H63.4z"/>
		<path fill="#6D6E70" d="M72.5,392.2h0.3V392c0-1.3-0.8-1.7-1.9-1.7c-1.4,0-2.6,0.9-2.6,0.9l-0.9-1.7c0,0,1.4-1.2,3.7-1.2
			c2.4,0,4,1.4,4,3.8v5.9h-2.2v-0.8c0-0.3,0-0.7,0-0.7l0,0c0,0-0.8,1.7-2.9,1.7c-1.7,0-3.2-1.1-3.2-3
			C66.9,392.4,71,392.2,72.5,392.2z M70.7,396.5c1.3,0,2.1-1.4,2.1-2.4v-0.3h-0.4c-1.2,0-3.1,0.2-3.1,1.5
			C69.3,395.9,69.7,396.5,70.7,396.5z"/>
	</g>
	<g>
		<path fill="#6D6E70" d="M14.1,414.8h2.4l5,7.6c0.5,0.8,1.1,2,1.1,2l0,0c0,0-0.2-1.3-0.2-2v-7.6h2.4V428h-2.4l-5-7.6
			c-0.5-0.8-1.1-2-1.1-2l0,0c0,0,0.2,1.3,0.2,2v7.6h-2.4V414.8z"/>
		<path fill="#6D6E70" d="M32.6,422h0.3v-0.2c0-1.3-0.8-1.7-1.9-1.7c-1.4,0-2.6,0.9-2.6,0.9l-0.9-1.7c0,0,1.4-1.2,3.7-1.2
			c2.4,0,4,1.4,4,3.8v5.9H33v-0.8c0-0.3,0-0.7,0-0.7l0,0c0,0-0.8,1.7-2.9,1.7c-1.7,0-3.2-1.1-3.2-3C27,422.3,31.1,422,32.6,422z
			 M30.8,426.4c1.3,0,2.1-1.4,2.1-2.4v-0.3h-0.4c-1.2,0-3.1,0.2-3.1,1.5C29.4,425.8,29.9,426.4,30.8,426.4z"/>
		<path fill="#6D6E70" d="M38,425.2c0,0,1,1,2.6,1c0.7,0,1.3-0.3,1.3-0.8c0-1.4-4.6-1.3-4.6-4.3c0-1.8,1.6-2.8,3.6-2.8
			c2.1,0,3.2,1.1,3.2,1.1l-0.8,1.8c0,0-0.8-0.8-2.4-0.8c-0.6,0-1.2,0.3-1.2,0.8c0,1.4,4.6,1.2,4.6,4.2c0,1.6-1.4,2.9-3.6,2.9
			c-2.4,0-3.7-1.4-3.7-1.4L38,425.2z"/>
		<path fill="#6D6E70" d="M50.7,418.3c2.9,0,5.2,2,5.2,5c0,3-2.4,5-5.2,5c-2.9,0-5.2-2-5.2-5C45.4,420.4,47.7,418.3,50.7,418.3z
			 M50.7,426.3c1.5,0,2.8-1.2,2.8-3c0-1.8-1.3-3-2.8-3s-2.8,1.2-2.8,3C47.8,425.1,49.1,426.3,50.7,426.3z"/>
		<path fill="#6D6E70" d="M57.7,418.6h2.2v0.7c0,0.3,0,0.7,0,0.7l0,0c0,0,0.8-1.5,3-1.5c2.5,0,4.2,2,4.2,5c0,3-1.9,5-4.3,5
			c-1.9,0-2.7-1.3-2.7-1.3l0,0c0,0,0,0.3,0,0.8v4h-2.4L57.7,418.6L57.7,418.6z M62.4,426.3c1.3,0,2.4-1.1,2.4-3c0-1.8-0.9-3-2.4-3
			c-1.3,0-2.4,0.9-2.4,3C60,424.8,60.8,426.3,62.4,426.3z"/>
		<path fill="#6D6E70" d="M69.1,414.8h2.4v4.6c0,0.4,0,0.8,0,0.8l0,0c0.5-0.9,1.6-1.9,3.3-1.9c2.1,0,3.3,1.1,3.3,3.6v6.1h-2.4v-5.6
			c0-1.2-0.3-1.9-1.5-1.9c-1.3,0-2.2,0.8-2.5,1.9c-0.1,0.3-0.2,0.8-0.2,1.3v4.3h-2.4V414.8z"/>
		<path fill="#6D6E70" d="M85.3,422h0.3v-0.2c0-1.3-0.8-1.7-1.9-1.7c-1.4,0-2.6,0.9-2.6,0.9l-0.9-1.7c0,0,1.4-1.2,3.7-1.2
			c2.4,0,4,1.4,4,3.8v5.9h-2.2v-0.8c0-0.3,0-0.7,0-0.7l0,0c0,0-0.8,1.7-2.9,1.7c-1.7,0-3.2-1.1-3.2-3C79.7,422.3,83.8,422,85.3,422z
			 M83.5,426.4c1.3,0,2.1-1.4,2.1-2.4v-0.3h-0.4c-1.2,0-3.1,0.2-3.1,1.5C82.1,425.8,82.5,426.4,83.5,426.4z"/>
		<path fill="#6D6E70" d="M90.4,418.6h2.3v1.6c0,0.3,0,0.7,0,0.7l0,0c0.4-1.4,1.5-2.4,3-2.4c0.3,0,0.4,0,0.4,0v2.4c0,0-0.3,0-0.6,0
			c-1,0-2.1,0.6-2.6,2c-0.2,0.4-0.2,1-0.2,1.5v3.7h-2.4V418.6z"/>
		<path fill="#6D6E70" d="M97.6,429.6c0,0,0.5,0.4,1.1,0.4c0.7,0,1.3-0.4,1.6-1.3l0.3-0.8l-4-9.3h2.6l2,5.5c0.2,0.5,0.3,1.3,0.3,1.3
			l0,0c0,0,0.2-0.8,0.3-1.3l1.9-5.5h2.6l-4.2,10.9c-0.7,1.7-2,2.4-3.4,2.4c-1.1,0-1.9-0.6-1.9-0.6L97.6,429.6z"/>
		<path fill="#6D6E70" d="M107.7,418.6h2.3v1.1c0,0.3,0,0.7,0,0.7l0,0c0.4-0.8,1.4-1.9,3.4-1.9c2.1,0,3.3,1.1,3.3,3.6v6.1h-2.4v-5.6
			c0-1.2-0.3-1.9-1.5-1.9c-1.3,0-2.2,0.8-2.5,1.9c-0.2,0.4-0.2,0.8-0.2,1.3v4.3h-2.4C107.7,428.1,107.7,418.6,107.7,418.6z"/>
		<path fill="#6D6E70" d="M122.8,429.9c1.4,0,2.7-0.6,2.7-2.3V427c0-0.3,0-0.5,0-0.5l0,0c-0.6,0.8-1.4,1.3-2.6,1.3
			c-2.7,0-4.2-2.2-4.2-4.8s1.4-4.7,4.2-4.7c2,0,2.8,1.2,2.8,1.2h0.1c0,0,0-0.1,0-0.3v-0.8h2.2v8.9c0,3.3-2.5,4.5-5,4.5
			c-1.2,0-2.4-0.3-3.4-0.8l0.7-1.8C120.1,429.3,121.3,429.9,122.8,429.9z M125.5,423.1c0-2.2-1.1-2.7-2.4-2.7c-1.4,0-2.2,1-2.2,2.6
			c0,1.7,0.8,2.9,2.4,2.9C124.4,425.8,125.5,425.2,125.5,423.1z"/>
		<path fill="#6D6E70" d="M130.4,414.8h2.4v2.1h-2.4V414.8z M130.4,418.6h2.4v9.5h-2.4V418.6z"/>
		<path fill="#6D6E70" d="M135.8,420.5h-1.3v-1.9h1.3V416h2.3v2.7h2.2v1.9H138v3.7c0,1.5,1.3,1.8,1.9,1.8c0.3,0,0.4,0,0.4,0v2
			c0,0-0.3,0.1-0.8,0.1c-1.4,0-4-0.4-4-3.5v-4.1H135.8z"/>
		<path fill="#6D6E70" d="M142.3,414.8h2.4v2.1h-2.4V414.8z M142.3,418.6h2.4v9.5h-2.4V418.6z"/>
		<path fill="#6D6E70" d="M147.6,425.2c0,0,1,1,2.6,1c0.7,0,1.3-0.3,1.3-0.8c0-1.4-4.6-1.3-4.6-4.3c0-1.8,1.6-2.8,3.6-2.8
			c2.1,0,3.2,1.1,3.2,1.1l-0.8,1.8c0,0-0.8-0.8-2.4-0.8c-0.6,0-1.2,0.3-1.2,0.8c0,1.4,4.6,1.2,4.6,4.2c0,1.6-1.4,2.9-3.6,2.9
			c-2.4,0-3.7-1.4-3.7-1.4L147.6,425.2z"/>
	</g>
	<g>
		<path fill="#6D6E70" d="M14.1,444.8h4.7c2.4,0,4.1,1.3,4.1,3.4c0,1.3-0.6,2.3-1.6,2.8l0,0c1.4,0.4,2.1,1.8,2.1,3.1
			c0,2.6-2.1,3.8-4.6,3.8H14L14.1,444.8L14.1,444.8z M18.8,450.2c1,0,1.6-0.8,1.6-1.7s-0.6-1.6-1.7-1.6h-2.3v3.3H18.8z M19,455.9
			c1.3,0,1.9-0.8,1.9-1.9c0-1.1-0.7-1.9-1.9-1.9h-2.5v3.8H19z"/>
		<path fill="#6D6E70" d="M30.4,452h0.3v-0.2c0-1.3-0.8-1.7-1.9-1.7c-1.4,0-2.6,0.9-2.6,0.9l-0.9-1.7c0,0,1.4-1.2,3.7-1.2
			c2.4,0,4,1.4,4,3.8v5.9h-2.2v-0.8c0-0.3,0-0.7,0-0.7l0,0c0,0-0.8,1.7-2.9,1.7c-1.7,0-3.2-1.1-3.2-3C24.8,452.2,28.9,452,30.4,452z
			 M28.6,456.3c1.3,0,2.1-1.4,2.1-2.4v-0.3h-0.3c-1.2,0-3.1,0.2-3.1,1.5C27.2,455.7,27.7,456.3,28.6,456.3z"/>
		<path fill="#6D6E70" d="M40,448.2c2.4,0,3.6,1.4,3.6,1.4l-1,1.6c0,0-1-1-2.4-1c-1.8,0-2.9,1.4-2.9,3c0,1.6,1.2,3,3,3
			c1.6,0,2.8-1.2,2.8-1.2l0.9,1.7c0,0-1.4,1.5-3.9,1.5c-3.1,0-5.1-2.2-5.1-5C34.9,450.5,36.9,448.2,40,448.2z"/>
		<path fill="#6D6E70" d="M45.7,444.8H48v7.1h1.2l2.3-3.4h2.6l-3,4.2l0,0l3.4,5.2h-2.7l-2.5-4.1H48v4.1h-2.4V444.8z"/>
		<path fill="#6D6E70" d="M60.4,448.5h2.2v0.7c0,0.3,0,0.7,0,0.7l0,0c0,0,0.8-1.5,3-1.5c2.5,0,4.2,2,4.2,5c0,3-1.9,5-4.3,5
			c-1.9,0-2.7-1.3-2.7-1.3l0,0c0,0,0,0.3,0,0.8v4h-2.4L60.4,448.5L60.4,448.5z M65.1,456.2c1.3,0,2.4-1.1,2.4-3c0-1.8-0.9-3-2.4-3
			c-1.3,0-2.4,0.9-2.4,3C62.7,454.7,63.5,456.2,65.1,456.2z"/>
		<path fill="#6D6E70" d="M76.6,452h0.3v-0.2c0-1.3-0.8-1.7-1.9-1.7c-1.4,0-2.6,0.9-2.6,0.9l-0.9-1.7c0,0,1.4-1.2,3.7-1.2
			c2.4,0,4,1.4,4,3.8v5.9H77v-0.8c0-0.3,0-0.7,0-0.7l0,0c0,0-0.8,1.7-2.9,1.7c-1.7,0-3.2-1.1-3.2-3C71,452.2,75.1,452,76.6,452z
			 M74.8,456.3c1.3,0,2.1-1.4,2.1-2.4v-0.3h-0.4c-1.2,0-3.1,0.2-3.1,1.5C73.4,455.7,73.8,456.3,74.8,456.3z"/>
		<path fill="#6D6E70" d="M81.7,444.8h2.4v2.1h-2.4V444.8z M81.7,448.5h2.4v9.5h-2.4V448.5z"/>
		<path fill="#6D6E70" d="M86.6,448.5h2.3v1.1c0,0.3,0,0.7,0,0.7l0,0c0.4-0.8,1.4-1.9,3.4-1.9c2.1,0,3.3,1.1,3.3,3.6v6.1h-2.4v-5.6
			c0-1.2-0.3-1.9-1.5-1.9c-1.3,0-2.2,0.8-2.5,1.9c-0.2,0.4-0.2,0.8-0.2,1.3v4.3h-2.4C86.6,458,86.6,448.5,86.6,448.5z"/>
	</g>
	<g>
		<path fill="#6D6E70" d="M14.1,474.6h4.7c2.4,0,4.1,1.3,4.1,3.4c0,1.3-0.6,2.3-1.6,2.8l0,0c1.4,0.4,2.1,1.8,2.1,3.1
			c0,2.6-2.1,3.8-4.6,3.8H14L14.1,474.6L14.1,474.6z M18.8,480c1,0,1.6-0.8,1.6-1.7s-0.6-1.6-1.7-1.6h-2.3v3.3H18.8z M19,485.8
			c1.3,0,1.9-0.8,1.9-1.9c0-1.1-0.7-1.9-1.9-1.9h-2.5v3.8H19z"/>
		<path fill="#6D6E70" d="M25.5,474.6h2.4v9.9c0,1,0.3,1.3,0.9,1.3c0.2,0,0.3,0,0.3,0v2c0,0-0.3,0.1-0.8,0.1c-1.3,0-3-0.3-3-3
			L25.5,474.6L25.5,474.6z"/>
		<path fill="#6D6E70" d="M30.7,478.4h2.4v5.6c0,1.2,0.3,1.9,1.4,1.9c1.7,0,2.6-1.5,2.6-3.2v-4.3h2.4v9.5h-2.3v-1.1
			c0-0.3,0-0.7,0-0.7l0,0c-0.5,1-1.7,1.9-3.3,1.9c-2,0-3.3-1-3.3-3.6L30.7,478.4L30.7,478.4z"/>
		<path fill="#6D6E70" d="M42.2,478.4h2.3v1.6c0,0.3,0,0.7,0,0.7l0,0c0.4-1.4,1.5-2.4,3-2.4c0.3,0,0.4,0,0.4,0v2.4c0,0-0.3,0-0.6,0
			c-1,0-2.1,0.6-2.6,2c-0.2,0.4-0.2,1-0.2,1.5v3.7h-2.4V478.4z"/>
		<path fill="#6D6E70" d="M49.5,478.4h2.3v1.6c0,0.3,0,0.7,0,0.7l0,0c0.4-1.4,1.5-2.4,3-2.4c0.3,0,0.4,0,0.4,0v2.4c0,0-0.3,0-0.6,0
			c-1,0-2.1,0.6-2.6,2c-0.2,0.4-0.2,1-0.2,1.5v3.7h-2.4C49.5,487.8,49.5,478.4,49.5,478.4z"/>
		<path fill="#6D6E70" d="M61,478.1c2.7,0,4.2,2,4.2,4.5c0,0.3-0.1,0.9-0.1,0.9h-6.5c0.2,1.7,1.4,2.5,2.9,2.5c1.5,0,2.7-1,2.7-1
			l0.9,1.7c0,0-1.4,1.4-3.8,1.4c-3.1,0-5.1-2.3-5.1-5C56.1,480.2,58.1,478.1,61,478.1z M62.7,481.9c0-1.3-0.8-1.9-1.9-1.9
			c-1.2,0-2,0.8-2.3,1.9H62.7z"/>
		<path fill="#6D6E70" d="M70.7,478.1c2.1,0,2.7,1.2,2.7,1.2l0,0c0,0,0-0.3,0-0.5v-4.1h2.4v13.2h-2.2v-0.8c0-0.3,0-0.6,0-0.6l0,0
			c0,0-0.8,1.6-3,1.6c-2.5,0-4.2-2-4.2-5C66.4,480,68.2,478.1,70.7,478.1z M71.2,486c1.3,0,2.4-0.9,2.4-3c0-1.4-0.8-3-2.4-3
			c-1.3,0-2.4,1.1-2.4,3C68.8,484.9,69.8,486,71.2,486z"/>
		<path fill="#6D6E70" d="M81.6,478.4h2.4l1.9,5.9c0.2,0.6,0.3,1.4,0.3,1.4l0,0c0,0,0.2-0.8,0.3-1.4l1.9-5.9h2.4l-3.4,9.5h-2.8
			L81.6,478.4z"/>
		<path fill="#6D6E70" d="M92.6,474.6H95v2.1h-2.4V474.6z M92.6,478.4H95v9.5h-2.4V478.4z"/>
		<path fill="#6D6E70" d="M97.8,485c0,0,1,1,2.6,1c0.7,0,1.3-0.3,1.3-0.8c0-1.4-4.6-1.3-4.6-4.3c0-1.8,1.6-2.8,3.6-2.8
			c2.1,0,3.2,1.1,3.2,1.1l-0.8,1.8c0,0-0.8-0.8-2.4-0.8c-0.6,0-1.2,0.3-1.2,0.8c0,1.4,4.6,1.2,4.6,4.2c0,1.6-1.4,2.9-3.6,2.9
			c-2.4,0-3.7-1.4-3.7-1.4L97.8,485z"/>
		<path fill="#6D6E70" d="M106,474.6h2.4v2.1H106V474.6z M106,478.4h2.4v9.5H106V478.4z"/>
		<path fill="#6D6E70" d="M115.4,478.1c2.9,0,5.2,2,5.2,5c0,3-2.4,5-5.2,5s-5.2-2-5.2-5C110.2,480.2,112.5,478.1,115.4,478.1z
			 M115.4,486c1.5,0,2.8-1.2,2.8-3c0-1.8-1.3-3-2.8-3s-2.8,1.2-2.8,3S113.9,486,115.4,486z"/>
		<path fill="#6D6E70" d="M122.5,478.4h2.3v1.1c0,0.3,0,0.7,0,0.7l0,0c0.4-0.8,1.4-1.9,3.4-1.9c2.1,0,3.3,1.1,3.3,3.6v6.1h-2.4v-5.6
			c0-1.2-0.3-1.9-1.5-1.9c-1.3,0-2.2,0.8-2.5,1.9c-0.2,0.4-0.2,0.8-0.2,1.3v4.3h-2.4L122.5,478.4L122.5,478.4z"/>
	</g>
	<g>
		<path fill="#6D6E70" d="M14.1,504.5h4.5c4.1,0,6.8,2.4,6.8,6.6s-2.6,6.6-6.8,6.6h-4.5V504.5z M18.4,515.7c2.7,0,4.4-1.6,4.4-4.6
			s-1.8-4.5-4.4-4.5h-1.9v9L18.4,515.7L18.4,515.7z"/>
		<path fill="#6D6E70" d="M27.4,504.5h2.4v2.1h-2.4V504.5z M27.4,508.2h2.4v9.5h-2.4V508.2z"/>
		<path fill="#6D6E70" d="M37.2,511.8h0.3v-0.2c0-1.3-0.8-1.7-1.9-1.7c-1.4,0-2.6,0.9-2.6,0.9l-0.9-1.7c0,0,1.4-1.2,3.7-1.2
			c2.4,0,4,1.4,4,3.8v5.9h-2.2v-0.8c0-0.3,0-0.7,0-0.7l0,0c0,0-0.8,1.7-2.9,1.7c-1.7,0-3.2-1.1-3.2-3
			C31.6,512,35.6,511.8,37.2,511.8z M35.4,516.1c1.3,0,2.1-1.4,2.1-2.4v-0.3h-0.3c-1.2,0-3.1,0.2-3.1,1.5
			C33.9,515.5,34.4,516.1,35.4,516.1z"/>
		<path fill="#6D6E70" d="M42.3,508.2h2.3v1.6c0,0.3,0,0.7,0,0.7l0,0c0.4-1.4,1.5-2.4,3-2.4c0.3,0,0.4,0,0.4,0v2.4c0,0-0.3,0-0.6,0
			c-1,0-2.1,0.6-2.6,2c-0.2,0.4-0.2,1-0.2,1.5v3.7h-2.4V508.2z"/>
		<path fill="#6D6E70" d="M49.6,508.2h2.3v1.6c0,0.3,0,0.7,0,0.7l0,0c0.4-1.4,1.5-2.4,3-2.4c0.3,0,0.4,0,0.4,0v2.4c0,0-0.3,0-0.6,0
			c-1,0-2.1,0.6-2.6,2c-0.2,0.4-0.2,1-0.2,1.5v3.7h-2.4C49.6,517.7,49.6,508.2,49.6,508.2z"/>
		<path fill="#6D6E70" d="M56.9,504.5h2.4v4.6c0,0.4,0,0.8,0,0.8l0,0c0.5-0.9,1.6-1.9,3.3-1.9c2.1,0,3.3,1.1,3.3,3.6v6.1h-2.4v-5.6
			c0-1.2-0.3-1.9-1.5-1.9c-1.3,0-2.2,0.8-2.5,1.9c-0.1,0.3-0.2,0.8-0.2,1.3v4.3h-2.4V504.5z"/>
		<path fill="#6D6E70" d="M72.4,508.1c2.7,0,4.2,2,4.2,4.5c0,0.3-0.1,0.9-0.1,0.9h-6.5c0.2,1.7,1.4,2.5,2.9,2.5c1.5,0,2.7-1,2.7-1
			l0.9,1.7c0,0-1.4,1.4-3.8,1.4c-3.1,0-5.1-2.3-5.1-5C67.6,510.1,69.6,508.1,72.4,508.1z M74.2,511.8c0-1.3-0.8-1.9-1.9-1.9
			c-1.2,0-2,0.8-2.3,1.9H74.2z"/>
		<path fill="#6D6E70" d="M83.4,511.8h0.3v-0.2c0-1.3-0.8-1.7-1.9-1.7c-1.4,0-2.6,0.9-2.6,0.9l-0.9-1.7c0,0,1.4-1.2,3.7-1.2
			c2.4,0,4,1.4,4,3.8v5.9h-2.2v-0.8c0-0.3,0-0.7,0-0.7l0,0c0,0-0.8,1.7-2.9,1.7c-1.7,0-3.2-1.1-3.2-3
			C77.8,512,81.8,511.8,83.4,511.8z M81.6,516.1c1.3,0,2.1-1.4,2.1-2.4v-0.3h-0.4c-1.2,0-3.1,0.2-3.1,1.5
			C80.1,515.5,80.6,516.1,81.6,516.1z"/>
	</g>
	<g>
		<path fill="#6D6E70" d="M14.1,534.4h2.4v13.2h-2.4V534.4z"/>
		<path fill="#6D6E70" d="M19.4,538.1h2.3v1.1c0,0.3,0,0.7,0,0.7l0,0c0.4-0.8,1.4-1.9,3.4-1.9c2.1,0,3.3,1.1,3.3,3.6v6.1H26v-5.6
			c0-1.2-0.3-1.9-1.5-1.9c-1.3,0-2.2,0.8-2.5,1.9c-0.2,0.4-0.2,0.8-0.2,1.3v4.3h-2.4V538.1z"/>
		<path fill="#6D6E70" d="M31.1,544.8c0,0,1,1,2.6,1c0.7,0,1.3-0.3,1.3-0.8c0-1.4-4.6-1.3-4.6-4.3c0-1.8,1.6-2.8,3.6-2.8
			c2.1,0,3.2,1.1,3.2,1.1l-0.8,1.8c0,0-0.8-0.8-2.4-0.8c-0.6,0-1.2,0.3-1.2,0.8c0,1.4,4.6,1.2,4.6,4.2c0,1.6-1.4,2.9-3.6,2.9
			c-2.4,0-3.7-1.4-3.7-1.4L31.1,544.8z"/>
		<path fill="#6D6E70" d="M43.7,538c2.9,0,5.2,2,5.2,5s-2.4,5-5.2,5c-2.9,0-5.2-2-5.2-5S40.9,538,43.7,538z M43.7,545.9
			c1.5,0,2.8-1.2,2.8-3c0-1.8-1.3-3-2.8-3s-2.8,1.2-2.8,3C40.9,544.6,42.2,545.9,43.7,545.9z"/>
		<path fill="#6D6E70" d="M50.8,538.1h2.3v1.1c0,0.3,0,0.7,0,0.7l0,0c0.5-0.9,1.6-1.9,3.1-1.9c1.4,0,2.4,0.7,2.8,1.9l0,0
			c0.5-1,1.8-1.9,3.2-1.9c1.9,0,3.1,1.1,3.1,3.6v6.1H63V542c0-1.1-0.2-1.9-1.3-1.9c-1.2,0-2,0.9-2.3,2.2c-0.1,0.3-0.1,0.8-0.1,1.3
			v4.1H57v-5.7c0-1-0.2-1.9-1.3-1.9c-1.3,0-2,0.9-2.3,2.2c-0.1,0.3-0.1,0.8-0.1,1.2v4.1H51v-9.6H50.8z"/>
		<path fill="#6D6E70" d="M67.8,538.1h2.3v1.1c0,0.3,0,0.7,0,0.7l0,0c0.4-0.8,1.4-1.9,3.4-1.9c2.1,0,3.3,1.1,3.3,3.6v6.1h-2.4v-5.6
			c0-1.2-0.3-1.9-1.5-1.9c-1.3,0-2.2,0.8-2.5,1.9c-0.2,0.4-0.2,0.8-0.2,1.3v4.3h-2.4C67.8,547.7,67.8,538.1,67.8,538.1z"/>
		<path fill="#6D6E70" d="M79.2,534.4h2.4v2.1h-2.4V534.4z M79.2,538.1h2.4v9.5h-2.4V538.1z"/>
		<path fill="#6D6E70" d="M88.9,541.7h0.3v-0.1c0-1.3-0.8-1.7-1.9-1.7c-1.4,0-2.6,0.9-2.6,0.9l-0.9-1.7c0,0,1.4-1.2,3.7-1.2
			c2.4,0,4,1.4,4,3.8v5.9h-2.2v-0.8c0-0.3,0-0.7,0-0.7l0,0c0,0-0.8,1.7-2.9,1.7c-1.7,0-3.2-1.1-3.2-3
			C83.3,541.9,87.4,541.7,88.9,541.7z M87.1,546.1c1.3,0,2.1-1.4,2.1-2.4v-0.3h-0.4c-1.2,0-3.1,0.2-3.1,1.5
			C85.7,545.4,86.2,546.1,87.1,546.1z"/>
	</g>
	<g>
		<path fill="#6D6E70" d="M14.1,564.4h2.4v13.2h-2.4V564.4z"/>
		<path fill="#6D6E70" d="M19.4,568.1h2.3v1.1c0,0.3,0,0.7,0,0.7l0,0c0.4-0.8,1.4-1.9,3.4-1.9c2.1,0,3.3,1.1,3.3,3.6v6.1H26v-5.6
			c0-1.2-0.3-1.9-1.5-1.9c-1.3,0-2.2,0.8-2.5,1.9c-0.2,0.4-0.2,0.8-0.2,1.3v4.3h-2.4V568.1z"/>
		<path fill="#6D6E70" d="M31.3,570.1h-1.2v-1.9h1.2v-0.5c0-3.1,2.5-3.5,3.9-3.5c0.5,0,0.8,0.1,0.8,0.1v2c0,0-0.2,0-0.5,0
			c-0.7,0-1.9,0.2-1.9,1.5v0.3h2v1.9h-2v7.4h-2.4L31.3,570.1L31.3,570.1z M37.1,564.4h2.4v9.9c0,1,0.3,1.3,0.9,1.3
			c0.2,0,0.3,0,0.3,0v2c0,0-0.3,0.1-0.8,0.1c-1.3,0-3-0.3-3-3L37.1,564.4L37.1,564.4z"/>
		<path fill="#6D6E70" d="M42.4,568.1h2.4v5.6c0,1.2,0.3,1.9,1.4,1.9c1.7,0,2.6-1.5,2.6-3.2v-4.3h2.4v9.5H49v-1.1c0-0.3,0-0.7,0-0.7
			l0,0c-0.4,1-1.7,1.9-3.3,1.9c-2,0-3.3-1-3.3-3.6C42.4,574.1,42.4,568.1,42.4,568.1z"/>
		<path fill="#6D6E70" d="M58,567.8c2.7,0,4.2,2,4.2,4.5c0,0.3-0.1,0.9-0.1,0.9h-6.5c0.2,1.7,1.4,2.5,2.9,2.5c1.5,0,2.7-1,2.7-1
			l0.9,1.7c0,0-1.4,1.4-3.8,1.4c-3.1,0-5.1-2.3-5.1-5C53.2,569.9,55.1,567.8,58,567.8z M59.8,571.6c0-1.3-0.8-1.9-1.9-1.9
			c-1.2,0-2,0.8-2.3,1.9H59.8z"/>
		<path fill="#6D6E70" d="M64.2,568.1h2.3v1.1c0,0.3,0,0.7,0,0.7l0,0c0.4-0.8,1.4-1.9,3.4-1.9c2.1,0,3.3,1.1,3.3,3.6v6.1h-2.4v-5.6
			c0-1.2-0.3-1.9-1.5-1.9c-1.3,0-2.2,0.8-2.5,1.9c-0.2,0.4-0.2,0.8-0.2,1.3v4.3h-2.4V568.1z"/>
		<path fill="#6D6E70" d="M74.9,576.3l4.2-5.3c0.4-0.5,0.8-0.8,0.8-0.8l0,0c0,0-0.3,0-0.8,0h-4v-2h8v1.3l-4.2,5.3
			c-0.4,0.5-0.8,0.8-0.8,0.8l0,0c0,0,0.3-0.1,0.9-0.1h4.3v2h-8.4V576.3z"/>
		<path fill="#6D6E70" d="M90.1,571.6h0.3v-0.2c0-1.3-0.8-1.7-1.9-1.7c-1.4,0-2.6,0.9-2.6,0.9l-0.9-1.7c0,0,1.4-1.2,3.7-1.2
			c2.4,0,4,1.4,4,3.8v5.9h-2.2v-0.8c0-0.3,0-0.7,0-0.7l0,0c0,0-0.8,1.7-2.9,1.7c-1.7,0-3.2-1.1-3.2-3
			C84.4,571.8,88.6,571.6,90.1,571.6z M88.3,576c1.3,0,2.1-1.4,2.1-2.4v-0.3H90c-1.2,0-3.1,0.2-3.1,1.5
			C86.9,575.4,87.3,576,88.3,576z"/>
	</g>
	<g>
		<path fill="#6D6E70" d="M14.1,594.1h5.1c2.4,0,4.2,1.7,4.2,4.3c0,2.5-1.7,4.3-4.2,4.3h-2.7v4.6h-2.4V594.1z M18.7,600.7
			c1.4,0,2.2-0.9,2.2-2.3c0-1.4-0.8-2.2-2.2-2.2h-2.3v4.5H18.7z"/>
		<path fill="#6D6E70" d="M29.9,601.4h0.3v-0.2c0-1.3-0.8-1.7-1.9-1.7c-1.4,0-2.6,0.9-2.6,0.9l-0.9-1.7c0,0,1.4-1.2,3.7-1.2
			c2.4,0,4,1.4,4,3.8v5.9h-2.1v-0.8c0-0.3,0-0.7,0-0.7l0,0c0,0-0.8,1.7-2.9,1.7c-1.7,0-3.2-1.1-3.2-3
			C24.3,601.5,28.4,601.4,29.9,601.4z M28.1,605.7c1.3,0,2.1-1.4,2.1-2.4V603h-0.4c-1.2,0-3.1,0.2-3.1,1.5
			C26.7,605.1,27.2,605.7,28.1,605.7z"/>
		<path fill="#6D6E70" d="M35,597.8h2.3v1.6c0,0.3,0,0.7,0,0.7l0,0c0.4-1.4,1.5-2.4,3-2.4c0.3,0,0.4,0,0.4,0v2.4c0,0-0.3,0-0.6,0
			c-1,0-2.1,0.6-2.6,2c-0.2,0.4-0.2,1-0.2,1.5v3.7H35V597.8z"/>
		<path fill="#6D6E70" d="M42.7,599.8h-1.3V598h1.3v-2.7H45v2.7h2.3v1.9h-2.2v3.7c0,1.5,1.3,1.8,1.9,1.8c0.3,0,0.4,0,0.4,0v2
			c0,0-0.3,0.1-0.8,0.1c-1.4,0-4-0.4-4-3.5L42.7,599.8L42.7,599.8z"/>
		<path fill="#6D6E70" d="M49.3,594.1h2.4v2.1h-2.4V594.1z M49.3,597.8h2.4v9.5h-2.4V597.8z"/>
		<path fill="#6D6E70" d="M59.1,601.4h0.3v-0.2c0-1.3-0.8-1.7-1.9-1.7c-1.4,0-2.6,0.9-2.6,0.9l-0.9-1.7c0,0,1.4-1.2,3.7-1.2
			c2.4,0,4,1.4,4,3.8v5.9h-2.2v-0.8c0-0.3,0-0.7,0-0.7l0,0c0,0-0.8,1.7-2.9,1.7c-1.7,0-3.2-1.1-3.2-3
			C53.4,601.5,57.6,601.4,59.1,601.4z M57.3,605.7c1.3,0,2.1-1.4,2.1-2.4V603H59c-1.2,0-3.1,0.2-3.1,1.5
			C55.9,605.1,56.3,605.7,57.3,605.7z"/>
		<path fill="#6D6E70" d="M64.1,594.1h2.4v9.9c0,1,0.3,1.3,0.9,1.3c0.2,0,0.3,0,0.3,0v2c0,0-0.3,0.1-0.8,0.1c-1.3,0-3-0.3-3-3
			L64.1,594.1L64.1,594.1z"/>
		<path fill="#6D6E70" d="M74.3,604.5c0,0,1,1,2.6,1c0.7,0,1.3-0.3,1.3-0.8c0-1.4-4.6-1.3-4.6-4.3c0-1.8,1.6-2.8,3.6-2.8
			c2.1,0,3.2,1.1,3.2,1.1l-0.8,1.8c0,0-0.8-0.8-2.4-0.8c-0.6,0-1.2,0.3-1.2,0.8c0,1.4,4.6,1.2,4.6,4.2c0,1.6-1.4,2.9-3.6,2.9
			c-2.4,0-3.7-1.4-3.7-1.4L74.3,604.5z"/>
		<path fill="#6D6E70" d="M86.5,597.7c2.7,0,4.2,2,4.2,4.5c0,0.3-0.1,0.9-0.1,0.9h-6.5c0.2,1.7,1.4,2.5,2.9,2.5c1.5,0,2.7-1,2.7-1
			l0.9,1.7c0,0-1.4,1.4-3.8,1.4c-3.1,0-5.1-2.3-5.1-5C81.7,599.7,83.7,597.7,86.5,597.7z M88.3,601.4c0-1.3-0.8-1.9-1.9-1.9
			c-1.2,0-2,0.8-2.3,1.9H88.3z"/>
		<path fill="#6D6E70" d="M92.7,594.1h2.4v2.1h-2.4V594.1z M92.7,597.8h2.4v9.5h-2.4V597.8z"/>
		<path fill="#6D6E70" d="M97,606l4.2-5.3c0.4-0.5,0.8-0.8,0.8-0.8l0,0c0,0-0.3,0-0.8,0h-4v-2h8v1.3l-4.2,5.3
			c-0.4,0.5-0.8,0.8-0.8,0.8l0,0c0,0,0.3-0.1,0.9-0.1h4.3v2H97V606z"/>
		<path fill="#6D6E70" d="M107.2,597.8h2.4v5.6c0,1.2,0.3,1.9,1.4,1.9c1.7,0,2.6-1.5,2.6-3.2v-4.3h2.4v9.5h-2.3v-1.1
			c0-0.3,0-0.7,0-0.7l0,0c-0.4,1-1.7,1.9-3.3,1.9c-2,0-3.3-1-3.3-3.6L107.2,597.8L107.2,597.8z"/>
		<path fill="#6D6E70" d="M118.7,597.8h2.3v1.6c0,0.3,0,0.7,0,0.7l0,0c0.4-1.4,1.5-2.4,3-2.4c0.3,0,0.4,0,0.4,0v2.4c0,0-0.3,0-0.6,0
			c-1,0-2.1,0.6-2.6,2c-0.2,0.4-0.2,1-0.2,1.5v3.7h-2.4V597.8z"/>
		<path fill="#6D6E70" d="M130.1,597.7c2.7,0,4.2,2,4.2,4.5c0,0.3-0.1,0.9-0.1,0.9h-6.5c0.2,1.7,1.4,2.5,2.9,2.5c1.5,0,2.7-1,2.7-1
			l0.9,1.7c0,0-1.4,1.4-3.8,1.4c-3.1,0-5.1-2.3-5.1-5C125.3,599.7,127.3,597.7,130.1,597.7z M132,601.4c0-1.3-0.8-1.9-1.9-1.9
			c-1.2,0-2,0.8-2.3,1.9H132z"/>
		<path fill="#6D6E70" d="M136.5,604.5c0,0,1,1,2.6,1c0.7,0,1.3-0.3,1.3-0.8c0-1.4-4.6-1.3-4.6-4.3c0-1.8,1.6-2.8,3.6-2.8
			c2.1,0,3.2,1.1,3.2,1.1l-0.8,1.8c0,0-0.8-0.8-2.4-0.8c-0.6,0-1.2,0.3-1.2,0.8c0,1.4,4.6,1.2,4.6,4.2c0,1.6-1.4,2.9-3.6,2.9
			c-2.4,0-3.7-1.4-3.7-1.4L136.5,604.5z"/>
		<path fill="#6D6E70" d="M148.2,597.8h2.4l1.7,6.2c0.2,0.5,0.2,1,0.2,1l0,0c0,0,0.1-0.5,0.3-1l1.8-6.2h2.1l1.8,6.2
			c0.2,0.5,0.2,1,0.2,1l0,0c0,0,0.1-0.5,0.2-1l1.7-6.2h2.4l-2.9,9.5h-2.6l-1.6-5.4c-0.2-0.5-0.3-1-0.3-1l0,0c0,0-0.1,0.5-0.3,1
			l-1.6,5.4H151L148.2,597.8z"/>
		<path fill="#6D6E70" d="M164.5,594.1h2.4v2.1h-2.4V594.1z M164.5,597.8h2.4v9.5h-2.4V597.8z"/>
		<path fill="#6D6E70" d="M169.8,599.8h-1.3V598h1.3v-2.7h2.3v2.7h2.2v1.9h-2.2v3.7c0,1.5,1.3,1.8,1.9,1.8c0.3,0,0.4,0,0.4,0v2
			c0,0-0.3,0.1-0.8,0.1c-1.4,0-4-0.4-4-3.5v-4.1H169.8z"/>
		<path fill="#6D6E70" d="M176.4,594.1h2.4v4.6c0,0.5,0,0.8,0,0.8l0,0c0.5-0.9,1.6-1.9,3.3-1.9c2.1,0,3.3,1.1,3.3,3.6v6.1h-2.4v-5.6
			c0-1.2-0.3-1.9-1.5-1.9c-1.3,0-2.2,0.8-2.5,1.9c-0.1,0.3-0.2,0.8-0.2,1.3v4.3h-2.4L176.4,594.1L176.4,594.1z"/>
		<path fill="#6D6E70" d="M14,623.9c0,0,1,1,2.6,1c0.7,0,1.3-0.3,1.3-0.8c0-1.4-4.6-1.3-4.6-4.3c0-1.8,1.6-2.8,3.6-2.8
			c2.1,0,3.2,1.1,3.2,1.1l-0.8,1.8c0,0-0.8-0.8-2.4-0.8c-0.6,0-1.2,0.3-1.2,0.8c0,1.4,4.6,1.2,4.6,4.2c0,1.6-1.4,2.9-3.6,2.9
			c-2.4,0-3.7-1.4-3.7-1.4L14,623.9z"/>
		<path fill="#6D6E70" d="M26.3,617.1c2.7,0,4.2,2,4.2,4.5c0,0.3-0.1,0.9-0.1,0.9h-6.5c0.2,1.7,1.4,2.5,2.9,2.5c1.5,0,2.7-1,2.7-1
			l0.9,1.7c0,0-1.4,1.4-3.8,1.4c-3.1,0-5.1-2.3-5.1-5C21.4,619.1,23.4,617.1,26.3,617.1z M28,620.8c0-1.3-0.8-1.9-1.9-1.9
			c-1.2,0-2,0.8-2.3,1.9H28z"/>
		<path fill="#6D6E70" d="M36.8,617.1c2.4,0,3.6,1.4,3.6,1.4l-1,1.6c0,0-1-1-2.4-1c-1.8,0-2.9,1.4-2.9,3c0,1.6,1.2,3,3,3
			c1.6,0,2.8-1.2,2.8-1.2l0.9,1.7c0,0-1.4,1.5-3.9,1.5c-3.1,0-5.1-2.2-5.1-5C31.7,619.3,33.7,617.1,36.8,617.1z"/>
		<path fill="#6D6E70" d="M47,617.1c2.9,0,5.2,2,5.2,5s-2.4,5-5.2,5c-2.9,0-5.2-2-5.2-5S44.2,617.1,47,617.1z M47,624.9
			c1.5,0,2.8-1.2,2.8-3c0-1.8-1.3-3-2.8-3s-2.8,1.2-2.8,3C44.2,623.7,45.5,624.9,47,624.9z"/>
		<path fill="#6D6E70" d="M54.1,617.2h2.3v1.1c0,0.3,0,0.7,0,0.7l0,0c0.4-0.8,1.4-1.9,3.4-1.9c2.1,0,3.3,1.1,3.3,3.6v6.1h-2.4v-5.6
			c0-1.2-0.3-1.9-1.5-1.9c-1.3,0-2.2,0.8-2.5,1.9c-0.2,0.4-0.2,0.8-0.2,1.3v4.3h-2.4C54.1,626.8,54.1,617.2,54.1,617.2z"/>
		<path fill="#6D6E70" d="M69.1,617.1c2.1,0,2.7,1.2,2.7,1.2l0,0c0,0,0-0.3,0-0.5v-4.1h2.4v13.2H72V626c0-0.3,0-0.6,0-0.6l0,0
			c0,0-0.8,1.6-3,1.6c-2.5,0-4.2-2-4.2-5C64.8,619,66.6,617.1,69.1,617.1z M69.6,625c1.3,0,2.4-0.9,2.4-3c0-1.4-0.8-3-2.4-3
			c-1.3,0-2.4,1.1-2.4,3C67.2,623.8,68.2,625,69.6,625z"/>
		<path fill="#6D6E70" d="M81.6,620.8H82v-0.2c0-1.3-0.8-1.7-1.9-1.7c-1.4,0-2.6,0.9-2.6,0.9l-0.9-1.7c0,0,1.4-1.2,3.7-1.2
			c2.4,0,4,1.4,4,3.8v5.9h-2.2v-0.8c0-0.3,0-0.7,0-0.7l0,0c0,0-0.8,1.7-2.9,1.7c-1.7,0-3.2-1.1-3.2-3
			C76.1,621,80.1,620.8,81.6,620.8z M79.9,625.1c1.3,0,2.1-1.4,2.1-2.4v-0.3h-0.4c-1.2,0-3.1,0.2-3.1,1.5
			C78.4,624.5,78.9,625.1,79.9,625.1z"/>
		<path fill="#6D6E70" d="M86.8,617.2h2.3v1.6c0,0.3,0,0.7,0,0.7l0,0c0.4-1.4,1.5-2.4,3-2.4c0.3,0,0.4,0,0.4,0v2.4c0,0-0.3,0-0.6,0
			c-1,0-2.1,0.6-2.6,2c-0.2,0.4-0.2,1-0.2,1.5v3.7h-2.4V617.2z"/>
		<path fill="#6D6E70" d="M93.5,628.2c0,0,0.5,0.4,1.1,0.4c0.7,0,1.3-0.4,1.6-1.3l0.3-0.8l-4-9.3h2.6l2,5.5c0.2,0.5,0.3,1.3,0.3,1.3
			l0,0c0,0,0.2-0.8,0.3-1.3l1.9-5.5h2.6l-4.2,10.9c-0.7,1.7-2,2.4-3.4,2.4c-1.1,0-1.9-0.6-1.9-0.6L93.5,628.2z"/>
		<path fill="#6D6E70" d="M111.9,628.6c1.4,0,2.7-0.6,2.7-2.3v-0.6c0-0.3,0-0.5,0-0.5l0,0c-0.6,0.8-1.4,1.3-2.6,1.3
			c-2.7,0-4.2-2.2-4.2-4.8c0-2.6,1.4-4.7,4.2-4.7c2,0,2.8,1.2,2.8,1.2h0.1c0,0,0-0.1,0-0.3v-0.8h2.2v8.9c0,3.3-2.5,4.5-5,4.5
			c-1.2,0-2.4-0.3-3.4-0.8l0.7-1.8C109.2,628,110.4,628.6,111.9,628.6z M114.6,621.8c0-2.2-1.1-2.7-2.4-2.7c-1.4,0-2.2,1-2.2,2.6
			c0,1.7,0.8,2.9,2.4,2.9C113.6,624.6,114.6,623.9,114.6,621.8z"/>
		<path fill="#6D6E70" d="M123.6,617.1c2.7,0,4.2,2,4.2,4.5c0,0.3-0.1,0.9-0.1,0.9h-6.5c0.2,1.7,1.4,2.5,2.9,2.5c1.5,0,2.7-1,2.7-1
			l0.9,1.7c0,0-1.4,1.4-3.8,1.4c-3.1,0-5.1-2.3-5.1-5C118.8,619.1,120.8,617.1,123.6,617.1z M125.5,620.8c0-1.3-0.8-1.9-1.9-1.9
			c-1.2,0-2,0.8-2.3,1.9H125.5z"/>
		<path fill="#6D6E70" d="M129.8,617.2h2.3v1.1c0,0.3,0,0.7,0,0.7l0,0c0.4-0.8,1.4-1.9,3.4-1.9c2.1,0,3.3,1.1,3.3,3.6v6.1h-2.4v-5.6
			c0-1.2-0.3-1.9-1.5-1.9c-1.3,0-2.2,0.8-2.5,1.9c-0.2,0.4-0.2,0.8-0.2,1.3v4.3h-2.4L129.8,617.2L129.8,617.2z"/>
		<path fill="#6D6E70" d="M145.3,617.1c2.7,0,4.2,2,4.2,4.5c0,0.3-0.1,0.9-0.1,0.9h-6.5c0.2,1.7,1.4,2.5,2.9,2.5c1.5,0,2.7-1,2.7-1
			l0.9,1.7c0,0-1.4,1.4-3.8,1.4c-3.1,0-5.1-2.3-5.1-5C140.5,619.1,142.4,617.1,145.3,617.1z M147.1,620.8c0-1.3-0.8-1.9-1.9-1.9
			c-1.2,0-2,0.8-2.3,1.9H147.1z"/>
		<path fill="#6D6E70" d="M151.5,617.2h2.3v1.6c0,0.3,0,0.7,0,0.7l0,0c0.4-1.4,1.5-2.4,3-2.4c0.3,0,0.4,0,0.4,0v2.4c0,0-0.3,0-0.6,0
			c-1,0-2.1,0.6-2.6,2c-0.2,0.4-0.2,1-0.2,1.5v3.7h-2.4V617.2z"/>
		<path fill="#6D6E70" d="M163.5,620.8h0.3v-0.2c0-1.3-0.8-1.7-1.9-1.7c-1.4,0-2.6,0.9-2.6,0.9l-0.9-1.7c0,0,1.4-1.2,3.7-1.2
			c2.4,0,4,1.4,4,3.8v5.9H164v-0.8c0-0.3,0-0.7,0-0.7l0,0c0,0-0.8,1.7-2.9,1.7c-1.7,0-3.2-1.1-3.2-3C158,621,162,620.8,163.5,620.8z
			 M161.8,625.1c1.3,0,2.1-1.4,2.1-2.4v-0.3h-0.4c-1.2,0-3.1,0.2-3.1,1.5C160.3,624.5,160.7,625.1,161.8,625.1z"/>
		<path fill="#6D6E70" d="M168.5,613.5h2.4v9.9c0,1,0.3,1.3,0.9,1.3c0.2,0,0.3,0,0.3,0v2c0,0-0.3,0.1-0.8,0.1c-1.3,0-3-0.3-3-3
			L168.5,613.5L168.5,613.5z"/>
		<path fill="#6D6E70" d="M173.9,613.5h2.4v2.1h-2.4V613.5z M173.9,617.2h2.4v9.5h-2.4V617.2z"/>
		<path fill="#6D6E70" d="M178.2,625.4l4.2-5.3c0.4-0.5,0.8-0.8,0.8-0.8l0,0c0,0-0.3,0-0.8,0h-4v-2h8v1.3l-4.2,5.3
			c-0.4,0.5-0.8,0.8-0.8,0.8l0,0c0,0,0.3-0.1,0.9-0.1h4.3v2h-8.4L178.2,625.4L178.2,625.4z"/>
		<path fill="#6D6E70" d="M193.4,620.8h0.3v-0.2c0-1.3-0.8-1.7-1.9-1.7c-1.4,0-2.6,0.9-2.6,0.9l-0.9-1.7c0,0,1.4-1.2,3.7-1.2
			c2.4,0,4,1.4,4,3.8v5.9h-2.2v-0.8c0-0.3,0-0.7,0-0.7l0,0c0,0-0.8,1.7-2.9,1.7c-1.7,0-3.2-1.1-3.2-3
			C187.8,621,191.9,620.8,193.4,620.8z M191.6,625.1c1.3,0,2.1-1.4,2.1-2.4v-0.3h-0.4c-1.2,0-3.1,0.2-3.1,1.5
			C190.2,624.5,190.6,625.1,191.6,625.1z"/>
		<path fill="#6D6E70" d="M198.9,619.3h-1.3v-1.9h1.3v-2.7h2.3v2.7h2.2v1.9h-2.2v3.7c0,1.5,1.3,1.8,1.9,1.8c0.3,0,0.4,0,0.4,0v2
			c0,0-0.3,0.1-0.8,0.1c-1.4,0-4-0.4-4-3.5v-4.1H198.9z"/>
		<path fill="#6D6E70" d="M205.6,613.5h2.4v2.1h-2.4V613.5z M205.6,617.2h2.4v9.5h-2.4V617.2z"/>
		<path fill="#6D6E70" d="M215,617.1c2.9,0,5.2,2,5.2,5s-2.4,5-5.2,5c-2.9,0-5.2-2-5.2-5S212.1,617.1,215,617.1z M215,624.9
			c1.5,0,2.8-1.2,2.8-3c0-1.8-1.3-3-2.8-3c-1.5,0-2.8,1.2-2.8,3C212.2,623.7,213.5,624.9,215,624.9z"/>
		<path fill="#6D6E70" d="M222.1,617.2h2.3v1.1c0,0.3,0,0.7,0,0.7l0,0c0.4-0.8,1.4-1.9,3.4-1.9c2.1,0,3.3,1.1,3.3,3.6v6.1h-2.4v-5.6
			c0-1.2-0.3-1.9-1.5-1.9c-1.3,0-2.2,0.8-2.5,1.9c-0.2,0.4-0.2,0.8-0.2,1.3v4.3h-2.4L222.1,617.2L222.1,617.2z"/>
	</g>
	<g>
		<path fill="#6D6E70" d="M12.4,642.3H15l2.9,8.6c0.3,0.8,0.5,1.9,0.5,1.9l0,0c0,0,0.3-1.2,0.5-1.9l3-8.6h2.5l-4.8,13.2h-2.4
			L12.4,642.3z"/>
		<path fill="#6D6E70" d="M29.6,645.8c2.9,0,5.2,2,5.2,5s-2.4,5-5.2,5s-5.2-2-5.2-5C24.5,647.8,26.8,645.8,29.6,645.8z M29.6,653.7
			c1.5,0,2.8-1.2,2.8-3c0-1.8-1.3-3-2.8-3s-2.8,1.2-2.8,3C26.8,652.5,28.1,653.7,29.6,653.7z"/>
		<path fill="#6D6E70" d="M36.7,646H39v1.1c0,0.3,0,0.7,0,0.7l0,0c0.5-0.9,1.6-1.9,3.1-1.9c1.4,0,2.4,0.7,2.8,1.9l0,0
			c0.5-1,1.8-1.9,3.2-1.9c1.9,0,3.1,1.1,3.1,3.6v6.1h-2.4v-5.7c0-1.1-0.2-1.9-1.3-1.9c-1.2,0-2,0.9-2.3,2.2
			c-0.1,0.3-0.1,0.8-0.1,1.3v4.1h-2.4V650c0-1-0.2-1.9-1.3-1.9c-1.3,0-2,0.9-2.4,2.2c-0.1,0.3-0.1,0.8-0.1,1.2v4.1h-2.4L36.7,646
			L36.7,646z"/>
		<path fill="#6D6E70" d="M53.7,642.3h2.4v2.1h-2.4C53.7,644.4,53.7,642.3,53.7,642.3z M53.7,646h2.4v9.5h-2.4
			C53.7,655.5,53.7,646,53.7,646z"/>
		<path fill="#6D6E70" d="M59.1,648.1h-1.3v-1.9h1.3v-2.7h2.3v2.7h2.2v1.9h-2.2v3.7c0,1.5,1.3,1.8,1.9,1.8c0.3,0,0.4,0,0.4,0v2
			c0,0-0.3,0.1-0.8,0.1c-1.4,0-4-0.4-4-3.5v-4.1H59.1z"/>
		<path fill="#6D6E70" d="M65.7,642.3H68v2.1h-2.4V642.3z M65.7,646H68v9.5h-2.4V646z"/>
		<path fill="#6D6E70" d="M70.7,646h2.3v1.1c0,0.3,0,0.7,0,0.7l0,0c0.4-0.8,1.4-1.9,3.4-1.9c2.1,0,3.3,1.1,3.3,3.6v6.1h-2.4V650
			c0-1.2-0.3-1.9-1.5-1.9c-1.3,0-2.2,0.8-2.5,1.9c-0.2,0.4-0.2,0.8-0.2,1.3v4.3h-2.4C70.7,655.6,70.7,646,70.7,646z"/>
		<path fill="#6D6E70" d="M85.6,657.3c1.4,0,2.7-0.6,2.7-2.3v-0.6c0-0.3,0-0.5,0-0.5l0,0c-0.6,0.8-1.4,1.3-2.6,1.3
			c-2.7,0-4.2-2.2-4.2-4.8c0-2.6,1.4-4.7,4.2-4.7c2,0,2.8,1.2,2.8,1.2h0.1c0,0,0-0.1,0-0.3v-0.8h2.2v8.9c0,3.3-2.5,4.5-5,4.5
			c-1.2,0-2.4-0.3-3.4-0.8l0.7-1.8C83,656.7,84.2,657.3,85.6,657.3z M88.3,650.5c0-2.2-1.1-2.7-2.4-2.7c-1.4,0-2.2,1-2.2,2.6
			c0,1.7,0.8,2.9,2.4,2.9C87.3,653.3,88.3,652.6,88.3,650.5z"/>
	</g>
	<line fill="none" stroke="#FFFFFF" stroke-miterlimit="10" x1="269.7" y1="128.9" x2="269.7" y2="255.3"/>
	<line fill="none" stroke="#D0D2D3" stroke-miterlimit="10" x1="0.3" y1="255.5" x2="269.2" y2="255.5"/>
</g>
</svg>
