<?xml version="1.0" encoding="utf-8"?>
<!-- Generator: Adobe Illustrator 18.1.1, SVG Export Plug-In . SVG Version: 6.00 Build 0)  -->
<svg version="1.1" id="Layer_1" xmlns="http://www.w3.org/2000/svg" xmlns:xlink="http://www.w3.org/1999/xlink" x="0px" y="0px"
	 viewBox="0 128.8 612 534.6" enable-background="new 0 128.8 612 534.6" xml:space="preserve">
<path fill="none" stroke="#D0D2D3" stroke-width="1.1541" stroke-miterlimit="10" d="M583.1,255.5"/>
<path fill="none" stroke="#D0D2D3" stroke-width="1.1541" stroke-miterlimit="10" d="M583.1,175.2"/>
<g>
	<rect x="269.7" y="289.7" fill="#DAE7F2" width="342.2" height="29.8"/>
	<rect x="269.7" y="348.9" fill="#DAE7F2" width="342.2" height="29.8"/>
	<rect x="269.7" y="408.1" fill="#DAE7F2" width="342.2" height="29.8"/>
	<rect x="269.7" y="468" fill="#DAE7F2" width="342.2" height="29.8"/>
	<rect x="269.7" y="527" fill="#DAE7F2" width="342.2" height="29.8"/>
	<rect x="269.7" y="586.6" fill="#DAE7F2" width="342.2" height="48"/>
	<line fill="none" stroke="#D0D2D3" stroke-miterlimit="10" x1="269.8" y1="289.8" x2="611.8" y2="289.8"/>
	<line fill="none" stroke="#D0D2D3" stroke-miterlimit="10" x1="269.8" y1="319.4" x2="611.8" y2="319.4"/>
	<line fill="none" stroke="#D0D2D3" stroke-miterlimit="10" x1="269.8" y1="349" x2="611.8" y2="349"/>
	<line fill="none" stroke="#D0D2D3" stroke-miterlimit="10" x1="269.8" y1="378.7" x2="611.8" y2="378.7"/>
	<line fill="none" stroke="#D0D2D3" stroke-miterlimit="10" x1="269.8" y1="408.4" x2="611.8" y2="408.4"/>
	<line fill="none" stroke="#D0D2D3" stroke-miterlimit="10" x1="269.8" y1="438" x2="611.8" y2="438"/>
	<line fill="none" stroke="#D0D2D3" stroke-miterlimit="10" x1="269.8" y1="467.7" x2="611.8" y2="467.7"/>
	<line fill="none" stroke="#D0D2D3" stroke-miterlimit="10" x1="269.8" y1="497.4" x2="611.8" y2="497.4"/>
	<line fill="none" stroke="#D0D2D3" stroke-miterlimit="10" x1="269.8" y1="527" x2="611.8" y2="527"/>
	<line fill="none" stroke="#D0D2D3" stroke-miterlimit="10" x1="269.8" y1="556.7" x2="611.8" y2="556.7"/>
	<line fill="none" stroke="#D0D2D3" stroke-miterlimit="10" x1="269.8" y1="586.7" x2="611.8" y2="586.7"/>
	<line fill="none" stroke="#D0D2D3" stroke-miterlimit="10" x1="269.8" y1="634.3" x2="611.8" y2="634.3"/>
	<line fill="none" stroke="#D0D2D3" stroke-miterlimit="10" x1="269.8" y1="662.8" x2="611.8" y2="662.8"/>
	<rect x="269.7" y="128.8" fill="#0072B1" width="342" height="50.4"/>
	<rect x="270" y="179.7" fill="#F8971D" width="171" height="75.6"/>
	<path fill="#1D1756" d="M441,179.7h171v75.6H441V179.7z"/>
	<g>
		<path fill="#FFFFFF" d="M346.1,148.4h2.9v-7.3c0-0.4,0-0.9,0-0.9l0,0c0,0-0.2,0.3-0.6,0.8l-1.1,1l-1.4-1.5l3.3-3.2h2.1v11.1h2.9v2
			h-8L346.1,148.4L346.1,148.4z"/>
		<path fill="#FFFFFF" d="M357.5,143.3c-0.8-0.6-1.4-1.4-1.4-2.6c0-1.9,1.4-3.6,4.2-3.6c2.4,0,4.3,1.4,4.3,3.6
			c0,1.6-1.4,3.1-1.4,3.3c0.9,0.6,1.7,1.4,1.7,2.8c0,2-1.7,3.9-4.6,3.9c-2.9,0-4.7-1.8-4.7-4.1C355.5,144.8,357,143.5,357.5,143.3z
			 M359.1,144.2c-0.4,0.3-1.3,1.1-1.3,2.2c0,1.3,1.1,2.1,2.3,2.1c1.3,0,2.2-0.8,2.2-1.9C362.4,145.5,360.7,145,359.1,144.2z
			 M361.4,143.1c0.2-0.2,0.9-1.1,0.9-2.2c0-1-0.8-1.7-1.9-1.7c-1.2,0-1.9,0.7-1.9,1.5C358.5,141.9,359.9,142.4,361.4,143.1z"/>
		<path fill="#FFFFFF" d="M367.3,144.1h5.6v2h-5.6V144.1z"/>
		<path fill="#FFFFFF" d="M374.7,141h2.4l1.7,6.2c0.2,0.5,0.2,1,0.2,1l0,0c0,0,0.1-0.5,0.3-1l1.8-6.2h2.1l1.8,6.2
			c0.2,0.5,0.2,1,0.2,1l0,0c0,0,0.1-0.5,0.2-1l1.7-6.2h2.4l-2.9,9.5h-2.6l-1.6-5.4c-0.2-0.5-0.3-1-0.3-1l0,0c0,0-0.1,0.5-0.3,1
			l-1.6,5.4h-2.6L374.7,141z"/>
		<path fill="#FFFFFF" d="M395.1,140.7c2.7,0,4.2,2,4.2,4.5c0,0.3-0.1,0.9-0.1,0.9h-6.5c0.2,1.7,1.4,2.5,2.9,2.5c1.5,0,2.7-1,2.7-1
			l0.9,1.7c0,0-1.4,1.4-3.8,1.4c-3.1,0-5.1-2.3-5.1-5C390.3,142.9,392.2,140.7,395.1,140.7z M396.9,144.5c0-1.3-0.8-1.9-1.9-1.9
			c-1.2,0-2,0.8-2.3,1.9H396.9z"/>
		<path fill="#FFFFFF" d="M405.3,140.7c2.7,0,4.2,2,4.2,4.5c0,0.3-0.1,0.9-0.1,0.9H403c0.2,1.7,1.4,2.5,2.9,2.5c1.5,0,2.7-1,2.7-1
			l0.9,1.7c0,0-1.4,1.4-3.8,1.4c-3.1,0-5.1-2.3-5.1-5C400.5,142.9,402.5,140.7,405.3,140.7z M407.2,144.5c0-1.3-0.8-1.9-1.9-1.9
			c-1.2,0-2,0.8-2.3,1.9H407.2z"/>
		<path fill="#FFFFFF" d="M411.5,137.3h2.4v7.1h1.2l2.3-3.4h2.6l-3,4.2l0,0l3.4,5.2h-2.7l-2.5-4.1h-1.3v4.1h-2.4V137.3z"/>
		<path fill="#FFFFFF" d="M429.9,140.7c2.1,0,2.7,1.2,2.7,1.2l0,0c0,0,0-0.3,0-0.5v-4.1h2.4v13.2h-2.2v-0.8c0-0.3,0-0.6,0-0.6l0,0
			c0,0-0.8,1.6-3,1.6c-2.5,0-4.2-2-4.2-5C425.6,142.7,427.4,140.7,429.9,140.7z M430.4,148.7c1.3,0,2.4-0.9,2.4-3c0-1.4-0.8-3-2.4-3
			c-1.3,0-2.4,1.1-2.4,3C428,147.5,429,148.7,430.4,148.7z"/>
		<path fill="#FFFFFF" d="M442.1,140.7c2.9,0,5.2,2,5.2,5s-2.4,5-5.2,5s-5.2-2-5.2-5C436.9,142.9,439.3,140.7,442.1,140.7z
			 M442.1,148.7c1.5,0,2.8-1.2,2.8-3s-1.3-3-2.8-3s-2.8,1.2-2.8,3S440.6,148.7,442.1,148.7z"/>
		<path fill="#FFFFFF" d="M449.5,147.7c0,0,1,1,2.6,1c0.7,0,1.3-0.3,1.3-0.8c0-1.4-4.6-1.3-4.6-4.3c0-1.8,1.6-2.8,3.6-2.8
			c2.1,0,3.2,1.1,3.2,1.1l-0.8,1.8c0,0-0.8-0.8-2.4-0.8c-0.6,0-1.2,0.3-1.2,0.8c0,1.4,4.6,1.2,4.6,4.2c0,1.6-1.4,2.9-3.6,2.9
			c-2.4,0-3.7-1.4-3.7-1.4L449.5,147.7z"/>
		<path fill="#FFFFFF" d="M461.8,140.7c2.7,0,4.2,2,4.2,4.5c0,0.3-0.1,0.9-0.1,0.9h-6.5c0.2,1.7,1.4,2.5,2.9,2.5c1.5,0,2.7-1,2.7-1
			l0.9,1.7c0,0-1.4,1.4-3.8,1.4c-3.1,0-5.1-2.3-5.1-5C457,142.9,458.9,140.7,461.8,140.7z M463.6,144.5c0-1.3-0.8-1.9-1.9-1.9
			c-1.2,0-2,0.8-2.3,1.9H463.6z"/>
		<path fill="#FFFFFF" d="M468.1,144.1h5.6v2h-5.6V144.1z"/>
		<path fill="#FFFFFF" d="M476.4,137.3h2.4v4.1c0,0.5,0,0.8,0,0.8l0,0c0,0,0.8-1.4,2.9-1.4c2.5,0,4.2,2,4.2,5c0,3-1.9,5-4.3,5
			c-1.9,0-2.8-1.4-2.8-1.4l0,0c0,0,0,0.3,0,0.7v0.5h-2.2v-13.2H476.4z M481.1,148.7c1.3,0,2.4-1.1,2.4-3c0-1.8-0.9-3-2.4-3
			c-1.3,0-2.4,0.9-2.4,3C478.7,147.2,479.5,148.7,481.1,148.7z"/>
		<path fill="#FFFFFF" d="M487.6,137.3h2.4v9.9c0,1,0.3,1.3,0.9,1.3c0.2,0,0.3,0,0.3,0v2c0,0-0.3,0.1-0.8,0.1c-1.3,0-3-0.3-3-3
			L487.6,137.3L487.6,137.3z"/>
		<path fill="#FFFFFF" d="M493,137.3h2.4v2.1H493V137.3z M493,141h2.4v9.5H493V141z"/>
		<path fill="#FFFFFF" d="M498,141h2.3v1.1c0,0.3,0,0.7,0,0.7l0,0c0.4-0.8,1.4-1.9,3.4-1.9c2.1,0,3.3,1.1,3.3,3.6v6.1h-2.4V145
			c0-1.2-0.3-1.9-1.5-1.9c-1.3,0-2.2,0.8-2.5,1.9c-0.2,0.4-0.2,0.8-0.2,1.3v4.3H498L498,141L498,141z"/>
		<path fill="#FFFFFF" d="M513.1,140.7c2.1,0,2.7,1.2,2.7,1.2l0,0c0,0,0-0.3,0-0.5v-4.1h2.4v13.2h-2.2v-0.8c0-0.3,0-0.6,0-0.6l0,0
			c0,0-0.8,1.6-3,1.6c-2.5,0-4.2-2-4.2-5C508.7,142.7,510.5,140.7,513.1,140.7z M513.5,148.7c1.3,0,2.4-0.9,2.4-3c0-1.4-0.8-3-2.4-3
			c-1.3,0-2.4,1.1-2.4,3C511.1,147.5,512,148.7,513.5,148.7z"/>
		<path fill="#FFFFFF" d="M524.9,140.7c2.7,0,4.2,2,4.2,4.5c0,0.3-0.1,0.9-0.1,0.9h-6.5c0.2,1.7,1.4,2.5,2.9,2.5c1.5,0,2.7-1,2.7-1
			l0.9,1.7c0,0-1.4,1.4-3.8,1.4c-3.1,0-5.1-2.3-5.1-5C520.1,142.9,522,140.7,524.9,140.7z M526.6,144.5c0-1.3-0.8-1.9-1.9-1.9
			c-1.2,0-2,0.8-2.3,1.9H526.6z"/>
		<path fill="#FFFFFF" d="M534.7,140.7c2.1,0,2.7,1.2,2.7,1.2l0,0c0,0,0-0.3,0-0.5v-4.1h2.4v13.2h-2.2v-0.8c0-0.3,0-0.6,0-0.6l0,0
			c0,0-0.8,1.6-3,1.6c-2.5,0-4.2-2-4.2-5C530.4,142.7,532.1,140.7,534.7,140.7z M535.1,148.7c1.3,0,2.4-0.9,2.4-3c0-1.4-0.8-3-2.4-3
			c-1.3,0-2.4,1.1-2.4,3C532.7,147.5,533.7,148.7,535.1,148.7z"/>
		<path fill="#FFFFFF" d="M324.4,162.4h-1.3v-1.9h1.3v-2.7h2.3v2.7h2.2v1.9h-2.1v3.7c0,1.5,1.3,1.8,1.9,1.8c0.3,0,0.4,0,0.4,0v2
			c0,0-0.3,0.1-0.8,0.1c-1.4,0-4-0.4-4-3.5L324.4,162.4L324.4,162.4z"/>
		<path fill="#FFFFFF" d="M330.9,160.4h2.3v1.6c0,0.3,0,0.7,0,0.7l0,0c0.4-1.4,1.5-2.4,3-2.4c0.3,0,0.4,0,0.4,0v2.4c0,0-0.3,0-0.6,0
			c-1,0-2.1,0.6-2.6,2c-0.2,0.5-0.2,1-0.2,1.5v3.7h-2.4V160.4z"/>
		<path fill="#FFFFFF" d="M342.4,160.2c2.7,0,4.2,2,4.2,4.5c0,0.3-0.1,0.9-0.1,0.9h-6.5c0.2,1.7,1.4,2.5,2.9,2.5c1.5,0,2.7-1,2.7-1
			l0.9,1.7c0,0-1.4,1.4-3.8,1.4c-3.1,0-5.1-2.3-5.1-5C337.6,162.3,339.6,160.2,342.4,160.2z M344.2,164c0-1.3-0.8-1.9-1.9-1.9
			c-1.2,0-2,0.8-2.3,1.9H344.2z"/>
		<path fill="#FFFFFF" d="M353.4,164h0.3v-0.2c0-1.3-0.8-1.7-1.9-1.7c-1.4,0-2.6,0.9-2.6,0.9l-0.9-1.7c0,0,1.4-1.2,3.7-1.2
			c2.4,0,4,1.4,4,3.8v5.9h-2.2v-0.8c0-0.3,0-0.7,0-0.7l0,0c0,0-0.8,1.7-2.9,1.7c-1.7,0-3.2-1.1-3.2-3
			C347.7,164.1,351.8,164,353.4,164z M351.5,168.3c1.3,0,2.1-1.4,2.1-2.4v-0.3h-0.4c-1.2,0-3.1,0.2-3.1,1.5
			C350.1,167.7,350.6,168.3,351.5,168.3z"/>
		<path fill="#FFFFFF" d="M358.8,162.4h-1.3v-1.9h1.3v-2.7h2.3v2.7h2.2v1.9h-2.2v3.7c0,1.5,1.3,1.8,1.9,1.8c0.3,0,0.4,0,0.4,0v2
			c0,0-0.3,0.1-0.8,0.1c-1.4,0-4-0.4-4-3.5v-4.1H358.8z"/>
		<path fill="#FFFFFF" d="M365.5,160.4h2.3v1.1c0,0.3,0,0.7,0,0.7l0,0c0.5-0.9,1.6-1.9,3.1-1.9c1.4,0,2.4,0.7,2.8,1.9l0,0
			c0.5-1,1.8-1.9,3.2-1.9c1.9,0,3.1,1.1,3.1,3.6v6.1h-2.4v-5.7c0-1.1-0.2-1.9-1.3-1.9c-1.2,0-2,0.9-2.3,2.2
			c-0.1,0.3-0.1,0.8-0.1,1.3v4.1h-2.4v-5.7c0-1-0.2-1.9-1.3-1.9c-1.3,0-2,0.9-2.4,2.2c-0.1,0.3-0.1,0.8-0.1,1.2v4.1h-2.4
			L365.5,160.4L365.5,160.4z"/>
		<path fill="#FFFFFF" d="M386.5,160.2c2.7,0,4.2,2,4.2,4.5c0,0.3-0.1,0.9-0.1,0.9h-6.5c0.2,1.7,1.4,2.5,2.9,2.5c1.5,0,2.7-1,2.7-1
			l0.9,1.7c0,0-1.4,1.4-3.8,1.4c-3.1,0-5.1-2.3-5.1-5C381.8,162.3,383.7,160.2,386.5,160.2z M388.4,164c0-1.3-0.8-1.9-1.9-1.9
			c-1.2,0-2,0.8-2.3,1.9H388.4z"/>
		<path fill="#FFFFFF" d="M392.7,160.4h2.3v1.1c0,0.3,0,0.7,0,0.7l0,0c0.4-0.8,1.4-1.9,3.4-1.9c2.1,0,3.3,1.1,3.3,3.6v6.1h-2.4v-5.6
			c0-1.2-0.3-1.9-1.5-1.9c-1.3,0-2.2,0.8-2.5,1.9c-0.2,0.4-0.2,0.8-0.2,1.3v4.3h-2.4L392.7,160.4L392.7,160.4z"/>
		<path fill="#FFFFFF" d="M404.5,162.4h-1.3v-1.9h1.3v-2.7h2.3v2.7h2.2v1.9h-2.2v3.7c0,1.5,1.3,1.8,1.9,1.8c0.3,0,0.4,0,0.4,0v2
			c0,0-0.3,0.1-0.8,0.1c-1.4,0-4-0.4-4-3.5v-4.1H404.5z"/>
		<path fill="#FFFFFF" d="M415.6,160.4h2.2v0.7c0,0.3,0,0.7,0,0.7l0,0c0,0,0.8-1.5,3-1.5c2.5,0,4.2,2,4.2,5c0,3-1.9,5-4.3,5
			c-1.9,0-2.7-1.3-2.7-1.3l0,0c0,0,0,0.3,0,0.8v4h-2.4L415.6,160.4L415.6,160.4z M420.3,168.1c1.3,0,2.4-1.1,2.4-3
			c0-1.8-0.9-3-2.4-3c-1.3,0-2.4,0.9-2.4,3C417.9,166.7,418.7,168.1,420.3,168.1z"/>
		<path fill="#FFFFFF" d="M431.1,160.2c2.7,0,4.2,2,4.2,4.5c0,0.3-0.1,0.9-0.1,0.9h-6.5c0.2,1.7,1.4,2.5,2.9,2.5c1.5,0,2.7-1,2.7-1
			l0.9,1.7c0,0-1.4,1.4-3.8,1.4c-3.1,0-5.1-2.3-5.1-5C426.3,162.3,428.3,160.2,431.1,160.2z M432.9,164c0-1.3-0.8-1.9-1.9-1.9
			c-1.2,0-2,0.8-2.3,1.9H432.9z"/>
		<path fill="#FFFFFF" d="M437.2,160.4h2.3v1.6c0,0.3,0,0.7,0,0.7l0,0c0.4-1.4,1.5-2.4,3-2.4c0.3,0,0.4,0,0.4,0v2.4c0,0-0.3,0-0.6,0
			c-1,0-2.1,0.6-2.6,2c-0.2,0.5-0.2,1-0.2,1.5v3.7h-2.4V160.4z"/>
		<path fill="#FFFFFF" d="M444.5,156.7h2.4v2.1h-2.4V156.7z M444.5,160.4h2.4v9.5h-2.4V160.4z"/>
		<path fill="#FFFFFF" d="M454,160.2c2.9,0,5.2,2,5.2,5c0,3-2.4,5-5.2,5s-5.2-2-5.2-5C448.8,162.3,451.1,160.2,454,160.2z
			 M454,168.1c1.5,0,2.8-1.2,2.8-3s-1.3-3-2.8-3c-1.5,0-2.8,1.2-2.8,3C451.2,166.9,452.4,168.1,454,168.1z"/>
		<path fill="#FFFFFF" d="M464.8,160.2c2.1,0,2.7,1.2,2.7,1.2l0,0c0,0,0-0.3,0-0.5v-4.1h2.4v13.2h-2.2v-0.8c0-0.3,0-0.6,0-0.6l0,0
			c0,0-0.8,1.6-3,1.6c-2.5,0-4.2-2-4.2-5C460.5,162.1,462.2,160.2,464.8,160.2z M465.2,168.1c1.3,0,2.4-0.9,2.4-3c0-1.4-0.8-3-2.4-3
			c-1.3,0-2.4,1.1-2.4,3C462.8,166.9,463.7,168.1,465.2,168.1z"/>
		<path fill="#FFFFFF" d="M476.8,163.5c0-2.7,0.8-5.1,2.2-7.4h2c-1.4,2.3-2.1,4.8-2.1,7.4c0,2.8,0.7,5.6,2.1,8.1h-2
			C477.7,169.4,476.8,166.6,476.8,163.5z"/>
		<path fill="#FFFFFF" d="M483.1,156.7h2.4l5,7.6c0.5,0.8,1.1,2,1.1,2l0,0c0,0-0.2-1.3-0.2-2v-7.6h2.4v13.2h-2.4l-5-7.6
			c-0.5-0.8-1.1-2-1.1-2l0,0c0,0,0.2,1.3,0.2,2v7.6h-2.4V156.7z"/>
		<path fill="#FFFFFF" d="M497,161.8h9v1.9h-9V161.8z M497,165.6h9v1.9h-9V165.6z"/>
		<path fill="#FFFFFF" d="M509.5,166.5c0,0,1.3,1.4,3,1.4c1.4,0,2.4-0.8,2.4-1.9c0-1.4-1.3-2-2.8-2h-0.9l-0.5-1.3l2.4-2.9
			c0.5-0.6,0.9-1,0.9-1l0,0c0,0-0.4,0.1-1.2,0.1h-4v-2h8v1.5l-3.2,3.7c1.9,0.3,3.6,1.5,3.6,3.9c0,2.3-1.7,4.3-4.6,4.3
			c-2.8,0-4.4-1.8-4.4-1.8L509.5,166.5z"/>
		<path fill="#FFFFFF" d="M519.3,163.9c0-3.5,2-7.3,6.1-7.3c1.7,0,2.7,0.6,2.7,0.6l-0.7,2c0,0-0.8-0.4-1.9-0.4
			c-2.1,0-3.2,1.7-3.5,3.5l0,0c0.4-0.5,1.5-0.9,2.4-0.9c2.6,0,4.2,2,4.2,4.4c0,2.4-1.7,4.4-4.3,4.4
			C521.7,170.1,519.3,167.8,519.3,163.9z M526.3,165.7c0-1.4-0.8-2.4-2.4-2.4c-1.2,0-2.2,0.6-2.2,1.4c0,1.7,1.2,3.2,2.6,3.2
			C525.6,167.9,526.3,166.9,526.3,165.7z"/>
		<path fill="#FFFFFF" d="M531.5,166.5c0,0,1.1,1.4,2.8,1.4c1.3,0,2.4-0.8,2.4-2.3c0-1.4-1.2-2.3-2.6-2.3c-1.2,0-2,0.6-2,0.6
			l-1.4-0.5l0.6-6.7h6.9v2h-4.9l-0.2,2.2c0,0.3-0.1,0.6-0.1,0.6l0,0c0,0,0.6-0.3,1.4-0.3c3,0,4.6,1.9,4.6,4.3c0,2.6-2,4.6-4.7,4.6
			c-2.8,0-4.2-1.8-4.2-1.8L531.5,166.5z"/>
		<path fill="#FFFFFF" d="M540.4,171.6c1.4-2.5,2.1-5.3,2.1-8.1c0-2.6-0.8-5.1-2.1-7.4h2c1.4,2.2,2.2,4.7,2.2,7.4
			c0,3-0.8,5.9-2.2,8.1C542.4,171.6,540.4,171.6,540.4,171.6z"/>
		<path fill="#FFFFFF" d="M547.2,162.7l1.5-1.9l0,0l-2.4-0.6l0.6-2l2.3,0.9l-0.2-2.4h2.1l-0.2,2.4l2.3-0.9l0.7,2l-2.4,0.6l0,0
			l1.5,1.9l-1.7,1.3l-1.3-2l0,0l-1.3,2L547.2,162.7z"/>
	</g>
	<g>
		<path fill="#FFFFFF" d="M327.9,201.3h-4.6l-1.1,3.4h-2.4l4.6-13.2h2.5l4.6,13.2h-2.4L327.9,201.3z M325.5,193.8c0,0-0.3,1.3-0.6,2
			l-1.2,3.5h3.5l-1.2-3.5C325.9,195,325.6,193.8,325.5,193.8L325.5,193.8z"/>
		<path fill="#FFFFFF" d="M333.1,191.5h5.1c2.4,0,4.2,1.7,4.2,4.3s-1.7,4.3-4.2,4.3h-2.7v4.6h-2.4V191.5z M337.8,198
			c1.4,0,2.2-0.9,2.2-2.3c0-1.4-0.8-2.2-2.2-2.2h-2.3v4.5H337.8z"/>
		<path fill="#FFFFFF" d="M347.3,193.5H343v-2h11.1v2h-4.3v11.1h-2.4L347.3,193.5L347.3,193.5z"/>
		<path fill="#FFFFFF" d="M355.8,191.5h2.4v13.2h-2.4V191.5z"/>
		<path fill="#FFFFFF" d="M367.4,191.2c3.9,0,6.8,3,6.8,6.8c0,3.9-3,6.9-6.8,6.9s-6.8-3-6.8-6.9
			C360.6,194.2,363.5,191.2,367.4,191.2z M367.4,202.6c2.4,0,4.3-2,4.3-4.7c0-2.6-1.9-4.6-4.3-4.6c-2.4,0-4.3,1.9-4.3,4.6
			C363.1,200.7,365,202.6,367.4,202.6z"/>
		<path fill="#FFFFFF" d="M377.4,191.5h2.5l2.5,6.5c0.3,0.8,0.7,1.9,0.7,1.9l0,0c0,0,0.3-1.2,0.7-1.9l2.6-6.5h2.5l1.1,13.2h-2.4
			l-0.6-7.3c-0.1-0.8,0-2,0-2l0,0c0,0-0.4,1.3-0.7,2l-2.1,5.1h-2.1l-2.1-5.1c-0.3-0.8-0.8-2-0.8-2l0,0c0,0,0,1.2,0,2l-0.6,7.3h-2.4
			L377.4,191.5z"/>
		<path fill="#FFFFFF" d="M318.4,222h2.9v-7.3c0-0.4,0-0.9,0-0.9l0,0c0,0-0.2,0.3-0.6,0.8l-1.1,1l-1.4-1.5l3.3-3.2h2.1v11.1h2.9v2
			h-8V222L318.4,222z"/>
		<path fill="#FFFFFF" d="M327.7,222.9c0-4.7,6.2-5.5,6.2-8.1c0-1.2-0.9-1.9-2-1.9c-1.5,0-2.4,1.5-2.4,1.5l-1.8-1.2
			c0,0,1.2-2.6,4.4-2.6c2.4,0,4.3,1.4,4.3,3.9c0,4.2-5.9,5-6,7.4h6.2v2h-8.8C327.8,223.6,327.7,223.2,327.7,222.9z"/>
		<path fill="#FFFFFF" d="M338.6,217.4c0-3.8,1.2-6.8,4.8-6.8s4.8,3,4.8,6.8c0,3.8-1.2,6.8-4.8,6.8S338.6,221.2,338.6,217.4z
			 M345.7,217.4c0-2.5-0.5-4.6-2.4-4.6c-1.9,0-2.3,2-2.3,4.6c0,2.6,0.5,4.6,2.4,4.6C345.3,222,345.7,220,345.7,217.4z"/>
		<path fill="#FFFFFF" d="M350.4,217.4c0-3.8,1.2-6.8,4.8-6.8s4.8,3,4.8,6.8c0,3.8-1.2,6.8-4.8,6.8S350.4,221.2,350.4,217.4z
			 M357.5,217.4c0-2.5-0.5-4.6-2.4-4.6c-1.9,0-2.4,2-2.4,4.6c0,2.6,0.5,4.6,2.4,4.6C357,222,357.5,220,357.5,217.4z"/>
		<path fill="#FFFFFF" d="M366.7,214.6h2.3v1.1c0,0.3,0,0.7,0,0.7l0,0c0.5-0.9,1.6-1.9,3.1-1.9c1.4,0,2.4,0.7,2.8,1.9l0,0
			c0.5-1,1.8-1.9,3.2-1.9c1.9,0,3.1,1.1,3.1,3.6v6.1h-2.4v-5.7c0-1.1-0.2-1.9-1.3-1.9c-1.2,0-2,0.9-2.3,2.2
			c-0.1,0.3-0.1,0.8-0.1,1.3v4.1h-2.4v-5.7c0-1-0.2-1.9-1.3-1.9c-1.3,0-2,0.9-2.4,2.2c-0.1,0.3-0.1,0.8-0.1,1.2v4.1h-2.4
			L366.7,214.6L366.7,214.6z"/>
		<path fill="#FFFFFF" d="M387.3,225.9c1.4,0,2.7-0.6,2.7-2.3v-0.6c0-0.3,0-0.5,0-0.5l0,0c-0.6,0.8-1.4,1.3-2.6,1.3
			c-2.7,0-4.2-2.2-4.2-4.8s1.4-4.7,4.2-4.7c2,0,2.8,1.2,2.8,1.2h0.1c0,0,0-0.1,0-0.3v-0.8h2.2v8.9c0,3.3-2.5,4.5-5,4.5
			c-1.2,0-2.4-0.3-3.4-0.8l0.7-1.8C384.7,225.3,385.9,225.9,387.3,225.9z M390,219.1c0-2.2-1.1-2.7-2.4-2.7c-1.4,0-2.2,1-2.2,2.6
			c0,1.7,0.8,2.9,2.4,2.9C389,221.9,390,221.2,390,219.1z"/>
		<path fill="#FFFFFF" d="M321.5,237.1c0-2.7,0.8-5.1,2.2-7.4h2c-1.4,2.3-2.1,4.8-2.1,7.4c0,2.8,0.7,5.6,2.1,8.1h-2
			C322.3,243,321.5,240.1,321.5,237.1z"/>
		<path fill="#FFFFFF" d="M327.3,234h2.3v1.1c0,0.3,0,0.7,0,0.7l0,0c0.4-0.8,1.4-1.9,3.4-1.9c2.1,0,3.3,1.1,3.3,3.6v6.1h-2.4V238
			c0-1.2-0.3-1.9-1.5-1.9c-1.3,0-2.2,0.8-2.5,1.9c-0.2,0.4-0.2,0.8-0.2,1.3v4.3h-2.4V234L327.3,234z"/>
		<path fill="#FFFFFF" d="M338.9,235.4h9v1.9h-9V235.4z M338.9,239.2h9v1.9h-9V239.2z"/>
		<path fill="#FFFFFF" d="M350.5,241.4h2.9V234c0-0.4,0-0.9,0-0.9l0,0c0,0-0.2,0.3-0.6,0.8l-1.1,1l-1.4-1.5l3.3-3.2h2.1v11.1h2.9v2
			h-8L350.5,241.4L350.5,241.4z"/>
		<path fill="#FFFFFF" d="M360,242.3c0-4.7,6.2-5.5,6.2-8.1c0-1.2-0.9-1.9-2-1.9c-1.5,0-2.4,1.5-2.4,1.5l-1.8-1.2
			c0,0,1.2-2.6,4.4-2.6c2.4,0,4.3,1.4,4.3,3.9c0,4.2-5.9,5-6,7.4h6.2v2h-8.8C360,243.1,360,242.6,360,242.3z"/>
		<path fill="#FFFFFF" d="M371.6,240.1c0,0,1.3,1.4,3,1.4c1.4,0,2.4-0.8,2.4-1.9c0-1.4-1.3-2-2.8-2h-0.9l-0.5-1.3l2.4-2.9
			c0.5-0.6,0.9-1,0.9-1l0,0c0,0-0.4,0.1-1.2,0.1h-4v-2h8v1.5l-3.2,3.7c1.9,0.3,3.6,1.5,3.6,3.9c0,2.3-1.7,4.3-4.6,4.3
			c-2.8,0-4.4-1.8-4.4-1.8L371.6,240.1z"/>
		<path fill="#FFFFFF" d="M380.8,245.3c1.4-2.5,2.1-5.3,2.1-8.1c0-2.6-0.8-5.1-2.1-7.4h2c1.4,2.2,2.2,4.7,2.2,7.4
			c0,3-0.8,5.9-2.2,8.1H380.8z"/>
	</g>
	<g>
		<path fill="#FFFFFF" d="M498.9,201.3h-4.6l-1.1,3.4h-2.4l4.6-13.2h2.5l4.6,13.2h-2.4L498.9,201.3z M496.5,193.8c0,0-0.3,1.3-0.6,2
			l-1.2,3.5h3.5l-1.2-3.5C496.8,195,496.6,193.8,496.5,193.8L496.5,193.8z"/>
		<path fill="#FFFFFF" d="M504.1,191.5h5.1c2.4,0,4.2,1.7,4.2,4.3s-1.7,4.3-4.2,4.3h-2.6v4.6h-2.4L504.1,191.5L504.1,191.5z
			 M508.7,198c1.4,0,2.2-0.9,2.2-2.3c0-1.4-0.8-2.2-2.2-2.2h-2.2v4.5H508.7z"/>
		<path fill="#FFFFFF" d="M518.3,193.5H514v-2H525v2h-4.3v11.1h-2.4L518.3,193.5L518.3,193.5z"/>
		<path fill="#FFFFFF" d="M526.7,191.5h2.4v13.2h-2.4V191.5z"/>
		<path fill="#FFFFFF" d="M538.4,191.2c3.9,0,6.8,3,6.8,6.8c0,3.9-3,6.9-6.8,6.9s-6.8-3-6.8-6.9
			C531.5,194.2,534.5,191.2,538.4,191.2z M538.4,202.6c2.4,0,4.3-2,4.3-4.7c0-2.6-1.9-4.6-4.3-4.6c-2.4,0-4.3,1.9-4.3,4.6
			C534.1,200.7,535.9,202.6,538.4,202.6z"/>
		<path fill="#FFFFFF" d="M548.3,191.5h2.5l2.6,6.5c0.3,0.8,0.7,1.9,0.7,1.9l0,0c0,0,0.3-1.2,0.7-1.9l2.6-6.5h2.5l1.1,13.2h-2.4
			l-0.6-7.3c-0.1-0.8,0-2,0-2l0,0c0,0-0.4,1.3-0.7,2l-2.1,5.1h-2.1l-2.1-5.1c-0.3-0.8-0.8-2-0.8-2l0,0c0,0,0,1.2,0,2l-0.6,7.3h-2.4
			L548.3,191.5z"/>
		<path fill="#FFFFFF" d="M489.1,222h2.9v-7.3c0-0.4,0-0.9,0-0.9l0,0c0,0-0.2,0.3-0.6,0.8l-1.1,1l-1.4-1.4l3.3-3.2h2.1V222h2.9v2h-8
			L489.1,222L489.1,222z"/>
		<path fill="#FFFFFF" d="M498.5,218c0-3.5,2-7.3,6.1-7.3c1.7,0,2.7,0.6,2.7,0.6l-0.7,2c0,0-0.8-0.4-1.9-0.4c-2.1,0-3.2,1.7-3.5,3.5
			l0,0c0.4-0.5,1.5-0.9,2.4-0.9c2.6,0,4.2,2,4.2,4.4c0,2.4-1.7,4.4-4.3,4.4C500.9,224.2,498.5,222,498.5,218z M505.6,219.8
			c0-1.4-0.8-2.4-2.4-2.4c-1.2,0-2.2,0.6-2.2,1.4c0,1.7,1.2,3.2,2.6,3.2C504.9,222,505.6,221.1,505.6,219.8z"/>
		<path fill="#FFFFFF" d="M509.8,217.4c0-3.8,1.2-6.8,4.8-6.8c3.6,0,4.8,3,4.8,6.8c0,3.8-1.2,6.8-4.8,6.8
			C511,224.2,509.8,221.2,509.8,217.4z M516.9,217.4c0-2.5-0.5-4.6-2.4-4.6c-1.8,0-2.4,2-2.4,4.6c0,2.6,0.5,4.6,2.4,4.6
			S516.9,220,516.9,217.4z"/>
		<path fill="#FFFFFF" d="M521.5,217.4c0-3.8,1.2-6.8,4.8-6.8c3.6,0,4.8,3,4.8,6.8c0,3.8-1.2,6.8-4.8,6.8
			C522.7,224.2,521.5,221.2,521.5,217.4z M528.6,217.4c0-2.5-0.5-4.6-2.4-4.6c-1.8,0-2.4,2-2.4,4.6c0,2.6,0.5,4.6,2.4,4.6
			S528.6,220,528.6,217.4z"/>
		<path fill="#FFFFFF" d="M538,214.6h2.3v1.1c0,0.3,0,0.7,0,0.7l0,0c0.4-0.9,1.6-1.9,3.1-1.9c1.4,0,2.4,0.7,2.8,1.9l0,0
			c0.5-1,1.8-1.9,3.2-1.9c1.9,0,3.1,1.1,3.1,3.6v6.1h-2.4v-5.7c0-1.1-0.2-1.9-1.3-1.9c-1.2,0-2,0.9-2.3,2.2
			c-0.1,0.3-0.1,0.8-0.1,1.3v4.1h-2.4v-5.7c0-1-0.2-1.9-1.3-1.9c-1.3,0-2,0.9-2.4,2.2c-0.1,0.3-0.1,0.8-0.1,1.2v4.1H538L538,214.6
			L538,214.6z"/>
		<path fill="#FFFFFF" d="M558.5,225.9c1.4,0,2.7-0.6,2.7-2.3v-0.6c0-0.3,0-0.5,0-0.5l0,0c-0.6,0.8-1.4,1.3-2.6,1.3
			c-2.7,0-4.2-2.2-4.2-4.8s1.4-4.7,4.2-4.7c2,0,2.8,1.2,2.8,1.2h0.1c0,0,0-0.1,0-0.3v-0.8h2.2v8.9c0,3.3-2.5,4.5-5,4.5
			c-1.2,0-2.4-0.3-3.4-0.8l0.7-1.8C555.9,225.3,557.1,225.9,558.5,225.9z M561.3,219.1c0-2.2-1.1-2.7-2.4-2.7c-1.4,0-2.2,1-2.2,2.6
			c0,1.7,0.8,2.9,2.4,2.9C560.2,221.9,561.3,221.2,561.3,219.1z"/>
		<path fill="#FFFFFF" d="M491.4,237.1c0-2.7,0.8-5.1,2.2-7.4h2c-1.4,2.3-2.1,4.8-2.1,7.4c0,2.8,0.7,5.6,2.1,8.1h-2
			C492.2,243,491.4,240.1,491.4,237.1z"/>
		<path fill="#FFFFFF" d="M497.2,234h2.3v1.1c0,0.3,0,0.7,0,0.7l0,0c0.4-0.8,1.4-1.9,3.4-1.9c2.1,0,3.3,1.1,3.3,3.6v6.1h-2.4V238
			c0-1.2-0.3-1.9-1.5-1.9c-1.3,0-2.2,0.8-2.5,1.9c-0.2,0.4-0.2,0.8-0.2,1.3v4.3h-2.4L497.2,234L497.2,234z"/>
		<path fill="#FFFFFF" d="M508.8,235.4h9v1.9h-9V235.4z M508.8,239.2h9v1.9h-9V239.2z"/>
		<path fill="#FFFFFF" d="M520.3,242.3c0-4.7,6.2-5.5,6.2-8.1c0-1.2-0.9-1.9-2-1.9c-1.5,0-2.4,1.5-2.4,1.5l-1.8-1.2
			c0,0,1.2-2.6,4.4-2.6c2.4,0,4.3,1.4,4.3,3.9c0,4.2-5.9,5-6,7.4h6.2v2h-8.8C520.4,243.1,520.3,242.6,520.3,242.3z"/>
		<path fill="#FFFFFF" d="M530.7,238.6l5.7-8.4h2.9v7.8h1.7v2h-1.7v3.4h-2.4V240h-6.2V238.6L530.7,238.6z M536.9,238.1V234
			c0-0.7,0.1-1.4,0.1-1.4l0,0c0,0-0.3,0.7-0.7,1.2l-3,4.2l0,0H536.9z"/>
		<path fill="#FFFFFF" d="M542.6,242.3c0-4.7,6.2-5.5,6.2-8.1c0-1.2-0.9-1.9-2-1.9c-1.5,0-2.4,1.5-2.4,1.5l-1.8-1.2
			c0,0,1.2-2.6,4.4-2.6c2.4,0,4.3,1.4,4.3,3.9c0,4.2-5.9,5-6,7.4h6.2v2h-8.8C542.7,243.1,542.6,242.6,542.6,242.3z"/>
		<path fill="#FFFFFF" d="M552.8,245.3c1.4-2.5,2.1-5.3,2.1-8.1c0-2.6-0.8-5.1-2.1-7.4h2c1.4,2.2,2.2,4.7,2.2,7.4
			c0,3-0.8,5.9-2.2,8.1H552.8z"/>
	</g>
	<g>
		<path fill="#6D6E70" d="M345.7,269c0-1.4-1-2.4-2.7-2.4c-1.3,0-2.4,0.7-2.4,1.4v0.6h-1.3v-0.9c0-1.7,2.3-2.3,3.5-2.3
			c2.4,0,4,1.6,4,3.6c0,4.6-6.9,4.5-6.9,8.1c0,0.3,0.2,0.3,0.4,0.3h5.5c0.3,0,0.4-0.2,0.4-0.4v-0.8h1.2v1.3c0,0.8-0.3,1.1-1.1,1.1
			h-6.5c-0.9,0-1.2-0.3-1.2-1.3C338.8,272.4,345.7,272.9,345.7,269z"/>
		<path fill="#6D6E70" d="M349.5,272c0-3.7,1.1-6.8,4.5-6.8s4.5,3,4.5,6.8c0,3.8-1.1,6.8-4.5,6.8S349.5,275.8,349.5,272z M357.2,272
			c0-3.1-0.7-5.6-3.2-5.6c-2.4,0-3.2,2.4-3.2,5.6s0.7,5.6,3.2,5.6C356.4,277.6,357.2,275.1,357.2,272z"/>
		<path fill="#6D6E70" d="M360.7,267.9c0-1.4,1.2-2.6,2.6-2.6s2.6,1.2,2.6,2.6s-1.2,2.6-2.6,2.6
			C361.9,270.4,360.7,269.3,360.7,267.9z M370.8,265.5h1.4l-10,13.1h-1.4L370.8,265.5z M364.9,267.9c0-0.8-0.7-1.5-1.5-1.5
			c-0.8,0-1.5,0.7-1.5,1.5c0,0.8,0.7,1.5,1.5,1.5S364.9,268.7,364.9,267.9z M369.6,273.6c1.4,0,2.6,1.2,2.6,2.6s-1.2,2.5-2.6,2.5
			s-2.6-1.2-2.6-2.5C367,274.8,368.2,273.6,369.6,273.6z M369.6,277.8c0.8,0,1.5-0.7,1.5-1.5c0-0.8-0.7-1.5-1.5-1.5
			c-0.8,0-1.5,0.7-1.5,1.5C368.1,277.1,368.8,277.8,369.6,277.8z"/>
	</g>
	<g>
		<path fill="#6D6E70" d="M517.6,269c0-1.4-1-2.4-2.7-2.4c-1.3,0-2.4,0.7-2.4,1.4v0.6h-1.3v-0.9c0-1.7,2.3-2.3,3.5-2.3
			c2.4,0,4,1.6,4,3.6c0,4.6-6.9,4.5-6.9,8.1c0,0.3,0.2,0.3,0.4,0.3h5.5c0.3,0,0.4-0.2,0.4-0.4v-0.8h1.2v1.3c0,0.8-0.3,1.1-1.1,1.1
			h-6.5c-0.9,0-1.2-0.3-1.2-1.3C510.7,272.4,517.6,272.9,517.6,269z"/>
		<path fill="#6D6E70" d="M520.3,274.1l6.3-8.6h1.4v8.3h2.1v1.2h-2.1v3.6h-1.3V275h-6.4L520.3,274.1L520.3,274.1z M526.7,268.5
			c0-0.6,0.1-1.3,0.1-1.3l0,0c0,0-0.3,0.5-0.7,1l-3.6,4.8c-0.3,0.5-0.7,0.8-0.7,0.8l0,0c0,0,0.5-0.1,1.1-0.1h3.9L526.7,268.5
			L526.7,268.5z"/>
		<path fill="#6D6E70" d="M531.6,267.9c0-1.4,1.2-2.6,2.6-2.6s2.6,1.2,2.6,2.6s-1.2,2.6-2.6,2.6S531.6,269.3,531.6,267.9z
			 M541.7,265.5h1.4l-10,13.1h-1.4L541.7,265.5z M535.8,267.9c0-0.8-0.7-1.5-1.5-1.5c-0.8,0-1.5,0.7-1.5,1.5c0,0.8,0.7,1.5,1.5,1.5
			C535.1,269.4,535.8,268.7,535.8,267.9z M540.5,273.6c1.4,0,2.6,1.2,2.6,2.6s-1.2,2.5-2.6,2.5s-2.6-1.2-2.6-2.5
			C537.9,274.8,539.1,273.6,540.5,273.6z M540.5,277.8c0.8,0,1.5-0.7,1.5-1.5c0-0.8-0.7-1.5-1.5-1.5c-0.8,0-1.5,0.7-1.5,1.5
			C539,277.1,539.6,277.8,540.5,277.8z"/>
	</g>
	<g>
		<path fill="#6D6E70" d="M345.7,300.6c0-1.4-1-2.4-2.7-2.4c-1.3,0-2.4,0.7-2.4,1.4v0.6h-1.3v-0.9c0-1.7,2.3-2.3,3.5-2.3
			c2.4,0,4,1.6,4,3.6c0,4.6-6.9,4.5-6.9,8.1c0,0.3,0.2,0.3,0.4,0.3h5.5c0.3,0,0.4-0.2,0.4-0.4v-0.8h1.2v1.3c0,0.8-0.3,1.1-1.1,1.1
			h-6.5c-0.9,0-1.2-0.3-1.2-1.3C338.8,304.1,345.7,304.4,345.7,300.6z"/>
		<path fill="#6D6E70" d="M349.5,303.7c0-3.7,1.1-6.8,4.5-6.8s4.5,3,4.5,6.8s-1.1,6.8-4.5,6.8S349.5,307.5,349.5,303.7z
			 M357.2,303.7c0-3.1-0.7-5.6-3.2-5.6c-2.4,0-3.2,2.4-3.2,5.6s0.7,5.6,3.2,5.6C356.4,309.3,357.2,306.8,357.2,303.7z"/>
		<path fill="#6D6E70" d="M360.7,299.5c0-1.4,1.2-2.6,2.6-2.6s2.6,1.2,2.6,2.6s-1.2,2.6-2.6,2.6C361.9,302.1,360.7,301,360.7,299.5z
			 M370.8,297.2h1.4l-10,13h-1.4L370.8,297.2z M364.9,299.5c0-0.8-0.7-1.5-1.5-1.5c-0.8,0-1.5,0.7-1.5,1.5c0,0.8,0.7,1.5,1.5,1.5
			S364.9,300.4,364.9,299.5z M369.6,305.3c1.4,0,2.6,1.2,2.6,2.6s-1.2,2.5-2.6,2.5s-2.6-1.2-2.6-2.5
			C367,306.5,368.2,305.3,369.6,305.3z M369.6,309.4c0.8,0,1.5-0.7,1.5-1.5c0-0.8-0.7-1.5-1.5-1.5c-0.8,0-1.5,0.7-1.5,1.5
			C368.1,308.7,368.8,309.4,369.6,309.4z"/>
	</g>
	<g>
		<path fill="#6D6E70" d="M517.7,300.6c0-1.4-1-2.4-2.7-2.4c-1.3,0-2.4,0.7-2.4,1.4v0.6h-1.3v-0.9c0-1.7,2.3-2.3,3.5-2.3
			c2.4,0,4,1.6,4,3.6c0,4.6-6.9,4.5-6.9,8.1c0,0.3,0.2,0.3,0.4,0.3h5.5c0.3,0,0.4-0.2,0.4-0.4v-0.8h1.2v1.3c0,0.8-0.3,1.1-1.1,1.1
			h-6.5c-0.9,0-1.2-0.3-1.2-1.3C510.8,304.1,517.7,304.4,517.7,300.6z"/>
		<path fill="#6D6E70" d="M521.7,307.6c0,0,1.4,1.5,3.4,1.5c1.5,0,3-1.2,3-2.8c0-1.8-1.5-2.8-3.2-2.8h-0.9l-0.3-0.8l3.2-3.9
			c0.3-0.4,0.7-0.8,0.7-0.8l0,0c0,0-0.3,0.1-1.1,0.1H523c-0.3,0-0.4,0.2-0.4,0.4v0.8h-1.2v-1.3c0-0.8,0.3-1.1,1.1-1.1h6.7v0.8
			l-3.9,4.5c1.6,0.1,4.1,1,4.1,3.9c0,2.2-1.9,4.1-4.3,4.1c-2.6,0-4.2-1.9-4.2-1.9L521.7,307.6z"/>
		<path fill="#6D6E70" d="M531.5,299.5c0-1.4,1.2-2.6,2.6-2.6s2.6,1.2,2.6,2.6s-1.2,2.6-2.6,2.6C532.6,302.1,531.5,301,531.5,299.5z
			 M541.5,297.2h1.4l-10,13.1h-1.4L541.5,297.2z M535.6,299.5c0-0.8-0.7-1.5-1.5-1.5c-0.8,0-1.5,0.7-1.5,1.5c0,0.8,0.7,1.5,1.5,1.5
			C534.9,301.1,535.6,300.4,535.6,299.5z M540.3,305.3c1.4,0,2.6,1.2,2.6,2.6s-1.2,2.5-2.6,2.5c-1.4,0-2.6-1.2-2.6-2.5
			C537.7,306.5,538.9,305.3,540.3,305.3z M540.3,309.4c0.8,0,1.5-0.7,1.5-1.5c0-0.8-0.7-1.5-1.5-1.5c-0.8,0-1.5,0.7-1.5,1.5
			C538.8,308.7,539.5,309.4,540.3,309.4z"/>
	</g>
	<g>
		<path fill="#6D6E70" d="M351,327.7c0.3-0.7,0.8-1.2,0.8-1.2l0,0c0,0-0.3,0-1,0h-4.7c-0.3,0-0.4,0.2-0.4,0.4v0.8h-1.2v-1.3
			c0-0.8,0.3-1.1,1.1-1.1h7.7v0.9l-6.5,12.2h-1.4L351,327.7z"/>
		<path fill="#6D6E70" d="M354.5,327.7c0-1.4,1.2-2.6,2.6-2.6s2.6,1.2,2.6,2.6s-1.2,2.6-2.6,2.6S354.5,329.2,354.5,327.7z
			 M364.6,325.4h1.4l-10,13.1h-1.4L364.6,325.4z M358.6,327.7c0-0.8-0.7-1.5-1.5-1.5c-0.8,0-1.5,0.7-1.5,1.5s0.7,1.5,1.5,1.5
			C358,329.3,358.6,328.6,358.6,327.7z M363.5,333.6c1.4,0,2.6,1.2,2.6,2.6c0,1.4-1.2,2.5-2.6,2.5s-2.6-1.2-2.6-2.5
			C360.8,334.7,361.9,333.6,363.5,333.6z M363.5,337.6c0.8,0,1.5-0.7,1.5-1.5c0-0.8-0.7-1.5-1.5-1.5s-1.5,0.7-1.5,1.5
			S362.6,337.6,363.5,337.6z"/>
	</g>
	<g>
		<path fill="#6D6E70" d="M511.9,337.3h3v-9.6c0-0.3,0-0.8,0-0.8l0,0c0,0-0.2,0.3-0.7,0.8l-1.4,1.4l-0.8-0.8l3-3h1.3v12h2.9v1.2
			h-7.1V337.3z"/>
		<path fill="#6D6E70" d="M519.5,334l6.3-8.6h1.4v8.3h2.1v1.2h-2.1v3.6H526v-3.6h-6.4L519.5,334L519.5,334z M526,328.4
			c0-0.6,0.1-1.3,0.1-1.3l0,0c0,0-0.3,0.5-0.7,1l-3.6,4.8c-0.3,0.5-0.7,0.8-0.7,0.8l0,0c0,0,0.5-0.1,1.1-0.1h3.9L526,328.4
			L526,328.4z"/>
		<path fill="#6D6E70" d="M530.8,327.7c0-1.4,1.2-2.6,2.6-2.6c1.4,0,2.6,1.2,2.6,2.6s-1.2,2.6-2.6,2.6
			C532,330.4,530.8,329.2,530.8,327.7z M540.8,325.4h1.4l-10,13.1h-1.4L540.8,325.4z M534.9,327.7c0-0.8-0.7-1.5-1.5-1.5
			s-1.5,0.7-1.5,1.5s0.7,1.5,1.5,1.5C534.2,329.3,534.9,328.6,534.9,327.7z M539.6,333.6c1.4,0,2.6,1.2,2.6,2.6
			c0,1.4-1.2,2.5-2.6,2.5c-1.4,0-2.6-1.2-2.6-2.5C537,334.7,538.2,333.6,539.6,333.6z M539.6,337.6c0.8,0,1.5-0.7,1.5-1.5
			c0-0.8-0.7-1.5-1.5-1.5s-1.5,0.7-1.5,1.5C538.2,336.9,538.8,337.6,539.6,337.6z"/>
	</g>
	<g>
		<path fill="#6D6E70" d="M340.5,367.3h3v-9.6c0-0.3,0-0.8,0-0.8l0,0c0,0-0.2,0.3-0.7,0.8l-1.4,1.4l-0.8-0.8l3-3h1.3v11.9h2.9v1.2
			h-7.1V367.3z"/>
		<path fill="#6D6E70" d="M348.1,364l6.3-8.6h1.4v8.3h2.1v1.2h-2.1v3.6h-1.3v-3.6h-6.4L348.1,364L348.1,364z M354.6,358.3
			c0-0.6,0.1-1.3,0.1-1.3l0,0c0,0-0.3,0.5-0.7,1l-3.6,4.8c-0.3,0.5-0.7,0.8-0.7,0.8l0,0c0,0,0.5-0.1,1.1-0.1h3.9L354.6,358.3
			L354.6,358.3z"/>
		<path fill="#6D6E70" d="M359.4,357.7c0-1.4,1.2-2.6,2.6-2.6s2.6,1.2,2.6,2.6s-1.2,2.6-2.6,2.6S359.4,359.1,359.4,357.7z
			 M369.4,355.3h1.4l-10,13.1h-1.4L369.4,355.3z M363.5,357.7c0-0.8-0.7-1.5-1.5-1.5c-0.8,0-1.5,0.7-1.5,1.5c0,0.8,0.7,1.5,1.5,1.5
			C362.9,359.2,363.5,358.6,363.5,357.7z M368.3,363.5c1.4,0,2.6,1.2,2.6,2.6s-1.2,2.5-2.6,2.5s-2.6-1.2-2.6-2.5
			C365.6,364.6,366.8,363.5,368.3,363.5z M368.3,367.6c0.8,0,1.5-0.7,1.5-1.5c0-0.8-0.7-1.5-1.5-1.5c-0.8,0-1.5,0.7-1.5,1.5
			C366.8,366.9,367.4,367.6,368.3,367.6z"/>
	</g>
	<g>
		<path fill="#6D6E70" d="M512.7,367.3h3v-9.6c0-0.3,0-0.8,0-0.8l0,0c0,0-0.2,0.3-0.7,0.8l-1.4,1.4l-0.8-0.8l3-3h1.3v11.9h2.9v1.2
			h-7.1V367.3z"/>
		<path fill="#6D6E70" d="M521.6,367.3h3v-9.6c0-0.3,0-0.8,0-0.8l0,0c0,0-0.2,0.3-0.7,0.8l-1.4,1.4l-0.8-0.8l3-3h1.3v11.9h2.9v1.2
			h-7.1V367.3z"/>
		<path fill="#6D6E70" d="M529.9,357.7c0-1.4,1.2-2.6,2.6-2.6s2.6,1.2,2.6,2.6s-1.2,2.6-2.6,2.6S529.9,359.1,529.9,357.7z
			 M540,355.3h1.4l-10,13.1H530L540,355.3z M534.1,357.7c0-0.8-0.7-1.5-1.5-1.5c-0.8,0-1.5,0.7-1.5,1.5c0,0.8,0.7,1.5,1.5,1.5
			C533.4,359.2,534.1,358.6,534.1,357.7z M538.8,363.5c1.4,0,2.6,1.2,2.6,2.6s-1.2,2.5-2.6,2.5c-1.4,0-2.6-1.2-2.6-2.5
			C536.3,364.6,537.4,363.5,538.8,363.5z M538.8,367.6c0.8,0,1.5-0.7,1.5-1.5c0-0.8-0.7-1.5-1.5-1.5s-1.5,0.7-1.5,1.5
			C537.4,366.9,538,367.6,538.8,367.6z"/>
	</g>
	<g>
		<path fill="#6D6E70" d="M341.3,397.2h3v-9.6c0-0.3,0-0.8,0-0.8l0,0c0,0-0.2,0.3-0.7,0.8l-1.4,1.4l-0.8-0.8l3-3h1.3v12h2.9v1.2
			h-7.1V397.2z"/>
		<path fill="#6D6E70" d="M350.2,397.2h3v-9.6c0-0.3,0-0.8,0-0.8l0,0c0,0-0.2,0.3-0.7,0.8L351,389l-0.8-0.8l3-3h1.3v12h2.9v1.2h-7.1
			V397.2z"/>
		<path fill="#6D6E70" d="M358.6,387.7c0-1.4,1.2-2.6,2.6-2.6s2.6,1.2,2.6,2.6s-1.2,2.6-2.6,2.6
			C359.7,390.2,358.6,389.1,358.6,387.7z M368.7,385.3h1.4l-10,13.1h-1.4L368.7,385.3z M362.7,387.7c0-0.8-0.7-1.5-1.5-1.5
			c-0.8,0-1.5,0.7-1.5,1.5c0,0.8,0.7,1.5,1.5,1.5S362.7,388.5,362.7,387.7z M367.5,393.4c1.4,0,2.6,1.2,2.6,2.6
			c0,1.4-1.2,2.5-2.6,2.5s-2.6-1.2-2.6-2.5C364.9,394.6,366,393.4,367.5,393.4z M367.5,397.6c0.8,0,1.5-0.7,1.5-1.5
			c0-0.8-0.7-1.5-1.5-1.5c-0.8,0-1.5,0.7-1.5,1.5C366,396.9,366.6,397.6,367.5,397.6z"/>
	</g>
	<g>
		<path fill="#6D6E70" d="M512.7,397.2h3v-9.6c0-0.3,0-0.8,0-0.8l0,0c0,0-0.2,0.3-0.7,0.8l-1.4,1.4l-0.8-0.8l3-3h1.3v12h2.9v1.2
			h-7.1V397.2z"/>
		<path fill="#6D6E70" d="M521.6,397.2h3v-9.6c0-0.3,0-0.8,0-0.8l0,0c0,0-0.2,0.3-0.7,0.8l-1.4,1.4l-0.8-0.8l3-3h1.3v12h2.9v1.2
			h-7.1V397.2z"/>
		<path fill="#6D6E70" d="M529.9,387.7c0-1.4,1.2-2.6,2.6-2.6s2.6,1.2,2.6,2.6s-1.2,2.6-2.6,2.6S529.9,389.1,529.9,387.7z
			 M540.1,385.3h1.4l-10,13.1h-1.4L540.1,385.3z M534.1,387.7c0-0.8-0.7-1.5-1.5-1.5c-0.8,0-1.5,0.7-1.5,1.5c0,0.8,0.7,1.5,1.5,1.5
			C533.4,389.2,534.1,388.5,534.1,387.7z M538.9,393.4c1.4,0,2.6,1.2,2.6,2.6c0,1.4-1.2,2.5-2.6,2.5c-1.4,0-2.6-1.2-2.6-2.5
			C536.3,394.6,537.4,393.4,538.9,393.4z M538.9,397.6c0.8,0,1.5-0.7,1.5-1.5c0-0.8-0.7-1.5-1.5-1.5c-0.8,0-1.5,0.7-1.5,1.5
			C537.4,396.9,538,397.6,538.9,397.6z"/>
	</g>
	<g>
		<path fill="#6D6E70" d="M345.5,427.7c0,0,0.8,0.4,1.9,0.4c2.7,0,4.1-2.8,4.4-5.4l0,0c-0.6,1-1.9,1.6-3.3,1.6
			c-2.4,0-4.1-1.7-4.1-4.1c0-2.7,1.8-4.4,4.1-4.4c2.9,0,4.7,2.5,4.7,6c0,3.3-1.7,7.5-5.7,7.5c-1.4,0-2.4-0.5-2.4-0.5L345.5,427.7z
			 M351.7,421c0-1.7-1.4-3.9-3.3-3.9c-1.8,0-2.8,1.4-2.8,3.1c0,1.9,1.2,3,3,3C350.3,423.2,351.7,422,351.7,421z"/>
		<path fill="#6D6E70" d="M355,418.5c0-1.4,1.2-2.6,2.6-2.6s2.6,1.2,2.6,2.6s-1.2,2.6-2.6,2.6S355,419.9,355,418.5z M365.1,416.1
			h1.4l-10,13.1h-1.4L365.1,416.1z M359.1,418.5c0-0.8-0.7-1.5-1.5-1.5c-0.8,0-1.5,0.7-1.5,1.5c0,0.8,0.7,1.5,1.5,1.5
			C358.5,420,359.1,419.3,359.1,418.5z M363.9,424.2c1.4,0,2.6,1.2,2.6,2.6s-1.2,2.5-2.6,2.5s-2.6-1.2-2.6-2.5
			C361.3,425.4,362.4,424.2,363.9,424.2z M363.9,428.4c0.8,0,1.5-0.7,1.5-1.5c0-0.8-0.7-1.5-1.5-1.5c-0.8,0-1.5,0.7-1.5,1.5
			C362.4,427.7,363,428.4,363.9,428.4z"/>
	</g>
	<g>
		<path fill="#6D6E70" d="M511.5,428h3v-9.6c0-0.3,0-0.8,0-0.8l0,0c0,0-0.2,0.3-0.7,0.8l-1.4,1.4l-0.8-0.8l3-3h1.3v11.9h2.9v1.2
			h-7.1V428z"/>
		<path fill="#6D6E70" d="M520,422.6c0-3.7,1.1-6.8,4.5-6.8s4.5,3,4.5,6.8c0,3.8-1.1,6.8-4.5,6.8S520,426.4,520,422.6z M527.7,422.6
			c0-3.1-0.7-5.6-3.2-5.6c-2.4,0-3.2,2.4-3.2,5.6s0.7,5.6,3.2,5.6C527,428.2,527.7,425.8,527.7,422.6z"/>
		<path fill="#6D6E70" d="M531.2,418.5c0-1.4,1.2-2.6,2.6-2.6c1.4,0,2.6,1.2,2.6,2.6s-1.2,2.6-2.6,2.6
			C532.4,421,531.2,419.9,531.2,418.5z M541.3,416.1h1.4l-10,13h-1.4L541.3,416.1z M535.3,418.5c0-0.8-0.7-1.5-1.5-1.5
			s-1.5,0.7-1.5,1.5c0,0.8,0.7,1.5,1.5,1.5S535.3,419.3,535.3,418.5z M540.2,424.2c1.4,0,2.6,1.2,2.6,2.6s-1.2,2.5-2.6,2.5
			c-1.4,0-2.6-1.2-2.6-2.5C537.5,425.4,538.6,424.2,540.2,424.2z M540.2,428.4c0.8,0,1.5-0.7,1.5-1.5c0-0.8-0.7-1.5-1.5-1.5
			s-1.5,0.7-1.5,1.5C538.6,427.7,539.2,428.4,540.2,428.4z"/>
	</g>
	<g>
		<path fill="#6D6E70" d="M341.3,457.2h3v-9.6c0-0.3,0-0.8,0-0.8l0,0c0,0-0.2,0.3-0.7,0.8l-1.4,1.4l-0.8-0.8l3-3h1.3v12.1h2.9v1.2
			h-7.1V457.2z"/>
		<path fill="#6D6E70" d="M350.2,457.2h3v-9.6c0-0.3,0-0.8,0-0.8l0,0c0,0-0.2,0.3-0.7,0.8l-1.4,1.4l-0.8-0.8l3-3h1.3v12.1h2.9v1.2
			h-7.1V457.2z"/>
		<path fill="#6D6E70" d="M358.6,447.5c0-1.4,1.2-2.6,2.6-2.6s2.6,1.2,2.6,2.6s-1.2,2.6-2.6,2.6S358.6,449,358.6,447.5z
			 M368.7,445.2h1.4l-10,13.1h-1.4L368.7,445.2z M362.7,447.5c0-0.8-0.7-1.5-1.5-1.5c-0.8,0-1.5,0.7-1.5,1.5c0,0.8,0.7,1.5,1.5,1.5
			C362,449.1,362.7,448.5,362.7,447.5z M367.5,453.4c1.4,0,2.6,1.2,2.6,2.6s-1.2,2.5-2.6,2.5s-2.6-1.2-2.6-2.5
			C364.9,454.5,366,453.4,367.5,453.4z M367.5,457.4c0.8,0,1.5-0.7,1.5-1.5c0-0.8-0.7-1.5-1.5-1.5c-0.8,0-1.5,0.7-1.5,1.5
			C366,456.7,366.6,457.4,367.5,457.4z"/>
	</g>
	<g>
		<path fill="#6D6E70" d="M516.6,455.7c0,0,1,1.5,3,1.5c1.9,0,3.3-1.4,3.3-3c0-1.8-1.5-3-3.4-3c-1.4,0-2.5,0.8-2.5,0.8l-0.7-0.3
			l0.6-5.2c0.1-0.8,0.3-1.1,1.1-1.1h4.3c0.8,0,1.1,0.3,1.1,1.1v1.3h-1.2v-0.8c0-0.3-0.2-0.4-0.4-0.4h-3.3c-0.3,0-0.3,0.2-0.4,0.4
			l-0.3,3c-0.1,0.4-0.1,0.8-0.1,0.8l0,0c0,0,0.8-0.5,1.9-0.5c2.6,0,4.6,1.9,4.6,4.2c0,2.4-1.9,4.2-4.6,4.2c-2.6,0-3.9-1.9-3.9-1.9
			L516.6,455.7z"/>
		<path fill="#6D6E70" d="M526.5,447.5c0-1.4,1.2-2.6,2.6-2.6s2.6,1.2,2.6,2.6s-1.2,2.6-2.6,2.6S526.5,449,526.5,447.5z
			 M536.6,445.2h1.4l-10,13.1h-1.4L536.6,445.2z M530.6,447.5c0-0.8-0.7-1.5-1.5-1.5s-1.5,0.7-1.5,1.5c0,0.8,0.7,1.5,1.5,1.5
			S530.6,448.5,530.6,447.5z M535.3,453.4c1.4,0,2.6,1.2,2.6,2.6s-1.2,2.5-2.6,2.5c-1.4,0-2.6-1.2-2.6-2.5
			C532.8,454.5,533.9,453.4,535.3,453.4z M535.3,457.4c0.8,0,1.5-0.7,1.5-1.5c0-0.8-0.7-1.5-1.5-1.5s-1.5,0.7-1.5,1.5
			C533.9,456.7,534.5,457.4,535.3,457.4z"/>
	</g>
	<g>
		<path fill="#6D6E70" d="M344.3,482.5c0-3.3,1.7-7.5,5.7-7.5c1.4,0,2.4,0.5,2.4,0.5l-0.5,1.1c0,0-0.8-0.4-1.9-0.4
			c-2.7,0-4.1,2.7-4.4,5.4l0,0c0.6-1,1.9-1.6,3.3-1.6c2.4,0,4.1,1.7,4.1,4.1c0,2.7-1.9,4.4-4.1,4.4
			C346.1,488.5,344.3,485.9,344.3,482.5z M349,487.2c1.8,0,2.8-1.4,2.8-3.1c0-1.9-1.2-3-3-3c-1.8,0-3.1,1.2-3.1,2.2
			C345.6,485,347,487.2,349,487.2z"/>
		<path fill="#6D6E70" d="M355,477.5c0-1.4,1.2-2.6,2.6-2.6s2.6,1.2,2.6,2.6s-1.2,2.6-2.6,2.6S355,478.9,355,477.5z M365.1,475.1
			h1.4l-10,13.1h-1.4L365.1,475.1z M359.1,477.5c0-0.8-0.7-1.5-1.5-1.5c-0.8,0-1.5,0.7-1.5,1.5c0,0.8,0.7,1.5,1.5,1.5
			C358.5,479,359.1,478.4,359.1,477.5z M363.9,483.3c1.4,0,2.6,1.2,2.6,2.6s-1.2,2.5-2.6,2.5s-2.6-1.2-2.6-2.5
			C361.3,484.4,362.4,483.3,363.9,483.3z M363.9,487.4c0.8,0,1.5-0.7,1.5-1.5c0-0.8-0.7-1.5-1.5-1.5c-0.8,0-1.5,0.7-1.5,1.5
			C362.4,486.7,363,487.4,363.9,487.4z"/>
	</g>
	<g>
		<path fill="#6D6E70" d="M522.4,477.5c0.3-0.7,0.8-1.2,0.8-1.2l0,0c0,0-0.3,0-1,0h-4.6c-0.3,0-0.4,0.2-0.4,0.4v0.8h-1.3v-1.3
			c0-0.8,0.3-1.1,1.1-1.1h7.7v0.9l-6.5,12.2h-1.4L522.4,477.5z"/>
		<path fill="#6D6E70" d="M526,477.5c0-1.4,1.2-2.6,2.6-2.6s2.6,1.2,2.6,2.6s-1.2,2.6-2.6,2.6S526,478.9,526,477.5z M536,475.1h1.4
			l-10,13.1h-1.4L536,475.1z M530.1,477.5c0-0.8-0.7-1.5-1.5-1.5s-1.5,0.7-1.5,1.5c0,0.8,0.7,1.5,1.5,1.5S530.1,478.4,530.1,477.5z
			 M534.8,483.3c1.4,0,2.6,1.2,2.6,2.6s-1.2,2.5-2.6,2.5c-1.4,0-2.6-1.2-2.6-2.5C532.2,484.4,533.4,483.3,534.8,483.3z M534.8,487.4
			c0.8,0,1.5-0.7,1.5-1.5c0-0.8-0.7-1.5-1.5-1.5s-1.5,0.7-1.5,1.5C533.4,486.7,534,487.4,534.8,487.4z"/>
	</g>
	<g>
		<path fill="#6D6E70" d="M344.3,512.5c0-3.3,1.7-7.5,5.7-7.5c1.4,0,2.4,0.5,2.4,0.5l-0.5,1.1c0,0-0.8-0.4-1.9-0.4
			c-2.7,0-4.1,2.7-4.4,5.4l0,0c0.6-1,1.9-1.6,3.3-1.6c2.4,0,4.1,1.7,4.1,4.1c0,2.7-1.9,4.4-4.1,4.4
			C346.1,518.4,344.3,515.8,344.3,512.5z M349,517.2c1.8,0,2.8-1.4,2.8-3.1c0-1.9-1.2-3-3-3c-1.8,0-3.1,1.2-3.1,2.2
			C345.7,515,347.1,517.2,349,517.2z"/>
		<path fill="#6D6E70" d="M355.1,507.5c0-1.4,1.2-2.6,2.6-2.6s2.6,1.2,2.6,2.6s-1.2,2.6-2.6,2.6S355.1,508.9,355.1,507.5z
			 M365.1,505.1h1.4l-10,13.1h-1.4L365.1,505.1z M359.1,507.5c0-0.8-0.7-1.5-1.5-1.5c-0.8,0-1.5,0.7-1.5,1.5c0,0.8,0.7,1.5,1.5,1.5
			C358.5,509,359.1,508.3,359.1,507.5z M364,513.2c1.4,0,2.6,1.2,2.6,2.6s-1.2,2.5-2.6,2.5s-2.6-1.2-2.6-2.5
			C361.3,514.4,362.5,513.2,364,513.2z M364,517.4c0.8,0,1.5-0.7,1.5-1.5s-0.7-1.5-1.5-1.5c-0.8,0-1.5,0.7-1.5,1.5
			C362.4,516.7,363.1,517.4,364,517.4z"/>
	</g>
	<g>
		<path fill="#6D6E70" d="M516.6,515.7c0,0,1,1.5,3,1.5c1.9,0,3.3-1.4,3.3-3c0-1.8-1.5-3-3.4-3c-1.4,0-2.5,0.8-2.5,0.8l-0.7-0.3
			l0.6-5.2c0.1-0.8,0.3-1.1,1.1-1.1h4.3c0.8,0,1.1,0.3,1.1,1.1v1.3h-1.2v-0.8c0-0.3-0.2-0.4-0.4-0.4h-3.3c-0.3,0-0.3,0.2-0.4,0.4
			l-0.3,3c-0.1,0.4-0.1,0.8-0.1,0.8l0,0c0,0,0.8-0.5,1.9-0.5c2.6,0,4.6,1.9,4.6,4.2c0,2.4-1.9,4.2-4.6,4.2c-2.6,0-3.9-1.9-3.9-1.9
			L516.6,515.7z"/>
		<path fill="#6D6E70" d="M526.6,507.5c0-1.4,1.2-2.6,2.6-2.6s2.6,1.2,2.6,2.6s-1.2,2.6-2.6,2.6S526.6,508.9,526.6,507.5z
			 M536.6,505.1h1.4l-10,13.1h-1.4L536.6,505.1z M530.6,507.5c0-0.8-0.7-1.5-1.5-1.5s-1.5,0.7-1.5,1.5c0,0.8,0.7,1.5,1.5,1.5
			S530.6,508.3,530.6,507.5z M535.4,513.2c1.4,0,2.6,1.2,2.6,2.6s-1.2,2.5-2.6,2.5c-1.4,0-2.6-1.2-2.6-2.5
			C532.8,514.4,534,513.2,535.4,513.2z M535.4,517.4c0.8,0,1.5-0.7,1.5-1.5s-0.7-1.5-1.5-1.5s-1.5,0.7-1.5,1.5
			S534.6,517.4,535.4,517.4z"/>
	</g>
	<g>
		<path fill="#6D6E70" d="M344.3,542.4c0-3.3,1.7-7.5,5.7-7.5c1.4,0,2.4,0.5,2.4,0.5l-0.5,1.1c0,0-0.8-0.4-1.9-0.4
			c-2.7,0-4.1,2.7-4.4,5.4l0,0c0.6-1,1.9-1.6,3.3-1.6c2.4,0,4.1,1.7,4.1,4.1c0,2.7-1.9,4.4-4.1,4.4
			C346.1,548.3,344.3,545.8,344.3,542.4z M349,547.2c1.8,0,2.8-1.4,2.8-3.1c0-1.9-1.2-3-3-3c-1.8,0-3.1,1.2-3.1,2.2
			C345.7,545,347.1,547.2,349,547.2z"/>
		<path fill="#6D6E70" d="M355.1,537.5c0-1.4,1.2-2.6,2.6-2.6s2.6,1.2,2.6,2.6s-1.2,2.6-2.6,2.6S355.1,538.9,355.1,537.5z
			 M365.1,535.1h1.4l-10,13.1h-1.4L365.1,535.1z M359.1,537.5c0-0.8-0.7-1.5-1.5-1.5c-0.8,0-1.5,0.7-1.5,1.5s0.7,1.5,1.5,1.5
			C358.5,539,359.1,538.3,359.1,537.5z M364,543.2c1.4,0,2.6,1.2,2.6,2.6s-1.2,2.5-2.6,2.5s-2.6-1.2-2.6-2.5
			C361.3,544.4,362.5,543.2,364,543.2z M364,547.3c0.8,0,1.5-0.7,1.5-1.5c0-0.8-0.7-1.5-1.5-1.5c-0.8,0-1.5,0.7-1.5,1.5
			C362.4,546.7,363.1,547.3,364,547.3z"/>
	</g>
	<g>
		<path fill="#6D6E70" d="M516.6,545.6c0,0,1,1.5,3,1.5c1.9,0,3.3-1.4,3.3-3c0-1.8-1.5-3-3.4-3c-1.4,0-2.5,0.8-2.5,0.8l-0.7-0.3
			l0.6-5.2c0.1-0.8,0.3-1.1,1.1-1.1h4.3c0.8,0,1.1,0.3,1.1,1.1v1.3h-1.2v-0.8c0-0.3-0.2-0.4-0.4-0.4h-3.3c-0.3,0-0.3,0.2-0.4,0.4
			l-0.3,3c-0.1,0.4-0.1,0.8-0.1,0.8l0,0c0,0,0.8-0.5,1.9-0.5c2.6,0,4.6,1.9,4.6,4.2s-1.9,4.2-4.6,4.2c-2.6,0-3.9-1.9-3.9-1.9
			L516.6,545.6z"/>
		<path fill="#6D6E70" d="M526.6,537.5c0-1.4,1.2-2.6,2.6-2.6s2.6,1.2,2.6,2.6s-1.2,2.6-2.6,2.6S526.6,538.9,526.6,537.5z
			 M536.6,535.1h1.4l-10,13.1h-1.4L536.6,535.1z M530.6,537.5c0-0.8-0.7-1.5-1.5-1.5s-1.5,0.7-1.5,1.5s0.7,1.5,1.5,1.5
			S530.6,538.3,530.6,537.5z M535.4,543.2c1.4,0,2.6,1.2,2.6,2.6s-1.2,2.5-2.6,2.5c-1.4,0-2.6-1.2-2.6-2.5
			C532.8,544.4,534,543.2,535.4,543.2z M535.4,547.3c0.8,0,1.5-0.7,1.5-1.5c0-0.8-0.7-1.5-1.5-1.5s-1.5,0.7-1.5,1.5
			C533.9,546.7,534.6,547.3,535.4,547.3z"/>
	</g>
	<g>
		<path fill="#6D6E70" d="M344.3,572.3c0-3.3,1.7-7.5,5.7-7.5c1.4,0,2.4,0.5,2.4,0.5l-0.5,1.1c0,0-0.8-0.4-1.9-0.4
			c-2.7,0-4.1,2.7-4.4,5.4l0,0c0.6-1,1.9-1.6,3.3-1.6c2.4,0,4.1,1.7,4.1,4.1c0,2.7-1.9,4.4-4.1,4.4
			C346.1,578.3,344.3,575.8,344.3,572.3z M349,577.1c1.8,0,2.8-1.4,2.8-3.1c0-1.9-1.2-3-3-3c-1.8,0-3.1,1.2-3.1,2.2
			C345.7,574.9,347.1,577.1,349,577.1z"/>
		<path fill="#6D6E70" d="M355.1,567.3c0-1.4,1.2-2.6,2.6-2.6s2.6,1.2,2.6,2.6c0,1.4-1.2,2.6-2.6,2.6S355.1,568.8,355.1,567.3z
			 M365.1,565.1h1.4l-10,13.1h-1.4L365.1,565.1z M359.1,567.3c0-0.8-0.7-1.5-1.5-1.5c-0.8,0-1.5,0.7-1.5,1.5s0.7,1.5,1.5,1.5
			C358.5,568.9,359.1,568.3,359.1,567.3z M364,573.2c1.4,0,2.6,1.2,2.6,2.6s-1.2,2.5-2.6,2.5s-2.6-1.2-2.6-2.5
			C361.3,574.3,362.5,573.2,364,573.2z M364,577.3c0.8,0,1.5-0.7,1.5-1.5c0-0.8-0.7-1.5-1.5-1.5c-0.8,0-1.5,0.7-1.5,1.5
			C362.4,576.5,363.1,577.3,364,577.3z"/>
	</g>
	<g>
		<path fill="#6D6E70" d="M516.4,575.5c0,0,1.4,1.5,3.4,1.5c1.5,0,3-1.2,3-2.8c0-1.8-1.5-2.8-3.2-2.8h-0.9l-0.3-0.8l3.2-3.9
			c0.3-0.4,0.7-0.8,0.7-0.8l0,0c0,0-0.3,0.1-1.1,0.1h-3.4c-0.3,0-0.4,0.2-0.4,0.4v0.8h-1.2v-1.3c0-0.8,0.3-1.1,1.1-1.1h6.7v0.8
			l-3.9,4.5c1.6,0.1,4.1,1,4.1,3.9c0,2.2-1.9,4.1-4.3,4.1c-2.6,0-4.2-1.9-4.2-1.9L516.4,575.5z"/>
		<path fill="#6D6E70" d="M526.1,567.3c0-1.4,1.2-2.6,2.6-2.6c1.4,0,2.6,1.2,2.6,2.6c0,1.4-1.2,2.6-2.6,2.6
			C527.3,570,526.1,568.8,526.1,567.3z M536.2,565.1h1.4l-10,13.1h-1.4L536.2,565.1z M530.3,567.3c0-0.8-0.7-1.5-1.5-1.5
			c-0.8,0-1.5,0.7-1.5,1.5s0.7,1.5,1.5,1.5C529.6,568.9,530.3,568.3,530.3,567.3z M535,573.2c1.4,0,2.6,1.2,2.6,2.6
			s-1.2,2.5-2.6,2.5c-1.4,0-2.6-1.2-2.6-2.5C532.4,574.3,533.6,573.2,535,573.2z M535,577.3c0.8,0,1.5-0.7,1.5-1.5
			c0-0.8-0.7-1.5-1.5-1.5c-0.8,0-1.5,0.7-1.5,1.5C533.6,576.5,534.2,577.3,535,577.3z"/>
	</g>
	<g>
		<path fill="#6D6E70" d="M351.1,606.8c0.3-0.7,0.8-1.2,0.8-1.2l0,0c0,0-0.3,0-1,0h-4.7c-0.3,0-0.4,0.2-0.4,0.4v0.8h-1.3v-1.3
			c0-0.8,0.3-1.1,1.1-1.1h7.7v0.9l-6.5,12.2h-1.4L351.1,606.8z"/>
		<path fill="#6D6E70" d="M354.6,606.8c0-1.4,1.2-2.6,2.6-2.6s2.6,1.2,2.6,2.6c0,1.4-1.2,2.6-2.6,2.6
			C355.8,609.3,354.6,608.2,354.6,606.8z M364.6,604.4h1.4l-10,13.1h-1.4L364.6,604.4z M358.7,606.8c0-0.8-0.7-1.5-1.5-1.5
			c-0.8,0-1.5,0.7-1.5,1.5s0.7,1.5,1.5,1.5C358,608.3,358.7,607.6,358.7,606.8z M363.5,612.5c1.4,0,2.6,1.2,2.6,2.6
			c0,1.4-1.2,2.5-2.6,2.5s-2.6-1.2-2.6-2.5C360.8,613.7,362,612.5,363.5,612.5z M363.5,616.6c0.8,0,1.5-0.7,1.5-1.5
			c0-0.8-0.7-1.5-1.5-1.5s-1.5,0.7-1.5,1.5C362,616,362.6,616.6,363.5,616.6z"/>
	</g>
	<g>
		<path fill="#6D6E70" d="M522.5,607.9c0-1.4-1-2.4-2.7-2.4c-1.3,0-2.4,0.7-2.4,1.4v0.6h-1.3v-0.9c0-1.7,2.3-2.3,3.5-2.3
			c2.4,0,4,1.6,4,3.6c0,4.6-6.9,4.5-6.9,8.1c0,0.3,0.2,0.3,0.4,0.3h5.5c0.3,0,0.4-0.2,0.4-0.4V615h1.2v1.3c0,0.8-0.3,1.1-1.1,1.1
			h-6.5c-0.9,0-1.2-0.3-1.2-1.3C515.7,611.3,522.5,611.7,522.5,607.9z"/>
		<path fill="#6D6E70" d="M526.5,606.8c0-1.4,1.2-2.6,2.6-2.6c1.4,0,2.6,1.2,2.6,2.6c0,1.4-1.2,2.6-2.6,2.6
			C527.7,609.3,526.5,608.2,526.5,606.8z M536.5,604.4h1.4l-10,13.1h-1.4L536.5,604.4z M530.6,606.8c0-0.8-0.7-1.5-1.5-1.5
			s-1.5,0.7-1.5,1.5s0.7,1.5,1.5,1.5S530.6,607.6,530.6,606.8z M535.3,612.5c1.4,0,2.6,1.2,2.6,2.6c0,1.4-1.2,2.5-2.6,2.5
			c-1.4,0-2.6-1.2-2.6-2.5C532.7,613.7,533.9,612.5,535.3,612.5z M535.3,616.6c0.8,0,1.5-0.7,1.5-1.5c0-0.8-0.7-1.5-1.5-1.5
			s-1.5,0.7-1.5,1.5C533.9,616,534.5,616.6,535.3,616.6z"/>
	</g>
	<g>
		<path fill="#6D6E70" d="M351.1,644.4c0.3-0.7,0.8-1.2,0.8-1.2l0,0c0,0-0.3,0-1,0h-4.7c-0.3,0-0.4,0.2-0.4,0.4v0.8h-1.3v-1.3
			c0-0.8,0.3-1.1,1.1-1.1h7.7v0.9l-6.5,12.2h-1.4L351.1,644.4z"/>
		<path fill="#6D6E70" d="M354.6,644.4c0-1.4,1.2-2.6,2.6-2.6s2.6,1.2,2.6,2.6c0,1.4-1.2,2.6-2.6,2.6
			C355.8,647,354.6,645.9,354.6,644.4z M364.7,642.1h1.4l-10,13.1h-1.4L364.7,642.1z M358.7,644.4c0-0.8-0.7-1.5-1.5-1.5
			c-0.8,0-1.5,0.7-1.5,1.5c0,0.8,0.7,1.5,1.5,1.5C358,645.9,358.7,645.3,358.7,644.4z M363.5,650.2c1.4,0,2.6,1.2,2.6,2.6
			c0,1.4-1.2,2.5-2.6,2.5s-2.6-1.2-2.6-2.5C360.9,651.3,362,650.2,363.5,650.2z M363.5,654.3c0.8,0,1.5-0.7,1.5-1.5
			s-0.7-1.5-1.5-1.5s-1.5,0.7-1.5,1.5C362,653.6,362.6,654.3,363.5,654.3z"/>
	</g>
	<g>
		<path fill="#6D6E70" d="M515.7,649.4c0-3.3,1.7-7.5,5.7-7.5c1.4,0,2.4,0.5,2.4,0.5l-0.5,1.1c0,0-0.8-0.4-1.9-0.4
			c-2.7,0-4.1,2.7-4.4,5.4l0,0c0.6-1,1.9-1.6,3.3-1.6c2.4,0,4.1,1.7,4.1,4.1c0,2.7-1.9,4.4-4.1,4.4
			C517.6,655.3,515.7,652.8,515.7,649.4z M520.4,654.1c1.8,0,2.8-1.4,2.8-3.1c0-1.9-1.2-3-3-3s-3.1,1.2-3.1,2.2
			C517.1,651.9,518.5,654.1,520.4,654.1z"/>
		<path fill="#6D6E70" d="M526.5,644.4c0-1.4,1.2-2.6,2.6-2.6c1.4,0,2.6,1.2,2.6,2.6c0,1.4-1.2,2.6-2.6,2.6
			C527.6,647,526.5,645.9,526.5,644.4z M536.5,642.1h1.4l-10,13.1h-1.4L536.5,642.1z M530.6,644.4c0-0.8-0.7-1.5-1.5-1.5
			s-1.5,0.7-1.5,1.5c0,0.8,0.7,1.5,1.5,1.5S530.6,645.3,530.6,644.4z M535.3,650.2c1.4,0,2.6,1.2,2.6,2.6c0,1.4-1.2,2.5-2.6,2.5
			c-1.4,0-2.6-1.2-2.6-2.5C532.7,651.3,533.9,650.2,535.3,650.2z M535.3,654.3c0.8,0,1.5-0.7,1.5-1.5s-0.7-1.5-1.5-1.5
			s-1.5,0.7-1.5,1.5S534.5,654.3,535.3,654.3z"/>
	</g>
	<line fill="none" stroke="#D0D2D3" stroke-miterlimit="10" x1="441" y1="255.4" x2="441" y2="662.7"/>
	<line fill="none" stroke="#FFFFFF" stroke-miterlimit="10" x1="441" y1="179.5" x2="441" y2="255.3"/>
	<line fill="none" stroke="#FFFFFF" stroke-miterlimit="10" x1="269.7" y1="128.9" x2="269.7" y2="255.3"/>
	<line fill="none" stroke="#FFFFFF" stroke-miterlimit="10" x1="269.4" y1="179.6" x2="611.6" y2="179.6"/>
	<line fill="none" stroke="#D0D2D3" stroke-miterlimit="10" x1="270" y1="255.5" x2="612" y2="255.5"/>
	<line fill="none" stroke="#D0D2D3" stroke-width="0.879" stroke-miterlimit="10" x1="270" y1="255.6" x2="270" y2="662.7"/>
</g>
</svg>
