<?xml version="1.0" encoding="utf-8"?>
<!-- Generator: Adobe Illustrator 18.1.1, SVG Export Plug-In . SVG Version: 6.00 Build 0)  -->
<svg version="1.1" id="Layer_1" xmlns="http://www.w3.org/2000/svg" xmlns:xlink="http://www.w3.org/1999/xlink" x="0px" y="0px"
	 viewBox="0 0 289.1 182.5" enable-background="new 0 0 289.1 182.5" xml:space="preserve">
<g>
	<path fill="#211646" d="M69.7,151.7l10.4-28.9h4.3l10.4,28.9h-4.2l-2.9-8.3H76.8l-2.9,8.3H69.7z M77.8,140h8.8l-3.2-9.2
		c-0.1-0.4-0.3-1-0.5-1.7c-0.2-0.7-0.3-1.3-0.4-1.7l-0.2-0.7h-0.1c-0.4,1.7-0.8,3.1-1.1,4.1L77.8,140z"/>
	<path fill="#211646" d="M98.2,151.7v-28.9h10.6c2.7,0,4.9,0.8,6.6,2.5c1.7,1.7,2.6,3.9,2.6,6.6s-0.9,4.9-2.6,6.6
		c-1.7,1.7-3.9,2.5-6.6,2.5h-6.5v10.7H98.2z M102.2,137.4h5.9c1.7,0,3.1-0.5,4.1-1.5c1-1,1.5-2.4,1.5-4.1c0-1.7-0.5-3.1-1.5-4.1
		c-1-1-2.4-1.5-4.1-1.5h-5.9V137.4z"/>
	<path fill="#211646" d="M118.4,126.2v-3.5h23.9v3.5h-9.9v25.4h-4v-25.4H118.4z"/>
	<path fill="#211646" d="M145.6,151.7v-28.9h4v28.9H145.6z"/>
	<path fill="#211646" d="M154.6,137c0-2,0.4-4,1.2-5.8c0.8-1.8,1.8-3.4,3.1-4.7c1.3-1.3,2.9-2.3,4.7-3.1s3.8-1.1,5.8-1.1
		c2.7,0,5.3,0.6,7.5,1.9c2.3,1.3,4.1,3.1,5.4,5.3c1.3,2.3,2,4.7,2,7.5c0,2.8-0.7,5.4-2,7.7c-1.3,2.3-3.1,4.2-5.4,5.5
		c-2.3,1.3-4.8,2-7.5,2c-2.1,0-4-0.4-5.8-1.2c-1.8-0.8-3.4-1.9-4.7-3.2c-1.3-1.3-2.4-3-3.1-4.8C155,141.1,154.6,139.1,154.6,137z
		 M158.8,137c0,2.1,0.5,4.1,1.4,5.8c1,1.8,2.3,3.1,3.9,4.1c1.6,1,3.4,1.5,5.4,1.5c1.5,0,2.8-0.3,4.2-0.9c1.3-0.6,2.4-1.4,3.4-2.4
		c0.9-1,1.7-2.2,2.3-3.6s0.8-2.9,0.8-4.5c0-2.1-0.5-4-1.4-5.7c-0.9-1.7-2.2-3-3.9-4c-1.6-1-3.4-1.4-5.4-1.4c-1.9,0-3.7,0.5-5.4,1.4
		c-1.6,1-2.9,2.3-3.9,4S158.8,134.9,158.8,137z"/>
	<path fill="#211646" d="M188.4,151.7l2.3-28.9h4.3l6.6,15.7c0.2,0.5,0.4,1,0.7,1.7c0.2,0.6,0.4,1.2,0.6,1.6l0.2,0.6h0.1
		c0.5-1.5,1-2.8,1.4-3.9l6.6-15.7h4.3l2.4,28.9h-4l-1.4-18.2c-0.1-0.5-0.1-1.1-0.1-1.9c0-0.2,0-0.5,0-0.7c0-0.4,0-0.8,0-1.1l0-0.7
		h-0.1c-0.6,1.8-1.1,3.2-1.5,4.3l-5.8,13h-3.6l-5.7-13c-0.2-0.5-0.4-1.1-0.7-1.8c-0.3-0.7-0.5-1.3-0.6-1.8l-0.2-0.7h-0.1
		c0,0.4,0,0.8,0,1.2c0,1.2,0,2.2-0.1,3.1l-1.4,18.2H188.4z"/>
	<path fill="#211646" d="M218.4,126.8c-0.2-0.4-0.2-0.8-0.2-1.2s0.1-0.8,0.2-1.2c0.2-0.4,0.4-0.7,0.7-1c0.3-0.3,0.6-0.5,1-0.7
		s0.8-0.2,1.2-0.2c0.6,0,1.1,0.1,1.6,0.4s0.8,0.7,1.1,1.1c0.3,0.5,0.4,1,0.4,1.6c0,0.4-0.1,0.8-0.2,1.2s-0.4,0.7-0.7,1
		c-0.3,0.3-0.6,0.5-1,0.7c-0.4,0.2-0.8,0.2-1.2,0.2c-0.4,0-0.8-0.1-1.2-0.2s-0.7-0.4-1-0.7C218.8,127.6,218.6,127.2,218.4,126.8z
		 M219,124.6c-0.1,0.3-0.2,0.6-0.2,1s0.1,0.7,0.2,1s0.3,0.6,0.5,0.8c0.2,0.2,0.5,0.4,0.8,0.5c0.3,0.1,0.6,0.2,1,0.2
		c0.5,0,0.9-0.1,1.2-0.3c0.4-0.2,0.7-0.5,0.9-0.9c0.2-0.4,0.3-0.8,0.3-1.3c0-0.5-0.1-0.9-0.3-1.3c-0.2-0.4-0.5-0.7-0.9-0.9
		s-0.8-0.3-1.2-0.3c-0.3,0-0.7,0.1-1,0.2c-0.3,0.1-0.6,0.3-0.8,0.5C219.3,124,219.1,124.3,219,124.6z M220.2,127.2V124h1.2
		c0.3,0,0.6,0.1,0.7,0.3c0.2,0.2,0.3,0.4,0.3,0.7c0,0.2-0.1,0.4-0.2,0.6c-0.1,0.2-0.3,0.2-0.4,0.3v0c0,0,0.1,0.1,0.1,0.2l0.6,1.2
		h-0.7l-0.6-1.3h-0.5v1.3H220.2z M220.8,125.5h0.5c0.2,0,0.3,0,0.4-0.1c0.1-0.1,0.1-0.2,0.1-0.4c0-0.2,0-0.3-0.1-0.4
		c-0.1-0.1-0.2-0.1-0.4-0.1h-0.5V125.5z"/>
</g>
<g>
	<path fill="#211646" d="M126.3,115.3v-14.8h8.2v1.8h-6.1v4.9h5.2v1.8h-5.2v6.3H126.3z"/>
	<path fill="#211646" d="M136.1,107.7c0-1,0.2-2,0.6-3s0.9-1.7,1.6-2.4c0.7-0.7,1.5-1.2,2.4-1.6c0.9-0.4,1.9-0.6,3-0.6
		c1.4,0,2.7,0.3,3.9,1s2.1,1.6,2.7,2.7c0.7,1.2,1,2.4,1,3.8c0,1.4-0.3,2.8-1,3.9c-0.7,1.2-1.6,2.1-2.7,2.8s-2.4,1-3.9,1
		c-1.1,0-2.1-0.2-3-0.6s-1.8-1-2.4-1.6c-0.7-0.7-1.2-1.5-1.6-2.5S136.1,108.8,136.1,107.7z M138.2,107.7c0,1.1,0.2,2.1,0.7,3
		s1.2,1.6,2,2.1c0.8,0.5,1.8,0.8,2.8,0.8c0.7,0,1.5-0.2,2.1-0.5c0.7-0.3,1.3-0.7,1.7-1.2c0.5-0.5,0.9-1.1,1.2-1.9
		c0.3-0.7,0.4-1.5,0.4-2.3c0-1.1-0.2-2-0.7-2.9c-0.5-0.9-1.1-1.6-2-2c-0.8-0.5-1.8-0.7-2.7-0.7s-1.9,0.2-2.8,0.7
		c-0.8,0.5-1.5,1.2-2,2S138.2,106.7,138.2,107.7z"/>
	<path fill="#211646" d="M154.2,115.3v-14.8h4.5c1.2,0,2.2,0.1,2.8,0.3c0.8,0.3,1.4,0.8,1.8,1.5s0.7,1.5,0.7,2.5
		c0,0.9-0.2,1.8-0.7,2.5c-0.5,0.7-1.1,1.2-2,1.5v0c0.1,0.1,0.3,0.4,0.4,0.7l3.2,5.8h-2.3l-3.1-5.9h-3.2v5.9H154.2z M156.3,107.6h3
		c0.8,0,1.5-0.2,1.9-0.7c0.5-0.5,0.7-1.1,0.7-2c0-1.1-0.4-1.8-1.2-2.3c-0.4-0.2-1.1-0.3-2-0.3h-2.4V107.6z"/>
</g>
<line fill="none" stroke="#211646" stroke-width="1.5" stroke-miterlimit="10" x1="0.7" y1="107.9" x2="120.4" y2="107.8"/>
<line fill="none" stroke="#211646" stroke-width="1.5" stroke-miterlimit="10" x1="168.8" y1="107.8" x2="287.8" y2="107.8"/>
<g>
	<path fill="#0069A6" d="M15.9,66.3c-0.1-4.4-1.2-7-6-7c-3.8,0-6.3,1.3-6.3,5.5c0,5.3,2.7,5.4,6.7,8.3c4.4,3.2,8.9,4.1,8.9,11
		c0,6.4-3.2,9.5-9.5,9.5c-6.9,0-10-3.7-9.7-10.7h3.2c0,3.9,0.3,8,6.6,8c4.1,0,6.2-2.2,6.2-6.3c0-4.8-3.2-6.2-8.3-9.4
		c-6.9-4.2-7.2-6.4-7.2-9.9c0-6.2,3.8-8.7,9.6-8.7c7.4,0,9,4.6,9,9.7H15.9z"/>
	<path fill="#0069A6" d="M38,68v24.9h-2.6v-2.8h-0.1c-1.7,2.1-3.5,3.3-6.3,3.3c-5.1,0-6.5-3.7-6.5-7.8V68h3v17.1
		c0,0.7-0.1,5.9,4.1,5.9c4,0,5.4-3.7,5.4-5.5V68H38z"/>
	<path fill="#0069A6" d="M45.2,92.8h-3V68h3V71h0.1c1.4-2.1,3.3-3.5,6-3.5c6.2,0,6.8,4.6,6.8,7.8v17.5h-3V75.5
		c0-2.9-1.1-5.6-4.6-5.6c-2.7,0-5.4,1.8-5.4,7.4V92.8z"/>
	<path fill="#0069A6" d="M60.9,83.1v-5.4c0-6.4,2.8-10.2,8.6-10.2c5.8,0,8.6,3.8,8.6,10.2v5.4c0,6.5-2.8,10.2-8.6,10.2
		C63.6,93.3,60.9,89.5,60.9,83.1 M63.8,80.4c0,6.5,0.7,10.6,5.6,10.6c4.9,0,5.6-4.1,5.6-10.6c0-6.4-0.7-10.5-5.6-10.5
		C64.6,69.9,63.8,73.9,63.8,80.4"/>
	<polygon fill="#0069A6" points="88,89.1 88.1,89.1 94.2,68 97,68 89.6,92.8 86.2,92.8 78.8,68 82,68 	"/>
	<path fill="#0069A6" d="M99.6,57.3h3.6V61h-3.6V57.3z M100,68h3v24.9h-3V68z"/>
	<path fill="#0069A6" d="M107.7,83.1v-5.4c0-6.4,2.8-10.2,8.6-10.2c5.8,0,8.6,3.8,8.6,10.2v5.4c0,6.5-2.8,10.2-8.6,10.2
		C110.5,93.3,107.7,89.5,107.7,83.1 M110.7,80.4c0,6.5,0.7,10.6,5.6,10.6c4.9,0,5.6-4.1,5.6-10.6c0-6.4-0.7-10.5-5.6-10.5
		C111.4,69.9,110.7,73.9,110.7,80.4"/>
	<path fill="#0069A6" d="M131.2,92.8h-3V68h3V71h0.1c1.4-2.1,3.4-3.5,6-3.5c6.2,0,6.8,4.6,6.8,7.8v17.5h-3V75.5
		c0-2.9-1.1-5.6-4.6-5.6c-2.7,0-5.4,1.8-5.4,7.4V92.8z"/>
	<path fill="#0069A6" d="M161.6,57.3l11.1,35.5h-3.3l-2.9-9.4h-13.9l-2.8,9.4h-3.2l11.2-35.5H161.6z M165.7,80.8l-6.1-20.1h-0.1
		l-6,20.1H165.7z"/>
	<path fill="#0069A6" d="M177.8,92.8h-3V68h3V71h0.1c1.4-2.1,3.3-3.5,6-3.5c6.2,0,6.8,4.6,6.8,7.8v17.5h-3V75.5
		c0-2.9-1.1-5.6-4.6-5.6c-2.7,0-5.4,1.8-5.4,7.4V92.8z"/>
	<path fill="#0069A6" d="M200.8,93.3c-5.4,0-7.5-2.6-7.4-7.9h3c0,3.4,0.8,5.7,4.6,5.7c2.9,0,4.2-1.6,4.2-4.4c0-6.5-11.2-4.8-11.2-13
		c0-4.6,3.2-6.2,7.5-6.2c4.9,0,6.5,3.4,6.5,7.2h-2.9c-0.1-3.2-1-4.8-4.3-4.8c-2.1,0-3.8,1.4-3.8,3.6c0,6.2,11.2,4.5,11.2,12.8
		C208.1,91,205.4,93.3,200.8,93.3"/>
	<polygon fill="#0069A6" points="209.3,68 212.5,68 218,89.7 218.1,89.7 223.4,68 227,68 232.6,89.7 232.7,89.7 238.2,68 241.2,68 
		234.3,92.8 230.6,92.8 225.2,71.6 225.1,71.6 219.9,92.8 216.2,92.8 	"/>
	<path fill="#0069A6" d="M245.5,81v1.9c0,3.4,0.9,8,5.6,8c3.7,0,5.5-2.4,5.5-5.7h3.1c-0.3,6-3.6,8.1-8.6,8.1c-4.3,0-8.6-1.7-8.6-9.3
		V78c0-7.2,3-10.5,8.6-10.5c8.6,0,8.6,6.2,8.6,13.5H245.5z M256.7,78.7c0-5.5-0.9-8.8-5.6-8.8s-5.6,3.3-5.6,8.8H256.7z"/>
	<path fill="#0069A6" d="M266.1,71.3L266.1,71.3c1.3-2.4,3.9-3.8,6.9-3.8v3c-4.2-0.3-6.9,2.2-6.9,6.4v16h-3V68h3V71.3z"/>
	<path fill="#0069A6" d="M281.7,93.3c-5.4,0-7.5-2.6-7.4-7.9h3c0,3.4,0.8,5.7,4.6,5.7c2.9,0,4.2-1.6,4.2-4.4c0-6.5-11.2-4.8-11.2-13
		c0-4.6,3.2-6.2,7.5-6.2c4.9,0,6.5,3.4,6.5,7.2H286c-0.1-3.2-1-4.8-4.3-4.8c-2.1,0-3.8,1.4-3.8,3.6c0,6.2,11.2,4.5,11.2,12.8
		C289.1,91,286.3,93.3,281.7,93.3"/>
</g>
<g>
	<path fill="#0069A6" d="M171.9,30.6v-2.7c0-7.8-6.5-14-14.5-14h-8.8v-1.3c-1.7-0.5-1.6-1.8-1-2.7c0.3-0.5,0.5-1.1,0.5-1.8
		c0-1.3-0.8-2.4-1.9-3h-0.8V2h2.1V0h-6.8v2h2.1v3.1H142c-1.1,0.6-1.9,1.7-1.9,3c0,0.7,0.2,1.3,0.5,1.8c0.6,0.9,0.7,2.1-1,2.7v1.3
		h-8.8c-8,0-14.5,6.3-14.5,14v2.7c0,1.1-0.6,2.7-1.9,2.7v3.3h59.4v-3.3C172.5,33.4,171.9,31.8,171.9,30.6"/>
	<path fill="#0069A6" d="M173.8,39.3h-59.4c0,1.8-2,4.5-6.2,6.3v5.5H180v-5.5C175.9,43.7,173.8,41.1,173.8,39.3"/>
</g>
<line fill="none" stroke="#211646" stroke-width="1.5" stroke-miterlimit="10" x1="0.8" y1="39.4" x2="99.2" y2="39.4"/>
<line fill="none" stroke="#211646" stroke-width="1.5" stroke-miterlimit="10" x1="189.4" y1="39.4" x2="287.8" y2="39.4"/>
<g>
	<path fill="#211646" d="M48.7,155.9c-1.4,2.7-2.6,6.8-2.6,12.2c0,5.4,1.2,9.5,2.6,12.2h-1C46.4,178,45,174,45,168.1
		c0-6,1.4-10,2.6-12.2H48.7z"/>
	<path fill="#211646" d="M49.8,168.9c0,5.8,1.7,6.8,3,6.8c0.8,0,1.4-0.2,1.8-0.6l0.2,1c-0.6,0.5-1.4,0.7-2.2,0.7
		c-2.6,0-3.9-3-3.9-7.3c0-4.6,1.4-7.5,3.6-7.5c2.4,0,3,3.5,3,6.1c0,0.3,0,0.5,0,0.8H49.8z M54.1,167.9c0-3.6-1.2-4.7-2-4.7
		c-1.4,0-2.1,2.4-2.3,4.7H54.1z"/>
	<path fill="#211646" d="M56.4,175c0.4,0.3,1,0.8,1.8,0.8c1.2,0,2.1-1,2.1-2.6c0-1.3-0.3-2.3-1.6-3.4c-1.3-1.1-2.4-2.2-2.4-4.1
		c0-2.2,1.4-3.6,2.9-3.6c0.9,0,1.5,0.4,1.9,0.8l-0.5,1.1c-0.4-0.4-0.9-0.7-1.5-0.7c-1.1,0-1.8,1.1-1.8,2.2c0,1.2,0.3,1.8,1.5,2.9
		c1.1,1,2.5,2.2,2.5,4.5c0,2.9-1.6,4.1-3.2,4.1c-0.8,0-1.6-0.3-2.1-0.8L56.4,175z"/>
	<path fill="#211646" d="M62.7,155.9h1.1v20.8h-1.1V155.9z"/>
	<path fill="#211646" d="M67.3,158.5c0,0.7-0.3,1.1-0.8,1.1c-0.4,0-0.8-0.4-0.8-1.1c0-0.7,0.3-1.1,0.8-1.1
		C67,157.4,67.3,157.9,67.3,158.5z M65.9,176.7v-14.4H67v14.4H65.9z"/>
	<path fill="#211646" d="M74.4,176.3c-0.5,0.4-1.1,0.6-1.9,0.6c-2.3,0-4-2.6-4-7.4c0-3.9,1.5-7.5,4.3-7.5c0.6,0,1.3,0.2,1.6,0.5
		l-0.3,1.1c-0.2-0.2-0.8-0.5-1.5-0.5c-2.1,0-3,3.4-3,6.4c0,3.9,1.2,6.1,3.1,6.1c0.5,0,1-0.1,1.5-0.5L74.4,176.3z"/>
	<path fill="#211646" d="M81,173.4c0,1.1,0,2.3,0.1,3.2h-1l-0.1-1.6h-0.1c-0.4,1.1-1.2,1.8-2.2,1.8c-1.5,0-2.6-1.5-2.6-4
		c0-3.5,2.2-5.1,4.9-5.1v-0.5c0-2.5-0.3-4.1-2.1-4.1c-0.6,0-1.2,0.3-1.7,0.7l-0.3-1c0.4-0.4,1.3-0.8,2.2-0.8c1.6,0,2.9,1.1,2.9,4.6
		V173.4z M79.9,168.9c-0.9,0-3.8,0.1-3.8,3.9c0,2.2,0.9,2.9,1.7,2.9c1,0,1.8-1,2-2.7c0-0.3,0-0.7,0-0.9V168.9z"/>
	<path fill="#211646" d="M83,165.6c0-1.1-0.1-2.4-0.1-3.3h1l0,2.3h0c0.3-1.3,1.3-2.6,2.6-2.6c0.1,0,0.1,0,0.2,0v1.4c0,0-0.1,0-0.2,0
		c-1.5,0-2.4,1.8-2.5,3.6c0,0.4,0,0.8,0,1.2v8.4H83V165.6z"/>
	<path fill="#211646" d="M87.9,155.9h1.1v8.2h0c0.6-1.7,1.6-2.1,2.5-2.1c1.6,0,3.2,2.2,3.2,7.5c0,5.3-1.9,7.5-3.5,7.5
		c-1.4,0-2-1.1-2.4-2.3h-0.1l-0.1,2h-0.9c0-0.5,0.1-2.2,0.1-2.9V155.9z M88.9,171.6c0,0.3,0,0.6,0,0.9c0.5,2.8,1.6,3.3,2.2,3.3
		c1.8,0,2.4-3.1,2.4-6.3c0-3.2-0.6-6.3-2.5-6.3c-1.1,0-2,1.8-2.2,3.4c0,0.4,0,0.7,0,1.1V171.6z"/>
	<path fill="#211646" d="M101.7,173.4c0,1.1,0,2.3,0.1,3.2h-1l-0.1-1.6h-0.1c-0.4,1.1-1.2,1.8-2.2,1.8c-1.5,0-2.6-1.5-2.6-4
		c0-3.5,2.2-5.1,4.9-5.1v-0.5c0-2.5-0.3-4.1-2.1-4.1c-0.6,0-1.2,0.3-1.7,0.7l-0.3-1c0.4-0.4,1.3-0.8,2.2-0.8c1.6,0,2.9,1.1,2.9,4.6
		V173.4z M100.6,168.9c-0.9,0-3.8,0.1-3.8,3.9c0,2.2,0.9,2.9,1.7,2.9c1,0,1.8-1,2-2.7c0-0.3,0-0.7,0-0.9V168.9z"/>
	<path fill="#211646" d="M102.9,175.9l4.3-10.5c0.3-0.7,0.6-1.3,0.8-2v-0.1h-4.6v-1.1h5.9v0.8l-4.3,10.4c-0.3,0.7-0.6,1.3-0.8,2v0.1
		h5.1v1.1h-6.3V175.9z"/>
	<path fill="#211646" d="M110.7,168.9c0,5.8,1.7,6.8,3,6.8c0.8,0,1.4-0.2,1.8-0.6l0.3,1c-0.6,0.5-1.4,0.7-2.2,0.7
		c-2.6,0-3.9-3-3.9-7.3c0-4.6,1.4-7.5,3.6-7.5c2.4,0,3,3.5,3,6.1c0,0.3,0,0.5,0,0.8H110.7z M115.1,167.9c0-3.6-1.2-4.7-2-4.7
		c-1.4,0-2.1,2.4-2.3,4.7H115.1z"/>
	<path fill="#211646" d="M117.6,166.7c0-2.5-0.1-3.7-0.1-4.5h1l0,1.9h0c0.7-1.8,1.7-2.2,2.5-2.2c1.7,0,3.3,2.2,3.3,7.4
		c0,5.5-1.8,7.5-3.6,7.5c-1.2,0-1.8-0.9-2.2-1.8h0v7.4h-1.1V166.7z M118.6,171.4c0,0.4,0,0.8,0,1.2c0.5,2.8,1.6,3.2,2.2,3.2
		c1.9,0,2.4-3,2.4-6.3c0-3.2-0.6-6.3-2.5-6.3c-1.1,0-2.1,1.8-2.2,3.5c0,0.4,0,0.8,0,1.1V171.4z"/>
	<path fill="#211646" d="M127.3,158.5c0,0.7-0.3,1.1-0.8,1.1c-0.4,0-0.8-0.4-0.8-1.1c0-0.7,0.3-1.1,0.8-1.1
		C127.1,157.4,127.3,157.9,127.3,158.5z M126,176.7v-14.4h1.1v14.4H126z"/>
	<path fill="#211646" d="M129.1,165.6c0-1.8-0.1-2.3-0.1-3.3h1l0,1.8h0c0.4-1.2,1.4-2,2.6-2c1.3,0,2.7,1,2.7,4.7v10h-1.1v-9.5
		c0-2-0.3-4.1-2-4.1c-1,0-1.9,1-2.2,3c-0.1,0.4-0.1,0.8-0.1,1.3v9.3h-1.1V165.6z"/>
	<path fill="#211646" d="M138.1,168.9c0,5.8,1.7,6.8,3,6.8c0.8,0,1.4-0.2,1.8-0.6l0.2,1c-0.6,0.5-1.4,0.7-2.2,0.7
		c-2.6,0-3.9-3-3.9-7.3c0-4.6,1.4-7.5,3.6-7.5c2.4,0,3,3.5,3,6.1c0,0.3,0,0.5,0,0.8H138.1z M142.5,167.9c0-3.6-1.2-4.7-2-4.7
		c-1.4,0-2.1,2.4-2.3,4.7H142.5z"/>
	<path fill="#211646" d="M153.8,173.4c0,1.1,0,2.3,0.1,3.2h-1l-0.1-1.6h-0.1c-0.4,1.1-1.2,1.8-2.2,1.8c-1.5,0-2.6-1.5-2.6-4
		c0-3.5,2.2-5.1,4.9-5.1v-0.5c0-2.5-0.3-4.1-2.1-4.1c-0.6,0-1.2,0.3-1.7,0.7l-0.3-1c0.4-0.4,1.3-0.8,2.2-0.8c1.6,0,2.9,1.1,2.9,4.6
		V173.4z M152.7,168.9c-0.9,0-3.8,0.1-3.8,3.9c0,2.2,0.9,2.9,1.7,2.9c1,0,1.8-1,2-2.7c0-0.3,0-0.7,0-0.9V168.9z"/>
	<path fill="#211646" d="M212.9,173.4c0,1.1,0,2.3,0.1,3.2h-1l-0.1-1.6h-0.1c-0.4,1.1-1.2,1.8-2.2,1.8c-1.5,0-2.6-1.5-2.6-4
		c0-3.5,2.2-5.1,4.9-5.1v-0.5c0-2.5-0.3-4.1-2.1-4.1c-0.6,0-1.2,0.3-1.7,0.7l-0.3-1c0.4-0.4,1.3-0.8,2.2-0.8c1.6,0,2.9,1.1,2.9,4.6
		V173.4z M211.8,168.9c-0.9,0-3.8,0.1-3.8,3.9c0,2.2,0.9,2.9,1.7,2.9c1,0,1.8-1,2-2.7c0-0.3,0-0.7,0-0.9V168.9z"/>
	<path fill="#211646" d="M161.2,176.3c-0.5,0.4-1.1,0.6-1.9,0.6c-2.3,0-4-2.6-4-7.4c0-3.9,1.5-7.5,4.3-7.5c0.6,0,1.3,0.2,1.6,0.5
		l-0.4,1.1c-0.2-0.2-0.8-0.5-1.5-0.5c-2.1,0-3,3.4-3,6.4c0,3.9,1.2,6.1,3.1,6.1c0.5,0,1-0.1,1.5-0.5L161.2,176.3z"/>
	<path fill="#211646" d="M162.6,168.9c0,5.8,1.7,6.8,3,6.8c0.8,0,1.4-0.2,1.8-0.6l0.3,1c-0.6,0.5-1.4,0.7-2.2,0.7
		c-2.6,0-3.9-3-3.9-7.3c0-4.6,1.4-7.5,3.6-7.5c2.4,0,3,3.5,3,6.1c0,0.3,0,0.5,0,0.8H162.6z M166.9,167.9c0-3.6-1.2-4.7-2-4.7
		c-1.4,0-2.1,2.4-2.3,4.7H166.9z"/>
	<path fill="#211646" d="M171,159.1v3.2h2.3v1.1H171v9.8c0,2,0.5,2.6,1.3,2.6c0.3,0,0.5,0,0.7-0.1l0.1,1c-0.3,0.2-0.6,0.2-1.1,0.2
		c-0.6,0-1.2-0.2-1.6-0.8c-0.4-0.6-0.5-1.5-0.5-3.3v-9.4h-1.5v-1.1h1.5v-2.4L171,159.1z"/>
	<path fill="#211646" d="M204.4,159.1v3.2h2.3v1.1h-2.3v9.8c0,2,0.5,2.6,1.3,2.6c0.3,0,0.5,0,0.7-0.1l0.1,1
		c-0.3,0.2-0.6,0.2-1.1,0.2c-0.6,0-1.2-0.2-1.6-0.8c-0.4-0.6-0.5-1.5-0.5-3.3v-9.4h-1.5v-1.1h1.5v-2.4L204.4,159.1z"/>
	<path fill="#211646" d="M179.7,173.4c0,1.1,0,2.3,0.1,3.2h-1l-0.1-1.6h-0.1c-0.4,1.1-1.2,1.8-2.2,1.8c-1.5,0-2.6-1.5-2.6-4
		c0-3.5,2.2-5.1,4.9-5.1v-0.5c0-2.5-0.3-4.1-2.1-4.1c-0.6,0-1.2,0.3-1.7,0.7l-0.3-1c0.4-0.4,1.3-0.8,2.2-0.8c1.6,0,2.9,1.1,2.9,4.6
		V173.4z M178.6,168.9c-0.9,0-3.8,0.1-3.8,3.9c0,2.2,0.9,2.9,1.7,2.9c1,0,1.8-1,2-2.7c0-0.3,0-0.7,0-0.9V168.9z"/>
	<path fill="#211646" d="M183.2,159.1v3.2h2.3v1.1h-2.3v9.8c0,2,0.5,2.6,1.3,2.6c0.3,0,0.5,0,0.7-0.1l0.1,1
		c-0.3,0.2-0.6,0.2-1.1,0.2c-0.6,0-1.2-0.2-1.6-0.8c-0.4-0.6-0.5-1.5-0.5-3.3v-9.4h-1.5v-1.1h1.5v-2.4L183.2,159.1z"/>
	<path fill="#211646" d="M234.8,159.1v3.2h2.3v1.1h-2.3v9.8c0,2,0.5,2.6,1.3,2.6c0.3,0,0.5,0,0.7-0.1l0.1,1
		c-0.3,0.2-0.6,0.2-1.1,0.2c-0.6,0-1.2-0.2-1.6-0.8c-0.4-0.6-0.5-1.5-0.5-3.3v-9.4h-1.5v-1.1h1.5v-2.4L234.8,159.1z"/>
	<path fill="#211646" d="M186.8,168.9c0,5.8,1.7,6.8,3,6.8c0.8,0,1.4-0.2,1.8-0.6l0.2,1c-0.6,0.5-1.4,0.7-2.2,0.7
		c-2.6,0-3.9-3-3.9-7.3c0-4.6,1.4-7.5,3.6-7.5c2.4,0,3,3.5,3,6.1c0,0.3,0,0.5,0,0.8H186.8z M191.2,167.9c0.1-3.6-1.2-4.7-2-4.7
		c-1.4,0-2.1,2.4-2.3,4.7H191.2z"/>
	<path fill="#211646" d="M226.6,168.9c0,5.8,1.7,6.8,3,6.8c0.8,0,1.4-0.2,1.8-0.6l0.2,1c-0.6,0.5-1.4,0.7-2.2,0.7
		c-2.6,0-3.9-3-3.9-7.3c0-4.6,1.4-7.5,3.6-7.5c2.4,0,3,3.5,3,6.1c0,0.3,0,0.5,0,0.8H226.6z M230.9,167.9c0.1-3.6-1.2-4.7-2-4.7
		c-1.4,0-2.1,2.4-2.3,4.7H230.9z"/>
	<path fill="#211646" d="M192.4,180.3c1.4-2.7,2.6-6.9,2.6-12.2c0-5.4-1.2-9.5-2.6-12.2h1c1.2,2.3,2.6,6.3,2.6,12.2
		c0,5.9-1.4,9.9-2.6,12.2H192.4z"/>
	<g>
		<path fill="#211646" d="M214.7,156.7h1v7.9h0c0.6-1.6,1.6-2,2.5-2c1.5,0,3.1,2.1,3.1,7.2c0,5.1-1.8,7.2-3.3,7.2
			c-1.4,0-2-1.1-2.3-2.2h-0.1l-0.1,1.9h-0.9c0-0.5,0.1-2.1,0.1-2.8V156.7z M215.8,171.9c0,0.3,0,0.6,0,0.8c0.5,2.7,1.5,3.2,2.1,3.2
			c1.8,0,2.3-3,2.3-6.1c0-3-0.6-6.1-2.4-6.1c-1.1,0-2,1.7-2.1,3.2c0,0.3,0,0.7,0,1V171.9z"/>
		<path fill="#211646" d="M222.9,156.7h1v20.1h-1V156.7z"/>
		<path fill="#211646" d="M238,175.1c0.4,0.3,1,0.7,1.7,0.7c1.2,0,2-1,2-2.5c0-1.2-0.3-2.2-1.6-3.2c-1.3-1.1-2.3-2.1-2.3-3.9
			c0-2.1,1.3-3.5,2.8-3.5c0.9,0,1.5,0.4,1.9,0.8l-0.5,1c-0.4-0.4-0.9-0.7-1.5-0.7c-1.1,0-1.7,1.1-1.7,2.1c0,1.1,0.3,1.8,1.5,2.8
			c1.1,1,2.4,2.1,2.4,4.3c0,2.8-1.5,4-3.1,4c-0.8,0-1.6-0.3-2.1-0.8L238,175.1z"/>
	</g>
</g>
<rect x="78.8" y="124.7" fill="none" width="148" height="28.9"/>
</svg>
