<?xml version="1.0" encoding="utf-8"?>
<!-- Generator: Adobe Illustrator 18.1.1, SVG Export Plug-In . SVG Version: 6.00 Build 0)  -->
<svg version="1.1" id="Layer_1" xmlns="http://www.w3.org/2000/svg" xmlns:xlink="http://www.w3.org/1999/xlink" x="0px" y="0px"
	 viewBox="0 0 1244 483.7" enable-background="new 0 0 1244 483.7" xml:space="preserve">
<g>
	<rect x="786" y="4.5" fill="#BED6E9" width="457.1" height="80.8"/>
	<g>
		<g>
			<path fill="#007DB3" d="M834.6,42.5h3.1v10.9c0,2.3,1.5,3.6,3.8,3.6s3.8-1.3,3.8-3.6V42.5h3.1v10.9c0,3.8-2.8,6.4-6.9,6.4
				c-4.1,0-6.9-2.6-6.9-6.4V42.5z"/>
			<path fill="#007DB3" d="M852.5,42.5h6.6c3.2,0,5.4,2.2,5.4,5.5c0,3.3-2.2,5.6-5.4,5.6h-3.5v5.9h-3.1V42.5z M858.5,51
				c1.8,0,2.9-1.2,2.9-2.9c0-1.8-1.1-2.9-2.8-2.9h-3V51H858.5z"/>
			<path fill="#007DB3" d="M876.6,45.2H871v-2.7h14.3v2.7h-5.6v14.4h-3.1V45.2z"/>
			<path fill="#007DB3" d="M895,42.2c5,0,8.8,3.8,8.8,8.7c0,5-3.8,8.9-8.8,8.9s-8.8-3.9-8.8-8.9C886.2,46.1,890,42.2,895,42.2z
				 M895,57c3.1,0,5.6-2.6,5.6-6.1c0-3.4-2.5-5.9-5.6-5.9s-5.6,2.5-5.6,5.9C889.4,54.4,891.9,57,895,57z"/>
			<path fill="#211646" d="M911.9,47.8l13.8-20.2h6.9v18.9h4.1v4.8h-4.1v8.2h-5.7v-8.2h-14.9V47.8z M926.8,46.5v-9.9
				c0-1.6,0.2-3.3,0.2-3.3H927c0,0-0.7,1.7-1.6,2.9L918,46.4v0.1H926.8z"/>
			<path fill="#211646" d="M941,54.6h6.9V36.9c0-1.1,0-2.2,0-2.2h-0.1c0,0-0.4,0.8-1.4,1.8l-2.6,2.4l-3.4-3.6l8-7.7h5.1v27h6.9v5
				H941V54.6z"/>
			<path fill="#211646" d="M962.5,31c0-2.1,1.8-3.8,3.9-3.8s3.9,1.7,3.9,3.8c0,2.1-1.8,3.8-3.9,3.8S962.5,33.1,962.5,31z
				 M976.2,27.5h2.8l-13.1,17h-2.8L976.2,27.5z M968,31c0-0.9-0.7-1.6-1.6-1.6c-0.9,0-1.6,0.7-1.6,1.6c0,0.9,0.7,1.6,1.6,1.6
				C967.3,32.6,968,31.9,968,31z M975.7,37.3c2.2,0,3.9,1.7,3.9,3.8c0,2.1-1.8,3.8-3.9,3.8c-2.2,0-3.9-1.7-3.9-3.8
				C971.8,39,973.6,37.3,975.7,37.3z M975.7,42.7c0.9,0,1.6-0.7,1.6-1.6c0-0.9-0.7-1.6-1.6-1.6c-0.9,0-1.6,0.7-1.6,1.6
				C974.2,42,974.9,42.7,975.7,42.7z"/>
			<path fill="#007DB3" d="M986.5,42.7h5c1.7,0,2.5,0.2,3.2,0.5c1.6,0.7,2.5,2.3,2.5,4.3c0,2.3-1.3,4-3.2,4.6v0c0,0,0.2,0.2,0.4,0.7
				l3.7,6.8h-1.9l-3.8-7.1h-4.2v7.1h-1.7V42.7z M992.2,51c2,0,3.3-1.3,3.3-3.4c0-1.4-0.6-2.4-1.5-3c-0.5-0.3-1.1-0.4-2.4-0.4h-3.4
				V51H992.2z"/>
			<path fill="#007DB3" d="M1001.6,42.7h9.5v1.5h-7.8v6.1h6.4v1.5h-6.4v6.3h8.3v1.5h-9.9V42.7z"/>
			<path fill="#007DB3" d="M1015.1,56.4c0,0,1.8,1.8,4.4,1.8c1.8,0,3.4-1.1,3.4-2.9c0-4.2-8.4-3.2-8.4-8.4c0-2.4,2.1-4.5,5.3-4.5
				c2.9,0,4.5,1.6,4.5,1.6l-0.8,1.4c0,0-1.5-1.4-3.7-1.4c-2.2,0-3.6,1.4-3.6,2.9c0,4,8.4,2.9,8.4,8.4c0,2.5-1.9,4.6-5.1,4.6
				c-3.5,0-5.4-2.2-5.4-2.2L1015.1,56.4z"/>
			<path fill="#007DB3" d="M1028.2,42.7h5.8c3,0,5.2,2,5.2,5.1c0,3.1-2.2,5.2-5.2,5.2h-4.2v6.6h-1.7V42.7z M1033.8,51.5
				c2.3,0,3.7-1.4,3.7-3.7c0-2.3-1.5-3.6-3.7-3.6h-4v7.3H1033.8z"/>
			<path fill="#007DB3" d="M1050,42.4c4.8,0,8.6,3.8,8.6,8.6c0,4.9-3.8,8.8-8.6,8.8s-8.6-3.9-8.6-8.8
				C1041.4,46.2,1045.2,42.4,1050,42.4z M1050,58.3c3.8,0,6.9-3.2,6.9-7.3c0-4-3.1-7.1-6.9-7.1c-3.8,0-6.9,3-6.9,7.1
				C1043.2,55.2,1046.2,58.3,1050,58.3z"/>
			<path fill="#007DB3" d="M1062.4,42.7h1.6l8.6,12.1c0.6,0.8,1.4,2.3,1.4,2.3h0c0,0-0.1-1.4-0.1-2.3V42.7h1.7v16.9h-1.6l-8.6-12.1
				c-0.6-0.8-1.4-2.3-1.4-2.3h0c0,0,0.1,1.4,0.1,2.3v12.1h-1.7V42.7z"/>
			<path fill="#007DB3" d="M1080.4,42.7h5.4c5.1,0,8.5,3.1,8.5,8.4c0,5.4-3.4,8.4-8.5,8.4h-5.4V42.7z M1085.7,58.1
				c4.2,0,6.9-2.4,6.9-7c0-4.5-2.8-6.9-6.9-6.9h-3.6v13.9H1085.7z"/>
			<path fill="#007DB3" d="M1098.2,42.7h9.5v1.5h-7.8v6.1h6.4v1.5h-6.4v6.3h8.3v1.5h-9.9V42.7z"/>
			<path fill="#007DB3" d="M1111.9,42.7h5c1.7,0,2.5,0.2,3.2,0.5c1.6,0.7,2.5,2.3,2.5,4.3c0,2.3-1.3,4-3.2,4.6v0
				c0,0,0.2,0.2,0.4,0.7l3.7,6.8h-1.9l-3.8-7.1h-4.2v7.1h-1.7V42.7z M1117.6,51c2,0,3.3-1.3,3.3-3.4c0-1.4-0.6-2.4-1.5-3
				c-0.5-0.3-1.1-0.4-2.4-0.4h-3.4V51H1117.6z"/>
			<path fill="#007DB3" d="M1133.4,42.7h5c1.7,0,2.5,0.2,3.2,0.5c1.6,0.7,2.5,2.3,2.5,4.3c0,2.3-1.3,4-3.2,4.6v0
				c0,0,0.2,0.2,0.4,0.7l3.7,6.8h-1.9l-3.8-7.1h-4.2v7.1h-1.7V42.7z M1139.1,51c2,0,3.3-1.3,3.3-3.4c0-1.4-0.6-2.4-1.5-3
				c-0.5-0.3-1.1-0.4-2.4-0.4h-3.4V51H1139.1z"/>
			<path fill="#007DB3" d="M1156.8,54.2h-6.8l-1.9,5.4h-1.8l6.2-16.9h1.8l6.2,16.9h-1.8L1156.8,54.2z M1153.4,44.5
				c0,0-0.4,1.4-0.6,2.2l-2.3,6.1h5.8l-2.2-6.1C1153.8,45.8,1153.5,44.5,1153.4,44.5L1153.4,44.5z"/>
			<path fill="#007DB3" d="M1166,44.2h-6.1v-1.5h13.8v1.5h-6v15.4h-1.7V44.2z"/>
			<path fill="#007DB3" d="M1176.3,42.7h9.5v1.5h-7.8v6.1h6.4v1.5h-6.4v6.3h8.3v1.5h-9.9V42.7z"/>
			<path fill="#007DB3" d="M1189.8,50.7l2.2-2.8v0l-3.5-1l0.5-1.5l3.4,1.2l-0.1-3.6h1.6l-0.2,3.6l3.4-1.2l0.5,1.4l-3.5,1v0l2.2,2.8
				l-1.2,0.9l-2-3h0l-2,3L1189.8,50.7z"/>
		</g>
	</g>
	<path fill="#007DB3" d="M1241.8,443.9H787.3V6.7h454.5V443.9z M1244,4.5H785v441.6h459V4.5z"/>
	<rect x="234" y="159.3" fill="#F6911E" width="61" height="235.6"/>
	<rect x="173.1" y="157.6" fill="#007DB3" width="61" height="237.2"/>
	<rect x="112.2" y="74.6" fill="#A6A8AB" width="61" height="320.3"/>
	<rect x="462.1" y="228.6" fill="#F6911E" width="61" height="166.7"/>
	<rect x="401.2" y="212.2" fill="#007DB3" width="61" height="183"/>
	<rect x="340.3" y="146.5" fill="#A6A8AB" width="61" height="248.7"/>
	<rect x="689.9" y="223.1" fill="#F6911E" width="61" height="171.6"/>
	<rect x="629" y="152.5" fill="#007DB3" width="61" height="242.1"/>
	<rect x="568.1" y="190.7" fill="#A6A8AB" width="61" height="203.9"/>
	<rect x="935.8" y="147.3" fill="#F6911E" width="61" height="247.3"/>
	<rect x="874.9" y="220.1" fill="#007DB3" width="61" height="174.3"/>
	<rect x="814" y="271.5" fill="#A6A8AB" width="61" height="123"/>
	<rect x="1154.9" y="242.7" fill="#F6911E" width="61" height="152.4"/>
	<rect x="1094.1" y="254.2" fill="#007DB3" width="61" height="140.8"/>
	<rect x="1033.1" y="312.7" fill="#A6A8AB" width="61" height="82.3"/>
	<polyline fill="none" stroke="#231F20" stroke-width="1.5" stroke-miterlimit="10" points="84.9,52.9 84.9,394.3 84.9,394.7 
		1241.8,394.7 	"/>
	<g>
		<path fill="#6D6E70" d="M39.7,56.5c0,0,1.5,1.7,3.8,1.7c1.7,0,3.2-1.2,3.2-2.8c0-1.9-1.7-2.9-3.6-2.9h-1.1l-0.5-1.2l3.4-4
			c0.5-0.6,1-1,1-1v0c0,0-0.5,0.1-1.3,0.1h-5.3v-1.9h9.3v1.4l-4.2,4.9c2,0.2,4.6,1.5,4.6,4.6c0,2.7-2.1,5-5.3,5c-3.2,0-5-2.1-5-2.1
			L39.7,56.5z"/>
		<path fill="#6D6E70" d="M52.1,56.6c0,0,1.2,1.7,3.4,1.7c1.8,0,3.4-1.3,3.4-3.1c0-1.9-1.5-3.2-3.5-3.2c-1.5,0-2.6,0.8-2.6,0.8
			l-1.3-0.5l0.8-7.7h7.8v1.9h-5.9l-0.4,3.3c0,0.5-0.1,0.8-0.1,0.8h0c0,0,0.9-0.5,2-0.5c3.3,0,5.4,2.3,5.4,5.1c0,3-2.4,5.2-5.5,5.2
			c-3.2,0-4.8-2.2-4.8-2.2L52.1,56.6z"/>
	</g>
	<g>
		<path fill="#6D6E70" d="M38.7,156.9c0-5.5,7.6-6.3,7.6-10c0-1.5-1.2-2.6-2.8-2.6c-2,0-3.1,2-3.1,2l-1.6-1.1c0,0,1.4-2.9,4.9-2.9
			c2.9,0,4.9,1.8,4.9,4.5c0,5.1-7.4,5.9-7.5,9.4h7.7v1.9h-10C38.7,157.6,38.7,157.3,38.7,156.9z"/>
		<path fill="#6D6E70" d="M52.1,154.6c0,0,1.2,1.7,3.4,1.7c1.8,0,3.4-1.3,3.4-3.1c0-1.9-1.5-3.2-3.5-3.2c-1.5,0-2.6,0.8-2.6,0.8
			l-1.3-0.5l0.8-7.7h7.8v1.9h-5.9l-0.4,3.3c0,0.5-0.1,0.8-0.1,0.8h0c0,0,0.9-0.5,2-0.5c3.3,0,5.4,2.3,5.4,5.1c0,3-2.4,5.2-5.5,5.2
			c-3.2,0-4.8-2.2-4.8-2.2L52.1,154.6z"/>
	</g>
	<g>
		<path fill="#6D6E70" d="M38.3,105.5c0,0,1.5,1.7,3.8,1.7c1.7,0,3.2-1.2,3.2-2.8c0-1.9-1.7-2.9-3.6-2.9h-1.1l-0.5-1.2l3.4-4
			c0.5-0.6,1-1,1-1v0c0,0-0.5,0.1-1.3,0.1h-5.3v-1.9h9.3v1.4l-4.2,4.9c2,0.2,4.6,1.5,4.6,4.6c0,2.7-2.1,5-5.3,5c-3.2,0-5-2.1-5-2.1
			L38.3,105.5z"/>
		<path fill="#6D6E70" d="M49.9,101.3c0-4.5,1.3-8,5.5-8c4.2,0,5.5,3.5,5.5,8c0,4.5-1.3,8.1-5.5,8.1
			C51.2,109.3,49.9,105.7,49.9,101.3z M58.6,101.3c0-3.4-0.7-6-3.3-6c-2.5,0-3.3,2.6-3.3,6c0,3.4,0.7,6.1,3.3,6.1
			C57.9,107.3,58.6,104.6,58.6,101.3z"/>
	</g>
	<g>
		<path fill="#6D6E70" d="M37.3,205.4c0-5.5,7.6-6.3,7.6-10c0-1.5-1.2-2.6-2.8-2.6c-2,0-3.1,2-3.1,2l-1.6-1.1c0,0,1.4-2.9,4.9-2.9
			c2.9,0,4.9,1.8,4.9,4.5c0,5.1-7.4,5.9-7.5,9.4h7.7v1.9h-10C37.4,206.1,37.3,205.7,37.3,205.4z"/>
		<path fill="#6D6E70" d="M49.9,198.7c0-4.5,1.3-8,5.5-8c4.2,0,5.5,3.5,5.5,8c0,4.5-1.3,8.1-5.5,8.1
			C51.2,206.8,49.9,203.2,49.9,198.7z M58.6,198.7c0-3.4-0.7-6-3.3-6c-2.5,0-3.3,2.6-3.3,6c0,3.4,0.7,6.1,3.3,6.1
			C57.9,204.8,58.6,202.1,58.6,198.7z"/>
	</g>
	<g>
		<path fill="#6D6E70" d="M40.6,253.2H44v-10c0-0.5,0-1,0-1h0c0,0-0.2,0.4-0.7,0.9l-1.5,1.4l-1.3-1.4l3.7-3.6h1.9v13.6h3.4v1.9h-8.9
			V253.2z"/>
		<path fill="#6D6E70" d="M52.2,251.6c0,0,1.2,1.7,3.4,1.7c1.8,0,3.4-1.3,3.4-3.1c0-1.9-1.5-3.2-3.5-3.2c-1.5,0-2.6,0.8-2.6,0.8
			l-1.3-0.5l0.8-7.7h7.8v1.9h-5.9l-0.4,3.3c0,0.5-0.1,0.8-0.1,0.8h0c0,0,0.9-0.5,2-0.5c3.3,0,5.4,2.3,5.4,5.1c0,3-2.4,5.2-5.5,5.2
			c-3.2,0-4.8-2.2-4.8-2.2L52.2,251.6z"/>
	</g>
	<g>
		<path fill="#6D6E70" d="M39.2,302.9h3.4v-10c0-0.5,0-1,0-1h0c0,0-0.2,0.4-0.7,0.9l-1.5,1.4l-1.3-1.4l3.7-3.6h1.9v13.6h3.4v1.9
			h-8.9V302.9z"/>
		<path fill="#6D6E70" d="M49.9,297c0-4.5,1.3-8,5.5-8c4.2,0,5.5,3.5,5.5,8c0,4.5-1.3,8.1-5.5,8.1C51.2,305,49.9,301.4,49.9,297z
			 M58.7,297c0-3.4-0.7-6-3.3-6c-2.5,0-3.3,2.6-3.3,6c0,3.4,0.7,6.1,3.3,6.1C57.9,303,58.7,300.3,58.7,297z"/>
	</g>
	<g>
		<path fill="#6D6E70" d="M52.3,348.7c0,0,1.2,1.7,3.4,1.7c1.8,0,3.4-1.3,3.4-3.1c0-1.9-1.5-3.2-3.5-3.2c-1.5,0-2.6,0.8-2.6,0.8
			l-1.3-0.5l0.8-7.7h7.8v1.9h-5.9l-0.4,3.3c0,0.5-0.1,0.8-0.1,0.8h0c0,0,0.9-0.5,2-0.5c3.3,0,5.4,2.3,5.4,5.1c0,3-2.4,5.2-5.5,5.2
			c-3.2,0-4.8-2.2-4.8-2.2L52.3,348.7z"/>
	</g>
	<g>
		<path fill="#6D6E70" d="M50,393.7c0-4.5,1.3-8,5.5-8c4.2,0,5.5,3.5,5.5,8c0,4.5-1.3,8.1-5.5,8.1C51.4,401.7,50,398.1,50,393.7z
			 M58.8,393.7c0-3.4-0.7-6-3.3-6c-2.5,0-3.3,2.6-3.3,6c0,3.4,0.7,6.1,3.3,6.1C58.1,399.7,58.8,397,58.8,393.7z"/>
	</g>
	<g>
		<path fill="#6D6E70" d="M175.8,414.9c0,0-0.2,1.3-0.5,2.3l-2.9,10.9h-1.8l-4-15.5h1.6l3,12c0.2,0.8,0.4,1.6,0.4,1.6h0
			c0,0,0.1-0.9,0.4-1.6l3.3-12h1.5l3.3,12c0.2,0.8,0.3,1.6,0.4,1.6h0c0,0,0.2-0.9,0.4-1.6l3.1-12h1.6l-4.1,15.5h-1.8l-2.9-10.9
			C176,416.2,175.8,414.9,175.8,414.9L175.8,414.9z"/>
		<path fill="#6D6E70" d="M192.2,416.7c3.2,0,5.9,2.5,5.9,5.7c0,3.3-2.6,5.9-5.9,5.9c-3.2,0-5.9-2.5-5.9-5.9
			C186.4,419.2,189,416.7,192.2,416.7z M192.2,427c2.4,0,4.3-1.9,4.3-4.5c0-2.5-1.9-4.4-4.3-4.4c-2.4,0-4.3,1.9-4.3,4.4
			C187.9,425,189.9,427,192.2,427z"/>
		<path fill="#6D6E70" d="M200.7,417h1.5v2c0,0.5,0,0.9,0,0.9h0c0.5-1.7,1.8-2.9,3.5-2.9c0.3,0,0.6,0.1,0.6,0.1v1.5c0,0-0.3,0-0.6,0
			c-1.6,0-2.7,1.2-3.2,2.9c-0.2,0.7-0.3,1.5-0.3,2.2v4.7h-1.5V417z"/>
		<path fill="#6D6E70" d="M208.2,425.6c0,0,1.2,1.3,3.3,1.3c1.2,0,2.2-0.6,2.2-1.8c0-2.4-6-1.8-6-5.4c0-2,1.8-3.1,3.8-3.1
			c2.3,0,3.4,1.2,3.4,1.2l-0.7,1.1c0,0-0.9-1-2.8-1c-1.1,0-2.2,0.5-2.2,1.7c0,2.4,6,1.8,6,5.4c0,1.8-1.6,3.1-3.8,3.1
			c-2.7,0-4.1-1.6-4.1-1.6L208.2,425.6z"/>
		<path fill="#6D6E70" d="M222.5,416.7c3.1,0,4.6,2.4,4.6,5.1c0,0.3,0,0.8,0,0.8h-8.5c0.1,2.8,2,4.4,4.3,4.4c2,0,3.4-1.3,3.4-1.3
			l0.7,1.1c0,0-1.6,1.5-4.1,1.5c-3.3,0-5.8-2.4-5.8-5.8C217.1,418.9,219.6,416.7,222.5,416.7z M225.6,421.4
			c-0.1-2.3-1.5-3.4-3.1-3.4c-1.8,0-3.5,1.2-3.8,3.4H225.6z"/>
	</g>
	<g>
		<path fill="#6D6E70" d="M364.6,420.5c0-4.4,1.3-8,5.3-8c4,0,5.3,3.5,5.3,8c0,4.5-1.3,8-5.3,8C365.9,428.5,364.6,425,364.6,420.5z
			 M373.7,420.5c0-3.7-0.8-6.6-3.7-6.6c-2.9,0-3.8,2.9-3.8,6.6c0,3.7,0.8,6.6,3.8,6.6C372.9,427.1,373.7,424.2,373.7,420.5z"/>
		<path fill="#6D6E70" d="M377.8,415.6c0-1.7,1.4-3.1,3.1-3.1s3.1,1.4,3.1,3.1c0,1.7-1.4,3.1-3.1,3.1S377.8,417.3,377.8,415.6z
			 M389.8,412.8h1.6l-11.8,15.5H378L389.8,412.8z M382.7,415.6c0-1-0.8-1.8-1.8-1.8s-1.8,0.8-1.8,1.8c0,1,0.8,1.8,1.8,1.8
			S382.7,416.6,382.7,415.6z M388.4,422.4c1.7,0,3.1,1.4,3.1,3.1c0,1.7-1.4,3-3.1,3c-1.7,0-3.1-1.4-3.1-3
			C385.3,423.8,386.6,422.4,388.4,422.4z M388.4,427.3c1,0,1.8-0.8,1.8-1.8c0-1-0.8-1.8-1.8-1.8c-1,0-1.8,0.8-1.8,1.8
			C386.6,426.5,387.3,427.3,388.4,427.3z"/>
		<path fill="#6D6E70" d="M400.4,418.6h-1.5v-1.3h1.5v-3.2h1.5v3.2h2.8v1.3h-2.8v5.5c0,2.6,1.6,2.9,2.5,2.9c0.3,0,0.5,0,0.5,0v1.3
			c0,0-0.2,0-0.6,0c-1.3,0-3.9-0.4-3.9-4.1V418.6z"/>
		<path fill="#6D6E70" d="M412.2,416.9c3.2,0,5.9,2.5,5.9,5.7c0,3.3-2.6,5.9-5.9,5.9c-3.2,0-5.9-2.5-5.9-5.9
			C406.3,419.4,408.9,416.9,412.2,416.9z M412.2,427.2c2.4,0,4.3-1.9,4.3-4.5c0-2.5-1.9-4.4-4.3-4.4c-2.4,0-4.3,1.9-4.3,4.4
			C407.9,425.2,409.8,427.2,412.2,427.2z"/>
		<path fill="#6D6E70" d="M425.6,421.4l9.9-4.4v1.5l-8.1,3.5v0l8.1,3.5v1.5l-9.9-4.4V421.4z"/>
		<path fill="#6D6E70" d="M438.1,427.2c0-5.4,7.9-6.1,7.9-10.3c0-1.7-1.3-3-3.2-3c-2.3,0-3.5,2.1-3.5,2.1l-1.1-0.8
			c0,0,1.4-2.8,4.7-2.8c2.9,0,4.7,1.9,4.7,4.3c0,5.2-7.8,5.9-7.8,10h8.1v1.4h-9.7C438.1,427.9,438.1,427.6,438.1,427.2z"/>
		<path fill="#6D6E70" d="M451.2,425.2c0,0,1.1,1.8,3.5,1.8c2.1,0,3.9-1.5,3.9-3.6s-1.7-3.6-3.9-3.6c-1.7,0-2.8,0.8-2.8,0.8l-1-0.4
			l0.8-7.5h7.5v1.4H453l-0.4,4c-0.1,0.5-0.2,0.9-0.2,0.9h0c0,0,1-0.6,2.4-0.6c3.1,0,5.3,2.2,5.3,5c0,2.9-2.4,5.1-5.4,5.1
			c-3.1,0-4.5-2.2-4.5-2.2L451.2,425.2z"/>
		<path fill="#6D6E70" d="M462.3,415.6c0-1.7,1.4-3.1,3.1-3.1s3.1,1.4,3.1,3.1c0,1.7-1.4,3.1-3.1,3.1S462.3,417.3,462.3,415.6z
			 M474.2,412.8h1.6L464,428.2h-1.6L474.2,412.8z M467.2,415.6c0-1-0.8-1.8-1.8-1.8s-1.8,0.8-1.8,1.8c0,1,0.8,1.8,1.8,1.8
			S467.2,416.6,467.2,415.6z M472.8,422.4c1.7,0,3.1,1.4,3.1,3.1c0,1.7-1.4,3-3.1,3s-3.1-1.4-3.1-3
			C469.7,423.8,471.1,422.4,472.8,422.4z M472.8,427.3c1,0,1.8-0.8,1.8-1.8c0-1-0.8-1.8-1.8-1.8s-1.8,0.8-1.8,1.8
			C471.1,426.5,471.8,427.3,472.8,427.3z"/>
	</g>
	<g>
		<path fill="#6D6E70" d="M583.1,427.2c0-5.4,7.9-6.1,7.9-10.3c0-1.7-1.3-3-3.2-3c-2.3,0-3.5,2.1-3.5,2.1l-1.1-0.8
			c0,0,1.4-2.8,4.7-2.8c2.9,0,4.7,1.9,4.7,4.3c0,5.2-7.8,5.9-7.8,10h8.1v1.4h-9.7C583.1,427.9,583.1,427.6,583.1,427.2z"/>
		<path fill="#6D6E70" d="M596.1,425.2c0,0,1.1,1.8,3.5,1.8c2.1,0,3.9-1.5,3.9-3.6s-1.7-3.6-3.9-3.6c-1.7,0-2.8,0.8-2.8,0.8l-1-0.4
			l0.8-7.5h7.5v1.4h-6.2l-0.4,4c-0.1,0.5-0.2,0.9-0.2,0.9h0c0,0,1-0.6,2.4-0.6c3.1,0,5.3,2.2,5.3,5c0,2.9-2.4,5.1-5.4,5.1
			c-3.1,0-4.5-2.2-4.5-2.2L596.1,425.2z"/>
		<path fill="#6D6E70" d="M607.3,415.6c0-1.7,1.4-3.1,3.1-3.1s3.1,1.4,3.1,3.1c0,1.7-1.4,3.1-3.1,3.1S607.3,417.3,607.3,415.6z
			 M619.2,412.8h1.6L609,428.2h-1.6L619.2,412.8z M612.2,415.6c0-1-0.8-1.8-1.8-1.8s-1.8,0.8-1.8,1.8c0,1,0.8,1.8,1.8,1.8
			S612.2,416.6,612.2,415.6z M617.8,422.4c1.7,0,3.1,1.4,3.1,3.1c0,1.7-1.4,3-3.1,3s-3.1-1.4-3.1-3
			C614.7,423.8,616.1,422.4,617.8,422.4z M617.8,427.3c1,0,1.8-0.8,1.8-1.8c0-1-0.8-1.8-1.8-1.8s-1.8,0.8-1.8,1.8
			C616.1,426.5,616.8,427.3,617.8,427.3z"/>
		<path fill="#6D6E70" d="M629.8,418.6h-1.5v-1.3h1.5v-3.2h1.5v3.2h2.8v1.3h-2.8v5.5c0,2.6,1.7,2.9,2.5,2.9c0.3,0,0.5,0,0.5,0v1.3
			c0,0-0.2,0-0.6,0c-1.3,0-3.9-0.4-3.9-4.1V418.6z"/>
		<path fill="#6D6E70" d="M641.6,416.9c3.2,0,5.9,2.5,5.9,5.7c0,3.3-2.6,5.9-5.9,5.9s-5.9-2.5-5.9-5.9
			C635.8,419.4,638.4,416.9,641.6,416.9z M641.6,427.2c2.4,0,4.3-1.9,4.3-4.5c0-2.5-1.9-4.4-4.3-4.4c-2.4,0-4.3,1.9-4.3,4.4
			C637.3,425.2,639.3,427.2,641.6,427.2z"/>
		<path fill="#6D6E70" d="M655.1,421.4l9.9-4.4v1.5L657,422v0l8.1,3.5v1.5l-9.9-4.4V421.4z"/>
		<path fill="#6D6E70" d="M668.4,425.2c0,0,1.1,1.8,3.5,1.8c2.1,0,3.8-1.5,3.8-3.6s-1.7-3.6-3.9-3.6c-1.7,0-2.8,0.8-2.8,0.8l-1-0.4
			l0.8-7.5h7.5v1.4h-6.2l-0.4,4c-0.1,0.5-0.2,0.9-0.2,0.9h0c0,0,1-0.6,2.4-0.6c3.1,0,5.3,2.2,5.3,5c0,2.9-2.4,5.1-5.4,5.1
			c-3.1,0-4.5-2.2-4.5-2.2L668.4,425.2z"/>
		<path fill="#6D6E70" d="M679.9,420.5c0-4.4,1.3-8,5.3-8s5.3,3.5,5.3,8c0,4.5-1.3,8-5.3,8S679.9,425,679.9,420.5z M688.9,420.5
			c0-3.7-0.8-6.6-3.7-6.6c-2.9,0-3.8,2.9-3.8,6.6c0,3.7,0.8,6.6,3.8,6.6C688.1,427.1,688.9,424.2,688.9,420.5z"/>
		<path fill="#6D6E70" d="M693.1,415.6c0-1.7,1.4-3.1,3.1-3.1c1.7,0,3.1,1.4,3.1,3.1c0,1.7-1.4,3.1-3.1,3.1
			C694.4,418.6,693.1,417.3,693.1,415.6z M705,412.8h1.6l-11.8,15.5h-1.6L705,412.8z M698,415.6c0-1-0.8-1.8-1.8-1.8
			c-1,0-1.8,0.8-1.8,1.8c0,1,0.8,1.8,1.8,1.8C697.2,417.4,698,416.6,698,415.6z M703.6,422.4c1.7,0,3.1,1.4,3.1,3.1
			c0,1.7-1.4,3-3.1,3c-1.7,0-3.1-1.4-3.1-3C700.5,423.8,701.9,422.4,703.6,422.4z M703.6,427.3c1,0,1.8-0.8,1.8-1.8
			c0-1-0.8-1.8-1.8-1.8c-1,0-1.8,0.8-1.8,1.8C701.8,426.5,702.6,427.3,703.6,427.3z"/>
	</g>
	<g>
		<path fill="#6D6E70" d="M831.8,425.7c0,0,1.1,1.8,3.5,1.8c2.1,0,3.9-1.5,3.9-3.6s-1.7-3.6-3.9-3.6c-1.7,0-2.8,0.8-2.8,0.8l-1-0.4
			l0.8-7.5h7.5v1.4h-6.2l-0.4,4c-0.1,0.5-0.2,0.9-0.2,0.9h0c0,0,1-0.6,2.4-0.6c3.1,0,5.3,2.2,5.3,5c0,2.9-2.4,5.1-5.4,5.1
			c-3.1,0-4.5-2.2-4.5-2.2L831.8,425.7z"/>
		<path fill="#6D6E70" d="M843.2,420.9c0-4.4,1.3-8,5.3-8c4,0,5.3,3.5,5.3,8c0,4.5-1.3,8-5.3,8C844.6,429,843.2,425.4,843.2,420.9z
			 M852.3,420.9c0-3.7-0.8-6.6-3.7-6.6c-2.9,0-3.8,2.9-3.8,6.6c0,3.7,0.8,6.6,3.8,6.6C851.5,427.5,852.3,424.6,852.3,420.9z"/>
		<path fill="#6D6E70" d="M856.5,416c0-1.7,1.4-3.1,3.1-3.1c1.7,0,3.1,1.4,3.1,3.1c0,1.7-1.4,3.1-3.1,3.1
			C857.8,419.1,856.5,417.7,856.5,416z M868.4,413.2h1.6l-11.8,15.5h-1.6L868.4,413.2z M861.4,416c0-1-0.8-1.8-1.8-1.8
			c-1,0-1.8,0.8-1.8,1.8c0,1,0.8,1.8,1.8,1.8C860.6,417.8,861.4,417,861.4,416z M867,422.8c1.7,0,3.1,1.4,3.1,3.1c0,1.7-1.4,3-3.1,3
			c-1.7,0-3.1-1.4-3.1-3C863.9,424.2,865.3,422.8,867,422.8z M867,427.7c1,0,1.8-0.8,1.8-1.8c0-1-0.8-1.8-1.8-1.8
			c-1,0-1.8,0.8-1.8,1.8C865.2,426.9,866,427.7,867,427.7z"/>
		<path fill="#6D6E70" d="M879,419h-1.5v-1.3h1.5v-3.2h1.5v3.2h2.8v1.3h-2.8v5.5c0,2.6,1.7,2.9,2.5,2.9c0.3,0,0.5,0,0.5,0v1.3
			c0,0-0.2,0-0.6,0c-1.3,0-3.9-0.4-3.9-4.1V419z"/>
		<path fill="#6D6E70" d="M890.8,417.4c3.2,0,5.9,2.5,5.9,5.7c0,3.3-2.6,5.9-5.9,5.9s-5.9-2.5-5.9-5.9
			C885,419.8,887.6,417.4,890.8,417.4z M890.8,427.6c2.4,0,4.3-1.9,4.3-4.5c0-2.5-1.9-4.4-4.3-4.4c-2.4,0-4.3,1.9-4.3,4.4
			C886.5,425.7,888.4,427.6,890.8,427.6z"/>
		<path fill="#6D6E70" d="M904.2,421.9l9.9-4.4v1.5l-8.1,3.5v0l8.1,3.5v1.5l-9.9-4.4V421.9z"/>
		<path fill="#6D6E70" d="M923.8,416c0.4-0.8,0.9-1.4,0.9-1.4v0c0,0-0.4,0-1.2,0h-7.2v-1.4h10.1v1.1l-7.2,14.4h-1.6L923.8,416z"/>
		<path fill="#6D6E70" d="M928.8,425.7c0,0,1.1,1.8,3.5,1.8c2.1,0,3.9-1.5,3.9-3.6s-1.7-3.6-3.9-3.6c-1.7,0-2.8,0.8-2.8,0.8l-1-0.4
			l0.8-7.5h7.5v1.4h-6.2l-0.4,4c-0.1,0.5-0.2,0.9-0.2,0.9h0c0,0,1-0.6,2.4-0.6c3.1,0,5.3,2.2,5.3,5c0,2.9-2.4,5.1-5.4,5.1
			c-3.1,0-4.5-2.2-4.5-2.2L928.8,425.7z"/>
		<path fill="#6D6E70" d="M940,416c0-1.7,1.4-3.1,3.1-3.1c1.7,0,3.1,1.4,3.1,3.1c0,1.7-1.4,3.1-3.1,3.1
			C941.3,419.1,940,417.7,940,416z M951.9,413.2h1.6l-11.8,15.5h-1.6L951.9,413.2z M944.8,416c0-1-0.8-1.8-1.8-1.8
			c-1,0-1.8,0.8-1.8,1.8c0,1,0.8,1.8,1.8,1.8C944,417.8,944.8,417,944.8,416z M950.5,422.8c1.7,0,3.1,1.4,3.1,3.1c0,1.7-1.4,3-3.1,3
			c-1.7,0-3.1-1.4-3.1-3C947.4,424.2,948.8,422.8,950.5,422.8z M950.5,427.7c1,0,1.8-0.8,1.8-1.8c0-1-0.8-1.8-1.8-1.8
			c-1,0-1.8,0.8-1.8,1.8C948.7,426.9,949.5,427.7,950.5,427.7z"/>
	</g>
	<g>
		<path fill="#6D6E70" d="M1058.2,415.4c0.4-0.8,0.9-1.4,0.9-1.4v0c0,0-0.4,0-1.2,0h-7.2v-1.4h10.1v1.1l-7.2,14.4h-1.6L1058.2,415.4
			z"/>
		<path fill="#6D6E70" d="M1063.2,425.1c0,0,1.1,1.8,3.5,1.8c2.1,0,3.8-1.5,3.8-3.6s-1.7-3.6-3.9-3.6c-1.7,0-2.8,0.8-2.8,0.8l-1-0.4
			l0.8-7.5h7.5v1.4h-6.2l-0.4,4c-0.1,0.5-0.2,0.9-0.2,0.9h0c0,0,1-0.6,2.4-0.6c3.1,0,5.3,2.2,5.3,5c0,2.9-2.4,5.1-5.4,5.1
			c-3.1,0-4.5-2.2-4.5-2.2L1063.2,425.1z"/>
		<path fill="#6D6E70" d="M1074.4,415.4c0-1.7,1.4-3.1,3.1-3.1c1.7,0,3.1,1.4,3.1,3.1c0,1.7-1.4,3.1-3.1,3.1
			C1075.7,418.4,1074.4,417.1,1074.4,415.4z M1086.3,412.6h1.6l-11.8,15.5h-1.6L1086.3,412.6z M1079.2,415.4c0-1-0.8-1.8-1.8-1.8
			c-1,0-1.8,0.8-1.8,1.8c0,1,0.8,1.8,1.8,1.8C1078.5,417.2,1079.2,416.4,1079.2,415.4z M1084.9,422.2c1.7,0,3.1,1.4,3.1,3.1
			c0,1.7-1.4,3-3.1,3c-1.7,0-3.1-1.4-3.1-3C1081.8,423.6,1083.2,422.2,1084.9,422.2z M1084.9,427.1c1,0,1.8-0.8,1.8-1.8
			c0-1-0.8-1.8-1.8-1.8c-1,0-1.8,0.8-1.8,1.8C1083.1,426.3,1083.9,427.1,1084.9,427.1z"/>
		<path fill="#6D6E70" d="M1096.9,418.4h-1.5v-1.3h1.5v-3.2h1.5v3.2h2.8v1.3h-2.8v5.5c0,2.6,1.7,2.9,2.5,2.9c0.3,0,0.5,0,0.5,0v1.3
			c0,0-0.2,0-0.6,0c-1.3,0-3.9-0.4-3.9-4.1V418.4z"/>
		<path fill="#6D6E70" d="M1108.7,416.7c3.2,0,5.9,2.5,5.9,5.7c0,3.3-2.6,5.9-5.9,5.9s-5.9-2.5-5.9-5.9
			C1102.8,419.2,1105.5,416.7,1108.7,416.7z M1108.7,427c2.4,0,4.3-1.9,4.3-4.5c0-2.5-1.9-4.4-4.3-4.4c-2.4,0-4.3,1.9-4.3,4.4
			C1104.4,425,1106.3,427,1108.7,427z"/>
		<path fill="#6D6E70" d="M1122.3,426.7h3.5v-11.4c0-0.4,0-0.9,0-0.9h0c0,0-0.2,0.3-0.8,0.9l-1.7,1.6l-1-1l3.5-3.5h1.4v14.1h3.4v1.4
			h-8.4V426.7z"/>
		<path fill="#6D6E70" d="M1132.6,420.3c0-4.4,1.3-8,5.3-8s5.3,3.5,5.3,8c0,4.5-1.3,8-5.3,8S1132.6,424.8,1132.6,420.3z
			 M1141.7,420.3c0-3.7-0.8-6.6-3.7-6.6c-2.9,0-3.8,2.9-3.8,6.6c0,3.7,0.8,6.6,3.8,6.6C1140.9,426.9,1141.7,424,1141.7,420.3z"/>
		<path fill="#6D6E70" d="M1146.1,420.3c0-4.4,1.3-8,5.3-8c4,0,5.3,3.5,5.3,8c0,4.5-1.3,8-5.3,8
			C1147.5,428.3,1146.1,424.8,1146.1,420.3z M1155.2,420.3c0-3.7-0.8-6.6-3.7-6.6c-2.9,0-3.8,2.9-3.8,6.6c0,3.7,0.8,6.6,3.8,6.6
			C1154.4,426.9,1155.2,424,1155.2,420.3z"/>
		<path fill="#6D6E70" d="M1159.4,415.4c0-1.7,1.4-3.1,3.1-3.1c1.7,0,3.1,1.4,3.1,3.1c0,1.7-1.4,3.1-3.1,3.1
			C1160.7,418.4,1159.4,417.1,1159.4,415.4z M1171.3,412.6h1.6l-11.8,15.5h-1.6L1171.3,412.6z M1164.3,415.4c0-1-0.8-1.8-1.8-1.8
			c-1,0-1.8,0.8-1.8,1.8c0,1,0.8,1.8,1.8,1.8C1163.5,417.2,1164.3,416.4,1164.3,415.4z M1169.9,422.2c1.7,0,3.1,1.4,3.1,3.1
			c0,1.7-1.4,3-3.1,3c-1.7,0-3.1-1.4-3.1-3C1166.8,423.6,1168.2,422.2,1169.9,422.2z M1169.9,427.1c1,0,1.8-0.8,1.8-1.8
			c0-1-0.8-1.8-1.8-1.8c-1,0-1.8,0.8-1.8,1.8C1168.1,426.3,1168.9,427.1,1169.9,427.1z"/>
	</g>
	<rect x="466.2" y="0.7" fill="#F6911E" width="15" height="15"/>
	<g>
		<path fill="#6D6E70" d="M496.8,10.1h-5.7l-1.6,4.5h-1.5l5.2-14.1h1.5l5.2,14.1h-1.5L496.8,10.1z M493.9,2c0,0-0.3,1.2-0.5,1.8
			l-1.9,5.1h4.8l-1.8-5.1C494.3,3.2,494,2,493.9,2L493.9,2z"/>
		<path fill="#6D6E70" d="M501.7,0.5h4.9c2.5,0,4.3,1.6,4.3,4.2c0,2.6-1.8,4.3-4.3,4.3h-3.5v5.5h-1.4V0.5z M506.4,7.8
			c1.9,0,3.1-1.1,3.1-3.1c0-1.9-1.2-3-3.1-3h-3.3v6.1H506.4z"/>
		<path fill="#6D6E70" d="M516.3,1.8h-5.1V0.5h11.5v1.2h-5v12.8h-1.4V1.8z"/>
		<path fill="#6D6E70" d="M524.4,0.5h1.4v14.1h-1.4V0.5z"/>
		<path fill="#6D6E70" d="M535.6,0.3c4,0,7.2,3.1,7.2,7.2c0,4.1-3.2,7.4-7.2,7.4s-7.2-3.2-7.2-7.4C528.4,3.4,531.6,0.3,535.6,0.3z
			 M535.6,13.6c3.2,0,5.7-2.6,5.7-6.1c0-3.4-2.6-5.9-5.7-5.9c-3.2,0-5.7,2.5-5.7,5.9C529.9,10.9,532.4,13.6,535.6,13.6z"/>
		<path fill="#6D6E70" d="M546.1,0.5h1.4l3.7,8.3c0.3,0.7,0.7,1.7,0.7,1.7h0c0,0,0.4-1,0.7-1.7l3.7-8.3h1.4l1.1,14.1h-1.4l-0.8-9.8
			c-0.1-0.8,0-2,0-2h0c0,0-0.4,1.2-0.7,2l-3.3,7.2h-1.3l-3.3-7.2c-0.3-0.7-0.8-2-0.8-2h0c0,0,0,1.2,0,2l-0.8,9.8h-1.4L546.1,0.5z"/>
		<path fill="#6D6E70" d="M566,13.4h3.2V3c0-0.4,0-0.8,0-0.8h0c0,0-0.1,0.3-0.7,0.8l-1.5,1.5L566,3.7l3.2-3.2h1.3v12.8h3.1v1.2H566
			V13.4z"/>
		<path fill="#6D6E70" d="M574.9,13.7c0-4.9,7.2-5.6,7.2-9.4c0-1.5-1.2-2.7-2.9-2.7c-2.1,0-3.1,1.9-3.1,1.9l-1-0.7
			c0,0,1.3-2.5,4.3-2.5c2.7,0,4.3,1.7,4.3,3.9c0,4.7-7.1,5.4-7.1,9.1h7.3v1.2H575C574.9,14.3,574.9,14,574.9,13.7z"/>
		<path fill="#6D6E70" d="M585.9,7.6c0-4,1.2-7.3,4.9-7.3c3.7,0,4.8,3.2,4.8,7.3c0,4.1-1.2,7.3-4.8,7.3
			C587.1,14.8,585.9,11.6,585.9,7.6z M594.2,7.6c0-3.3-0.7-6-3.4-6c-2.7,0-3.4,2.6-3.4,6c0,3.4,0.7,6,3.4,6
			C593.4,13.5,594.2,10.9,594.2,7.6z"/>
		<path fill="#6D6E70" d="M597.9,7.6c0-4,1.2-7.3,4.9-7.3c3.7,0,4.8,3.2,4.8,7.3c0,4.1-1.2,7.3-4.8,7.3
			C599.1,14.8,597.9,11.6,597.9,7.6z M606.2,7.6c0-3.3-0.7-6-3.4-6c-2.7,0-3.4,2.6-3.4,6c0,3.4,0.7,6,3.4,6
			C605.4,13.5,606.2,10.9,606.2,7.6z"/>
		<path fill="#6D6E70" d="M615.1,4.5h1.3V6c0,0.4,0,0.8,0,0.8h0c0.5-1.4,2.1-2.5,3.6-2.5c1.9,0,2.8,0.9,3.1,2.5h0
			c0.5-1.4,2-2.5,3.7-2.5c2.4,0,3.3,1.4,3.3,3.9v6.4h-1.4V8.5c0-1.6-0.3-3-2.2-3c-1.5,0-2.8,1.4-3.2,2.8c-0.1,0.4-0.2,0.9-0.2,1.5
			v4.8H622V8.5c0-1.5-0.2-3-2.1-3c-1.6,0-2.9,1.4-3.3,3c-0.1,0.4-0.1,0.9-0.1,1.3v4.8h-1.4V4.5z"/>
		<path fill="#6D6E70" d="M636.4,17.6c2,0,3.5-0.9,3.5-3.2v-0.9c0-0.4,0-0.7,0-0.7h0c-0.6,1.1-1.6,1.8-3.2,1.8
			c-2.7,0-4.5-2.1-4.5-5.2s1.7-5.1,4.4-5.1c2.7,0,3.3,1.7,3.3,1.7h0c0,0,0-0.1,0-0.3V4.5h1.3v9.8c0,3.2-2.4,4.4-4.8,4.4
			c-1.2,0-2.3-0.3-3.3-0.8l0.5-1.1C633.7,16.9,634.9,17.6,636.4,17.6z M639.9,9.4c0-2.9-1.4-3.8-3.2-3.8c-2,0-3.1,1.4-3.1,3.8
			s1.3,4,3.3,4C638.5,13.3,639.9,12.3,639.9,9.4z"/>
		<path fill="#6D6E70" d="M648.9,7.9c0-2.9,0.8-5.5,2.3-7.9h1.3c-1.4,2.4-2.3,5.1-2.3,7.9c0,3,0.8,5.9,2.3,8.6h-1.3
			C649.8,14.1,648.9,11,648.9,7.9z"/>
		<path fill="#6D6E70" d="M654.3,4.5h1.3V6c0,0.4,0,0.8,0,0.8h0c0.4-0.9,1.6-2.5,4-2.5c2.5,0,3.4,1.4,3.4,3.9v6.4h-1.4v-6
			c0-1.6-0.2-3-2.2-3c-1.7,0-3.2,1.2-3.7,2.8c-0.1,0.4-0.2,0.9-0.2,1.4v4.8h-1.4V4.5z"/>
		<path fill="#6D6E70" d="M666.2,6.6h9.3v1.2h-9.3V6.6z M666.2,10.1h9.3v1.2h-9.3V10.1z"/>
		<path fill="#6D6E70" d="M678.9,11.9c0,0,1.4,1.7,3.6,1.7c1.7,0,3.2-1.2,3.2-3c0-2-1.7-3-3.5-3h-1l-0.3-0.8l3.5-4.1
			c0.4-0.4,0.7-0.8,0.7-0.8v0c0,0-0.4,0.1-1.1,0.1h-5.3V0.5h8.2v0.9l-4.2,4.8c1.8,0.1,4.4,1.1,4.4,4.1c0,2.4-2,4.4-4.6,4.4
			c-2.8,0-4.5-1.9-4.5-1.9L678.9,11.9z"/>
		<path fill="#6D6E70" d="M689.9,11.9c0,0,1,1.6,3.2,1.6c1.9,0,3.5-1.4,3.5-3.3S695,6.9,693,6.9c-1.5,0-2.6,0.8-2.6,0.8l-0.9-0.3
			l0.8-6.8h6.8v1.2h-5.6l-0.4,3.6c-0.1,0.5-0.1,0.8-0.1,0.8h0c0,0,0.9-0.5,2.1-0.5c2.8,0,4.8,2,4.8,4.6c0,2.6-2.1,4.6-4.9,4.6
			c-2.8,0-4.1-2-4.1-2L689.9,11.9z"/>
		<path fill="#6D6E70" d="M699.8,13.7c0-4.9,7.2-5.6,7.2-9.4c0-1.5-1.2-2.7-2.9-2.7c-2.1,0-3.1,1.9-3.1,1.9l-1-0.7
			c0,0,1.3-2.5,4.3-2.5c2.7,0,4.3,1.7,4.3,3.9c0,4.7-7.1,5.4-7.1,9.1h7.3v1.2h-8.8C699.8,14.3,699.8,14,699.8,13.7z"/>
		<path fill="#6D6E70" d="M710.1,16.5c1.5-2.7,2.3-5.6,2.3-8.6c0-2.8-0.8-5.4-2.3-7.9h1.3c1.4,2.3,2.3,5,2.3,7.9
			c0,3.2-0.9,6.2-2.3,8.6H710.1z"/>
	</g>
	<g>
		<path fill="#6D6E70" d="M9.4,298.4c-1.7,0-3.1-1.4-3.1-3.1c0-1.7,1.4-3.1,3.1-3.1c1.7,0,3.1,1.4,3.1,3.1
			C12.5,297,11.1,298.4,9.4,298.4z M6.6,286.5v-1.6l15.5,11.8v1.6L6.6,286.5z M9.4,293.5c-1,0-1.8,0.8-1.8,1.8c0,1,0.8,1.8,1.8,1.8
			c1,0,1.8-0.8,1.8-1.8C11.2,294.3,10.4,293.5,9.4,293.5z M16.2,287.9c0-1.7,1.4-3.1,3.1-3.1c1.7,0,3,1.4,3,3.1c0,1.7-1.4,3.1-3,3.1
			C17.6,291,16.2,289.6,16.2,287.9z M21.1,287.9c0-1-0.8-1.8-1.8-1.8c-1,0-1.8,0.8-1.8,1.8c0,1,0.8,1.8,1.8,1.8
			C20.3,289.6,21.1,288.9,21.1,287.9z"/>
		<path fill="#6D6E70" d="M10.7,271.2c0-3.2,2.5-5.9,5.7-5.9c3.3,0,5.9,2.6,5.9,5.9s-2.5,5.9-5.9,5.9
			C13.2,277.1,10.7,274.5,10.7,271.2z M21,271.2c0-2.4-1.9-4.3-4.5-4.3c-2.5,0-4.4,1.9-4.4,4.3c0,2.4,1.9,4.3,4.4,4.3
			C19.1,275.5,21,273.6,21,271.2z"/>
		<path fill="#6D6E70" d="M12.4,262.3v1.4h-1.3v-1.4h-0.5c-3.7,0-4.1-2.6-4.1-3.8c0-0.4,0-0.7,0-0.7h1.3c0,0,0,0.2,0,0.5
			c0,0.9,0.3,2.5,2.8,2.5h0.5V258h1.3v2.8h9.7v1.5H12.4z"/>
		<path fill="#6D6E70" d="M11,250.3v-1.4h1.1c0.5,0,0.9,0,0.9,0v0c0,0-2.2-0.9-2.2-3.8c0-3,2.4-4.8,5.8-4.8c3.5,0,5.8,2.1,5.8,5
			c0,2.7-2.1,3.6-2.1,3.6v0c0,0,0.4,0,1,0h5.3v1.5H11z M21,245.3c0-2-1.7-3.6-4.5-3.6c-2.7,0-4.4,1.4-4.4,3.5c0,1.8,1.3,3.6,4.5,3.6
			C18.8,248.8,21,247.6,21,245.3z"/>
		<path fill="#6D6E70" d="M15.2,231.6V231h-0.3c-2.1,0-2.9,1.2-2.9,2.8c0,1.8,1.1,3.1,1.1,3.1l-1.1,0.7c0,0-1.3-1.5-1.3-3.9
			c0-2.7,1.5-4.1,4.2-4.1h7.1v1.4h-1.2c-0.6,0-0.9,0-0.9,0v0c0,0,2.4,0.9,2.4,3.7c0,1.8-1.1,3.8-3.3,3.8
			C15.3,238.4,15.2,233.6,15.2,231.6z M21.1,234.4c0-2.1-2.2-3.4-4.1-3.4h-0.5v0.6c0,1.7,0.1,5.2,2.5,5.2
			C20,236.9,21.1,236.1,21.1,234.4z"/>
		<path fill="#6D6E70" d="M12.4,225.9v1.5h-1.3v-1.5H7.9v-1.5h3.2v-2.8h1.3v2.8h5.5c2.6,0,2.9-1.6,2.9-2.5c0-0.3,0-0.5,0-0.5h1.3
			c0,0,0,0.2,0,0.6c0,1.3-0.4,3.9-4.1,3.9H12.4z"/>
		<path fill="#6D6E70" d="M6.6,219.2v-1.6h1.9v1.6H6.6z M11,219.2v-1.5h11.1v1.5H11z"/>
		<path fill="#6D6E70" d="M10.7,209.6c0-3.1,2.4-4.6,5.1-4.6c0.3,0,0.8,0,0.8,0v8.5c2.8-0.1,4.4-2,4.4-4.3c0-2-1.3-3.4-1.3-3.4
			l1.1-0.7c0,0,1.5,1.6,1.5,4.1c0,3.3-2.4,5.8-5.8,5.8C12.9,215.1,10.7,212.6,10.7,209.6z M15.4,206.5c-2.3,0.1-3.4,1.5-3.4,3.1
			c0,1.8,1.2,3.5,3.4,3.8V206.5z"/>
		<path fill="#6D6E70" d="M11,202.3v-1.5h1.6c0.5,0,0.9,0,0.9,0v0c-1-0.4-2.8-1.8-2.8-4.4c0-2.7,1.6-3.7,4.3-3.7h7v1.5h-6.6
			c-1.7,0-3.3,0.3-3.3,2.4c0,1.9,1.3,3.5,3.1,4c0.5,0.1,1,0.2,1.5,0.2h5.3v1.5H11z"/>
		<path fill="#6D6E70" d="M12.4,189.1v1.5h-1.3v-1.5H7.9v-1.5h3.2v-2.8h1.3v2.8h5.5c2.6,0,2.9-1.6,2.9-2.5c0-0.3,0-0.5,0-0.5h1.3
			c0,0,0,0.2,0,0.6c0,1.3-0.4,3.9-4.1,3.9H12.4z"/>
		<path fill="#6D6E70" d="M19.7,182.4c0,0,1.3-1.2,1.3-3.3c0-1.2-0.6-2.2-1.8-2.2c-2.4,0-1.8,6-5.4,6c-2,0-3.1-1.8-3.1-3.8
			c0-2.3,1.2-3.4,1.2-3.4l1.1,0.7c0,0-1,0.9-1,2.8c0,1.1,0.5,2.2,1.7,2.2c2.4,0,1.8-6,5.4-6c1.8,0,3.1,1.6,3.1,3.8
			c0,2.7-1.6,4.1-1.6,4.1L19.7,182.4z"/>
	</g>
	<g>
		<path fill="#6D6E70" d="M384.8,463.6h4.6c1.6,0,2.3,0.2,2.9,0.4c1.5,0.6,2.3,2.1,2.3,4c0,2.1-1.2,3.7-2.9,4.2v0
			c0,0,0.2,0.2,0.4,0.6l3.4,6.2h-1.7l-3.5-6.5h-3.9v6.5h-1.5V463.6z M390,471.2c1.9,0,3.1-1.2,3.1-3.1c0-1.3-0.5-2.2-1.4-2.7
			c-0.5-0.2-1-0.4-2.2-0.4h-3.1v6.2H390z"/>
		<path fill="#6D6E70" d="M402.9,467.8c3.1,0,4.6,2.4,4.6,5.1c0,0.3,0,0.8,0,0.8H399c0.1,2.8,2,4.4,4.3,4.4c2,0,3.4-1.3,3.4-1.3
			l0.7,1.1c0,0-1.6,1.5-4.1,1.5c-3.3,0-5.8-2.4-5.8-5.8C397.4,470,399.9,467.8,402.9,467.8z M406,472.4c-0.1-2.3-1.5-3.4-3.1-3.4
			c-1.8,0-3.5,1.2-3.8,3.4H406z"/>
		<path fill="#6D6E70" d="M414.6,467.8c2.7,0,3.6,2.1,3.6,2.1h0c0,0,0-0.4,0-0.8v-5.4h1.5v15.5h-1.5v-1.2c0-0.5,0-0.8,0-0.8h0
			c0,0-0.9,2.2-3.8,2.2c-3,0-4.8-2.4-4.8-5.8C409.6,470.1,411.7,467.8,414.6,467.8z M414.7,478c1.8,0,3.6-1.3,3.6-4.5
			c0-2.2-1.1-4.4-3.5-4.4c-2,0-3.6,1.7-3.6,4.4C411.2,476.3,412.6,478,414.7,478z"/>
		<path fill="#6D6E70" d="M423.2,468h1.5v6.6c0,1.7,0.3,3.3,2.4,3.3c2.5,0,4.1-2.2,4.1-4.6V468h1.5v11.1h-1.5v-1.7
			c0-0.5,0-0.9,0-0.9h0c-0.4,1.1-1.9,2.8-4.3,2.8c-2.6,0-3.7-1.4-3.7-4.3V468z"/>
		<path fill="#6D6E70" d="M441.3,467.8c2.7,0,4,1.6,4,1.6l-0.8,1.1c0,0-1.2-1.3-3.2-1.3c-2.4,0-4.3,1.8-4.3,4.4
			c0,2.6,1.9,4.4,4.4,4.4c2.2,0,3.5-1.6,3.5-1.6l0.7,1.2c0,0-1.5,1.7-4.3,1.7c-3.3,0-5.8-2.4-5.8-5.8
			C435.5,470.2,438,467.8,441.3,467.8z"/>
		<path fill="#6D6E70" d="M448.7,469.4h-1.5v-1.3h1.5V465h1.5v3.2h2.8v1.3h-2.8v5.5c0,2.6,1.6,2.9,2.5,2.9c0.3,0,0.5,0,0.5,0v1.3
			c0,0-0.2,0-0.6,0c-1.3,0-3.9-0.4-3.9-4.1V469.4z"/>
		<path fill="#6D6E70" d="M455.6,463.6h1.6v1.9h-1.6V463.6z M455.7,468h1.5v11.1h-1.5V468z"/>
		<path fill="#6D6E70" d="M465.8,467.8c3.2,0,5.9,2.5,5.9,5.7c0,3.3-2.6,5.9-5.9,5.9c-3.2,0-5.9-2.5-5.9-5.9
			C460,470.2,462.6,467.8,465.8,467.8z M465.8,478c2.4,0,4.3-1.9,4.3-4.5c0-2.5-1.9-4.4-4.3-4.4c-2.4,0-4.3,1.9-4.3,4.4
			C461.5,476.1,463.5,478,465.8,478z"/>
		<path fill="#6D6E70" d="M474.5,468h1.5v1.7c0,0.5,0,0.9,0,0.9h0c0.4-1,1.8-2.8,4.4-2.8c2.7,0,3.7,1.6,3.7,4.3v7h-1.5v-6.6
			c0-1.7-0.3-3.3-2.4-3.3c-1.9,0-3.5,1.3-4,3.1c-0.1,0.5-0.2,1-0.2,1.5v5.3h-1.5V468z"/>
		<path fill="#6D6E70" d="M493.4,463.6h1.6v1.9h-1.6V463.6z M493.4,468h1.5v11.1h-1.5V468z"/>
		<path fill="#6D6E70" d="M498.5,468h1.5v1.7c0,0.5,0,0.9,0,0.9h0c0.4-1,1.8-2.8,4.4-2.8c2.7,0,3.7,1.6,3.7,4.3v7h-1.5v-6.6
			c0-1.7-0.3-3.3-2.4-3.3c-1.9,0-3.5,1.3-4,3.1c-0.1,0.5-0.2,1-0.2,1.5v5.3h-1.5V468z"/>
		<path fill="#6D6E70" d="M517.4,476.7c0,0,1.2,1.3,3.3,1.3c1.2,0,2.2-0.6,2.2-1.8c0-2.4-6-1.8-6-5.4c0-2,1.8-3.1,3.8-3.1
			c2.3,0,3.4,1.2,3.4,1.2l-0.7,1.1c0,0-0.9-1-2.8-1c-1.1,0-2.2,0.5-2.2,1.7c0,2.4,6,1.8,6,5.4c0,1.8-1.6,3.1-3.8,3.1
			c-2.7,0-4.1-1.6-4.1-1.6L517.4,476.7z"/>
		<path fill="#6D6E70" d="M531.9,467.8c3.1,0,4.6,2.4,4.6,5.1c0,0.3,0,0.8,0,0.8H528c0.1,2.8,2,4.4,4.3,4.4c2,0,3.4-1.3,3.4-1.3
			l0.7,1.1c0,0-1.6,1.5-4.1,1.5c-3.3,0-5.8-2.4-5.8-5.8C526.5,470,529,467.8,531.9,467.8z M535,472.4c-0.1-2.3-1.5-3.4-3.1-3.4
			c-1.8,0-3.5,1.2-3.8,3.4H535z"/>
		<path fill="#6D6E70" d="M539.4,463.6h1.6v1.9h-1.6V463.6z M539.4,468h1.5v11.1h-1.5V468z"/>
		<path fill="#6D6E70" d="M543.6,478.1l6.2-7.8c0.4-0.5,0.9-1,0.9-1v0c0,0-0.4,0-1.1,0h-5.7V468h8.8v1l-6.2,7.7
			c-0.4,0.5-0.9,1-0.9,1v0c0,0,0.4,0,1.1,0h6.2v1.3h-9.3V478.1z"/>
		<path fill="#6D6E70" d="M555.6,468h1.5v6.6c0,1.7,0.3,3.3,2.4,3.3c2.5,0,4.1-2.2,4.1-4.6V468h1.5v11.1h-1.5v-1.7
			c0-0.5,0-0.9,0-0.9h0c-0.4,1.1-1.9,2.8-4.3,2.8c-2.6,0-3.7-1.4-3.7-4.3V468z"/>
		<path fill="#6D6E70" d="M568.7,468h1.5v2c0,0.5,0,0.9,0,0.9h0c0.5-1.7,1.8-2.9,3.5-2.9c0.3,0,0.6,0.1,0.6,0.1v1.5c0,0-0.3,0-0.6,0
			c-1.6,0-2.7,1.2-3.2,2.9c-0.2,0.7-0.3,1.5-0.3,2.2v4.7h-1.5V468z"/>
		<path fill="#6D6E70" d="M581.1,467.8c3.1,0,4.6,2.4,4.6,5.1c0,0.3,0,0.8,0,0.8h-8.5c0.1,2.8,2,4.4,4.3,4.4c2,0,3.4-1.3,3.4-1.3
			l0.7,1.1c0,0-1.6,1.5-4.1,1.5c-3.3,0-5.8-2.4-5.8-5.8C575.6,470,578.1,467.8,581.1,467.8z M584.2,472.4c-0.1-2.3-1.5-3.4-3.1-3.4
			c-1.8,0-3.5,1.2-3.8,3.4H584.2z"/>
		<path fill="#6D6E70" d="M595,469.4h-1.4v-1.3h1.4v-0.5c0-3.7,2.6-4.1,3.8-4.1c0.4,0,0.7,0,0.7,0v1.3c0,0-0.2,0-0.5,0
			c-0.9,0-2.5,0.3-2.5,2.8v0.5h2.8v1.3h-2.8v9.7H595V469.4z"/>
		<path fill="#6D6E70" d="M601.5,468h1.5v2c0,0.5,0,0.9,0,0.9h0c0.5-1.7,1.8-2.9,3.5-2.9c0.3,0,0.6,0.1,0.6,0.1v1.5c0,0-0.3,0-0.6,0
			c-1.6,0-2.7,1.2-3.2,2.9c-0.2,0.7-0.3,1.5-0.3,2.2v4.7h-1.5V468z"/>
		<path fill="#6D6E70" d="M613.9,467.8c3.1,0,4.6,2.4,4.6,5.1c0,0.3,0,0.8,0,0.8H610c0.1,2.8,2,4.4,4.3,4.4c2,0,3.4-1.3,3.4-1.3
			l0.7,1.1c0,0-1.6,1.5-4.1,1.5c-3.3,0-5.8-2.4-5.8-5.8C608.5,470,610.9,467.8,613.9,467.8z M617,472.4c-0.1-2.3-1.5-3.4-3.1-3.4
			c-1.8,0-3.5,1.2-3.8,3.4H617z"/>
		<path fill="#6D6E70" d="M625.6,467.8c2.7,0,3.6,2.1,3.6,2.1h0c0,0,0-0.4,0-0.8v-1h1.5v15.5h-1.5v-5.3c0-0.6,0-1,0-1h0
			c0,0-0.9,2.2-3.8,2.2c-3,0-4.8-2.4-4.8-5.8C620.7,470.1,622.7,467.8,625.6,467.8z M625.7,478c1.8,0,3.6-1.3,3.6-4.5
			c0-2.2-1.1-4.4-3.5-4.4c-2,0-3.6,1.7-3.6,4.4C622.2,476.3,623.6,478,625.7,478z"/>
		<path fill="#6D6E70" d="M634.2,468h1.5v6.6c0,1.7,0.3,3.3,2.4,3.3c2.5,0,4.1-2.2,4.1-4.6V468h1.5v11.1h-1.5v-1.7
			c0-0.5,0-0.9,0-0.9h0c-0.4,1.1-1.9,2.8-4.3,2.8c-2.6,0-3.7-1.4-3.7-4.3V468z"/>
		<path fill="#6D6E70" d="M652,467.8c3.1,0,4.6,2.4,4.6,5.1c0,0.3,0,0.8,0,0.8h-8.5c0.1,2.8,2,4.4,4.3,4.4c2,0,3.4-1.3,3.4-1.3
			l0.7,1.1c0,0-1.6,1.5-4.1,1.5c-3.3,0-5.8-2.4-5.8-5.8C646.5,470,649,467.8,652,467.8z M655.1,472.4c-0.1-2.3-1.5-3.4-3.1-3.4
			c-1.8,0-3.5,1.2-3.8,3.4H655.1z"/>
		<path fill="#6D6E70" d="M659.5,468h1.5v1.7c0,0.5,0,0.9,0,0.9h0c0.4-1,1.8-2.8,4.4-2.8c2.7,0,3.7,1.6,3.7,4.3v7h-1.5v-6.6
			c0-1.7-0.3-3.3-2.4-3.3c-1.9,0-3.5,1.3-4,3.1c-0.1,0.5-0.2,1-0.2,1.5v5.3h-1.5V468z"/>
		<path fill="#6D6E70" d="M677.5,467.8c2.7,0,4,1.6,4,1.6l-0.8,1.1c0,0-1.2-1.3-3.2-1.3c-2.4,0-4.3,1.8-4.3,4.4
			c0,2.6,1.9,4.4,4.4,4.4c2.2,0,3.5-1.6,3.5-1.6l0.7,1.2c0,0-1.5,1.7-4.3,1.7c-3.3,0-5.8-2.4-5.8-5.8
			C671.7,470.2,674.3,467.8,677.5,467.8z"/>
		<path fill="#6D6E70" d="M683.5,481.9c0,0,0.6,0.5,1.3,0.5c1,0,1.7-0.8,2.1-1.8l0.7-1.6l-4.6-11h1.7l3.3,8.1
			c0.2,0.5,0.4,1.2,0.4,1.2h0c0,0,0.2-0.6,0.4-1.2l3.2-8.1h1.6l-5.5,13.4c-0.6,1.4-1.7,2.3-3.2,2.3c-1.1,0-1.9-0.7-1.9-0.7
			L683.5,481.9z"/>
		<path fill="#6D6E70" d="M702,469.4h-1.4v-1.3h1.4v-0.5c0-3.7,2.6-4.1,3.8-4.1c0.4,0,0.7,0,0.7,0v1.3c0,0-0.2,0-0.5,0
			c-0.9,0-2.5,0.3-2.5,2.8v0.5h2.8v1.3h-2.8v9.7H702V469.4z"/>
		<path fill="#6D6E70" d="M708.5,468h1.5v2c0,0.5,0,0.9,0,0.9h0c0.5-1.7,1.8-2.9,3.5-2.9c0.3,0,0.6,0.1,0.6,0.1v1.5c0,0-0.3,0-0.5,0
			c-1.6,0-2.7,1.2-3.2,2.9c-0.2,0.7-0.3,1.5-0.3,2.2v4.7h-1.5V468z"/>
		<path fill="#6D6E70" d="M721.3,467.8c3.2,0,5.9,2.5,5.9,5.7c0,3.3-2.6,5.9-5.9,5.9s-5.9-2.5-5.9-5.9
			C715.4,470.2,718,467.8,721.3,467.8z M721.3,478c2.4,0,4.3-1.9,4.3-4.5c0-2.5-1.9-4.4-4.3-4.4c-2.4,0-4.3,1.9-4.3,4.4
			C717,476.1,718.9,478,721.3,478z"/>
		<path fill="#6D6E70" d="M729.9,468h1.5v1.7c0,0.5,0,0.9,0,0.9h0c0.5-1.5,2.3-2.8,4-2.8c2,0,3.1,0.9,3.4,2.8h0
			c0.6-1.5,2.2-2.8,4.1-2.8c2.7,0,3.7,1.6,3.7,4.3v7h-1.5v-6.7c0-1.8-0.4-3.3-2.4-3.3c-1.7,0-3.1,1.5-3.5,3.1
			c-0.2,0.5-0.2,1-0.2,1.6v5.2h-1.5v-6.7c0-1.7-0.2-3.3-2.3-3.3c-1.8,0-3.2,1.6-3.6,3.3c-0.1,0.5-0.2,1-0.2,1.5v5.2h-1.5V468z"/>
		<path fill="#6D6E70" d="M756,463.6h1.5v5.4c0,0.5,0,0.9,0,0.9h0c0,0,0.9-2.1,3.8-2.1c3,0,4.8,2.4,4.8,5.8c0,3.5-2.1,5.8-5,5.8
			c-2.6,0-3.6-2.2-3.6-2.2h0c0,0,0,0.4,0,0.9v1H756V463.6z M761,478.1c2,0,3.6-1.6,3.6-4.5c0-2.7-1.4-4.4-3.5-4.4
			c-1.8,0-3.6,1.3-3.6,4.5C757.4,475.8,758.6,478.1,761,478.1z"/>
		<path fill="#6D6E70" d="M774.8,472.3h0.6V472c0-2.1-1.2-2.9-2.8-2.9c-1.8,0-3.1,1.1-3.1,1.1l-0.7-1.1c0,0,1.5-1.3,3.9-1.3
			c2.7,0,4.1,1.5,4.1,4.2v7.1h-1.4v-1.2c0-0.5,0-0.9,0-0.9h0c0,0-0.9,2.4-3.7,2.4c-1.8,0-3.8-1.1-3.8-3.3
			C768,472.4,772.9,472.3,774.8,472.3z M772,478.1c2.1,0,3.4-2.2,3.4-4.1v-0.5h-0.6c-1.7,0-5.2,0.1-5.2,2.5
			C769.6,477,770.4,478.1,772,478.1z"/>
		<path fill="#6D6E70" d="M780.3,476.7c0,0,1.2,1.3,3.3,1.3c1.2,0,2.2-0.6,2.2-1.8c0-2.4-6-1.8-6-5.4c0-2,1.8-3.1,3.8-3.1
			c2.3,0,3.4,1.2,3.4,1.2l-0.7,1.1c0,0-0.9-1-2.8-1c-1.1,0-2.2,0.5-2.2,1.7c0,2.4,6,1.8,6,5.4c0,1.8-1.6,3.1-3.8,3.1
			c-2.7,0-4.1-1.6-4.1-1.6L780.3,476.7z"/>
		<path fill="#6D6E70" d="M794.8,467.8c3.1,0,4.6,2.4,4.6,5.1c0,0.3,0,0.8,0,0.8h-8.5c0.1,2.8,2,4.4,4.3,4.4c2,0,3.4-1.3,3.4-1.3
			l0.7,1.1c0,0-1.6,1.5-4.1,1.5c-3.3,0-5.8-2.4-5.8-5.8C789.4,470,791.8,467.8,794.8,467.8z M797.9,472.4c-0.1-2.3-1.5-3.4-3.1-3.4
			c-1.8,0-3.5,1.2-3.8,3.4H797.9z"/>
		<path fill="#6D6E70" d="M802.2,463.6h1.5v12.5c0,1.5,0.7,1.7,1.2,1.7c0.2,0,0.4,0,0.4,0v1.3c0,0-0.3,0-0.5,0
			c-0.9,0-2.6-0.3-2.6-2.7V463.6z"/>
		<path fill="#6D6E70" d="M807.7,463.6h1.6v1.9h-1.6V463.6z M807.7,468h1.5v11.1h-1.5V468z"/>
		<path fill="#6D6E70" d="M812.8,468h1.5v1.7c0,0.5,0,0.9,0,0.9h0c0.4-1,1.8-2.8,4.4-2.8c2.7,0,3.7,1.6,3.7,4.3v7h-1.5v-6.6
			c0-1.7-0.3-3.3-2.4-3.3c-1.9,0-3.5,1.3-4,3.1c-0.1,0.5-0.2,1-0.2,1.5v5.3h-1.5V468z"/>
		<path fill="#6D6E70" d="M830.6,467.8c3.1,0,4.6,2.4,4.6,5.1c0,0.3,0,0.8,0,0.8h-8.5c0.1,2.8,2,4.4,4.3,4.4c2,0,3.4-1.3,3.4-1.3
			l0.7,1.1c0,0-1.6,1.5-4.1,1.5c-3.3,0-5.8-2.4-5.8-5.8C825.1,470,827.6,467.8,830.6,467.8z M833.7,472.4c-0.1-2.3-1.5-3.4-3.1-3.4
			c-1.8,0-3.5,1.2-3.8,3.4H833.7z"/>
		<path fill="#6D6E70" d="M843.9,471.7c0-3.2,0.9-6.1,2.5-8.6h1.4c-1.6,2.7-2.5,5.6-2.5,8.6c0,3.3,0.8,6.5,2.5,9.5h-1.4
			C844.9,478.6,843.9,475.2,843.9,471.7z"/>
		<path fill="#6D6E70" d="M849.8,466.4c0-1.7,1.4-3.1,3.1-3.1c1.7,0,3.1,1.4,3.1,3.1c0,1.7-1.4,3.1-3.1,3.1
			C851.1,469.5,849.8,468.1,849.8,466.4z M861.7,463.6h1.6l-11.8,15.5h-1.6L861.7,463.6z M854.7,466.4c0-1-0.8-1.8-1.8-1.8
			c-1,0-1.8,0.8-1.8,1.8c0,1,0.8,1.8,1.8,1.8C853.9,468.3,854.7,467.5,854.7,466.4z M860.3,473.3c1.7,0,3.1,1.4,3.1,3.1
			c0,1.7-1.4,3-3.1,3c-1.7,0-3.1-1.4-3.1-3C857.2,474.6,858.6,473.3,860.3,473.3z M860.3,478.1c1,0,1.8-0.8,1.8-1.8
			c0-1-0.8-1.8-1.8-1.8c-1,0-1.8,0.8-1.8,1.8C858.5,477.3,859.3,478.1,860.3,478.1z"/>
		<path fill="#6D6E70" d="M865.3,481.2c1.7-3,2.5-6.2,2.5-9.5c0-3.1-0.9-6-2.5-8.6h1.4c1.6,2.6,2.5,5.5,2.5,8.6
			c0,3.5-0.9,6.9-2.5,9.5H865.3z"/>
	</g>
	<rect x="0" y="0.7" fill="#A6A8AB" width="15" height="15"/>
	<g>
		<path fill="#6D6E70" d="M23.3,0.5h4.9c2.5,0,4.3,1.6,4.3,4.2c0,2.6-1.8,4.3-4.3,4.3h-3.5v5.5h-1.4V0.5z M28,7.8
			c1.9,0,3.1-1.1,3.1-3.1c0-1.9-1.2-3-3.1-3h-3.3v6.1H28z"/>
		<path fill="#6D6E70" d="M34.3,0.5h1.4v11.4c0,1.3,0.6,1.5,1.1,1.5c0.2,0,0.3,0,0.3,0v1.2c0,0-0.2,0-0.5,0c-0.8,0-2.3-0.3-2.3-2.5
			V0.5z"/>
		<path fill="#6D6E70" d="M44.2,8.4h0.6V8.1c0-1.9-1.1-2.6-2.5-2.6c-1.7,0-2.8,1-2.8,1l-0.6-1c0,0,1.3-1.1,3.6-1.1
			c2.4,0,3.8,1.3,3.8,3.9v6.4h-1.3v-1.1c0-0.5,0-0.8,0-0.8h0c0,0-0.8,2.2-3.4,2.2c-1.7,0-3.4-1-3.4-3C38,8.5,42.4,8.4,44.2,8.4z
			 M41.7,13.7c1.9,0,3.1-2,3.1-3.7V9.5h-0.6c-1.6,0-4.7,0.1-4.7,2.3C39.4,12.7,40.2,13.7,41.7,13.7z"/>
		<path fill="#6D6E70" d="M53.3,4.3c2.5,0,3.7,1.4,3.7,1.4l-0.7,1c0,0-1.1-1.2-2.9-1.2c-2.2,0-3.9,1.6-3.9,4c0,2.4,1.7,4,4,4
			c2,0,3.2-1.4,3.2-1.4l0.6,1.1c0,0-1.4,1.6-3.9,1.6c-3,0-5.3-2.1-5.3-5.3C48.1,6.5,50.4,4.3,53.3,4.3z"/>
		<path fill="#6D6E70" d="M63.5,4.3c2.8,0,4.2,2.1,4.2,4.6c0,0.2,0,0.7,0,0.7H60c0.1,2.6,1.8,4,3.9,4c1.8,0,3.1-1.2,3.1-1.2l0.6,1
			c0,0-1.5,1.4-3.7,1.4c-3,0-5.3-2.2-5.3-5.3C58.6,6.3,60.8,4.3,63.5,4.3z M66.3,8.5c-0.1-2.1-1.4-3.1-2.9-3.1
			c-1.7,0-3.1,1.1-3.5,3.1H66.3z"/>
		<path fill="#6D6E70" d="M69.8,0.5h1.4v4.9c0,0.5,0,0.8,0,0.8h0c0,0,0.8-1.9,3.4-1.9c2.7,0,4.4,2.2,4.4,5.3c0,3.2-1.9,5.3-4.5,5.3
			c-2.4,0-3.3-2-3.3-2h0c0,0,0,0.3,0,0.8v0.9h-1.3V0.5z M74.3,13.6c1.8,0,3.2-1.5,3.2-4.1c0-2.5-1.3-4-3.2-4c-1.7,0-3.3,1.2-3.3,4.1
			C71.1,11.6,72.2,13.6,74.3,13.6z"/>
		<path fill="#6D6E70" d="M85.7,4.3c2.9,0,5.3,2.2,5.3,5.2c0,3-2.4,5.3-5.3,5.3c-2.9,0-5.3-2.3-5.3-5.3C80.4,6.5,82.8,4.3,85.7,4.3z
			 M85.7,13.6c2.2,0,3.9-1.8,3.9-4.1c0-2.3-1.8-4-3.9-4c-2.2,0-3.9,1.7-3.9,4C81.8,11.9,83.5,13.6,85.7,13.6z"/>
		<path fill="#6D6E70" d="M97.9,7.9c0-2.9,0.8-5.5,2.3-7.9h1.3c-1.4,2.4-2.3,5.1-2.3,7.9c0,3,0.8,5.9,2.3,8.6h-1.3
			C98.8,14.1,97.9,11,97.9,7.9z"/>
		<path fill="#6D6E70" d="M103.3,4.5h1.3V6c0,0.4,0,0.8,0,0.8h0c0.4-0.9,1.6-2.5,4-2.5c2.5,0,3.4,1.4,3.4,3.9v6.4h-1.4v-6
			c0-1.6-0.2-3-2.2-3c-1.7,0-3.2,1.2-3.7,2.8c-0.1,0.4-0.2,0.9-0.2,1.4v4.8h-1.4V4.5z"/>
		<path fill="#6D6E70" d="M115.2,6.6h9.3v1.2h-9.3V6.6z M115.2,10.1h9.3v1.2h-9.3V10.1z"/>
		<path fill="#6D6E70" d="M126.9,9.8l6.9-9.3h1.5v8.9h2v1.2h-2v3.9h-1.4v-3.9h-7V9.8z M133.9,9.5V3.6c0-0.6,0.1-1.3,0.1-1.3h0
			c0,0-0.3,0.6-0.7,1.1l-4.7,6.1v0H133.9z"/>
		<path fill="#6D6E70" d="M139.1,7.6c0-4,1.2-7.3,4.9-7.3c3.7,0,4.8,3.2,4.8,7.3c0,4.1-1.2,7.3-4.8,7.3
			C140.3,14.8,139.1,11.6,139.1,7.6z M147.3,7.6c0-3.3-0.7-6-3.4-6c-2.7,0-3.4,2.6-3.4,6c0,3.4,0.7,6,3.4,6
			C146.6,13.5,147.3,10.9,147.3,7.6z"/>
		<path fill="#6D6E70" d="M151,8.2c0-3.5,1.8-7.9,6.2-7.9c1.6,0,2.6,0.6,2.6,0.6l-0.5,1.2c0,0-0.9-0.5-2-0.5c-2.9,0-4.4,2.9-4.7,5.6
			h0c0.7-1,2.1-1.6,3.6-1.6c2.6,0,4.4,1.9,4.4,4.5c0,2.9-2,4.7-4.4,4.7C153,14.8,151,12,151,8.2z M159,10.2c0-2-1.3-3.3-3.2-3.3
			c-1.9,0-3.4,1.3-3.4,2.4c0,1.9,1.5,4.3,3.6,4.3C157.9,13.5,159,12.1,159,10.2z"/>
		<path fill="#6D6E70" d="M161.8,16.5c1.5-2.7,2.3-5.6,2.3-8.6c0-2.8-0.8-5.4-2.3-7.9h1.3c1.4,2.3,2.3,5,2.3,7.9
			c0,3.2-0.9,6.2-2.3,8.6H161.8z"/>
	</g>
	<rect x="195.3" y="0.7" fill="#007DB3" width="15" height="15"/>
	<g>
		<path fill="#6D6E70" d="M225.8,10.1h-5.7l-1.6,4.5h-1.5l5.2-14.1h1.5l5.2,14.1h-1.5L225.8,10.1z M223,2c0,0-0.3,1.2-0.5,1.8
			l-1.9,5.1h4.8l-1.8-5.1C223.3,3.2,223,2,223,2L223,2z"/>
		<path fill="#6D6E70" d="M230.7,0.5h4.9c2.5,0,4.3,1.6,4.3,4.2c0,2.6-1.8,4.3-4.3,4.3h-3.5v5.5h-1.4V0.5z M235.4,7.8
			c1.9,0,3.1-1.1,3.1-3.1c0-1.9-1.2-3-3.1-3h-3.3v6.1H235.4z"/>
		<path fill="#6D6E70" d="M245.4,1.8h-5.1V0.5h11.5v1.2h-5v12.8h-1.4V1.8z"/>
		<path fill="#6D6E70" d="M253.5,0.5h1.4v14.1h-1.4V0.5z"/>
		<path fill="#6D6E70" d="M264.6,0.3c4,0,7.2,3.1,7.2,7.2c0,4.1-3.2,7.4-7.2,7.4s-7.2-3.2-7.2-7.4C257.5,3.4,260.7,0.3,264.6,0.3z
			 M264.6,13.6c3.2,0,5.7-2.6,5.7-6.1c0-3.4-2.6-5.9-5.7-5.9c-3.2,0-5.7,2.5-5.7,5.9C258.9,10.9,261.5,13.6,264.6,13.6z"/>
		<path fill="#6D6E70" d="M275.1,0.5h1.4l3.7,8.3c0.3,0.7,0.7,1.7,0.7,1.7h0c0,0,0.4-1,0.7-1.7l3.7-8.3h1.4l1.1,14.1h-1.4l-0.8-9.8
			c-0.1-0.8,0-2,0-2h0c0,0-0.4,1.2-0.7,2l-3.3,7.2h-1.3L277,4.8c-0.3-0.7-0.8-2-0.8-2h0c0,0,0,1.2,0,2l-0.8,9.8H274L275.1,0.5z"/>
		<path fill="#6D6E70" d="M297.5,6.7c-1-0.7-1.7-1.5-1.7-2.9c0-1.8,1.4-3.6,4.2-3.6c2.6,0,4.3,1.5,4.3,3.7c0,2-1.6,3.6-1.7,3.8
			c1.2,0.7,2,1.6,2,3c0,2.2-1.9,4.1-4.7,4.1c-2.5,0-4.8-1.6-4.8-4.3C295.2,8.3,297.2,6.9,297.5,6.7z M298.6,7.3
			c-0.4,0.3-2,1.4-2,3.2c0,1.9,1.6,3.1,3.3,3.1c1.7,0,3.2-1.1,3.2-2.8C303.2,8.9,300.7,8.3,298.6,7.3z M301.4,7.2
			c0.3-0.2,1.5-1.5,1.5-3.2c0-1.5-1.2-2.4-2.9-2.4c-1.8,0-2.8,1-2.8,2.3C297.1,5.7,299.4,6.3,301.4,7.2z"/>
		<path fill="#6D6E70" d="M306.9,7.6c0-4,1.2-7.3,4.9-7.3c3.7,0,4.8,3.2,4.8,7.3c0,4.1-1.2,7.3-4.8,7.3
			C308.1,14.8,306.9,11.6,306.9,7.6z M315.1,7.6c0-3.3-0.7-6-3.4-6c-2.7,0-3.4,2.6-3.4,6c0,3.4,0.7,6,3.4,6
			C314.4,13.5,315.1,10.9,315.1,7.6z"/>
		<path fill="#6D6E70" d="M318.9,7.6c0-4,1.2-7.3,4.9-7.3s4.8,3.2,4.8,7.3c0,4.1-1.2,7.3-4.8,7.3S318.9,11.6,318.9,7.6z M327.1,7.6
			c0-3.3-0.7-6-3.4-6c-2.7,0-3.4,2.6-3.4,6c0,3.4,0.7,6,3.4,6C326.4,13.5,327.1,10.9,327.1,7.6z"/>
		<path fill="#6D6E70" d="M336,4.5h1.3V6c0,0.4,0,0.8,0,0.8h0c0.5-1.4,2.1-2.5,3.6-2.5c1.9,0,2.8,0.9,3.1,2.5h0
			c0.5-1.4,2-2.5,3.7-2.5c2.4,0,3.3,1.4,3.3,3.9v6.4h-1.4V8.5c0-1.6-0.3-3-2.2-3c-1.5,0-2.8,1.4-3.2,2.8c-0.1,0.4-0.2,0.9-0.2,1.5
			v4.8h-1.4V8.5c0-1.5-0.2-3-2.1-3c-1.6,0-2.9,1.4-3.3,3c-0.1,0.4-0.1,0.9-0.1,1.3v4.8H336V4.5z"/>
		<path fill="#6D6E70" d="M357.3,17.6c2,0,3.5-0.9,3.5-3.2v-0.9c0-0.4,0-0.7,0-0.7h0c-0.6,1.1-1.6,1.8-3.2,1.8
			c-2.7,0-4.5-2.1-4.5-5.2s1.7-5.1,4.4-5.1c2.7,0,3.3,1.7,3.3,1.7h0c0,0,0-0.1,0-0.3V4.5h1.3v9.8c0,3.2-2.4,4.4-4.8,4.4
			c-1.2,0-2.3-0.3-3.3-0.8l0.5-1.1C354.6,16.9,355.9,17.6,357.3,17.6z M360.9,9.4c0-2.9-1.4-3.8-3.2-3.8c-2,0-3.1,1.4-3.1,3.8
			s1.3,4,3.3,4C359.5,13.3,360.9,12.3,360.9,9.4z"/>
		<path fill="#6D6E70" d="M369.9,7.9c0-2.9,0.8-5.5,2.3-7.9h1.3c-1.4,2.4-2.3,5.1-2.3,7.9c0,3,0.8,5.9,2.3,8.6h-1.3
			C370.7,14.1,369.9,11,369.9,7.9z"/>
		<path fill="#6D6E70" d="M375.2,4.5h1.3V6c0,0.4,0,0.8,0,0.8h0c0.4-0.9,1.6-2.5,4-2.5c2.5,0,3.4,1.4,3.4,3.9v6.4h-1.4v-6
			c0-1.6-0.2-3-2.2-3c-1.7,0-3.2,1.2-3.7,2.8c-0.1,0.4-0.2,0.9-0.2,1.4v4.8h-1.4V4.5z"/>
		<path fill="#6D6E70" d="M387.1,6.6h9.3v1.2h-9.3V6.6z M387.1,10.1h9.3v1.2h-9.3V10.1z"/>
		<path fill="#6D6E70" d="M399.9,11.9c0,0,1.4,1.7,3.6,1.7c1.7,0,3.2-1.2,3.2-3c0-2-1.7-3-3.5-3h-1l-0.3-0.8l3.5-4.1
			c0.4-0.4,0.7-0.8,0.7-0.8v0c0,0-0.4,0.1-1.1,0.1h-5.3V0.5h8.2v0.9l-4.2,4.8c1.8,0.1,4.4,1.1,4.4,4.1c0,2.4-2,4.4-4.6,4.4
			c-2.8,0-4.5-1.9-4.5-1.9L399.9,11.9z"/>
		<path fill="#6D6E70" d="M416.5,3.1c0.4-0.8,0.8-1.3,0.8-1.3v0c0,0-0.4,0-1.1,0h-6.6V0.5h9.1v1l-6.5,13.1h-1.4L416.5,3.1z"/>
		<path fill="#6D6E70" d="M420.8,11.9c0,0,1,1.6,3.2,1.6c1.9,0,3.5-1.4,3.5-3.3s-1.6-3.3-3.6-3.3c-1.5,0-2.6,0.8-2.6,0.8l-0.9-0.3
			l0.8-6.8h6.8v1.2h-5.6L422,5.4c-0.1,0.5-0.1,0.8-0.1,0.8h0c0,0,0.9-0.5,2.1-0.5c2.8,0,4.8,2,4.8,4.6c0,2.6-2.1,4.6-4.9,4.6
			c-2.8,0-4.1-2-4.1-2L420.8,11.9z"/>
		<path fill="#6D6E70" d="M430.2,16.5c1.5-2.7,2.3-5.6,2.3-8.6c0-2.8-0.8-5.4-2.3-7.9h1.3c1.4,2.3,2.3,5,2.3,7.9
			c0,3.2-0.9,6.2-2.3,8.6H430.2z"/>
	</g>
	<g>
		<path fill="#6D6E70" d="M118.7,62.8l0.5-0.7c0.4-0.6,0.8-0.6,1.4-0.2c0.6,0.4,1.7,1.1,3.1,1.1c1.8,0,3.1-1.1,3.1-2.5
			c0-1.8-1.7-2.6-3.6-2.6h-0.4c-0.6,0-0.9-0.2-1.1-0.7l-0.1-0.2c-0.2-0.4-0.1-0.9,0.2-1.3l2.6-3.1c0.6-0.8,1.2-1.3,1.2-1.3v0
			c0,0-0.5,0.1-1.5,0.1h-4.1c-0.6,0-1-0.3-1-1v-0.7c0-0.6,0.3-1,1-1h8.4c0.7,0,1,0.3,1,1v0.3c0,0.5-0.1,0.9-0.5,1.2l-3.7,4.3
			c2.4,0.3,4.7,2,4.7,5c0,2.9-2.2,5.6-6,5.6c-2.4,0-4.1-1-4.9-1.7C118.3,63.8,118.3,63.3,118.7,62.8z"/>
		<path fill="#6D6E70" d="M131.4,64c0-6.1,8-7.1,8-10.5c0-1.5-1.2-2.4-2.6-2.4c-1.2,0-2.1,0.7-2.5,1.3c-0.5,0.5-0.9,0.6-1.4,0.2
			l-0.6-0.5c-0.5-0.4-0.6-0.8-0.3-1.3c0.7-1,2.3-2.6,5.1-2.6c3,0,5.5,1.8,5.5,5c0,5.5-7.6,6.4-7.8,9.6h7c0.7,0,1,0.3,1,1v0.7
			c0,0.7-0.3,1-1,1h-9.4c-0.6,0-1.1-0.3-1.1-1V64z"/>
		<path fill="#6D6E70" d="M144.8,63.4c0-0.6,0.3-1,1-1h1.1c0.6,0,1,0.3,1,1v1.1c0,0.7-0.4,1-1,1h-1.1c-0.7,0-1-0.3-1-1V63.4z"/>
		<path fill="#6D6E70" d="M152.4,56.2c-1.2-0.8-1.9-1.9-1.9-3.4c0-2.3,1.8-4.6,5.4-4.6c3.2,0,5.6,1.8,5.6,4.6c0,2.2-1.5,3.9-1.9,4.3
			c1.4,0.8,2.4,2,2.4,3.7c0,2.6-2.2,5-6,5c-3.7,0-6.1-2.3-6.1-5.1C149.7,58.2,151.8,56.6,152.4,56.2z M155.9,63.1
			c1.5,0,2.9-1,2.9-2.4c0-1.6-1.8-2.1-4.3-3.2c-0.5,0.4-1.6,1.3-1.6,2.9C152.8,62,154.2,63.1,155.9,63.1z M158.4,53.2
			c0-1.5-1-2.3-2.6-2.3c-1.6,0-2.4,0.9-2.4,2c0,1.7,1.8,2.3,3.9,3.1C157.6,55.6,158.4,54.6,158.4,53.2z"/>
	</g>
	<g>
		<path fill="#6D6E70" d="M179.7,147.5c0-6.1,8-7.1,8-10.5c0-1.5-1.2-2.4-2.6-2.4c-1.2,0-2.1,0.7-2.5,1.3c-0.5,0.5-0.9,0.6-1.4,0.2
			l-0.6-0.5c-0.5-0.4-0.6-0.8-0.3-1.3c0.7-1,2.3-2.6,5.1-2.6c3,0,5.5,1.8,5.5,5c0,5.5-7.6,6.4-7.8,9.6h7c0.7,0,1,0.3,1,1v0.7
			c0,0.7-0.3,1-1,1h-9.4c-0.6,0-1.1-0.3-1.1-1V147.5z"/>
		<path fill="#6D6E70" d="M191.9,143.6v-0.2c0-0.5,0.1-0.8,0.4-1.2l6.6-9.6c0.3-0.5,0.6-0.6,1.2-0.6h1.9c0.7,0,1,0.4,1,1v9.1h1.2
			c0.6,0,1,0.3,1,1v0.6c0,0.6-0.3,1-0.8,1h-1.4v3.4c0,0.7-0.3,1-1,1h-1.1c-0.6,0-1-0.3-1-1v-3.4h-7
			C192.2,144.6,191.9,144.3,191.9,143.6z M199.9,142.1v-5.3c0-0.8,0.1-1.8,0.1-1.8h0c0,0-0.4,0.9-0.8,1.6l-3.9,5.4v0H199.9z"/>
		<path fill="#6D6E70" d="M206.7,146.9c0-0.6,0.3-1,1-1h1.1c0.6,0,1,0.3,1,1v1.1c0,0.7-0.4,1-1,1h-1.1c-0.7,0-1-0.3-1-1V146.9z"/>
		<path fill="#6D6E70" d="M211.6,146.3l0.5-0.7c0.4-0.6,0.8-0.6,1.4-0.2c0.6,0.4,1.7,1.1,3.1,1.1c1.8,0,3.1-1.1,3.1-2.5
			c0-1.8-1.7-2.6-3.6-2.6h-0.4c-0.6,0-0.9-0.2-1.1-0.7l-0.1-0.2c-0.2-0.4-0.1-0.9,0.2-1.3l2.6-3.1c0.6-0.8,1.2-1.3,1.2-1.3v0
			c0,0-0.5,0.1-1.5,0.1h-4.1c-0.6,0-1-0.3-1-1V133c0-0.6,0.3-1,1-1h8.4c0.7,0,1,0.3,1,1v0.3c0,0.5-0.1,0.9-0.5,1.2l-3.7,4.3
			c2.4,0.3,4.7,2,4.7,5c0,2.9-2.2,5.6-6,5.6c-2.4,0-4.1-1-4.9-1.7C211.3,147.3,211.3,146.8,211.6,146.3z"/>
	</g>
	<g>
		<path fill="#6D6E70" d="M241.4,148.8c0-6.1,8-7.1,8-10.5c0-1.5-1.2-2.4-2.6-2.4c-1.2,0-2.1,0.7-2.5,1.3c-0.5,0.5-0.9,0.6-1.4,0.2
			l-0.6-0.5c-0.5-0.4-0.6-0.8-0.3-1.3c0.7-1,2.3-2.6,5.1-2.6c3,0,5.5,1.8,5.5,5c0,5.5-7.6,6.4-7.8,9.6h7c0.7,0,1,0.3,1,1v0.7
			c0,0.7-0.3,1-1,1h-9.4c-0.6,0-1.1-0.3-1.1-1V148.8z"/>
		<path fill="#6D6E70" d="M253.6,144.9v-0.2c0-0.5,0.1-0.8,0.4-1.2l6.6-9.6c0.3-0.5,0.6-0.6,1.2-0.6h1.9c0.7,0,1,0.4,1,1v9.1h1.2
			c0.6,0,1,0.3,1,1v0.6c0,0.6-0.3,1-0.8,1h-1.4v3.4c0,0.7-0.3,1-1,1h-1.1c-0.6,0-1-0.3-1-1v-3.4h-7
			C253.9,145.9,253.6,145.5,253.6,144.9z M261.6,143.3V138c0-0.8,0.1-1.8,0.1-1.8h0c0,0-0.4,0.9-0.8,1.6l-3.9,5.4v0H261.6z"/>
		<path fill="#6D6E70" d="M268.4,148.2c0-0.6,0.3-1,1-1h1.1c0.6,0,1,0.3,1,1v1.1c0,0.7-0.4,1-1,1h-1.1c-0.7,0-1-0.3-1-1V148.2z"/>
		<path fill="#6D6E70" d="M273.3,148.6c0-0.6,0.3-1,1-1h2.7v-9.5c0-0.6,0-1.2,0-1.2h0c0,0-0.2,0.5-0.6,0.9l-0.7,0.7
			c-0.5,0.4-1,0.4-1.4,0l-0.5-0.5c-0.5-0.5-0.4-1,0-1.4l3-2.9c0.4-0.3,0.7-0.5,1.2-0.5h1c0.6,0,1,0.4,1,1v13.4h2.7c0.6,0,1,0.3,1,1
			v0.7c0,0.7-0.4,1-1,1h-8.4c-0.6,0-1-0.3-1-1V148.6z"/>
	</g>
	<g>
		<path fill="#6D6E70" d="M346.7,135.9c0-6.1,8-7.1,8-10.5c0-1.5-1.2-2.4-2.6-2.4c-1.2,0-2.1,0.7-2.5,1.3c-0.5,0.5-0.9,0.6-1.4,0.2
			l-0.6-0.5c-0.5-0.4-0.6-0.8-0.3-1.3c0.7-1,2.3-2.6,5.1-2.6c3,0,5.5,1.8,5.5,5c0,5.5-7.6,6.4-7.8,9.6h7c0.7,0,1,0.3,1,1v0.7
			c0,0.7-0.3,1-1,1h-9.4c-0.6,0-1.1-0.3-1.1-1V135.9z"/>
		<path fill="#6D6E70" d="M360,134.6l0.5-0.7c0.4-0.6,0.8-0.6,1.4-0.2c0.6,0.4,1.5,1.1,2.8,1.1c1.7,0,3.2-1.1,3.2-2.9
			c0-1.8-1.5-3-3.4-3c-0.9,0-1.6,0.3-2,0.4c-0.5,0.2-0.9,0.2-1.3,0l-0.2-0.1c-0.6-0.2-0.8-0.6-0.7-1.2l0.6-6.8c0-0.6,0.4-1,1-1h7
			c0.7,0,1,0.4,1,1v0.7c0,0.6-0.3,1-1,1h-5.3l-0.3,2.8c0,0.5-0.1,0.8-0.1,0.8h0c0,0,0.8-0.4,1.8-0.4c3.8,0,6,2.5,6,5.6
			c0,3.4-2.6,5.9-6.1,5.9c-2.4,0-4-1-4.8-1.7C359.7,135.6,359.7,135.1,360,134.6z"/>
		<path fill="#6D6E70" d="M372.9,135.3c0-0.6,0.3-1,1-1h1.1c0.6,0,1,0.3,1,1v1.1c0,0.7-0.4,1-1,1h-1.1c-0.7,0-1-0.3-1-1V135.3z"/>
		<path fill="#6D6E70" d="M377.2,132v-0.2c0-0.5,0.1-0.8,0.4-1.2l6.6-9.6c0.3-0.5,0.6-0.6,1.2-0.6h1.9c0.7,0,1,0.4,1,1v9.1h1.2
			c0.6,0,1,0.3,1,1v0.6c0,0.6-0.3,1-0.8,1h-1.4v3.4c0,0.7-0.3,1-1,1h-1.1c-0.6,0-1-0.3-1-1V133h-7C377.5,133,377.2,132.7,377.2,132z
			 M385.1,130.5v-5.3c0-0.8,0.1-1.8,0.1-1.8h0c0,0-0.4,0.9-0.8,1.6l-3.9,5.4v0H385.1z"/>
	</g>
	<g>
		<path fill="#6D6E70" d="M409.1,201.5c0-0.6,0.3-1,1-1h2.7V191c0-0.6,0-1.2,0-1.2h0c0,0-0.2,0.5-0.6,0.9l-0.7,0.7
			c-0.5,0.4-1,0.4-1.4,0l-0.5-0.5c-0.5-0.5-0.4-1,0-1.4l3-2.9c0.4-0.3,0.7-0.5,1.2-0.5h1c0.6,0,1,0.4,1,1v13.4h2.7c0.6,0,1,0.3,1,1
			v0.7c0,0.7-0.4,1-1,1h-8.4c-0.6,0-1-0.3-1-1V201.5z"/>
		<path fill="#6D6E70" d="M423.1,193.9c-1.2-0.8-1.9-1.9-1.9-3.4c0-2.3,1.8-4.6,5.4-4.6c3.2,0,5.6,1.8,5.6,4.6
			c0,2.2-1.5,3.9-1.9,4.3c1.4,0.8,2.4,2,2.4,3.7c0,2.6-2.2,5-6,5c-3.7,0-6.1-2.3-6.1-5.1C420.5,195.8,422.5,194.3,423.1,193.9z
			 M426.6,200.8c1.5,0,2.9-1,2.9-2.4c0-1.6-1.8-2.1-4.3-3.2c-0.5,0.4-1.6,1.3-1.6,2.9C423.6,199.7,424.9,200.8,426.6,200.8z
			 M429.2,190.8c0-1.5-1-2.3-2.6-2.3c-1.6,0-2.4,0.9-2.4,2c0,1.7,1.8,2.3,3.9,3.1C428.3,193.3,429.2,192.2,429.2,190.8z"/>
		<path fill="#6D6E70" d="M434.6,201.1c0-0.6,0.3-1,1-1h1.1c0.6,0,1,0.3,1,1v1.1c0,0.7-0.4,1-1,1h-1.1c-0.7,0-1-0.3-1-1V201.1z"/>
		<path fill="#6D6E70" d="M446.4,190.3c0.5-1.1,1-1.6,1-1.6v0c0,0-0.3,0-1.1,0H440c-0.6,0-1-0.3-1-1v-0.7c0-0.6,0.3-1,1-1h9.7
			c0.6,0,1,0.3,1,1v0.5c0,0.5-0.1,0.8-0.3,1.2l-6.8,13.6c-0.3,0.5-0.6,0.7-1.2,0.7h-1.1c-0.8,0-1.1-0.5-0.7-1.2L446.4,190.3z"/>
	</g>
	<g>
		<path fill="#6D6E70" d="M469.7,217.9c0-0.6,0.3-1,1-1h2.7v-9.5c0-0.6,0-1.2,0-1.2h0c0,0-0.2,0.5-0.6,0.9l-0.7,0.7
			c-0.5,0.4-1,0.4-1.4,0l-0.5-0.5c-0.5-0.5-0.4-1,0-1.4l3-2.9c0.4-0.3,0.7-0.5,1.2-0.5h1c0.6,0,1,0.4,1,1v13.4h2.7c0.6,0,1,0.3,1,1
			v0.7c0,0.7-0.4,1-1,1h-8.4c-0.6,0-1-0.3-1-1V217.9z"/>
		<path fill="#6D6E70" d="M487.9,206.7c0.5-1.1,1-1.6,1-1.6v0c0,0-0.3,0-1.1,0h-6.3c-0.6,0-1-0.3-1-1v-0.7c0-0.6,0.3-1,1-1h9.7
			c0.6,0,1,0.3,1,1v0.5c0,0.5-0.1,0.8-0.3,1.2l-6.8,13.6c-0.3,0.5-0.6,0.7-1.2,0.7h-1.1c-0.8,0-1.1-0.5-0.7-1.2L487.9,206.7z"/>
		<path fill="#6D6E70" d="M493.3,217.5c0-0.6,0.3-1,1-1h1.1c0.6,0,1,0.3,1,1v1.1c0,0.7-0.4,1-1,1h-1.1c-0.7,0-1-0.3-1-1V217.5z"/>
		<path fill="#6D6E70" d="M498.4,211c0-4.9,1.5-8.8,6.2-8.8c4.7,0,6.2,3.9,6.2,8.8s-1.5,8.8-6.2,8.8
			C499.9,219.8,498.4,215.9,498.4,211z M507.6,211c0-3.3-0.7-5.9-3-5.9s-3,2.6-3,5.9c0,3.4,0.7,6,3,6S507.6,214.4,507.6,211z"/>
	</g>
	<g>
		<path fill="#6D6E70" d="M573.7,180.2c0-6.1,8-7.1,8-10.5c0-1.5-1.2-2.4-2.6-2.4c-1.2,0-2.1,0.7-2.5,1.3c-0.5,0.5-0.9,0.6-1.4,0.2
			l-0.6-0.5c-0.5-0.4-0.6-0.8-0.3-1.3c0.7-1,2.3-2.6,5.1-2.6c3,0,5.5,1.8,5.5,5c0,5.5-7.6,6.4-7.8,9.6h7c0.7,0,1,0.3,1,1v0.7
			c0,0.7-0.3,1-1,1h-9.4c-0.6,0-1.1-0.3-1.1-1V180.2z"/>
		<path fill="#6D6E70" d="M587.1,173.1c0-4.9,1.5-8.8,6.2-8.8c4.7,0,6.2,3.9,6.2,8.8s-1.5,8.8-6.2,8.8
			C588.6,182,587.1,178,587.1,173.1z M596.2,173.1c0-3.3-0.7-5.9-3-5.9s-3,2.6-3,5.9c0,3.4,0.7,6,3,6S596.2,176.5,596.2,173.1z"/>
		<path fill="#6D6E70" d="M601.4,179.6c0-0.6,0.3-1,1-1h1.1c0.6,0,1,0.3,1,1v1.1c0,0.7-0.4,1-1,1h-1.1c-0.7,0-1-0.3-1-1V179.6z"/>
		<path fill="#6D6E70" d="M607.7,179.5c0.2-0.7,0.6-0.7,1.2-0.6c0.4,0.1,0.9,0.3,1.5,0.3c2.8,0,4.2-2.3,4.6-4.7h0
			c-0.6,0.8-2,1.4-3.5,1.4c-3.1,0-5.2-2.6-5.2-5.6c0-3.2,2.2-5.8,5.6-5.8c3.6,0,6.6,3,6.6,8c0,4.6-2.6,9.6-7.8,9.6
			c-1,0-2-0.2-2.6-0.4c-0.6-0.2-0.8-0.6-0.6-1.2L607.7,179.5z M615.2,171.2c0-1.7-1.4-4-3.4-4c-1.6,0-2.5,1.2-2.5,2.9
			c0,1.7,1,3.1,3.2,3.1C614.1,173.2,615.2,172.4,615.2,171.2z"/>
	</g>
	<g>
		<path fill="#6D6E70" d="M634.6,142c0-6.1,8-7.1,8-10.5c0-1.5-1.2-2.4-2.6-2.4c-1.2,0-2.1,0.7-2.5,1.3c-0.5,0.5-0.9,0.6-1.4,0.2
			l-0.6-0.5c-0.5-0.4-0.6-0.8-0.3-1.3c0.7-1,2.3-2.6,5.1-2.6c3,0,5.5,1.8,5.5,5c0,5.5-7.6,6.4-7.8,9.6h7c0.7,0,1,0.3,1,1v0.7
			c0,0.7-0.3,1-1,1h-9.4c-0.6,0-1.1-0.3-1.1-1V142z"/>
		<path fill="#6D6E70" d="M646.8,138.1v-0.2c0-0.5,0.1-0.8,0.4-1.2l6.6-9.6c0.3-0.5,0.6-0.6,1.2-0.6h1.9c0.7,0,1,0.4,1,1v9.1h1.2
			c0.6,0,1,0.3,1,1v0.6c0,0.6-0.3,1-0.8,1h-1.4v3.4c0,0.7-0.3,1-1,1h-1.1c-0.6,0-1-0.3-1-1v-3.4h-7
			C647.1,139.1,646.8,138.8,646.8,138.1z M654.7,136.6v-5.3c0-0.8,0.1-1.8,0.1-1.8h0c0,0-0.4,0.9-0.8,1.6l-3.9,5.4v0H654.7z"/>
		<path fill="#6D6E70" d="M661.6,141.4c0-0.6,0.3-1,1-1h1.1c0.6,0,1,0.3,1,1v1.1c0,0.7-0.4,1-1,1h-1.1c-0.7,0-1-0.3-1-1V141.4z"/>
		<path fill="#6D6E70" d="M669.2,134.2c-1.2-0.8-1.9-1.9-1.9-3.4c0-2.3,1.8-4.6,5.4-4.6c3.2,0,5.6,1.8,5.6,4.6
			c0,2.2-1.5,3.9-1.9,4.3c1.4,0.8,2.4,2,2.4,3.7c0,2.6-2.2,5-6,5c-3.7,0-6.1-2.3-6.1-5.1C666.6,136.2,668.6,134.6,669.2,134.2z
			 M672.7,141.1c1.5,0,2.9-1,2.9-2.4c0-1.6-1.8-2.1-4.3-3.2c-0.5,0.4-1.6,1.3-1.6,2.9C669.6,140,671,141.1,672.7,141.1z
			 M675.3,131.2c0-1.5-1-2.3-2.6-2.3c-1.6,0-2.4,0.9-2.4,2c0,1.7,1.8,2.3,3.9,3.1C674.4,133.6,675.3,132.5,675.3,131.2z"/>
	</g>
	<g>
		<path fill="#6D6E70" d="M697.8,212.4c0-0.6,0.3-1,1-1h2.7V202c0-0.6,0-1.2,0-1.2h0c0,0-0.2,0.5-0.6,0.9l-0.7,0.7
			c-0.5,0.4-1,0.4-1.4,0l-0.5-0.5c-0.5-0.5-0.4-1,0-1.4l3-2.9c0.4-0.3,0.7-0.5,1.2-0.5h1c0.6,0,1,0.4,1,1v13.4h2.7c0.6,0,1,0.3,1,1
			v0.7c0,0.7-0.4,1-1,1h-8.4c-0.6,0-1-0.3-1-1V212.4z"/>
		<path fill="#6D6E70" d="M716,201.3c0.5-1.1,1-1.6,1-1.6v0c0,0-0.3,0-1.1,0h-6.3c-0.6,0-1-0.3-1-1v-0.7c0-0.6,0.3-1,1-1h9.7
			c0.6,0,1,0.3,1,1v0.5c0,0.5-0.1,0.8-0.3,1.2l-6.8,13.6c-0.3,0.5-0.6,0.7-1.2,0.7h-1.1c-0.8,0-1.1-0.5-0.7-1.2L716,201.3z"/>
		<path fill="#6D6E70" d="M721.4,212c0-0.6,0.3-1,1-1h1.1c0.6,0,1,0.3,1,1v1.1c0,0.7-0.4,1-1,1h-1.1c-0.7,0-1-0.3-1-1V212z"/>
		<path fill="#6D6E70" d="M734.2,196.8c1,0,2,0.2,2.6,0.4c0.6,0.2,0.8,0.6,0.6,1.3l-0.3,0.8c-0.2,0.7-0.6,0.8-1.2,0.6
			c-0.4-0.1-0.9-0.2-1.5-0.2c-2.8,0-4.2,2.3-4.6,4.7h0c0.6-0.7,1.8-1.3,3.4-1.3c3.2,0,5.3,2.5,5.3,5.5c0,3.2-2.2,5.9-5.6,5.9
			c-3.6,0-6.6-3-6.6-8C726.3,201.8,728.9,196.8,734.2,196.8z M732.9,211.6c1.6,0,2.6-1.2,2.6-2.9c0-1.7-1.1-3.1-3.3-3.1
			c-1.5,0-2.7,0.8-2.7,2C729.6,209.3,731,211.6,732.9,211.6z"/>
	</g>
	<g>
		<path fill="#6D6E70" d="M821.4,260.8c0-0.6,0.3-1,1-1h2.7v-9.5c0-0.6,0-1.2,0-1.2h0c0,0-0.2,0.5-0.6,0.9l-0.7,0.7
			c-0.5,0.4-1,0.4-1.4,0l-0.5-0.5c-0.5-0.5-0.4-1,0-1.4l3-2.9c0.4-0.3,0.7-0.5,1.2-0.5h1c0.6,0,1,0.4,1,1v13.4h2.7c0.6,0,1,0.3,1,1
			v0.7c0,0.7-0.4,1-1,1h-8.4c-0.6,0-1-0.3-1-1V260.8z"/>
		<path fill="#6D6E70" d="M832.6,260.9c0-6.1,8-7.1,8-10.5c0-1.5-1.2-2.4-2.6-2.4c-1.2,0-2.1,0.7-2.5,1.3c-0.5,0.5-0.9,0.6-1.4,0.2
			l-0.6-0.5c-0.5-0.4-0.6-0.8-0.3-1.3c0.7-1,2.3-2.6,5.1-2.6c3,0,5.5,1.8,5.5,5c0,5.5-7.6,6.4-7.8,9.6h7c0.7,0,1,0.3,1,1v0.7
			c0,0.7-0.3,1-1,1h-9.4c-0.6,0-1.1-0.3-1.1-1V260.9z"/>
		<path fill="#6D6E70" d="M845.9,260.4c0-0.6,0.3-1,1-1h1.1c0.6,0,1,0.3,1,1v1.1c0,0.7-0.4,1-1,1h-1.1c-0.7,0-1-0.3-1-1V260.4z"/>
		<path fill="#6D6E70" d="M858.8,245.1c1,0,2,0.2,2.6,0.4c0.6,0.2,0.8,0.6,0.6,1.3l-0.3,0.8c-0.2,0.7-0.6,0.8-1.2,0.6
			c-0.4-0.1-0.9-0.2-1.5-0.2c-2.8,0-4.2,2.3-4.6,4.7h0c0.6-0.7,1.8-1.3,3.4-1.3c3.2,0,5.3,2.5,5.3,5.5c0,3.2-2.2,5.9-5.6,5.9
			c-3.6,0-6.6-3-6.6-8C850.9,250.1,853.5,245.1,858.8,245.1z M857.5,259.9c1.6,0,2.6-1.2,2.6-2.9c0-1.7-1.1-3.1-3.3-3.1
			c-1.5,0-2.7,0.8-2.7,2C854.1,257.6,855.5,259.9,857.5,259.9z"/>
	</g>
	<g>
		<path fill="#6D6E70" d="M882.9,209.4c0-0.6,0.3-1,1-1h2.7V199c0-0.6,0-1.2,0-1.2h0c0,0-0.2,0.5-0.6,0.9l-0.7,0.7
			c-0.5,0.4-1,0.4-1.4,0l-0.5-0.5c-0.5-0.5-0.4-1,0-1.4l3-2.9c0.4-0.3,0.7-0.5,1.2-0.5h1c0.6,0,1,0.4,1,1v13.4h2.7c0.6,0,1,0.3,1,1
			v0.7c0,0.7-0.4,1-1,1h-8.4c-0.6,0-1-0.3-1-1V209.4z"/>
		<path fill="#6D6E70" d="M901.1,198.3c0.5-1.1,1-1.6,1-1.6v0c0,0-0.3,0-1.1,0h-6.3c-0.6,0-1-0.3-1-1v-0.7c0-0.6,0.3-1,1-1h9.7
			c0.6,0,1,0.3,1,1v0.5c0,0.5-0.1,0.8-0.3,1.2l-6.8,13.6c-0.3,0.5-0.6,0.7-1.2,0.7H896c-0.8,0-1.1-0.5-0.7-1.2L901.1,198.3z"/>
		<path fill="#6D6E70" d="M906.4,209c0-0.6,0.3-1,1-1h1.1c0.6,0,1,0.3,1,1v1.1c0,0.7-0.4,1-1,1h-1.1c-0.7,0-1-0.3-1-1V209z"/>
		<path fill="#6D6E70" d="M912.7,208.9c0.2-0.7,0.6-0.7,1.2-0.6c0.4,0.1,0.9,0.3,1.5,0.3c2.8,0,4.2-2.3,4.6-4.7h0
			c-0.6,0.8-2,1.4-3.5,1.4c-3.1,0-5.2-2.6-5.2-5.6c0-3.2,2.2-5.8,5.6-5.8c3.6,0,6.6,3,6.6,8c0,4.6-2.6,9.6-7.8,9.6
			c-1,0-2-0.2-2.6-0.4c-0.6-0.2-0.8-0.6-0.6-1.2L912.7,208.9z M920.2,200.6c0-1.7-1.4-4-3.4-4c-1.6,0-2.5,1.2-2.5,2.9
			c0,1.7,1,3.1,3.2,3.1C919.1,202.6,920.2,201.8,920.2,200.6z"/>
	</g>
	<g>
		<path fill="#6D6E70" d="M942.8,136.7c0-6.1,8-7.1,8-10.5c0-1.5-1.2-2.4-2.6-2.4c-1.2,0-2.1,0.7-2.5,1.3c-0.5,0.5-0.9,0.6-1.4,0.2
			l-0.6-0.5c-0.5-0.4-0.6-0.8-0.3-1.3c0.7-1,2.3-2.6,5.1-2.6c3,0,5.5,1.8,5.5,5c0,5.5-7.6,6.4-7.8,9.6h7c0.7,0,1,0.3,1,1v0.7
			c0,0.7-0.3,1-1,1h-9.4c-0.6,0-1.1-0.3-1.1-1V136.7z"/>
		<path fill="#6D6E70" d="M956.1,135.5l0.5-0.7c0.4-0.6,0.8-0.6,1.4-0.2c0.6,0.4,1.5,1.1,2.8,1.1c1.7,0,3.2-1.1,3.2-2.9
			c0-1.8-1.5-3-3.4-3c-0.9,0-1.6,0.3-2,0.4c-0.5,0.2-0.9,0.2-1.3,0l-0.2-0.1c-0.6-0.2-0.8-0.6-0.7-1.2l0.6-6.8c0-0.6,0.4-1,1-1h7
			c0.7,0,1,0.4,1,1v0.7c0,0.6-0.3,1-1,1h-5.3l-0.3,2.8c0,0.5-0.1,0.8-0.1,0.8h0c0,0,0.8-0.4,1.8-0.4c3.8,0,6,2.5,6,5.6
			c0,3.4-2.6,5.9-6.1,5.9c-2.4,0-4-1-4.8-1.7C955.8,136.5,955.8,135.9,956.1,135.5z"/>
		<path fill="#6D6E70" d="M968.9,136.1c0-0.6,0.3-1,1-1h1.1c0.6,0,1,0.3,1,1v1.1c0,0.7-0.4,1-1,1h-1.1c-0.7,0-1-0.3-1-1V136.1z"/>
		<path fill="#6D6E70" d="M973.8,135.5l0.5-0.7c0.4-0.6,0.8-0.6,1.4-0.2c0.6,0.4,1.7,1.1,3.1,1.1c1.8,0,3.1-1.1,3.1-2.5
			c0-1.8-1.7-2.6-3.6-2.6h-0.4c-0.6,0-0.9-0.2-1.1-0.7l-0.1-0.2c-0.2-0.4-0.1-0.9,0.2-1.3l2.6-3.1c0.6-0.8,1.2-1.3,1.2-1.3v0
			c0,0-0.5,0.1-1.5,0.1h-4.1c-0.6,0-1-0.3-1-1v-0.7c0-0.6,0.3-1,1-1h8.4c0.7,0,1,0.3,1,1v0.3c0,0.5-0.1,0.9-0.5,1.2l-3.7,4.3
			c2.4,0.3,4.7,2,4.7,5c0,2.9-2.2,5.6-6,5.6c-2.4,0-4.1-1-4.9-1.7C973.5,136.5,973.5,136,973.8,135.5z"/>
	</g>
	<g>
		<path fill="#6D6E70" d="M1048.8,294.4c-1.2-0.8-1.9-1.9-1.9-3.4c0-2.3,1.8-4.6,5.4-4.6c3.2,0,5.6,1.8,5.6,4.6
			c0,2.2-1.5,3.9-1.9,4.3c1.4,0.8,2.4,2,2.4,3.7c0,2.6-2.2,5-6,5c-3.7,0-6.1-2.3-6.1-5.1C1046.2,296.3,1048.3,294.8,1048.8,294.4z
			 M1052.3,301.3c1.5,0,2.9-1,2.9-2.4c0-1.6-1.8-2.1-4.3-3.2c-0.5,0.4-1.6,1.3-1.6,2.9C1049.3,300.2,1050.7,301.3,1052.3,301.3z
			 M1054.9,291.3c0-1.5-1-2.3-2.6-2.3c-1.6,0-2.4,0.9-2.4,2c0,1.7,1.8,2.3,3.9,3.1C1054.1,293.7,1054.9,292.7,1054.9,291.3z"/>
		<path fill="#6D6E70" d="M1060.3,301.6c0-0.6,0.3-1,1-1h1.1c0.6,0,1,0.3,1,1v1.1c0,0.7-0.4,1-1,1h-1.1c-0.7,0-1-0.3-1-1V301.6z"/>
		<path fill="#6D6E70" d="M1064.6,298.3V298c0-0.5,0.1-0.8,0.4-1.2l6.6-9.6c0.3-0.5,0.6-0.6,1.2-0.6h1.9c0.7,0,1,0.4,1,1v9.1h1.2
			c0.6,0,1,0.3,1,1v0.6c0,0.6-0.3,1-0.8,1h-1.4v3.4c0,0.7-0.3,1-1,1h-1.1c-0.6,0-1-0.3-1-1v-3.4h-7
			C1064.9,299.3,1064.6,298.9,1064.6,298.3z M1072.6,296.7v-5.3c0-0.8,0.1-1.8,0.1-1.8h0c0,0-0.4,0.9-0.8,1.6l-3.9,5.4v0H1072.6z"/>
	</g>
	<g>
		<path fill="#6D6E70" d="M1100.9,243.5c0-0.6,0.3-1,1-1h2.7V233c0-0.6,0-1.2,0-1.2h0c0,0-0.2,0.5-0.6,0.9l-0.7,0.7
			c-0.5,0.4-1,0.4-1.4,0l-0.5-0.5c-0.5-0.5-0.4-1,0-1.4l3-2.9c0.4-0.3,0.7-0.5,1.2-0.5h1c0.6,0,1,0.4,1,1v13.4h2.7c0.6,0,1,0.3,1,1
			v0.7c0,0.7-0.4,1-1,1h-8.4c-0.6,0-1-0.3-1-1V243.5z"/>
		<path fill="#6D6E70" d="M1111.5,239.8v-0.2c0-0.5,0.1-0.8,0.4-1.2l6.6-9.6c0.3-0.5,0.6-0.6,1.2-0.6h1.9c0.7,0,1,0.4,1,1v9.1h1.2
			c0.6,0,1,0.3,1,1v0.6c0,0.6-0.3,1-0.8,1h-1.4v3.4c0,0.7-0.3,1-1,1h-1.1c-0.6,0-1-0.3-1-1v-3.4h-7
			C1111.9,240.7,1111.5,240.4,1111.5,239.8z M1119.5,238.2v-5.3c0-0.8,0.1-1.8,0.1-1.8h0c0,0-0.4,0.9-0.8,1.6l-3.9,5.4v0H1119.5z"/>
		<path fill="#6D6E70" d="M1126.4,243.1c0-0.6,0.3-1,1-1h1.1c0.6,0,1,0.3,1,1v1.1c0,0.7-0.4,1-1,1h-1.1c-0.7,0-1-0.3-1-1V243.1z"/>
		<path fill="#6D6E70" d="M1130.7,239.8v-0.2c0-0.5,0.1-0.8,0.4-1.2l6.6-9.6c0.3-0.5,0.6-0.6,1.2-0.6h1.9c0.7,0,1,0.4,1,1v9.1h1.2
			c0.6,0,1,0.3,1,1v0.6c0,0.6-0.3,1-0.8,1h-1.4v3.4c0,0.7-0.3,1-1,1h-1.1c-0.6,0-1-0.3-1-1v-3.4h-7
			C1131,240.7,1130.7,240.4,1130.7,239.8z M1138.6,238.2v-5.3c0-0.8,0.1-1.8,0.1-1.8h0c0,0-0.4,0.9-0.8,1.6l-3.9,5.4v0H1138.6z"/>
	</g>
	<g>
		<path fill="#6D6E70" d="M1162.4,232c0-0.6,0.3-1,1-1h2.7v-9.5c0-0.6,0-1.2,0-1.2h0c0,0-0.2,0.5-0.6,0.9l-0.7,0.7
			c-0.5,0.4-1,0.4-1.4,0l-0.5-0.5c-0.5-0.5-0.4-1,0-1.4l3-2.9c0.4-0.3,0.7-0.5,1.2-0.5h1c0.6,0,1,0.4,1,1V231h2.7c0.6,0,1,0.3,1,1
			v0.7c0,0.7-0.4,1-1,1h-8.4c-0.6,0-1-0.3-1-1V232z"/>
		<path fill="#6D6E70" d="M1174,230.9l0.5-0.7c0.4-0.6,0.8-0.6,1.4-0.2c0.6,0.4,1.5,1.1,2.8,1.1c1.7,0,3.2-1.1,3.2-2.9
			c0-1.8-1.5-3-3.4-3c-0.9,0-1.6,0.3-2,0.4c-0.5,0.2-0.9,0.2-1.3,0l-0.2-0.1c-0.6-0.2-0.8-0.6-0.7-1.2l0.6-6.8c0-0.6,0.4-1,1-1h7
			c0.7,0,1,0.4,1,1v0.7c0,0.6-0.3,1-1,1h-5.3l-0.3,2.8c0,0.5-0.1,0.8-0.1,0.8h0c0,0,0.8-0.4,1.8-0.4c3.8,0,6,2.5,6,5.6
			c0,3.4-2.6,5.9-6.1,5.9c-2.4,0-4-1-4.8-1.7C1173.6,231.9,1173.6,231.4,1174,230.9z"/>
		<path fill="#6D6E70" d="M1186.8,231.6c0-0.6,0.3-1,1-1h1.1c0.6,0,1,0.3,1,1v1.1c0,0.7-0.4,1-1,1h-1.1c-0.7,0-1-0.3-1-1V231.6z"/>
		<path fill="#6D6E70" d="M1199.6,216.3c1,0,2,0.2,2.6,0.4c0.6,0.2,0.8,0.6,0.6,1.3l-0.3,0.8c-0.2,0.7-0.6,0.8-1.2,0.6
			c-0.4-0.1-0.9-0.2-1.5-0.2c-2.8,0-4.2,2.3-4.6,4.7h0c0.6-0.7,1.8-1.3,3.4-1.3c3.2,0,5.3,2.5,5.3,5.5c0,3.2-2.2,5.9-5.6,5.9
			c-3.6,0-6.6-3-6.6-8C1191.8,221.3,1194.4,216.3,1199.6,216.3z M1198.3,231.1c1.6,0,2.6-1.2,2.6-2.9c0-1.7-1.1-3.1-3.3-3.1
			c-1.5,0-2.7,0.8-2.7,2C1195,228.8,1196.4,231.1,1198.3,231.1z"/>
	</g>
</g>
</svg>
