<?xml version="1.0" encoding="utf-8"?>
<!-- Generator: Adobe Illustrator 18.1.1, SVG Export Plug-In . SVG Version: 6.00 Build 0)  -->
<svg version="1.1" id="Layer_1" xmlns="http://www.w3.org/2000/svg" xmlns:xlink="http://www.w3.org/1999/xlink" x="0px" y="0px"
	 viewBox="0 0 1226 479.6" enable-background="new 0 0 1226 479.6" xml:space="preserve">
<path fill="#BCD6E9" d="M0,112.6h1226v73.9H0V112.6z"/>
<rect x="817.3" y="1.7" fill="#1D1756" width="408.7" height="49"/>
<rect x="408.7" y="1.7" fill="#1D1756" width="408.7" height="49"/>
<rect x="817.4" y="50.7" fill="#F8971D" width="204.3" height="61.9"/>
<rect x="408.5" y="50.7" fill="#F8971D" width="204.3" height="61.9"/>
<rect x="1021.5" y="50.7" fill="#0072B1" width="204.5" height="61.9"/>
<rect x="612.9" y="50.7" fill="#0072B1" width="204.3" height="61.9"/>
<line fill="none" stroke="#D0D2D3" stroke-miterlimit="10" x1="0" y1="479.1" x2="1226" y2="479.1"/>
<line fill="none" stroke="#D0D2D3" stroke-miterlimit="10" x1="0" y1="398.6" x2="1226" y2="398.6"/>
<line fill="none" stroke="#D0D2D3" stroke-miterlimit="10" x1="0" y1="292.6" x2="1226" y2="292.6"/>
<line fill="none" stroke="#D0D2D3" stroke-miterlimit="10" x1="0" y1="186.6" x2="1226" y2="186.6"/>
<g>
	<path fill="#6D6F70" d="M256.6,34.9h2.8v6.6h7.2v-6.6h2.8v15.6h-2.8V44h-7.2v6.6h-2.8V34.9z"/>
	<path fill="#6D6F70" d="M273,34.9h2.8v2.5H273V34.9z M273,39.3h2.8v11.2H273V39.3z"/>
	<path fill="#6D6F70" d="M279.2,47.2c0,0,1.2,1.2,3.1,1.2c0.8,0,1.5-0.4,1.5-1c0-1.7-5.5-1.5-5.5-5.1c0-2.1,1.9-3.3,4.3-3.3
		c2.5,0,3.8,1.3,3.8,1.3l-1,2.1c0,0-1-1-2.8-1c-0.7,0-1.4,0.3-1.4,1c0,1.6,5.5,1.4,5.5,5c0,1.9-1.6,3.4-4.3,3.4
		c-2.8,0-4.4-1.7-4.4-1.7L279.2,47.2z"/>
	<path fill="#6D6F70" d="M289.3,41.7h-1.5v-2.2h1.5v-3.2h2.7v3.2h2.6v2.2h-2.6V46c0,1.8,1.5,2.1,2.2,2.1c0.3,0,0.5,0,0.5,0v2.4
		c0,0-0.3,0.1-0.9,0.1c-1.6,0-4.7-0.5-4.7-4.2V41.7z"/>
	<path fill="#6D6F70" d="M302.4,39c3.4,0,6.2,2.4,6.2,5.9c0,3.5-2.8,5.9-6.2,5.9c-3.4,0-6.2-2.4-6.2-5.9C296.3,41.5,299,39,302.4,39
		z M302.4,48.4c1.8,0,3.3-1.4,3.3-3.5c0-2.1-1.5-3.5-3.3-3.5c-1.8,0-3.3,1.4-3.3,3.5C299.1,47,300.6,48.4,302.4,48.4z"/>
	<path fill="#6D6F70" d="M310.8,39.3h2.7v1.9c0,0.4,0,0.8,0,0.8h0c0.5-1.6,1.8-2.9,3.6-2.9c0.3,0,0.5,0,0.5,0v2.8c0,0-0.3,0-0.7,0
		c-1.2,0-2.5,0.7-3.1,2.4c-0.2,0.6-0.2,1.2-0.2,1.8v4.4h-2.8V39.3z"/>
	<path fill="#6D6F70" d="M319.5,34.9h2.8v2.5h-2.8V34.9z M319.5,39.3h2.8v11.2h-2.8V39.3z"/>
	<path fill="#6D6F70" d="M330.6,39c2.9,0,4.3,1.7,4.3,1.7l-1.2,1.9c0,0-1.2-1.2-2.9-1.2c-2.1,0-3.4,1.6-3.4,3.5
		c0,1.9,1.4,3.5,3.5,3.5c1.9,0,3.3-1.4,3.3-1.4l1.1,2c0,0-1.6,1.8-4.6,1.8c-3.7,0-6.1-2.6-6.1-5.9C324.5,41.7,326.9,39,330.6,39z"/>
	<path fill="#6D6F70" d="M343,43.5h0.4v-0.2c0-1.5-0.9-2-2.2-2c-1.6,0-3.1,1.1-3.1,1.1l-1.1-2c0,0,1.7-1.4,4.4-1.4
		c2.9,0,4.7,1.6,4.7,4.5v7h-2.6v-0.9c0-0.4,0-0.8,0-0.8h0c0,0-0.9,2-3.4,2c-2,0-3.8-1.3-3.8-3.5C336.4,43.7,341.2,43.5,343,43.5z
		 M340.9,48.6c1.5,0,2.5-1.6,2.5-2.9v-0.3H343c-1.4,0-3.7,0.2-3.7,1.8C339.2,47.9,339.8,48.6,340.9,48.6z"/>
	<path fill="#6D6F70" d="M348.9,34.9h2.8v11.7c0,1.2,0.4,1.5,1.1,1.5c0.2,0,0.4,0,0.4,0v2.4c0,0-0.4,0.1-0.9,0.1
		c-1.5,0-3.5-0.4-3.5-3.6V34.9z"/>
	<path fill="#6D6F70" d="M273,62c2.9,0,4.3,1.7,4.3,1.7l-1.2,1.9c0,0-1.2-1.2-2.9-1.2c-2.1,0-3.4,1.6-3.4,3.5c0,1.9,1.4,3.5,3.5,3.5
		c1.9,0,3.3-1.4,3.3-1.4l1.1,2c0,0-1.6,1.8-4.6,1.8c-3.7,0-6.1-2.6-6.1-5.9C266.9,64.7,269.3,62,273,62z"/>
	<path fill="#6D6F70" d="M285,62c3.4,0,6.2,2.4,6.2,5.9c0,3.5-2.8,5.9-6.2,5.9c-3.4,0-6.2-2.4-6.2-5.9C278.8,64.5,281.6,62,285,62z
		 M285,71.4c1.8,0,3.3-1.4,3.3-3.5c0-2.1-1.5-3.5-3.3-3.5c-1.8,0-3.3,1.4-3.3,3.5C281.7,70,283.2,71.4,285,71.4z"/>
	<path fill="#6D6F70" d="M293.4,62.3h2.7v1.3c0,0.4,0,0.8,0,0.8h0c0.5-0.9,1.7-2.3,4-2.3c2.5,0,3.9,1.3,3.9,4.3v7.2h-2.8v-6.6
		c0-1.4-0.4-2.3-1.8-2.3c-1.5,0-2.6,0.9-3,2.3c-0.2,0.5-0.2,1-0.2,1.5v5.1h-2.8V62.3z"/>
	<path fill="#6D6F70" d="M307.4,64.7h-1.5v-2.2h1.5v-3.2h2.7v3.2h2.6v2.2h-2.6V69c0,1.8,1.5,2.1,2.2,2.1c0.3,0,0.5,0,0.5,0v2.4
		c0,0-0.3,0.1-0.9,0.1c-1.6,0-4.7-0.5-4.7-4.2V64.7z"/>
	<path fill="#6D6F70" d="M315.2,62.3h2.7v1.9c0,0.4,0,0.8,0,0.8h0c0.5-1.6,1.8-2.9,3.6-2.9c0.3,0,0.5,0,0.5,0v2.8c0,0-0.3,0-0.7,0
		c-1.2,0-2.5,0.7-3.1,2.4c-0.2,0.6-0.2,1.2-0.2,1.8v4.4h-2.8V62.3z"/>
	<path fill="#6D6F70" d="M329.2,62c3.4,0,6.2,2.4,6.2,5.9c0,3.5-2.8,5.9-6.2,5.9c-3.4,0-6.2-2.4-6.2-5.9C323,64.5,325.8,62,329.2,62
		z M329.2,71.4c1.8,0,3.3-1.4,3.3-3.5c0-2.1-1.5-3.5-3.3-3.5c-1.8,0-3.3,1.4-3.3,3.5C325.9,70,327.4,71.4,329.2,71.4z"/>
	<path fill="#6D6F70" d="M337.4,57.9h2.8v11.7c0,1.2,0.4,1.5,1.1,1.5c0.2,0,0.4,0,0.4,0v2.4c0,0-0.4,0.1-0.9,0.1
		c-1.5,0-3.5-0.4-3.5-3.6V57.9z"/>
</g>
<g>
	<path fill="#FFFFFF" d="M537.4,29.9h-5.5l-1.3,4h-2.9l5.5-15.6h3l5.5,15.6h-2.9L537.4,29.9z M534.7,20.9c0,0-0.4,1.5-0.7,2.4
		l-1.4,4.2h4.1l-1.4-4.2C535,22.5,534.7,20.9,534.7,20.9L534.7,20.9z"/>
	<path fill="#FFFFFF" d="M543.6,18.2h6c2.9,0,5,2,5,5.1s-2,5.1-5,5.1h-3.2v5.4h-2.8V18.2z M549.2,26c1.7,0,2.6-1.1,2.6-2.7
		c0-1.6-1-2.6-2.6-2.6h-2.7V26H549.2z"/>
	<path fill="#FFFFFF" d="M560.4,20.7h-5.1v-2.4h13.1v2.4h-5.1v13.2h-2.8V20.7z"/>
	<path fill="#FFFFFF" d="M570.4,18.2h2.8v15.6h-2.8V18.2z"/>
	<path fill="#FFFFFF" d="M584.2,18c4.6,0,8.1,3.5,8.1,8c0,4.6-3.5,8.2-8.1,8.2c-4.6,0-8.1-3.6-8.1-8.2C576.1,21.5,579.6,18,584.2,18
		z M584.2,31.5c2.9,0,5.1-2.4,5.1-5.6c0-3.1-2.3-5.4-5.1-5.4c-2.9,0-5.1,2.3-5.1,5.4C579.1,29.2,581.4,31.5,584.2,31.5z"/>
	<path fill="#FFFFFF" d="M596,18.2h3l3.1,7.7c0.4,0.9,0.8,2.3,0.8,2.3h0c0,0,0.4-1.4,0.8-2.3l3.1-7.7h3l1.3,15.6h-2.8l-0.7-8.7
		c-0.1-1,0-2.4,0-2.4h0c0,0-0.5,1.5-0.8,2.4l-2.5,6.1h-2.5l-2.5-6.1c-0.4-0.9-0.9-2.4-0.9-2.4h0c0,0,0,1.4,0,2.4l-0.7,8.7h-2.8
		L596,18.2z"/>
	<path fill="#FFFFFF" d="M620.2,29.9c0,0,1.7,1.6,3.9,1.6c1.2,0,2.3-0.6,2.3-1.9c0-2.8-7.4-2.3-7.4-7.1c0-2.6,2.2-4.5,5.2-4.5
		c3.1,0,4.7,1.7,4.7,1.7l-1.2,2.3c0,0-1.5-1.4-3.5-1.4c-1.3,0-2.4,0.8-2.4,1.9c0,2.8,7.3,2.1,7.3,7.1c0,2.5-1.9,4.6-5.1,4.6
		c-3.5,0-5.4-2.1-5.4-2.1L620.2,29.9z"/>
	<path fill="#FFFFFF" d="M632.1,25h-1.5v-2.2h1.5v-3.2h2.7v3.2h2.6V25h-2.6v4.4c0,1.8,1.5,2.1,2.2,2.1c0.3,0,0.5,0,0.5,0v2.4
		c0,0-0.3,0.1-0.9,0.1c-1.6,0-4.7-0.5-4.7-4.2V25z"/>
	<path fill="#FFFFFF" d="M639.7,22.6h2.8v6.6c0,1.4,0.4,2.3,1.7,2.3c2,0,3.1-1.8,3.1-3.8v-5.1h2.8v11.2h-2.7v-1.3c0-0.4,0-0.8,0-0.8
		h0c-0.6,1.2-2,2.3-3.9,2.3c-2.4,0-3.9-1.2-3.9-4.3V22.6z"/>
	<path fill="#FFFFFF" d="M657.6,22.4c2.5,0,3.2,1.4,3.2,1.4h0c0,0,0-0.3,0-0.6v-4.9h2.8v15.6H661v-0.9c0-0.4,0-0.7,0-0.7h0
		c0,0-0.9,1.9-3.5,1.9c-3,0-5-2.4-5-5.9C652.5,24.7,654.6,22.4,657.6,22.4z M658.1,31.8c1.5,0,2.8-1.1,2.8-3.5
		c0-1.7-0.9-3.5-2.8-3.5c-1.5,0-2.8,1.3-2.8,3.5C655.3,30.4,656.5,31.8,658.1,31.8z"/>
	<path fill="#FFFFFF" d="M666.1,35.7c0,0,0.6,0.5,1.3,0.5c0.8,0,1.5-0.5,1.9-1.5l0.4-1l-4.7-11h3.1l2.4,6.5c0.2,0.6,0.4,1.5,0.4,1.5
		h0c0,0,0.2-0.9,0.4-1.5l2.2-6.5h3.1l-5,12.9c-0.8,2-2.4,2.9-4,2.9c-1.3,0-2.3-0.7-2.3-0.7L666.1,35.7z"/>
	<path fill="#FFFFFF" d="M683.2,31.4h3.4v-8.7c0-0.5,0-1.1,0-1.1h0c0,0-0.2,0.4-0.7,0.9l-1.3,1.2l-1.7-1.8l3.9-3.8h2.5v13.2h3.4v2.4
		h-9.5V31.4z"/>
</g>
<g>
	<path fill="#FFFFFF" d="M945.2,29.9h-5.5l-1.3,4h-2.9l5.5-15.6h3l5.5,15.6h-2.9L945.2,29.9z M942.5,20.9c0,0-0.4,1.5-0.7,2.4
		l-1.4,4.2h4.1l-1.4-4.2C942.8,22.5,942.5,20.9,942.5,20.9L942.5,20.9z"/>
	<path fill="#FFFFFF" d="M951.5,18.2h6c2.9,0,5,2,5,5.1s-2,5.1-5,5.1h-3.2v5.4h-2.8V18.2z M957,26c1.6,0,2.6-1.1,2.6-2.7
		c0-1.6-1-2.6-2.6-2.6h-2.7V26H957z"/>
	<path fill="#FFFFFF" d="M968.2,20.7h-5.1v-2.4h13.1v2.4H971v13.2h-2.8V20.7z"/>
	<path fill="#FFFFFF" d="M978.2,18.2h2.8v15.6h-2.8V18.2z"/>
	<path fill="#FFFFFF" d="M992,18c4.6,0,8.1,3.5,8.1,8c0,4.6-3.5,8.2-8.1,8.2s-8.1-3.6-8.1-8.2C984,21.5,987.4,18,992,18z M992,31.5
		c2.9,0,5.1-2.4,5.1-5.6c0-3.1-2.3-5.4-5.1-5.4s-5.1,2.3-5.1,5.4C986.9,29.2,989.2,31.5,992,31.5z"/>
	<path fill="#FFFFFF" d="M1003.8,18.2h3l3.1,7.7c0.4,0.9,0.8,2.3,0.8,2.3h0c0,0,0.4-1.4,0.8-2.3l3.1-7.7h3l1.3,15.6h-2.8l-0.7-8.7
		c-0.1-1,0-2.4,0-2.4h0c0,0-0.5,1.5-0.8,2.4l-2.5,6.1h-2.5l-2.5-6.1c-0.4-0.9-0.9-2.4-0.9-2.4h0c0,0,0,1.4,0,2.4l-0.7,8.7h-2.8
		L1003.8,18.2z"/>
	<path fill="#FFFFFF" d="M1028,29.9c0,0,1.7,1.6,3.9,1.6c1.2,0,2.3-0.6,2.3-1.9c0-2.8-7.4-2.3-7.4-7.1c0-2.6,2.2-4.5,5.2-4.5
		c3.1,0,4.7,1.7,4.7,1.7l-1.2,2.3c0,0-1.5-1.4-3.5-1.4c-1.3,0-2.4,0.8-2.4,1.9c0,2.8,7.3,2.1,7.3,7.1c0,2.5-1.9,4.6-5.1,4.6
		c-3.5,0-5.4-2.1-5.4-2.1L1028,29.9z"/>
	<path fill="#FFFFFF" d="M1039.9,25h-1.5v-2.2h1.5v-3.2h2.7v3.2h2.6V25h-2.6v4.4c0,1.8,1.5,2.1,2.2,2.1c0.3,0,0.5,0,0.5,0v2.4
		c0,0-0.3,0.1-0.9,0.1c-1.6,0-4.7-0.5-4.7-4.2V25z"/>
	<path fill="#FFFFFF" d="M1047.5,22.6h2.8v6.6c0,1.4,0.4,2.3,1.7,2.3c2,0,3.1-1.8,3.1-3.8v-5.1h2.8v11.2h-2.7v-1.3
		c0-0.4,0-0.8,0-0.8h0c-0.6,1.2-2,2.3-3.9,2.3c-2.4,0-3.9-1.2-3.9-4.3V22.6z"/>
	<path fill="#FFFFFF" d="M1065.4,22.4c2.5,0,3.2,1.4,3.2,1.4h0c0,0,0-0.3,0-0.6v-4.9h2.8v15.6h-2.6v-0.9c0-0.4,0-0.7,0-0.7h0
		c0,0-0.9,1.9-3.5,1.9c-3,0-5-2.4-5-5.9C1060.3,24.7,1062.4,22.4,1065.4,22.4z M1065.9,31.8c1.5,0,2.8-1.1,2.8-3.5
		c0-1.7-0.9-3.5-2.8-3.5c-1.5,0-2.8,1.3-2.8,3.5C1063.1,30.4,1064.3,31.8,1065.9,31.8z"/>
	<path fill="#FFFFFF" d="M1073.9,35.7c0,0,0.6,0.5,1.3,0.5c0.8,0,1.5-0.5,1.9-1.5l0.4-1l-4.7-11h3.1l2.4,6.5
		c0.2,0.6,0.4,1.5,0.4,1.5h0c0,0,0.2-0.9,0.4-1.5l2.2-6.5h3.1l-5,12.9c-0.8,2-2.4,2.9-4,2.9c-1.3,0-2.3-0.7-2.3-0.7L1073.9,35.7z"/>
	<path fill="#FFFFFF" d="M1090.9,32.5c0-5.6,7.3-6.5,7.3-9.6c0-1.4-1.1-2.2-2.4-2.2c-1.8,0-2.8,1.8-2.8,1.8l-2.1-1.4
		c0,0,1.4-3.1,5.2-3.1c2.8,0,5.1,1.7,5.1,4.6c0,5-7,5.9-7.1,8.8h7.3v2.4H1091C1091,33.4,1090.9,32.9,1090.9,32.5z"/>
</g>
<g>
	<path fill="#FFFFFF" d="M466.6,76h3.4v-8.7c0-0.5,0-1.1,0-1.1h0c0,0-0.2,0.4-0.7,0.9l-1.3,1.2l-1.7-1.8l3.9-3.8h2.5V76h3.4v2.4
		h-9.5V76z"/>
	<path fill="#FFFFFF" d="M477.8,77c0-5.6,7.3-6.5,7.3-9.6c0-1.4-1.1-2.2-2.4-2.2c-1.8,0-2.8,1.8-2.8,1.8l-2.1-1.4
		c0,0,1.4-3.1,5.2-3.1c2.8,0,5.1,1.7,5.1,4.6c0,5-7,5.9-7.1,8.8h7.3v2.4h-10.4C477.9,77.9,477.8,77.5,477.8,77z"/>
	<path fill="#FFFFFF" d="M490.7,70.6c0-4.5,1.4-8.1,5.7-8.1s5.7,3.6,5.7,8.1s-1.4,8.1-5.7,8.1S490.7,75.1,490.7,70.6z M499.1,70.6
		c0-3-0.6-5.4-2.8-5.4s-2.8,2.4-2.8,5.4c0,3.1,0.6,5.5,2.8,5.5S499.1,73.7,499.1,70.6z"/>
	<path fill="#FFFFFF" d="M504.5,70.6c0-4.5,1.4-8.1,5.7-8.1s5.7,3.6,5.7,8.1s-1.4,8.1-5.7,8.1S504.5,75.1,504.5,70.6z M512.9,70.6
		c0-3-0.6-5.4-2.8-5.4s-2.8,2.4-2.8,5.4c0,3.1,0.6,5.5,2.8,5.5S512.9,73.7,512.9,70.6z"/>
	<path fill="#FFFFFF" d="M524,67.2h2.7v1.3c0,0.4,0,0.8,0,0.8h0c0.6-1.1,1.9-2.3,3.7-2.3c1.7,0,2.8,0.8,3.3,2.3h0
		c0.6-1.2,2.1-2.3,3.8-2.3c2.3,0,3.7,1.3,3.7,4.3v7.2h-2.8v-6.7c0-1.3-0.2-2.2-1.5-2.2c-1.4,0-2.4,1.1-2.7,2.6
		c-0.1,0.4-0.1,0.9-0.1,1.5v4.9h-2.8v-6.7c0-1.2-0.2-2.2-1.5-2.2c-1.5,0-2.4,1.1-2.8,2.6c-0.1,0.4-0.1,0.9-0.1,1.4v4.9H524V67.2z"/>
	<path fill="#FFFFFF" d="M548.3,80.7c1.7,0,3.2-0.7,3.2-2.7v-0.7c0-0.3,0-0.6,0-0.6h0c-0.7,1-1.6,1.5-3.1,1.5c-3.2,0-5-2.6-5-5.7
		c0-3.1,1.7-5.6,5-5.6c2.4,0,3.3,1.4,3.3,1.4h0.1c0,0,0-0.1,0-0.3v-0.9h2.6v10.5c0,3.9-3,5.3-5.9,5.3c-1.4,0-2.9-0.4-4-1l0.8-2.1
		C545.2,80,546.6,80.7,548.3,80.7z M551.6,72.6c0-2.6-1.3-3.2-2.8-3.2c-1.7,0-2.6,1.2-2.6,3.1c0,2,1,3.4,2.8,3.4
		C550.3,75.9,551.6,75.1,551.6,72.6z"/>
	<path fill="#FFFFFF" d="M475.1,93.9c0-3.2,0.9-6.1,2.6-8.8h2.4c-1.6,2.7-2.5,5.7-2.5,8.8c0,3.3,0.8,6.6,2.5,9.6h-2.4
		C476.1,100.9,475.1,97.5,475.1,93.9z"/>
	<path fill="#FFFFFF" d="M482,90.2h2.7v1.3c0,0.4,0,0.8,0,0.8h0c0.5-0.9,1.7-2.3,4-2.3c2.5,0,3.9,1.3,3.9,4.3v7.2h-2.8v-6.6
		c0-1.4-0.4-2.3-1.8-2.3c-1.5,0-2.6,0.9-3,2.3c-0.2,0.5-0.2,1-0.2,1.5v5.1H482V90.2z"/>
	<path fill="#FFFFFF" d="M495.8,91.8h10.7V94h-10.7V91.8z M495.8,96.3h10.7v2.2h-10.7V96.3z"/>
	<path fill="#FFFFFF" d="M509.5,94.3c0-4.1,2.4-8.7,7.2-8.7c2,0,3.2,0.7,3.2,0.7l-0.8,2.4c0,0-1-0.5-2.2-0.5c-2.5,0-3.8,2-4.2,4.2h0
		c0.5-0.6,1.8-1.1,2.9-1.1c3.1,0,5,2.4,5,5.2c0,2.9-2,5.2-5.1,5.2C512.2,101.7,509.5,99,509.5,94.3z M517.8,96.5
		c0-1.6-1-2.9-2.9-2.9c-1.4,0-2.6,0.7-2.6,1.7c0,2,1.4,3.8,3.1,3.8C517,99.1,517.8,97.9,517.8,96.5z"/>
	<path fill="#FFFFFF" d="M522.9,93.6c0-4.5,1.4-8.1,5.7-8.1s5.7,3.6,5.7,8.1s-1.4,8.1-5.7,8.1S522.9,98.1,522.9,93.6z M531.3,93.6
		c0-3-0.6-5.4-2.8-5.4s-2.8,2.4-2.8,5.4c0,3.1,0.6,5.5,2.8,5.5S531.3,96.7,531.3,93.6z"/>
	<path fill="#FFFFFF" d="M535.9,103.5c1.6-3,2.5-6.3,2.5-9.6c0-3.1-0.9-6.1-2.5-8.8h2.4c1.7,2.6,2.6,5.6,2.6,8.8c0,3.6-1,7-2.6,9.6
		H535.9z"/>
</g>
<g>
	<path fill="#FFFFFF" d="M670.7,76h3.4v-8.7c0-0.5,0-1.1,0-1.1h0c0,0-0.2,0.4-0.7,0.9l-1.3,1.2l-1.7-1.8l3.9-3.8h2.5V76h3.4v2.4
		h-9.5V76z"/>
	<path fill="#FFFFFF" d="M682,71.3c0-4.1,2.4-8.7,7.2-8.7c2,0,3.2,0.7,3.2,0.7l-0.8,2.4c0,0-1-0.5-2.2-0.5c-2.5,0-3.8,2-4.2,4.2h0
		c0.5-0.6,1.8-1.1,2.9-1.1c3.1,0,5,2.4,5,5.2c0,2.9-2,5.2-5.1,5.2C684.8,78.7,682,76,682,71.3z M690.3,73.5c0-1.6-1-2.9-2.9-2.9
		c-1.4,0-2.6,0.7-2.6,1.7c0,2,1.4,3.8,3.1,3.8C689.5,76.1,690.3,74.9,690.3,73.5z"/>
	<path fill="#FFFFFF" d="M695.4,70.6c0-4.5,1.4-8.1,5.7-8.1s5.7,3.6,5.7,8.1s-1.4,8.1-5.7,8.1S695.4,75.1,695.4,70.6z M703.8,70.6
		c0-3-0.6-5.4-2.8-5.4c-2.1,0-2.8,2.4-2.8,5.4c0,3.1,0.6,5.5,2.8,5.5C703.1,76.1,703.8,73.7,703.8,70.6z"/>
	<path fill="#FFFFFF" d="M709.2,70.6c0-4.5,1.4-8.1,5.7-8.1s5.7,3.6,5.7,8.1s-1.4,8.1-5.7,8.1S709.2,75.1,709.2,70.6z M717.6,70.6
		c0-3-0.6-5.4-2.8-5.4c-2.1,0-2.8,2.4-2.8,5.4c0,3.1,0.6,5.5,2.8,5.5C717,76.1,717.6,73.7,717.6,70.6z"/>
	<path fill="#FFFFFF" d="M728.7,67.2h2.7v1.3c0,0.4,0,0.8,0,0.8h0c0.5-1.1,1.9-2.3,3.7-2.3c1.7,0,2.8,0.8,3.3,2.3h0
		c0.6-1.2,2.1-2.3,3.8-2.3c2.3,0,3.7,1.3,3.7,4.3v7.2H743v-6.7c0-1.3-0.2-2.2-1.5-2.2c-1.4,0-2.4,1.1-2.7,2.6
		c-0.1,0.4-0.1,0.9-0.1,1.5v4.9h-2.8v-6.7c0-1.2-0.2-2.2-1.5-2.2c-1.5,0-2.4,1.1-2.8,2.6c-0.1,0.4-0.1,0.9-0.1,1.4v4.9h-2.8V67.2z"
		/>
	<path fill="#FFFFFF" d="M753,80.7c1.7,0,3.2-0.7,3.2-2.7v-0.7c0-0.3,0-0.6,0-0.6h0c-0.7,1-1.6,1.5-3.1,1.5c-3.2,0-5-2.6-5-5.7
		c0-3.1,1.7-5.6,5-5.6c2.4,0,3.3,1.4,3.3,1.4h0.1c0,0,0-0.1,0-0.3v-0.9h2.6v10.5c0,3.9-3,5.3-5.9,5.3c-1.4,0-2.9-0.4-4-1l0.8-2.1
		C749.9,80,751.3,80.7,753,80.7z M756.2,72.6c0-2.6-1.3-3.2-2.8-3.2c-1.7,0-2.6,1.2-2.6,3.1c0,2,1,3.4,2.8,3.4
		C755,75.9,756.2,75.1,756.2,72.6z"/>
	<path fill="#FFFFFF" d="M675.1,93.9c0-3.2,0.9-6.1,2.6-8.8h2.4c-1.6,2.7-2.5,5.7-2.5,8.8c0,3.3,0.8,6.6,2.5,9.6h-2.4
		C676.1,100.9,675.1,97.5,675.1,93.9z"/>
	<path fill="#FFFFFF" d="M682,90.2h2.7v1.3c0,0.4,0,0.8,0,0.8h0c0.5-0.9,1.7-2.3,4-2.3c2.5,0,3.9,1.3,3.9,4.3v7.2h-2.8v-6.6
		c0-1.4-0.4-2.3-1.8-2.3c-1.5,0-2.6,0.9-3,2.3c-0.2,0.5-0.2,1-0.2,1.5v5.1H682V90.2z"/>
	<path fill="#FFFFFF" d="M695.7,91.8h10.7V94h-10.7V91.8z M695.7,96.3h10.7v2.2h-10.7V96.3z"/>
	<path fill="#FFFFFF" d="M709.5,99h3.4v-8.7c0-0.5,0-1.1,0-1.1h0c0,0-0.2,0.4-0.7,0.9l-1.3,1.2l-1.7-1.8l3.9-3.8h2.5V99h3.4v2.4
		h-9.5V99z"/>
	<path fill="#FFFFFF" d="M720.7,99h3.4v-8.7c0-0.5,0-1.1,0-1.1h0c0,0-0.2,0.4-0.7,0.9l-1.3,1.2l-1.7-1.8l3.9-3.8h2.5V99h3.4v2.4
		h-9.5V99z"/>
	<path fill="#FFFFFF" d="M734.3,92.9c-0.9-0.7-1.6-1.7-1.6-3.1c0-2.2,1.6-4.3,5-4.3c2.9,0,5.1,1.6,5.1,4.3c0,1.9-1.6,3.7-1.7,3.9
		c1.1,0.7,2,1.7,2,3.3c0,2.4-2,4.6-5.5,4.6c-3.4,0-5.6-2.1-5.6-4.8C731.9,94.7,733.8,93.2,734.3,92.9z M736.3,94
		c-0.5,0.4-1.5,1.3-1.5,2.6c0,1.5,1.3,2.5,2.7,2.5c1.5,0,2.6-0.9,2.6-2.3C740.1,95.6,738.2,94.9,736.3,94z M738.9,92.7
		c0.2-0.2,1.1-1.3,1.1-2.6c0-1.2-0.9-2-2.3-2c-1.4,0-2.2,0.8-2.2,1.8C735.5,91.3,737.1,91.9,738.9,92.7z"/>
	<path fill="#FFFFFF" d="M744.7,103.5c1.6-3,2.5-6.3,2.5-9.6c0-3.1-0.9-6.1-2.5-8.8h2.4c1.7,2.6,2.6,5.6,2.6,8.8c0,3.6-1,7-2.6,9.6
		H744.7z"/>
</g>
<g>
	<path fill="#FFFFFF" d="M1079.3,76h3.4v-8.7c0-0.5,0-1.1,0-1.1h0c0,0-0.2,0.4-0.7,0.9l-1.3,1.2l-1.7-1.8l3.9-3.8h2.5V76h3.4v2.4
		h-9.5V76z"/>
	<path fill="#FFFFFF" d="M1090.6,71.3c0-4.1,2.4-8.7,7.2-8.7c2,0,3.2,0.7,3.2,0.7l-0.8,2.4c0,0-1-0.5-2.2-0.5c-2.5,0-3.8,2-4.2,4.2
		h0c0.5-0.6,1.8-1.1,2.9-1.1c3.1,0,5,2.4,5,5.2c0,2.9-2,5.2-5.1,5.2C1093.4,78.7,1090.6,76,1090.6,71.3z M1098.9,73.5
		c0-1.6-1-2.9-2.9-2.9c-1.4,0-2.6,0.7-2.6,1.7c0,2,1.4,3.8,3.1,3.8C1098.1,76.1,1098.9,74.9,1098.9,73.5z"/>
	<path fill="#FFFFFF" d="M1104,70.6c0-4.5,1.4-8.1,5.7-8.1s5.7,3.6,5.7,8.1s-1.4,8.1-5.7,8.1S1104,75.1,1104,70.6z M1112.4,70.6
		c0-3-0.6-5.4-2.8-5.4c-2.1,0-2.8,2.4-2.8,5.4c0,3.1,0.6,5.5,2.8,5.5C1111.8,76.1,1112.4,73.7,1112.4,70.6z"/>
	<path fill="#FFFFFF" d="M1117.8,70.6c0-4.5,1.4-8.1,5.7-8.1s5.7,3.6,5.7,8.1s-1.4,8.1-5.7,8.1S1117.8,75.1,1117.8,70.6z
		 M1126.2,70.6c0-3-0.6-5.4-2.8-5.4c-2.1,0-2.8,2.4-2.8,5.4c0,3.1,0.6,5.5,2.8,5.5C1125.6,76.1,1126.2,73.7,1126.2,70.6z"/>
	<path fill="#FFFFFF" d="M1137.3,67.2h2.7v1.3c0,0.4,0,0.8,0,0.8h0c0.5-1.1,1.9-2.3,3.7-2.3c1.7,0,2.8,0.8,3.3,2.3h0
		c0.6-1.2,2.1-2.3,3.8-2.3c2.3,0,3.7,1.3,3.7,4.3v7.2h-2.8v-6.7c0-1.3-0.2-2.2-1.5-2.2c-1.4,0-2.4,1.1-2.7,2.6
		c-0.1,0.4-0.1,0.9-0.1,1.5v4.9h-2.8v-6.7c0-1.2-0.2-2.2-1.5-2.2c-1.5,0-2.4,1.1-2.8,2.6c-0.1,0.4-0.1,0.9-0.1,1.4v4.9h-2.8V67.2z"
		/>
	<path fill="#FFFFFF" d="M1161.6,80.7c1.7,0,3.2-0.7,3.2-2.7v-0.7c0-0.3,0-0.6,0-0.6h0c-0.7,1-1.6,1.5-3.1,1.5c-3.2,0-5-2.6-5-5.7
		c0-3.1,1.7-5.6,5-5.6c2.4,0,3.3,1.4,3.3,1.4h0.1c0,0,0-0.1,0-0.3v-0.9h2.6v10.5c0,3.9-3,5.3-5.9,5.3c-1.4,0-2.9-0.4-4-1l0.8-2.1
		C1158.5,80,1159.9,80.7,1161.6,80.7z M1164.8,72.6c0-2.6-1.3-3.2-2.8-3.2c-1.7,0-2.6,1.2-2.6,3.1c0,2,1,3.4,2.8,3.4
		C1163.6,75.9,1164.8,75.1,1164.8,72.6z"/>
	<path fill="#FFFFFF" d="M1082.2,93.9c0-3.2,0.9-6.1,2.6-8.8h2.4c-1.6,2.7-2.5,5.7-2.5,8.8c0,3.3,0.8,6.6,2.5,9.6h-2.4
		C1083.2,100.9,1082.2,97.5,1082.2,93.9z"/>
	<path fill="#FFFFFF" d="M1089.1,90.2h2.7v1.3c0,0.4,0,0.8,0,0.8h0c0.5-0.9,1.7-2.3,4-2.3c2.5,0,3.9,1.3,3.9,4.3v7.2h-2.8v-6.6
		c0-1.4-0.4-2.3-1.8-2.3c-1.5,0-2.6,0.9-3,2.3c-0.2,0.5-0.2,1-0.2,1.5v5.1h-2.8V90.2z"/>
	<path fill="#FFFFFF" d="M1102.9,91.8h10.7V94h-10.7V91.8z M1102.9,96.3h10.7v2.2h-10.7V96.3z"/>
	<path fill="#FFFFFF" d="M1116.6,99h3.4v-8.7c0-0.5,0-1.1,0-1.1h0c0,0-0.2,0.4-0.7,0.9l-1.3,1.2l-1.7-1.8l3.9-3.8h2.5V99h3.4v2.4
		h-9.5V99z"/>
	<path fill="#FFFFFF" d="M1127.9,93.6c0-4.5,1.4-8.1,5.7-8.1s5.7,3.6,5.7,8.1s-1.4,8.1-5.7,8.1S1127.9,98.1,1127.9,93.6z
		 M1136.3,93.6c0-3-0.6-5.4-2.8-5.4c-2.1,0-2.8,2.4-2.8,5.4c0,3.1,0.6,5.5,2.8,5.5C1135.7,99.1,1136.3,96.7,1136.3,93.6z"/>
	<path fill="#FFFFFF" d="M1141.8,93.6c0-4.5,1.4-8.1,5.7-8.1s5.7,3.6,5.7,8.1s-1.4,8.1-5.7,8.1S1141.8,98.1,1141.8,93.6z
		 M1150.2,93.6c0-3-0.6-5.4-2.8-5.4c-2.1,0-2.8,2.4-2.8,5.4c0,3.1,0.6,5.5,2.8,5.5C1149.5,99.1,1150.2,96.7,1150.2,93.6z"/>
	<path fill="#FFFFFF" d="M1154.8,103.5c1.6-3,2.5-6.3,2.5-9.6c0-3.1-0.9-6.1-2.5-8.8h2.4c1.7,2.6,2.6,5.6,2.6,8.8c0,3.6-1,7-2.6,9.6
		H1154.8z"/>
</g>
<g>
	<path fill="#FFFFFF" d="M875.5,76h3.4v-8.7c0-0.5,0-1.1,0-1.1h0c0,0-0.2,0.4-0.7,0.9l-1.3,1.2l-1.7-1.8l3.9-3.8h2.5V76h3.4v2.4
		h-9.5V76z"/>
	<path fill="#FFFFFF" d="M886.7,77c0-5.6,7.3-6.5,7.3-9.6c0-1.4-1.1-2.2-2.4-2.2c-1.8,0-2.8,1.8-2.8,1.8l-2.1-1.4
		c0,0,1.4-3.1,5.2-3.1c2.8,0,5.1,1.7,5.1,4.6c0,5-7,5.9-7.1,8.8h7.3v2.4h-10.4C886.7,77.9,886.7,77.5,886.7,77z"/>
	<path fill="#FFFFFF" d="M899.6,70.6c0-4.5,1.4-8.1,5.7-8.1s5.7,3.6,5.7,8.1s-1.4,8.1-5.7,8.1S899.6,75.1,899.6,70.6z M908,70.6
		c0-3-0.6-5.4-2.8-5.4c-2.1,0-2.8,2.4-2.8,5.4c0,3.1,0.6,5.5,2.8,5.5C907.4,76.1,908,73.7,908,70.6z"/>
	<path fill="#FFFFFF" d="M913.4,70.6c0-4.5,1.4-8.1,5.7-8.1s5.7,3.6,5.7,8.1s-1.4,8.1-5.7,8.1S913.4,75.1,913.4,70.6z M921.8,70.6
		c0-3-0.6-5.4-2.8-5.4c-2.1,0-2.8,2.4-2.8,5.4c0,3.1,0.6,5.5,2.8,5.5C921.2,76.1,921.8,73.7,921.8,70.6z"/>
	<path fill="#FFFFFF" d="M932.9,67.2h2.7v1.3c0,0.4,0,0.8,0,0.8h0c0.5-1.1,1.9-2.3,3.7-2.3c1.7,0,2.8,0.8,3.3,2.3h0
		c0.6-1.2,2.1-2.3,3.8-2.3c2.3,0,3.7,1.3,3.7,4.3v7.2h-2.8v-6.7c0-1.3-0.2-2.2-1.5-2.2c-1.4,0-2.4,1.1-2.7,2.6
		c-0.1,0.4-0.1,0.9-0.1,1.5v4.9h-2.8v-6.7c0-1.2-0.2-2.2-1.5-2.2c-1.5,0-2.4,1.1-2.8,2.6c-0.1,0.4-0.1,0.9-0.1,1.4v4.9h-2.8V67.2z"
		/>
	<path fill="#FFFFFF" d="M957.2,80.7c1.7,0,3.2-0.7,3.2-2.7v-0.7c0-0.3,0-0.6,0-0.6h0c-0.7,1-1.6,1.5-3.1,1.5c-3.2,0-5-2.6-5-5.7
		c0-3.1,1.7-5.6,5-5.6c2.4,0,3.3,1.4,3.3,1.4h0.1c0,0,0-0.1,0-0.3v-0.9h2.6v10.5c0,3.9-3,5.3-5.9,5.3c-1.4,0-2.9-0.4-4-1l0.8-2.1
		C954.1,80,955.5,80.7,957.2,80.7z M960.5,72.6c0-2.6-1.3-3.2-2.8-3.2c-1.7,0-2.6,1.2-2.6,3.1c0,2,1,3.4,2.8,3.4
		C959.2,75.9,960.5,75.1,960.5,72.6z"/>
	<path fill="#FFFFFF" d="M884.5,93.9c0-3.2,0.9-6.1,2.6-8.8h2.4c-1.6,2.7-2.5,5.7-2.5,8.8c0,3.3,0.8,6.6,2.5,9.6h-2.4
		C885.5,100.9,884.5,97.5,884.5,93.9z"/>
	<path fill="#FFFFFF" d="M891.4,90.2h2.7v1.3c0,0.4,0,0.8,0,0.8h0c0.5-0.9,1.7-2.3,4-2.3c2.5,0,3.9,1.3,3.9,4.3v7.2h-2.8v-6.6
		c0-1.4-0.4-2.3-1.8-2.3c-1.5,0-2.6,0.9-3,2.3c-0.2,0.5-0.2,1-0.2,1.5v5.1h-2.8V90.2z"/>
	<path fill="#FFFFFF" d="M905.1,91.8h10.7V94h-10.7V91.8z M905.1,96.3h10.7v2.2h-10.7V96.3z"/>
	<path fill="#FFFFFF" d="M920.1,97.5c0,0,1.3,1.6,3.3,1.6c1.5,0,2.9-1,2.9-2.7c0-1.6-1.4-2.7-3.1-2.7c-1.4,0-2.4,0.7-2.4,0.7
		l-1.6-0.6l0.7-7.9h8.2v2.4h-5.8l-0.2,2.6c0,0.4-0.1,0.7-0.1,0.7h0c0,0,0.7-0.4,1.7-0.4c3.5,0,5.5,2.3,5.5,5.1
		c0,3.1-2.4,5.4-5.6,5.4c-3.3,0-5-2.1-5-2.1L920.1,97.5z"/>
	<path fill="#FFFFFF" d="M930.8,95.7l6.7-9.9h3.4v9.2h2v2.4h-2v4h-2.8v-4h-7.3V95.7z M938.1,95.1v-4.8c0-0.8,0.1-1.6,0.1-1.6h0
		c0,0-0.4,0.8-0.8,1.4l-3.6,5v0H938.1z"/>
	<path fill="#FFFFFF" d="M944.3,103.5c1.6-3,2.5-6.3,2.5-9.6c0-3.1-0.9-6.1-2.5-8.8h2.4c1.7,2.6,2.6,5.6,2.6,8.8c0,3.6-1,7-2.6,9.6
		H944.3z"/>
</g>
<g>
	<path fill="#6D6F70" d="M14.6,219.4l0.8-2.4c0,0,1,0.5,2.2,0.5c2.5,0,3.8-2,4.2-4.2h0c-0.5,0.6-1.8,1.1-2.9,1.1c-3.1,0-5-2.4-5-5.2
		c0-2.9,2-5.2,5.1-5.2c3.3,0,6,2.7,6,7.4c0,4.1-2.4,8.7-7.2,8.7C15.8,220.1,14.6,219.4,14.6,219.4z M22,210.4c0-2-1.5-3.8-3.1-3.8
		c-1.5,0-2.4,1.1-2.4,2.6c0,1.6,1,2.9,2.9,2.9C20.9,212.1,22,211.3,22,210.4z"/>
	<path fill="#6D6F70" d="M28.5,215.9c0,0,1.3,1.6,3.3,1.6c1.5,0,2.9-1,2.9-2.7c0-1.6-1.4-2.7-3.1-2.7c-1.4,0-2.4,0.7-2.4,0.7
		l-1.6-0.6l0.7-7.9h8.2v2.4h-5.8l-0.2,2.6c0,0.4-0.1,0.7-0.1,0.7h0c0,0,0.7-0.4,1.7-0.4c3.5,0,5.5,2.3,5.5,5.1
		c0,3.1-2.4,5.4-5.6,5.4c-3.3,0-5-2.1-5-2.1L28.5,215.9z"/>
	<path fill="#6D6F70" d="M39.5,207.4c0-1.9,1.6-3.5,3.6-3.5c2,0,3.6,1.6,3.6,3.5c0,1.9-1.6,3.5-3.6,3.5
		C41.1,210.9,39.5,209.4,39.5,207.4z M52,204.2h2.6l-12,15.6H40L52,204.2z M44.5,207.4c0-0.8-0.7-1.5-1.5-1.5
		c-0.8,0-1.5,0.7-1.5,1.5c0,0.8,0.6,1.5,1.5,1.5C43.9,208.9,44.5,208.2,44.5,207.4z M51.6,213.2c2,0,3.6,1.6,3.6,3.5
		c0,1.9-1.6,3.5-3.6,3.5c-2,0-3.6-1.5-3.6-3.5C48,214.8,49.6,213.2,51.6,213.2z M51.6,218.1c0.8,0,1.5-0.6,1.5-1.5
		c0-0.8-0.7-1.5-1.5-1.5s-1.5,0.7-1.5,1.5C50.1,217.4,50.8,218.1,51.6,218.1z"/>
	<path fill="#6D6F70" d="M14.8,227.2h6c2.9,0,5,2,5,5.1s-2,5.1-5,5.1h-3.2v5.4h-2.8V227.2z M20.3,235c1.7,0,2.6-1.1,2.6-2.7
		c0-1.6-1-2.6-2.6-2.6h-2.7v5.3H20.3z"/>
	<path fill="#6D6F70" d="M27.9,231.6h2.7v1.9c0,0.4,0,0.8,0,0.8h0c0.5-1.6,1.8-2.9,3.6-2.9c0.3,0,0.5,0,0.5,0v2.8c0,0-0.3,0-0.7,0
		c-1.2,0-2.5,0.7-3.1,2.4c-0.2,0.6-0.2,1.2-0.2,1.8v4.4h-2.8V231.6z"/>
	<path fill="#6D6F70" d="M41.4,231.4c3.2,0,5,2.4,5,5.3c0,0.3-0.1,1.1-0.1,1.1h-7.7c0.2,2,1.7,3,3.4,3c1.8,0,3.2-1.2,3.2-1.2l1.1,2
		c0,0-1.7,1.6-4.5,1.6c-3.7,0-6-2.7-6-5.9C35.7,233.8,38.1,231.4,41.4,231.4z M43.6,235.8c0-1.5-1-2.3-2.2-2.3
		c-1.4,0-2.4,0.9-2.7,2.3H43.6z"/>
	<path fill="#6D6F70" d="M53,231.4c2.5,0,3.2,1.4,3.2,1.4h0c0,0,0-0.3,0-0.6v-4.9h2.8v15.6h-2.6v-0.9c0-0.4,0-0.7,0-0.7h0
		c0,0-0.9,1.9-3.5,1.9c-3,0-5-2.4-5-5.9C47.9,233.7,50.1,231.4,53,231.4z M53.6,240.7c1.5,0,2.8-1.1,2.8-3.5c0-1.7-0.9-3.5-2.8-3.5
		c-1.5,0-2.8,1.3-2.8,3.5C50.8,239.4,51.9,240.7,53.6,240.7z"/>
	<path fill="#6D6F70" d="M62.2,227.2h2.8v2.5h-2.8V227.2z M62.2,231.6h2.8v11.2h-2.8V231.6z"/>
	<path fill="#6D6F70" d="M73.3,231.4c2.9,0,4.3,1.7,4.3,1.7l-1.2,1.9c0,0-1.2-1.2-2.9-1.2c-2.1,0-3.4,1.6-3.4,3.5
		c0,1.9,1.4,3.5,3.5,3.5c1.9,0,3.3-1.4,3.3-1.4l1.1,2c0,0-1.6,1.8-4.6,1.8c-3.7,0-6.1-2.6-6.1-5.9C67.2,234,69.6,231.4,73.3,231.4z"
		/>
	<path fill="#6D6F70" d="M80.5,234H79v-2.2h1.5v-3.2h2.7v3.2h2.6v2.2h-2.6v4.4c0,1.8,1.5,2.1,2.2,2.1c0.3,0,0.5,0,0.5,0v2.4
		c0,0-0.3,0.1-0.9,0.1c-1.6,0-4.7-0.5-4.7-4.2V234z"/>
	<path fill="#6D6F70" d="M88.3,227.2h2.8v2.5h-2.8V227.2z M88.3,231.6h2.8v11.2h-2.8V231.6z"/>
	<path fill="#6D6F70" d="M99.5,231.4c3.4,0,6.2,2.4,6.2,5.9c0,3.5-2.8,5.9-6.2,5.9c-3.4,0-6.2-2.4-6.2-5.9
		C93.3,233.8,96.1,231.4,99.5,231.4z M99.5,240.7c1.8,0,3.3-1.4,3.3-3.5c0-2.1-1.5-3.5-3.3-3.5c-1.8,0-3.3,1.4-3.3,3.5
		C96.2,239.3,97.7,240.7,99.5,240.7z"/>
	<path fill="#6D6F70" d="M107.9,231.6h2.7v1.3c0,0.4,0,0.8,0,0.8h0c0.5-0.9,1.7-2.3,4-2.3c2.5,0,3.9,1.3,3.9,4.3v7.2h-2.8v-6.6
		c0-1.4-0.4-2.3-1.8-2.3c-1.5,0-2.6,0.9-3,2.3c-0.2,0.5-0.2,1-0.2,1.5v5.1h-2.8V231.6z"/>
	<path fill="#6D6F70" d="M14.4,250.2h2.8v2.5h-2.8V250.2z M14.4,254.6h2.8v11.2h-2.8V254.6z"/>
	<path fill="#6D6F70" d="M20.2,254.6h2.7v1.3c0,0.4,0,0.8,0,0.8h0c0.5-0.9,1.7-2.3,4-2.3c2.5,0,3.9,1.3,3.9,4.3v7.2H28v-6.6
		c0-1.4-0.4-2.3-1.8-2.3c-1.5,0-2.6,0.9-3,2.3c-0.2,0.5-0.2,1-0.2,1.5v5.1h-2.8V254.6z"/>
	<path fill="#6D6F70" d="M34.2,257h-1.5v-2.2h1.5v-3.2H37v3.2h2.6v2.2H37v4.4c0,1.8,1.5,2.1,2.2,2.1c0.3,0,0.5,0,0.5,0v2.4
		c0,0-0.3,0.1-0.9,0.1c-1.6,0-4.7-0.5-4.7-4.2V257z"/>
	<path fill="#6D6F70" d="M46.9,254.4c3.2,0,5,2.4,5,5.3c0,0.3-0.1,1.1-0.1,1.1h-7.7c0.2,2,1.7,3,3.4,3c1.8,0,3.2-1.2,3.2-1.2l1.1,2
		c0,0-1.7,1.6-4.5,1.6c-3.7,0-6-2.7-6-5.9C41.2,256.8,43.6,254.4,46.9,254.4z M49.1,258.8c0-1.5-1-2.3-2.2-2.3
		c-1.4,0-2.4,0.9-2.7,2.3H49.1z"/>
	<path fill="#6D6F70" d="M54.2,254.6h2.7v1.9c0,0.4,0,0.8,0,0.8h0c0.5-1.6,1.8-2.9,3.6-2.9c0.3,0,0.5,0,0.5,0v2.8c0,0-0.3,0-0.7,0
		c-1.2,0-2.5,0.7-3.1,2.4c-0.2,0.5-0.2,1.2-0.2,1.8v4.4h-2.8V254.6z"/>
	<path fill="#6D6F70" d="M61.3,254.6h2.9l2.3,7c0.2,0.7,0.4,1.7,0.4,1.7h0c0,0,0.2-1,0.4-1.7l2.3-7h2.9l-4,11.2h-3.3L61.3,254.6z"/>
	<path fill="#6D6F70" d="M80,258.8h0.4v-0.2c0-1.5-0.9-2-2.2-2c-1.6,0-3.1,1.1-3.1,1.1l-1.1-2c0,0,1.7-1.4,4.4-1.4
		c2.9,0,4.7,1.6,4.7,4.5v7h-2.6v-0.9c0-0.4,0-0.8,0-0.8h0c0,0-0.9,2-3.4,2c-2,0-3.8-1.3-3.8-3.5C73.3,259,78.1,258.8,80,258.8z
		 M77.8,263.9c1.5,0,2.5-1.6,2.5-2.9v-0.3h-0.5c-1.4,0-3.7,0.2-3.7,1.8C76.1,263.2,76.7,263.9,77.8,263.9z"/>
	<path fill="#6D6F70" d="M85.9,250.2h2.8v11.7c0,1.2,0.4,1.5,1.1,1.5c0.2,0,0.4,0,0.4,0v2.4c0,0-0.4,0.1-0.9,0.1
		c-1.5,0-3.5-0.4-3.5-3.6V250.2z"/>
</g>
<g>
	<path fill="#6D6F70" d="M283.8,238.6c0-4.1,2.4-8.7,7.2-8.7c2,0,3.2,0.7,3.2,0.7l-0.8,2.4c0,0-1-0.5-2.2-0.5c-2.5,0-3.8,2-4.2,4.2
		h0c0.5-0.6,1.8-1.1,2.9-1.1c3.1,0,5,2.4,5,5.2c0,2.9-2,5.2-5.1,5.2C286.6,246,283.8,243.3,283.8,238.6z M292.1,240.8
		c0-1.6-1-2.9-2.9-2.9c-1.4,0-2.6,0.7-2.6,1.7c0,2,1.4,3.8,3.1,3.8C291.3,243.4,292.1,242.2,292.1,240.8z"/>
	<path fill="#6D6F70" d="M298.3,241.7c0,0,1.3,1.6,3.3,1.6c1.5,0,2.9-1,2.9-2.7c0-1.6-1.4-2.7-3.1-2.7c-1.4,0-2.4,0.7-2.4,0.7
		l-1.6-0.6l0.7-7.9h8.2v2.4h-5.8l-0.2,2.6c0,0.4-0.1,0.7-0.1,0.7h0c0,0,0.7-0.4,1.7-0.4c3.5,0,5.5,2.3,5.5,5.1
		c0,3.1-2.4,5.4-5.6,5.4c-3.3,0-5-2.1-5-2.1L298.3,241.7z"/>
	<path fill="#6D6F70" d="M309.3,233.3c0-1.9,1.6-3.5,3.6-3.5c2,0,3.6,1.6,3.6,3.5c0,1.9-1.6,3.5-3.6,3.5
		C310.9,236.8,309.3,235.3,309.3,233.3z M321.8,230.1h2.6l-12,15.6h-2.6L321.8,230.1z M314.3,233.3c0-0.8-0.7-1.5-1.5-1.5
		c-0.8,0-1.5,0.7-1.5,1.5c0,0.8,0.6,1.5,1.5,1.5C313.7,234.8,314.3,234.1,314.3,233.3z M321.4,239.1c2,0,3.6,1.6,3.6,3.5
		c0,1.9-1.6,3.5-3.6,3.5c-2,0-3.6-1.5-3.6-3.5C317.8,240.6,319.4,239.1,321.4,239.1z M321.4,244c0.8,0,1.5-0.6,1.5-1.5
		c0-0.8-0.7-1.5-1.5-1.5c-0.8,0-1.5,0.7-1.5,1.5C319.9,243.3,320.6,244,321.4,244z"/>
</g>
<g>
	<path fill="#6D6F70" d="M502.9,238.8h15.4v1.3h-15.4V238.8z"/>
</g>
<g>
	<path fill="#6D6F70" d="M707.3,238.8h15.4v1.3h-15.4V238.8z"/>
</g>
<g>
	<path fill="#6D6F70" d="M911.8,238.8h15.4v1.3h-15.4V238.8z"/>
</g>
<g>
	<path fill="#6D6F70" d="M1115.9,238.8h15.4v1.3h-15.4V238.8z"/>
</g>
<g>
	<path fill="#6D6F70" d="M14.5,325.2l0.8-2.4c0,0,1,0.5,2.2,0.5c2.5,0,3.8-2,4.2-4.2h0c-0.5,0.6-1.8,1.1-2.9,1.1c-3.1,0-5-2.4-5-5.2
		c0-2.9,2-5.2,5.1-5.2c3.3,0,6,2.7,6,7.4c0,4.1-2.4,8.7-7.2,8.7C15.8,325.9,14.5,325.2,14.5,325.2z M22,316.2c0-2-1.5-3.8-3.1-3.8
		c-1.5,0-2.4,1.1-2.4,2.6c0,1.6,1,2.9,2.9,2.9C20.8,317.9,22,317.1,22,316.2z"/>
	<path fill="#6D6F70" d="M28.5,321.6c0,0,1.3,1.6,3.3,1.6c1.5,0,2.9-1,2.9-2.7c0-1.6-1.4-2.7-3.1-2.7c-1.4,0-2.4,0.7-2.4,0.7
		l-1.6-0.6l0.7-7.9h8.2v2.4h-5.8l-0.2,2.6c0,0.4-0.1,0.7-0.1,0.7h0c0,0,0.7-0.4,1.7-0.4c3.5,0,5.5,2.3,5.5,5.1
		c0,3.1-2.4,5.4-5.6,5.4c-3.3,0-5-2.1-5-2.1L28.5,321.6z"/>
	<path fill="#6D6F70" d="M39.4,313.2c0-1.9,1.6-3.5,3.6-3.5c2,0,3.6,1.6,3.6,3.5c0,1.9-1.6,3.5-3.6,3.5
		C41.1,316.7,39.4,315.1,39.4,313.2z M52,310h2.6l-12,15.6H40L52,310z M44.5,313.2c0-0.8-0.7-1.5-1.5-1.5c-0.8,0-1.5,0.7-1.5,1.5
		c0,0.8,0.6,1.5,1.5,1.5C43.8,314.7,44.5,314,44.5,313.2z M51.6,319c2,0,3.6,1.6,3.6,3.5c0,1.9-1.6,3.5-3.6,3.5
		c-2,0-3.6-1.5-3.6-3.5C48,320.5,49.6,319,51.6,319z M51.6,323.9c0.8,0,1.5-0.6,1.5-1.5c0-0.8-0.7-1.5-1.5-1.5s-1.5,0.7-1.5,1.5
		C50.1,323.2,50.8,323.9,51.6,323.9z"/>
	<path fill="#6D6F70" d="M21.7,332.7c3.8,0,5.8,2.1,5.8,2.1l-1.4,2.1c0,0-1.8-1.7-4.3-1.7c-3.3,0-5.2,2.5-5.2,5.4c0,3,2,5.6,5.3,5.6
		c2.7,0,4.5-2,4.5-2l1.5,2c0,0-2.2,2.5-6.1,2.5c-4.8,0-8.1-3.5-8.1-8.1C13.7,336.2,17.1,332.7,21.7,332.7z"/>
	<path fill="#6D6F70" d="M35.4,337.1c3.4,0,6.2,2.4,6.2,5.9c0,3.5-2.8,5.9-6.2,5.9c-3.4,0-6.2-2.4-6.2-5.9
		C29.3,339.6,32,337.1,35.4,337.1z M35.4,346.5c1.8,0,3.3-1.4,3.3-3.5c0-2.1-1.5-3.5-3.3-3.5c-1.8,0-3.3,1.4-3.3,3.5
		C32.1,345.1,33.6,346.5,35.4,346.5z"/>
	<path fill="#6D6F70" d="M43.8,337.4h2.7v1.3c0,0.4,0,0.8,0,0.8h0c0.5-0.9,1.7-2.3,4-2.3c2.5,0,3.9,1.3,3.9,4.3v7.2h-2.8V342
		c0-1.4-0.4-2.3-1.8-2.3c-1.5,0-2.6,0.9-3,2.3c-0.2,0.5-0.2,1-0.2,1.5v5.1h-2.8V337.4z"/>
	<path fill="#6D6F70" d="M65,339.6h-4.3v9h-2.8v-9h-1.4v-2.2h1.4v-0.3c0-3.7,3-4.2,4.6-4.2c0.6,0,0.9,0.1,0.9,0.1v2.4
		c0,0-0.2,0-0.6,0c-0.8,0-2.2,0.2-2.2,1.8v0.3h7.1v11.2H65V339.6z M65,333h2.8v2.5H65V333z"/>
	<path fill="#6D6F70" d="M75.2,337.1c2.5,0,3.2,1.4,3.2,1.4h0c0,0,0-0.3,0-0.6V333h2.8v15.6h-2.6v-0.9c0-0.4,0-0.7,0-0.7h0
		c0,0-0.9,1.9-3.5,1.9c-3,0-5-2.4-5-5.9C70.1,339.4,72.2,337.1,75.2,337.1z M75.7,346.5c1.5,0,2.8-1.1,2.8-3.5
		c0-1.7-0.9-3.5-2.8-3.5c-1.5,0-2.8,1.3-2.8,3.5C72.9,345.1,74,346.5,75.7,346.5z"/>
	<path fill="#6D6F70" d="M89.2,337.1c3.2,0,5,2.4,5,5.3c0,0.3-0.1,1.1-0.1,1.1h-7.7c0.2,2,1.7,3,3.4,3c1.8,0,3.2-1.2,3.2-1.2l1.1,2
		c0,0-1.7,1.6-4.5,1.6c-3.7,0-6-2.7-6-5.9C83.5,339.6,85.8,337.1,89.2,337.1z M91.3,341.6c0-1.5-1-2.3-2.2-2.3
		c-1.4,0-2.4,0.9-2.7,2.3H91.3z"/>
	<path fill="#6D6F70" d="M96.5,337.4h2.7v1.3c0,0.4,0,0.8,0,0.8h0c0.5-0.9,1.7-2.3,4-2.3c2.5,0,3.9,1.3,3.9,4.3v7.2h-2.8V342
		c0-1.4-0.4-2.3-1.8-2.3c-1.5,0-2.6,0.9-3,2.3c-0.2,0.5-0.2,1-0.2,1.5v5.1h-2.8V337.4z"/>
	<path fill="#6D6F70" d="M115.2,337.1c2.9,0,4.3,1.7,4.3,1.7l-1.2,1.9c0,0-1.2-1.2-2.9-1.2c-2.1,0-3.4,1.6-3.4,3.5
		c0,1.9,1.4,3.5,3.5,3.5c1.9,0,3.3-1.4,3.3-1.4l1.1,2c0,0-1.6,1.8-4.6,1.8c-3.7,0-6.1-2.6-6.1-5.9
		C109.1,339.8,111.5,337.1,115.2,337.1z"/>
	<path fill="#6D6F70" d="M126.9,337.1c3.2,0,5,2.4,5,5.3c0,0.3-0.1,1.1-0.1,1.1H124c0.2,2,1.7,3,3.4,3c1.8,0,3.2-1.2,3.2-1.2l1.1,2
		c0,0-1.7,1.6-4.5,1.6c-3.7,0-6-2.7-6-5.9C121.2,339.6,123.5,337.1,126.9,337.1z M129,341.6c0-1.5-1-2.3-2.2-2.3
		c-1.4,0-2.4,0.9-2.7,2.3H129z"/>
	<path fill="#6D6F70" d="M14.3,356h2.8v2.5h-2.8V356z M14.3,360.4h2.8v11.2h-2.8V360.4z"/>
	<path fill="#6D6F70" d="M20.2,360.4h2.7v1.3c0,0.4,0,0.8,0,0.8h0c0.5-0.9,1.7-2.3,4-2.3c2.5,0,3.9,1.3,3.9,4.3v7.2H28V365
		c0-1.4-0.4-2.3-1.8-2.3c-1.5,0-2.6,0.9-3,2.3c-0.2,0.5-0.2,1-0.2,1.5v5.1h-2.8V360.4z"/>
	<path fill="#6D6F70" d="M34.2,362.8h-1.5v-2.2h1.5v-3.2H37v3.2h2.6v2.2H37v4.4c0,1.8,1.5,2.1,2.2,2.1c0.3,0,0.5,0,0.5,0v2.4
		c0,0-0.3,0.1-0.9,0.1c-1.6,0-4.7-0.5-4.7-4.2V362.8z"/>
	<path fill="#6D6F70" d="M46.9,360.1c3.2,0,5,2.4,5,5.3c0,0.3-0.1,1.1-0.1,1.1h-7.7c0.2,2,1.7,3,3.4,3c1.8,0,3.2-1.2,3.2-1.2l1.1,2
		c0,0-1.7,1.6-4.5,1.6c-3.7,0-6-2.7-6-5.9C41.2,362.6,43.6,360.1,46.9,360.1z M49.1,364.6c0-1.5-1-2.3-2.2-2.3
		c-1.4,0-2.4,0.9-2.7,2.3H49.1z"/>
	<path fill="#6D6F70" d="M54.2,360.4h2.7v1.9c0,0.4,0,0.8,0,0.8h0c0.5-1.6,1.8-2.9,3.6-2.9c0.3,0,0.5,0,0.5,0v2.8c0,0-0.3,0-0.7,0
		c-1.2,0-2.5,0.7-3.1,2.4c-0.2,0.5-0.2,1.2-0.2,1.8v4.4h-2.8V360.4z"/>
	<path fill="#6D6F70" d="M61.3,360.4h2.9l2.3,7c0.2,0.7,0.4,1.7,0.4,1.7h0c0,0,0.2-1,0.4-1.7l2.3-7h2.9l-4,11.2h-3.3L61.3,360.4z"/>
	<path fill="#6D6F70" d="M79.9,364.6h0.4v-0.2c0-1.5-0.9-2-2.2-2c-1.6,0-3.1,1.1-3.1,1.1l-1.1-2c0,0,1.7-1.4,4.4-1.4
		c2.9,0,4.7,1.6,4.7,4.5v7h-2.6v-0.9c0-0.4,0-0.8,0-0.8h0c0,0-0.9,2-3.4,2c-2,0-3.8-1.3-3.8-3.5C73.3,364.8,78.1,364.6,79.9,364.6z
		 M77.8,369.7c1.5,0,2.5-1.6,2.5-2.9v-0.3h-0.5c-1.4,0-3.7,0.2-3.7,1.8C76.1,369,76.7,369.7,77.8,369.7z"/>
	<path fill="#6D6F70" d="M85.8,356h2.8v11.7c0,1.2,0.4,1.5,1.1,1.5c0.2,0,0.4,0,0.4,0v2.4c0,0-0.4,0.1-0.9,0.1
		c-1.5,0-3.5-0.4-3.5-3.6V356z"/>
</g>
<g>
	<path fill="#6D6F70" d="M296.5,341.1h15.4v1.3h-15.4V341.1z"/>
</g>
<g>
	<path fill="#6D6F70" d="M462.7,345c0,0,1.6,1.8,4,1.8c1.8,0,3.5-1.4,3.5-3.3c0-2.2-1.9-3.3-3.9-3.3h-1.1l-0.4-0.9l3.9-4.5
		c0.4-0.5,0.8-0.9,0.8-0.9v0c0,0-0.4,0.1-1.3,0.1h-5.8v-1.4h9v1l-4.6,5.3c2,0.1,4.8,1.2,4.8,4.6c0,2.6-2.2,4.8-5.1,4.8
		c-3,0-4.9-2.1-4.9-2.1L462.7,345z"/>
	<path fill="#6D6F70" d="M475,345c0,0,1.6,1.8,4,1.8c1.8,0,3.5-1.4,3.5-3.3c0-2.2-1.9-3.3-3.9-3.3h-1.1l-0.4-0.9l3.9-4.5
		c0.4-0.5,0.8-0.9,0.8-0.9v0c0,0-0.4,0.1-1.3,0.1h-5.8v-1.4h9v1l-4.6,5.3c2,0.1,4.8,1.2,4.8,4.6c0,2.6-2.2,4.8-5.1,4.8
		c-3,0-4.9-2.1-4.9-2.1L475,345z"/>
	<path fill="#6D6F70" d="M486.7,335.3c0-1.7,1.4-3.1,3.1-3.1s3.1,1.4,3.1,3.1c0,1.7-1.4,3.1-3.1,3.1S486.7,337,486.7,335.3z
		 M498.6,332.5h1.6L488.4,348h-1.6L498.6,332.5z M491.6,335.3c0-1-0.8-1.8-1.8-1.8s-1.8,0.8-1.8,1.8c0,1,0.8,1.8,1.8,1.8
		S491.6,336.3,491.6,335.3z M497.2,342.2c1.7,0,3.1,1.4,3.1,3.1c0,1.7-1.4,3-3.1,3s-3.1-1.4-3.1-3
		C494.2,343.5,495.5,342.2,497.2,342.2z M497.2,347c1,0,1.8-0.8,1.8-1.8c0-1-0.8-1.8-1.8-1.8s-1.8,0.8-1.8,1.8
		C495.5,346.2,496.2,347,497.2,347z"/>
	<path fill="#6D6F70" d="M503.8,341.1h11v1.3h-11V341.1z"/>
	<path fill="#6D6F70" d="M519.5,344c0,0,1.3,1.6,3.3,1.6c1.5,0,2.9-1,2.9-2.7c0-1.6-1.4-2.7-3.1-2.7c-1.4,0-2.4,0.7-2.4,0.7
		l-1.6-0.6l0.7-7.9h8.2v2.4h-5.8l-0.2,2.6c0,0.4-0.1,0.7-0.1,0.7h0c0,0,0.7-0.4,1.7-0.4c3.5,0,5.5,2.3,5.5,5.1
		c0,3.1-2.4,5.4-5.6,5.4c-3.3,0-5-2.1-5-2.1L519.5,344z"/>
	<path fill="#6D6F70" d="M533.1,339.4c-0.9-0.7-1.6-1.7-1.6-3.1c0-2.2,1.6-4.3,5-4.3c2.9,0,5.1,1.6,5.1,4.3c0,1.9-1.6,3.7-1.7,3.9
		c1.1,0.7,2,1.7,2,3.3c0,2.4-2,4.6-5.5,4.6c-3.4,0-5.6-2.1-5.6-4.8C530.8,341.3,532.6,339.8,533.1,339.4z M535.1,340.6
		c-0.5,0.4-1.5,1.3-1.5,2.6c0,1.5,1.3,2.5,2.7,2.5c1.5,0,2.6-0.9,2.6-2.3C539,342.1,537,341.5,535.1,340.6z M537.8,339.3
		c0.2-0.2,1.1-1.3,1.1-2.6c0-1.2-0.9-2-2.3-2c-1.4,0-2.2,0.8-2.2,1.8C534.3,337.9,536,338.5,537.8,339.3z"/>
	<path fill="#6D6F70" d="M543.9,335.6c0-1.9,1.6-3.5,3.6-3.5c2,0,3.6,1.6,3.6,3.5c0,1.9-1.6,3.5-3.6,3.5
		C545.5,339.1,543.9,337.5,543.9,335.6z M556.5,332.4h2.6L547,348h-2.6L556.5,332.4z M549,335.6c0-0.8-0.7-1.5-1.5-1.5
		c-0.8,0-1.5,0.7-1.5,1.5c0,0.8,0.6,1.5,1.5,1.5C548.3,337.1,549,336.4,549,335.6z M556,341.3c2,0,3.6,1.6,3.6,3.5
		c0,1.9-1.6,3.5-3.6,3.5c-2,0-3.6-1.5-3.6-3.5C552.5,342.9,554,341.3,556,341.3z M556,346.2c0.8,0,1.5-0.6,1.5-1.5
		c0-0.8-0.7-1.5-1.5-1.5c-0.8,0-1.5,0.7-1.5,1.5C554.6,345.6,555.2,346.2,556,346.2z"/>
</g>
<g>
	<path fill="#6D6F70" d="M667.4,347c0-5.4,7.9-6.1,7.9-10.3c0-1.7-1.3-3-3.2-3c-2.3,0-3.5,2.1-3.5,2.1l-1.1-0.8c0,0,1.4-2.8,4.7-2.8
		c2.9,0,4.7,1.9,4.7,4.3c0,5.2-7.8,5.9-7.8,10h8.1v1.4h-9.7C667.5,347.7,667.4,347.3,667.4,347z"/>
	<path fill="#6D6F70" d="M679.8,346.6h3.5v-11.4c0-0.4,0-0.9,0-0.9h0c0,0-0.2,0.3-0.8,0.9l-1.7,1.6l-1-1l3.5-3.5h1.4v14.1h3.4v1.4
		h-8.4V346.6z"/>
	<path fill="#6D6F70" d="M690,335.3c0-1.7,1.4-3.1,3.1-3.1c1.7,0,3.1,1.4,3.1,3.1c0,1.7-1.4,3.1-3.1,3.1
		C691.4,338.4,690,337,690,335.3z M702,332.5h1.6L691.8,348h-1.6L702,332.5z M694.9,335.3c0-1-0.8-1.8-1.8-1.8c-1,0-1.8,0.8-1.8,1.8
		c0,1,0.8,1.8,1.8,1.8C694.1,337.2,694.9,336.3,694.9,335.3z M700.6,342.2c1.7,0,3.1,1.4,3.1,3.1c0,1.7-1.4,3-3.1,3
		c-1.7,0-3.1-1.4-3.1-3C697.5,343.5,698.8,342.2,700.6,342.2z M700.6,347c1,0,1.8-0.8,1.8-1.8c0-1-0.8-1.8-1.8-1.8
		c-1,0-1.8,0.8-1.8,1.8C698.8,346.2,699.5,347,700.6,347z"/>
	<path fill="#6D6F70" d="M707.2,341.1h11v1.3h-11V341.1z"/>
	<path fill="#6D6F70" d="M722.7,344c0,0,1.5,1.6,3.5,1.6c1.6,0,2.8-1,2.8-2.3c0-1.7-1.5-2.4-3.3-2.4h-1.1l-0.6-1.5l2.9-3.4
		c0.6-0.7,1.1-1.2,1.1-1.2v0c0,0-0.5,0.1-1.4,0.1h-4.7v-2.4h9.5v1.8l-3.8,4.4c2.2,0.3,4.3,1.8,4.3,4.6c0,2.7-2,5.1-5.5,5.1
		c-3.3,0-5.2-2.1-5.2-2.1L722.7,344z"/>
	<path fill="#6D6F70" d="M736.5,339.4c-0.9-0.7-1.6-1.7-1.6-3.1c0-2.2,1.6-4.3,5-4.3c2.9,0,5.1,1.6,5.1,4.3c0,1.9-1.6,3.7-1.7,3.9
		c1.1,0.7,2,1.7,2,3.3c0,2.4-2,4.6-5.5,4.6c-3.4,0-5.6-2.1-5.6-4.8C734.2,341.3,736.1,339.8,736.5,339.4z M738.5,340.6
		c-0.5,0.4-1.5,1.3-1.5,2.6c0,1.5,1.3,2.5,2.7,2.5c1.5,0,2.6-0.9,2.6-2.3C742.4,342.1,740.4,341.5,738.5,340.6z M741.2,339.3
		c0.2-0.2,1.1-1.3,1.1-2.6c0-1.2-0.9-2-2.3-2c-1.4,0-2.2,0.8-2.2,1.8C737.7,337.9,739.4,338.5,741.2,339.3z"/>
	<path fill="#6D6F70" d="M747.3,335.6c0-1.9,1.6-3.5,3.6-3.5s3.6,1.6,3.6,3.5c0,1.9-1.6,3.5-3.6,3.5S747.3,337.5,747.3,335.6z
		 M759.9,332.4h2.6l-12,15.6h-2.6L759.9,332.4z M752.4,335.6c0-0.8-0.7-1.5-1.5-1.5c-0.8,0-1.5,0.7-1.5,1.5c0,0.8,0.6,1.5,1.5,1.5
		C751.7,337.1,752.4,336.4,752.4,335.6z M759.5,341.3c2,0,3.6,1.6,3.6,3.5c0,1.9-1.6,3.5-3.6,3.5c-2,0-3.6-1.5-3.6-3.5
		C755.9,342.9,757.5,341.3,759.5,341.3z M759.5,346.2c0.8,0,1.5-0.6,1.5-1.5c0-0.8-0.7-1.5-1.5-1.5s-1.5,0.7-1.5,1.5
		C758,345.6,758.7,346.2,759.5,346.2z"/>
</g>
<g>
	<path fill="#6D6F70" d="M879.3,339.3c-1.1-0.7-1.9-1.7-1.9-3.1c0-2,1.5-3.9,4.7-3.9c2.9,0,4.7,1.6,4.7,4c0,2.2-1.7,4-1.9,4.2
		c1.3,0.7,2.2,1.7,2.2,3.3c0,2.4-2.1,4.5-5.1,4.5c-2.8,0-5.2-1.8-5.2-4.7C876.8,341.1,878.9,339.6,879.3,339.3z M880.5,340
		c-0.5,0.3-2.2,1.5-2.2,3.5c0,2.1,1.8,3.4,3.7,3.4c1.8,0,3.6-1.3,3.6-3.1C885.6,341.8,882.8,341.1,880.5,340z M883.6,339.9
		c0.3-0.3,1.6-1.6,1.6-3.5c0-1.7-1.3-2.7-3.2-2.7c-2,0-3.1,1.1-3.1,2.5C878.9,338.2,881.4,338.9,883.6,339.9z"/>
	<path fill="#6D6F70" d="M889.8,335.3c0-1.7,1.4-3.1,3.1-3.1c1.7,0,3.1,1.4,3.1,3.1c0,1.7-1.4,3.1-3.1,3.1
		C891.2,338.4,889.8,337,889.8,335.3z M901.8,332.5h1.6L891.5,348H890L901.8,332.5z M894.7,335.3c0-1-0.8-1.8-1.8-1.8
		c-1,0-1.8,0.8-1.8,1.8c0,1,0.8,1.8,1.8,1.8C893.9,337.2,894.7,336.3,894.7,335.3z M900.3,342.2c1.7,0,3.1,1.4,3.1,3.1
		c0,1.7-1.4,3-3.1,3c-1.7,0-3.1-1.4-3.1-3C897.3,343.5,898.6,342.2,900.3,342.2z M900.3,347c1,0,1.8-0.8,1.8-1.8
		c0-1-0.8-1.8-1.8-1.8c-1,0-1.8,0.8-1.8,1.8C898.6,346.2,899.3,347,900.3,347z"/>
	<path fill="#6D6F70" d="M906.9,341.1h11v1.3h-11V341.1z"/>
	<path fill="#6D6F70" d="M921.3,346.6c0-5.6,7.3-6.5,7.3-9.6c0-1.4-1.1-2.2-2.4-2.2c-1.8,0-2.8,1.8-2.8,1.8l-2.1-1.4
		c0,0,1.4-3.1,5.2-3.1c2.8,0,5.1,1.7,5.1,4.6c0,5-7,5.9-7.1,8.8h7.3v2.4h-10.4C921.4,347.5,921.3,347.1,921.3,346.6z"/>
	<path fill="#6D6F70" d="M934.7,347.6l0.8-2.4c0,0,1,0.5,2.2,0.5c2.5,0,3.8-2,4.2-4.2h0c-0.6,0.6-1.8,1.1-2.9,1.1
		c-3.1,0-5-2.4-5-5.2c0-2.9,2-5.2,5.1-5.2c3.3,0,6,2.7,6,7.4c0,4.1-2.4,8.7-7.2,8.7C935.9,348.3,934.7,347.6,934.7,347.6z
		 M942.2,338.6c0-2-1.5-3.8-3.1-3.8c-1.5,0-2.4,1.1-2.4,2.6c0,1.6,1,2.9,2.9,2.9C941,340.3,942.2,339.5,942.2,338.6z"/>
	<path fill="#6D6F70" d="M947.1,335.6c0-1.9,1.6-3.5,3.6-3.5s3.6,1.6,3.6,3.5c0,1.9-1.6,3.5-3.6,3.5S947.1,337.5,947.1,335.6z
		 M959.7,332.4h2.6l-12,15.6h-2.6L959.7,332.4z M952.2,335.6c0-0.8-0.7-1.5-1.5-1.5c-0.8,0-1.5,0.7-1.5,1.5c0,0.8,0.6,1.5,1.5,1.5
		C951.5,337.1,952.2,336.4,952.2,335.6z M959.2,341.3c2,0,3.6,1.6,3.6,3.5c0,1.9-1.6,3.5-3.6,3.5c-2,0-3.6-1.5-3.6-3.5
		C955.7,342.9,957.2,341.3,959.2,341.3z M959.2,346.2c0.8,0,1.5-0.6,1.5-1.5c0-0.8-0.7-1.5-1.5-1.5s-1.5,0.7-1.5,1.5
		C957.8,345.6,958.4,346.2,959.2,346.2z"/>
</g>
<g>
	<path fill="#6D6F70" d="M1083.7,339.3c-1.1-0.7-1.9-1.7-1.9-3.1c0-2,1.5-3.9,4.7-3.9c2.9,0,4.7,1.6,4.7,4c0,2.2-1.7,4-1.9,4.2
		c1.3,0.7,2.2,1.7,2.2,3.3c0,2.4-2.1,4.5-5.1,4.5c-2.8,0-5.2-1.8-5.2-4.7C1081.1,341.1,1083.3,339.6,1083.7,339.3z M1084.9,340
		c-0.5,0.3-2.2,1.5-2.2,3.5c0,2.1,1.8,3.4,3.7,3.4c1.8,0,3.6-1.3,3.6-3.1C1089.9,341.8,1087.2,341.1,1084.9,340z M1088,339.9
		c0.3-0.3,1.6-1.6,1.6-3.5c0-1.7-1.3-2.7-3.2-2.7c-2,0-3.1,1.1-3.1,2.5C1083.3,338.2,1085.8,338.9,1088,339.9z"/>
	<path fill="#6D6F70" d="M1094.2,335.3c0-1.7,1.4-3.1,3.1-3.1c1.7,0,3.1,1.4,3.1,3.1c0,1.7-1.4,3.1-3.1,3.1
		C1095.6,338.4,1094.2,337,1094.2,335.3z M1106.1,332.5h1.6l-11.8,15.5h-1.6L1106.1,332.5z M1099.1,335.3c0-1-0.8-1.8-1.8-1.8
		c-1,0-1.8,0.8-1.8,1.8c0,1,0.8,1.8,1.8,1.8C1098.3,337.2,1099.1,336.3,1099.1,335.3z M1104.7,342.2c1.7,0,3.1,1.4,3.1,3.1
		c0,1.7-1.4,3-3.1,3c-1.7,0-3.1-1.4-3.1-3C1101.6,343.5,1103,342.2,1104.7,342.2z M1104.7,347c1,0,1.8-0.8,1.8-1.8
		c0-1-0.8-1.8-1.8-1.8c-1,0-1.8,0.8-1.8,1.8C1103,346.2,1103.7,347,1104.7,347z"/>
	<path fill="#6D6F70" d="M1111.3,341.1h11v1.3h-11V341.1z"/>
	<path fill="#6D6F70" d="M1125.7,346.6c0-5.6,7.3-6.5,7.3-9.6c0-1.4-1.1-2.2-2.4-2.2c-1.8,0-2.8,1.8-2.8,1.8l-2.1-1.4
		c0,0,1.4-3.1,5.2-3.1c2.8,0,5.1,1.7,5.1,4.6c0,5-7,5.9-7.1,8.8h7.3v2.4h-10.4C1125.8,347.5,1125.7,347.1,1125.7,346.6z"/>
	<path fill="#6D6F70" d="M1138.5,346.6c0-5.6,7.3-6.5,7.3-9.6c0-1.4-1.1-2.2-2.4-2.2c-1.8,0-2.8,1.8-2.8,1.8l-2.1-1.4
		c0,0,1.4-3.1,5.2-3.1c2.8,0,5.1,1.7,5.1,4.6c0,5-7,5.9-7.1,8.8h7.3v2.4h-10.4C1138.5,347.5,1138.5,347.1,1138.5,346.6z"/>
	<path fill="#6D6F70" d="M1151,335.6c0-1.9,1.6-3.5,3.6-3.5s3.6,1.6,3.6,3.5c0,1.9-1.6,3.5-3.6,3.5S1151,337.5,1151,335.6z
		 M1163.5,332.4h2.6l-12,15.6h-2.6L1163.5,332.4z M1156,335.6c0-0.8-0.7-1.5-1.5-1.5c-0.8,0-1.5,0.7-1.5,1.5c0,0.8,0.6,1.5,1.5,1.5
		C1155.4,337.1,1156,336.4,1156,335.6z M1163.1,341.3c2,0,3.6,1.6,3.6,3.5c0,1.9-1.6,3.5-3.6,3.5c-2,0-3.6-1.5-3.6-3.5
		C1159.5,342.9,1161.1,341.3,1163.1,341.3z M1163.1,346.2c0.8,0,1.5-0.6,1.5-1.5c0-0.8-0.7-1.5-1.5-1.5s-1.5,0.7-1.5,1.5
		C1161.6,345.6,1162.3,346.2,1163.1,346.2z"/>
</g>
<g>
	<path fill="#6D6F70" d="M15.1,429.8c0,0,1.7,1.7,3.9,1.7c1.2,0,2.3-0.6,2.3-1.9c0-2.8-7.4-2.3-7.4-7.1c0-2.6,2.2-4.5,5.2-4.5
		c3.1,0,4.7,1.7,4.7,1.7l-1.2,2.3c0,0-1.5-1.4-3.5-1.4c-1.3,0-2.4,0.8-2.4,1.9c0,2.8,7.3,2.1,7.3,7.1c0,2.5-1.9,4.6-5.1,4.6
		c-3.5,0-5.4-2.1-5.4-2.1L15.1,429.8z"/>
	<path fill="#6D6F70" d="M27,425h-1.5v-2.2h1.5v-3.2h2.7v3.2h2.6v2.2h-2.6v4.4c0,1.8,1.5,2.1,2.2,2.1c0.3,0,0.5,0,0.5,0v2.4
		c0,0-0.3,0.1-0.9,0.1c-1.6,0-4.7-0.5-4.7-4.2V425z"/>
	<path fill="#6D6F70" d="M40.5,426.7h0.4v-0.2c0-1.5-0.9-2-2.2-2c-1.6,0-3.1,1.1-3.1,1.1l-1.1-2c0,0,1.7-1.4,4.4-1.4
		c2.9,0,4.7,1.6,4.7,4.5v7h-2.6v-0.9c0-0.4,0-0.8,0-0.8h0c0,0-0.9,2-3.4,2c-2,0-3.8-1.3-3.8-3.5C33.9,427,38.7,426.7,40.5,426.7z
		 M38.4,431.9c1.5,0,2.5-1.6,2.5-2.9v-0.3h-0.5c-1.4,0-3.7,0.2-3.7,1.8C36.7,431.2,37.2,431.9,38.4,431.9z"/>
	<path fill="#6D6F70" d="M47,425h-1.5v-2.2h1.5v-3.2h2.7v3.2h2.6v2.2h-2.6v4.4c0,1.8,1.5,2.1,2.2,2.1c0.3,0,0.5,0,0.5,0v2.4
		c0,0-0.3,0.1-0.9,0.1c-1.6,0-4.7-0.5-4.7-4.2V425z"/>
	<path fill="#6D6F70" d="M54.8,418.2h2.8v2.5h-2.8V418.2z M54.8,422.6h2.8v11.2h-2.8V422.6z"/>
	<path fill="#6D6F70" d="M61,430.4c0,0,1.2,1.2,3.1,1.2c0.8,0,1.5-0.4,1.5-1c0-1.7-5.5-1.5-5.5-5.1c0-2.1,1.9-3.3,4.3-3.3
		c2.5,0,3.8,1.3,3.8,1.3l-1,2.1c0,0-1-1-2.8-1c-0.7,0-1.4,0.3-1.4,1c0,1.6,5.5,1.4,5.5,5c0,1.9-1.6,3.4-4.3,3.4
		c-2.8,0-4.4-1.6-4.4-1.6L61,430.4z"/>
	<path fill="#6D6F70" d="M71.1,425h-1.5v-2.2h1.5v-3.2h2.7v3.2h2.6v2.2h-2.6v4.4c0,1.8,1.5,2.1,2.2,2.1c0.3,0,0.5,0,0.5,0v2.4
		c0,0-0.3,0.1-0.9,0.1c-1.6,0-4.7-0.5-4.7-4.2V425z"/>
	<path fill="#6D6F70" d="M78.9,418.2h2.8v2.5h-2.8V418.2z M78.9,422.6h2.8v11.2h-2.8V422.6z"/>
	<path fill="#6D6F70" d="M90.1,422.3c2.9,0,4.3,1.7,4.3,1.7l-1.2,1.9c0,0-1.2-1.2-2.9-1.2c-2.1,0-3.4,1.6-3.4,3.5
		c0,1.9,1.4,3.5,3.5,3.5c1.9,0,3.3-1.4,3.3-1.4l1.1,2c0,0-1.6,1.8-4.6,1.8c-3.7,0-6.1-2.6-6.1-5.9C84,425,86.3,422.3,90.1,422.3z"/>
	<path fill="#6D6F70" d="M102.5,426.7h0.4v-0.2c0-1.5-0.9-2-2.2-2c-1.6,0-3.1,1.1-3.1,1.1l-1.1-2c0,0,1.7-1.4,4.4-1.4
		c2.9,0,4.7,1.6,4.7,4.5v7H103v-0.9c0-0.4,0-0.8,0-0.8h0c0,0-0.9,2-3.4,2c-2,0-3.8-1.3-3.8-3.5C95.8,427,100.6,426.7,102.5,426.7z
		 M100.3,431.9c1.5,0,2.5-1.6,2.5-2.9v-0.3h-0.5c-1.4,0-3.7,0.2-3.7,1.8C98.6,431.2,99.2,431.9,100.3,431.9z"/>
	<path fill="#6D6F70" d="M108.4,418.2h2.8v11.7c0,1.2,0.4,1.5,1.1,1.5c0.2,0,0.4,0,0.4,0v2.4c0,0-0.4,0.1-0.9,0.1
		c-1.5,0-3.5-0.4-3.5-3.6V418.2z"/>
	<path fill="#6D6F70" d="M120.4,430.4c0,0,1.2,1.2,3.1,1.2c0.8,0,1.5-0.4,1.5-1c0-1.7-5.5-1.5-5.5-5.1c0-2.1,1.9-3.3,4.3-3.3
		c2.5,0,3.8,1.3,3.8,1.3l-1,2.1c0,0-1-1-2.8-1c-0.7,0-1.4,0.3-1.4,1c0,1.6,5.5,1.4,5.5,5c0,1.9-1.6,3.4-4.3,3.4
		c-2.8,0-4.4-1.6-4.4-1.6L120.4,430.4z"/>
	<path fill="#6D6F70" d="M129.9,422.6h2.8v6.6c0,1.4,0.4,2.3,1.7,2.3c2,0,3.1-1.8,3.1-3.8v-5.1h2.8v11.2h-2.7v-1.3
		c0-0.4,0-0.8,0-0.8h0c-0.5,1.2-2,2.3-3.9,2.3c-2.4,0-3.9-1.2-3.9-4.3V422.6z"/>
	<path fill="#6D6F70" d="M143.5,422.6h2.6v0.8c0,0.4,0,0.8,0,0.8h0c0,0,1-1.8,3.6-1.8c3,0,5,2.4,5,5.9c0,3.6-2.2,5.9-5.1,5.9
		c-2.2,0-3.2-1.5-3.2-1.5h0c0,0,0,0.4,0,1v4.7h-2.8V422.6z M149,431.7c1.5,0,2.8-1.3,2.8-3.5c0-2.1-1.1-3.5-2.8-3.5
		c-1.5,0-2.8,1.1-2.8,3.5C146.2,430,147.1,431.7,149,431.7z"/>
	<path fill="#6D6F70" d="M161.8,422.3c3.2,0,5,2.4,5,5.3c0,0.3-0.1,1.1-0.1,1.1H159c0.2,2,1.7,3,3.4,3c1.8,0,3.2-1.2,3.2-1.2l1.1,2
		c0,0-1.7,1.6-4.5,1.6c-3.7,0-6-2.7-6-5.9C156.1,424.7,158.5,422.3,161.8,422.3z M164,426.8c0-1.5-1-2.3-2.2-2.3
		c-1.4,0-2.4,0.9-2.7,2.3H164z"/>
	<path fill="#6D6F70" d="M169.1,422.6h2.7v1.9c0,0.4,0,0.8,0,0.8h0c0.5-1.6,1.8-2.9,3.6-2.9c0.3,0,0.5,0,0.5,0v2.8c0,0-0.3,0-0.7,0
		c-1.2,0-2.5,0.7-3.1,2.4c-0.2,0.5-0.2,1.2-0.2,1.8v4.4h-2.8V422.6z"/>
	<path fill="#6D6F70" d="M177.7,418.2h2.8v2.5h-2.8V418.2z M177.7,422.6h2.8v11.2h-2.8V422.6z"/>
	<path fill="#6D6F70" d="M188.9,422.3c3.4,0,6.2,2.4,6.2,5.9c0,3.5-2.8,5.9-6.2,5.9c-3.4,0-6.2-2.4-6.2-5.9
		C182.8,424.7,185.5,422.3,188.9,422.3z M189,431.7c1.8,0,3.3-1.4,3.3-3.5c0-2.1-1.5-3.5-3.3-3.5c-1.8,0-3.3,1.4-3.3,3.5
		C185.6,430.3,187.1,431.7,189,431.7z"/>
	<path fill="#6D6F70" d="M197.4,422.6h2.7v1.9c0,0.4,0,0.8,0,0.8h0c0.5-1.6,1.8-2.9,3.6-2.9c0.3,0,0.5,0,0.5,0v2.8c0,0-0.3,0-0.7,0
		c-1.2,0-2.5,0.7-3.1,2.4c-0.2,0.5-0.2,1.2-0.2,1.8v4.4h-2.8V422.6z"/>
	<path fill="#6D6F70" d="M206,418.2h2.8v2.5H206V418.2z M206,422.6h2.8v11.2H206V422.6z"/>
	<path fill="#6D6F70" d="M212.4,425h-1.5v-2.2h1.5v-3.2h2.7v3.2h2.6v2.2h-2.6v4.4c0,1.8,1.5,2.1,2.2,2.1c0.3,0,0.5,0,0.5,0v2.4
		c0,0-0.3,0.1-0.9,0.1c-1.6,0-4.7-0.5-4.7-4.2V425z"/>
	<path fill="#6D6F70" d="M219.6,435.6c0,0,0.6,0.5,1.3,0.5c0.8,0,1.5-0.5,1.9-1.5l0.4-1l-4.7-11h3.1l2.4,6.5
		c0.2,0.6,0.4,1.5,0.4,1.5h0c0,0,0.2-0.9,0.4-1.5l2.2-6.5h3.1l-5,12.9c-0.8,2-2.4,2.9-4,2.9c-1.3,0-2.3-0.7-2.3-0.7L219.6,435.6z"/>
	<path fill="#6D6F70" d="M235.4,422.6h2.9l2.3,7c0.2,0.7,0.4,1.7,0.4,1.7h0c0,0,0.2-1,0.4-1.7l2.3-7h2.9l-4,11.2h-3.3L235.4,422.6z"
		/>
	<path fill="#6D6F70" d="M248.7,430.4c0,0,1.2,1.2,3.1,1.2c0.8,0,1.5-0.4,1.5-1c0-1.7-5.5-1.5-5.5-5.1c0-2.1,1.9-3.3,4.3-3.3
		c2.5,0,3.8,1.3,3.8,1.3l-1,2.1c0,0-1-1-2.8-1c-0.7,0-1.4,0.3-1.4,1c0,1.6,5.5,1.4,5.5,5c0,1.9-1.6,3.4-4.3,3.4
		c-2.8,0-4.4-1.6-4.4-1.6L248.7,430.4z"/>
	<path fill="#6D6F70" d="M14.3,441.2h2.8v5.4c0,0.5,0,0.9,0,0.9h0c0.6-1.1,1.9-2.2,3.9-2.2c2.5,0,3.9,1.3,3.9,4.3v7.2h-2.8v-6.6
		c0-1.4-0.4-2.3-1.8-2.3c-1.5,0-2.6,1-3,2.3c-0.1,0.4-0.2,0.9-0.2,1.5v5.1h-2.8V441.2z"/>
	<path fill="#6D6F70" d="M27.8,441.2h2.8v2.5h-2.8V441.2z M27.8,445.6h2.8v11.2h-2.8V445.6z"/>
	<path fill="#6D6F70" d="M34,453.4c0,0,1.2,1.2,3.1,1.2c0.8,0,1.5-0.4,1.5-1c0-1.7-5.5-1.5-5.5-5.1c0-2.1,1.9-3.3,4.3-3.3
		c2.5,0,3.8,1.3,3.8,1.3l-1,2.1c0,0-1-1-2.8-1c-0.7,0-1.4,0.3-1.4,1c0,1.6,5.5,1.4,5.5,5c0,1.9-1.6,3.4-4.3,3.4
		c-2.8,0-4.4-1.6-4.4-1.6L34,453.4z"/>
	<path fill="#6D6F70" d="M44.1,448h-1.5v-2.2h1.5v-3.2h2.7v3.2h2.6v2.2h-2.6v4.4c0,1.8,1.5,2.1,2.2,2.1c0.3,0,0.5,0,0.5,0v2.4
		c0,0-0.3,0.1-0.9,0.1c-1.6,0-4.7-0.5-4.7-4.2V448z"/>
	<path fill="#6D6F70" d="M57.2,445.3c3.4,0,6.2,2.4,6.2,5.9c0,3.5-2.8,5.9-6.2,5.9c-3.4,0-6.2-2.4-6.2-5.9
		C51.1,447.7,53.8,445.3,57.2,445.3z M57.3,454.7c1.8,0,3.3-1.4,3.3-3.5c0-2.1-1.5-3.5-3.3-3.5c-1.8,0-3.3,1.4-3.3,3.5
		C53.9,453.3,55.4,454.7,57.3,454.7z"/>
	<path fill="#6D6F70" d="M65.7,445.6h2.7v1.9c0,0.4,0,0.8,0,0.8h0c0.5-1.6,1.8-2.9,3.6-2.9c0.3,0,0.5,0,0.5,0v2.8c0,0-0.3,0-0.7,0
		c-1.2,0-2.5,0.7-3.1,2.4c-0.2,0.5-0.2,1.2-0.2,1.8v4.4h-2.8V445.6z"/>
	<path fill="#6D6F70" d="M74.3,441.2h2.8v2.5h-2.8V441.2z M74.3,445.6h2.8v11.2h-2.8V445.6z"/>
	<path fill="#6D6F70" d="M85.5,445.3c2.9,0,4.3,1.7,4.3,1.7l-1.2,1.9c0,0-1.2-1.2-2.9-1.2c-2.1,0-3.4,1.6-3.4,3.5
		c0,1.9,1.4,3.5,3.5,3.5c1.9,0,3.3-1.4,3.3-1.4l1.1,2c0,0-1.6,1.8-4.6,1.8c-3.7,0-6.1-2.6-6.1-5.9C79.4,448,81.7,445.3,85.5,445.3z"
		/>
	<path fill="#6D6F70" d="M97.9,449.7h0.4v-0.2c0-1.5-0.9-2-2.2-2c-1.6,0-3.1,1.1-3.1,1.1l-1.1-2c0,0,1.7-1.4,4.4-1.4
		c2.9,0,4.7,1.6,4.7,4.5v7h-2.6v-0.9c0-0.4,0-0.8,0-0.8h0c0,0-0.9,2-3.4,2c-2,0-3.8-1.3-3.8-3.5C91.2,450,96,449.7,97.9,449.7z
		 M95.7,454.9c1.5,0,2.5-1.6,2.5-2.9v-0.3h-0.5c-1.4,0-3.7,0.2-3.7,1.8C94,454.2,94.6,454.9,95.7,454.9z"/>
	<path fill="#6D6F70" d="M103.8,441.2h2.8v11.7c0,1.2,0.4,1.5,1.1,1.5c0.2,0,0.4,0,0.4,0v2.4c0,0-0.4,0.1-0.9,0.1
		c-1.5,0-3.5-0.4-3.5-3.6V441.2z"/>
	<path fill="#6D6F70" d="M120.8,445.3c2.9,0,4.3,1.7,4.3,1.7l-1.2,1.9c0,0-1.2-1.2-2.9-1.2c-2.1,0-3.4,1.6-3.4,3.5
		c0,1.9,1.4,3.5,3.5,3.5c1.9,0,3.3-1.4,3.3-1.4l1.1,2c0,0-1.6,1.8-4.6,1.8c-3.7,0-6.1-2.6-6.1-5.9
		C114.7,448,117.1,445.3,120.8,445.3z"/>
	<path fill="#6D6F70" d="M132.8,445.3c3.4,0,6.2,2.4,6.2,5.9c0,3.5-2.8,5.9-6.2,5.9c-3.4,0-6.2-2.4-6.2-5.9
		C126.7,447.7,129.4,445.3,132.8,445.3z M132.9,454.7c1.8,0,3.3-1.4,3.3-3.5c0-2.1-1.5-3.5-3.3-3.5c-1.8,0-3.3,1.4-3.3,3.5
		C129.5,453.3,131,454.7,132.9,454.7z"/>
	<path fill="#6D6F70" d="M141.3,445.6h2.7v1.3c0,0.4,0,0.8,0,0.8h0c0.5-0.9,1.7-2.3,4-2.3c2.5,0,3.9,1.3,3.9,4.3v7.2H149v-6.6
		c0-1.4-0.4-2.3-1.8-2.3c-1.5,0-2.6,0.9-3,2.3c-0.2,0.5-0.2,1-0.2,1.5v5.1h-2.8V445.6z"/>
	<path fill="#6D6F70" d="M155.2,448h-1.5v-2.2h1.5v-3.2h2.7v3.2h2.6v2.2H158v4.4c0,1.8,1.5,2.1,2.2,2.1c0.3,0,0.5,0,0.5,0v2.4
		c0,0-0.3,0.1-0.9,0.1c-1.6,0-4.7-0.5-4.7-4.2V448z"/>
	<path fill="#6D6F70" d="M163,445.6h2.7v1.9c0,0.4,0,0.8,0,0.8h0c0.5-1.6,1.8-2.9,3.6-2.9c0.3,0,0.5,0,0.5,0v2.8c0,0-0.3,0-0.7,0
		c-1.2,0-2.5,0.7-3.1,2.4c-0.2,0.5-0.2,1.2-0.2,1.8v4.4H163V445.6z"/>
	<path fill="#6D6F70" d="M177,445.3c3.4,0,6.2,2.4,6.2,5.9c0,3.5-2.8,5.9-6.2,5.9c-3.4,0-6.2-2.4-6.2-5.9
		C170.8,447.7,173.6,445.3,177,445.3z M177,454.7c1.8,0,3.3-1.4,3.3-3.5c0-2.1-1.5-3.5-3.3-3.5c-1.8,0-3.3,1.4-3.3,3.5
		C173.7,453.3,175.2,454.7,177,454.7z"/>
	<path fill="#6D6F70" d="M185.3,441.2h2.8v11.7c0,1.2,0.4,1.5,1.1,1.5c0.2,0,0.4,0,0.4,0v2.4c0,0-0.4,0.1-0.9,0.1
		c-1.5,0-3.5-0.4-3.5-3.6V441.2z"/>
</g>
<line fill="none" stroke="#FFFFFF" stroke-width="1" stroke-miterlimit="10" x1="408" y1="50.5" x2="1226" y2="50.5"/>
<line fill="none" stroke="#FFFFFF" stroke-miterlimit="10" x1="612.9" y1="50.5" x2="612.9" y2="112.6"/>
<line fill="none" stroke="#FFFFFF" stroke-miterlimit="10" x1="817.2" y1="0" x2="817.2" y2="112.8"/>
<line fill="none" stroke="#FFFFFF" stroke-width="1.0021" stroke-miterlimit="10" x1="1021.6" y1="50.3" x2="1021.6" y2="112.1"/>
<g>
	<path fill="#6D6F70" d="M14.8,129.2h2.8v6.4h2l3.7-6.4h3.1l-4.4,7.4v0l4.7,8.1h-3.2l-3.8-6.8h-2v6.8h-2.8V129.2z"/>
	<path fill="#6D6F70" d="M27.7,137.4h6.6v2.4h-6.6V137.4z"/>
	<path fill="#6D6F70" d="M38.3,129.2h3l3.1,7.7c0.4,0.9,0.8,2.3,0.8,2.3h0c0,0,0.4-1.4,0.8-2.3l3.1-7.7h3l1.3,15.6h-2.8l-0.7-8.7
		c-0.1-1,0-2.4,0-2.4h0c0,0-0.5,1.5-0.8,2.4l-2.5,6.1h-2.5l-2.5-6.1c-0.4-0.9-0.9-2.4-0.9-2.4h0c0,0,0,1.4,0,2.4l-0.7,8.7H37
		L38.3,129.2z"/>
	<path fill="#6D6F70" d="M66,133.4c3.2,0,5,2.4,5,5.3c0,0.3-0.1,1.1-0.1,1.1h-7.7c0.2,2,1.7,3,3.4,3c1.8,0,3.2-1.2,3.2-1.2l1.1,2
		c0,0-1.7,1.6-4.5,1.6c-3.7,0-6-2.7-6-5.9C60.3,135.8,62.6,133.4,66,133.4z M68.1,137.9c0-1.5-1-2.3-2.2-2.3c-1.4,0-2.4,0.9-2.7,2.3
		H68.1z"/>
	<path fill="#6D6F70" d="M73.3,141.5c0,0,1.2,1.2,3.1,1.2c0.8,0,1.5-0.4,1.5-1c0-1.7-5.5-1.5-5.5-5.1c0-2.1,1.9-3.3,4.3-3.3
		c2.5,0,3.8,1.3,3.8,1.3l-1,2.1c0,0-1-1-2.8-1c-0.7,0-1.4,0.3-1.4,1c0,1.6,5.5,1.4,5.5,5c0,1.9-1.6,3.4-4.3,3.4
		c-2.8,0-4.4-1.7-4.4-1.7L73.3,141.5z"/>
	<path fill="#6D6F70" d="M83.1,136h-1.5v-2.2h1.5v-3.2h2.7v3.2h2.6v2.2h-2.6v4.4c0,1.8,1.5,2.1,2.2,2.1c0.3,0,0.5,0,0.5,0v2.4
		c0,0-0.3,0.1-0.9,0.1c-1.6,0-4.7-0.5-4.7-4.2V136z"/>
	<path fill="#6D6F70" d="M90.6,129.2h2.8v2.5h-2.8V129.2z M90.6,133.6h2.8v11.2h-2.8V133.6z"/>
	<path fill="#6D6F70" d="M96.1,133.6h2.7v1.3c0,0.4,0,0.8,0,0.8h0c0.6-1.1,1.9-2.3,3.7-2.3c1.7,0,2.8,0.8,3.3,2.3h0
		c0.6-1.2,2.1-2.3,3.8-2.3c2.3,0,3.7,1.3,3.7,4.3v7.2h-2.8v-6.7c0-1.3-0.2-2.2-1.5-2.2c-1.4,0-2.4,1.1-2.7,2.6
		c-0.1,0.4-0.1,0.9-0.1,1.5v4.9h-2.8v-6.7c0-1.2-0.2-2.2-1.5-2.2c-1.5,0-2.4,1.1-2.8,2.6c-0.1,0.4-0.1,0.9-0.1,1.4v4.9h-2.8V133.6z"
		/>
	<path fill="#6D6F70" d="M121.6,137.8h0.4v-0.2c0-1.5-0.9-2-2.2-2c-1.6,0-3.1,1.1-3.1,1.1l-1.1-2c0,0,1.7-1.4,4.4-1.4
		c2.9,0,4.7,1.6,4.7,4.5v7h-2.6v-0.9c0-0.4,0-0.8,0-0.8h0c0,0-0.9,2-3.4,2c-2,0-3.8-1.3-3.8-3.5C115,138.1,119.8,137.8,121.6,137.8z
		 M119.5,143c1.5,0,2.5-1.6,2.5-2.9v-0.3h-0.5c-1.4,0-3.7,0.2-3.7,1.8C117.8,142.2,118.3,143,119.5,143z"/>
	<path fill="#6D6F70" d="M127.7,136h-1.5v-2.2h1.5v-3.2h2.7v3.2h2.6v2.2h-2.6v4.4c0,1.8,1.5,2.1,2.2,2.1c0.3,0,0.5,0,0.5,0v2.4
		c0,0-0.3,0.1-0.9,0.1c-1.6,0-4.7-0.5-4.7-4.2V136z"/>
	<path fill="#6D6F70" d="M140.1,133.4c3.2,0,5,2.4,5,5.3c0,0.3-0.1,1.1-0.1,1.1h-7.7c0.2,2,1.7,3,3.4,3c1.8,0,3.2-1.2,3.2-1.2l1.1,2
		c0,0-1.7,1.6-4.5,1.6c-3.7,0-6-2.7-6-5.9C134.4,135.8,136.8,133.4,140.1,133.4z M142.3,137.9c0-1.5-1-2.3-2.2-2.3
		c-1.4,0-2.4,0.9-2.7,2.3H142.3z"/>
	<path fill="#6D6F70" d="M19.7,156.4c3.4,0,6.2,2.4,6.2,5.9c0,3.5-2.8,5.9-6.2,5.9c-3.4,0-6.2-2.4-6.2-5.9
		C13.6,158.8,16.3,156.4,19.7,156.4z M19.7,165.8c1.8,0,3.3-1.4,3.3-3.5c0-2.1-1.5-3.5-3.3-3.5c-1.8,0-3.3,1.4-3.3,3.5
		C16.4,164.3,17.9,165.8,19.7,165.8z"/>
	<path fill="#6D6F70" d="M28.7,159h-1.4v-2.2h1.4v-0.5c0-3.7,3-4.2,4.6-4.2c0.6,0,0.9,0.1,0.9,0.1v2.4c0,0-0.2,0-0.6,0
		c-0.8,0-2.2,0.2-2.2,1.8v0.4h2.4v2.2h-2.4v8.8h-2.8V159z"/>
	<path fill="#6D6F70" d="M46,156.4c3.2,0,5,2.4,5,5.3c0,0.3-0.1,1.1-0.1,1.1h-7.7c0.2,2,1.7,3,3.4,3c1.8,0,3.2-1.2,3.2-1.2l1.1,2
		c0,0-1.7,1.6-4.5,1.6c-3.7,0-6-2.7-6-5.9C40.3,158.8,42.7,156.4,46,156.4z M48.2,160.9c0-1.5-1-2.3-2.2-2.3c-1.4,0-2.4,0.9-2.7,2.3
		H48.2z"/>
	<path fill="#6D6F70" d="M57.5,164c0,0-0.2,0.4-0.3,0.6l-2,3.3h-3.1l3.7-5.7l-3.6-5.5h3.2l1.7,3.1c0.2,0.3,0.4,0.7,0.4,0.7h0
		c0,0,0.2-0.4,0.4-0.7l1.7-3.1h3.2l-3.6,5.5l3.7,5.7h-3.1l-2-3.3C57.7,164.4,57.6,164,57.5,164L57.5,164z"/>
	<path fill="#6D6F70" d="M64.8,152.2h2.8v2.5h-2.8V152.2z M64.8,156.6h2.8v11.2h-2.8V156.6z"/>
	<path fill="#6D6F70" d="M71.2,159h-1.5v-2.2h1.5v-3.2H74v3.2h2.6v2.2H74v4.4c0,1.8,1.5,2.1,2.2,2.1c0.3,0,0.5,0,0.5,0v2.4
		c0,0-0.3,0.1-0.9,0.1c-1.6,0-4.7-0.5-4.7-4.2V159z"/>
	<path fill="#6D6F70" d="M84.4,156.6H87v1.9c0,0.4,0,0.8,0,0.8h0c0.5-1.6,1.8-2.9,3.6-2.9c0.3,0,0.5,0,0.5,0v2.8c0,0-0.3,0-0.7,0
		c-1.2,0-2.5,0.7-3.1,2.4c-0.2,0.6-0.2,1.2-0.2,1.8v4.4h-2.8V156.6z"/>
	<path fill="#6D6F70" d="M98.7,160.8h0.4v-0.2c0-1.5-0.9-2-2.2-2c-1.6,0-3.1,1.1-3.1,1.1l-1.1-2c0,0,1.7-1.4,4.4-1.4
		c2.9,0,4.7,1.6,4.7,4.5v7h-2.6v-0.9c0-0.4,0-0.8,0-0.8h0c0,0-0.9,2-3.4,2c-2,0-3.8-1.3-3.8-3.5C92.1,161.1,96.9,160.8,98.7,160.8z
		 M96.6,166c1.5,0,2.5-1.6,2.5-2.9v-0.3h-0.5c-1.4,0-3.7,0.2-3.7,1.8C94.9,165.2,95.4,166,96.6,166z"/>
	<path fill="#6D6F70" d="M105.2,159h-1.5v-2.2h1.5v-3.2h2.7v3.2h2.6v2.2H108v4.4c0,1.8,1.5,2.1,2.2,2.1c0.3,0,0.5,0,0.5,0v2.4
		c0,0-0.3,0.1-0.9,0.1c-1.6,0-4.7-0.5-4.7-4.2V159z"/>
	<path fill="#6D6F70" d="M117.9,156.4c3.2,0,5,2.4,5,5.3c0,0.3-0.1,1.1-0.1,1.1h-7.7c0.2,2,1.7,3,3.4,3c1.8,0,3.2-1.2,3.2-1.2l1.1,2
		c0,0-1.7,1.6-4.5,1.6c-3.7,0-6-2.7-6-5.9C112.3,158.8,114.6,156.4,117.9,156.4z M120.1,160.9c0-1.5-1-2.3-2.2-2.3
		c-1.4,0-2.4,0.9-2.7,2.3H120.1z"/>
</g>
<g>
	<path fill="#6D6F70" d="M287.4,150.2c-1.1-0.7-1.9-1.7-1.9-3.1c0-2,1.5-3.9,4.7-3.9c2.9,0,4.7,1.6,4.7,4c0,2.2-1.7,4-1.9,4.2
		c1.3,0.7,2.2,1.7,2.2,3.3c0,2.4-2.1,4.5-5.1,4.5c-2.8,0-5.2-1.8-5.2-4.7C284.8,151.9,287,150.4,287.4,150.2z M288.6,150.9
		c-0.5,0.3-2.2,1.5-2.2,3.5c0,2.1,1.8,3.4,3.7,3.4c1.8,0,3.6-1.3,3.6-3.1C293.6,152.6,290.9,152,288.6,150.9z M291.7,150.7
		c0.3-0.3,1.6-1.7,1.6-3.5c0-1.7-1.3-2.7-3.2-2.7c-2,0-3.1,1.1-3.1,2.5C287,149.1,289.5,149.8,291.7,150.7z"/>
	<path fill="#6D6F70" d="M298.8,155.9c0,0,1.1,1.8,3.5,1.8c2.1,0,3.9-1.5,3.9-3.6s-1.7-3.6-3.9-3.6c-1.7,0-2.8,0.8-2.8,0.8l-1-0.4
		l0.8-7.5h7.5v1.4h-6.2l-0.4,4c-0.1,0.6-0.2,0.9-0.2,0.9h0c0,0,1-0.6,2.4-0.6c3.1,0,5.3,2.2,5.3,5c0,2.9-2.4,5.1-5.4,5.1
		c-3.1,0-4.5-2.2-4.5-2.2L298.8,155.9z"/>
	<path fill="#6D6F70" d="M310.2,146.2c0-1.7,1.4-3.1,3.1-3.1s3.1,1.4,3.1,3.1c0,1.7-1.4,3.1-3.1,3.1S310.2,147.9,310.2,146.2z
		 M322.1,143.4h1.6l-11.8,15.5h-1.6L322.1,143.4z M315.1,146.2c0-1-0.8-1.8-1.8-1.8s-1.8,0.8-1.8,1.8c0,1,0.8,1.8,1.8,1.8
		S315.1,147.2,315.1,146.2z M320.7,153c1.7,0,3.1,1.4,3.1,3.1c0,1.7-1.4,3-3.1,3c-1.7,0-3.1-1.4-3.1-3
		C317.6,154.4,319,153,320.7,153z M320.7,157.9c1,0,1.8-0.8,1.8-1.8c0-1-0.8-1.8-1.8-1.8c-1,0-1.8,0.8-1.8,1.8
		C318.9,157.1,319.7,157.9,320.7,157.9z"/>
</g>
<g>
	<path fill="#6D6F70" d="M490.2,153.6l7.6-10.2h1.6v9.8h2.2v1.3h-2.2v4.3H498v-4.3h-7.7V153.6z M498,153.2v-6.5
		c0-0.7,0.1-1.5,0.1-1.5h0c0,0-0.4,0.6-0.8,1.2l-5.1,6.7v0H498z"/>
	<path fill="#6D6F70" d="M503.4,153.6l7.6-10.2h1.6v9.8h2.2v1.3h-2.2v4.3h-1.5v-4.3h-7.7V153.6z M511.1,153.2v-6.5
		c0-0.7,0.1-1.5,0.1-1.5h0c0,0-0.4,0.6-0.8,1.2l-5.1,6.7v0H511.1z"/>
	<path fill="#6D6F70" d="M517,146.2c0-1.7,1.4-3.1,3.1-3.1s3.1,1.4,3.1,3.1c0,1.7-1.4,3.1-3.1,3.1S517,147.9,517,146.2z
		 M528.9,143.4h1.6l-11.8,15.5h-1.6L528.9,143.4z M521.9,146.2c0-1-0.8-1.8-1.8-1.8s-1.8,0.8-1.8,1.8c0,1,0.8,1.8,1.8,1.8
		S521.9,147.2,521.9,146.2z M527.5,153c1.7,0,3.1,1.4,3.1,3.1c0,1.7-1.4,3-3.1,3c-1.7,0-3.1-1.4-3.1-3
		C524.4,154.4,525.8,153,527.5,153z M527.5,157.9c1,0,1.8-0.8,1.8-1.8c0-1-0.8-1.8-1.8-1.8c-1,0-1.8,0.8-1.8,1.8
		C525.7,157.1,526.5,157.9,527.5,157.9z"/>
</g>
<g>
	<path fill="#6D6F70" d="M695.6,157.9c0-5.4,7.9-6.1,7.9-10.3c0-1.7-1.3-3-3.2-3c-2.3,0-3.5,2.1-3.5,2.1l-1.1-0.8
		c0,0,1.4-2.8,4.7-2.8c2.9,0,4.7,1.9,4.7,4.3c0,5.2-7.8,5.9-7.8,10h8.1v1.4h-9.7C695.6,158.5,695.6,158.2,695.6,157.9z"/>
	<path fill="#6D6F70" d="M708.7,158.5l0.6-1.3c0,0,1,0.6,2.2,0.6c3.3,0,4.9-3.2,5.2-6.2h0c-0.8,1.1-2.3,1.8-3.9,1.8
		c-2.8,0-4.8-2.1-4.8-5c0-3.2,2.1-5.2,4.8-5.2c3.4,0,5.6,3.1,5.6,7.3c0,3.9-2,8.7-6.8,8.7C709.8,159.1,708.7,158.5,708.7,158.5z
		 M716.7,149.3c0-2.1-1.6-4.7-3.9-4.7c-2.1,0-3.3,1.6-3.3,3.7c0,2.2,1.4,3.7,3.5,3.7C715,151.9,716.7,150.5,716.7,149.3z"/>
	<path fill="#6D6F70" d="M721,146.2c0-1.7,1.4-3.1,3.1-3.1c1.7,0,3.1,1.4,3.1,3.1c0,1.7-1.4,3.1-3.1,3.1
		C722.3,149.3,721,147.9,721,146.2z M732.9,143.4h1.6l-11.8,15.5h-1.6L732.9,143.4z M725.9,146.2c0-1-0.8-1.8-1.8-1.8
		c-1,0-1.8,0.8-1.8,1.8c0,1,0.8,1.8,1.8,1.8C725.1,148,725.9,147.2,725.9,146.2z M731.5,153c1.7,0,3.1,1.4,3.1,3.1
		c0,1.7-1.4,3-3.1,3c-1.7,0-3.1-1.4-3.1-3C728.4,154.4,729.8,153,731.5,153z M731.5,157.9c1,0,1.8-0.8,1.8-1.8c0-1-0.8-1.8-1.8-1.8
		c-1,0-1.8,0.8-1.8,1.8C729.7,157.1,730.5,157.9,731.5,157.9z"/>
</g>
<g>
	<path fill="#6D6F70" d="M901.1,157.5h3.5v-11.4c0-0.4,0-0.9,0-0.9h0c0,0-0.2,0.3-0.8,0.9l-1.7,1.7l-1-1l3.5-3.5h1.4v14.1h3.4v1.4
		h-8.4V157.5z"/>
	<path fill="#6D6F70" d="M911.5,151.9c0-3.9,2-8.7,6.8-8.7c1.7,0,2.8,0.6,2.8,0.6l-0.6,1.3c0,0-1-0.6-2.2-0.6
		c-3.2,0-4.9,3.2-5.1,6.2h0c0.7-1.1,2.3-1.8,3.9-1.8c2.8,0,4.8,2.1,4.8,5c0,3.2-2.2,5.2-4.9,5.2
		C913.7,159.1,911.5,156.1,911.5,151.9z M920.4,154c0-2.2-1.4-3.7-3.5-3.7c-2.1,0-3.7,1.4-3.7,2.6c0,2.1,1.6,4.7,3.9,4.7
		C919.2,157.7,920.4,156.1,920.4,154z"/>
	<path fill="#6D6F70" d="M924.4,146.2c0-1.7,1.4-3.1,3.1-3.1c1.7,0,3.1,1.4,3.1,3.1c0,1.7-1.4,3.1-3.1,3.1
		C925.8,149.3,924.4,147.9,924.4,146.2z M936.3,143.4h1.6l-11.8,15.5h-1.6L936.3,143.4z M929.3,146.2c0-1-0.8-1.8-1.8-1.8
		c-1,0-1.8,0.8-1.8,1.8c0,1,0.8,1.8,1.8,1.8C928.5,148,929.3,147.2,929.3,146.2z M934.9,153c1.7,0,3.1,1.4,3.1,3.1
		c0,1.7-1.4,3-3.1,3c-1.7,0-3.1-1.4-3.1-3C931.8,154.4,933.2,153,934.9,153z M934.9,157.9c1,0,1.8-0.8,1.8-1.8c0-1-0.8-1.8-1.8-1.8
		c-1,0-1.8,0.8-1.8,1.8C933.2,157.1,933.9,157.9,934.9,157.9z"/>
</g>
<g>
	<path fill="#6D6F70" d="M1105.5,157.5h3.5v-11.4c0-0.4,0-0.9,0-0.9h0c0,0-0.2,0.3-0.8,0.9l-1.7,1.7l-1-1l3.5-3.5h1.4v14.1h3.4v1.4
		h-8.4V157.5z"/>
	<path fill="#6D6F70" d="M1116.5,155.9c0,0,1.6,1.8,4,1.8c1.8,0,3.5-1.4,3.5-3.3c0-2.2-1.9-3.3-3.9-3.3h-1.1l-0.4-0.9l3.9-4.5
		c0.4-0.5,0.8-0.9,0.8-0.9v0c0,0-0.4,0.1-1.3,0.1h-5.8v-1.4h9v1l-4.6,5.3c2,0.1,4.8,1.2,4.8,4.6c0,2.6-2.2,4.8-5.1,4.8
		c-3,0-4.9-2.1-4.9-2.1L1116.5,155.9z"/>
	<path fill="#6D6F70" d="M1128.1,146.2c0-1.7,1.4-3.1,3.1-3.1c1.7,0,3.1,1.4,3.1,3.1c0,1.7-1.4,3.1-3.1,3.1
		C1129.5,149.3,1128.1,147.9,1128.1,146.2z M1140.1,143.4h1.6l-11.8,15.5h-1.6L1140.1,143.4z M1133,146.2c0-1-0.8-1.8-1.8-1.8
		c-1,0-1.8,0.8-1.8,1.8c0,1,0.8,1.8,1.8,1.8C1132.2,148,1133,147.2,1133,146.2z M1138.7,153c1.7,0,3.1,1.4,3.1,3.1
		c0,1.7-1.4,3-3.1,3c-1.7,0-3.1-1.4-3.1-3C1135.6,154.4,1136.9,153,1138.7,153z M1138.7,157.9c1,0,1.8-0.8,1.8-1.8
		c0-1-0.8-1.8-1.8-1.8c-1,0-1.8,0.8-1.8,1.8C1136.9,157.1,1137.6,157.9,1138.7,157.9z"/>
</g>
<line fill="none" stroke="#D0D2D3" stroke-miterlimit="10" x1="0" y1="112.3" x2="1226" y2="112.3"/>
<line fill="none" stroke="#D0D2D3" stroke-width="1.0003" stroke-miterlimit="10" x1="408.3" y1="1.7" x2="408.3" y2="479.3"/>
<line fill="none" stroke="#D0D2D3" stroke-width="1.0005" stroke-miterlimit="10" x1="204.1" y1="1.7" x2="204.1" y2="398.4"/>
<line fill="none" stroke="#D0D2D3" stroke-miterlimit="10" x1="613" y1="111.9" x2="613" y2="479.3"/>
<line fill="none" stroke="#D0D2D3" stroke-miterlimit="10" x1="817" y1="113.3" x2="817" y2="479.3"/>
<line fill="none" stroke="#D0D2D3" stroke-miterlimit="10" x1="1021" y1="113.3" x2="1021" y2="479.3"/>
</svg>
