<?xml version="1.0" encoding="utf-8"?>
<!-- Generator: Adobe Illustrator 18.1.1, SVG Export Plug-In . SVG Version: 6.00 Build 0)  -->
<svg version="1.1" id="Layer_1" xmlns="http://www.w3.org/2000/svg" xmlns:xlink="http://www.w3.org/1999/xlink" x="0px" y="0px"
	 viewBox="-0.1 169.6 612.1 622.4" enable-background="new -0.1 169.6 612.1 622.4" xml:space="preserve">
<g>
	
		<rect x="-6" y="175.5" transform="matrix(0.3019 -0.9533 0.9533 0.3019 -244.827 627.186)" fill="none" width="623.7" height="610.5"/>
	<path fill="#FFFFFF" d="M597.2,573C544.8,737.4,373,828.8,212.4,778C50.9,727.8-36.9,553.1,14.7,388.6
		c52.4-164.4,224.9-255.8,385.6-205S648.8,408.5,597.2,573"/>
</g>
<g>
	
		<rect x="-6" y="175.5" transform="matrix(0.3019 -0.9533 0.9533 0.3019 -244.827 627.186)" fill="none" width="623.7" height="610.5"/>
	<g>
		<g enable-background="new    ">
			<path fill="#0078AE" d="M312.9,348l14.7,4.6l-1.4,4.5l-9.3-2.9l-3.9,12.2l8.7,2.8l-1.4,4.5l-8.7-2.8l-5.6,17.7l-5.4-1.7
				L312.9,348z"/>
		</g>
		<g enable-background="new    ">
			<path fill="#0078AE" d="M332.1,365c1.7-5.5,5-9.7,12.4-7.4c7,2.2,8,6.5,6.1,12.6l-6.2,19.7c-1.7,5.5-5,9.7-12.4,7.4
				c-6.9-2.2-8-6.5-6.1-12.6L332.1,365z M331.1,386.7c-1.1,3.3-0.1,5.6,2.1,6.3c2.3,0.7,4.3-0.6,5.4-3.9l6.5-20.5
				c1.2-3.8,0.5-6-2-6.8c-2.4-0.8-4.3,0.6-5.5,4.4L331.1,386.7z"/>
		</g>
		<g enable-background="new    ">
			<path fill="#0078AE" d="M362.8,363.8l8.4,2.6c7.9,2.5,8,4.9,5.3,13.4c-1.7,5.2-3.1,7.3-7.9,7.2l0,0.1c3.6,1.5,4.2,3.8,3,7.5
				l-2.7,8.5c-0.4,1.4-1.1,3.3-1.2,5.1l-5.1-1.6c-0.2-1.1,0-2.1,0.5-3.7l2.8-8.8c1.2-3.7,0.8-4.8-2.7-6l-1.8-0.6l-5.4,17l-5.4-1.7
				L362.8,363.8z M362.7,383l1.4,0.4c4.3,1.3,5.1,0.7,7-5.1c1.8-5.8,1.7-6.4-1.7-7.5l-2.6-0.8L362.7,383z"/>
		</g>
	</g>
	
		<rect x="-6" y="175.5" transform="matrix(0.3019 -0.9533 0.9533 0.3019 -244.827 627.186)" fill="none" width="623.7" height="610.5"/>
	<g>
		<g enable-background="new    ">
			<path fill="#0078AE" d="M112.3,488.2l85.4-113.5l24.3,7.7l4.5,142l-24-7.6l-0.4-36.2l-44.8-14.2l-21.2,29.4L112.3,488.2z
				 M169,449.3l33.5,10.6l-0.5-37.8c0-2.3,0-5.3,0.2-8.9c0.2-3.6,0.4-6.6,0.7-8.9l0.3-3.6l-0.4-0.1c-4.5,7.8-8.4,13.8-11.6,18.1
				L169,449.3z"/>
			<path fill="#0078AE" d="M242.9,529.5l40.4-127.8l76.5,24.2l-6.3,19.9l-53.2-16.9l-10.6,33.6l43,13.6l-6.3,19.9l-43-13.6
				l-10.9,34.4l56.1,17.7l-6.3,19.9L242.9,529.5z"/>
			<path fill="#0078AE" d="M346.3,562.2l40.4-127.8l43.6,13.8c19.9,6.3,34,16.9,42.1,31.9c8.2,15,9.1,32.4,2.8,52.4
				c-6.3,20-17.2,33.8-32.5,41.4c-15.3,7.6-33,8.3-52.9,2L346.3,562.2z M375.9,549.7l19.1,6c13.2,4.2,24.8,3.6,34.7-1.6
				c10-5.2,17.2-14.9,21.7-29.1c4.4-14,4-26-1.2-36c-5.2-10-14.4-17.1-27.4-21.2l-19.1-6L375.9,549.7z"/>
		</g>
	</g>
	
		<rect x="-6" y="175.5" transform="matrix(0.3019 -0.9533 0.9533 0.3019 -244.827 627.186)" fill="none" width="623.7" height="610.5"/>
	<g>
		<g enable-background="new    ">
			<path fill="#0078AE" d="M80.5,503.3l1.5,8.9l-29.9,10.2l0,0.1l31.6,0.1l1.4,8.7l-40.3,6.6l-0.9-5.3l36.3-6l0-0.1L43,526.9
				l-0.9-5.6L77.3,509l0-0.1l-36.3,6l-0.8-4.9L80.5,503.3z"/>
		</g>
	</g>
	
		<rect x="-6" y="175.5" transform="matrix(0.3019 -0.9533 0.9533 0.3019 -244.827 627.186)" fill="none" width="623.7" height="610.5"/>
	<g>
		<g enable-background="new    ">
			<path fill="#0078AE" d="M78.4,546.2c5.4-1.8,10.8-1.6,13.2,5.7c2.3,6.9-0.6,10.3-6.6,12.3l-19.6,6.5c-5.4,1.8-10.8,1.6-13.2-5.7
				c-2.3-6.9,0.6-10.3,6.6-12.3L78.4,546.2z M60.3,558.2c-3.3,1.1-4.6,3.2-3.9,5.4c0.8,2.3,3,3.2,6.4,2.1l20.4-6.8
				c3.8-1.3,5.2-3.1,4.3-5.6c-0.8-2.4-3-3.1-6.8-1.8L60.3,558.2z"/>
		</g>
	</g>
	
		<rect x="-6" y="175.5" transform="matrix(0.3019 -0.9533 0.9533 0.3019 -244.827 627.186)" fill="none" width="623.7" height="610.5"/>
	<g>
		<g enable-background="new    ">
			<path fill="#0078AE" d="M98.7,572.4l3.5,7l-27.5,21l0,0.1l30.5-15.1l2.4,4.8l-36.7,18.1l-3.6-7.3l28.3-21.4l-0.1-0.1L64.2,595
				l-2.2-4.5L98.7,572.4z"/>
		</g>
	</g>
	
		<rect x="-6" y="175.5" transform="matrix(0.3019 -0.9533 0.9533 0.3019 -244.827 627.186)" fill="none" width="623.7" height="610.5"/>
	<g>
		<g enable-background="new    ">
			<path fill="#0078AE" d="M104.9,605.9c4.7-3.2,10-4.5,14.3,1.9c4.1,6,2.3,10.1-3,13.7L99.1,633c-4.7,3.2-10,4.5-14.3-1.9
				c-4.1-6-2.2-10,3-13.6L104.9,605.9z M90.7,622.4c-2.9,2-3.6,4.3-2.3,6.3c1.3,2,3.8,2.2,6.7,0.3l17.8-12c3.3-2.3,4.1-4.4,2.6-6.6
				c-1.4-2.1-3.7-2.2-7.1,0.1L90.7,622.4z"/>
		</g>
	</g>
	
		<rect x="-6" y="175.5" transform="matrix(0.3019 -0.9533 0.9533 0.3019 -244.827 627.186)" fill="none" width="623.7" height="610.5"/>
	<g>
		<g enable-background="new    ">
			<path fill="#0078AE" d="M130.1,623.3l12.7,14.5l-3.6,3.1l-4.5-5.1l-27.2,23.8l-3.7-4.3l27.2-23.8l-4.5-5.1L130.1,623.3z"/>
		</g>
	</g>
	
		<rect x="-6" y="175.5" transform="matrix(0.3019 -0.9533 0.9533 0.3019 -244.827 627.186)" fill="none" width="623.7" height="610.5"/>
	<g>
		<g enable-background="new    ">
			<path fill="#0078AE" d="M149.6,644.6l4.2,3.7l-11.6,13.2l5.7,5l11.6-13.2l4.2,3.7l-27,30.7l-4.2-3.7l12.3-13.9l-5.7-5L126.8,679
				l-4.2-3.7L149.6,644.6z"/>
		</g>
	</g>
	
		<rect x="-6" y="175.5" transform="matrix(0.3019 -0.9533 0.9533 0.3019 -244.827 627.186)" fill="none" width="623.7" height="610.5"/>
	<g>
		<g enable-background="new    ">
			<path fill="#0078AE" d="M172.8,664.4l12.7,8.7l-2.7,3.9l-8-5.5l-7.2,10.6l7.6,5.2l-2.7,3.9l-7.6-5.2l-7.8,11.4l8,5.5l-2.7,3.9
				l-12.7-8.7L172.8,664.4z"/>
		</g>
	</g>
	
		<rect x="-6" y="175.5" transform="matrix(0.3019 -0.9533 0.9533 0.3019 -244.827 627.186)" fill="none" width="623.7" height="610.5"/>
	<g>
		<g enable-background="new    ">
			<path fill="#0078AE" d="M194,678.1l7.8,4c7.3,3.8,7.1,6.2,3,14.1c-2.5,4.9-4.3,6.7-9,5.8l-0.1,0.1c3.2,2.1,3.5,4.5,1.7,7.9
				l-4.1,7.9c-0.7,1.3-1.6,3.1-2.1,4.8l-4.7-2.4c0-1.2,0.3-2.1,1.1-3.6l4.2-8.2c1.8-3.4,1.6-4.6-1.7-6.4l-1.7-0.9l-8.2,15.8l-5-2.6
				L194,678.1z M190.6,697l1.3,0.7c4,2.1,4.9,1.6,7.7-3.8c2.8-5.4,2.7-6-0.4-7.7l-2.4-1.2L190.6,697z"/>
		</g>
	</g>
	
		<rect x="-6" y="175.5" transform="matrix(0.3019 -0.9533 0.9533 0.3019 -244.827 627.186)" fill="none" width="623.7" height="610.5"/>
	<g>
		<g enable-background="new    ">
			<path fill="#0078AE" d="M228.2,693.7l6.2,2.2l-5.8,41.3l-5.3-1.9l1.7-10.4l-8.3-3l-5.2,9.2l-5.3-1.9L228.2,693.7z M219,717.7
				l6.8,2.4l3.3-19.7l-0.1,0L219,717.7z"/>
		</g>
	</g>
	
		<rect x="-6" y="175.5" transform="matrix(0.3019 -0.9533 0.9533 0.3019 -244.827 627.186)" fill="none" width="623.7" height="610.5"/>
	<g>
		<g enable-background="new    ">
			<path fill="#0078AE" d="M251.9,700.8l9.1,1.9c7.5,1.6,8.6,3.9,6.6,13.2c-1.9,9.3-3.8,11-11.3,9.4l-3.6-0.8l-3.6,17.4l-5.5-1.2
				L251.9,700.8z M253.7,719.9l2.9,0.6c3.8,0.8,4.3,0.3,5.5-5.8c1.3-6,1-6.7-2.8-7.5l-2.9-0.6L253.7,719.9z"/>
		</g>
	</g>
	
		<rect x="-6" y="175.5" transform="matrix(0.3019 -0.9533 0.9533 0.3019 -244.827 627.186)" fill="none" width="623.7" height="610.5"/>
	<g>
		<g enable-background="new    ">
			<path fill="#0078AE" d="M279.9,706.2l5.6,0.4l3.7,17.5l0.1,0l6.9-16.8l5,0.4l-9.6,23.5l-1.2,16.7l-5.6-0.4l1.2-16.7L279.9,706.2z
				"/>
		</g>
	</g>
	
		<rect x="-6" y="175.5" transform="matrix(0.3019 -0.9533 0.9533 0.3019 -244.827 627.186)" fill="none" width="623.7" height="610.5"/>
	
		<rect x="-6" y="175.5" transform="matrix(0.3019 -0.9533 0.9533 0.3019 -244.827 627.186)" fill="none" width="623.7" height="610.5"/>
	<g>
		<g enable-background="new    ">
			<path fill="#0078AE" d="M331.4,735.8l5.6-0.8l0.4,3.3c0.4,2.7,1.6,4.2,3.8,3.9c3-0.4,3.4-2.5,3.1-5.2c-0.5-3.4-0.8-4.5-7.4-9.5
				c-4.1-3.1-7.5-6-8.2-11.5c-0.9-6.6,1.8-9.9,7.9-10.7c3-0.4,5.4,0.3,6.9,1.4c1.1,0.8,1.9,2.1,2.3,4.9l0.5,3.8l-5.3,0.7l-0.4-3.2
				c-0.3-2.3-1.4-3.5-3.6-3.2c-2.3,0.3-3.2,1.7-2.8,4.9c0.4,2.7,1.2,4.4,7,9c6.3,5,7.5,6.8,8.2,11.7c0.9,6.3-1.1,10.3-7.8,11.2
				c-5.2,0.7-9-1-9.7-6.1L331.4,735.8z"/>
		</g>
	</g>
	
		<rect x="-6" y="175.5" transform="matrix(0.3019 -0.9533 0.9533 0.3019 -244.827 627.186)" fill="none" width="623.7" height="610.5"/>
	<g>
		<g enable-background="new    ">
			<path fill="#0078AE" d="M355,702.7l18.6-4.9l1.2,4.6l-6.6,1.7l9.2,34.9l-5.5,1.4l-9.2-34.9l-6.6,1.7L355,702.7z"/>
		</g>
	</g>
	
		<rect x="-6" y="175.5" transform="matrix(0.3019 -0.9533 0.9533 0.3019 -244.827 627.186)" fill="none" width="623.7" height="610.5"/>
	<g>
		<g enable-background="new    ">
			<path fill="#0078AE" d="M412.4,716.6c1.8,4.4,1.9,9.6-5.3,12.5c-7.2,2.9-10.7-0.9-12.5-5.3l-11.9-29.3l5.2-2.1l12.2,30.2
				c1,2.6,2.5,3.5,5.2,2.4c2.7-1.1,3.1-2.8,2.1-5.3l-12.2-30.2l5.2-2.1L412.4,716.6z"/>
		</g>
	</g>
	
		<rect x="-6" y="175.5" transform="matrix(0.3019 -0.9533 0.9533 0.3019 -244.827 627.186)" fill="none" width="623.7" height="610.5"/>
	<g>
		<g enable-background="new    ">
			<path fill="#0078AE" d="M411.1,682.6l7.9-4.5c8-4.5,10.1-2.3,16,8.1l6,10.6c5.2,9.1,5.2,12.9-2.6,17.3l-7.1,4.1L411.1,682.6z
				 M433.9,711.1l2.4-1.3c3.6-2.1,3.2-4.4-0.2-10.5l-7-12.2c-3-5.3-4.6-6.7-8.7-4.3l-2,1.1L433.9,711.1z"/>
		</g>
	</g>
	
		<rect x="-6" y="175.5" transform="matrix(0.3019 -0.9533 0.9533 0.3019 -244.827 627.186)" fill="none" width="623.7" height="610.5"/>
	<g>
		<g enable-background="new    ">
			<path fill="#0078AE" d="M436.2,667.1l4.6-3.3l23.8,33.3l-4.6,3.3L436.2,667.1z"/>
		</g>
	</g>
	
		<rect x="-6" y="175.5" transform="matrix(0.3019 -0.9533 0.9533 0.3019 -244.827 627.186)" fill="none" width="623.7" height="610.5"/>
	<g>
		<g enable-background="new    ">
			<path fill="#0078AE" d="M449.3,656.9l11.7-10l3.1,3.6l-7.4,6.3l8.3,9.7l7-6l3.1,3.6l-7,6l9,10.5l7.4-6.3l3.1,3.6l-11.7,10
				L449.3,656.9z"/>
		</g>
	</g>
	
		<rect x="-6" y="175.5" transform="matrix(0.3019 -0.9533 0.9533 0.3019 -244.827 627.186)" fill="none" width="623.7" height="610.5"/>
	<g>
		<g enable-background="new    ">
			<path fill="#0078AE" d="M489.1,660.1l3.8-4.2l2.5,2.3c2,1.8,3.9,2.2,5.5,0.6c2-2.2,1-4.1-0.9-5.9c-2.5-2.3-3.5-3-11.8-2.6
				c-5.1,0.2-9.6,0.2-13.7-3.6c-4.9-4.5-4.9-8.8-0.8-13.3c2.1-2.2,4.3-3.2,6.2-3.3c1.3-0.1,2.8,0.4,4.9,2.3l2.8,2.6l-3.6,3.9
				l-2.4-2.2c-1.7-1.6-3.4-1.8-4.9-0.2c-1.6,1.7-1.3,3.4,1,5.5c2,1.9,3.7,2.6,11.2,2.5c8-0.2,10.2,0.4,13.8,3.8
				c4.7,4.3,5.7,8.7,1.2,13.6c-3.5,3.8-7.6,5-11.3,1.5L489.1,660.1z"/>
		</g>
	</g>
	
		<rect x="-6" y="175.5" transform="matrix(0.3019 -0.9533 0.9533 0.3019 -244.827 627.186)" fill="none" width="623.7" height="610.5"/>
	<g>
		<g enable-background="new    ">
			<path fill="#0078AE" d="M75.4,341.1l8.3-13l4,2.6l-5.3,8.2l10.8,6.9l5-7.7l4,2.6l-5,7.7l15.6,10l-3.1,4.8L75.4,341.1z"/>
		</g>
	</g>
	
		<rect x="-6" y="175.5" transform="matrix(0.3019 -0.9533 0.9533 0.3019 -244.827 627.186)" fill="none" width="623.7" height="610.5"/>
	<g>
		<g enable-background="new    ">
			<path fill="#0078AE" d="M90.9,318.4l5.7-7.1c5.8-7.1,8.6-5.8,17.8,1.7l9.5,7.7c8.1,6.6,9.5,10.1,3.9,17.1l-5.2,6.4L90.9,318.4z
				 M122.5,336.7l1.7-2.1c2.6-3.3,1.4-5.3-4-9.7l-10.9-8.8c-4.7-3.8-6.7-4.6-9.7-0.9l-1.4,1.8L122.5,336.7z"/>
		</g>
	</g>
	
		<rect x="-6" y="175.5" transform="matrix(0.3019 -0.9533 0.9533 0.3019 -244.827 627.186)" fill="none" width="623.7" height="610.5"/>
	<g>
		<g enable-background="new    ">
			<path fill="#0078AE" d="M116.7,288.9l4.7-4.6l34.4,23.6l-4.1,3.9l-8.6-6.2l-6.4,6.1l5.9,8.8l-4.1,3.9L116.7,288.9z M134.1,307.8
				l5.2-5l-16.2-11.7l-0.1,0.1L134.1,307.8z"/>
		</g>
	</g>
	
		<rect x="-6" y="175.5" transform="matrix(0.3019 -0.9533 0.9533 0.3019 -244.827 627.186)" fill="none" width="623.7" height="610.5"/>
	<g>
		<g enable-background="new    ">
			<path fill="#0078AE" d="M150.7,290.8l10.9-8.4l2.7,3.5l-10.9,8.4L150.7,290.8z"/>
		</g>
	</g>
	
		<rect x="-6" y="175.5" transform="matrix(0.3019 -0.9533 0.9533 0.3019 -244.827 627.186)" fill="none" width="623.7" height="610.5"/>
	<g>
		<g enable-background="new    ">
			<path fill="#0078AE" d="M163.4,251.6l5.6-3.4l28.3,30.7l-4.8,2.9l-7-7.9l-7.6,4.6l3.8,9.9l-4.8,2.9L163.4,251.6z M176.2,273.9
				l6.2-3.7l-13.2-15l-0.1,0.1L176.2,273.9z"/>
		</g>
	</g>
	
		<rect x="-6" y="175.5" transform="matrix(0.3019 -0.9533 0.9533 0.3019 -244.827 627.186)" fill="none" width="623.7" height="610.5"/>
	<g>
		<g enable-background="new    ">
			<path fill="#0078AE" d="M190.5,248.8c-2.4-5.2-2.8-10.6,4.3-13.8c5.1-2.3,8.6-0.8,10.5,3.4l1.7,3.7l-4.8,2.2l-1.2-2.6
				c-1.1-2.4-2.6-3.5-4.7-2.5c-2.7,1.2-2.3,3.4-0.3,7.8l8.3,18.2c2,4.4,3.7,4.5,5.4,3.8c1.9-0.9,2.5-2.8,1.1-5.9l-1.2-2.6l4.8-2.2
				l1.9,4.1c1.8,3.9,1.5,7.6-4.4,10.4c-6.5,3-10.2,0.5-12.8-5.3L190.5,248.8z"/>
		</g>
	</g>
	
		<rect x="-6" y="175.5" transform="matrix(0.3019 -0.9533 0.9533 0.3019 -244.827 627.186)" fill="none" width="623.7" height="610.5"/>
	<g>
		<g enable-background="new    ">
			<path fill="#0078AE" d="M216.2,237.7c-1.8-5.4-1.6-10.8,5.7-13.2c5.3-1.8,8.7,0.1,10.1,4.5l1.3,3.9l-5.1,1.7l-0.9-2.7
				c-0.8-2.5-2.2-3.7-4.5-3c-2.8,0.9-2.7,3.1-1.1,7.8l6.3,19c1.5,4.6,3.2,4.9,5,4.3c2-0.7,2.8-2.5,1.7-5.7l-0.9-2.7l5.1-1.7l1.4,4.3
				c1.4,4.1,0.7,7.8-5.5,9.8c-6.8,2.2-10.2-0.6-12.2-6.6L216.2,237.7z"/>
		</g>
	</g>
	
		<rect x="-6" y="175.5" transform="matrix(0.3019 -0.9533 0.9533 0.3019 -244.827 627.186)" fill="none" width="623.7" height="610.5"/>
	<g>
		<g enable-background="new    ">
			<path fill="#0078AE" d="M241.2,219.7l15-3.3l1,4.6l-9.5,2.1l2.7,12.5l9-2l1,4.6l-9,2l3,13.5l9.5-2.1l1,4.6l-15,3.3L241.2,219.7z"
				/>
		</g>
	</g>
	
		<rect x="-6" y="175.5" transform="matrix(0.3019 -0.9533 0.9533 0.3019 -244.827 627.186)" fill="none" width="623.7" height="610.5"/>
	<g>
		<g enable-background="new    ">
			<path fill="#0078AE" d="M267.5,214.1l9.3-1c7.7-0.8,9.3,1.1,10.4,10.5c1,9.4-0.2,11.6-7.9,12.5l-3.7,0.4l1.9,17.7l-5.6,0.6
				L267.5,214.1z M275.1,231.7l2.9-0.3c3.8-0.4,4.2-1.1,3.5-7.2s-1.1-6.7-5-6.3l-2.9,0.3L275.1,231.7z"/>
		</g>
	</g>
	
		<rect x="-6" y="175.5" transform="matrix(0.3019 -0.9533 0.9533 0.3019 -244.827 627.186)" fill="none" width="623.7" height="610.5"/>
	<g>
		<g enable-background="new    ">
			<path fill="#0078AE" d="M297,211.7l19.3,0.1l0,4.8l-6.8,0l-0.2,36.1l-5.7,0l0.2-36.1l-6.8,0L297,211.7z"/>
		</g>
	</g>
	
		<rect x="-6" y="175.5" transform="matrix(0.3019 -0.9533 0.9533 0.3019 -244.827 627.186)" fill="none" width="623.7" height="610.5"/>
	<g>
		<g enable-background="new    ">
			<path fill="#0078AE" d="M327.7,212.7l15.3,1.7l-0.5,4.7l-9.7-1.1l-1.4,12.7l9.1,1l-0.5,4.7l-9.1-1l-1.5,13.7l9.7,1.1l-0.5,4.7
				l-15.3-1.7L327.7,212.7z"/>
		</g>
	</g>
	
		<rect x="-6" y="175.5" transform="matrix(0.3019 -0.9533 0.9533 0.3019 -244.827 627.186)" fill="none" width="623.7" height="610.5"/>
	<g>
		<g enable-background="new    ">
			<path fill="#0078AE" d="M354.3,216.1l8.9,2c9,2,9,5.1,6.4,16.7l-2.7,11.9c-2.3,10.2-4.8,13-13.5,11.1l-8-1.8L354.3,216.1z
				 M352,252.5l2.7,0.6c4.1,0.9,5.3-1.1,6.9-7.9l3.1-13.7c1.3-5.9,1.2-8-3.5-9.1l-2.2-0.5L352,252.5z"/>
		</g>
	</g>
	
		<rect x="-6" y="175.5" transform="matrix(0.3019 -0.9533 0.9533 0.3019 -244.827 627.186)" fill="none" width="623.7" height="610.5"/>
	
		<rect x="-6" y="175.5" transform="matrix(0.3019 -0.9533 0.9533 0.3019 -244.827 627.186)" fill="none" width="623.7" height="610.5"/>
	<g>
		<g enable-background="new    ">
			<path fill="#0078AE" d="M403.9,229.9l8.2,3.7l-8.1,30.5l0.1,0l17.6-26.2l8,3.6l-16.9,37.2l-4.8-2.2l15.2-33.5l-0.1,0l-20.5,31.1
				l-5.2-2.3l9.4-36.1l-0.1,0l-15.2,33.5l-4.5-2.1L403.9,229.9z"/>
		</g>
	</g>
	
		<rect x="-6" y="175.5" transform="matrix(0.3019 -0.9533 0.9533 0.3019 -244.827 627.186)" fill="none" width="623.7" height="610.5"/>
	<g>
		<g enable-background="new    ">
			<path fill="#0078AE" d="M441.4,248.4l13.1,8.1l-2.5,4l-8.3-5.1l-6.8,10.9l7.8,4.8l-2.5,4l-7.8-4.8l-7.3,11.7l8.3,5.1l-2.5,4
				l-13.1-8.1L441.4,248.4z"/>
		</g>
	</g>
	
		<rect x="-6" y="175.5" transform="matrix(0.3019 -0.9533 0.9533 0.3019 -244.827 627.186)" fill="none" width="623.7" height="610.5"/>
	<g>
		<g enable-background="new    ">
			<path fill="#0078AE" d="M463.1,262.6l15.2,11.8l-2.9,3.8L470,274l-22.2,28.5l-4.5-3.5l22.2-28.5l-5.4-4.2L463.1,262.6z"/>
		</g>
	</g>
	
		<rect x="-6" y="175.5" transform="matrix(0.3019 -0.9533 0.9533 0.3019 -244.827 627.186)" fill="none" width="623.7" height="610.5"/>
	<g>
		<g enable-background="new    ">
			<path fill="#0078AE" d="M486.6,281.9l4,4l-12.3,12.5l5.4,5.3l12.3-12.5l4,4l-28.6,29.2l-4-4l13-13.3l-5.4-5.3l-13,13.3l-4-4
				L486.6,281.9z"/>
		</g>
	</g>
	
		<rect x="-6" y="175.5" transform="matrix(0.3019 -0.9533 0.9533 0.3019 -244.827 627.186)" fill="none" width="623.7" height="610.5"/>
	<g>
		<g enable-background="new    ">
			<path fill="#0078AE" d="M501.4,311.5c4.5-3.6,9.6-5.2,14.4,0.8c4.6,5.7,3,9.9-1.9,13.8L497.7,339c-4.5,3.6-9.6,5.2-14.4-0.8
				c-4.5-5.7-3-9.8,2-13.8L501.4,311.5z M488.5,329c-2.7,2.2-3.2,4.6-1.8,6.4c1.5,1.9,3.9,1.9,6.7-0.3l16.8-13.4
				c3.1-2.5,3.8-4.7,2.1-6.8c-1.6-2-3.9-1.9-7,0.6L488.5,329z"/>
		</g>
	</g>
	
		<rect x="-6" y="175.5" transform="matrix(0.3019 -0.9533 0.9533 0.3019 -244.827 627.186)" fill="none" width="623.7" height="610.5"/>
	<g>
		<g enable-background="new    ">
			<path fill="#0078AE" d="M528.7,330.9l4.8,7.8c4.8,7.8,2.6,10-7.5,16.3l-10.4,6.4c-8.9,5.5-12.7,5.6-17.4-2l-4.3-7L528.7,330.9z
				 M501,354.6l1.4,2.3c2.2,3.6,4.5,3.1,10.5-0.6l12-7.4c5.2-3.2,6.6-4.8,4-8.9l-1.2-1.9L501,354.6z"/>
		</g>
	</g>
	
		<rect x="-6" y="175.5" transform="matrix(0.3019 -0.9533 0.9533 0.3019 -244.827 627.186)" fill="none" width="623.7" height="610.5"/>
	<g>
		<g enable-background="new    ">
			<path fill="#0078AE" d="M536.1,363.1c5.2-2.4,10.6-2.8,13.8,4.2c3.1,6.6,0.6,10.3-5.2,13l-18.8,8.7c-5.2,2.4-10.6,2.8-13.8-4.2
				c-3-6.6-0.6-10.3,5.2-12.9L536.1,363.1z M519.4,377.1c-3.2,1.5-4.2,3.7-3.2,5.8c1,2.2,3.4,2.8,6.5,1.3l19.5-9
				c3.7-1.7,4.8-3.7,3.7-6.1c-1.1-2.3-3.3-2.8-7-1.1L519.4,377.1z"/>
		</g>
	</g>
	
		<rect x="-6" y="175.5" transform="matrix(0.3019 -0.9533 0.9533 0.3019 -244.827 627.186)" fill="none" width="623.7" height="610.5"/>
	<g>
		<g enable-background="new    ">
			<path fill="#0078AE" d="M557.8,388.7l1.8,5.4l-34.3,11.5l3,9l-4.5,1.5l-4.8-14.4L557.8,388.7z"/>
		</g>
	</g>
	
		<rect x="-6" y="175.5" transform="matrix(0.3019 -0.9533 0.9533 0.3019 -244.827 627.186)" fill="none" width="623.7" height="610.5"/>
	<g>
		<g enable-background="new    ">
			<path fill="#0078AE" d="M555.8,416.7c5.6-1.2,10.9-0.4,12.5,7.1c1.5,7.1-1.7,10.2-7.9,11.5l-20.2,4.4c-5.6,1.2-10.9,0.4-12.5-7.1
				c-1.5-7.1,1.7-10.2,7.9-11.5L555.8,416.7z M536.5,426.7c-3.4,0.7-4.9,2.7-4.4,5c0.5,2.3,2.7,3.5,6.1,2.7l21-4.5
				c3.9-0.8,5.5-2.6,4.9-5.1c-0.5-2.5-2.7-3.4-6.6-2.6L536.5,426.7z"/>
		</g>
	</g>
	
		<rect x="-6" y="175.5" transform="matrix(0.3019 -0.9533 0.9533 0.3019 -244.827 627.186)" fill="none" width="623.7" height="610.5"/>
	<g>
		<g enable-background="new    ">
			<path fill="#0078AE" d="M562.3,460.5l2.1-0.2c2.9-0.3,4.5-1.8,4.3-4c-0.2-2.6-2.7-3.7-7.1-3.3l-20.5,1.9c-3.3,0.3-5.2,2.1-5,4.4
				c0.1,1.6,0.5,2.9,0.7,3.6l12-1.1l-0.3-3.7l4.7-0.4l0.9,9.4l-20.5,1.9c-0.7-2.2-1.6-6-1.9-9.2c-0.7-7.2,2.9-9.8,9.2-10.4l20.6-1.9
				c7.6-0.7,10.9,1.3,11.6,8.6c0.6,6-1.4,9.4-6.5,9.9l-3.7,0.3L562.3,460.5z"/>
		</g>
	</g>
	
		<rect x="-6" y="175.5" transform="matrix(0.3019 -0.9533 0.9533 0.3019 -244.827 627.186)" fill="none" width="623.7" height="610.5"/>
	<g>
		<g enable-background="new    ">
			<path fill="#0078AE" d="M573.7,477.3l-0.2,5.7l-17.4,4.4l0,0.1l17,6.2l-0.2,5l-23.9-8.6l-16.7-0.5l0.2-5.7l16.7,0.5L573.7,477.3z
				"/>
		</g>
	</g>
</g>
<g>
	<path fill="#0078AE" d="M493.2,626.8c1.5-1.5,2.2-3.7,0-5.2c-1.5-1.5-2.9-1.5-4.4,0s-0.7,2.9,0.7,4.4l-1.5,2.2
		c-2.9-2.2-2.9-5.2-0.7-7.4c2.2-2.2,5.2-2.9,7.4-0.7c2.9,2.9,1.5,5.2,0.7,5.9l0,0c2.2-2.2,4.4-1.5,6.6,0.7c2.9,2.9,2.9,5.9,0,8.1
		c-3.7,4.4-7.4,0.7-8.1,0l1.5-2.2c1.5,1.5,2.9,2.2,4.4,0.7s0.7-3.7-0.7-4.4c-2.2-2.2-3.7-1.5-5.9,0.7V626.8z"/>
</g>
</svg>
