<?xml version="1.0" encoding="utf-8"?>
<!-- Generator: Adobe Illustrator 18.1.1, SVG Export Plug-In . SVG Version: 6.00 Build 0)  -->
<svg version="1.1" id="Layer_1" xmlns="http://www.w3.org/2000/svg" xmlns:xlink="http://www.w3.org/1999/xlink" x="0px" y="0px"
	 viewBox="0 0 1165.4 380.8" enable-background="new 0 0 1165.4 380.8" xml:space="preserve">
<rect x="106.2" y="310.4" fill="#BCD6E9" width="1059.2" height="69.8"/>
<rect x="106.2" y="170.7" fill="#BCD6E9" width="1059.2" height="69.8"/>
<rect x="106.2" y="0" fill="#BCD6E9" width="1059.2" height="69.8"/>
<line fill="none" stroke="#D0D2D3" stroke-miterlimit="10" x1="0" y1="69.8" x2="106.2" y2="69.8"/>
<line fill="none" stroke="#D0D2D3" stroke-miterlimit="10" x1="106.2" y1="69.8" x2="1165.4" y2="69.8"/>
<line fill="none" stroke="#D0D2D3" stroke-miterlimit="10" x1="106.2" y1="69.2" x2="106.2" y2="0.6"/>
<line fill="none" stroke="#D0D2D3" stroke-miterlimit="10" x1="106.2" y1="170.1" x2="106.2" y2="70.5"/>
<line fill="none" stroke="#D0D2D3" stroke-miterlimit="10" x1="106.2" y1="239.9" x2="106.2" y2="171.4"/>
<line fill="none" stroke="#D0D2D3" stroke-miterlimit="10" x1="106.2" y1="309.8" x2="106.2" y2="241.2"/>
<line fill="none" stroke="#D0D2D3" stroke-miterlimit="10" x1="106.2" y1="379.6" x2="106.2" y2="311.1"/>
<line fill="none" stroke="#D0D2D3" stroke-miterlimit="10" x1="0" y1="380.3" x2="106.2" y2="380.3"/>
<line fill="none" stroke="#D0D2D3" stroke-miterlimit="10" x1="106.2" y1="380.3" x2="1165.4" y2="380.3"/>
<line fill="none" stroke="#D0D2D3" stroke-miterlimit="10" x1="0" y1="170.7" x2="106.2" y2="170.7"/>
<line fill="none" stroke="#D0D2D3" stroke-miterlimit="10" x1="106.2" y1="170.7" x2="1165.4" y2="170.7"/>
<line fill="none" stroke="#D0D2D3" stroke-miterlimit="10" x1="0" y1="240.6" x2="106.2" y2="240.6"/>
<line fill="none" stroke="#D0D2D3" stroke-miterlimit="10" x1="106.2" y1="240.6" x2="1165.4" y2="240.6"/>
<line fill="none" stroke="#D0D2D3" stroke-miterlimit="10" x1="0" y1="310.4" x2="106.2" y2="310.4"/>
<line fill="none" stroke="#D0D2D3" stroke-miterlimit="10" x1="106.2" y1="310.4" x2="1165.4" y2="310.4"/>
<g>
	<path fill="#1D1756" d="M127.3,30.5h-5.6v-1.4h12.6v1.4h-5.5v14.1h-1.5V30.5z"/>
	<path fill="#1D1756" d="M140.4,37.8h0.6v-0.3c0-2.1-1.2-2.9-2.8-2.9c-1.8,0-3.1,1.1-3.1,1.1l-0.7-1.1c0,0,1.5-1.3,3.9-1.3
		c2.7,0,4.1,1.5,4.1,4.2v7.1h-1.4v-1.2c0-0.6,0-0.9,0-0.9h0c0,0-0.9,2.4-3.7,2.4c-1.8,0-3.8-1.1-3.8-3.3
		C133.6,37.9,138.5,37.8,140.4,37.8z M137.6,43.6c2.1,0,3.4-2.2,3.4-4.1V39h-0.6c-1.7,0-5.2,0.1-5.2,2.5
		C135.2,42.6,136,43.6,137.6,43.6z"/>
	<path fill="#1D1756" d="M146,29.2h1.5v8.6h1.8l3.3-4.2h1.8l-3.9,4.8v0l4.2,6.2H153l-3.7-5.5h-1.8v5.5H146V29.2z"/>
	<path fill="#1D1756" d="M161.4,33.3c3.1,0,4.6,2.4,4.6,5.1c0,0.3,0,0.8,0,0.8h-8.5c0.1,2.8,2,4.4,4.3,4.4c2,0,3.4-1.3,3.4-1.3
		l0.7,1.1c0,0-1.6,1.5-4.1,1.5c-3.3,0-5.8-2.4-5.8-5.8C155.9,35.5,158.4,33.3,161.4,33.3z M164.5,37.9c-0.1-2.3-1.5-3.4-3.1-3.4
		c-1.8,0-3.5,1.2-3.8,3.4H164.5z"/>
	<path fill="#1D1756" d="M169,33.6h1.5v1.6c0,0.5,0,0.9,0,0.9h0c0.4-1,1.8-2.8,4.4-2.8c2.7,0,3.7,1.6,3.7,4.3v7h-1.5V38
		c0-1.7-0.3-3.3-2.4-3.3c-1.9,0-3.5,1.3-4,3.1c-0.1,0.5-0.2,1-0.2,1.5v5.3H169V33.6z"/>
	<path fill="#1D1756" d="M193,33.1c3.4,0,6.2,2.4,6.2,5.9c0,3.5-2.8,5.9-6.2,5.9c-3.4,0-6.2-2.4-6.2-5.9
		C186.9,35.6,189.6,33.1,193,33.1z M193,42.5c1.8,0,3.3-1.4,3.3-3.5c0-2.1-1.5-3.5-3.3-3.5c-1.8,0-3.3,1.4-3.3,3.5
		C189.7,41.1,191.2,42.5,193,42.5z"/>
	<path fill="#1D1756" d="M201.4,33.4h2.7v1.3c0,0.4,0,0.8,0,0.8h0c0.5-0.9,1.7-2.3,4-2.3c2.5,0,3.9,1.3,3.9,4.3v7.2h-2.8V38
		c0-1.4-0.4-2.3-1.8-2.3c-1.5,0-2.6,0.9-3,2.3c-0.2,0.5-0.2,1-0.2,1.5v5.1h-2.8V33.4z"/>
	<path fill="#1D1756" d="M220.2,33.1c2.9,0,4.3,1.7,4.3,1.7l-1.2,1.9c0,0-1.2-1.2-2.9-1.2c-2.1,0-3.4,1.6-3.4,3.5
		c0,1.9,1.4,3.5,3.5,3.5c1.9,0,3.3-1.4,3.3-1.4l1.1,2c0,0-1.6,1.8-4.6,1.8c-3.7,0-6.1-2.6-6.1-5.9C214.1,35.8,216.5,33.1,220.2,33.1
		z"/>
	<path fill="#1D1756" d="M231.8,33.1c3.2,0,5,2.4,5,5.3c0,0.3-0.1,1.1-0.1,1.1H229c0.2,2,1.7,3,3.4,3c1.8,0,3.2-1.2,3.2-1.2l1.1,2
		c0,0-1.7,1.6-4.5,1.6c-3.7,0-6-2.7-6-5.9C226.1,35.6,228.5,33.1,231.8,33.1z M234,37.6c0-1.5-1-2.3-2.2-2.3c-1.4,0-2.4,0.9-2.7,2.3
		H234z"/>
	<path fill="#1D1756" d="M248.8,33.1c2.5,0,3.2,1.4,3.2,1.4h0c0,0,0-0.3,0-0.6V29h2.8v15.6h-2.6v-0.9c0-0.4,0-0.7,0-0.7h0
		c0,0-0.9,1.9-3.5,1.9c-3,0-5-2.4-5-5.9C243.7,35.4,245.8,33.1,248.8,33.1z M249.3,42.5c1.5,0,2.8-1.1,2.8-3.5
		c0-1.7-0.9-3.5-2.8-3.5c-1.5,0-2.8,1.3-2.8,3.5C246.5,41.1,247.6,42.5,249.3,42.5z"/>
	<path fill="#1D1756" d="M263.6,37.6h0.4v-0.2c0-1.5-0.9-2-2.2-2c-1.6,0-3.1,1.1-3.1,1.1l-1.1-2c0,0,1.7-1.4,4.4-1.4
		c2.9,0,4.7,1.6,4.7,4.5v7h-2.6v-0.9c0-0.4,0-0.8,0-0.8h0c0,0-0.9,2-3.4,2c-2,0-3.8-1.3-3.8-3.5C256.9,37.8,261.8,37.6,263.6,37.6z
		 M261.5,42.7c1.5,0,2.5-1.6,2.5-2.9v-0.3h-0.5c-1.4,0-3.7,0.2-3.7,1.8C259.8,42,260.3,42.7,261.5,42.7z"/>
	<path fill="#1D1756" d="M269.6,29h2.8v2.5h-2.8V29z M269.6,33.4h2.8v11.2h-2.8V33.4z"/>
	<path fill="#1D1756" d="M275.4,29h2.8v11.7c0,1.2,0.4,1.5,1.1,1.5c0.2,0,0.4,0,0.4,0v2.4c0,0-0.4,0.1-0.9,0.1
		c-1.5,0-3.5-0.4-3.5-3.6V29z"/>
	<path fill="#1D1756" d="M281.2,46.4c0,0,0.6,0.5,1.3,0.5c0.8,0,1.5-0.5,1.9-1.5l0.4-1l-4.7-11h3.1l2.4,6.5c0.2,0.6,0.4,1.5,0.4,1.5
		h0c0,0,0.2-0.9,0.4-1.5l2.2-6.5h3.1l-5,12.9c-0.8,2-2.4,2.9-4,2.9c-1.3,0-2.3-0.7-2.3-0.7L281.2,46.4z"/>
	<path fill="#1D1756" d="M293.7,42.8h1.7l-1.6,3.9h-1.3L293.7,42.8z"/>
	<path fill="#1D1756" d="M309.5,33.3c3.1,0,4.6,2.4,4.6,5.1c0,0.3,0,0.8,0,0.8h-8.5c0.1,2.8,2,4.4,4.3,4.4c2,0,3.4-1.3,3.4-1.3
		l0.7,1.1c0,0-1.6,1.5-4.1,1.5c-3.3,0-5.8-2.4-5.8-5.8C304,35.5,306.5,33.3,309.5,33.3z M312.6,37.9c-0.1-2.3-1.5-3.4-3.1-3.4
		c-1.8,0-3.5,1.2-3.8,3.4H312.6z"/>
	<path fill="#1D1756" d="M316.9,29.2h1.6V31h-1.6V29.2z M316.9,33.6h1.5v11.1h-1.5V33.6z"/>
	<path fill="#1D1756" d="M322.5,34.9H321v-1.3h1.5v-3.2h1.5v3.2h2.8v1.3H324v5.5c0,2.6,1.6,2.9,2.5,2.9c0.3,0,0.5,0,0.5,0v1.3
		c0,0-0.2,0-0.6,0c-1.3,0-3.9-0.4-3.9-4.1V34.9z"/>
	<path fill="#1D1756" d="M329.4,29.2h1.5v6c0,0.5,0,0.9,0,0.9h0c0.4-1.1,1.9-2.8,4.4-2.8c2.7,0,3.7,1.6,3.7,4.3v7h-1.5V38
		c0-1.7-0.3-3.3-2.4-3.3c-1.9,0-3.5,1.3-4,3.1c-0.1,0.4-0.2,0.9-0.2,1.5v5.3h-1.5V29.2z"/>
	<path fill="#1D1756" d="M347.1,33.3c3.1,0,4.6,2.4,4.6,5.1c0,0.3,0,0.8,0,0.8h-8.5c0.1,2.8,2,4.4,4.3,4.4c2,0,3.4-1.3,3.4-1.3
		l0.7,1.1c0,0-1.6,1.5-4.1,1.5c-3.3,0-5.8-2.4-5.8-5.8C341.7,35.5,344.1,33.3,347.1,33.3z M350.2,37.9c-0.1-2.3-1.5-3.4-3.1-3.4
		c-1.8,0-3.5,1.2-3.8,3.4H350.2z"/>
	<path fill="#1D1756" d="M354.6,33.6h1.5v2c0,0.5,0,0.9,0,0.9h0c0.5-1.7,1.8-2.9,3.5-2.9c0.3,0,0.6,0.1,0.6,0.1V35c0,0-0.3,0-0.6,0
		c-1.6,0-2.7,1.2-3.2,2.9c-0.2,0.7-0.3,1.5-0.3,2.2v4.7h-1.5V33.6z"/>
	<path fill="#1D1756" d="M366.9,33.4h2.9l2,7.4c0.2,0.6,0.2,1.2,0.2,1.2h0c0,0,0.1-0.6,0.3-1.2l2.1-7.3h2.5l2.1,7.3
		c0.2,0.6,0.2,1.2,0.2,1.2h0c0,0,0.1-0.6,0.2-1.2l2-7.4h2.9l-3.4,11.2h-3.1l-1.9-6.4c-0.2-0.6-0.3-1.2-0.3-1.2h0
		c0,0-0.1,0.6-0.3,1.2l-1.9,6.4h-3.1L366.9,33.4z"/>
	<path fill="#1D1756" d="M386.2,29h2.8v5.4c0,0.6,0,0.9,0,0.9h0c0.6-1.1,1.9-2.2,3.9-2.2c2.5,0,3.9,1.3,3.9,4.3v7.2H394V38
		c0-1.4-0.4-2.3-1.8-2.3c-1.5,0-2.6,1-3,2.3c-0.1,0.4-0.2,0.9-0.2,1.5v5.1h-2.8V29z"/>
	<path fill="#1D1756" d="M405,33.1c3.4,0,6.2,2.4,6.2,5.9c0,3.5-2.8,5.9-6.2,5.9c-3.4,0-6.2-2.4-6.2-5.9
		C398.8,35.6,401.6,33.1,405,33.1z M405,42.5c1.8,0,3.3-1.4,3.3-3.5c0-2.1-1.5-3.5-3.3-3.5c-1.8,0-3.3,1.4-3.3,3.5
		C401.7,41.1,403.2,42.5,405,42.5z"/>
	<path fill="#1D1756" d="M413.3,29h2.8v11.7c0,1.2,0.4,1.5,1.1,1.5c0.2,0,0.4,0,0.4,0v2.4c0,0-0.4,0.1-0.9,0.1
		c-1.5,0-3.5-0.4-3.5-3.6V29z"/>
	<path fill="#1D1756" d="M424.6,33.1c3.2,0,5,2.4,5,5.3c0,0.3-0.1,1.1-0.1,1.1h-7.7c0.2,2,1.7,3,3.4,3c1.8,0,3.2-1.2,3.2-1.2l1.1,2
		c0,0-1.7,1.6-4.5,1.6c-3.7,0-6-2.7-6-5.9C418.9,35.6,421.2,33.1,424.6,33.1z M426.7,37.6c0-1.5-1-2.3-2.2-2.3
		c-1.4,0-2.4,0.9-2.7,2.3H426.7z"/>
	<path fill="#1D1756" d="M442.5,33.1c3.4,0,6.2,2.4,6.2,5.9c0,3.5-2.8,5.9-6.2,5.9c-3.4,0-6.2-2.4-6.2-5.9
		C436.3,35.6,439.1,33.1,442.5,33.1z M442.5,42.5c1.8,0,3.3-1.4,3.3-3.5c0-2.1-1.5-3.5-3.3-3.5c-1.8,0-3.3,1.4-3.3,3.5
		C439.2,41.1,440.7,42.5,442.5,42.5z"/>
	<path fill="#1D1756" d="M450.9,33.4h2.7v1.9c0,0.4,0,0.8,0,0.8h0c0.5-1.6,1.8-2.9,3.6-2.9c0.3,0,0.5,0,0.5,0V36c0,0-0.3,0-0.7,0
		c-1.2,0-2.5,0.7-3.1,2.4c-0.2,0.6-0.2,1.2-0.2,1.8v4.4h-2.8V33.4z"/>
	<path fill="#1D1756" d="M470.2,33.1c2.9,0,4.3,1.7,4.3,1.7l-1.2,1.9c0,0-1.2-1.2-2.9-1.2c-2.1,0-3.4,1.6-3.4,3.5
		c0,1.9,1.4,3.5,3.5,3.5c1.9,0,3.3-1.4,3.3-1.4l1.1,2c0,0-1.6,1.8-4.6,1.8c-3.7,0-6.1-2.6-6.1-5.9C464.1,35.8,466.5,33.1,470.2,33.1
		z"/>
	<path fill="#1D1756" d="M476.9,33.4h2.7v1.9c0,0.4,0,0.8,0,0.8h0c0.5-1.6,1.8-2.9,3.6-2.9c0.3,0,0.5,0,0.5,0V36c0,0-0.3,0-0.7,0
		c-1.2,0-2.5,0.7-3.1,2.4c-0.2,0.6-0.2,1.2-0.2,1.8v4.4h-2.8V33.4z"/>
	<path fill="#1D1756" d="M485.4,33.4h2.8V40c0,1.4,0.4,2.3,1.7,2.3c2,0,3.1-1.8,3.1-3.8v-5.1h2.8v11.2h-2.7v-1.3c0-0.4,0-0.8,0-0.8
		h0c-0.6,1.2-2,2.3-3.9,2.3c-2.4,0-3.9-1.2-3.9-4.3V33.4z"/>
	<path fill="#1D1756" d="M499.3,41.3c0,0,1.2,1.2,3.1,1.2c0.8,0,1.5-0.4,1.5-1c0-1.7-5.5-1.5-5.5-5.1c0-2.1,1.9-3.3,4.3-3.3
		c2.5,0,3.8,1.3,3.8,1.3l-1,2.1c0,0-1-1-2.8-1c-0.7,0-1.4,0.3-1.4,1c0,1.6,5.5,1.4,5.5,5c0,1.9-1.6,3.4-4.3,3.4
		c-2.8,0-4.4-1.7-4.4-1.7L499.3,41.3z"/>
	<path fill="#1D1756" d="M508.9,29h2.8v5.4c0,0.6,0,0.9,0,0.9h0c0.6-1.1,1.9-2.2,3.9-2.2c2.5,0,3.9,1.3,3.9,4.3v7.2h-2.8V38
		c0-1.4-0.4-2.3-1.8-2.3c-1.5,0-2.6,1-3,2.3c-0.1,0.4-0.2,0.9-0.2,1.5v5.1h-2.8V29z"/>
	<path fill="#1D1756" d="M527.3,33.1c3.2,0,5,2.4,5,5.3c0,0.3-0.1,1.1-0.1,1.1h-7.7c0.2,2,1.7,3,3.4,3c1.8,0,3.2-1.2,3.2-1.2l1.1,2
		c0,0-1.7,1.6-4.5,1.6c-3.7,0-6-2.7-6-5.9C521.6,35.6,524,33.1,527.3,33.1z M529.5,37.6c0-1.5-1-2.3-2.2-2.3c-1.4,0-2.4,0.9-2.7,2.3
		H529.5z"/>
	<path fill="#1D1756" d="M538.9,33.1c2.5,0,3.2,1.4,3.2,1.4h0c0,0,0-0.3,0-0.6V29h2.8v15.6h-2.6v-0.9c0-0.4,0-0.7,0-0.7h0
		c0,0-0.9,1.9-3.5,1.9c-3,0-5-2.4-5-5.9C533.8,35.4,535.9,33.1,538.9,33.1z M539.4,42.5c1.5,0,2.8-1.1,2.8-3.5
		c0-1.7-0.9-3.5-2.8-3.5c-1.5,0-2.8,1.3-2.8,3.5C536.6,41.1,537.8,42.5,539.4,42.5z"/>
	<path fill="#1D1756" d="M548.3,41.8h2.8l-2.1,5.1h-2.1L548.3,41.8z"/>
	<path fill="#1D1756" d="M558,33.4h2.9l2,7.4c0.2,0.6,0.2,1.2,0.2,1.2h0c0,0,0.1-0.6,0.3-1.2l2.1-7.3h2.5l2.1,7.3
		c0.2,0.6,0.2,1.2,0.2,1.2h0c0,0,0.1-0.6,0.2-1.2l2-7.4h2.9L572,44.6h-3.1l-1.9-6.4c-0.2-0.6-0.3-1.2-0.3-1.2h0c0,0-0.1,0.6-0.3,1.2
		l-1.9,6.4h-3.1L558,33.4z"/>
	<path fill="#1D1756" d="M577.3,29h2.8v2.5h-2.8V29z M577.3,33.4h2.8v11.2h-2.8V33.4z"/>
	<path fill="#1D1756" d="M583.6,35.8h-1.5v-2.2h1.5v-3.2h2.7v3.2h2.6v2.2h-2.6v4.4c0,1.8,1.5,2.1,2.2,2.1c0.3,0,0.5,0,0.5,0v2.4
		c0,0-0.3,0.1-0.9,0.1c-1.6,0-4.7-0.5-4.7-4.2V35.8z"/>
	<path fill="#1D1756" d="M591.4,29h2.8v5.4c0,0.6,0,0.9,0,0.9h0c0.5-1.1,1.9-2.2,3.9-2.2c2.5,0,3.9,1.3,3.9,4.3v7.2h-2.8V38
		c0-1.4-0.4-2.3-1.8-2.3c-1.5,0-2.6,1-3,2.3c-0.1,0.4-0.2,0.9-0.2,1.5v5.1h-2.8V29z"/>
	<path fill="#1D1756" d="M615.6,33.1c3.4,0,6.2,2.4,6.2,5.9c0,3.5-2.8,5.9-6.2,5.9c-3.4,0-6.2-2.4-6.2-5.9
		C609.4,35.6,612.2,33.1,615.6,33.1z M615.6,42.5c1.8,0,3.3-1.4,3.3-3.5c0-2.1-1.5-3.5-3.3-3.5c-1.8,0-3.3,1.4-3.3,3.5
		C612.3,41.1,613.8,42.5,615.6,42.5z"/>
	<path fill="#1D1756" d="M624,33.4h2.7v1.9c0,0.4,0,0.8,0,0.8h0c0.5-1.6,1.8-2.9,3.6-2.9c0.3,0,0.5,0,0.5,0V36c0,0-0.3,0-0.7,0
		c-1.2,0-2.5,0.7-3.1,2.4c-0.2,0.6-0.2,1.2-0.2,1.8v4.4H624V33.4z"/>
	<path fill="#1D1756" d="M636.8,33.4h2.9l2,7.4c0.2,0.6,0.2,1.2,0.2,1.2h0c0,0,0.1-0.6,0.3-1.2l2.1-7.3h2.5l2.1,7.3
		c0.2,0.6,0.2,1.2,0.2,1.2h0c0,0,0.1-0.6,0.2-1.2l2-7.4h2.9l-3.4,11.2h-3.1l-1.9-6.4c-0.2-0.6-0.3-1.2-0.3-1.2h0
		c0,0-0.1,0.6-0.3,1.2l-1.9,6.4h-3.1L636.8,33.4z"/>
	<path fill="#1D1756" d="M656.1,29h2.8v2.5h-2.8V29z M656.1,33.4h2.8v11.2h-2.8V33.4z"/>
	<path fill="#1D1756" d="M662.4,35.8H661v-2.2h1.5v-3.2h2.7v3.2h2.6v2.2h-2.6v4.4c0,1.8,1.5,2.1,2.2,2.1c0.3,0,0.5,0,0.5,0v2.4
		c0,0-0.3,0.1-0.9,0.1c-1.6,0-4.7-0.5-4.7-4.2V35.8z"/>
	<path fill="#1D1756" d="M670.2,29h2.8v5.4c0,0.6,0,0.9,0,0.9h0c0.5-1.1,1.9-2.2,3.9-2.2c2.5,0,3.9,1.3,3.9,4.3v7.2H678V38
		c0-1.4-0.4-2.3-1.8-2.3c-1.5,0-2.6,1-3,2.3c-0.1,0.4-0.2,0.9-0.2,1.5v5.1h-2.8V29z"/>
	<path fill="#1D1756" d="M689,33.1c3.4,0,6.2,2.4,6.2,5.9c0,3.5-2.8,5.9-6.2,5.9c-3.4,0-6.2-2.4-6.2-5.9
		C682.9,35.6,685.6,33.1,689,33.1z M689.1,42.5c1.8,0,3.3-1.4,3.3-3.5c0-2.1-1.5-3.5-3.3-3.5c-1.8,0-3.3,1.4-3.3,3.5
		C685.7,41.1,687.2,42.5,689.1,42.5z"/>
	<path fill="#1D1756" d="M697.3,33.4h2.8V40c0,1.4,0.4,2.3,1.7,2.3c2,0,3.1-1.8,3.1-3.8v-5.1h2.8v11.2h-2.7v-1.3c0-0.4,0-0.8,0-0.8
		h0c-0.6,1.2-2,2.3-3.9,2.3c-2.4,0-3.9-1.2-3.9-4.3V33.4z"/>
	<path fill="#1D1756" d="M711.3,35.8h-1.5v-2.2h1.5v-3.2h2.7v3.2h2.6v2.2h-2.6v4.4c0,1.8,1.5,2.1,2.2,2.1c0.3,0,0.5,0,0.5,0v2.4
		c0,0-0.3,0.1-0.9,0.1c-1.6,0-4.7-0.5-4.7-4.2V35.8z"/>
	<path fill="#1D1756" d="M725.1,35.8h-1.4v-2.2h1.4v-0.5c0-3.7,3-4.2,4.6-4.2c0.6,0,0.9,0.1,0.9,0.1v2.4c0,0-0.2,0-0.6,0
		c-0.8,0-2.2,0.2-2.2,1.8v0.4h2.4v2.2h-2.4v8.8h-2.8V35.8z"/>
	<path fill="#1D1756" d="M737.5,33.1c3.4,0,6.2,2.4,6.2,5.9c0,3.5-2.8,5.9-6.2,5.9c-3.4,0-6.2-2.4-6.2-5.9
		C731.3,35.6,734,33.1,737.5,33.1z M737.5,42.5c1.8,0,3.3-1.4,3.3-3.5c0-2.1-1.5-3.5-3.3-3.5c-1.8,0-3.3,1.4-3.3,3.5
		C734.1,41.1,735.7,42.5,737.5,42.5z"/>
	<path fill="#1D1756" d="M751.2,33.1c3.4,0,6.2,2.4,6.2,5.9c0,3.5-2.8,5.9-6.2,5.9c-3.4,0-6.2-2.4-6.2-5.9
		C745,35.6,747.8,33.1,751.2,33.1z M751.2,42.5c1.8,0,3.3-1.4,3.3-3.5c0-2.1-1.5-3.5-3.3-3.5c-1.8,0-3.3,1.4-3.3,3.5
		C747.9,41.1,749.4,42.5,751.2,42.5z"/>
	<path fill="#1D1756" d="M763.9,33.1c2.5,0,3.2,1.4,3.2,1.4h0c0,0,0-0.3,0-0.6V29h2.8v15.6h-2.6v-0.9c0-0.4,0-0.7,0-0.7h0
		c0,0-0.9,1.9-3.5,1.9c-3,0-5-2.4-5-5.9C758.9,35.4,761,33.1,763.9,33.1z M764.5,42.5c1.5,0,2.8-1.1,2.8-3.5c0-1.7-0.9-3.5-2.8-3.5
		c-1.5,0-2.8,1.3-2.8,3.5C761.7,41.1,762.8,42.5,764.5,42.5z"/>
	<path fill="#1D1756" d="M772.2,35.9h2v-5.1c0-0.3,0-0.6,0-0.6h0c0,0-0.1,0.2-0.4,0.5l-0.7,0.7l-1-1l2.3-2.2h1.5v7.7h2v1.4h-5.6
		V35.9z"/>
</g>
<g>
	<path fill="#1D1756" d="M123.5,98.8h2.8l5.9,9c0.6,0.9,1.3,2.4,1.3,2.4h0c0,0-0.2-1.5-0.2-2.4v-9h2.8v15.6h-2.8l-5.9-9
		c-0.6-0.9-1.3-2.4-1.3-2.4h0c0,0,0.2,1.5,0.2,2.4v9h-2.8V98.8z"/>
	<path fill="#1D1756" d="M145.3,103c3.4,0,6.2,2.4,6.2,5.9c0,3.5-2.8,5.9-6.2,5.9c-3.4,0-6.2-2.4-6.2-5.9
		C139.1,105.4,141.8,103,145.3,103z M145.3,112.4c1.8,0,3.3-1.4,3.3-3.5c0-2.1-1.5-3.5-3.3-3.5c-1.8,0-3.3,1.4-3.3,3.5
		C141.9,111,143.4,112.4,145.3,112.4z"/>
	<path fill="#1D1756" d="M164.3,103.1c2.7,0,4,1.6,4,1.6l-0.8,1.1c0,0-1.2-1.3-3.2-1.3c-2.4,0-4.3,1.8-4.3,4.4
		c0,2.6,1.9,4.4,4.4,4.4c2.2,0,3.5-1.6,3.5-1.6l0.7,1.2c0,0-1.5,1.7-4.3,1.7c-3.3,0-5.8-2.4-5.8-5.8
		C158.5,105.5,161.1,103.1,164.3,103.1z"/>
	<path fill="#1D1756" d="M171.1,99h1.5v12.5c0,1.5,0.7,1.7,1.2,1.7c0.2,0,0.4,0,0.4,0v1.3c0,0-0.3,0-0.6,0c-0.9,0-2.6-0.3-2.6-2.7
		V99z"/>
	<path fill="#1D1756" d="M176.6,99h1.6v1.9h-1.6V99z M176.6,103.4h1.5v11.1h-1.5V103.4z"/>
	<path fill="#1D1756" d="M181.7,103.4h1.5v1.6c0,0.5,0,0.9,0,0.9h0c0.4-1,1.8-2.8,4.4-2.8c2.7,0,3.7,1.6,3.7,4.3v7h-1.5v-6.6
		c0-1.7-0.3-3.3-2.4-3.3c-1.9,0-3.5,1.3-4,3.1c-0.1,0.5-0.2,1-0.2,1.5v5.3h-1.5V103.4z"/>
	<path fill="#1D1756" d="M194.8,99h1.6v1.9h-1.6V99z M194.8,103.4h1.5v11.1h-1.5V103.4z"/>
	<path fill="#1D1756" d="M205,103.1c2.7,0,4,1.6,4,1.6l-0.8,1.1c0,0-1.2-1.3-3.2-1.3c-2.4,0-4.3,1.8-4.3,4.4c0,2.6,1.9,4.4,4.4,4.4
		c2.2,0,3.5-1.6,3.5-1.6l0.7,1.2c0,0-1.5,1.7-4.3,1.7c-3.3,0-5.8-2.4-5.8-5.8C199.2,105.5,201.8,103.1,205,103.1z"/>
	<path fill="#1D1756" d="M218.1,107.6h0.6v-0.3c0-2.1-1.2-2.9-2.8-2.9c-1.8,0-3.1,1.1-3.1,1.1l-0.7-1.1c0,0,1.5-1.3,3.9-1.3
		c2.7,0,4.1,1.5,4.1,4.2v7.1h-1.4v-1.2c0-0.6,0-0.9,0-0.9h0c0,0-0.9,2.4-3.7,2.4c-1.8,0-3.8-1.1-3.8-3.3
		C211.3,107.7,216.2,107.6,218.1,107.6z M215.3,113.5c2.1,0,3.4-2.2,3.4-4.1v-0.5h-0.6c-1.7,0-5.2,0.1-5.2,2.5
		C212.9,112.4,213.7,113.5,215.3,113.5z"/>
	<path fill="#1D1756" d="M223.6,99h1.5v12.5c0,1.5,0.7,1.7,1.2,1.7c0.2,0,0.4,0,0.4,0v1.3c0,0-0.3,0-0.6,0c-0.9,0-2.6-0.3-2.6-2.7
		V99z"/>
	<path fill="#1D1756" d="M229,99h1.5v12.5c0,1.5,0.7,1.7,1.2,1.7c0.2,0,0.4,0,0.4,0v1.3c0,0-0.3,0-0.6,0c-0.9,0-2.6-0.3-2.6-2.7V99z
		"/>
	<path fill="#1D1756" d="M233.4,117.2c0,0,0.6,0.5,1.3,0.5c1,0,1.6-0.8,2.1-1.8l0.7-1.6l-4.6-11h1.6l3.3,8.1
		c0.2,0.5,0.4,1.2,0.4,1.2h0c0,0,0.2-0.6,0.4-1.2l3.2-8.1h1.6l-5.5,13.4c-0.6,1.4-1.7,2.3-3.2,2.3c-1.1,0-1.9-0.7-1.9-0.7
		L233.4,117.2z"/>
	<path fill="#1D1756" d="M251.3,112.1c0,0,1.2,1.3,3.3,1.3c1.2,0,2.2-0.6,2.2-1.8c0-2.4-6-1.8-6-5.4c0-2,1.8-3.1,3.8-3.1
		c2.3,0,3.4,1.2,3.4,1.2l-0.7,1.1c0,0-0.9-1-2.8-1c-1.1,0-2.2,0.5-2.2,1.7c0,2.4,6,1.8,6,5.4c0,1.8-1.6,3.1-3.8,3.1
		c-2.7,0-4.1-1.6-4.1-1.6L251.3,112.1z"/>
	<path fill="#1D1756" d="M261.1,99h1.6v1.9h-1.6V99z M261.2,103.4h1.5v11.1h-1.5V103.4z"/>
	<path fill="#1D1756" d="M270.2,117.8c2.2,0,3.9-1,3.9-3.5v-1c0-0.4,0-0.8,0-0.8h0c-0.7,1.2-1.8,1.9-3.5,1.9c-3,0-4.9-2.4-4.9-5.7
		c0-3.3,1.8-5.6,4.8-5.6c2.9,0,3.7,1.8,3.7,1.8h0c0,0,0-0.1,0-0.4v-1.2h1.5v10.8c0,3.5-2.6,4.9-5.3,4.9c-1.3,0-2.6-0.3-3.6-0.9
		l0.6-1.2C267.2,117,268.5,117.8,270.2,117.8z M274.1,108.7c0-3.2-1.5-4.2-3.5-4.2c-2.2,0-3.4,1.6-3.4,4.2c0,2.6,1.4,4.4,3.6,4.4
		C272.5,113.1,274.1,112,274.1,108.7z"/>
	<path fill="#1D1756" d="M279.1,103.4h1.5v1.6c0,0.5,0,0.9,0,0.9h0c0.4-1,1.8-2.8,4.4-2.8c2.7,0,3.7,1.6,3.7,4.3v7h-1.5v-6.6
		c0-1.7-0.3-3.3-2.4-3.3c-1.9,0-3.5,1.3-4,3.1c-0.1,0.5-0.2,1-0.2,1.5v5.3h-1.5V103.4z"/>
	<path fill="#1D1756" d="M292.2,99h1.6v1.9h-1.6V99z M292.2,103.4h1.5v11.1h-1.5V103.4z"/>
	<path fill="#1D1756" d="M304.4,104.7h-5v9.8h-1.5v-9.8h-1.4v-1.3h1.4V103c0-3.7,2.6-4.1,3.8-4.1c0.4,0,0.7,0,0.7,0v1.3
		c0,0-0.2,0-0.5,0c-0.9,0-2.5,0.3-2.5,2.8v0.4h6.5v11.1h-1.5V104.7z M304.4,99h1.6v1.9h-1.6V99z"/>
	<path fill="#1D1756" d="M314.7,103.1c2.7,0,4,1.6,4,1.6l-0.8,1.1c0,0-1.2-1.3-3.2-1.3c-2.4,0-4.3,1.8-4.3,4.4
		c0,2.6,1.9,4.4,4.4,4.4c2.2,0,3.5-1.6,3.5-1.6l0.7,1.2c0,0-1.5,1.7-4.3,1.7c-3.3,0-5.8-2.4-5.8-5.8
		C308.9,105.5,311.5,103.1,314.7,103.1z"/>
	<path fill="#1D1756" d="M327.8,107.6h0.6v-0.3c0-2.1-1.2-2.9-2.8-2.9c-1.8,0-3.1,1.1-3.1,1.1l-0.7-1.1c0,0,1.5-1.3,3.9-1.3
		c2.7,0,4.1,1.5,4.1,4.2v7.1h-1.4v-1.2c0-0.6,0-0.9,0-0.9h0c0,0-0.9,2.4-3.7,2.4c-1.8,0-3.8-1.1-3.8-3.3
		C321,107.7,325.9,107.6,327.8,107.6z M325,113.5c2.1,0,3.4-2.2,3.4-4.1v-0.5h-0.6c-1.7,0-5.2,0.1-5.2,2.5
		C322.6,112.4,323.4,113.5,325,113.5z"/>
	<path fill="#1D1756" d="M333.4,103.4h1.5v1.6c0,0.5,0,0.9,0,0.9h0c0.4-1,1.8-2.8,4.4-2.8c2.7,0,3.7,1.6,3.7,4.3v7h-1.5v-6.6
		c0-1.7-0.3-3.3-2.4-3.3c-1.9,0-3.5,1.3-4,3.1c-0.1,0.5-0.2,1-0.2,1.5v5.3h-1.5V103.4z"/>
	<path fill="#1D1756" d="M346.7,104.8h-1.5v-1.3h1.5v-3.2h1.5v3.2h2.8v1.3h-2.8v5.5c0,2.6,1.6,2.9,2.5,2.9c0.3,0,0.5,0,0.5,0v1.3
		c0,0-0.2,0-0.6,0c-1.3,0-3.9-0.4-3.9-4.1V104.8z"/>
	<path fill="#1D1756" d="M363.9,103.1c2.7,0,3.6,2.1,3.6,2.1h0c0,0,0-0.4,0-0.8V99h1.5v15.5h-1.5v-1.2c0-0.5,0-0.8,0-0.8h0
		c0,0-0.9,2.2-3.8,2.2c-3,0-4.8-2.4-4.8-5.8C358.9,105.4,361,103.1,363.9,103.1z M363.9,113.4c1.8,0,3.6-1.3,3.6-4.5
		c0-2.2-1.1-4.4-3.5-4.4c-2,0-3.6,1.6-3.6,4.4C360.4,111.7,361.9,113.4,363.9,113.4z"/>
	<path fill="#1D1756" d="M372.6,103.4h1.5v2c0,0.5,0,0.9,0,0.9h0c0.5-1.7,1.8-2.9,3.5-2.9c0.3,0,0.6,0.1,0.6,0.1v1.5
		c0,0-0.3,0-0.6,0c-1.6,0-2.7,1.2-3.2,2.9c-0.2,0.7-0.3,1.5-0.3,2.2v4.7h-1.5V103.4z"/>
	<path fill="#1D1756" d="M380.3,103.4h1.5v6.6c0,1.7,0.3,3.3,2.4,3.3c2.5,0,4.1-2.2,4.1-4.6v-5.3h1.5v11.1h-1.5v-1.7
		c0-0.5,0-0.9,0-0.9h0c-0.4,1.1-1.9,2.8-4.3,2.8c-2.6,0-3.7-1.4-3.7-4.3V103.4z"/>
	<path fill="#1D1756" d="M397.4,117.8c2.2,0,3.9-1,3.9-3.5v-1c0-0.4,0-0.8,0-0.8h0c-0.7,1.2-1.8,1.9-3.5,1.9c-3,0-4.9-2.4-4.9-5.7
		c0-3.3,1.8-5.6,4.8-5.6c2.9,0,3.7,1.8,3.7,1.8h0c0,0,0-0.1,0-0.4v-1.2h1.5v10.8c0,3.5-2.6,4.9-5.3,4.9c-1.3,0-2.6-0.3-3.6-0.9
		l0.6-1.2C394.4,117,395.7,117.8,397.4,117.8z M401.3,108.7c0-3.2-1.5-4.2-3.5-4.2c-2.2,0-3.4,1.6-3.4,4.2c0,2.6,1.4,4.4,3.6,4.4
		C399.7,113.1,401.3,112,401.3,108.7z"/>
	<path fill="#1D1756" d="M406.6,107.5h6.2v1.4h-6.2V107.5z"/>
	<path fill="#1D1756" d="M421.2,103.1c2.7,0,3.6,2.1,3.6,2.1h0c0,0,0-0.4,0-0.8V99h1.5v15.5h-1.5v-1.2c0-0.5,0-0.8,0-0.8h0
		c0,0-0.9,2.2-3.8,2.2c-3,0-4.8-2.4-4.8-5.8C416.2,105.4,418.3,103.1,421.2,103.1z M421.2,113.4c1.8,0,3.6-1.3,3.6-4.5
		c0-2.2-1.1-4.4-3.5-4.4c-2,0-3.6,1.6-3.6,4.4C417.7,111.7,419.2,113.4,421.2,113.4z"/>
	<path fill="#1D1756" d="M429.9,103.4h1.5v2c0,0.5,0,0.9,0,0.9h0c0.5-1.7,1.8-2.9,3.5-2.9c0.3,0,0.6,0.1,0.6,0.1v1.5
		c0,0-0.3,0-0.6,0c-1.6,0-2.7,1.2-3.2,2.9c-0.2,0.7-0.3,1.5-0.3,2.2v4.7h-1.5V103.4z"/>
	<path fill="#1D1756" d="M437.6,103.4h1.5v6.6c0,1.7,0.3,3.3,2.4,3.3c2.5,0,4.1-2.2,4.1-4.6v-5.3h1.5v11.1h-1.5v-1.7
		c0-0.5,0-0.9,0-0.9h0c-0.4,1.1-1.9,2.8-4.3,2.8c-2.6,0-3.7-1.4-3.7-4.3V103.4z"/>
	<path fill="#1D1756" d="M454.7,117.8c2.2,0,3.9-1,3.9-3.5v-1c0-0.4,0-0.8,0-0.8h0c-0.7,1.2-1.8,1.9-3.5,1.9c-3,0-4.9-2.4-4.9-5.7
		c0-3.3,1.8-5.6,4.8-5.6c2.9,0,3.7,1.8,3.7,1.8h0c0,0,0-0.1,0-0.4v-1.2h1.5v10.8c0,3.5-2.6,4.9-5.3,4.9c-1.3,0-2.6-0.3-3.6-0.9
		l0.6-1.2C451.7,117,453,117.8,454.7,117.8z M458.6,108.7c0-3.2-1.5-4.2-3.5-4.2c-2.2,0-3.4,1.6-3.4,4.2c0,2.6,1.4,4.4,3.6,4.4
		C457,113.1,458.6,112,458.6,108.7z"/>
	<path fill="#1D1756" d="M469.5,99h1.6v1.9h-1.6V99z M469.6,103.4h1.5v11.1h-1.5V103.4z"/>
	<path fill="#1D1756" d="M474.7,103.4h1.5v1.6c0,0.5,0,0.9,0,0.9h0c0.4-1,1.8-2.8,4.4-2.8c2.7,0,3.7,1.6,3.7,4.3v7h-1.5v-6.6
		c0-1.7-0.3-3.3-2.4-3.3c-1.9,0-3.5,1.3-4,3.1c-0.1,0.5-0.2,1-0.2,1.5v5.3h-1.5V103.4z"/>
	<path fill="#1D1756" d="M488,104.8h-1.5v-1.3h1.5v-3.2h1.5v3.2h2.8v1.3h-2.8v5.5c0,2.6,1.6,2.9,2.5,2.9c0.3,0,0.5,0,0.5,0v1.3
		c0,0-0.2,0-0.6,0c-1.3,0-3.9-0.4-3.9-4.1V104.8z"/>
	<path fill="#1D1756" d="M499.2,103.1c3.1,0,4.6,2.4,4.6,5.1c0,0.3,0,0.8,0,0.8h-8.5c0.1,2.8,2,4.4,4.3,4.4c2,0,3.4-1.3,3.4-1.3
		l0.7,1.1c0,0-1.6,1.5-4.1,1.5c-3.3,0-5.8-2.4-5.8-5.8C493.8,105.3,496.2,103.1,499.2,103.1z M502.3,107.8c-0.1-2.3-1.5-3.4-3.1-3.4
		c-1.8,0-3.5,1.2-3.8,3.4H502.3z"/>
	<path fill="#1D1756" d="M506.8,103.4h1.5v2c0,0.5,0,0.9,0,0.9h0c0.5-1.7,1.8-2.9,3.5-2.9c0.3,0,0.6,0.1,0.6,0.1v1.5
		c0,0-0.3,0-0.6,0c-1.6,0-2.7,1.2-3.2,2.9c-0.2,0.7-0.3,1.5-0.3,2.2v4.7h-1.5V103.4z"/>
	<path fill="#1D1756" d="M520.6,107.6h0.6v-0.3c0-2.1-1.2-2.9-2.8-2.9c-1.8,0-3.1,1.1-3.1,1.1l-0.7-1.1c0,0,1.5-1.3,3.9-1.3
		c2.7,0,4.1,1.5,4.1,4.2v7.1h-1.4v-1.2c0-0.6,0-0.9,0-0.9h0c0,0-0.9,2.4-3.7,2.4c-1.8,0-3.8-1.1-3.8-3.3
		C513.8,107.7,518.7,107.6,520.6,107.6z M517.8,113.5c2.1,0,3.4-2.2,3.4-4.1v-0.5h-0.6c-1.7,0-5.2,0.1-5.2,2.5
		C515.4,112.4,516.2,113.5,517.8,113.5z"/>
	<path fill="#1D1756" d="M531.3,103.1c2.7,0,4,1.6,4,1.6l-0.8,1.1c0,0-1.2-1.3-3.2-1.3c-2.4,0-4.3,1.8-4.3,4.4
		c0,2.6,1.9,4.4,4.4,4.4c2.2,0,3.5-1.6,3.5-1.6l0.7,1.2c0,0-1.5,1.7-4.3,1.7c-3.3,0-5.8-2.4-5.8-5.8
		C525.5,105.5,528,103.1,531.3,103.1z"/>
	<path fill="#1D1756" d="M538.9,104.8h-1.5v-1.3h1.5v-3.2h1.5v3.2h2.8v1.3h-2.8v5.5c0,2.6,1.6,2.9,2.5,2.9c0.3,0,0.5,0,0.5,0v1.3
		c0,0-0.2,0-0.6,0c-1.3,0-3.9-0.4-3.9-4.1V104.8z"/>
	<path fill="#1D1756" d="M545.8,99h1.6v1.9h-1.6V99z M545.8,103.4h1.5v11.1h-1.5V103.4z"/>
	<path fill="#1D1756" d="M556,103.1c3.2,0,5.9,2.5,5.9,5.7c0,3.3-2.6,5.9-5.9,5.9c-3.2,0-5.9-2.5-5.9-5.9
		C550.2,105.6,552.8,103.1,556,103.1z M556,113.4c2.4,0,4.3-1.9,4.3-4.5c0-2.5-1.9-4.4-4.3-4.4c-2.4,0-4.3,1.9-4.3,4.4
		C551.7,111.5,553.6,113.4,556,113.4z"/>
	<path fill="#1D1756" d="M564.8,103.4h1.5v1.6c0,0.5,0,0.9,0,0.9h0c0.4-1,1.8-2.8,4.4-2.8c2.7,0,3.7,1.6,3.7,4.3v7h-1.5v-6.6
		c0-1.7-0.3-3.3-2.4-3.3c-1.9,0-3.5,1.3-4,3.1c-0.1,0.5-0.2,1-0.2,1.5v5.3h-1.5V103.4z"/>
	<path fill="#1D1756" d="M577.8,112.1c0,0,1.2,1.3,3.3,1.3c1.2,0,2.2-0.6,2.2-1.8c0-2.4-6-1.8-6-5.4c0-2,1.8-3.1,3.8-3.1
		c2.3,0,3.4,1.2,3.4,1.2l-0.7,1.1c0,0-0.9-1-2.8-1c-1.1,0-2.2,0.5-2.2,1.7c0,2.4,6,1.8,6,5.4c0,1.8-1.6,3.1-3.8,3.1
		c-2.7,0-4.1-1.6-4.1-1.6L577.8,112.1z"/>
	<path fill="#1D1756" d="M592.1,103.4h1.6l2.7,8.3c0.2,0.5,0.3,1.2,0.3,1.2h0c0,0,0.2-0.7,0.3-1.2l2.7-8.2h1.5l2.7,8.2
		c0.2,0.5,0.3,1.2,0.3,1.2h0c0,0,0.2-0.6,0.3-1.2l2.7-8.3h1.6l-3.7,11.1h-1.6l-2.7-7.9c-0.2-0.6-0.4-1.2-0.4-1.2h0
		c0,0-0.2,0.6-0.3,1.2l-2.7,7.9h-1.6L592.1,103.4z"/>
	<path fill="#1D1756" d="M615.7,103.1c3.1,0,4.6,2.4,4.6,5.1c0,0.3,0,0.8,0,0.8h-8.5c0.1,2.8,2,4.4,4.3,4.4c2,0,3.4-1.3,3.4-1.3
		l0.7,1.1c0,0-1.6,1.5-4.1,1.5c-3.3,0-5.8-2.4-5.8-5.8C610.2,105.3,612.7,103.1,615.7,103.1z M618.8,107.8c-0.1-2.3-1.5-3.4-3.1-3.4
		c-1.8,0-3.5,1.2-3.8,3.4H618.8z"/>
	<path fill="#1D1756" d="M623.3,103.4h1.5v2c0,0.5,0,0.9,0,0.9h0c0.5-1.7,1.8-2.9,3.5-2.9c0.3,0,0.6,0.1,0.6,0.1v1.5
		c0,0-0.3,0-0.5,0c-1.6,0-2.7,1.2-3.2,2.9c-0.2,0.7-0.3,1.5-0.3,2.2v4.7h-1.5V103.4z"/>
	<path fill="#1D1756" d="M635.6,103.1c3.1,0,4.6,2.4,4.6,5.1c0,0.3,0,0.8,0,0.8h-8.5c0.1,2.8,2,4.4,4.3,4.4c2,0,3.4-1.3,3.4-1.3
		l0.7,1.1c0,0-1.6,1.5-4.1,1.5c-3.3,0-5.8-2.4-5.8-5.8C630.1,105.3,632.6,103.1,635.6,103.1z M638.7,107.8c-0.1-2.3-1.5-3.4-3.1-3.4
		c-1.8,0-3.5,1.2-3.8,3.4H638.7z"/>
	<path fill="#1D1756" d="M653.2,103.1c2.7,0,3.6,2.1,3.6,2.1h0c0,0,0-0.4,0-0.8V99h1.5v15.5h-1.5v-1.2c0-0.5,0-0.8,0-0.8h0
		c0,0-0.9,2.2-3.8,2.2c-3,0-4.8-2.4-4.8-5.8C648.3,105.4,650.3,103.1,653.2,103.1z M653.3,113.4c1.8,0,3.6-1.3,3.6-4.5
		c0-2.2-1.1-4.4-3.5-4.4c-2,0-3.6,1.6-3.6,4.4C649.8,111.7,651.2,113.4,653.3,113.4z"/>
	<path fill="#1D1756" d="M666.7,103.1c3.1,0,4.6,2.4,4.6,5.1c0,0.3,0,0.8,0,0.8h-8.5c0.1,2.8,2,4.4,4.3,4.4c2,0,3.4-1.3,3.4-1.3
		l0.7,1.1c0,0-1.6,1.5-4.1,1.5c-3.3,0-5.8-2.4-5.8-5.8C661.3,105.3,663.7,103.1,666.7,103.1z M669.8,107.8c-0.1-2.3-1.5-3.4-3.1-3.4
		c-1.8,0-3.5,1.2-3.8,3.4H669.8z"/>
	<path fill="#1D1756" d="M674.3,103.4h1.5v1.6c0,0.5,0,0.9,0,0.9h0c0.5-1.5,2.3-2.8,4-2.8c2,0,3.1,0.9,3.4,2.8h0
		c0.6-1.5,2.2-2.8,4.1-2.8c2.7,0,3.7,1.6,3.7,4.3v7h-1.5v-6.7c0-1.8-0.4-3.3-2.4-3.3c-1.7,0-3.1,1.5-3.5,3.1c-0.2,0.5-0.2,1-0.2,1.6
		v5.2h-1.5v-6.7c0-1.7-0.2-3.3-2.3-3.3c-1.8,0-3.2,1.6-3.6,3.3c-0.1,0.5-0.2,1-0.2,1.5v5.2h-1.5V103.4z"/>
	<path fill="#1D1756" d="M699.6,103.1c3.2,0,5.9,2.5,5.9,5.7c0,3.3-2.6,5.9-5.9,5.9s-5.9-2.5-5.9-5.9
		C693.8,105.6,696.4,103.1,699.6,103.1z M699.6,113.4c2.4,0,4.3-1.9,4.3-4.5c0-2.5-1.9-4.4-4.3-4.4c-2.4,0-4.3,1.9-4.3,4.4
		C695.3,111.5,697.3,113.4,699.6,113.4z"/>
	<path fill="#1D1756" d="M708.4,103.4h1.5v1.6c0,0.5,0,0.9,0,0.9h0c0.4-1,1.8-2.8,4.4-2.8c2.7,0,3.7,1.6,3.7,4.3v7h-1.5v-6.6
		c0-1.7-0.3-3.3-2.4-3.3c-1.9,0-3.5,1.3-4,3.1c-0.1,0.5-0.2,1-0.2,1.5v5.3h-1.5V103.4z"/>
	<path fill="#1D1756" d="M721.4,112.1c0,0,1.2,1.3,3.3,1.3c1.2,0,2.2-0.6,2.2-1.8c0-2.4-6-1.8-6-5.4c0-2,1.8-3.1,3.8-3.1
		c2.3,0,3.4,1.2,3.4,1.2l-0.7,1.1c0,0-0.9-1-2.8-1c-1.1,0-2.2,0.5-2.2,1.7c0,2.4,6,1.8,6,5.4c0,1.8-1.6,3.1-3.8,3.1
		c-2.7,0-4.1-1.6-4.1-1.6L721.4,112.1z"/>
	<path fill="#1D1756" d="M731.8,104.8h-1.5v-1.3h1.5v-3.2h1.5v3.2h2.8v1.3h-2.8v5.5c0,2.6,1.7,2.9,2.5,2.9c0.3,0,0.5,0,0.5,0v1.3
		c0,0-0.2,0-0.6,0c-1.3,0-3.9-0.4-3.9-4.1V104.8z"/>
	<path fill="#1D1756" d="M738.7,103.4h1.5v2c0,0.5,0,0.9,0,0.9h0c0.5-1.7,1.8-2.9,3.5-2.9c0.3,0,0.6,0.1,0.6,0.1v1.5
		c0,0-0.3,0-0.5,0c-1.6,0-2.7,1.2-3.2,2.9c-0.2,0.7-0.3,1.5-0.3,2.2v4.7h-1.5V103.4z"/>
	<path fill="#1D1756" d="M752.4,107.6h0.6v-0.3c0-2.1-1.2-2.9-2.8-2.9c-1.8,0-3.1,1.1-3.1,1.1l-0.7-1.1c0,0,1.5-1.3,3.9-1.3
		c2.7,0,4.1,1.5,4.1,4.2v7.1h-1.4v-1.2c0-0.6,0-0.9,0-0.9h0c0,0-0.9,2.4-3.7,2.4c-1.8,0-3.8-1.1-3.8-3.3
		C745.7,107.7,750.5,107.6,752.4,107.6z M749.7,113.5c2.1,0,3.4-2.2,3.4-4.1v-0.5h-0.6c-1.7,0-5.2,0.1-5.2,2.5
		C747.2,112.4,748,113.5,749.7,113.5z"/>
	<path fill="#1D1756" d="M758.2,104.8h-1.5v-1.3h1.5v-3.2h1.5v3.2h2.8v1.3h-2.8v5.5c0,2.6,1.7,2.9,2.5,2.9c0.3,0,0.5,0,0.5,0v1.3
		c0,0-0.2,0-0.6,0c-1.3,0-3.9-0.4-3.9-4.1V104.8z"/>
	<path fill="#1D1756" d="M769.5,103.1c3.1,0,4.6,2.4,4.6,5.1c0,0.3,0,0.8,0,0.8h-8.5c0.1,2.8,2,4.4,4.3,4.4c2,0,3.4-1.3,3.4-1.3
		l0.7,1.1c0,0-1.6,1.5-4.1,1.5c-3.3,0-5.8-2.4-5.8-5.8C764,105.3,766.5,103.1,769.5,103.1z M772.6,107.8c-0.1-2.3-1.5-3.4-3.1-3.4
		c-1.8,0-3.5,1.2-3.8,3.4H772.6z"/>
	<path fill="#1D1756" d="M781.4,103.1c2.7,0,3.6,2.1,3.6,2.1h0c0,0,0-0.4,0-0.8V99h1.5v15.5h-1.5v-1.2c0-0.5,0-0.8,0-0.8h0
		c0,0-0.9,2.2-3.8,2.2c-3,0-4.8-2.4-4.8-5.8C776.4,105.4,778.5,103.1,781.4,103.1z M781.5,113.4c1.8,0,3.6-1.3,3.6-4.5
		c0-2.2-1.1-4.4-3.5-4.4c-2,0-3.6,1.6-3.6,4.4C778,111.7,779.4,113.4,781.5,113.4z"/>
	<path fill="#1D1756" d="M794.6,103.4h1.6l2.7,8.3c0.2,0.5,0.3,1.2,0.3,1.2h0c0,0,0.2-0.7,0.3-1.2l2.7-8.2h1.5l2.7,8.2
		c0.2,0.5,0.3,1.2,0.3,1.2h0c0,0,0.2-0.6,0.3-1.2l2.7-8.3h1.6l-3.7,11.1h-1.6l-2.7-7.9c-0.2-0.6-0.4-1.2-0.4-1.2h0
		c0,0-0.2,0.6-0.3,1.2l-2.7,7.9h-1.6L794.6,103.4z"/>
	<path fill="#1D1756" d="M813.7,99h1.5v6c0,0.5,0,0.9,0,0.9h0c0.4-1.1,1.9-2.8,4.4-2.8c2.7,0,3.7,1.6,3.7,4.3v7h-1.5v-6.6
		c0-1.7-0.3-3.3-2.4-3.3c-1.9,0-3.5,1.3-4,3.1c-0.1,0.4-0.2,0.9-0.2,1.5v5.3h-1.5V99z"/>
	<path fill="#1D1756" d="M831.6,103.1c3.1,0,4.6,2.4,4.6,5.1c0,0.3,0,0.8,0,0.8h-8.5c0.1,2.8,2,4.4,4.3,4.4c2,0,3.4-1.3,3.4-1.3
		l0.7,1.1c0,0-1.6,1.5-4.1,1.5c-3.3,0-5.8-2.4-5.8-5.8C826.2,105.3,828.6,103.1,831.6,103.1z M834.7,107.8c-0.1-2.3-1.5-3.4-3.1-3.4
		c-1.8,0-3.5,1.2-3.8,3.4H834.7z"/>
	<path fill="#1D1756" d="M839.2,103.4h1.5v1.6c0,0.5,0,0.9,0,0.9h0c0.4-1,1.8-2.8,4.4-2.8c2.7,0,3.7,1.6,3.7,4.3v7h-1.5v-6.6
		c0-1.7-0.3-3.3-2.4-3.3c-1.9,0-3.5,1.3-4,3.1c-0.1,0.5-0.2,1-0.2,1.5v5.3h-1.5V103.4z"/>
	<path fill="#1D1756" d="M866.2,109.5H860l-1.8,4.9h-1.6l5.7-15.5h1.6l5.7,15.5H868L866.2,109.5z M863.1,100.6c0,0-0.3,1.3-0.6,2
		l-2.1,5.6h5.3l-2-5.6C863.5,101.9,863.2,100.6,863.1,100.6L863.1,100.6z"/>
	<path fill="#1D1756" d="M872.3,99h5.3c2.8,0,4.8,1.8,4.8,4.7c0,2.9-2,4.7-4.8,4.7h-3.8v6.1h-1.5V99z M877.4,107
		c2.1,0,3.4-1.3,3.4-3.4c0-2.1-1.3-3.3-3.4-3.3h-3.7v6.7H877.4z"/>
	<path fill="#1D1756" d="M889.3,100.4h-5.6V99h12.6v1.4h-5.5v14.1h-1.5V100.4z"/>
	<path fill="#1D1756" d="M898.9,99h1.5v15.5h-1.5V99z"/>
	<path fill="#1D1756" d="M911.8,98.7c4.4,0,7.9,3.5,7.9,7.9c0,4.5-3.5,8.1-7.9,8.1s-7.9-3.6-7.9-8.1
		C904,102.2,907.5,98.7,911.8,98.7z M911.8,113.3c3.5,0,6.3-2.9,6.3-6.7c0-3.7-2.8-6.5-6.3-6.5c-3.5,0-6.3,2.8-6.3,6.5
		C905.6,110.4,908.3,113.3,911.8,113.3z"/>
	<path fill="#1D1756" d="M923.9,99h1.6l4,9.1c0.4,0.8,0.7,1.9,0.7,1.9h0c0,0,0.4-1.1,0.8-1.9l4-9.1h1.6l1.2,15.5h-1.5l-0.9-10.8
		c-0.1-0.8,0-2.2,0-2.2h0c0,0-0.5,1.4-0.8,2.2l-3.6,7.9h-1.4l-3.6-7.9c-0.4-0.8-0.8-2.2-0.8-2.2h0c0,0,0,1.4,0,2.2l-0.9,10.8h-1.5
		L923.9,99z"/>
	<path fill="#1D1756" d="M946,103.4h1.6l2.7,8.3c0.2,0.5,0.3,1.2,0.3,1.2h0c0,0,0.2-0.7,0.3-1.2l2.7-8.2h1.5l2.7,8.2
		c0.2,0.5,0.3,1.2,0.3,1.2h0c0,0,0.2-0.6,0.3-1.2l2.7-8.3h1.6l-3.7,11.1h-1.6l-2.7-7.9c-0.2-0.6-0.4-1.2-0.4-1.2h0
		c0,0-0.2,0.6-0.3,1.2l-2.7,7.9h-1.6L946,103.4z"/>
	<path fill="#1D1756" d="M971,107.6h0.6v-0.3c0-2.1-1.2-2.9-2.8-2.9c-1.8,0-3.1,1.1-3.1,1.1l-0.7-1.1c0,0,1.5-1.3,3.9-1.3
		c2.7,0,4.1,1.5,4.1,4.2v7.1h-1.4v-1.2c0-0.6,0-0.9,0-0.9h0c0,0-0.9,2.4-3.7,2.4c-1.8,0-3.8-1.1-3.8-3.3
		C964.2,107.7,969,107.6,971,107.6z M968.2,113.5c2.1,0,3.4-2.2,3.4-4.1v-0.5h-0.6c-1.7,0-5.2,0.1-5.2,2.5
		C965.7,112.4,966.5,113.5,968.2,113.5z"/>
	<path fill="#1D1756" d="M976.5,112.1c0,0,1.2,1.3,3.3,1.3c1.2,0,2.2-0.6,2.2-1.8c0-2.4-6-1.8-6-5.4c0-2,1.8-3.1,3.8-3.1
		c2.3,0,3.4,1.2,3.4,1.2l-0.7,1.1c0,0-0.9-1-2.8-1c-1.1,0-2.2,0.5-2.2,1.7c0,2.4,6,1.8,6,5.4c0,1.8-1.6,3.1-3.8,3.1
		c-2.7,0-4.1-1.6-4.1-1.6L976.5,112.1z"/>
	<path fill="#1D1756" d="M998.1,107.6h0.6v-0.3c0-2.1-1.2-2.9-2.8-2.9c-1.8,0-3.1,1.1-3.1,1.1l-0.7-1.1c0,0,1.5-1.3,3.9-1.3
		c2.7,0,4.1,1.5,4.1,4.2v7.1h-1.4v-1.2c0-0.6,0-0.9,0-0.9h0c0,0-0.9,2.4-3.7,2.4c-1.8,0-3.8-1.1-3.8-3.3
		C991.3,107.7,996.2,107.6,998.1,107.6z M995.3,113.5c2.1,0,3.4-2.2,3.4-4.1v-0.5h-0.6c-1.7,0-5.2,0.1-5.2,2.5
		C992.9,112.4,993.7,113.5,995.3,113.5z"/>
	<path fill="#1D1756" d="M1008.1,103.1c2.7,0,3.6,2.1,3.6,2.1h0c0,0,0-0.4,0-0.8V99h1.5v15.5h-1.5v-1.2c0-0.5,0-0.8,0-0.8h0
		c0,0-0.9,2.2-3.8,2.2c-3,0-4.8-2.4-4.8-5.8C1003.1,105.4,1005.2,103.1,1008.1,103.1z M1008.1,113.4c1.8,0,3.6-1.3,3.6-4.5
		c0-2.2-1.1-4.4-3.5-4.4c-2,0-3.6,1.6-3.6,4.4C1004.6,111.7,1006.1,113.4,1008.1,113.4z"/>
	<path fill="#1D1756" d="M1016.8,103.4h1.5v1.6c0,0.5,0,0.9,0,0.9h0c0.5-1.5,2.3-2.8,4-2.8c2,0,3.1,0.9,3.4,2.8h0
		c0.6-1.5,2.2-2.8,4.1-2.8c2.7,0,3.7,1.6,3.7,4.3v7h-1.5v-6.7c0-1.8-0.4-3.3-2.4-3.3c-1.7,0-3.1,1.5-3.5,3.1c-0.2,0.5-0.2,1-0.2,1.6
		v5.2h-1.5v-6.7c0-1.7-0.2-3.3-2.3-3.3c-1.8,0-3.2,1.6-3.6,3.3c-0.1,0.5-0.2,1-0.2,1.5v5.2h-1.5V103.4z"/>
	<path fill="#1D1756" d="M1037,99h1.6v1.9h-1.6V99z M1037,103.4h1.5v11.1h-1.5V103.4z"/>
	<path fill="#1D1756" d="M1042.1,103.4h1.5v1.6c0,0.5,0,0.9,0,0.9h0c0.4-1,1.8-2.8,4.4-2.8c2.7,0,3.7,1.6,3.7,4.3v7h-1.5v-6.6
		c0-1.7-0.3-3.3-2.4-3.3c-1.9,0-3.5,1.3-4,3.1c-0.1,0.5-0.2,1-0.2,1.5v5.3h-1.5V103.4z"/>
	<path fill="#1D1756" d="M1055.1,99h1.6v1.9h-1.6V99z M1055.2,103.4h1.5v11.1h-1.5V103.4z"/>
	<path fill="#1D1756" d="M1060.2,112.1c0,0,1.2,1.3,3.3,1.3c1.2,0,2.2-0.6,2.2-1.8c0-2.4-6-1.8-6-5.4c0-2,1.8-3.1,3.8-3.1
		c2.3,0,3.4,1.2,3.4,1.2l-0.7,1.1c0,0-0.9-1-2.8-1c-1.1,0-2.2,0.5-2.2,1.7c0,2.4,6,1.8,6,5.4c0,1.8-1.6,3.1-3.8,3.1
		c-2.7,0-4.1-1.6-4.1-1.6L1060.2,112.1z"/>
	<path fill="#1D1756" d="M1070.6,104.8h-1.5v-1.3h1.5v-3.2h1.5v3.2h2.8v1.3h-2.8v5.5c0,2.6,1.7,2.9,2.5,2.9c0.3,0,0.5,0,0.5,0v1.3
		c0,0-0.2,0-0.6,0c-1.3,0-3.9-0.4-3.9-4.1V104.8z"/>
	<path fill="#1D1756" d="M1081.8,103.1c3.1,0,4.6,2.4,4.6,5.1c0,0.3,0,0.8,0,0.8h-8.5c0.1,2.8,2,4.4,4.3,4.4c2,0,3.4-1.3,3.4-1.3
		l0.7,1.1c0,0-1.6,1.5-4.1,1.5c-3.3,0-5.8-2.4-5.8-5.8C1076.4,105.3,1078.8,103.1,1081.8,103.1z M1084.9,107.8
		c-0.1-2.3-1.5-3.4-3.1-3.4c-1.8,0-3.5,1.2-3.8,3.4H1084.9z"/>
	<path fill="#1D1756" d="M1089.4,103.4h1.5v2c0,0.5,0,0.9,0,0.9h0c0.5-1.7,1.8-2.9,3.5-2.9c0.3,0,0.6,0.1,0.6,0.1v1.5
		c0,0-0.3,0-0.5,0c-1.6,0-2.7,1.2-3.2,2.9c-0.2,0.7-0.3,1.5-0.3,2.2v4.7h-1.5V103.4z"/>
	<path fill="#1D1756" d="M1101.7,103.1c3.1,0,4.6,2.4,4.6,5.1c0,0.3,0,0.8,0,0.8h-8.5c0.1,2.8,2,4.4,4.3,4.4c2,0,3.4-1.3,3.4-1.3
		l0.7,1.1c0,0-1.6,1.5-4.1,1.5c-3.3,0-5.8-2.4-5.8-5.8C1096.3,105.3,1098.8,103.1,1101.7,103.1z M1104.8,107.8
		c-0.1-2.3-1.5-3.4-3.1-3.4c-1.8,0-3.5,1.2-3.8,3.4H1104.8z"/>
	<path fill="#1D1756" d="M1113.7,103.1c2.7,0,3.6,2.1,3.6,2.1h0c0,0,0-0.4,0-0.8V99h1.5v15.5h-1.5v-1.2c0-0.5,0-0.8,0-0.8h0
		c0,0-0.9,2.2-3.8,2.2c-3,0-4.8-2.4-4.8-5.8C1108.7,105.4,1110.8,103.1,1113.7,103.1z M1113.7,113.4c1.8,0,3.6-1.3,3.6-4.5
		c0-2.2-1.1-4.4-3.5-4.4c-2,0-3.6,1.6-3.6,4.4C1110.2,111.7,1111.7,113.4,1113.7,113.4z"/>
	<path fill="#1D1756" d="M121.9,128.4h1.6l2.7,8.3c0.2,0.5,0.3,1.2,0.3,1.2h0c0,0,0.2-0.7,0.3-1.2l2.7-8.2h1.5l2.7,8.2
		c0.2,0.5,0.3,1.2,0.3,1.2h0c0,0,0.2-0.6,0.3-1.2l2.7-8.3h1.6l-3.7,11.1h-1.6l-2.7-7.9c-0.2-0.6-0.4-1.2-0.4-1.2h0
		c0,0-0.2,0.6-0.3,1.2l-2.7,7.9h-1.6L121.9,128.4z"/>
	<path fill="#1D1756" d="M141,124h1.6v1.9H141V124z M141,128.4h1.5v11.1H141V128.4z"/>
	<path fill="#1D1756" d="M146.5,129.8H145v-1.3h1.5v-3.2h1.5v3.2h2.8v1.3H148v5.5c0,2.6,1.6,2.9,2.5,2.9c0.3,0,0.5,0,0.5,0v1.3
		c0,0-0.2,0-0.6,0c-1.3,0-3.9-0.4-3.9-4.1V129.8z"/>
	<path fill="#1D1756" d="M153.4,124h1.5v6c0,0.5,0,0.9,0,0.9h0c0.4-1.1,1.9-2.8,4.4-2.8c2.7,0,3.7,1.6,3.7,4.3v7h-1.5v-6.6
		c0-1.7-0.3-3.3-2.4-3.3c-1.9,0-3.5,1.3-4,3.1c-0.1,0.4-0.2,0.9-0.2,1.5v5.3h-1.5V124z"/>
	<path fill="#1D1756" d="M170.8,128.4h1.6l3.1,8.1c0.2,0.5,0.4,1.3,0.4,1.3h0c0,0,0.2-0.7,0.4-1.3l3.1-8.1h1.6l-4.2,11.1h-1.6
		L170.8,128.4z"/>
	<path fill="#1D1756" d="M188.9,132.6h0.6v-0.3c0-2.1-1.2-2.9-2.8-2.9c-1.8,0-3.1,1.1-3.1,1.1l-0.7-1.1c0,0,1.5-1.3,3.9-1.3
		c2.7,0,4.1,1.5,4.1,4.2v7.1h-1.4v-1.2c0-0.6,0-0.9,0-0.9h0c0,0-0.9,2.4-3.7,2.4c-1.8,0-3.8-1.1-3.8-3.3
		C182.2,132.7,187,132.6,188.9,132.6z M186.2,138.5c2.1,0,3.4-2.2,3.4-4.1v-0.5h-0.6c-1.7,0-5.2,0.1-5.2,2.5
		C183.7,137.4,184.5,138.5,186.2,138.5z"/>
	<path fill="#1D1756" d="M194.5,124h1.5v12.5c0,1.5,0.7,1.7,1.2,1.7c0.2,0,0.4,0,0.4,0v1.3c0,0-0.3,0-0.6,0c-0.9,0-2.6-0.3-2.6-2.7
		V124z"/>
	<path fill="#1D1756" d="M200,128.4h1.4v1.1c0,0.5,0,0.9,0,0.9h0c0,0,0.9-2.2,3.8-2.2c3,0,4.8,2.4,4.8,5.8c0,3.5-2.1,5.8-5,5.8
		c-2.7,0-3.6-2.1-3.6-2.1h0c0,0,0,0.4,0,1v5.3H200V128.4z M205,138.4c2,0,3.6-1.7,3.6-4.5c0-2.7-1.4-4.4-3.5-4.4
		c-1.8,0-3.6,1.3-3.6,4.5C201.5,136.2,202.7,138.4,205,138.4z"/>
	<path fill="#1D1756" d="M213.1,128.4h1.5v2c0,0.5,0,0.9,0,0.9h0c0.5-1.7,1.8-2.9,3.5-2.9c0.3,0,0.6,0.1,0.6,0.1v1.5
		c0,0-0.3,0-0.6,0c-1.6,0-2.7,1.2-3.2,2.9c-0.2,0.7-0.3,1.5-0.3,2.2v4.7h-1.5V128.4z"/>
	<path fill="#1D1756" d="M225.7,128.1c3.2,0,5.9,2.5,5.9,5.7c0,3.3-2.6,5.9-5.9,5.9c-3.2,0-5.9-2.5-5.9-5.9
		C219.9,130.6,222.5,128.1,225.7,128.1z M225.7,138.4c2.4,0,4.3-1.9,4.3-4.5c0-2.5-1.9-4.4-4.3-4.4c-2.4,0-4.3,1.9-4.3,4.4
		C221.4,136.5,223.3,138.4,225.7,138.4z"/>
	<path fill="#1D1756" d="M240.4,132.6h0.6v-0.3c0-2.1-1.2-2.9-2.8-2.9c-1.8,0-3.1,1.1-3.1,1.1l-0.7-1.1c0,0,1.5-1.3,3.9-1.3
		c2.7,0,4.1,1.5,4.1,4.2v7.1H241v-1.2c0-0.6,0-0.9,0-0.9h0c0,0-0.9,2.4-3.7,2.4c-1.8,0-3.8-1.1-3.8-3.3
		C233.6,132.7,238.4,132.6,240.4,132.6z M237.6,138.5c2.1,0,3.4-2.2,3.4-4.1v-0.5h-0.6c-1.7,0-5.2,0.1-5.2,2.5
		C235.1,137.4,235.9,138.5,237.6,138.5z"/>
	<path fill="#1D1756" d="M246.2,129.8h-1.5v-1.3h1.5v-3.2h1.5v3.2h2.8v1.3h-2.8v5.5c0,2.6,1.6,2.9,2.5,2.9c0.3,0,0.5,0,0.5,0v1.3
		c0,0-0.2,0-0.6,0c-1.3,0-3.9-0.4-3.9-4.1V129.8z"/>
	<path fill="#1D1756" d="M257.4,128.1c3.1,0,4.6,2.4,4.6,5.1c0,0.3,0,0.8,0,0.8h-8.5c0.1,2.8,2,4.4,4.3,4.4c2,0,3.4-1.3,3.4-1.3
		l0.7,1.1c0,0-1.6,1.5-4.1,1.5c-3.3,0-5.8-2.4-5.8-5.8C251.9,130.3,254.4,128.1,257.4,128.1z M260.5,132.8c-0.1-2.3-1.5-3.4-3.1-3.4
		c-1.8,0-3.5,1.2-3.8,3.4H260.5z"/>
	<path fill="#1D1756" d="M265.2,137.7h1.7l-1.6,3.9h-1.3L265.2,137.7z"/>
	<path fill="#1D1756" d="M276.1,124h1.5v12.5c0,1.5,0.7,1.7,1.2,1.7c0.2,0,0.4,0,0.4,0v1.3c0,0-0.3,0-0.6,0c-0.9,0-2.6-0.3-2.6-2.7
		V124z"/>
	<path fill="#1D1756" d="M287.7,132.6h0.6v-0.3c0-2.1-1.2-2.9-2.8-2.9c-1.8,0-3.1,1.1-3.1,1.1l-0.7-1.1c0,0,1.5-1.3,3.9-1.3
		c2.7,0,4.1,1.5,4.1,4.2v7.1h-1.4v-1.2c0-0.6,0-0.9,0-0.9h0c0,0-0.9,2.4-3.7,2.4c-1.8,0-3.8-1.1-3.8-3.3
		C280.9,132.7,285.8,132.6,287.7,132.6z M284.9,138.5c2.1,0,3.4-2.2,3.4-4.1v-0.5h-0.6c-1.7,0-5.2,0.1-5.2,2.5
		C282.5,137.4,283.3,138.5,284.9,138.5z"/>
	<path fill="#1D1756" d="M293.3,128.4h1.5v1.6c0,0.5,0,0.9,0,0.9h0c0.5-1.5,2.3-2.8,4-2.8c2,0,3.1,0.9,3.4,2.8h0
		c0.6-1.5,2.2-2.8,4.1-2.8c2.7,0,3.7,1.6,3.7,4.3v7h-1.5v-6.7c0-1.8-0.4-3.3-2.4-3.3c-1.7,0-3.1,1.5-3.5,3.1c-0.2,0.5-0.2,1-0.2,1.6
		v5.2H301v-6.7c0-1.7-0.2-3.3-2.3-3.3c-1.8,0-3.2,1.6-3.6,3.3c-0.1,0.5-0.2,1-0.2,1.5v5.2h-1.5V128.4z"/>
	<path fill="#1D1756" d="M318.7,128.1c3.2,0,5.9,2.5,5.9,5.7c0,3.3-2.6,5.9-5.9,5.9c-3.2,0-5.9-2.5-5.9-5.9
		C312.8,130.6,315.4,128.1,318.7,128.1z M318.7,138.4c2.4,0,4.3-1.9,4.3-4.5c0-2.5-1.9-4.4-4.3-4.4c-2.4,0-4.3,1.9-4.3,4.4
		C314.4,136.5,316.3,138.4,318.7,138.4z"/>
	<path fill="#1D1756" d="M327.6,129.8h-1.5v-1.3h1.5v-3.2h1.5v3.2h2.8v1.3h-2.8v5.5c0,2.6,1.6,2.9,2.5,2.9c0.3,0,0.5,0,0.5,0v1.3
		c0,0-0.2,0-0.6,0c-1.3,0-3.9-0.4-3.9-4.1V129.8z"/>
	<path fill="#1D1756" d="M334.5,128.4h1.5v2c0,0.5,0,0.9,0,0.9h0c0.5-1.7,1.8-2.9,3.5-2.9c0.3,0,0.6,0.1,0.6,0.1v1.5
		c0,0-0.3,0-0.6,0c-1.6,0-2.7,1.2-3.2,2.9c-0.2,0.7-0.3,1.5-0.3,2.2v4.7h-1.5V128.4z"/>
	<path fill="#1D1756" d="M342.3,124h1.6v1.9h-1.6V124z M342.3,128.4h1.5v11.1h-1.5V128.4z"/>
	<path fill="#1D1756" d="M351.3,142.8c2.2,0,3.9-1,3.9-3.5v-1c0-0.4,0-0.8,0-0.8h0c-0.7,1.2-1.8,1.9-3.5,1.9c-3,0-4.9-2.4-4.9-5.7
		c0-3.3,1.8-5.6,4.8-5.6c2.9,0,3.7,1.8,3.7,1.8h0c0,0,0-0.1,0-0.4v-1.2h1.5v10.8c0,3.5-2.6,4.9-5.3,4.9c-1.3,0-2.6-0.3-3.6-0.9
		l0.6-1.2C348.3,142,349.7,142.8,351.3,142.8z M355.2,133.7c0-3.2-1.5-4.2-3.5-4.2c-2.2,0-3.4,1.6-3.4,4.2c0,2.6,1.4,4.4,3.6,4.4
		C353.6,138.1,355.2,137,355.2,133.7z"/>
	<path fill="#1D1756" d="M360.2,124h1.6v1.9h-1.6V124z M360.3,128.4h1.5v11.1h-1.5V128.4z"/>
	<path fill="#1D1756" d="M365.4,128.4h1.5v1.6c0,0.5,0,0.9,0,0.9h0c0.4-1,1.8-2.8,4.4-2.8c2.7,0,3.7,1.6,3.7,4.3v7h-1.5v-6.6
		c0-1.7-0.3-3.3-2.4-3.3c-1.9,0-3.5,1.3-4,3.1c-0.1,0.5-0.2,1-0.2,1.5v5.3h-1.5V128.4z"/>
	<path fill="#1D1756" d="M383.2,128.1c3.1,0,4.6,2.4,4.6,5.1c0,0.3,0,0.8,0,0.8h-8.5c0.1,2.8,2,4.4,4.3,4.4c2,0,3.4-1.3,3.4-1.3
		l0.7,1.1c0,0-1.6,1.5-4.1,1.5c-3.3,0-5.8-2.4-5.8-5.8C377.8,130.3,380.2,128.1,383.2,128.1z M386.3,132.8c-0.1-2.3-1.5-3.4-3.1-3.4
		c-1.8,0-3.5,1.2-3.8,3.4H386.3z"/>
	<path fill="#1D1756" d="M391,137.7h1.6l-1.6,3.9h-1.3L391,137.7z"/>
	<path fill="#1D1756" d="M402.5,129.8H401v-1.3h1.5v-3.2h1.5v3.2h2.8v1.3H404v5.5c0,2.6,1.6,2.9,2.5,2.9c0.3,0,0.5,0,0.5,0v1.3
		c0,0-0.2,0-0.6,0c-1.3,0-3.9-0.4-3.9-4.1V129.8z"/>
	<path fill="#1D1756" d="M414,128.1c3.2,0,5.9,2.5,5.9,5.7c0,3.3-2.6,5.9-5.9,5.9c-3.2,0-5.9-2.5-5.9-5.9
		C408.2,130.6,410.8,128.1,414,128.1z M414,138.4c2.4,0,4.3-1.9,4.3-4.5c0-2.5-1.9-4.4-4.3-4.4c-2.4,0-4.3,1.9-4.3,4.4
		C409.7,136.5,411.6,138.4,414,138.4z"/>
	<path fill="#1D1756" d="M422.7,128.4h1.4v1.1c0,0.5,0,0.9,0,0.9h0c0,0,0.9-2.2,3.8-2.2c3,0,4.8,2.4,4.8,5.8c0,3.5-2.1,5.8-5,5.8
		c-2.7,0-3.6-2.1-3.6-2.1h0c0,0,0,0.4,0,1v5.3h-1.5V128.4z M427.7,138.4c2,0,3.6-1.7,3.6-4.5c0-2.7-1.4-4.4-3.5-4.4
		c-1.8,0-3.6,1.3-3.6,4.5C424.2,136.2,425.4,138.4,427.7,138.4z"/>
	<path fill="#1D1756" d="M435.7,124h1.6v1.9h-1.6V124z M435.8,128.4h1.5v11.1h-1.5V128.4z"/>
	<path fill="#1D1756" d="M440.9,128.4h1.5v2c0,0.5,0,0.9,0,0.9h0c0.5-1.7,1.8-2.9,3.5-2.9c0.3,0,0.6,0.1,0.6,0.1v1.5
		c0,0-0.3,0-0.6,0c-1.6,0-2.7,1.2-3.2,2.9c-0.2,0.7-0.3,1.5-0.3,2.2v4.7h-1.5V128.4z"/>
	<path fill="#1D1756" d="M454.7,132.6h0.6v-0.3c0-2.1-1.2-2.9-2.8-2.9c-1.8,0-3.1,1.1-3.1,1.1l-0.7-1.1c0,0,1.5-1.3,3.9-1.3
		c2.7,0,4.1,1.5,4.1,4.2v7.1h-1.4v-1.2c0-0.6,0-0.9,0-0.9h0c0,0-0.9,2.4-3.7,2.4c-1.8,0-3.8-1.1-3.8-3.3
		C447.9,132.7,452.8,132.6,454.7,132.6z M451.9,138.5c2.1,0,3.4-2.2,3.4-4.1v-0.5h-0.6c-1.7,0-5.2,0.1-5.2,2.5
		C449.4,137.4,450.2,138.5,451.9,138.5z"/>
	<path fill="#1D1756" d="M460.3,128.4h1.5v1.6c0,0.5,0,0.9,0,0.9h0c0.5-1.5,2.3-2.8,4-2.8c2,0,3.1,0.9,3.4,2.8h0
		c0.6-1.5,2.2-2.8,4.1-2.8c2.7,0,3.7,1.6,3.7,4.3v7h-1.5v-6.7c0-1.8-0.4-3.3-2.4-3.3c-1.7,0-3.1,1.5-3.5,3.1c-0.2,0.5-0.2,1-0.2,1.6
		v5.2h-1.5v-6.7c0-1.7-0.2-3.3-2.3-3.3c-1.8,0-3.2,1.6-3.6,3.3c-0.1,0.5-0.2,1-0.2,1.5v5.2h-1.5V128.4z"/>
	<path fill="#1D1756" d="M486.4,132.6h0.6v-0.3c0-2.1-1.2-2.9-2.8-2.9c-1.8,0-3.1,1.1-3.1,1.1l-0.7-1.1c0,0,1.5-1.3,3.9-1.3
		c2.7,0,4.1,1.5,4.1,4.2v7.1h-1.4v-1.2c0-0.6,0-0.9,0-0.9h0c0,0-0.9,2.4-3.7,2.4c-1.8,0-3.8-1.1-3.8-3.3
		C479.7,132.7,484.5,132.6,486.4,132.6z M483.7,138.5c2.1,0,3.4-2.2,3.4-4.1v-0.5h-0.6c-1.7,0-5.2,0.1-5.2,2.5
		C481.2,137.4,482,138.5,483.7,138.5z"/>
	<path fill="#1D1756" d="M492.2,129.8h-1.5v-1.3h1.5v-3.2h1.5v3.2h2.8v1.3h-2.8v5.5c0,2.6,1.6,2.9,2.5,2.9c0.3,0,0.5,0,0.5,0v1.3
		c0,0-0.2,0-0.6,0c-1.3,0-3.9-0.4-3.9-4.1V129.8z"/>
	<path fill="#1D1756" d="M503.5,128.1c3.1,0,4.6,2.4,4.6,5.1c0,0.3,0,0.8,0,0.8h-8.5c0.1,2.8,2,4.4,4.3,4.4c2,0,3.4-1.3,3.4-1.3
		l0.7,1.1c0,0-1.6,1.5-4.1,1.5c-3.3,0-5.8-2.4-5.8-5.8C498,130.3,500.5,128.1,503.5,128.1z M506.6,132.8c-0.1-2.3-1.5-3.4-3.1-3.4
		c-1.8,0-3.5,1.2-3.8,3.4H506.6z"/>
	<path fill="#1D1756" d="M511.2,137.7h1.6l-1.6,3.9H510L511.2,137.7z"/>
	<path fill="#1D1756" d="M522.2,124h1.5v12.5c0,1.5,0.7,1.7,1.2,1.7c0.2,0,0.4,0,0.4,0v1.3c0,0-0.3,0-0.6,0c-0.9,0-2.6-0.3-2.6-2.7
		V124z"/>
	<path fill="#1D1756" d="M532.3,128.1c3.1,0,4.6,2.4,4.6,5.1c0,0.3,0,0.8,0,0.8h-8.5c0.1,2.8,2,4.4,4.3,4.4c2,0,3.4-1.3,3.4-1.3
		l0.7,1.1c0,0-1.6,1.5-4.1,1.5c-3.3,0-5.8-2.4-5.8-5.8C526.9,130.3,529.3,128.1,532.3,128.1z M535.4,132.8c-0.1-2.3-1.5-3.4-3.1-3.4
		c-1.8,0-3.5,1.2-3.8,3.4H535.4z"/>
	<path fill="#1D1756" d="M538.2,128.4h1.6l3.1,8.1c0.2,0.5,0.4,1.3,0.4,1.3h0c0,0,0.2-0.7,0.4-1.3l3.1-8.1h1.6l-4.2,11.1h-1.6
		L538.2,128.4z"/>
	<path fill="#1D1756" d="M554.9,128.1c3.1,0,4.6,2.4,4.6,5.1c0,0.3,0,0.8,0,0.8H551c0.1,2.8,2,4.4,4.3,4.4c2,0,3.4-1.3,3.4-1.3
		l0.7,1.1c0,0-1.6,1.5-4.1,1.5c-3.3,0-5.8-2.4-5.8-5.8C549.4,130.3,551.9,128.1,554.9,128.1z M558,132.8c-0.1-2.3-1.5-3.4-3.1-3.4
		c-1.8,0-3.5,1.2-3.8,3.4H558z"/>
	<path fill="#1D1756" d="M562.6,129.8h-1.5v-1.3h1.5v-3.2h1.5v3.2h2.8v1.3h-2.8v5.5c0,2.6,1.6,2.9,2.5,2.9c0.3,0,0.5,0,0.5,0v1.3
		c0,0-0.2,0-0.6,0c-1.3,0-3.9-0.4-3.9-4.1V129.8z"/>
	<path fill="#1D1756" d="M569.5,124h1.6v1.9h-1.6V124z M569.5,128.4h1.5v11.1h-1.5V128.4z"/>
	<path fill="#1D1756" d="M574.7,128.4h1.5v2c0,0.5,0,0.9,0,0.9h0c0.5-1.7,1.8-2.9,3.5-2.9c0.3,0,0.6,0.1,0.6,0.1v1.5
		c0,0-0.3,0-0.6,0c-1.6,0-2.7,1.2-3.2,2.9c-0.2,0.7-0.3,1.5-0.3,2.2v4.7h-1.5V128.4z"/>
	<path fill="#1D1756" d="M588.4,132.6h0.6v-0.3c0-2.1-1.2-2.9-2.8-2.9c-1.8,0-3.1,1.1-3.1,1.1l-0.7-1.1c0,0,1.5-1.3,3.9-1.3
		c2.7,0,4.1,1.5,4.1,4.2v7.1h-1.4v-1.2c0-0.6,0-0.9,0-0.9h0c0,0-0.9,2.4-3.7,2.4c-1.8,0-3.8-1.1-3.8-3.3
		C581.6,132.7,586.5,132.6,588.4,132.6z M585.7,138.5c2.1,0,3.4-2.2,3.4-4.1v-0.5h-0.6c-1.7,0-5.2,0.1-5.2,2.5
		C583.2,137.4,584,138.5,585.7,138.5z"/>
	<path fill="#1D1756" d="M599.1,128.1c2.7,0,4,1.6,4,1.6l-0.8,1.1c0,0-1.2-1.3-3.2-1.3c-2.4,0-4.3,1.8-4.3,4.4
		c0,2.6,1.9,4.4,4.4,4.4c2.2,0,3.5-1.6,3.5-1.6l0.7,1.2c0,0-1.5,1.7-4.3,1.7c-3.3,0-5.8-2.4-5.8-5.8
		C593.3,130.5,595.9,128.1,599.1,128.1z"/>
	<path fill="#1D1756" d="M610.5,128.1c3.1,0,4.6,2.4,4.6,5.1c0,0.3,0,0.8,0,0.8h-8.5c0.1,2.8,2,4.4,4.3,4.4c2,0,3.4-1.3,3.4-1.3
		l0.7,1.1c0,0-1.6,1.5-4.1,1.5c-3.3,0-5.8-2.4-5.8-5.8C605,130.3,607.5,128.1,610.5,128.1z M613.6,132.8c-0.1-2.3-1.5-3.4-3.1-3.4
		c-1.8,0-3.5,1.2-3.8,3.4H613.6z"/>
	<path fill="#1D1756" d="M618.2,129.8h-1.5v-1.3h1.5v-3.2h1.5v3.2h2.8v1.3h-2.8v5.5c0,2.6,1.7,2.9,2.5,2.9c0.3,0,0.5,0,0.5,0v1.3
		c0,0-0.2,0-0.6,0c-1.3,0-3.9-0.4-3.9-4.1V129.8z"/>
	<path fill="#1D1756" d="M631.3,132.6h0.6v-0.3c0-2.1-1.2-2.9-2.8-2.9c-1.8,0-3.1,1.1-3.1,1.1l-0.7-1.1c0,0,1.5-1.3,3.9-1.3
		c2.7,0,4.1,1.5,4.1,4.2v7.1h-1.4v-1.2c0-0.6,0-0.9,0-0.9h0c0,0-0.9,2.4-3.7,2.4c-1.8,0-3.8-1.1-3.8-3.3
		C624.5,132.7,629.3,132.6,631.3,132.6z M628.5,138.5c2.1,0,3.4-2.2,3.4-4.1v-0.5h-0.6c-1.7,0-5.2,0.1-5.2,2.5
		C626,137.4,626.8,138.5,628.5,138.5z"/>
	<path fill="#1D1756" d="M636.9,128.4h1.5v1.6c0,0.5,0,0.9,0,0.9h0c0.5-1.5,2.3-2.8,4-2.8c2,0,3.1,0.9,3.4,2.8h0
		c0.6-1.5,2.2-2.8,4.1-2.8c2.7,0,3.7,1.6,3.7,4.3v7h-1.5v-6.7c0-1.8-0.4-3.3-2.4-3.3c-1.7,0-3.1,1.5-3.5,3.1c-0.2,0.5-0.2,1-0.2,1.6
		v5.2h-1.5v-6.7c0-1.7-0.2-3.3-2.3-3.3c-1.8,0-3.2,1.6-3.6,3.3c-0.1,0.5-0.2,1-0.2,1.5v5.2h-1.5V128.4z"/>
	<path fill="#1D1756" d="M657.4,137.7h1.7l-1.6,3.9h-1.3L657.4,137.7z"/>
	<path fill="#1D1756" d="M673.5,128.1c3.2,0,5.9,2.5,5.9,5.7c0,3.3-2.6,5.9-5.9,5.9s-5.9-2.5-5.9-5.9
		C667.7,130.6,670.3,128.1,673.5,128.1z M673.5,138.4c2.4,0,4.3-1.9,4.3-4.5c0-2.5-1.9-4.4-4.3-4.4c-2.4,0-4.3,1.9-4.3,4.4
		C669.2,136.5,671.1,138.4,673.5,138.4z"/>
	<path fill="#1D1756" d="M682.3,128.4h1.5v2c0,0.5,0,0.9,0,0.9h0c0.5-1.7,1.8-2.9,3.5-2.9c0.3,0,0.6,0.1,0.6,0.1v1.5
		c0,0-0.3,0-0.5,0c-1.6,0-2.7,1.2-3.2,2.9c-0.2,0.7-0.3,1.5-0.3,2.2v4.7h-1.5V128.4z"/>
	<path fill="#1D1756" d="M699.8,142.8c2.2,0,3.9-1,3.9-3.5v-1c0-0.4,0-0.8,0-0.8h0c-0.7,1.2-1.8,1.9-3.5,1.9c-3,0-4.9-2.4-4.9-5.7
		c0-3.3,1.8-5.6,4.8-5.6c2.9,0,3.7,1.8,3.7,1.8h0c0,0,0-0.1,0-0.4v-1.2h1.5v10.8c0,3.5-2.6,4.9-5.3,4.9c-1.3,0-2.6-0.3-3.6-0.9
		l0.6-1.2C696.8,142,698.2,142.8,699.8,142.8z M703.7,133.7c0-3.2-1.5-4.2-3.5-4.2c-2.2,0-3.4,1.6-3.4,4.2c0,2.6,1.4,4.4,3.6,4.4
		C702.2,138.1,703.7,137,703.7,133.7z"/>
	<path fill="#1D1756" d="M714.7,132.6h0.6v-0.3c0-2.1-1.2-2.9-2.8-2.9c-1.8,0-3.1,1.1-3.1,1.1l-0.7-1.1c0,0,1.5-1.3,3.9-1.3
		c2.7,0,4.1,1.5,4.1,4.2v7.1h-1.4v-1.2c0-0.6,0-0.9,0-0.9h0c0,0-0.9,2.4-3.7,2.4c-1.8,0-3.8-1.1-3.8-3.3
		C708,132.7,712.8,132.6,714.7,132.6z M712,138.5c2.1,0,3.4-2.2,3.4-4.1v-0.5h-0.6c-1.7,0-5.2,0.1-5.2,2.5
		C709.5,137.4,710.3,138.5,712,138.5z"/>
	<path fill="#1D1756" d="M720.4,124h1.5v5.4c0,0.5,0,0.9,0,0.9h0c0,0,0.9-2.1,3.8-2.1c3,0,4.8,2.4,4.8,5.8c0,3.5-2.1,5.8-5,5.8
		c-2.6,0-3.6-2.2-3.6-2.2h0c0,0,0,0.4,0,0.9v1h-1.5V124z M725.3,138.4c2,0,3.6-1.7,3.6-4.5c0-2.7-1.4-4.4-3.5-4.4
		c-1.8,0-3.6,1.3-3.6,4.5C721.8,136.2,723,138.4,725.3,138.4z"/>
	<path fill="#1D1756" d="M739.3,132.6h0.6v-0.3c0-2.1-1.2-2.9-2.8-2.9c-1.8,0-3.1,1.1-3.1,1.1l-0.7-1.1c0,0,1.5-1.3,3.9-1.3
		c2.7,0,4.1,1.5,4.1,4.2v7.1H740v-1.2c0-0.6,0-0.9,0-0.9h0c0,0-0.9,2.4-3.7,2.4c-1.8,0-3.8-1.1-3.8-3.3
		C732.5,132.7,737.4,132.6,739.3,132.6z M736.5,138.5c2.1,0,3.4-2.2,3.4-4.1v-0.5h-0.6c-1.7,0-5.2,0.1-5.2,2.5
		C734.1,137.4,734.9,138.5,736.5,138.5z"/>
	<path fill="#1D1756" d="M744.9,128.4h1.4v1.1c0,0.5,0,0.9,0,0.9h0c0,0,0.9-2.2,3.8-2.2c3,0,4.8,2.4,4.8,5.8c0,3.5-2.1,5.8-5,5.8
		c-2.7,0-3.6-2.1-3.6-2.1h0c0,0,0,0.4,0,1v5.3h-1.5V128.4z M749.9,138.4c2,0,3.6-1.7,3.6-4.5c0-2.7-1.4-4.4-3.5-4.4
		c-1.8,0-3.6,1.3-3.6,4.5C746.4,136.2,747.6,138.4,749.9,138.4z"/>
	<path fill="#1D1756" d="M762.8,128.1c3.1,0,4.6,2.4,4.6,5.1c0,0.3,0,0.8,0,0.8h-8.5c0.1,2.8,2,4.4,4.3,4.4c2,0,3.4-1.3,3.4-1.3
		l0.7,1.1c0,0-1.6,1.5-4.1,1.5c-3.3,0-5.8-2.4-5.8-5.8C757.3,130.3,759.8,128.1,762.8,128.1z M765.9,132.8c-0.1-2.3-1.5-3.4-3.1-3.4
		c-1.8,0-3.5,1.2-3.8,3.4H765.9z"/>
	<path fill="#1D1756" d="M770.4,128.4h1.5v1.6c0,0.5,0,0.9,0,0.9h0c0.4-1,1.8-2.8,4.4-2.8c2.7,0,3.7,1.6,3.7,4.3v7h-1.5v-6.6
		c0-1.7-0.3-3.3-2.4-3.3c-1.9,0-3.5,1.3-4,3.1c-0.1,0.5-0.2,1-0.2,1.5v5.3h-1.5V128.4z"/>
	<path fill="#1D1756" d="M783.7,129.8h-1.5v-1.3h1.5v-3.2h1.5v3.2h2.8v1.3h-2.8v5.5c0,2.6,1.7,2.9,2.5,2.9c0.3,0,0.5,0,0.5,0v1.3
		c0,0-0.2,0-0.6,0c-1.3,0-3.9-0.4-3.9-4.1V129.8z"/>
	<path fill="#1D1756" d="M790.6,124h1.6v1.9h-1.6V124z M790.6,128.4h1.5v11.1h-1.5V128.4z"/>
	<path fill="#1D1756" d="M795.7,128.4h1.5v1.6c0,0.5,0,0.9,0,0.9h0c0.4-1,1.8-2.8,4.4-2.8c2.7,0,3.7,1.6,3.7,4.3v7h-1.5v-6.6
		c0-1.7-0.3-3.3-2.4-3.3c-1.9,0-3.5,1.3-4,3.1c-0.1,0.5-0.2,1-0.2,1.5v5.3h-1.5V128.4z"/>
	<path fill="#1D1756" d="M807.7,131.4h2v-6.6c0-0.3,0-0.5,0-0.5h0c0,0-0.1,0.2-0.4,0.5l-1,1l-0.6-0.6l2-2h0.8v8.2h2v0.8h-4.9V131.4z
		"/>
</g>
<g>
	<path fill="#1D1756" d="M131.4,210.4h-6.2l-1.8,4.9h-1.6l5.7-15.5h1.6l5.7,15.5h-1.6L131.4,210.4z M128.3,201.5c0,0-0.3,1.3-0.6,2
		l-2.1,5.6h5.3l-2-5.6C128.7,202.8,128.3,201.5,128.3,201.5L128.3,201.5z"/>
	<path fill="#1D1756" d="M137.4,199.9h5.3c2.8,0,4.8,1.8,4.8,4.7c0,2.9-2,4.7-4.8,4.7H139v6.1h-1.5V199.9z M142.6,207.9
		c2.1,0,3.4-1.3,3.4-3.4c0-2.1-1.3-3.3-3.4-3.3H139v6.7H142.6z"/>
	<path fill="#1D1756" d="M154.5,201.3h-5.6v-1.4h12.6v1.4H156v14.1h-1.5V201.3z"/>
	<path fill="#1D1756" d="M164.1,199.9h1.5v15.5h-1.5V199.9z"/>
	<path fill="#1D1756" d="M177,199.6c4.4,0,7.9,3.5,7.9,7.9c0,4.5-3.5,8.1-7.9,8.1c-4.4,0-7.9-3.6-7.9-8.1
		C169.1,203.1,172.6,199.6,177,199.6z M177,214.2c3.5,0,6.3-2.9,6.3-6.7c0-3.7-2.8-6.5-6.3-6.5c-3.5,0-6.3,2.8-6.3,6.5
		C170.7,211.3,173.5,214.2,177,214.2z"/>
	<path fill="#1D1756" d="M189.1,199.9h1.6l4,9.1c0.4,0.8,0.7,1.9,0.7,1.9h0c0,0,0.4-1.1,0.8-1.9l4-9.1h1.6l1.2,15.5h-1.5l-0.9-10.8
		c-0.1-0.8,0-2.2,0-2.2h0c0,0-0.5,1.4-0.8,2.2l-3.6,7.9h-1.4l-3.6-7.9c-0.4-0.8-0.8-2.2-0.8-2.2h0c0,0,0,1.4,0,2.2l-0.9,10.8h-1.5
		L189.1,199.9z"/>
	<path fill="#1D1756" d="M216.6,203.9c2.5,0,3.2,1.4,3.2,1.4h0c0,0,0-0.3,0-0.6v-4.9h2.8v15.6H220v-0.9c0-0.4,0-0.7,0-0.7h0
		c0,0-0.9,1.9-3.5,1.9c-3,0-5-2.4-5-5.9C211.6,206.2,213.7,203.9,216.6,203.9z M217.2,213.3c1.5,0,2.8-1.1,2.8-3.5
		c0-1.7-0.9-3.5-2.8-3.5c-1.5,0-2.8,1.3-2.8,3.5C214.4,211.9,215.5,213.3,217.2,213.3z"/>
	<path fill="#1D1756" d="M231.1,203.9c3.4,0,6.2,2.4,6.2,5.9c0,3.5-2.8,5.9-6.2,5.9c-3.4,0-6.2-2.4-6.2-5.9
		C224.9,206.3,227.7,203.9,231.1,203.9z M231.1,213.2c1.8,0,3.3-1.4,3.3-3.5c0-2.1-1.5-3.5-3.3-3.5c-1.8,0-3.3,1.4-3.3,3.5
		C227.8,211.8,229.3,213.2,231.1,213.2z"/>
	<path fill="#1D1756" d="M244.4,203.9c3.2,0,5,2.4,5,5.3c0,0.3-0.1,1.1-0.1,1.1h-7.7c0.2,2,1.7,3,3.4,3c1.8,0,3.2-1.2,3.2-1.2l1.1,2
		c0,0-1.7,1.6-4.5,1.6c-3.7,0-6-2.7-6-5.9C238.7,206.3,241.1,203.9,244.4,203.9z M246.6,208.4c0-1.5-1-2.3-2.2-2.3
		c-1.4,0-2.4,0.9-2.7,2.3H246.6z"/>
	<path fill="#1D1756" d="M252,212c0,0,1.2,1.2,3.1,1.2c0.8,0,1.5-0.4,1.5-1c0-1.7-5.5-1.5-5.5-5.1c0-2.1,1.9-3.3,4.3-3.3
		c2.5,0,3.8,1.3,3.8,1.3l-1,2.1c0,0-1-1-2.8-1c-0.7,0-1.4,0.3-1.4,1c0,1.6,5.5,1.4,5.5,5c0,1.9-1.6,3.4-4.3,3.4
		c-2.8,0-4.4-1.6-4.4-1.6L252,212z"/>
	<path fill="#1D1756" d="M267,204.1h2.7v1.3c0,0.4,0,0.8,0,0.8h0c0.5-0.9,1.7-2.3,4-2.3c2.5,0,3.9,1.3,3.9,4.3v7.2h-2.8v-6.6
		c0-1.4-0.4-2.3-1.8-2.3c-1.5,0-2.6,0.9-3,2.3c-0.2,0.5-0.2,1-0.2,1.5v5.1H267V204.1z"/>
	<path fill="#1D1756" d="M285.8,203.9c3.4,0,6.2,2.4,6.2,5.9c0,3.5-2.8,5.9-6.2,5.9c-3.4,0-6.2-2.4-6.2-5.9
		C279.6,206.3,282.4,203.9,285.8,203.9z M285.8,213.2c1.8,0,3.3-1.4,3.3-3.5c0-2.1-1.5-3.5-3.3-3.5c-1.8,0-3.3,1.4-3.3,3.5
		C282.5,211.8,284,213.2,285.8,213.2z"/>
	<path fill="#1D1756" d="M294.7,206.5h-1.5v-2.2h1.5v-3.2h2.7v3.2h2.6v2.2h-2.6v4.4c0,1.8,1.5,2.1,2.2,2.1c0.3,0,0.5,0,0.5,0v2.4
		c0,0-0.3,0.1-0.9,0.1c-1.6,0-4.7-0.5-4.7-4.2V206.5z"/>
	<path fill="#1D1756" d="M308.7,199.9h1.6v1.9h-1.6V199.9z M308.7,204.3h1.5v11.1h-1.5V204.3z"/>
	<path fill="#1D1756" d="M313.8,204.3h1.5v1.7c0,0.5,0,0.9,0,0.9h0c0.4-1,1.8-2.8,4.4-2.8c2.7,0,3.7,1.6,3.7,4.3v7h-1.5v-6.6
		c0-1.7-0.3-3.3-2.4-3.3c-1.9,0-3.5,1.3-4,3.1c-0.1,0.5-0.2,1-0.2,1.5v5.3h-1.5V204.3z"/>
	<path fill="#1D1756" d="M331.1,204c2.7,0,3.6,2.1,3.6,2.1h0c0,0,0-0.4,0-0.8v-5.4h1.5v15.5h-1.5v-1.2c0-0.5,0-0.8,0-0.8h0
		c0,0-0.9,2.2-3.8,2.2c-3,0-4.8-2.4-4.8-5.8C326.1,206.3,328.2,204,331.1,204z M331.2,214.3c1.8,0,3.6-1.3,3.6-4.5
		c0-2.2-1.1-4.4-3.5-4.4c-2,0-3.6,1.7-3.6,4.4C327.7,212.5,329.1,214.3,331.2,214.3z"/>
	<path fill="#1D1756" d="M339.7,204.3h1.5v6.6c0,1.7,0.3,3.3,2.4,3.3c2.5,0,4.1-2.2,4.1-4.6v-5.3h1.5v11.1h-1.5v-1.7
		c0-0.5,0-0.9,0-0.9h0c-0.4,1.1-1.9,2.8-4.3,2.8c-2.6,0-3.7-1.4-3.7-4.3V204.3z"/>
	<path fill="#1D1756" d="M357.8,204c2.7,0,4,1.6,4,1.6l-0.8,1.1c0,0-1.2-1.3-3.2-1.3c-2.4,0-4.3,1.8-4.3,4.4c0,2.6,1.9,4.4,4.4,4.4
		c2.2,0,3.5-1.6,3.5-1.6l0.7,1.2c0,0-1.5,1.7-4.3,1.7c-3.3,0-5.8-2.4-5.8-5.8C352,206.4,354.5,204,357.8,204z"/>
	<path fill="#1D1756" d="M369.5,204c3.1,0,4.6,2.4,4.6,5.1c0,0.3,0,0.8,0,0.8h-8.5c0.1,2.8,2,4.4,4.3,4.4c2,0,3.4-1.3,3.4-1.3
		l0.7,1.1c0,0-1.6,1.5-4.1,1.5c-3.3,0-5.8-2.4-5.8-5.8C364.1,206.2,366.5,204,369.5,204z M372.6,208.7c-0.1-2.3-1.5-3.4-3.1-3.4
		c-1.8,0-3.5,1.2-3.8,3.4H372.6z"/>
	<path fill="#1D1756" d="M382.9,199.9h1.6v1.9h-1.6V199.9z M382.9,204.3h1.5v11.1h-1.5V204.3z"/>
	<path fill="#1D1756" d="M388.4,205.7H387v-1.3h1.5v-3.2h1.5v3.2h2.8v1.3h-2.8v5.5c0,2.6,1.6,2.9,2.5,2.9c0.3,0,0.5,0,0.5,0v1.3
		c0,0-0.2,0-0.6,0c-1.3,0-3.9-0.4-3.9-4.1V205.7z"/>
	<path fill="#1D1756" d="M395.3,212.9c0,0,1.2,1.3,3.3,1.3c1.2,0,2.2-0.6,2.2-1.8c0-2.4-6-1.8-6-5.4c0-2,1.8-3.1,3.8-3.1
		c2.3,0,3.4,1.2,3.4,1.2l-0.7,1.1c0,0-0.9-1-2.8-1c-1.1,0-2.2,0.5-2.2,1.7c0,2.4,6,1.8,6,5.4c0,1.8-1.6,3.1-3.8,3.1
		c-2.7,0-4.1-1.6-4.1-1.6L395.3,212.9z"/>
	<path fill="#1D1756" d="M416.1,204c3.2,0,5.9,2.5,5.9,5.7c0,3.3-2.6,5.9-5.9,5.9c-3.2,0-5.9-2.5-5.9-5.9
		C410.2,206.5,412.9,204,416.1,204z M416.1,214.3c2.4,0,4.3-1.9,4.3-4.5c0-2.5-1.9-4.4-4.3-4.4c-2.4,0-4.3,1.9-4.3,4.4
		C411.8,212.3,413.7,214.3,416.1,214.3z"/>
	<path fill="#1D1756" d="M423.3,204.3h1.6l2.7,8.3c0.2,0.5,0.3,1.2,0.3,1.2h0c0,0,0.2-0.7,0.3-1.2l2.7-8.2h1.5l2.7,8.2
		c0.2,0.5,0.3,1.2,0.3,1.2h0c0,0,0.2-0.6,0.3-1.2l2.7-8.3h1.6l-3.7,11.1h-1.6l-2.7-7.9c-0.2-0.5-0.4-1.2-0.4-1.2h0
		c0,0-0.2,0.6-0.3,1.2l-2.7,7.9H427L423.3,204.3z"/>
	<path fill="#1D1756" d="M442.4,204.3h1.5v1.7c0,0.5,0,0.9,0,0.9h0c0.4-1,1.8-2.8,4.4-2.8c2.7,0,3.7,1.6,3.7,4.3v7h-1.5v-6.6
		c0-1.7-0.3-3.3-2.4-3.3c-1.9,0-3.5,1.3-4,3.1c-0.1,0.5-0.2,1-0.2,1.5v5.3h-1.5V204.3z"/>
	<path fill="#1D1756" d="M461.3,204.3h1.5v1.7c0,0.5,0,0.9,0,0.9h0c0.5-1.5,2.3-2.8,4-2.8c2,0,3.1,0.9,3.4,2.8h0
		c0.6-1.5,2.2-2.8,4.1-2.8c2.7,0,3.7,1.6,3.7,4.3v7h-1.5v-6.7c0-1.8-0.4-3.3-2.4-3.3c-1.7,0-3.1,1.5-3.5,3.1c-0.2,0.5-0.2,1-0.2,1.6
		v5.2h-1.5v-6.7c0-1.7-0.2-3.3-2.3-3.3c-1.8,0-3.2,1.6-3.6,3.3c-0.1,0.5-0.2,1-0.2,1.5v5.2h-1.5V204.3z"/>
	<path fill="#1D1756" d="M486.2,204c3.1,0,4.6,2.4,4.6,5.1c0,0.3,0,0.8,0,0.8h-8.5c0.1,2.8,2,4.4,4.3,4.4c2,0,3.4-1.3,3.4-1.3
		l0.7,1.1c0,0-1.6,1.5-4.1,1.5c-3.3,0-5.8-2.4-5.8-5.8C480.7,206.2,483.2,204,486.2,204z M489.3,208.7c-0.1-2.3-1.5-3.4-3.1-3.4
		c-1.8,0-3.5,1.2-3.8,3.4H489.3z"/>
	<path fill="#1D1756" d="M494.1,205.7h-1.5v-1.3h1.5v-3.2h1.5v3.2h2.8v1.3h-2.8v5.5c0,2.6,1.6,2.9,2.5,2.9c0.3,0,0.5,0,0.5,0v1.3
		c0,0-0.2,0-0.6,0c-1.3,0-3.9-0.4-3.9-4.1V205.7z"/>
	<path fill="#1D1756" d="M506.9,208.5h0.6v-0.3c0-2.1-1.2-2.9-2.8-2.9c-1.8,0-3.1,1.1-3.1,1.1l-0.7-1.1c0,0,1.5-1.3,3.9-1.3
		c2.7,0,4.1,1.5,4.1,4.2v7.1h-1.4v-1.2c0-0.6,0-0.9,0-0.9h0c0,0-0.9,2.4-3.7,2.4c-1.8,0-3.8-1.1-3.8-3.3
		C500.1,208.6,505,208.5,506.9,208.5z M504.1,214.3c2.1,0,3.4-2.2,3.4-4.1v-0.5h-0.6c-1.7,0-5.2,0.1-5.2,2.5
		C501.6,213.3,502.5,214.3,504.1,214.3z"/>
	<path fill="#1D1756" d="M512.4,199.9h1.5v5.4c0,0.5,0,0.9,0,0.9h0c0,0,0.9-2.1,3.8-2.1c3,0,4.8,2.4,4.8,5.8c0,3.5-2.1,5.8-5,5.8
		c-2.6,0-3.6-2.2-3.6-2.2h0c0,0,0,0.4,0,0.9v1h-1.5V199.9z M517.4,214.3c2,0,3.6-1.7,3.6-4.5c0-2.7-1.4-4.4-3.5-4.4
		c-1.8,0-3.6,1.3-3.6,4.5C513.9,212.1,515,214.3,517.4,214.3z"/>
	<path fill="#1D1756" d="M530.4,204c3.2,0,5.9,2.5,5.9,5.7c0,3.3-2.6,5.9-5.9,5.9c-3.2,0-5.9-2.5-5.9-5.9
		C524.6,206.5,527.2,204,530.4,204z M530.4,214.3c2.4,0,4.3-1.9,4.3-4.5c0-2.5-1.9-4.4-4.3-4.4c-2.4,0-4.3,1.9-4.3,4.4
		C526.1,212.3,528.1,214.3,530.4,214.3z"/>
	<path fill="#1D1756" d="M539,199.9h1.5v12.5c0,1.5,0.7,1.7,1.2,1.7c0.2,0,0.4,0,0.4,0v1.3c0,0-0.3,0-0.6,0c-0.9,0-2.6-0.3-2.6-2.7
		V199.9z"/>
	<path fill="#1D1756" d="M544.5,199.9h1.6v1.9h-1.6V199.9z M544.5,204.3h1.5v11.1h-1.5V204.3z"/>
	<path fill="#1D1756" d="M549.5,212.9c0,0,1.2,1.3,3.3,1.3c1.2,0,2.2-0.6,2.2-1.8c0-2.4-6-1.8-6-5.4c0-2,1.8-3.1,3.8-3.1
		c2.3,0,3.4,1.2,3.4,1.2l-0.7,1.1c0,0-0.9-1-2.8-1c-1.1,0-2.2,0.5-2.2,1.7c0,2.4,6,1.8,6,5.4c0,1.8-1.6,3.1-3.8,3.1
		c-2.7,0-4.1-1.6-4.1-1.6L549.5,212.9z"/>
	<path fill="#1D1756" d="M559.4,204.3h1.5v1.7c0,0.5,0,0.9,0,0.9h0c0.5-1.5,2.3-2.8,4-2.8c2,0,3.1,0.9,3.4,2.8h0
		c0.6-1.5,2.2-2.8,4.1-2.8c2.7,0,3.7,1.6,3.7,4.3v7h-1.5v-6.7c0-1.8-0.4-3.3-2.4-3.3c-1.7,0-3.1,1.5-3.5,3.1c-0.2,0.5-0.2,1-0.2,1.6
		v5.2H567v-6.7c0-1.7-0.2-3.3-2.3-3.3c-1.8,0-3.2,1.6-3.6,3.3c-0.1,0.5-0.2,1-0.2,1.5v5.2h-1.5V204.3z"/>
	<path fill="#1D1756" d="M578.4,207.2h2v-6.6c0-0.3,0-0.5,0-0.5h0c0,0-0.1,0.2-0.4,0.5l-1,1l-0.6-0.6l2-2h0.8v8.2h2v0.8h-4.9V207.2z
		"/>
</g>
<g>
	<path fill="#1D1756" d="M123.5,269.6h2.8l5.9,9c0.6,0.9,1.3,2.4,1.3,2.4h0c0,0-0.2-1.5-0.2-2.4v-9h2.8v15.6h-2.8l-5.9-9
		c-0.6-0.9-1.3-2.4-1.3-2.4h0c0,0,0.2,1.5,0.2,2.4v9h-2.8V269.6z"/>
	<path fill="#1D1756" d="M145.3,273.7c3.4,0,6.2,2.4,6.2,5.9c0,3.5-2.8,5.9-6.2,5.9c-3.4,0-6.2-2.4-6.2-5.9
		C139.1,276.2,141.8,273.7,145.3,273.7z M145.3,283.1c1.8,0,3.3-1.4,3.3-3.5c0-2.1-1.5-3.5-3.3-3.5c-1.8,0-3.3,1.4-3.3,3.5
		C141.9,281.7,143.4,283.1,145.3,283.1z"/>
	<path fill="#1D1756" d="M164,273.9c3.1,0,4.6,2.4,4.6,5.1c0,0.3,0,0.8,0,0.8h-8.5c0.1,2.8,2,4.4,4.3,4.4c2,0,3.4-1.3,3.4-1.3
		l0.7,1.1c0,0-1.6,1.5-4.1,1.5c-3.3,0-5.8-2.4-5.8-5.8C158.5,276.1,161,273.9,164,273.9z M167.1,278.5c-0.1-2.3-1.5-3.4-3.1-3.4
		c-1.8,0-3.5,1.2-3.8,3.4H167.1z"/>
	<path fill="#1D1756" d="M171.5,282.8c0,0,1.2,1.3,3.3,1.3c1.2,0,2.2-0.6,2.2-1.8c0-2.4-6-1.8-6-5.4c0-2,1.8-3.1,3.8-3.1
		c2.3,0,3.4,1.2,3.4,1.2l-0.7,1.1c0,0-0.9-1-2.8-1c-1.1,0-2.2,0.5-2.2,1.7c0,2.4,6,1.8,6,5.4c0,1.8-1.6,3.1-3.8,3.1
		c-2.7,0-4.1-1.6-4.1-1.6L171.5,282.8z"/>
	<path fill="#1D1756" d="M181.2,269.7h1.5v12.5c0,1.5,0.7,1.7,1.2,1.7c0.2,0,0.4,0,0.4,0v1.3c0,0-0.3,0-0.6,0
		c-0.9,0-2.6-0.3-2.6-2.7V269.7z"/>
	<path fill="#1D1756" d="M186.7,269.7h1.6v1.9h-1.6V269.7z M186.7,274.1h1.5v11.1h-1.5V274.1z"/>
	<path fill="#1D1756" d="M196.9,273.9c2.7,0,4,1.6,4,1.6l-0.8,1.1c0,0-1.2-1.3-3.2-1.3c-2.4,0-4.3,1.8-4.3,4.4
		c0,2.6,1.9,4.4,4.4,4.4c2.2,0,3.5-1.6,3.5-1.6l0.7,1.2c0,0-1.5,1.7-4.3,1.7c-3.3,0-5.8-2.4-5.8-5.8
		C191.1,276.3,193.7,273.9,196.9,273.9z"/>
	<path fill="#1D1756" d="M210,278.4h0.6v-0.3c0-2.1-1.2-2.9-2.8-2.9c-1.8,0-3.1,1.1-3.1,1.1l-0.7-1.1c0,0,1.5-1.3,3.9-1.3
		c2.7,0,4.1,1.5,4.1,4.2v7.1h-1.4V284c0-0.6,0-0.9,0-0.9h0c0,0-0.9,2.4-3.7,2.4c-1.8,0-3.8-1.1-3.8-3.3
		C203.2,278.5,208.1,278.4,210,278.4z M207.2,284.2c2.1,0,3.4-2.2,3.4-4.1v-0.5H210c-1.7,0-5.2,0.1-5.2,2.5
		C204.8,283.1,205.6,284.2,207.2,284.2z"/>
	<path fill="#1D1756" d="M215.6,274.1h1.5v2c0,0.5,0,0.9,0,0.9h0c0.5-1.7,1.8-2.9,3.5-2.9c0.3,0,0.6,0.1,0.6,0.1v1.5
		c0,0-0.3,0-0.6,0c-1.6,0-2.7,1.2-3.2,2.9c-0.2,0.7-0.3,1.5-0.3,2.2v4.7h-1.5V274.1z"/>
	<path fill="#1D1756" d="M223.5,269.7h1.5v5.4c0,0.5,0,0.9,0,0.9h0c0,0,0.9-2.1,3.8-2.1c3,0,4.8,2.4,4.8,5.8c0,3.5-2.1,5.8-5,5.8
		c-2.6,0-3.6-2.2-3.6-2.2h0c0,0,0,0.4,0,0.9v1h-1.5V269.7z M228.4,284.2c2,0,3.6-1.7,3.6-4.5c0-2.7-1.4-4.4-3.5-4.4
		c-1.8,0-3.6,1.3-3.6,4.5C224.9,281.9,226.1,284.2,228.4,284.2z"/>
	<path fill="#1D1756" d="M242.4,278.4h0.6v-0.3c0-2.1-1.2-2.9-2.8-2.9c-1.8,0-3.1,1.1-3.1,1.1l-0.7-1.1c0,0,1.5-1.3,3.9-1.3
		c2.7,0,4.1,1.5,4.1,4.2v7.1h-1.4V284c0-0.6,0-0.9,0-0.9h0c0,0-0.9,2.4-3.7,2.4c-1.8,0-3.8-1.1-3.8-3.3
		C235.6,278.5,240.5,278.4,242.4,278.4z M239.6,284.2c2.1,0,3.4-2.2,3.4-4.1v-0.5h-0.6c-1.7,0-5.2,0.1-5.2,2.5
		C237.1,283.1,238,284.2,239.6,284.2z"/>
	<path fill="#1D1756" d="M247,284.2l6.2-7.8c0.4-0.5,0.9-1,0.9-1v0c0,0-0.4,0-1.1,0h-5.7v-1.3h8.8v1l-6.2,7.7c-0.4,0.5-0.9,1-0.9,1
		v0c0,0,0.4,0,1.1,0h6.2v1.3H247V284.2z"/>
	<path fill="#1D1756" d="M263.3,273.9c3.1,0,4.6,2.4,4.6,5.1c0,0.3,0,0.8,0,0.8h-8.5c0.1,2.8,2,4.4,4.3,4.4c2,0,3.4-1.3,3.4-1.3
		l0.7,1.1c0,0-1.6,1.5-4.1,1.5c-3.3,0-5.8-2.4-5.8-5.8C257.8,276.1,260.3,273.9,263.3,273.9z M266.4,278.5c-0.1-2.3-1.5-3.4-3.1-3.4
		c-1.8,0-3.5,1.2-3.8,3.4H266.4z"/>
	<path fill="#1D1756" d="M270.9,274.1h1.4v1.1c0,0.5,0,0.9,0,0.9h0c0,0,0.9-2.2,3.8-2.2c3,0,4.8,2.4,4.8,5.8c0,3.5-2.1,5.8-5,5.8
		c-2.7,0-3.6-2.1-3.6-2.1h0c0,0,0,0.4,0,1v5.3h-1.5V274.1z M275.9,284.2c2,0,3.6-1.7,3.6-4.5c0-2.7-1.4-4.4-3.5-4.4
		c-1.8,0-3.6,1.3-3.6,4.5C272.3,281.9,273.6,284.2,275.9,284.2z"/>
	<path fill="#1D1756" d="M283.9,269.7h1.6v1.9h-1.6V269.7z M283.9,274.1h1.5v11.1h-1.5V274.1z"/>
	<path fill="#1D1756" d="M289,274.1h1.5v1.7c0,0.5,0,0.9,0,0.9h0c0.4-1,1.8-2.8,4.4-2.8c2.7,0,3.7,1.6,3.7,4.3v7h-1.5v-6.6
		c0-1.7-0.3-3.3-2.4-3.3c-1.9,0-3.5,1.3-4,3.1c-0.1,0.5-0.2,1-0.2,1.5v5.3H289V274.1z"/>
	<path fill="#1D1756" d="M306.9,273.9c3.1,0,4.6,2.4,4.6,5.1c0,0.3,0,0.8,0,0.8H303c0.1,2.8,2,4.4,4.3,4.4c2,0,3.4-1.3,3.4-1.3
		l0.7,1.1c0,0-1.6,1.5-4.1,1.5c-3.3,0-5.8-2.4-5.8-5.8C301.4,276.1,303.9,273.9,306.9,273.9z M310,278.5c-0.1-2.3-1.5-3.4-3.1-3.4
		c-1.8,0-3.5,1.2-3.8,3.4H310z"/>
	<path fill="#1D1756" d="M320.7,275.5h-1.5v-1.3h1.5v-3.2h1.5v3.2h2.8v1.3h-2.8v5.5c0,2.6,1.6,2.9,2.5,2.9c0.3,0,0.5,0,0.5,0v1.3
		c0,0-0.2,0-0.6,0c-1.3,0-3.9-0.4-3.9-4.1V275.5z"/>
	<path fill="#1D1756" d="M327.6,269.7h1.5v6c0,0.5,0,0.9,0,0.9h0c0.4-1.1,1.9-2.8,4.4-2.8c2.7,0,3.7,1.6,3.7,4.3v7h-1.5v-6.6
		c0-1.7-0.3-3.3-2.4-3.3c-1.9,0-3.5,1.3-4,3.1c-0.1,0.4-0.2,0.9-0.2,1.5v5.3h-1.5V269.7z"/>
	<path fill="#1D1756" d="M345.5,273.9c3.1,0,4.6,2.4,4.6,5.1c0,0.3,0,0.8,0,0.8h-8.5c0.1,2.8,2,4.4,4.3,4.4c2,0,3.4-1.3,3.4-1.3
		l0.7,1.1c0,0-1.6,1.5-4.1,1.5c-3.3,0-5.8-2.4-5.8-5.8C340,276.1,342.5,273.9,345.5,273.9z M348.6,278.5c-0.1-2.3-1.5-3.4-3.1-3.4
		c-1.8,0-3.5,1.2-3.8,3.4H348.6z"/>
	<path fill="#1D1756" d="M353.1,274.1h1.5v2c0,0.5,0,0.9,0,0.9h0c0.5-1.7,1.8-2.9,3.5-2.9c0.3,0,0.6,0.1,0.6,0.1v1.5
		c0,0-0.3,0-0.6,0c-1.6,0-2.7,1.2-3.2,2.9c-0.2,0.7-0.3,1.5-0.3,2.2v4.7h-1.5V274.1z"/>
	<path fill="#1D1756" d="M366.8,278.4h0.6v-0.3c0-2.1-1.2-2.9-2.8-2.9c-1.8,0-3.1,1.1-3.1,1.1l-0.7-1.1c0,0,1.5-1.3,3.9-1.3
		c2.7,0,4.1,1.5,4.1,4.2v7.1h-1.4V284c0-0.6,0-0.9,0-0.9h0c0,0-0.9,2.4-3.7,2.4c-1.8,0-3.8-1.1-3.8-3.3
		C360.1,278.5,364.9,278.4,366.8,278.4z M364.1,284.2c2.1,0,3.4-2.2,3.4-4.1v-0.5h-0.6c-1.7,0-5.2,0.1-5.2,2.5
		C361.6,283.1,362.4,284.2,364.1,284.2z"/>
	<path fill="#1D1756" d="M372.5,274.1h1.4v1.1c0,0.5,0,0.9,0,0.9h0c0,0,0.9-2.2,3.8-2.2c3,0,4.8,2.4,4.8,5.8c0,3.5-2.1,5.8-5,5.8
		c-2.7,0-3.6-2.1-3.6-2.1h0c0,0,0,0.4,0,1v5.3h-1.5V274.1z M377.4,284.2c2,0,3.6-1.7,3.6-4.5c0-2.7-1.4-4.4-3.5-4.4
		c-1.8,0-3.6,1.3-3.6,4.5C373.9,281.9,375.1,284.2,377.4,284.2z"/>
	<path fill="#1D1756" d="M390.3,273.9c3.1,0,4.6,2.4,4.6,5.1c0,0.3,0,0.8,0,0.8h-8.5c0.1,2.8,2,4.4,4.3,4.4c2,0,3.4-1.3,3.4-1.3
		l0.7,1.1c0,0-1.6,1.5-4.1,1.5c-3.3,0-5.8-2.4-5.8-5.8C384.8,276.1,387.3,273.9,390.3,273.9z M393.4,278.5c-0.1-2.3-1.5-3.4-3.1-3.4
		c-1.8,0-3.5,1.2-3.8,3.4H393.4z"/>
	<path fill="#1D1756" d="M397.8,274.1h1.5v6.6c0,1.7,0.3,3.3,2.4,3.3c2.5,0,4.1-2.2,4.1-4.6v-5.3h1.5v11.1h-1.5v-1.7
		c0-0.5,0-0.9,0-0.9h0c-0.4,1.1-1.9,2.8-4.3,2.8c-2.6,0-3.7-1.4-3.7-4.3V274.1z"/>
	<path fill="#1D1756" d="M411.2,275.5h-1.5v-1.3h1.5v-3.2h1.5v3.2h2.8v1.3h-2.8v5.5c0,2.6,1.6,2.9,2.5,2.9c0.3,0,0.5,0,0.5,0v1.3
		c0,0-0.2,0-0.6,0c-1.3,0-3.9-0.4-3.9-4.1V275.5z"/>
	<path fill="#1D1756" d="M418,269.7h1.6v1.9H418V269.7z M418.1,274.1h1.5v11.1h-1.5V274.1z"/>
	<path fill="#1D1756" d="M428.3,273.9c2.7,0,4,1.6,4,1.6l-0.8,1.1c0,0-1.2-1.3-3.2-1.3c-2.4,0-4.3,1.8-4.3,4.4
		c0,2.6,1.9,4.4,4.4,4.4c2.2,0,3.5-1.6,3.5-1.6l0.7,1.2c0,0-1.5,1.7-4.3,1.7c-3.3,0-5.8-2.4-5.8-5.8
		C422.5,276.3,425,273.9,428.3,273.9z"/>
	<path fill="#1D1756" d="M445.5,273.9c2.7,0,3.6,2.1,3.6,2.1h0c0,0,0-0.4,0-0.8v-5.4h1.5v15.5h-1.5V284c0-0.5,0-0.8,0-0.8h0
		c0,0-0.9,2.2-3.8,2.2c-3,0-4.8-2.4-4.8-5.8C440.5,276.2,442.6,273.9,445.5,273.9z M445.5,284.1c1.8,0,3.6-1.3,3.6-4.5
		c0-2.2-1.1-4.4-3.5-4.4c-2,0-3.6,1.7-3.6,4.4C442,282.4,443.5,284.1,445.5,284.1z"/>
	<path fill="#1D1756" d="M454.2,274.1h1.5v2c0,0.5,0,0.9,0,0.9h0c0.5-1.7,1.8-2.9,3.5-2.9c0.3,0,0.6,0.1,0.6,0.1v1.5
		c0,0-0.3,0-0.6,0c-1.6,0-2.7,1.2-3.2,2.9c-0.2,0.7-0.3,1.5-0.3,2.2v4.7h-1.5V274.1z"/>
	<path fill="#1D1756" d="M462,274.1h1.5v6.6c0,1.7,0.3,3.3,2.4,3.3c2.5,0,4.1-2.2,4.1-4.6v-5.3h1.5v11.1H470v-1.7c0-0.5,0-0.9,0-0.9
		h0c-0.4,1.1-1.9,2.8-4.3,2.8c-2.6,0-3.7-1.4-3.7-4.3V274.1z"/>
	<path fill="#1D1756" d="M479,288.5c2.2,0,3.9-1,3.9-3.5v-1c0-0.4,0-0.8,0-0.8h0c-0.7,1.2-1.8,1.9-3.5,1.9c-3,0-4.9-2.4-4.9-5.7
		c0-3.3,1.8-5.6,4.8-5.6c2.9,0,3.7,1.8,3.7,1.8h0c0,0,0-0.1,0-0.4v-1.2h1.5v10.8c0,3.5-2.6,4.9-5.3,4.9c-1.3,0-2.6-0.3-3.6-0.9
		l0.6-1.2C476,287.7,477.4,288.5,479,288.5z M482.9,279.5c0-3.2-1.5-4.2-3.5-4.2c-2.2,0-3.4,1.6-3.4,4.2s1.4,4.4,3.6,4.4
		C481.3,283.8,482.9,282.7,482.9,279.5z"/>
	<path fill="#1D1756" d="M493.9,274.1h1.5v1.7c0,0.5,0,0.9,0,0.9h0c0.5-1.5,2.3-2.8,4-2.8c2,0,3.1,0.9,3.4,2.8h0
		c0.6-1.5,2.2-2.8,4.1-2.8c2.7,0,3.7,1.6,3.7,4.3v7h-1.5v-6.7c0-1.8-0.4-3.3-2.4-3.3c-1.7,0-3.1,1.5-3.5,3.1c-0.2,0.5-0.2,1-0.2,1.6
		v5.2h-1.5v-6.7c0-1.7-0.2-3.3-2.3-3.3c-1.8,0-3.2,1.6-3.6,3.3c-0.1,0.5-0.2,1-0.2,1.5v5.2h-1.5V274.1z"/>
	<path fill="#1D1756" d="M519.2,273.9c3.2,0,5.9,2.5,5.9,5.7c0,3.3-2.6,5.9-5.9,5.9c-3.2,0-5.9-2.5-5.9-5.9
		C513.3,276.3,516,273.9,519.2,273.9z M519.2,284.1c2.4,0,4.3-1.9,4.3-4.5c0-2.5-1.9-4.4-4.3-4.4c-2.4,0-4.3,1.9-4.3,4.4
		C514.9,282.2,516.8,284.1,519.2,284.1z"/>
	<path fill="#1D1756" d="M527.9,274.1h1.5v1.7c0,0.5,0,0.9,0,0.9h0c0.4-1,1.8-2.8,4.4-2.8c2.7,0,3.7,1.6,3.7,4.3v7H536v-6.6
		c0-1.7-0.3-3.3-2.4-3.3c-1.9,0-3.5,1.3-4,3.1c-0.1,0.5-0.2,1-0.2,1.5v5.3h-1.5V274.1z"/>
	<path fill="#1D1756" d="M541,269.7h1.6v1.9H541V269.7z M541,274.1h1.5v11.1H541V274.1z"/>
	<path fill="#1D1756" d="M546.4,275.5H545v-1.3h1.5v-3.2h1.5v3.2h2.8v1.3h-2.8v5.5c0,2.6,1.6,2.9,2.5,2.9c0.3,0,0.5,0,0.5,0v1.3
		c0,0-0.2,0-0.6,0c-1.3,0-3.9-0.4-3.9-4.1V275.5z"/>
	<path fill="#1D1756" d="M558,273.9c3.2,0,5.9,2.5,5.9,5.7c0,3.3-2.6,5.9-5.9,5.9c-3.2,0-5.9-2.5-5.9-5.9
		C552.1,276.3,554.7,273.9,558,273.9z M558,284.1c2.4,0,4.3-1.9,4.3-4.5c0-2.5-1.9-4.4-4.3-4.4c-2.4,0-4.3,1.9-4.3,4.4
		C553.7,282.2,555.6,284.1,558,284.1z"/>
	<path fill="#1D1756" d="M566.7,274.1h1.5v2c0,0.5,0,0.9,0,0.9h0c0.5-1.7,1.8-2.9,3.5-2.9c0.3,0,0.6,0.1,0.6,0.1v1.5
		c0,0-0.3,0-0.6,0c-1.6,0-2.7,1.2-3.2,2.9c-0.2,0.7-0.3,1.5-0.3,2.2v4.7h-1.5V274.1z"/>
	<path fill="#1D1756" d="M574.5,269.7h1.6v1.9h-1.6V269.7z M574.6,274.1h1.5v11.1h-1.5V274.1z"/>
	<path fill="#1D1756" d="M579.7,274.1h1.5v1.7c0,0.5,0,0.9,0,0.9h0c0.4-1,1.8-2.8,4.4-2.8c2.7,0,3.7,1.6,3.7,4.3v7h-1.5v-6.6
		c0-1.7-0.3-3.3-2.4-3.3c-1.9,0-3.5,1.3-4,3.1c-0.1,0.5-0.2,1-0.2,1.5v5.3h-1.5V274.1z"/>
	<path fill="#1D1756" d="M596.7,288.5c2.2,0,3.9-1,3.9-3.5v-1c0-0.4,0-0.8,0-0.8h0c-0.7,1.2-1.8,1.9-3.5,1.9c-3,0-4.9-2.4-4.9-5.7
		c0-3.3,1.8-5.6,4.8-5.6c2.9,0,3.7,1.8,3.7,1.8h0c0,0,0-0.1,0-0.4v-1.2h1.5v10.8c0,3.5-2.6,4.9-5.3,4.9c-1.3,0-2.6-0.3-3.6-0.9
		l0.6-1.2C593.7,287.7,595.1,288.5,596.7,288.5z M600.6,279.5c0-3.2-1.5-4.2-3.5-4.2c-2.2,0-3.4,1.6-3.4,4.2s1.4,4.4,3.6,4.4
		C599.1,283.8,600.6,282.7,600.6,279.5z"/>
	<path fill="#1D1756" d="M611.5,269.7h1.6v1.9h-1.6V269.7z M611.6,274.1h1.5v11.1h-1.5V274.1z"/>
	<path fill="#1D1756" d="M616.6,282.8c0,0,1.2,1.3,3.3,1.3c1.2,0,2.2-0.6,2.2-1.8c0-2.4-6-1.8-6-5.4c0-2,1.8-3.1,3.8-3.1
		c2.3,0,3.4,1.2,3.4,1.2l-0.7,1.1c0,0-0.9-1-2.8-1c-1.1,0-2.2,0.5-2.2,1.7c0,2.4,6,1.8,6,5.4c0,1.8-1.6,3.1-3.8,3.1
		c-2.7,0-4.1-1.6-4.1-1.6L616.6,282.8z"/>
	<path fill="#1D1756" d="M632.4,274.1h1.5v2c0,0.5,0,0.9,0,0.9h0c0.5-1.7,1.8-2.9,3.5-2.9c0.3,0,0.6,0.1,0.6,0.1v1.5
		c0,0-0.3,0-0.5,0c-1.6,0-2.7,1.2-3.2,2.9c-0.2,0.7-0.3,1.5-0.3,2.2v4.7h-1.5V274.1z"/>
	<path fill="#1D1756" d="M644.7,273.9c3.1,0,4.6,2.4,4.6,5.1c0,0.3,0,0.8,0,0.8h-8.5c0.1,2.8,2,4.4,4.3,4.4c2,0,3.4-1.3,3.4-1.3
		l0.7,1.1c0,0-1.6,1.5-4.1,1.5c-3.3,0-5.8-2.4-5.8-5.8C639.2,276.1,641.7,273.9,644.7,273.9z M647.8,278.5c-0.1-2.3-1.5-3.4-3.1-3.4
		c-1.8,0-3.5,1.2-3.8,3.4H647.8z"/>
	<path fill="#1D1756" d="M656.6,273.9c2.7,0,3.6,2.1,3.6,2.1h0c0,0,0-0.4,0-0.8v-1h1.5v15.5h-1.5v-5.3c0-0.6,0-1,0-1h0
		c0,0-0.9,2.2-3.8,2.2c-3,0-4.8-2.4-4.8-5.8C651.6,276.2,653.7,273.9,656.6,273.9z M656.7,284.1c1.8,0,3.6-1.3,3.6-4.5
		c0-2.2-1.1-4.4-3.5-4.4c-2,0-3.6,1.7-3.6,4.4C653.2,282.4,654.6,284.1,656.7,284.1z"/>
	<path fill="#1D1756" d="M665.2,274.1h1.5v6.6c0,1.7,0.3,3.3,2.4,3.3c2.5,0,4.1-2.2,4.1-4.6v-5.3h1.5v11.1h-1.5v-1.7
		c0-0.5,0-0.9,0-0.9h0c-0.4,1.1-1.9,2.8-4.3,2.8c-2.6,0-3.7-1.4-3.7-4.3V274.1z"/>
	<path fill="#1D1756" d="M678.3,269.7h1.6v1.9h-1.6V269.7z M678.3,274.1h1.5v11.1h-1.5V274.1z"/>
	<path fill="#1D1756" d="M683.4,274.1h1.5v2c0,0.5,0,0.9,0,0.9h0c0.5-1.7,1.8-2.9,3.5-2.9c0.3,0,0.6,0.1,0.6,0.1v1.5
		c0,0-0.3,0-0.5,0c-1.6,0-2.7,1.2-3.2,2.9c-0.2,0.7-0.3,1.5-0.3,2.2v4.7h-1.5V274.1z"/>
	<path fill="#1D1756" d="M695.7,273.9c3.1,0,4.6,2.4,4.6,5.1c0,0.3,0,0.8,0,0.8h-8.5c0.1,2.8,2,4.4,4.3,4.4c2,0,3.4-1.3,3.4-1.3
		l0.7,1.1c0,0-1.6,1.5-4.1,1.5c-3.3,0-5.8-2.4-5.8-5.8C690.3,276.1,692.7,273.9,695.7,273.9z M698.8,278.5c-0.1-2.3-1.5-3.4-3.1-3.4
		c-1.8,0-3.5,1.2-3.8,3.4H698.8z"/>
	<path fill="#1D1756" d="M707.6,273.9c2.7,0,3.6,2.1,3.6,2.1h0c0,0,0-0.4,0-0.8v-5.4h1.5v15.5h-1.5V284c0-0.5,0-0.8,0-0.8h0
		c0,0-0.9,2.2-3.8,2.2c-3,0-4.8-2.4-4.8-5.8C702.7,276.2,704.7,273.9,707.6,273.9z M707.7,284.1c1.8,0,3.6-1.3,3.6-4.5
		c0-2.2-1.1-4.4-3.5-4.4c-2,0-3.6,1.7-3.6,4.4C704.2,282.4,705.6,284.1,707.7,284.1z"/>
	<path fill="#1D1756" d="M720.8,274.1h1.6l2.7,8.3c0.2,0.5,0.3,1.2,0.3,1.2h0c0,0,0.2-0.7,0.3-1.2l2.7-8.2h1.5l2.7,8.2
		c0.2,0.5,0.3,1.2,0.3,1.2h0c0,0,0.2-0.6,0.3-1.2l2.7-8.3h1.6l-3.7,11.1h-1.6l-2.7-7.9c-0.2-0.5-0.4-1.2-0.4-1.2h0
		c0,0-0.2,0.6-0.3,1.2l-2.7,7.9h-1.6L720.8,274.1z"/>
	<path fill="#1D1756" d="M739.9,269.7h1.6v1.9h-1.6V269.7z M740,274.1h1.5v11.1H740V274.1z"/>
	<path fill="#1D1756" d="M745.4,275.5h-1.5v-1.3h1.5v-3.2h1.5v3.2h2.8v1.3h-2.8v5.5c0,2.6,1.7,2.9,2.5,2.9c0.3,0,0.5,0,0.5,0v1.3
		c0,0-0.2,0-0.6,0c-1.3,0-3.9-0.4-3.9-4.1V275.5z"/>
	<path fill="#1D1756" d="M752.3,269.7h1.5v6c0,0.5,0,0.9,0,0.9h0c0.4-1.1,1.9-2.8,4.4-2.8c2.7,0,3.7,1.6,3.7,4.3v7h-1.5v-6.6
		c0-1.7-0.3-3.3-2.4-3.3c-1.9,0-3.5,1.3-4,3.1c-0.1,0.4-0.2,0.9-0.2,1.5v5.3h-1.5V269.7z"/>
	<path fill="#1D1756" d="M779.3,280.3h-6.2l-1.8,4.9h-1.6l5.7-15.5h1.6l5.7,15.5h-1.6L779.3,280.3z M776.2,271.3c0,0-0.3,1.3-0.6,2
		l-2.1,5.6h5.3l-2-5.6C776.6,272.6,776.3,271.3,776.2,271.3L776.2,271.3z"/>
	<path fill="#1D1756" d="M785.4,269.7h5.3c2.8,0,4.8,1.8,4.8,4.7c0,2.9-2,4.7-4.8,4.7h-3.8v6.1h-1.5V269.7z M790.5,277.8
		c2.1,0,3.4-1.3,3.4-3.4c0-2.1-1.3-3.3-3.4-3.3h-3.7v6.7H790.5z"/>
	<path fill="#1D1756" d="M802.4,271.1h-5.6v-1.4h12.6v1.4h-5.5v14.1h-1.5V271.1z"/>
	<path fill="#1D1756" d="M812,269.7h1.5v15.5H812V269.7z"/>
	<path fill="#1D1756" d="M824.9,269.5c4.4,0,7.9,3.5,7.9,7.9c0,4.5-3.5,8.1-7.9,8.1s-7.9-3.6-7.9-8.1
		C817.1,272.9,820.6,269.5,824.9,269.5z M824.9,284.1c3.5,0,6.3-2.9,6.3-6.7c0-3.7-2.8-6.5-6.3-6.5c-3.5,0-6.3,2.8-6.3,6.5
		C818.7,281.2,821.4,284.1,824.9,284.1z"/>
	<path fill="#1D1756" d="M837,269.7h1.6l4,9.1c0.4,0.8,0.7,1.9,0.7,1.9h0c0,0,0.4-1.1,0.8-1.9l4-9.1h1.6l1.2,15.5h-1.5l-0.9-10.8
		c-0.1-0.8,0-2.2,0-2.2h0c0,0-0.5,1.4-0.8,2.2l-3.6,7.9h-1.4l-3.6-7.9c-0.4-0.8-0.8-2.2-0.8-2.2h0c0,0,0,1.4,0,2.2l-0.9,10.8h-1.5
		L837,269.7z"/>
	<path fill="#1D1756" d="M853.5,277.1h2v-6.6c0-0.3,0-0.5,0-0.5h0c0,0-0.1,0.2-0.4,0.5l-1,1l-0.6-0.6l2-2h0.8v8.2h2v0.8h-4.9V277.1z
		"/>
</g>
<g>
	<path fill="#1D1756" d="M131.4,350.1h-6.2l-1.8,4.9h-1.6l5.7-15.5h1.6l5.7,15.5h-1.6L131.4,350.1z M128.3,341.2c0,0-0.3,1.3-0.6,2
		l-2.1,5.6h5.3l-2-5.6C128.7,342.5,128.3,341.2,128.3,341.2L128.3,341.2z"/>
	<path fill="#1D1756" d="M137.4,339.6h5.3c2.8,0,4.8,1.8,4.8,4.7c0,2.9-2,4.7-4.8,4.7H139v6.1h-1.5V339.6z M142.6,347.6
		c2.1,0,3.4-1.3,3.4-3.4c0-2.1-1.3-3.3-3.4-3.3H139v6.7H142.6z"/>
	<path fill="#1D1756" d="M154.5,340.9h-5.6v-1.4h12.6v1.4H156v14.1h-1.5V340.9z"/>
	<path fill="#1D1756" d="M164.1,339.6h1.5v15.5h-1.5V339.6z"/>
	<path fill="#1D1756" d="M177,339.3c4.4,0,7.9,3.5,7.9,7.9c0,4.5-3.5,8.1-7.9,8.1c-4.4,0-7.9-3.6-7.9-8.1
		C169.1,342.8,172.6,339.3,177,339.3z M177,353.9c3.5,0,6.3-2.9,6.3-6.7c0-3.7-2.8-6.5-6.3-6.5c-3.5,0-6.3,2.8-6.3,6.5
		C170.7,351,173.5,353.9,177,353.9z"/>
	<path fill="#1D1756" d="M189.1,339.6h1.6l4,9.1c0.4,0.8,0.7,1.9,0.7,1.9h0c0,0,0.4-1.1,0.8-1.9l4-9.1h1.6l1.2,15.5h-1.5l-0.9-10.8
		c-0.1-0.8,0-2.2,0-2.2h0c0,0-0.5,1.4-0.8,2.2l-3.6,7.9h-1.4l-3.6-7.9c-0.4-0.8-0.8-2.2-0.8-2.2h0c0,0,0,1.4,0,2.2l-0.9,10.8h-1.5
		L189.1,339.6z"/>
	<path fill="#1D1756" d="M212.5,339.6h1.6v1.9h-1.6V339.6z M212.6,344h1.5v11.1h-1.5V344z"/>
	<path fill="#1D1756" d="M217.6,352.6c0,0,1.2,1.3,3.3,1.3c1.2,0,2.2-0.6,2.2-1.8c0-2.4-6-1.8-6-5.4c0-2,1.8-3.1,3.8-3.1
		c2.3,0,3.4,1.2,3.4,1.2l-0.7,1.1c0,0-0.9-1-2.8-1c-1.1,0-2.2,0.5-2.2,1.7c0,2.4,6,1.8,6,5.4c0,1.8-1.6,3.1-3.8,3.1
		c-2.7,0-4.1-1.6-4.1-1.6L217.6,352.6z"/>
	<path fill="#1D1756" d="M233.1,343.8h2.7v1.3c0,0.4,0,0.8,0,0.8h0c0.5-0.9,1.7-2.3,4-2.3c2.5,0,3.9,1.3,3.9,4.3v7.2h-2.8v-6.6
		c0-1.4-0.4-2.3-1.8-2.3c-1.5,0-2.6,0.9-3,2.3c-0.2,0.5-0.2,1-0.2,1.5v5.1h-2.8V343.8z"/>
	<path fill="#1D1756" d="M251.9,343.6c3.4,0,6.2,2.4,6.2,5.9c0,3.5-2.8,5.9-6.2,5.9c-3.4,0-6.2-2.4-6.2-5.9
		C245.7,346,248.5,343.6,251.9,343.6z M251.9,352.9c1.8,0,3.3-1.4,3.3-3.5c0-2.1-1.5-3.5-3.3-3.5c-1.8,0-3.3,1.4-3.3,3.5
		C248.6,351.5,250.1,352.9,251.9,352.9z"/>
	<path fill="#1D1756" d="M260.8,346.2h-1.5V344h1.5v-3.2h2.7v3.2h2.6v2.2h-2.6v4.4c0,1.8,1.5,2.1,2.2,2.1c0.3,0,0.5,0,0.5,0v2.4
		c0,0-0.3,0.1-0.9,0.1c-1.6,0-4.7-0.5-4.7-4.2V346.2z"/>
	<path fill="#1D1756" d="M280.7,348.2h0.6v-0.3c0-2.1-1.2-2.9-2.8-2.9c-1.8,0-3.1,1.1-3.1,1.1l-0.7-1.1c0,0,1.5-1.3,3.9-1.3
		c2.7,0,4.1,1.5,4.1,4.2v7.1h-1.4v-1.2c0-0.6,0-0.9,0-0.9h0c0,0-0.9,2.4-3.7,2.4c-1.8,0-3.8-1.1-3.8-3.3
		C273.9,348.3,278.8,348.2,280.7,348.2z M277.9,354c2.1,0,3.4-2.2,3.4-4.1v-0.5h-0.6c-1.7,0-5.2,0.1-5.2,2.5
		C275.4,353,276.3,354,277.9,354z"/>
	<path fill="#1D1756" d="M297.2,343.7c2.7,0,4,1.6,4,1.6l-0.8,1.1c0,0-1.2-1.3-3.2-1.3c-2.4,0-4.3,1.8-4.3,4.4
		c0,2.6,1.9,4.4,4.4,4.4c2.2,0,3.5-1.6,3.5-1.6l0.7,1.2c0,0-1.5,1.7-4.3,1.7c-3.3,0-5.8-2.4-5.8-5.8
		C291.4,346.1,293.9,343.7,297.2,343.7z"/>
	<path fill="#1D1756" d="M308.9,343.7c3.2,0,5.9,2.5,5.9,5.7c0,3.3-2.6,5.9-5.9,5.9c-3.2,0-5.9-2.5-5.9-5.9
		C303.1,346.2,305.7,343.7,308.9,343.7z M308.9,354c2.4,0,4.3-1.9,4.3-4.5c0-2.5-1.9-4.4-4.3-4.4c-2.4,0-4.3,1.9-4.3,4.4
		C304.6,352,306.6,354,308.9,354z"/>
	<path fill="#1D1756" d="M317.7,344h1.5v1.7c0,0.5,0,0.9,0,0.9h0c0.4-1,1.8-2.8,4.4-2.8c2.7,0,3.7,1.6,3.7,4.3v7h-1.5v-6.6
		c0-1.7-0.3-3.3-2.4-3.3c-1.9,0-3.5,1.3-4,3.1c-0.1,0.5-0.2,1-0.2,1.5v5.3h-1.5V344z"/>
	<path fill="#1D1756" d="M331,345.4h-1.5v-1.3h1.5v-3.2h1.5v3.2h2.8v1.3h-2.8v5.5c0,2.6,1.6,2.9,2.5,2.9c0.3,0,0.5,0,0.5,0v1.3
		c0,0-0.2,0-0.6,0c-1.3,0-3.9-0.4-3.9-4.1V345.4z"/>
	<path fill="#1D1756" d="M337.9,344h1.5v2c0,0.5,0,0.9,0,0.9h0c0.5-1.7,1.8-2.9,3.5-2.9c0.3,0,0.6,0.1,0.6,0.1v1.5c0,0-0.3,0-0.6,0
		c-1.6,0-2.7,1.2-3.2,2.9c-0.2,0.7-0.3,1.5-0.3,2.2v4.7h-1.5V344z"/>
	<path fill="#1D1756" d="M350.5,343.7c3.2,0,5.9,2.5,5.9,5.7c0,3.3-2.6,5.9-5.9,5.9c-3.2,0-5.9-2.5-5.9-5.9
		C344.7,346.2,347.3,343.7,350.5,343.7z M350.5,354c2.4,0,4.3-1.9,4.3-4.5c0-2.5-1.9-4.4-4.3-4.4c-2.4,0-4.3,1.9-4.3,4.4
		C346.2,352,348.1,354,350.5,354z"/>
	<path fill="#1D1756" d="M359.2,339.6h1.5v12.5c0,1.5,0.7,1.7,1.2,1.7c0.2,0,0.4,0,0.4,0v1.3c0,0-0.3,0-0.6,0
		c-0.9,0-2.6-0.3-2.6-2.7V339.6z"/>
	<path fill="#1D1756" d="M364.5,339.6h1.5v12.5c0,1.5,0.7,1.7,1.2,1.7c0.2,0,0.4,0,0.4,0v1.3c0,0-0.3,0-0.6,0
		c-0.9,0-2.6-0.3-2.6-2.7V339.6z"/>
	<path fill="#1D1756" d="M374.7,343.7c3.1,0,4.6,2.4,4.6,5.1c0,0.3,0,0.8,0,0.8h-8.5c0.1,2.8,2,4.4,4.3,4.4c2,0,3.4-1.3,3.4-1.3
		l0.7,1.1c0,0-1.6,1.5-4.1,1.5c-3.3,0-5.8-2.4-5.8-5.8C369.2,345.9,371.7,343.7,374.7,343.7z M377.8,348.4c-0.1-2.3-1.5-3.4-3.1-3.4
		c-1.8,0-3.5,1.2-3.8,3.4H377.8z"/>
	<path fill="#1D1756" d="M386.6,343.7c2.7,0,3.6,2.1,3.6,2.1h0c0,0,0-0.4,0-0.8v-5.4h1.5v15.5h-1.5v-1.2c0-0.5,0-0.8,0-0.8h0
		c0,0-0.9,2.2-3.8,2.2c-3,0-4.8-2.4-4.8-5.8C381.6,346,383.7,343.7,386.6,343.7z M386.7,354c1.8,0,3.6-1.3,3.6-4.5
		c0-2.2-1.1-4.4-3.5-4.4c-2,0-3.6,1.7-3.6,4.4C383.2,352.2,384.6,354,386.7,354z"/>
	<path fill="#1D1756" d="M401.1,352.6c0,0,1.2,1.3,3.3,1.3c1.2,0,2.2-0.6,2.2-1.8c0-2.4-6-1.8-6-5.4c0-2,1.8-3.1,3.8-3.1
		c2.3,0,3.4,1.2,3.4,1.2l-0.7,1.1c0,0-0.9-1-2.8-1c-1.1,0-2.2,0.5-2.2,1.7c0,2.4,6,1.8,6,5.4c0,1.8-1.6,3.1-3.8,3.1
		c-2.7,0-4.1-1.6-4.1-1.6L401.1,352.6z"/>
	<path fill="#1D1756" d="M410.8,344h1.5v6.6c0,1.7,0.3,3.3,2.4,3.3c2.5,0,4.1-2.2,4.1-4.6V344h1.5v11.1h-1.5v-1.7c0-0.5,0-0.9,0-0.9
		h0c-0.4,1.1-1.9,2.8-4.3,2.8c-2.6,0-3.7-1.4-3.7-4.3V344z"/>
	<path fill="#1D1756" d="M423.9,339.6h1.5v5.4c0,0.5,0,0.9,0,0.9h0c0,0,0.9-2.1,3.8-2.1c3,0,4.8,2.4,4.8,5.8c0,3.5-2.1,5.8-5,5.8
		c-2.6,0-3.6-2.2-3.6-2.2h0c0,0,0,0.4,0,0.9v1h-1.5V339.6z M428.9,354c2,0,3.6-1.7,3.6-4.5c0-2.7-1.4-4.4-3.5-4.4
		c-1.8,0-3.6,1.3-3.6,4.5C425.3,351.8,426.5,354,428.9,354z"/>
	<path fill="#1D1756" d="M436.8,352.6c0,0,1.2,1.3,3.3,1.3c1.2,0,2.2-0.6,2.2-1.8c0-2.4-6-1.8-6-5.4c0-2,1.8-3.1,3.8-3.1
		c2.3,0,3.4,1.2,3.4,1.2l-0.7,1.1c0,0-0.9-1-2.8-1c-1.1,0-2.2,0.5-2.2,1.7c0,2.4,6,1.8,6,5.4c0,1.8-1.6,3.1-3.8,3.1
		c-2.7,0-4.1-1.6-4.1-1.6L436.8,352.6z"/>
	<path fill="#1D1756" d="M447.1,345.4h-1.5v-1.3h1.5v-3.2h1.5v3.2h2.8v1.3h-2.8v5.5c0,2.6,1.6,2.9,2.5,2.9c0.3,0,0.5,0,0.5,0v1.3
		c0,0-0.2,0-0.6,0c-1.3,0-3.9-0.4-3.9-4.1V345.4z"/>
	<path fill="#1D1756" d="M460.2,348.2h0.6v-0.3c0-2.1-1.2-2.9-2.8-2.9c-1.8,0-3.1,1.1-3.1,1.1l-0.7-1.1c0,0,1.5-1.3,3.9-1.3
		c2.7,0,4.1,1.5,4.1,4.2v7.1h-1.4v-1.2c0-0.6,0-0.9,0-0.9h0c0,0-0.9,2.4-3.7,2.4c-1.8,0-3.8-1.1-3.8-3.3
		C453.4,348.3,458.3,348.2,460.2,348.2z M457.4,354c2.1,0,3.4-2.2,3.4-4.1v-0.5h-0.6c-1.7,0-5.2,0.1-5.2,2.5
		C454.9,353,455.7,354,457.4,354z"/>
	<path fill="#1D1756" d="M465.8,344h1.5v1.7c0,0.5,0,0.9,0,0.9h0c0.4-1,1.8-2.8,4.4-2.8c2.7,0,3.7,1.6,3.7,4.3v7h-1.5v-6.6
		c0-1.7-0.3-3.3-2.4-3.3c-1.9,0-3.5,1.3-4,3.1c-0.1,0.5-0.2,1-0.2,1.5v5.3h-1.5V344z"/>
	<path fill="#1D1756" d="M484,343.7c2.7,0,4,1.6,4,1.6l-0.8,1.1c0,0-1.2-1.3-3.2-1.3c-2.4,0-4.3,1.8-4.3,4.4c0,2.6,1.9,4.4,4.4,4.4
		c2.2,0,3.5-1.6,3.5-1.6l0.7,1.2c0,0-1.5,1.7-4.3,1.7c-3.3,0-5.8-2.4-5.8-5.8C478.2,346.1,480.7,343.7,484,343.7z"/>
	<path fill="#1D1756" d="M495.4,343.7c3.1,0,4.6,2.4,4.6,5.1c0,0.3,0,0.8,0,0.8h-8.5c0.1,2.8,2,4.4,4.3,4.4c2,0,3.4-1.3,3.4-1.3
		l0.7,1.1c0,0-1.6,1.5-4.1,1.5c-3.3,0-5.8-2.4-5.8-5.8C489.9,345.9,492.4,343.7,495.4,343.7z M498.5,348.4c-0.1-2.3-1.5-3.4-3.1-3.4
		c-1.8,0-3.5,1.2-3.8,3.4H498.5z"/>
	<path fill="#1D1756" d="M501.8,346.9h2v-6.6c0-0.3,0-0.5,0-0.5h0c0,0-0.1,0.2-0.4,0.5l-1,1l-0.6-0.6l2-2h0.8v8.2h2v0.8h-4.9V346.9z
		"/>
</g>
</svg>
