<?xml version="1.0" encoding="utf-8"?>
<!-- Generator: Adobe Illustrator 18.1.1, SVG Export Plug-In . SVG Version: 6.00 Build 0)  -->
<svg version="1.1" id="Layer_1" xmlns="http://www.w3.org/2000/svg" xmlns:xlink="http://www.w3.org/1999/xlink" x="0px" y="0px"
	 viewBox="1.5 103.9 609.8 584.3" enable-background="new 1.5 103.9 609.8 584.3" xml:space="preserve">
<g>
	<g>
		<defs>
			
				<rect id="SVGID_1_" x="0.6" y="103.7" transform="matrix(1 -4.165514e-03 4.165514e-03 1 -1.646 1.2761)" width="609.8" height="584.3"/>
		</defs>
		<clipPath id="SVGID_2_">
			<use xlink:href="#SVGID_1_"  overflow="visible"/>
		</clipPath>
		<path clip-path="url(#SVGID_2_)" fill="#FFFFFF" d="M1.5,397.5c0.7,161.4,137.3,291.4,306,290.7c168-0.7,304.5-132.2,303.8-293.6
			s-138-291.4-306.7-290.7C136.6,104.6,0.7,236.1,1.5,397.5"/>
	</g>
	<g>
		<defs>
			
				<rect id="SVGID_3_" x="0.6" y="103.7" transform="matrix(1 -4.165514e-03 4.165514e-03 1 -1.646 1.2761)" width="609.8" height="584.3"/>
		</defs>
		<clipPath id="SVGID_4_">
			<use xlink:href="#SVGID_3_"  overflow="visible"/>
		</clipPath>
		<path clip-path="url(#SVGID_4_)" fill="#0078AE" d="M296.5,476.3c-10.2,0-29.2,0-39.4,0c-3.7,0-15.3,0.7-25.6,1.5
			c-11,0.7-21.2,1.5-25.6,1.5c-59.9,0-70.8-55.5-70.8-81.1c0-43.8,22.6-84.7,76.7-84.7c41.6,0,72.3,27.8,72.3,80.3
			c0,36.5-16.1,52.6-24.1,59.9c7.3-1.5,21.9-2.2,35.8-1.5L296.5,476.3z M210.3,453.7c33.6,0,39.4-35.1,39.4-60.6
			c0-22.6-5.1-33.6-10.2-40.9c-3.7-5.8-13.1-14.6-29.2-14.6c-29.9,0-40.2,29.2-40.2,58.4C170.9,417.9,177.5,453.7,210.3,453.7"/>
	</g>
	<g>
		<defs>
			
				<rect id="SVGID_5_" x="0.6" y="103.7" transform="matrix(1 -4.165514e-03 4.165514e-03 1 -1.646 1.2761)" width="609.8" height="584.3"/>
		</defs>
		<clipPath id="SVGID_6_">
			<use xlink:href="#SVGID_5_"  overflow="visible"/>
		</clipPath>
		<path clip-path="url(#SVGID_6_)" fill="#0078AE" d="M325,315.7h53.3c8.8,0,35.8,0,55.5,13.9c20.4,14.6,27.8,40.2,27.8,62.8
			c0,48.9-26.3,75.2-56.2,80.3c-5.8,1.5-12.4,1.5-28.5,2.2h-49.7L325,315.7z M360.8,449.3c3.7,0,9.5,0.7,13.9,0.7
			c14.6,0,27-1.5,37.2-11c13.1-13.9,14.6-37.2,13.9-45.3c0-22.6-8-43.1-29.2-49.7c-7.3-2.2-16.1-2.9-35.8-2.2V449.3z"/>
	</g>
</g>
<g>
	<g>
		<defs>
			
				<rect id="SVGID_7_" x="0.6" y="103.7" transform="matrix(1 -4.165514e-03 4.165514e-03 1 -1.646 1.2761)" width="609.8" height="584.3"/>
		</defs>
		<clipPath id="SVGID_8_">
			<use xlink:href="#SVGID_7_"  overflow="visible"/>
		</clipPath>
		<g clip-path="url(#SVGID_8_)">
			<g enable-background="new    ">
				<path fill="#0078AE" d="M124.5,475.6l6.2,8.7c5.9,8.2,4.3,10.6-4.6,16.9c-5.4,3.9-8.3,4.8-13,1.2l-0.1,0.1
					c2.3,4.1,1.3,6.8-2.5,9.5l-8.8,6.3c-1.5,1-3.5,2.5-4.9,4l-3.8-5.3c0.6-1.3,1.5-2.1,3.2-3.3l9.1-6.5c3.8-2.7,4.3-4.1,1.7-7.8
					l-1.4-1.9L88,510.1l-4-5.6L124.5,475.6z M110.3,494.2l1,1.5c3.2,4.4,4.4,4.4,10.5,0.1c6-4.3,6.3-5,3.8-8.5l-1.9-2.7L110.3,494.2
					z"/>
			</g>
		</g>
	</g>
	<g>
		<defs>
			
				<rect id="SVGID_9_" x="0.6" y="103.7" transform="matrix(1 -4.165514e-03 4.165514e-03 1 -1.646 1.2761)" width="609.8" height="584.3"/>
		</defs>
		<clipPath id="SVGID_10_">
			<use xlink:href="#SVGID_9_"  overflow="visible"/>
		</clipPath>
		<g clip-path="url(#SVGID_10_)">
			<g enable-background="new    ">
				<path fill="#0078AE" d="M145.9,503.6l13,13.6l-4.2,4l-8.2-8.6l-11.3,10.8l7.7,8.1l-4.2,4l-7.7-8.1L118.8,539l8.2,8.6l-4.2,4
					l-13-13.6L145.9,503.6z"/>
			</g>
		</g>
	</g>
	<g>
		<defs>
			
				<rect id="SVGID_11_" x="0.6" y="103.7" transform="matrix(1 -4.165514e-03 4.165514e-03 1 -1.646 1.2761)" width="609.8" height="584.3"/>
		</defs>
		<clipPath id="SVGID_12_">
			<use xlink:href="#SVGID_11_"  overflow="visible"/>
		</clipPath>
		<g clip-path="url(#SVGID_12_)">
			<g enable-background="new    ">
				<path fill="#0078AE" d="M167.2,524.7l5.4,4.3l-27.6,34.2l9,7.3l-3.6,4.5l-14.4-11.6L167.2,524.7z"/>
			</g>
		</g>
	</g>
	<g>
		<defs>
			
				<rect id="SVGID_13_" x="0.6" y="103.7" transform="matrix(1 -4.165514e-03 4.165514e-03 1 -1.646 1.2761)" width="609.8" height="584.3"/>
		</defs>
		<clipPath id="SVGID_14_">
			<use xlink:href="#SVGID_13_"  overflow="visible"/>
		</clipPath>
		<g clip-path="url(#SVGID_14_)">
			<g enable-background="new    ">
				<path fill="#0078AE" d="M191,542.8l16,9.8l-3,4.9l-10.1-6.2l-8.1,13.3l9.5,5.8l-3,4.9l-9.5-5.8l-8.8,14.4l10.1,6.2l-3,4.9
					l-16-9.8L191,542.8z"/>
			</g>
		</g>
	</g>
	<g>
		<defs>
			
				<rect id="SVGID_15_" x="0.6" y="103.7" transform="matrix(1 -4.165514e-03 4.165514e-03 1 -1.646 1.2761)" width="609.8" height="584.3"/>
		</defs>
		<clipPath id="SVGID_16_">
			<use xlink:href="#SVGID_15_"  overflow="visible"/>
		</clipPath>
		<g clip-path="url(#SVGID_16_)">
			<g enable-background="new    ">
				<path fill="#0078AE" d="M225.8,561.6l7.4,3.1l-9.9,49.8l-6.4-2.7l2.8-12.6l-9.9-4.2l-7,10.8l-6.4-2.7L225.8,561.6z M213,590.2
					l8.1,3.4l5.3-23.8l-0.1-0.1L213,590.2z"/>
			</g>
		</g>
	</g>
	<g>
		<defs>
			
				<rect id="SVGID_17_" x="0.6" y="103.7" transform="matrix(1 -4.165514e-03 4.165514e-03 1 -1.646 1.2761)" width="609.8" height="584.3"/>
		</defs>
		<clipPath id="SVGID_18_">
			<use xlink:href="#SVGID_17_"  overflow="visible"/>
		</clipPath>
		<g clip-path="url(#SVGID_18_)">
			<g enable-background="new    ">
				<path fill="#0078AE" d="M245.4,606.3l6.7,1.6l-0.9,4c-0.8,3.2,0,5.5,2.6,6.2c3.6,0.8,5-1.4,5.8-4.5c1-4.1,1.1-5.5-4.2-14.1
					c-3.3-5.3-5.9-10.1-4.3-16.6c1.9-7.9,6.4-10.5,13.7-8.7c3.6,0.9,5.9,2.7,7.2,4.6c0.9,1.3,1.3,3.2,0.5,6.6l-1.1,4.6l-6.3-1.5
					l0.9-3.8c0.7-2.8-0.1-4.6-2.7-5.3c-2.7-0.7-4.4,0.6-5.3,4.3c-0.8,3.3-0.6,5.5,4,13.4c4.9,8.4,5.6,11,4.2,16.9
					c-1.8,7.6-5.8,11.2-13.8,9.3c-6.2-1.5-9.8-5.1-8.3-11.1L245.4,606.3z"/>
			</g>
		</g>
	</g>
	<g>
		<defs>
			
				<rect id="SVGID_19_" x="0.6" y="103.7" transform="matrix(1 -4.165514e-03 4.165514e-03 1 -1.646 1.2761)" width="609.8" height="584.3"/>
		</defs>
		<clipPath id="SVGID_20_">
			<use xlink:href="#SVGID_19_"  overflow="visible"/>
		</clipPath>
		<g clip-path="url(#SVGID_20_)">
			<g enable-background="new    ">
				<path fill="#0078AE" d="M287.7,578.9l18.7,1.8l-0.5,5.8l-11.8-1.1l-1.5,15.5l11.1,1.1l-0.5,5.8l-11.1-1.1l-1.6,16.8l11.8,1.1
					l-0.5,5.8l-18.7-1.8L287.7,578.9z"/>
			</g>
		</g>
	</g>
	<g>
		<defs>
			
				<rect id="SVGID_21_" x="0.6" y="103.7" transform="matrix(1 -4.165514e-03 4.165514e-03 1 -1.646 1.2761)" width="609.8" height="584.3"/>
		</defs>
		<clipPath id="SVGID_22_">
			<use xlink:href="#SVGID_21_"  overflow="visible"/>
		</clipPath>
	</g>
	<g>
		<defs>
			
				<rect id="SVGID_23_" x="0.6" y="103.7" transform="matrix(1 -4.165514e-03 4.165514e-03 1 -1.646 1.2761)" width="609.8" height="584.3"/>
		</defs>
		<clipPath id="SVGID_24_">
			<use xlink:href="#SVGID_23_"  overflow="visible"/>
		</clipPath>
		<g clip-path="url(#SVGID_24_)">
			<g enable-background="new    ">
				<path fill="#0078AE" d="M332.8,580.6l23.3-2.7l0.7,5.8l-8.2,0.9l5,43.7l-6.8,0.8l-5-43.7l-8.2,0.9L332.8,580.6z"/>
			</g>
		</g>
	</g>
	<g>
		<defs>
			
				<rect id="SVGID_25_" x="0.6" y="103.7" transform="matrix(1 -4.165514e-03 4.165514e-03 1 -1.646 1.2761)" width="609.8" height="584.3"/>
		</defs>
		<clipPath id="SVGID_26_">
			<use xlink:href="#SVGID_25_"  overflow="visible"/>
		</clipPath>
		<g clip-path="url(#SVGID_26_)">
			<g enable-background="new    ">
				<path fill="#0078AE" d="M370.8,574.7l7.8-2l22,45.8l-6.7,1.7l-5.3-11.7l-10.4,2.6l0.9,12.9l-6.7,1.7L370.8,574.7z M377.7,605.2
					l8.5-2.1l-10-22.2l-0.1,0L377.7,605.2z"/>
			</g>
		</g>
	</g>
	<g>
		<defs>
			
				<rect id="SVGID_27_" x="0.6" y="103.7" transform="matrix(1 -4.165514e-03 4.165514e-03 1 -1.646 1.2761)" width="609.8" height="584.3"/>
		</defs>
		<clipPath id="SVGID_28_">
			<use xlink:href="#SVGID_27_"  overflow="visible"/>
		</clipPath>
		<g clip-path="url(#SVGID_28_)">
			<g enable-background="new    ">
				<path fill="#0078AE" d="M399.9,565.9l11-4.8c7.8-3.4,10.3-1.3,13.9,7.1c3.9,9,3.1,11.1-0.9,13.5l0.1,0.1c5.5-1.3,7.2,0,10.6,7.8
					c4.3,9.9,4.4,13.6-4.8,17.6l-9.9,4.3L399.9,565.9z M414.8,582.8l3.7-1.6c3.8-1.7,3.8-2.6,0.6-10c-2.3-5.2-3.6-6.1-7.7-4.3
					l-3,1.3L414.8,582.8z M424,603.9l3.9-1.7c3.6-1.6,3.8-2.9,0.6-10.1c-3-6.9-4-7.6-7.5-6.1l-4.1,1.8L424,603.9z"/>
			</g>
		</g>
	</g>
	<g>
		<defs>
			
				<rect id="SVGID_29_" x="0.6" y="103.7" transform="matrix(1 -4.165514e-03 4.165514e-03 1 -1.646 1.2761)" width="609.8" height="584.3"/>
		</defs>
		<clipPath id="SVGID_30_">
			<use xlink:href="#SVGID_29_"  overflow="visible"/>
		</clipPath>
		<g clip-path="url(#SVGID_30_)">
			<g enable-background="new    ">
				<path fill="#0078AE" d="M431.8,550.7l5.9-3.6l23.2,37.4l9.8-6.1l3.1,4.9L458,593L431.8,550.7z"/>
			</g>
		</g>
	</g>
	<g>
		<defs>
			
				<rect id="SVGID_31_" x="0.6" y="103.7" transform="matrix(1 -4.165514e-03 4.165514e-03 1 -1.646 1.2761)" width="609.8" height="584.3"/>
		</defs>
		<clipPath id="SVGID_32_">
			<use xlink:href="#SVGID_31_"  overflow="visible"/>
		</clipPath>
		<g clip-path="url(#SVGID_32_)">
			<g enable-background="new    ">
				<path fill="#0078AE" d="M456.8,534.2l14.5-11.9l3.7,4.5l-9.2,7.5l9.9,12.1l8.6-7.1l3.7,4.5l-8.6,7.1l10.7,13l9.2-7.5l3.7,4.5
					l-14.5,11.9L456.8,534.2z"/>
			</g>
		</g>
	</g>
	<g>
		<defs>
			
				<rect id="SVGID_33_" x="0.6" y="103.7" transform="matrix(1 -4.165514e-03 4.165514e-03 1 -1.646 1.2761)" width="609.8" height="584.3"/>
		</defs>
		<clipPath id="SVGID_34_">
			<use xlink:href="#SVGID_33_"  overflow="visible"/>
		</clipPath>
		<g clip-path="url(#SVGID_34_)">
			<g enable-background="new    ">
				<path fill="#0078AE" d="M478.1,516.1l16-17.2l4.2,3.9l-5.6,6.1l32.2,30l-4.7,5L488,514l-5.6,6.1L478.1,516.1z"/>
			</g>
		</g>
	</g>
	<g>
		<defs>
			
				<rect id="SVGID_35_" x="0.6" y="103.7" transform="matrix(1 -4.165514e-03 4.165514e-03 1 -1.646 1.2761)" width="609.8" height="584.3"/>
		</defs>
		<clipPath id="SVGID_36_">
			<use xlink:href="#SVGID_35_"  overflow="visible"/>
		</clipPath>
		<g clip-path="url(#SVGID_36_)">
			<g enable-background="new    ">
				<path fill="#0078AE" d="M529.9,510.6l3.9-5.7l3.3,2.3c2.7,1.9,5.1,2,6.7-0.2c2.1-3,0.5-5.2-2.1-7c-3.5-2.4-4.7-3-14.6-1.1
					c-6.1,1.1-11.5,1.9-17.1-2c-6.7-4.6-7.4-9.7-3.2-15.9c2.1-3.1,4.7-4.6,6.9-5.1c1.6-0.3,3.5,0,6.4,2l3.9,2.7l-3.7,5.3l-3.2-2.2
					c-2.3-1.6-4.4-1.6-5.9,0.6c-1.6,2.3-1,4.3,2.1,6.5c2.8,1.9,4.9,2.5,13.9,1.1c9.6-1.6,12.3-1.2,17.3,2.2
					c6.4,4.4,8.4,9.5,3.7,16.2c-3.6,5.2-8.3,7.3-13.4,3.7L529.9,510.6z"/>
			</g>
		</g>
	</g>
	<g>
		<defs>
			
				<rect id="SVGID_37_" x="0.6" y="103.7" transform="matrix(1 -4.165514e-03 4.165514e-03 1 -1.646 1.2761)" width="609.8" height="584.3"/>
		</defs>
		<clipPath id="SVGID_38_">
			<use xlink:href="#SVGID_37_"  overflow="visible"/>
		</clipPath>
		<g clip-path="url(#SVGID_38_)">
			<g enable-background="new    ">
				<path fill="#0078AE" d="M127.7,229.2l5.2-4.5l32.3,37.8L160,267L127.7,229.2z"/>
			</g>
		</g>
	</g>
	<g>
		<defs>
			
				<rect id="SVGID_39_" x="0.6" y="103.7" transform="matrix(1 -4.165514e-03 4.165514e-03 1 -1.646 1.2761)" width="609.8" height="584.3"/>
		</defs>
		<clipPath id="SVGID_40_">
			<use xlink:href="#SVGID_39_"  overflow="visible"/>
		</clipPath>
		<g clip-path="url(#SVGID_40_)">
			<g enable-background="new    ">
				<path fill="#0078AE" d="M155.7,207l9.4-5.6l24.8,29.4l0.1-0.1l-13.9-35.9l9.2-5.5l25.4,42.8l-5.6,3.3l-22.9-38.5l-0.1,0.1
					l16.8,42.1l-5.9,3.5l-29.5-34.6l-0.1,0.1l22.9,38.5l-5.2,3.1L155.7,207z"/>
			</g>
		</g>
	</g>
	<g>
		<defs>
			
				<rect id="SVGID_41_" x="0.6" y="103.7" transform="matrix(1 -4.165514e-03 4.165514e-03 1 -1.646 1.2761)" width="609.8" height="584.3"/>
		</defs>
		<clipPath id="SVGID_42_">
			<use xlink:href="#SVGID_41_"  overflow="visible"/>
		</clipPath>
		<g clip-path="url(#SVGID_42_)">
			<g enable-background="new    ">
				<path fill="#0078AE" d="M213.8,176.6l10.5-3.3l17.5,34.2l0.1,0l-5.4-38.1l10.2-3.2l15,47.5l-6.2,2L242,172.9l-0.1,0l6.8,44.9
					l-6.6,2.1l-20.9-40.4l-0.1,0l13.5,42.7l-5.8,1.8L213.8,176.6z"/>
			</g>
		</g>
	</g>
	<g>
		<defs>
			
				<rect id="SVGID_43_" x="0.6" y="103.7" transform="matrix(1 -4.165514e-03 4.165514e-03 1 -1.646 1.2761)" width="609.8" height="584.3"/>
		</defs>
		<clipPath id="SVGID_44_">
			<use xlink:href="#SVGID_43_"  overflow="visible"/>
		</clipPath>
		<g clip-path="url(#SVGID_44_)">
			<g enable-background="new    ">
				<path fill="#0078AE" d="M276,160.9l18.6-2.1l0.7,5.8l-11.8,1.3l1.8,15.5l11.1-1.3l0.7,5.8l-11.1,1.3l1.9,16.7l11.8-1.3l0.7,5.8
					l-18.6,2.1L276,160.9z"/>
			</g>
		</g>
	</g>
	<g>
		<defs>
			
				<rect id="SVGID_45_" x="0.6" y="103.7" transform="matrix(1 -4.165514e-03 4.165514e-03 1 -1.646 1.2761)" width="609.8" height="584.3"/>
		</defs>
		<clipPath id="SVGID_46_">
			<use xlink:href="#SVGID_45_"  overflow="visible"/>
		</clipPath>
		<g clip-path="url(#SVGID_46_)">
			<g enable-background="new    ">
				<path fill="#0078AE" d="M321.3,157.9l11.1,0.6c11.2,0.6,11.8,4.4,11.1,18.8l-0.8,14.8c-0.7,12.7-3.2,16.6-14.1,16l-10-0.5
					L321.3,157.9z M325.8,202.2l3.3,0.2c5.1,0.3,6.2-2.4,6.7-10.9l0.9-17.1c0.4-7.4-0.2-9.9-6.1-10.2l-2.8-0.1L325.8,202.2z"/>
			</g>
		</g>
	</g>
	<g>
		<defs>
			
				<rect id="SVGID_47_" x="0.6" y="103.7" transform="matrix(1 -4.165514e-03 4.165514e-03 1 -1.646 1.2761)" width="609.8" height="584.3"/>
		</defs>
		<clipPath id="SVGID_48_">
			<use xlink:href="#SVGID_47_"  overflow="visible"/>
		</clipPath>
		<g clip-path="url(#SVGID_48_)">
			<g enable-background="new    ">
				<path fill="#0078AE" d="M371.8,163.3l6.8,1.4l-10,48.8l-6.8-1.4L371.8,163.3z"/>
			</g>
		</g>
	</g>
	<g>
		<defs>
			
				<rect id="SVGID_49_" x="0.6" y="103.7" transform="matrix(1 -4.165514e-03 4.165514e-03 1 -1.646 1.2761)" width="609.8" height="584.3"/>
		</defs>
		<clipPath id="SVGID_50_">
			<use xlink:href="#SVGID_49_"  overflow="visible"/>
		</clipPath>
		<g clip-path="url(#SVGID_50_)">
			<g enable-background="new    ">
				<path fill="#0078AE" d="M414.3,174.9l7.5,2.8l-7.9,50.2l-6.5-2.4l2.3-12.7l-10.1-3.8l-6.6,11.1l-6.5-2.4L414.3,174.9z
					 M402.6,204l8.2,3.1l4.4-24l-0.1,0L402.6,204z"/>
			</g>
		</g>
	</g>
	<g>
		<defs>
			
				<rect id="SVGID_51_" x="0.6" y="103.7" transform="matrix(1 -4.165514e-03 4.165514e-03 1 -1.646 1.2761)" width="609.8" height="584.3"/>
		</defs>
		<clipPath id="SVGID_52_">
			<use xlink:href="#SVGID_51_"  overflow="visible"/>
		</clipPath>
		<g clip-path="url(#SVGID_52_)">
			<g enable-background="new    ">
				<path fill="#0078AE" d="M448.4,189.5l20.4,11.6l-2.9,5l-7.2-4.1l-21.7,38.3l-6-3.4l21.7-38.3l-7.2-4.1L448.4,189.5z"/>
			</g>
		</g>
	</g>
	<g>
		<defs>
			
				<rect id="SVGID_53_" x="0.6" y="103.7" transform="matrix(1 -4.165514e-03 4.165514e-03 1 -1.646 1.2761)" width="609.8" height="584.3"/>
		</defs>
		<clipPath id="SVGID_54_">
			<use xlink:href="#SVGID_53_"  overflow="visible"/>
		</clipPath>
		<g clip-path="url(#SVGID_54_)">
			<g enable-background="new    ">
				<path fill="#0078AE" d="M490.5,216.1l14.6,11.7l-3.6,4.5l-9.2-7.4l-9.8,12.1l8.7,7l-3.6,4.5l-8.7-7l-10.5,13.1l9.2,7.4l-3.6,4.5
					L459.3,255L490.5,216.1z"/>
			</g>
		</g>
	</g>
</g>
</svg>
